<?xml version="1.0" encoding="utf-8"?>
<!-- Generator: Adobe Illustrator 16.0.4, SVG Export Plug-In . SVG Version: 6.00 Build 0)  -->
<!DOCTYPE svg PUBLIC "-//W3C//DTD SVG 1.1//EN" "http://www.w3.org/Graphics/SVG/1.1/DTD/svg11.dtd">
<svg version="1.1" id="Layer_1" xmlns="http://www.w3.org/2000/svg" xmlns:xlink="http://www.w3.org/1999/xlink" x="0px" y="0px"
	 width="567.75px" height="227.5px" viewBox="0 0 567.75 227.5" enable-background="new 0 0 567.75 227.5" xml:space="preserve">
<path fill="none" stroke="#BDC3C7" stroke-miterlimit="10" stroke-dasharray="4,4" d="M18.75,46.25h171v162h-171V46.25z"/>
<path fill="none" stroke="#BDC3C7" stroke-miterlimit="10" d="M9.75,10.25h549v207h-549V10.25z"/>
<text transform="matrix(1 0 0 1 20.5 29.5)" font-family="'Helvetica'" font-size="12">Playbook</text>
<text transform="matrix(1 0 0 1 27.75 64.25)" font-family="'Helvetica'" font-size="12">Role 1</text>
<path fill="#95A5A6" d="M29.75,83.25c-1.104,0-2,0.9-2,2v18c0,1.1,0.896,2,2,2h14c1.105,0,2-0.9,2-2v-14l-6-6H29.75z"/>
<path fill="#BDC3C7" d="M29.75,82.25c-1.104,0-2,0.9-2,2v18c0,1.1,0.896,2,2,2h14c1.105,0,2-0.9,2-2v-14l-6-6H29.75z"/>
<path fill="#95A5A6" d="M45.75,88.25l-6-6v4c0,1.1,0.895,2,2,2H45.75z"/>
<text transform="matrix(1 0 0 1 63.75 91.25)" font-family="'Helvetica'" font-size="12">Configuration files</text>
<path fill="#2C3E50" d="M29.75,127.25c-1.104,0-2,0.9-2,2v16c0,1.1,0.896,2,2,2h18c1.105,0,2-0.9,2-2v-16c0-1.1-0.895-2-2-2H29.75z"
	/>
<path fill="#34495E" d="M29.75,127.25c-1.104,0-2,0.896-2,2v15c0,1.105,0.896,2,2,2h18c1.105,0,2-0.895,2-2v-15c0-1.104-0.895-2-2-2
	H29.75z"/>
<path fill="#ECF0F1" d="M30.75,130.375v1.125l3,1.75l-3,1.75v1.125l5-2.875L30.75,130.375z M35.75,135.25v1h5v-1H35.75z"/>
<text transform="matrix(1 0 0 1 63.75 136.25)" font-family="'Helvetica'" font-size="12">Commands</text>
<text transform="matrix(1 0 0 1 63.75 181.25)" font-family="'Helvetica'" font-size="12">Variables</text>
<path fill="none" stroke="#BDC3C7" stroke-miterlimit="10" stroke-dasharray="4,4" d="M198.75,46.25h171v162h-171V46.25z"/>
<text transform="matrix(1 0 0 1 207.75 64.25)" font-family="'Helvetica'" font-size="12">Role 2</text>
<g>
	<path fill="#95A5A6" d="M209.75,83.25c-1.104,0-2,0.9-2,2v18c0,1.1,0.896,2,2,2h14c1.105,0,2-0.9,2-2v-14l-6-6H209.75z"/>
	<path fill="#BDC3C7" d="M209.75,82.25c-1.104,0-2,0.9-2,2v18c0,1.1,0.896,2,2,2h14c1.105,0,2-0.9,2-2v-14l-6-6H209.75z"/>
	<path fill="#95A5A6" d="M225.75,88.25l-6-6v4c0,1.1,0.895,2,2,2H225.75z"/>
</g>
<text transform="matrix(1 0 0 1 243.75 91.25)" font-family="'Helvetica'" font-size="12">Configuration files</text>
<g>
	<path fill="#2C3E50" d="M209.75,127.25c-1.104,0-2,0.9-2,2v16c0,1.1,0.896,2,2,2h18c1.105,0,2-0.9,2-2v-16c0-1.1-0.895-2-2-2
		H209.75z"/>
	<path fill="#34495E" d="M209.75,127.25c-1.104,0-2,0.896-2,2v15c0,1.105,0.896,2,2,2h18c1.105,0,2-0.895,2-2v-15
		c0-1.104-0.895-2-2-2H209.75z"/>
	<path fill="#ECF0F1" d="M210.75,130.375v1.125l3,1.75l-3,1.75v1.125l5-2.875L210.75,130.375z M215.75,135.25v1h5v-1H215.75z"/>
</g>
<text transform="matrix(1 0 0 1 243.75 136.25)" font-family="'Helvetica'" font-size="12">Commands</text>
<text transform="matrix(1 0 0 1 243.75 181.25)" font-family="'Helvetica'" font-size="12">Variables</text>
<g>
	<path fill="#7F8C8D" d="M32.844,172.35v1l3.906,3.9l-1,3l-3,1l-3.906-3.9c-0.055,0.301-0.094,0.5-0.094,0.9c0,0-0.004,0.1,0,0.2
		c-0.004,0.1,0,0.2,0,0.3c0,3,2.463,5.5,5.5,5.5c0.46,0,0.887-0.1,1.312-0.2l2.156,2.101l4.03,4.101l3,3c0.508,0.5,1.215,0.8,2,0.8
		c1.542,0,2.782-1.199,2.782-2.8c0-0.8-0.295-1.5-0.78-2l-0.032-0.101l-2.97-2.899l-4.03-4.101l-2.156-2.101
		c0.105-0.5,0.188-0.899,0.188-1.3c0-3.1-2.462-5.5-5.5-5.5h-0.406v-0.9H32.844z M46.75,189.75c0.828,0,1.5,0.6,1.5,1.5
		c0,0.8-0.672,1.5-1.5,1.5s-1.5-0.7-1.5-1.5C45.25,190.35,45.922,189.75,46.75,189.75z"/>
	<path fill="#95A5A6" d="M33.75,172.25c-0.313,0-0.61,0-0.906,0.1l3.906,3.9l-1,3l-3,1l-3.906-3.9c-0.055,0.301-0.094,0.5-0.094,0.9
		c0,0-0.004,0.1,0,0.2c-0.004,0.1,0,0.2,0,0.3c0,3,2.463,5.5,5.5,5.5c0.46,0,0.887-0.1,1.312-0.2l2.156,2.101l4.03,4.101l3,3
		c0.508,0.5,1.215,0.8,2,0.8c1.542,0,2.782-1.199,2.782-2.8c0-0.8-0.295-1.5-0.78-2l-0.032-0.101l-2.97-2.899l-4.03-4.101
		l-2.156-2.101c0.105-0.5,0.188-0.899,0.188-1.3c0-3.1-2.462-5.5-5.5-5.5H33.75z M46.75,188.75c0.828,0,1.5,0.6,1.5,1.5
		c0,0.8-0.672,1.5-1.5,1.5s-1.5-0.7-1.5-1.5C45.25,189.35,45.922,188.75,46.75,188.75z"/>
	<path fill="#7F8C8D" d="M38.75,181.25l-1.97,1.9l-0.03,0.1c0.008,0-0.006,0,0,0c0,0-0.003,0,0,0.1c0.076,0.2,0.063,0.5,0,0.9
		l0.97,0.9l2.03,2.1c0.365-0.1,0.72-0.1,1,0l2-2l-0.5-0.5l-1-1l1.5-1.5l-1-1l-1.5,1.5L38.75,181.25z"/>
	<path fill="#BDC3C7" d="M39.25,182.75l1,1l9-9l-1-1L39.25,182.75z"/>
	<path fill="#95A5A6" d="M48.75,174.25l-9,9l0.5,0.5l9-9L48.75,174.25z"/>
	<path fill="#95A5A6" d="M49.75,172.25l-2.5,1.5l2,2l1.5-2.5L49.75,172.25z"/>
	<g>
		<path fill="#F39C12" d="M38.75,180.25l-2,2c0.338,0.8-0.416,2.4-1,3c-0.584,0.5-2.116,1.3-3,1l-4,4l4,4l4-4
			c-0.338-0.9,0.416-2.5,1-3c0.584-0.6,2.116-1.4,3-1l2-2L38.75,180.25z"/>
		<path fill="#F1C40F" d="M38.75,180.25l-2,2c0.338,0.8-0.416,2.4-1,3c-0.584,0.5-2.116,1.3-3,1l-4,4l2,2l10-10L38.75,180.25z"/>
		<path fill="#E67E22" d="M36.78,182.15l-0.03,0.1c0.012,0-0.01,0,0,0.1C36.76,182.25,36.773,182.25,36.78,182.15z M42.25,183.75
			l-1.5,1.5c-0.884-0.4-2.416,0.4-3,1c-0.564,0.5-1.258,2-1,2.9c0.176-0.801,0.62-1.602,1-1.9c0.584-0.6,2.116-1.4,3-1l2-2
			L42.25,183.75z M36.72,189.25l-3.97,4l-3.5-3.5l-0.5,0.5l4,4l4-4C36.645,189.95,36.65,189.55,36.72,189.25z"/>
	</g>
</g>
<g>
	<path fill="#7F8C8D" d="M212.844,172.35v1l3.906,3.9l-1,3l-3,1l-3.906-3.9c-0.055,0.301-0.094,0.5-0.094,0.9c0,0-0.004,0.1,0,0.2
		c-0.004,0.1,0,0.2,0,0.3c0,3,2.463,5.5,5.5,5.5c0.46,0,0.887-0.1,1.312-0.2l2.154,2.101l4.03,4.101l3,3c0.508,0.5,1.215,0.8,2,0.8
		c1.542,0,2.782-1.199,2.782-2.8c0-0.8-0.297-1.5-0.78-2l-0.032-0.101l-2.97-2.899l-4.03-4.101l-2.154-2.101
		c0.104-0.5,0.188-0.899,0.188-1.3c0-3.1-2.462-5.5-5.5-5.5h-0.406v-0.9H212.844z M226.75,189.75c0.828,0,1.5,0.6,1.5,1.5
		c0,0.8-0.672,1.5-1.5,1.5s-1.5-0.7-1.5-1.5C225.25,190.35,225.922,189.75,226.75,189.75z"/>
	<path fill="#95A5A6" d="M213.75,172.25c-0.312,0-0.609,0-0.906,0.1l3.906,3.9l-1,3l-3,1l-3.906-3.9
		c-0.055,0.301-0.094,0.5-0.094,0.9c0,0-0.004,0.1,0,0.2c-0.004,0.1,0,0.2,0,0.3c0,3,2.463,5.5,5.5,5.5c0.46,0,0.887-0.1,1.312-0.2
		l2.154,2.101l4.03,4.101l3,3c0.508,0.5,1.215,0.8,2,0.8c1.542,0,2.782-1.199,2.782-2.8c0-0.8-0.297-1.5-0.78-2l-0.032-0.101
		l-2.97-2.899l-4.03-4.101l-2.154-2.101c0.104-0.5,0.188-0.899,0.188-1.3c0-3.1-2.462-5.5-5.5-5.5H213.75z M226.75,188.75
		c0.828,0,1.5,0.6,1.5,1.5c0,0.8-0.672,1.5-1.5,1.5s-1.5-0.7-1.5-1.5C225.25,189.35,225.922,188.75,226.75,188.75z"/>
	<path fill="#7F8C8D" d="M218.75,181.25l-1.97,1.9l-0.03,0.1c0.008,0-0.006,0,0,0c0,0-0.003,0,0,0.1c0.076,0.2,0.062,0.5,0,0.9
		l0.97,0.9l2.03,2.1c0.365-0.1,0.72-0.1,1,0l2-2l-0.5-0.5l-1-1l1.5-1.5l-1-1l-1.5,1.5L218.75,181.25z"/>
	<path fill="#BDC3C7" d="M219.25,182.75l1,1l9-9l-1-1L219.25,182.75z"/>
	<path fill="#95A5A6" d="M228.75,174.25l-9,9l0.5,0.5l9-9L228.75,174.25z"/>
	<path fill="#95A5A6" d="M229.75,172.25l-2.5,1.5l2,2l1.5-2.5L229.75,172.25z"/>
	<g>
		<path fill="#F39C12" d="M218.75,180.25l-2,2c0.338,0.8-0.416,2.4-1,3c-0.584,0.5-2.116,1.3-3,1l-4,4l4,4l4-4
			c-0.338-0.9,0.416-2.5,1-3c0.584-0.6,2.116-1.4,3-1l2-2L218.75,180.25z"/>
		<path fill="#F1C40F" d="M218.75,180.25l-2,2c0.338,0.8-0.416,2.4-1,3c-0.584,0.5-2.116,1.3-3,1l-4,4l2,2l10-10L218.75,180.25z"/>
		<path fill="#E67E22" d="M216.78,182.15l-0.03,0.1c0.012,0-0.01,0,0,0.1C216.76,182.25,216.773,182.25,216.78,182.15z
			 M222.25,183.75l-1.5,1.5c-0.884-0.4-2.416,0.4-3,1c-0.564,0.5-1.258,2-1,2.9c0.176-0.801,0.62-1.602,1-1.9
			c0.584-0.6,2.116-1.4,3-1l2-2L222.25,183.75z M216.72,189.25l-3.97,4l-3.5-3.5l-0.5,0.5l4,4l4-4
			C216.645,189.95,216.65,189.55,216.72,189.25z"/>
	</g>
</g>
<path fill="none" stroke="#BDC3C7" stroke-miterlimit="10" stroke-dasharray="4,4" d="M378.75,46.25h171v162h-171V46.25z"/>
<text transform="matrix(1 0 0 1 387.75 64.25)" font-family="'Helvetica'" font-size="12">Role 3</text>
<g>
	<path fill="#95A5A6" d="M389.75,83.25c-1.104,0-2,0.9-2,2v18c0,1.1,0.896,2,2,2h14c1.105,0,2-0.9,2-2v-14l-6-6H389.75z"/>
	<path fill="#BDC3C7" d="M389.75,82.25c-1.104,0-2,0.9-2,2v18c0,1.1,0.896,2,2,2h14c1.105,0,2-0.9,2-2v-14l-6-6H389.75z"/>
	<path fill="#95A5A6" d="M405.75,88.25l-6-6v4c0,1.1,0.895,2,2,2H405.75z"/>
</g>
<text transform="matrix(1 0 0 1 423.75 91.25)" font-family="'Helvetica'" font-size="12">Configuration files</text>
<g>
	<path fill="#2C3E50" d="M389.75,127.25c-1.104,0-2,0.9-2,2v16c0,1.1,0.896,2,2,2h18c1.105,0,2-0.9,2-2v-16c0-1.1-0.895-2-2-2
		H389.75z"/>
	<path fill="#34495E" d="M389.75,127.25c-1.104,0-2,0.896-2,2v15c0,1.105,0.896,2,2,2h18c1.105,0,2-0.895,2-2v-15
		c0-1.104-0.895-2-2-2H389.75z"/>
	<path fill="#ECF0F1" d="M390.75,130.375v1.125l3,1.75l-3,1.75v1.125l5-2.875L390.75,130.375z M395.75,135.25v1h5v-1H395.75z"/>
</g>
<text transform="matrix(1 0 0 1 423.75 136.25)" font-family="'Helvetica'" font-size="12">Commands</text>
<text transform="matrix(1 0 0 1 423.75 181.25)" font-family="'Helvetica'" font-size="12">Variables</text>
<g>
	<path fill="#7F8C8D" d="M392.844,172.35v1l3.906,3.9l-1,3l-3,1l-3.906-3.9c-0.055,0.301-0.094,0.5-0.094,0.9c0,0-0.004,0.1,0,0.2
		c-0.004,0.1,0,0.2,0,0.3c0,3,2.463,5.5,5.5,5.5c0.46,0,0.887-0.1,1.312-0.2l2.154,2.101l4.03,4.101l3,3c0.508,0.5,1.215,0.8,2,0.8
		c1.542,0,2.782-1.199,2.782-2.8c0-0.8-0.297-1.5-0.78-2l-0.032-0.101l-2.97-2.899l-4.03-4.101l-2.154-2.101
		c0.104-0.5,0.188-0.899,0.188-1.3c0-3.1-2.462-5.5-5.5-5.5h-0.406v-0.9H392.844z M406.75,189.75c0.828,0,1.5,0.6,1.5,1.5
		c0,0.8-0.672,1.5-1.5,1.5s-1.5-0.7-1.5-1.5C405.25,190.35,405.922,189.75,406.75,189.75z"/>
	<path fill="#95A5A6" d="M393.75,172.25c-0.312,0-0.609,0-0.906,0.1l3.906,3.9l-1,3l-3,1l-3.906-3.9
		c-0.055,0.301-0.094,0.5-0.094,0.9c0,0-0.004,0.1,0,0.2c-0.004,0.1,0,0.2,0,0.3c0,3,2.463,5.5,5.5,5.5c0.46,0,0.887-0.1,1.312-0.2
		l2.154,2.101l4.03,4.101l3,3c0.508,0.5,1.215,0.8,2,0.8c1.542,0,2.782-1.199,2.782-2.8c0-0.8-0.297-1.5-0.78-2l-0.032-0.101
		l-2.97-2.899l-4.03-4.101l-2.154-2.101c0.104-0.5,0.188-0.899,0.188-1.3c0-3.1-2.462-5.5-5.5-5.5H393.75z M406.75,188.75
		c0.828,0,1.5,0.6,1.5,1.5c0,0.8-0.672,1.5-1.5,1.5s-1.5-0.7-1.5-1.5C405.25,189.35,405.922,188.75,406.75,188.75z"/>
	<path fill="#7F8C8D" d="M398.75,181.25l-1.97,1.9l-0.03,0.1c0.008,0-0.006,0,0,0c0,0-0.003,0,0,0.1c0.076,0.2,0.062,0.5,0,0.9
		l0.97,0.9l2.03,2.1c0.365-0.1,0.72-0.1,1,0l2-2l-0.5-0.5l-1-1l1.5-1.5l-1-1l-1.5,1.5L398.75,181.25z"/>
	<path fill="#BDC3C7" d="M399.25,182.75l1,1l9-9l-1-1L399.25,182.75z"/>
	<path fill="#95A5A6" d="M408.75,174.25l-9,9l0.5,0.5l9-9L408.75,174.25z"/>
	<path fill="#95A5A6" d="M409.75,172.25l-2.5,1.5l2,2l1.5-2.5L409.75,172.25z"/>
	<g>
		<path fill="#F39C12" d="M398.75,180.25l-2,2c0.338,0.8-0.416,2.4-1,3c-0.584,0.5-2.116,1.3-3,1l-4,4l4,4l4-4
			c-0.338-0.9,0.416-2.5,1-3c0.584-0.6,2.116-1.4,3-1l2-2L398.75,180.25z"/>
		<path fill="#F1C40F" d="M398.75,180.25l-2,2c0.338,0.8-0.416,2.4-1,3c-0.584,0.5-2.116,1.3-3,1l-4,4l2,2l10-10L398.75,180.25z"/>
		<path fill="#E67E22" d="M396.78,182.15l-0.03,0.1c0.012,0-0.01,0,0,0.1C396.76,182.25,396.773,182.25,396.78,182.15z
			 M402.25,183.75l-1.5,1.5c-0.884-0.4-2.416,0.4-3,1c-0.564,0.5-1.258,2-1,2.9c0.176-0.801,0.62-1.602,1-1.9
			c0.584-0.6,2.116-1.4,3-1l2-2L402.25,183.75z M396.72,189.25l-3.97,4l-3.5-3.5l-0.5,0.5l4,4l4-4
			C396.645,189.95,396.65,189.55,396.72,189.25z"/>
	</g>
</g>
</svg>
