<?xml version="1.0" encoding="utf-8"?>
<!-- Generator: Adobe Illustrator 16.0.4, SVG Export Plug-In . SVG Version: 6.00 Build 0)  -->
<!DOCTYPE svg PUBLIC "-//W3C//DTD SVG 1.1//EN" "http://www.w3.org/Graphics/SVG/1.1/DTD/svg11.dtd">
<svg version="1.1" id="Layer_1" xmlns="http://www.w3.org/2000/svg" xmlns:xlink="http://www.w3.org/1999/xlink" x="0px" y="0px"
	 width="703.5px" height="387px" viewBox="0 44.5 703.5 387" enable-background="new 0 44.5 703.5 387" xml:space="preserve">
<text transform="matrix(1 0 0 1 10.5 62.5)" font-family="'Helvetica'" font-size="16">Before</text>
<text transform="matrix(1 0 0 1 442.5 62.5)" font-family="'Helvetica'" font-size="16">After</text>
<g transform="translate(0 -1028.4)">
	<path fill="#2C3E50" d="M156.5,1214.9c-1.104,0-2,0.896-2,2v7v1v7c0,1.105,0.896,2,2,2h1v1h4v-1h10v1h4v-1h1c1.105,0,2-0.895,2-2
		v-7v-1v-7c0-1.104-0.895-2-2-2h-2h-16H156.5z"/>
	<path fill="#34495E" d="M156.5,1213.9c-1.104,0-2,0.9-2,2v7v1v7c0,1.1,0.896,2,2,2h2h16h2c1.105,0,2-0.9,2-2v-7v-1v-7
		c0-1.1-0.895-2-2-2h-2h-16H156.5z"/>
	<g>
		<path fill="#2C3E50" d="M169,1216.9c-4.142,0-7.5,3.3-7.5,7.5c0,4.1,3.358,7.5,7.5,7.5c4.143,0,7.5-3.4,7.5-7.5
			C176.5,1220.2,173.143,1216.9,169,1216.9z M169,1218.9c3.038,0,5.5,2.4,5.5,5.5c0,3-2.462,5.5-5.5,5.5s-5.5-2.5-5.5-5.5
			C163.5,1221.3,165.962,1218.9,169,1218.9z"/>
		<path fill="#2C3E50" d="M159.5,1217.4c0,0.829-0.671,1.5-1.5,1.5s-1.5-0.671-1.5-1.5s0.671-1.5,1.5-1.5
			S159.5,1216.571,159.5,1217.4z"/>
		<path fill="#2C3E50" d="M159.5,1229.4c0,0.828-0.671,1.5-1.5,1.5s-1.5-0.672-1.5-1.5s0.671-1.5,1.5-1.5
			S159.5,1228.572,159.5,1229.4z"/>
	</g>
	<g>
		<rect x="157.5" y="1216.9" fill="#95A5A6" width="1" height="13"/>
		<rect x="157.5" y="1226.9" fill="#7F8C8D" width="1" height="3"/>
		<rect x="157.5" y="1216.9" fill="#BDC3C7" width="1" height="3"/>
		<path fill="#8E44AD" d="M169.5,1223.4c0,0.276-0.225,0.5-0.5,0.5s-0.5-0.224-0.5-0.5s0.225-0.5,0.5-0.5
			S169.5,1223.124,169.5,1223.4z"/>
	</g>
	<path fill="#95A5A6" d="M172.5,1227.9l-9-9l1-1l10,10l-1,1L172.5,1227.9z"/>
	<path fill="#95A5A6" d="M165.5,1227.9l9-9l-1-1l-10,10l1,1L165.5,1227.9z"/>
	<path fill="#7F8C8D" d="M164,1218.4l-0.5,0.5l4,4l0.5-0.5L164,1218.4z M174,1218.4l-4,4l0.5,0.5l4-4L174,1218.4z M169,1223.4
		l-3.5,3.5l-1,1l-0.5-0.5l-0.5,0.5l1,1l1-1l3.5-3.5l3.5,3.5l1,1l1-1l-0.5-0.5l-0.5,0.5l-1-1L169,1223.4z"/>
	<path fill="#7F8C8D" d="M164.781,1218.1c-0.391,0.3-0.76,0.6-1.093,0.9l1.438,1.5c0.336-0.3,0.712-0.6,1.125-0.9l-1.438-1.5
		H164.781z M173.188,1218.1l-1.438,1.5c0.413,0.3,0.789,0.6,1.125,0.9l1.438-1.5c-0.334-0.3-0.703-0.6-1.094-0.9H173.188z
		 M164.25,1227.1l-0.75,0.8l1,1l0.625-0.7C164.789,1227.9,164.49,1227.5,164.25,1227.1L164.25,1227.1z M173.75,1227.1
		c-0.24,0.399-0.539,0.8-0.875,1.1l0.625,0.7l1-1L173.75,1227.1L173.75,1227.1z"/>
	<g>
		<path fill="#BDC3C7" d="M169,1215.9c-4.142,0-7.5,3.3-7.5,7.5c0,4.1,3.358,7.5,7.5,7.5c4.143,0,7.5-3.4,7.5-7.5
			C176.5,1219.2,173.143,1215.9,169,1215.9z M169,1217.9c3.038,0,5.5,2.4,5.5,5.5c0,3-2.462,5.5-5.5,5.5s-5.5-2.5-5.5-5.5
			C163.5,1220.3,165.962,1217.9,169,1217.9z"/>
		<path fill="#7F8C8D" d="M169.5,1223.334c0,0.276-0.225,0.5-0.5,0.5s-0.5-0.224-0.5-0.5c0-0.276,0.225-0.5,0.5-0.5
			S169.5,1223.057,169.5,1223.334z"/>
		<path fill="#95A5A6" d="M169,1216.9c-3.038,0-5.5,2.4-5.5,5.5c0,0.1,0.02,0.3,0.031,0.4c0.282-2.8,2.621-4.9,5.469-4.9
			c2.848,0,5.188,2.1,5.469,4.9c0.012-0.1,0.031-0.3,0.031-0.4C174.5,1219.3,172.038,1216.9,169,1216.9z M161.531,1222.9
			c-0.011,0.1-0.031,0.3-0.031,0.5c0,4.1,3.358,7.5,7.5,7.5c4.143,0,7.5-3.4,7.5-7.5c0-0.2-0.021-0.4-0.031-0.5
			c-0.254,3.9-3.492,7-7.469,7C165.024,1229.9,161.785,1226.8,161.531,1222.9z"/>
	</g>
</g>
<g transform="translate(0 -1028.4)">
	<path fill="#95A5A6" d="M92,1433.9c-3.59,0-6.5,2.9-6.5,6.5c0,0,0,0,0,0.1c-1.784,0.9-3,2.699-3,4.9c0,3,2.462,5.5,5.5,5.5h0.031
		h13.219h0.25c2.762,0,5-2.301,5-5c0-2.1-1.297-3.9-3.125-4.701c0.071-0.199,0.125-0.5,0.125-0.799c0-2-1.566-3.5-3.5-3.5
		c-0.798,0-1.535,0.2-2.125,0.7C96.832,1435.4,94.593,1433.9,92,1433.9L92,1433.9z"/>
	<path fill="#BDC3C7" d="M92,1432.9c-3.59,0-6.5,2.9-6.5,6.5c0,0,0,0,0,0.1c-1.784,0.9-3,2.699-3,4.9c0,3,2.462,5.5,5.5,5.5h0.031
		h13.219h0.25c2.762,0,5-2.301,5-5c0-2.1-1.297-3.9-3.125-4.701c0.071-0.199,0.125-0.5,0.125-0.799c0-2-1.566-3.5-3.5-3.5
		c-0.798,0-1.535,0.2-2.125,0.7C96.832,1434.4,94.593,1432.9,92,1432.9L92,1432.9z"/>
</g>
<g transform="translate(0 -1028.4)">
	<path fill="#95A5A6" d="M444.5,1140.9c-1.104,0-2,0.9-2,2v8v4v6c0,1.1,0.896,2,2,2h14c1.105,0,2-0.9,2-2v-6v-4v-4l-6-6H444.5z"/>
	<path fill="#BDC3C7" d="M444.5,1139.9c-1.104,0-2,0.9-2,2v8v4v6c0,1.1,0.896,2,2,2h14c1.105,0,2-0.9,2-2v-6v-4v-4v-4
		c0-1.1-0.895-2-2-2h-4H444.5z"/>
	<path fill="#95A5A6" d="M444.5,1140.9v10v2v2l2.5-2l2.5,2v-2v-2v-10H444.5z"/>
	<path fill="#E74C3C" d="M444.5,1140.9v9v2v2l2.5-2l2.5,2v-2v-2v-9H444.5z"/>
	<path fill="#C0392B" d="M445.5,1139.9c-0.553,0-1,0.4-1,1h2h1h2c0-0.6-0.447-1-1-1H445.5z"/>
</g>
<g transform="translate(0 -1028.4)">
	<path fill="#95A5A6" d="M524,1433.9c-3.59,0-6.5,2.9-6.5,6.5c0,0,0,0,0,0.1c-1.783,0.9-3,2.699-3,4.9c0,3,2.463,5.5,5.5,5.5h0.031
		h13.219h0.25c2.762,0,5-2.301,5-5c0-2.1-1.297-3.9-3.125-4.701c0.071-0.199,0.125-0.5,0.125-0.799c0-2-1.566-3.5-3.5-3.5
		c-0.798,0-1.535,0.2-2.125,0.7C528.832,1435.4,526.594,1433.9,524,1433.9L524,1433.9z"/>
	<path fill="#BDC3C7" d="M524,1432.9c-3.59,0-6.5,2.9-6.5,6.5c0,0,0,0,0,0.1c-1.783,0.9-3,2.699-3,4.9c0,3,2.463,5.5,5.5,5.5h0.031
		h13.219h0.25c2.762,0,5-2.301,5-5c0-2.1-1.297-3.9-3.125-4.701c0.071-0.199,0.125-0.5,0.125-0.799c0-2-1.566-3.5-3.5-3.5
		c-0.798,0-1.535,0.2-2.125,0.7C528.832,1434.4,526.594,1432.9,524,1432.9L524,1432.9z"/>
</g>
<g transform="translate(0 -1028.4)">
	<path fill="#2C3E50" d="M516.5,1214.9c-1.104,0-2,0.896-2,2v7v1v7c0,1.105,0.896,2,2,2h1v1h4v-1h10v1h4v-1h1c1.105,0,2-0.895,2-2
		v-7v-1v-7c0-1.104-0.895-2-2-2h-2h-16H516.5z"/>
	<path fill="#34495E" d="M516.5,1213.9c-1.104,0-2,0.9-2,2v7v1v7c0,1.1,0.896,2,2,2h2h16h2c1.105,0,2-0.9,2-2v-7v-1v-7
		c0-1.1-0.895-2-2-2h-2h-16H516.5z"/>
	<g>
		<path fill="#2C3E50" d="M529,1216.9c-4.143,0-7.5,3.3-7.5,7.5c0,4.1,3.357,7.5,7.5,7.5s7.5-3.4,7.5-7.5
			C536.5,1220.2,533.143,1216.9,529,1216.9z M529,1218.9c3.038,0,5.5,2.4,5.5,5.5c0,3-2.462,5.5-5.5,5.5s-5.5-2.5-5.5-5.5
			C523.5,1221.3,525.962,1218.9,529,1218.9z"/>
		<path fill="#2C3E50" d="M519.5,1217.4c0,0.829-0.672,1.5-1.5,1.5s-1.5-0.671-1.5-1.5s0.672-1.5,1.5-1.5
			S519.5,1216.571,519.5,1217.4z"/>
		<path fill="#2C3E50" d="M519.5,1229.4c0,0.828-0.672,1.5-1.5,1.5s-1.5-0.672-1.5-1.5s0.672-1.5,1.5-1.5
			S519.5,1228.572,519.5,1229.4z"/>
	</g>
	<g>
		<rect x="517.5" y="1216.9" fill="#95A5A6" width="1" height="13"/>
		<rect x="517.5" y="1226.9" fill="#7F8C8D" width="1" height="3"/>
		<rect x="517.5" y="1216.9" fill="#BDC3C7" width="1" height="3"/>
		<path fill="#8E44AD" d="M529.5,1223.4c0,0.276-0.225,0.5-0.5,0.5s-0.5-0.224-0.5-0.5s0.225-0.5,0.5-0.5
			S529.5,1223.124,529.5,1223.4z"/>
	</g>
	<path fill="#95A5A6" d="M532.5,1227.9l-9-9l1-1l10,10l-1,1L532.5,1227.9z"/>
	<path fill="#95A5A6" d="M525.5,1227.9l9-9l-1-1l-10,10l1,1L525.5,1227.9z"/>
	<path fill="#7F8C8D" d="M524,1218.4l-0.5,0.5l4,4l0.5-0.5L524,1218.4z M534,1218.4l-4,4l0.5,0.5l4-4L534,1218.4z M529,1223.4
		l-3.5,3.5l-1,1l-0.5-0.5l-0.5,0.5l1,1l1-1l3.5-3.5l3.5,3.5l1,1l1-1l-0.5-0.5l-0.5,0.5l-1-1L529,1223.4z"/>
	<path fill="#7F8C8D" d="M524.781,1218.1c-0.391,0.3-0.76,0.6-1.094,0.9l1.438,1.5c0.336-0.3,0.712-0.6,1.125-0.9l-1.438-1.5
		H524.781z M533.188,1218.1l-1.438,1.5c0.413,0.3,0.789,0.6,1.125,0.9l1.438-1.5c-0.334-0.3-0.703-0.6-1.094-0.9H533.188z
		 M524.25,1227.1l-0.75,0.8l1,1l0.625-0.7C524.789,1227.9,524.49,1227.5,524.25,1227.1L524.25,1227.1z M533.75,1227.1
		c-0.24,0.399-0.539,0.8-0.875,1.1l0.625,0.7l1-1L533.75,1227.1L533.75,1227.1z"/>
	<g>
		<path fill="#BDC3C7" d="M529,1215.9c-4.143,0-7.5,3.3-7.5,7.5c0,4.1,3.357,7.5,7.5,7.5s7.5-3.4,7.5-7.5
			C536.5,1219.2,533.143,1215.9,529,1215.9z M529,1217.9c3.038,0,5.5,2.4,5.5,5.5c0,3-2.462,5.5-5.5,5.5s-5.5-2.5-5.5-5.5
			C523.5,1220.3,525.962,1217.9,529,1217.9z"/>
		<path fill="#7F8C8D" d="M529.5,1223.334c0,0.276-0.225,0.5-0.5,0.5s-0.5-0.224-0.5-0.5c0-0.276,0.225-0.5,0.5-0.5
			S529.5,1223.057,529.5,1223.334z"/>
		<path fill="#95A5A6" d="M529,1216.9c-3.038,0-5.5,2.4-5.5,5.5c0,0.1,0.02,0.3,0.031,0.4c0.281-2.8,2.621-4.9,5.469-4.9
			s5.188,2.1,5.469,4.9c0.012-0.1,0.031-0.3,0.031-0.4C534.5,1219.3,532.038,1216.9,529,1216.9z M521.531,1222.9
			c-0.011,0.1-0.031,0.3-0.031,0.5c0,4.1,3.357,7.5,7.5,7.5s7.5-3.4,7.5-7.5c0-0.2-0.021-0.4-0.031-0.5c-0.254,3.9-3.492,7-7.469,7
			S521.785,1226.8,521.531,1222.9z"/>
	</g>
</g>
<g transform="translate(0 -1028.4)">
	<path fill="#95A5A6" d="M518.588,1285.9l2.122,0.7l0.154,0.1c0.344-0.2,0.697-0.4,1.061-0.6l-0.066-0.2l0.42-2.2l1.944-0.5
		l1.48,1.7l0.044,0.2c0.416-0.1,0.822-0.1,1.238,0l0.044-0.2l1.479-1.7l1.945,0.5l0.42,2.2l-0.066,0.2
		c0.363,0.2,0.718,0.4,1.061,0.6l0.155-0.1l2.12-0.7l1.414,1.4l-0.707,2.1l-0.153,0.2c0.226,0.3,0.438,0.7,0.618,1h0.199l2.188,0.4
		l0.53,1.9l-1.701,1.5h-0.177c0.025,0.5,0.025,0.9,0,1.3h0.177l1.701,1.5l-0.53,2l-2.188,0.4l-0.199-0.1
		c-0.18,0.399-0.393,0.699-0.618,1.1l0.153,0.1l0.707,2.101l-1.414,1.5l-2.12-0.8l-0.155-0.101c-0.343,0.2-0.697,0.4-1.061,0.601
		l0.066,0.199l-0.42,2.2l-1.945,0.5l-1.479-1.7l-0.044-0.1h-1.238l-0.044,0.1l-1.48,1.7l-1.944-0.5l-0.42-2.2l0.066-0.199
		c-0.363-0.2-0.717-0.4-1.061-0.601l-0.154,0.101l-2.122,0.8l-1.414-1.5l0.707-2.101l0.155-0.1c-0.227-0.4-0.439-0.7-0.619-1.1
		l-0.199,0.1l-2.188-0.4l-0.53-2l1.702-1.5h0.176c-0.025-0.399-0.025-0.8,0-1.3h-0.176l-1.702-1.5l0.53-1.9l2.188-0.4h0.199
		c0.18-0.3,0.393-0.7,0.619-1l-0.155-0.2l-0.707-2.1L518.588,1285.9z M521.417,1290.1c-2.734,2.7-2.734,7.199,0,9.9
		c2.732,2.699,7.165,2.699,9.899,0c2.733-2.7,2.733-7.2,0-9.9C528.582,1287.4,524.149,1287.4,521.417,1290.1z"/>
	<path fill="#7F8C8D" d="M520.71,1289.4c3.123-3.1,8.189-3.1,11.313,0c3.124,3.1,3.124,8.2,0,11.3c-3.124,3.101-8.19,3.101-11.313,0
		C517.585,1297.6,517.585,1292.5,520.71,1289.4L520.71,1289.4z M522.19,1289.5l2.165,2.1c0.885-0.5,1.896-0.7,2.872-0.4l1.393-2.8
		C526.478,1287.7,524.068,1288.1,522.19,1289.5L522.19,1289.5z M520.776,1290.9c-1.407,1.9-1.767,4.3-1.039,6.4l2.718-1.4
		c-0.218-1-0.036-2,0.486-2.8L520.776,1290.9z M524.952,1293.6c-0.781,0.8-0.781,2.1,0,2.9c0.781,0.8,2.047,0.8,2.828,0
		c0.781-0.801,0.781-2.101,0-2.9C526.999,1292.9,525.733,1292.9,524.952,1293.6z M530.388,1289.4l-1.392,2.7
		c0.062,0,0.138,0.1,0.198,0.1c0.689,0.7,1.068,1.6,1.148,2.5l3.006,0.5c0.022-1.9-0.644-3.7-2.032-5.1
		C531.028,1289.8,530.709,1289.6,530.388,1289.4z M520.665,1299.1c0.227,0.3,0.464,0.6,0.752,0.9c1.389,1.399,3.217,2.1,5.037,2
		l-0.441-3c-0.9,0-1.785-0.4-2.475-1.101c-0.061-0.1-0.1-0.1-0.154-0.2L520.665,1299.1L520.665,1299.1z M530.034,1296.7
		c-0.193,0.4-0.475,0.801-0.84,1.2s-0.79,0.601-1.237,0.8l0.464,3.1c1.059-0.399,2.059-1,2.896-1.799
		c0.837-0.801,1.421-1.801,1.745-2.9L530.034,1296.7L530.034,1296.7z"/>
</g>
<g transform="translate(0 -1028.4)">
	<path fill="#95A5A6" d="M158.588,1285.9l2.122,0.7l0.154,0.1c0.344-0.2,0.697-0.4,1.061-0.6l-0.066-0.2l0.42-2.2l1.944-0.5
		l1.48,1.7l0.044,0.2c0.416-0.1,0.822-0.1,1.238,0l0.044-0.2l1.479-1.7l1.945,0.5l0.42,2.2l-0.066,0.2
		c0.363,0.2,0.718,0.4,1.061,0.6l0.155-0.1l2.12-0.7l1.414,1.4l-0.707,2.1l-0.153,0.2c0.226,0.3,0.438,0.7,0.618,1h0.199l2.188,0.4
		l0.53,1.9l-1.701,1.5h-0.177c0.025,0.5,0.025,0.9,0,1.3h0.177l1.701,1.5l-0.53,2l-2.188,0.4l-0.199-0.1
		c-0.18,0.399-0.393,0.699-0.618,1.1l0.153,0.1l0.707,2.101l-1.414,1.5l-2.12-0.8l-0.155-0.101c-0.343,0.2-0.697,0.4-1.061,0.601
		l0.066,0.199l-0.42,2.2l-1.945,0.5l-1.479-1.7l-0.044-0.1h-1.238l-0.044,0.1l-1.48,1.7l-1.944-0.5l-0.42-2.2l0.066-0.199
		c-0.363-0.2-0.717-0.4-1.061-0.601l-0.154,0.101l-2.122,0.8l-1.414-1.5l0.707-2.101l0.155-0.1c-0.227-0.4-0.439-0.7-0.619-1.1
		l-0.199,0.1l-2.188-0.4l-0.53-2l1.702-1.5h0.176c-0.025-0.399-0.025-0.8,0-1.3h-0.176l-1.702-1.5l0.53-1.9l2.188-0.4h0.199
		c0.18-0.3,0.393-0.7,0.619-1l-0.155-0.2l-0.707-2.1L158.588,1285.9z M161.417,1290.1c-2.734,2.7-2.734,7.199,0,9.9
		c2.732,2.699,7.165,2.699,9.899,0c2.733-2.7,2.733-7.2,0-9.9C168.582,1287.4,164.149,1287.4,161.417,1290.1z"/>
	<path fill="#7F8C8D" d="M160.71,1289.4c3.123-3.1,8.189-3.1,11.313,0c3.124,3.1,3.124,8.2,0,11.3c-3.124,3.101-8.19,3.101-11.313,0
		C157.585,1297.6,157.585,1292.5,160.71,1289.4L160.71,1289.4z M162.19,1289.5l2.165,2.1c0.885-0.5,1.896-0.7,2.872-0.4l1.393-2.8
		C166.478,1287.7,164.068,1288.1,162.19,1289.5L162.19,1289.5z M160.776,1290.9c-1.407,1.9-1.767,4.3-1.039,6.4l2.718-1.4
		c-0.218-1-0.036-2,0.486-2.8L160.776,1290.9z M164.952,1293.6c-0.781,0.8-0.781,2.1,0,2.9c0.781,0.8,2.047,0.8,2.828,0
		c0.781-0.801,0.781-2.101,0-2.9C166.999,1292.9,165.733,1292.9,164.952,1293.6z M170.388,1289.4l-1.392,2.7
		c0.062,0,0.138,0.1,0.198,0.1c0.689,0.7,1.068,1.6,1.148,2.5l3.006,0.5c0.022-1.9-0.644-3.7-2.032-5.1
		C171.028,1289.8,170.709,1289.6,170.388,1289.4z M160.665,1299.1c0.227,0.3,0.464,0.6,0.752,0.9c1.389,1.399,3.217,2.1,5.037,2
		l-0.441-3c-0.9,0-1.785-0.4-2.475-1.101c-0.061-0.1-0.1-0.1-0.154-0.2L160.665,1299.1L160.665,1299.1z M170.034,1296.7
		c-0.193,0.4-0.475,0.801-0.84,1.2s-0.79,0.601-1.237,0.8l0.464,3.1c1.059-0.399,2.059-1,2.896-1.799
		c0.837-0.801,1.421-1.801,1.745-2.9L170.034,1296.7L170.034,1296.7z"/>
</g>
<g transform="translate(0 -1028.4)">
	<path fill="#E67E22" d="M154.5,1146.5v8.4l12,8v-8.4L154.5,1146.5z"/>
	<path fill="#F39C12" d="M178.5,1146.5v8.4l-12,8v-8.4L178.5,1146.5z"/>
	<path fill="#F1C40F" d="M166.5,1138.9l-12,7.6l12,8l12-8L166.5,1138.9z"/>
	<path fill="#E67E22" d="M163,1141.1v1.5c0,1.3,1.566,2.3,3.5,2.3s3.5-1,3.5-2.3v-1.5H163z"/>
	<path fill="#E67E22" d="M163,1141.1v1.5c0,1.3,1.566,2.3,3.5,2.3v-3.8H163z"/>
	<path fill="#F1C40F" d="M170,1141.15c0,1.243-1.566,2.25-3.5,2.25s-3.5-1.007-3.5-2.25s1.566-2.25,3.5-2.25
		S170,1139.907,170,1141.15z"/>
	<path fill="#E67E22" d="M169.5,1145.1v1.5c0,1.3,1.566,2.3,3.5,2.3s3.5-1,3.5-2.3v-1.5H169.5z"/>
	<path fill="#E67E22" d="M169.5,1145.1v1.5c0,1.3,1.566,2.3,3.5,2.3v-3.8H169.5z"/>
	<path fill="#F1C40F" d="M176.5,1145.15c0,1.243-1.566,2.25-3.5,2.25s-3.5-1.007-3.5-2.25s1.566-2.25,3.5-2.25
		S176.5,1143.907,176.5,1145.15z"/>
	<path fill="#E67E22" d="M156.5,1144.6v1.5c0,1.3,1.566,2.3,3.5,2.3s3.5-1,3.5-2.3v-1.5H156.5z"/>
	<path fill="#E67E22" d="M156.5,1144.6v1.5c0,1.3,1.566,2.3,3.5,2.3v-3.8H156.5z"/>
	<path fill="#F1C40F" d="M163.5,1144.65c0,1.243-1.566,2.25-3.5,2.25s-3.5-1.007-3.5-2.25s1.566-2.25,3.5-2.25
		S163.5,1143.407,163.5,1144.65z"/>
	<path fill="#E67E22" d="M163,1148.6v1.5c0,1.3,1.566,2.3,3.5,2.3s3.5-1,3.5-2.3v-1.5H163z"/>
	<path fill="#E67E22" d="M163,1148.6v1.5c0,1.3,1.566,2.3,3.5,2.3v-3.8H163z"/>
	<path fill="#F1C40F" d="M170,1148.65c0,1.243-1.566,2.25-3.5,2.25s-3.5-1.007-3.5-2.25s1.566-2.25,3.5-2.25
		S170,1147.407,170,1148.65z"/>
</g>
<g transform="translate(0 -1028.4)">
	<path fill="#E67E22" d="M586.5,1146.5v8.4l12,8v-8.4L586.5,1146.5z"/>
	<path fill="#F39C12" d="M610.5,1146.5v8.4l-12,8v-8.4L610.5,1146.5z"/>
	<path fill="#F1C40F" d="M598.5,1138.9l-12,7.6l12,8l12-8L598.5,1138.9z"/>
	<path fill="#E67E22" d="M595,1141.1v1.5c0,1.3,1.566,2.3,3.5,2.3s3.5-1,3.5-2.3v-1.5H595z"/>
	<path fill="#E67E22" d="M595,1141.1v1.5c0,1.3,1.566,2.3,3.5,2.3v-3.8H595z"/>
	<path fill="#F1C40F" d="M602,1141.15c0,1.243-1.566,2.25-3.5,2.25s-3.5-1.007-3.5-2.25s1.566-2.25,3.5-2.25
		S602,1139.907,602,1141.15z"/>
	<path fill="#E67E22" d="M601.5,1145.1v1.5c0,1.3,1.566,2.3,3.5,2.3s3.5-1,3.5-2.3v-1.5H601.5z"/>
	<path fill="#E67E22" d="M601.5,1145.1v1.5c0,1.3,1.566,2.3,3.5,2.3v-3.8H601.5z"/>
	<path fill="#F1C40F" d="M608.5,1145.15c0,1.243-1.566,2.25-3.5,2.25s-3.5-1.007-3.5-2.25s1.566-2.25,3.5-2.25
		S608.5,1143.907,608.5,1145.15z"/>
	<path fill="#E67E22" d="M588.5,1144.6v1.5c0,1.3,1.566,2.3,3.5,2.3s3.5-1,3.5-2.3v-1.5H588.5z"/>
	<path fill="#E67E22" d="M588.5,1144.6v1.5c0,1.3,1.566,2.3,3.5,2.3v-3.8H588.5z"/>
	<path fill="#F1C40F" d="M595.5,1144.65c0,1.243-1.566,2.25-3.5,2.25s-3.5-1.007-3.5-2.25s1.566-2.25,3.5-2.25
		S595.5,1143.407,595.5,1144.65z"/>
	<path fill="#E67E22" d="M595,1148.6v1.5c0,1.3,1.566,2.3,3.5,2.3s3.5-1,3.5-2.3v-1.5H595z"/>
	<path fill="#E67E22" d="M595,1148.6v1.5c0,1.3,1.566,2.3,3.5,2.3v-3.8H595z"/>
	<path fill="#F1C40F" d="M602,1148.65c0,1.243-1.566,2.25-3.5,2.25s-3.5-1.007-3.5-2.25s1.566-2.25,3.5-2.25
		S602,1147.407,602,1148.65z"/>
</g>
<g transform="translate(0 -1028.4)">
	<path fill="#95A5A6" d="M228.5,1356.9c-1.104,0-2,0.9-2,2v8v4v6c0,1.1,0.896,2,2,2h14c1.105,0,2-0.9,2-2v-6v-4v-4l-6-6H228.5z"/>
	<path fill="#BDC3C7" d="M228.5,1355.9c-1.104,0-2,0.9-2,2v8v4v6c0,1.1,0.896,2,2,2h14c1.105,0,2-0.9,2-2v-6v-4v-4l-6-6H228.5z"/>
	<g>
		<path fill="#7F8C8D" d="M236.91,1369.3c0.391-0.4,0.586-0.9,0.586-1.4c0-0.6-0.195-1.1-0.586-1.5c-0.391-0.3-0.862-0.5-1.414-0.5
			c-0.553,0-1.023,0.2-1.414,0.5c-0.391,0.4-0.586,0.9-0.586,1.5c0,0.5,0.195,1,0.586,1.4c0.391,0.399,0.861,0.6,1.414,0.6
			C236.048,1369.9,236.52,1369.7,236.91,1369.3 M241.496,1367v1.7c0,0.101-0.021,0.2-0.062,0.2c-0.041,0.1-0.094,0.1-0.156,0.1
			l-1.445,0.2c-0.1,0.3-0.2,0.601-0.305,0.8c0.183,0.2,0.461,0.6,0.836,1c0.052,0.1,0.078,0.2,0.078,0.2c0,0.101-0.023,0.2-0.07,0.2
			c-0.141,0.199-0.398,0.5-0.773,0.9c-0.375,0.299-0.619,0.5-0.734,0.5c-0.062,0-0.131,0-0.203-0.101l-1.078-0.8
			c-0.229,0.1-0.466,0.199-0.711,0.3c-0.083,0.7-0.159,1.2-0.227,1.399c-0.037,0.201-0.131,0.301-0.281,0.301h-1.734
			c-0.072,0-0.138-0.1-0.195-0.1c-0.052,0-0.08-0.101-0.086-0.2l-0.219-1.4c-0.255-0.1-0.49-0.2-0.703-0.3l-1.102,0.8
			c-0.053,0.101-0.117,0.101-0.195,0.101c-0.072,0-0.139,0-0.195-0.101c-0.656-0.6-1.086-1-1.289-1.3c-0.037,0-0.055-0.1-0.055-0.2
			c0,0,0.021-0.1,0.062-0.2c0.078-0.1,0.211-0.199,0.398-0.5c0.188-0.199,0.328-0.399,0.422-0.5c-0.141-0.3-0.248-0.5-0.32-0.8
			l-1.43-0.2c-0.068,0-0.123,0-0.164-0.1s-0.062-0.1-0.062-0.2v-1.7c0-0.1,0.021-0.1,0.062-0.2c0.041-0.1,0.092-0.1,0.148-0.1
			l1.453-0.2c0.072-0.3,0.174-0.5,0.305-0.7c-0.209-0.3-0.486-0.7-0.836-1.1c-0.053-0.1-0.078-0.1-0.078-0.2
			c0-0.1,0.023-0.1,0.07-0.2c0.135-0.2,0.391-0.5,0.766-0.8c0.381-0.4,0.627-0.6,0.742-0.6c0.068,0,0.135,0,0.203,0.1l1.078,0.8
			c0.229-0.1,0.466-0.2,0.711-0.3c0.083-0.7,0.158-1.2,0.227-1.4c0.036-0.2,0.131-0.2,0.281-0.2h1.734h0.188
			c0.057,0.1,0.088,0.1,0.094,0.2l0.219,1.4c0.255,0.1,0.49,0.2,0.703,0.3l1.109-0.8c0.047-0.1,0.109-0.1,0.188-0.1
			c0.068,0,0.133,0,0.195,0.1c0.672,0.6,1.102,1.1,1.289,1.3c0.036,0.1,0.055,0.1,0.055,0.2c0,0.1-0.021,0.1-0.062,0.2
			c-0.078,0.1-0.211,0.3-0.398,0.5s-0.328,0.4-0.422,0.5c0.135,0.3,0.242,0.6,0.32,0.8l1.43,0.2c0.067,0,0.123,0.1,0.164,0.1
			C241.475,1366.9,241.496,1366.9,241.496,1367"/>
	</g>
	<path fill="#95A5A6" d="M244.5,1361.9l-6-6v4c0,1.1,0.895,2,2,2H244.5z"/>
</g>
<g transform="translate(0 -1028.4)">
	<path fill="#95A5A6" d="M84.5,1356.9c-1.104,0-2,0.9-2,2v8v4v6c0,1.1,0.896,2,2,2h14c1.105,0,2-0.9,2-2v-6v-4v-4l-6-6H84.5z"/>
	<path fill="#BDC3C7" d="M84.5,1355.9c-1.104,0-2,0.9-2,2v8v4v6c0,1.1,0.896,2,2,2h14c1.105,0,2-0.9,2-2v-6v-4v-4l-6-6H84.5z"/>
	<path fill="#95A5A6" d="M100.5,1361.9l-6-6v4c0,1.1,0.895,2,2,2H100.5z"/>
	<path fill="#95A5A6" d="M85.5,1362.9v1h12v-1H85.5z M85.5,1365.9v1h12v-1H85.5z M85.5,1368.9v1h12v-1H85.5z M85.5,1371.9v1h12v-1
		H85.5z"/>
</g>
<g transform="translate(0 -1028.4)">
	<path fill="#95A5A6" d="M516.5,1356.9c-1.104,0-2,0.9-2,2v8v4v6c0,1.1,0.896,2,2,2h14c1.105,0,2-0.9,2-2v-6v-4v-4l-6-6H516.5z"/>
	<path fill="#BDC3C7" d="M516.5,1355.9c-1.104,0-2,0.9-2,2v8v4v6c0,1.1,0.896,2,2,2h14c1.105,0,2-0.9,2-2v-6v-4v-4v-4
		c0-1.1-0.895-2-2-2h-4H516.5z"/>
	<path fill="#95A5A6" d="M516.5,1356.9v10v2v2l2.5-2l2.5,2v-2v-2v-10H516.5z"/>
	<path fill="#E74C3C" d="M516.5,1356.9v9v2v2l2.5-2l2.5,2v-2v-2v-9H516.5z"/>
	<path fill="#C0392B" d="M517.5,1355.9c-0.553,0-1,0.4-1,1h2h1h2c0-0.6-0.447-1-1-1H517.5z"/>
</g>
<g transform="translate(0 -1028.4)">
	<path fill="#95A5A6" d="M156.5,1356.9c-1.104,0-2,0.9-2,2v8v4v6c0,1.1,0.896,2,2,2h14c1.105,0,2-0.9,2-2v-6v-4v-4l-6-6H156.5z"/>
	<path fill="#BDC3C7" d="M156.5,1355.9c-1.104,0-2,0.9-2,2v8v4v6c0,1.1,0.896,2,2,2h14c1.105,0,2-0.9,2-2v-6v-4v-4l-6-6H156.5z"/>
	<path fill="#95A5A6" d="M172.5,1361.9l-6-6v4c0,1.1,0.895,2,2,2H172.5z"/>
</g>
<text transform="matrix(1 0 0 1 10.5 98.5)" fill="#96A5A6" font-family="'Helvetica'" font-size="12">Infrastructure</text>
<text transform="matrix(1 0 0 1 154.5 98.5)" fill="#96A5A6" font-family="'Helvetica'" font-size="12">Applications</text>
<text transform="matrix(1 0 0 1 586.5 98.5)" fill="#96A5A6" font-family="'Helvetica'" font-size="12">Applications</text>
<text transform="matrix(1 0 0 1 442.5 98.5)" fill="#96A5A6" font-family="'Helvetica'" font-size="12">Infrastructure</text>
<text transform="matrix(1 0 0 1 190.5 197.5)" font-family="'Helvetica'" font-size="12">GitHub</text>
<text transform="matrix(1 0 0 1 550.5 197.5)" font-family="'Helvetica'" font-size="12">GitHub</text>
<text transform="matrix(1 0 0 1 190.5 269.5)" font-family="'Helvetica'" font-size="12">Codeship</text>
<text transform="matrix(1 0 0 1 550.5 269.5)" font-family="'Helvetica'" font-size="12">Codeship</text>
<text transform="matrix(1 0 0 1 190.5 125.5)" font-family="'Helvetica'" font-size="12">Source code</text>
<text transform="matrix(1 0 0 1 622.5 125.5)" font-family="'Helvetica'" font-size="12">Source code</text>
<text transform="matrix(1 0 0 1 469.5 125.5)" font-family="'Helvetica'" font-size="12">Ansible playbook</text>
<text transform="matrix(1 0 0 1 46.5 125.5)" font-family="'Helvetica'" font-size="12">Developers</text>
<text transform="matrix(1 0 0 1 550.5 341.5)" font-family="'Helvetica'" font-size="12">Ansible</text>
<g>
	<g>
		
			<line fill="none" stroke="#95A5A6" stroke-miterlimit="10" stroke-dasharray="4,4" x1="163.5" y1="143.5" x2="163.5" y2="173.759"/>
		<g>
			<polygon fill="#95A5A6" points="159.511,172.592 163.5,179.5 167.489,172.592 			"/>
		</g>
	</g>
</g>
<line fill="none" stroke="#95A5A6" stroke-miterlimit="10" stroke-dasharray="4,4" x1="19.5" y1="143.5" x2="19.5" y2="368.5"/>
<g>
	<g>
		
			<line fill="none" stroke="#95A5A6" stroke-miterlimit="10" stroke-dasharray="4,4" x1="163.5" y1="215.5" x2="163.5" y2="245.759"/>
		<g>
			<polygon fill="#95A5A6" points="159.511,244.592 163.5,251.5 167.489,244.592 			"/>
		</g>
	</g>
</g>
<g>
	<g>
		
			<line fill="none" stroke="#95A5A6" stroke-miterlimit="10" stroke-dasharray="4,4" x1="163.5" y1="287.5" x2="163.5" y2="317.759"/>
		<g>
			<polygon fill="#95A5A6" points="159.511,316.592 163.5,323.5 167.489,316.592 			"/>
		</g>
	</g>
</g>
<g>
	<g>
		<line fill="none" stroke="#95A5A6" stroke-miterlimit="10" stroke-dasharray="4,4" x1="91.5" y1="296.5" x2="91.5" y2="317.759"/>
		<g>
			<polygon fill="#95A5A6" points="87.511,316.592 91.5,323.5 95.489,316.592 			"/>
		</g>
	</g>
</g>
<line fill="none" stroke="#95A5A6" stroke-miterlimit="10" stroke-dasharray="4,4" x1="91.5" y1="296.5" x2="154.5" y2="296.5"/>
<g>
	<g>
		
			<line fill="none" stroke="#95A5A6" stroke-miterlimit="10" stroke-dasharray="4,4" x1="235.5" y1="296.5" x2="235.5" y2="317.76"/>
		<g>
			<polygon fill="#95A5A6" points="231.511,316.593 235.5,323.5 239.489,316.593 			"/>
		</g>
	</g>
</g>
<g>
	<g>
		
			<line fill="none" stroke="#95A5A6" stroke-miterlimit="10" stroke-dasharray="4,4" x1="523.5" y1="152.5" x2="523.5" y2="173.759"/>
		<g>
			<polygon fill="#95A5A6" points="519.511,172.592 523.5,179.5 527.489,172.592 			"/>
		</g>
	</g>
</g>
<line fill="none" stroke="#95A5A6" stroke-miterlimit="10" stroke-dasharray="4,4" x1="451.5" y1="152.5" x2="523.5" y2="152.5"/>
<line fill="none" stroke="#95A5A6" stroke-miterlimit="10" stroke-dasharray="4,4" x1="451.5" y1="143.499" x2="451.5" y2="152.5"/>
<line fill="none" stroke="#95A5A6" stroke-miterlimit="10" stroke-dasharray="4,4" x1="595.5" y1="143.5" x2="595.5" y2="152.5"/>
<g>
	<g>
		
			<line fill="none" stroke="#95A5A6" stroke-miterlimit="10" stroke-dasharray="4,4" x1="523.5" y1="215.5" x2="523.5" y2="245.759"/>
		<g>
			<polygon fill="#95A5A6" points="519.511,244.592 523.5,251.5 527.489,244.592 			"/>
		</g>
	</g>
</g>
<g>
	<g>
		
			<line fill="none" stroke="#95A5A6" stroke-miterlimit="10" stroke-dasharray="4,4" x1="532.5" y1="152.5" x2="532.5" y2="173.759"/>
		<g>
			<polygon fill="#95A5A6" points="528.511,172.592 532.5,179.5 536.489,172.592 			"/>
		</g>
	</g>
</g>
<line fill="none" stroke="#95A5A6" stroke-miterlimit="10" stroke-dasharray="4,4" x1="532.5" y1="152.5" x2="595.5" y2="152.5"/>
<g>
	<g>
		
			<line fill="none" stroke="#95A5A6" stroke-miterlimit="10" stroke-dasharray="4,4" x1="523.5" y1="287.5" x2="523.5" y2="317.759"/>
		<g>
			<polygon fill="#95A5A6" points="519.511,316.592 523.5,323.5 527.489,316.592 			"/>
		</g>
	</g>
</g>
<g>
	<g>
		
			<line fill="none" stroke="#95A5A6" stroke-miterlimit="10" stroke-dasharray="4,4" x1="523.5" y1="359.5" x2="523.5" y2="389.76"/>
		<g>
			<polygon fill="#95A5A6" points="519.511,388.592 523.5,395.5 527.489,388.592 			"/>
		</g>
	</g>
</g>
<line fill="none" stroke="#95A5A6" stroke-miterlimit="10" stroke-dasharray="4,4" x1="172.5" y1="296.5" x2="235.5" y2="296.5"/>
<line fill="none" stroke="#95A5A6" stroke-miterlimit="10" stroke-dasharray="4,4" x1="154.5" y1="287.5" x2="154.5" y2="296.5"/>
<line fill="none" stroke="#95A5A6" stroke-miterlimit="10" stroke-dasharray="4,4" x1="172.5" y1="287.5" x2="172.5" y2="296.5"/>
<g transform="translate(0 -1028.4)">
	<path fill="#2C3E50" d="M16.757,1146.435c-0.211,0-0.426,0.013-0.625,0.062c-0.117,0.03-0.231,0.08-0.344,0.125
		c-0.043,0.018-0.082,0.042-0.125,0.062c-0.018,0.008-0.014,0.022-0.031,0.031c-0.105,0.052-0.213,0.09-0.312,0.156
		c-0.014,0.009-0.049,0.022-0.062,0.031c-0.029,0.02-0.033,0.041-0.062,0.062c-0.082,0.059-0.174,0.121-0.25,0.188
		c-0.07,0.063-0.122,0.149-0.188,0.219c-0.221,0.227-0.438,0.469-0.594,0.75c-0.268,0.47-0.447,0.985-0.531,1.531
		c-0.041-0.009-0.09-0.012-0.125,0c-0.273,0.089-0.334,0.609-0.156,1.156c0.104,0.321,0.26,0.576,0.438,0.719
		c0.238,0.926,0.75,1.704,1.406,2.188v0.531l-0.531,0.5l-1.031,0.531c-0.842,0.417-1.69,0.833-2.531,1.25
		c-0.466,0.281-0.639,0.826-0.594,1.344c0.021,0.326-0.105,0.752,0.219,0.969c0.308,0.158,0.697,0.068,1.031,0.094h1.812
		c0.182-0.238,0.408-0.458,0.688-0.625l0.031-0.031h0.031c1.411-0.693,2.805-1.4,4.219-2.094l1.625-0.781
		c-0.092-0.046-0.189-0.08-0.281-0.125l-1.031-0.531l-0.531-0.5v-0.531c0.416-0.305,0.767-0.747,1.031-1.25
		c-0.356-0.576-0.631-1.238-0.812-1.938c-0.302-0.31-0.585-0.654-0.75-1.156c-0.17-0.517-0.219-1.051-0.156-1.5
		c0.055-0.397,0.246-0.773,0.625-0.969c-0.111-0.072-0.257-0.129-0.375-0.188c-0.06-0.029-0.096-0.069-0.156-0.094
		c-0.043-0.018-0.08-0.016-0.125-0.031c-0.133-0.046-0.268-0.102-0.406-0.125c-0.011-0.001-0.021,0.002-0.031,0
		C17.034,1146.445,16.89,1146.433,16.757,1146.435L16.757,1146.435z"/>
	<path fill="#34495E" d="M24.006,1142.135c-0.354,0-0.703,0-1.038,0.1c-0.195,0-0.385,0.1-0.572,0.2c-0.074,0-0.147,0-0.22,0.1
		h-0.082c-0.177,0.1-0.351,0.2-0.519,0.3h-0.082c-0.049,0.1-0.088,0.1-0.137,0.2c-0.137,0.1-0.281,0.1-0.41,0.3
		c-0.116,0.1-0.217,0.2-0.328,0.3c-0.371,0.4-0.692,0.8-0.955,1.3c-0.45,0.7-0.787,1.6-0.928,2.5h-0.191
		c-0.459,0.2-0.572,1-0.273,1.9c0.176,0.6,0.467,1,0.765,1.2c0.399,1.6,1.246,2.9,2.349,3.7v0.9l-0.874,0.8l-1.748,0.9
		c-1.413,0.699-2.821,1.399-4.233,2.1c-0.782,0.4-1.085,1.4-1.01,2.2c0.035,0.6-0.162,1.3,0.381,1.6
		c0.518,0.3,1.133,0.101,1.694,0.101h4.916h6.992c2.069,0,4.132,0.1,6.2,0c0.672,0,0.857-0.7,0.793-1.301
		c0.012-0.8,0.06-1.699-0.574-2.3c-0.518-0.5-1.253-0.7-1.885-1.101c-0.926-0.399-1.859-0.899-2.785-1.299l-1.749-0.9l-0.874-0.801
		v-0.899c1.104-0.8,1.949-2.1,2.35-3.7c0.297-0.2,0.59-0.6,0.764-1.2c0.3-0.9,0.187-1.7-0.272-1.9h-0.19
		c-0.143-0.9-0.479-1.8-0.93-2.5c-0.262-0.5-0.584-0.9-0.955-1.3c-0.111-0.1-0.211-0.2-0.328-0.3h-0.027
		c-0.342-0.3-0.723-0.6-1.12-0.8c-0.101,0-0.197-0.1-0.3-0.1c-0.073,0-0.145-0.1-0.219-0.1c-0.224-0.1-0.451-0.1-0.684-0.2h-0.055
		L24.006,1142.135L24.006,1142.135z"/>
</g>
<text transform="matrix(1 0 0 1 550.5 413.5)" font-family="'Helvetica'" font-size="12">Virtual server</text>
<text transform="matrix(1 0 0 1 118.5 413.5)" font-family="'Helvetica'" font-size="12">Virtual server</text>
<g>
	<g>
		<line fill="none" stroke="#95A5A6" stroke-miterlimit="10" stroke-dasharray="4,4" x1="91.5" y1="359.5" x2="91.5" y2="389.759"/>
		<g>
			<polygon fill="#95A5A6" points="87.511,388.592 91.5,395.5 95.489,388.592 			"/>
		</g>
	</g>
</g>
<g>
	<g>
		
			<line fill="none" stroke="#95A5A6" stroke-miterlimit="10" stroke-dasharray="4,4" x1="100.5" y1="368.5" x2="100.5" y2="389.759"/>
		<g>
			<polygon fill="#95A5A6" points="96.511,388.592 100.5,395.5 104.489,388.592 			"/>
		</g>
	</g>
</g>
<g>
	<g>
		
			<line fill="none" stroke="#95A5A6" stroke-miterlimit="10" stroke-dasharray="4,4" x1="109.5" y1="377.5" x2="109.5" y2="389.759"/>
		<g>
			<polygon fill="#95A5A6" points="105.511,388.592 109.5,395.5 113.489,388.592 			"/>
		</g>
	</g>
</g>
<g>
	<g>
		<line fill="none" stroke="#95A5A6" stroke-miterlimit="10" stroke-dasharray="4,4" x1="82.5" y1="368.5" x2="82.5" y2="389.759"/>
		<g>
			<polygon fill="#95A5A6" points="78.511,388.592 82.5,395.5 86.489,388.592 			"/>
		</g>
	</g>
</g>
<line fill="none" stroke="#95A5A6" stroke-miterlimit="10" stroke-dasharray="4,4" x1="19.5" y1="368.5" x2="82.5" y2="368.5"/>
<line fill="none" stroke="#95A5A6" stroke-miterlimit="10" stroke-dasharray="4,4" x1="100.5" y1="368.5" x2="163.5" y2="368.5"/>
<line fill="none" stroke="#95A5A6" stroke-miterlimit="10" stroke-dasharray="4,4" x1="109.5" y1="377.5" x2="235.5" y2="377.5"/>
<line fill="none" stroke="#95A5A6" stroke-miterlimit="10" stroke-dasharray="4,4" x1="163.5" y1="359.5" x2="163.5" y2="368.5"/>
<line fill="none" stroke="#95A5A6" stroke-miterlimit="10" stroke-dasharray="4,4" x1="235.5" y1="360.203" x2="235.5" y2="376.797"/>
<line fill="none" stroke="#BDC3C7" stroke-miterlimit="10" x1="397.5" y1="44.5" x2="397.5" y2="431.5"/>
<text transform="matrix(1 0 0 1 262.5 341.5)" font-family="'Helvetica'" font-size="12">Deployment scripts</text>
</svg>
