<?xml version="1.0" encoding="utf-8"?>
<!-- Generator: Adobe Illustrator 16.0.4, SVG Export Plug-In . SVG Version: 6.00 Build 0)  -->
<!DOCTYPE svg PUBLIC "-//W3C//DTD SVG 1.1//EN" "http://www.w3.org/Graphics/SVG/1.1/DTD/svg11.dtd">
<svg version="1.1" id="Layer_1" xmlns="http://www.w3.org/2000/svg" xmlns:xlink="http://www.w3.org/1999/xlink" x="0px" y="0px"
	 width="820px" height="820px" viewBox="0 0 820 820" enable-background="new 0 0 820 820" xml:space="preserve">
<text transform="matrix(1 0 0 1 352.5 368.5)" font-family="'Helvetica'" font-size="12">Forums</text>
<text transform="matrix(1 0 0 1 352.5 382.9004)" font-family="'Helvetica'" font-size="12">application</text>
<path fill="#95A5A6" d="M352.507,439.53v4.18c-0.015,0.023,0,0.05,0,0.076c0,3.02,4.896,5.475,10.938,5.475
	s10.948-2.444,10.948-5.47v-4.26L352.507,439.53L352.507,439.53z"/>
<path fill="#BDC3C7" d="M374.4,439.53c0,2.687-4.895,4.866-10.947,4.866c-6.048,0-10.938-2.187-10.938-4.867
	c0-2.69,4.894-4.87,10.938-4.87s10.95,2.18,10.95,4.863l-0.002,0.004L374.4,439.53z"/>
<path fill="#7F8C8D" d="M352.58,443.787c-0.055,0.2-0.064,0.402-0.064,0.609c0,2.687,4.896,4.856,10.938,4.856
	s10.948-2.18,10.948-4.86c0-0.206-0.02-0.407-0.076-0.607c-0.673,2.396-5.288,4.26-10.872,4.26c-5.582,0-10.195-1.854-10.872-4.26
	v0.002H352.58z"/>
<path fill="#95A5A6" d="M352.507,433.447v4.182c-0.015,0.021,0,0.05,0,0.07c0,3.02,4.896,5.475,10.938,5.475
	s10.948-2.452,10.948-5.477v-4.258h-21.89v0.002l0.004,0.002V433.447z"/>
<path fill="#BDC3C7" d="M374.4,433.447c0,2.688-4.895,4.867-10.947,4.867c-6.048,0-10.938-2.187-10.938-4.867
	c0-2.688,4.894-4.865,10.938-4.865S374.401,430.762,374.4,433.447L374.4,433.447z"/>
<path fill="#7F8C8D" d="M352.58,437.705c-0.055,0.2-0.064,0.402-0.064,0.606c0,2.688,4.896,4.86,10.938,4.86
	s10.948-2.18,10.948-4.86c0-0.204-0.02-0.407-0.076-0.606c-0.673,2.4-5.288,4.258-10.872,4.258
	C357.871,441.963,353.254,440.105,352.58,437.705L352.58,437.705z"/>
<path fill="#95A5A6" d="M352.507,427.365v4.18c-0.015,0.025,0,0.05,0,0.076c0,3.03,4.896,5.479,10.938,5.479
	s10.948-2.442,10.948-5.474v-4.257h-21.886V427.365z"/>
<path fill="#7F8C8D" d="M352.58,431.623c-0.055,0.2-0.064,0.402-0.064,0.607c0,2.688,4.896,4.859,10.938,4.859
	s10.948-2.18,10.948-4.859c0-0.205-0.02-0.408-0.076-0.607c-0.673,2.4-5.288,4.258-10.872,4.258c-5.582,0-10.195-1.85-10.872-4.25
	v-0.004L352.58,431.623z"/>
<path fill="#BDC3C7" d="M363.453,439.53v9.729c6.047,0,10.948-2.45,10.948-5.476v-4.258h-10.944v0.004H363.453z"/>
<path fill="#ECF0F1" d="M363.453,434.665v9.729c6.047,0,10.948-2.184,10.948-4.863c0-2.685-4.892-4.86-10.944-4.86v-0.002
	L363.453,434.665z"/>
<path fill="#BDC3C7" d="M363.453,433.447v9.729c6.047,0,10.948-2.453,10.948-5.477v-4.257h-10.944v0.004H363.453z"/>
<path fill="#95A5A6" d="M374.325,437.705c-0.673,2.4-5.288,4.258-10.872,4.258v1.217c6.047,0,10.948-2.18,10.948-4.857
	c0-0.214-0.015-0.416-0.072-0.617H374.325z"/>
<path fill="#ECF0F1" d="M363.453,428.582v9.73c6.047,0,10.948-2.187,10.948-4.865c0-2.686-4.895-4.865-10.944-4.865H363.453z"/>
<path fill="#BDC3C7" d="M363.453,427.365v9.729c6.047,0,10.948-2.442,10.948-5.475v-4.257l-10.944,0.002H363.453z"/>
<path fill="#95A5A6" d="M374.325,431.623c-0.673,2.4-5.288,4.258-10.872,4.258v1.226c6.047,0,10.948-2.181,10.948-4.86
	c0-0.206-0.02-0.41-0.072-0.61v-0.01L374.325,431.623z M374.325,443.787c-0.673,2.399-5.288,4.26-10.872,4.26v1.215
	c6.047,0,10.948-2.18,10.948-4.857c0-0.215-0.015-0.416-0.072-0.617H374.325z"/>
<path fill="#BDC3C7" d="M374.4,427.365c0,2.688-4.895,4.867-10.947,4.867c-6.048,0-10.938-2.187-10.938-4.867
	c0-2.688,4.894-4.865,10.938-4.865S374.401,424.68,374.4,427.365L374.4,427.365z"/>
<text transform="matrix(1 0 0 1 352.5 467.5)" font-family="'Helvetica'" font-size="12">Forums</text>
<text transform="matrix(1 0 0 1 352.5 481.8984)" font-family="'Helvetica'" font-size="12">database</text>
<text transform="matrix(1 0 0 1 271.5 215.5)" font-family="'Helvetica'" font-size="12">worldskills.org</text>
<text transform="matrix(1 0 0 1 271.5 229.8984)" font-family="'Helvetica'" font-size="12">website</text>
<text transform="matrix(1 0 0 1 433.5 215.5)" font-family="'Helvetica'" font-size="12">WSC2015</text>
<text transform="matrix(1 0 0 1 433.5 229.8984)" font-family="'Helvetica'" font-size="12">website</text>
<text transform="matrix(1 0 0 1 514.5 215.5)" font-family="'Helvetica'" font-size="12">WSC2017</text>
<text transform="matrix(1 0 0 1 514.5 229.9004)" font-family="'Helvetica'" font-size="12">website</text>
<path fill="#95A5A6" d="M433.504,43.53v4.182c-0.01,0.024,0,0.05,0,0.075c0,3.02,4.896,5.474,10.943,5.474s10.946-2.45,10.946-5.47
	v-4.26L433.504,43.53L433.504,43.53z"/>
<path fill="#BDC3C7" d="M455.4,43.53c0,2.687-4.902,4.864-10.95,4.864s-10.942-2.18-10.942-4.865c0-2.69,4.896-4.87,10.943-4.87
	s10.95,2.18,10.95,4.866L455.4,43.53z"/>
<path fill="#7F8C8D" d="M433.578,47.787c-0.056,0.2-0.07,0.4-0.07,0.607c0,2.688,4.896,4.865,10.942,4.865s10.948-2.185,10.948-4.87
	c0-0.204-0.021-0.407-0.076-0.606c-0.673,2.4-5.288,4.26-10.872,4.26c-5.582,0-10.198-1.86-10.872-4.26V47.787z"/>
<path fill="#95A5A6" d="M433.504,37.447v4.183c-0.01,0.024,0,0.05,0,0.075c0,3.02,4.896,5.475,10.943,5.475
	s10.946-2.45,10.946-5.475v-4.258H433.504L433.504,37.447z"/>
<path fill="#BDC3C7" d="M455.4,37.447c0,2.688-4.902,4.867-10.95,4.867s-10.942-2.18-10.942-4.867c0-2.688,4.896-4.865,10.943-4.865
	S455.401,34.762,455.4,37.447L455.4,37.447z"/>
<path fill="#7F8C8D" d="M433.578,41.705c-0.056,0.2-0.07,0.402-0.07,0.607c0,2.688,4.896,4.865,10.942,4.865
	s10.948-2.176,10.948-4.86c0-0.208-0.021-0.41-0.076-0.61c-0.673,2.4-5.288,4.258-10.872,4.258c-5.582,0-10.198-1.856-10.872-4.258
	V41.705L433.578,41.705z"/>
<path fill="#95A5A6" d="M433.504,31.365v4.183c-0.01,0.024,0,0.05,0,0.075c0,3.02,4.896,5.475,10.943,5.475
	s10.946-2.448,10.946-5.475v-4.258H433.504L433.504,31.365z"/>
<path fill="#7F8C8D" d="M433.578,35.623c-0.056,0.2-0.07,0.402-0.07,0.607c0,2.688,4.896,4.865,10.942,4.865
	s10.948-2.18,10.948-4.87c0-0.204-0.021-0.41-0.076-0.606c-0.673,2.4-5.288,4.255-10.872,4.255c-5.582,0-10.198-1.856-10.872-4.257
	v0.002V35.623z"/>
<path fill="#BDC3C7" d="M444.45,43.53v9.728c6.047,0,10.948-2.45,10.948-5.473v-4.26H444.45v0.004V43.53z"/>
<path fill="#ECF0F1" d="M444.45,38.664v9.732c6.047,0,10.948-2.18,10.948-4.87s-4.9-4.864-10.948-4.864V38.664z"/>
<path fill="#BDC3C7" d="M444.45,37.447v9.729c6.047,0,10.948-2.447,10.948-5.474v-4.258L444.45,37.447z"/>
<path fill="#95A5A6" d="M455.322,41.705c-0.673,2.398-5.288,4.258-10.872,4.258v1.217c6.047,0,10.948-2.18,10.948-4.864
	C455.398,42.106,455.378,41.904,455.322,41.705L455.322,41.705z"/>
<path fill="#ECF0F1" d="M444.45,32.582v9.73c6.047,0,10.948-2.178,10.948-4.864c0-2.688-4.9-4.87-10.948-4.87V32.582z"/>
<path fill="#BDC3C7" d="M444.45,31.365v9.729c6.047,0,10.948-2.447,10.948-5.474v-4.254l-10.948,0.002V31.365z"/>
<path fill="#95A5A6" d="M455.322,35.623c-0.673,2.4-5.288,4.258-10.872,4.258v1.22c6.047,0,10.948-2.18,10.948-4.862
	c0-0.21-0.021-0.412-0.076-0.61V35.623z M455.322,47.787c-0.673,2.4-5.288,4.26-10.872,4.26v1.215c6.047,0,10.948-2.18,10.948-4.865
	C455.398,48.187,455.378,47.987,455.322,47.787z"/>
<path fill="#BDC3C7" d="M455.4,31.365c0,2.688-4.902,4.867-10.95,4.867s-10.942-2.182-10.942-4.867
	c0-2.688,4.896-4.865,10.943-4.865S455.401,28.68,455.4,31.365L455.4,31.365z"/>
<text transform="matrix(1 0 0 1 271.5 71.5)" font-family="'Helvetica'" font-size="12">worldskills.org</text>
<text transform="matrix(1 0 0 1 271.5 85.8994)" font-family="'Helvetica'" font-size="12">database</text>
<path fill="#95A5A6" d="M514.507,43.53v4.18c-0.015,0.024,0,0.053,0,0.077c0,3.02,4.896,5.475,10.938,5.475
	s10.945-2.45,10.945-5.477v-4.258l-21.89,0.002h0.01L514.507,43.53z"/>
<path fill="#BDC3C7" d="M536.4,43.53c0,2.687-4.9,4.864-10.946,4.864s-10.938-2.18-10.938-4.865c0-2.69,4.896-4.87,10.94-4.87
	s10.944,2.18,10.944,4.866V43.53z"/>
<path fill="#7F8C8D" d="M514.58,47.787c-0.054,0.2-0.065,0.4-0.065,0.607c0,2.688,4.896,4.865,10.94,4.865s10.945-2.18,10.945-4.87
	c0-0.21-0.021-0.41-0.075-0.61c-0.672,2.4-5.287,4.26-10.87,4.26s-10.195-1.86-10.874-4.26v0.004L514.58,47.787z"/>
<path fill="#95A5A6" d="M514.507,37.447v4.182c-0.015,0.02,0,0.05,0,0.07c0,3.022,4.896,5.476,10.938,5.476
	s10.945-2.45,10.945-5.477V37.44l-21.89,0.002h0.01L514.507,37.447z"/>
<path fill="#BDC3C7" d="M536.4,37.447c0,2.688-4.9,4.866-10.946,4.866s-10.938-2.18-10.938-4.866c0-2.687,4.896-4.865,10.94-4.865
	S536.4,34.762,536.4,37.447z"/>
<path fill="#7F8C8D" d="M514.58,41.705c-0.054,0.2-0.065,0.4-0.065,0.607c0,2.688,4.896,4.87,10.94,4.87S536.4,44.995,536.4,42.31
	c0-0.204-0.021-0.406-0.075-0.605c-0.672,2.398-5.287,4.258-10.87,4.258s-10.195-1.854-10.874-4.256L514.58,41.705L514.58,41.705z"
	/>
<path fill="#95A5A6" d="M514.507,31.365v4.18c-0.015,0.025,0,0.053,0,0.076c0,3.026,4.896,5.48,10.938,5.48
	s10.945-2.45,10.945-5.476v-4.257H514.5l0.007,0.002V31.365z"/>
<path fill="#7F8C8D" d="M514.58,35.62c-0.054,0.202-0.065,0.404-0.065,0.61c0,2.688,4.896,4.865,10.94,4.865
	s10.945-2.18,10.945-4.865c0-0.206-0.021-0.408-0.075-0.61c-0.672,2.4-5.287,4.262-10.87,4.262c-5.583-0.003-10.2-1.86-10.875-4.26
	V35.62z"/>
<path fill="#BDC3C7" d="M525.454,43.53v9.728c6.047,0,10.947-2.45,10.947-5.475v-4.258l-10.94,0.002l-0.003,0.002L525.454,43.53z"/>
<path fill="#ECF0F1" d="M525.454,38.666v9.73c6.047,0,10.947-2.18,10.947-4.864c0-2.688-4.9-4.87-10.94-4.87l-0.003,0.004H525.454z"
	/>
<path fill="#BDC3C7" d="M525.454,37.447v9.729c6.047,0,10.947-2.45,10.947-5.476v-4.254l-10.94,0.002l-0.003,0.002L525.454,37.447z"
	/>
<path fill="#95A5A6" d="M536.325,41.705c-0.672,2.398-5.287,4.258-10.87,4.258v1.22c6.046,0,10.946-2.18,10.946-4.864
	c0-0.21-0.021-0.41-0.07-0.61l-0.002-0.008L536.325,41.705z"/>
<path fill="#ECF0F1" d="M525.454,32.582v9.73c6.047,0,10.947-2.18,10.947-4.864c0-2.688-4.9-4.865-10.94-4.865h-0.003
	L525.454,32.582z"/>
<path fill="#BDC3C7" d="M525.454,31.365v9.729c6.047,0,10.947-2.45,10.947-5.476v-4.26h-10.94l-0.002,0.002L525.454,31.365z"/>
<path fill="#95A5A6" d="M536.325,35.62c-0.672,2.4-5.287,4.262-10.87,4.262V41.1c6.046,0,10.946-2.182,10.946-4.867
	c0-0.202-0.021-0.41-0.07-0.608l-0.002-0.004L536.325,35.62z M536.325,47.787c-0.672,2.4-5.287,4.26-10.87,4.26v1.215
	c6.046,0,10.946-2.178,10.946-4.863c0-0.21-0.021-0.41-0.07-0.61l-0.002-0.006L536.325,47.787z"/>
<path fill="#BDC3C7" d="M536.4,31.365c0,2.688-4.9,4.866-10.946,4.866s-10.938-2.18-10.938-4.862c0-2.687,4.896-4.865,10.94-4.865
	s10.944,2.18,10.944,4.866V31.365z"/>
<text transform="matrix(1 0 0 1 433.5 71.5)" font-family="'Helvetica'" font-size="12">WSC2015</text>
<text transform="matrix(1 0 0 1 433.5 85.8994)" font-family="'Helvetica'" font-size="12">database</text>
<path fill="#95A5A6" d="M271.504,43.53v4.18c-0.01,0.023,0,0.052,0,0.075c0,3.022,4.896,5.476,10.943,5.476
	c6.047,0,10.947-2.45,10.947-5.472V43.53H271.504L271.504,43.53z"/>
<path fill="#BDC3C7" d="M293.4,43.53c0,2.687-4.903,4.864-10.95,4.864c-6.05,0-10.943-2.18-10.943-4.865
	c0-2.69,4.896-4.87,10.943-4.87c6.047,0,10.95,2.18,10.95,4.866V43.53z"/>
<path fill="#7F8C8D" d="M271.58,47.787c-0.058,0.2-0.073,0.4-0.073,0.607c0,2.688,4.896,4.865,10.943,4.865
	c6.047,0,10.95-2.185,10.95-4.87c0-0.206-0.022-0.407-0.077-0.606c-0.674,2.4-5.29,4.26-10.873,4.26
	c-5.582,0-10.198-1.86-10.87-4.26V47.787z"/>
<path fill="#95A5A6" d="M271.504,37.447v4.182c-0.01,0.02,0,0.05,0,0.07c0,3.022,4.896,5.476,10.943,5.476
	c6.047,0,10.947-2.45,10.947-5.477V37.44l-21.89,0.002V37.447z"/>
<path fill="#BDC3C7" d="M293.4,37.447c0,2.688-4.903,4.866-10.95,4.866c-6.05,0-10.943-2.18-10.943-4.866
	c0-2.687,4.896-4.865,10.943-4.865C288.497,32.582,293.4,34.762,293.4,37.447z"/>
<path fill="#7F8C8D" d="M271.58,41.705c-0.058,0.2-0.073,0.4-0.073,0.607c0,2.688,4.896,4.865,10.943,4.865
	c6.047,0,10.95-2.18,10.95-4.865c0-0.206-0.022-0.408-0.077-0.607c-0.674,2.398-5.29,4.254-10.873,4.254
	c-5.582,0-10.197-1.858-10.87-4.26v0.002V41.705z"/>
<path fill="#95A5A6" d="M271.504,31.365v4.18c-0.01,0.025,0,0.05,0,0.076c0,3.025,4.896,5.48,10.943,5.48
	c6.047,0,10.947-2.45,10.947-5.474v-4.258h-21.89V31.365z"/>
<path fill="#7F8C8D" d="M271.58,35.623c-0.058,0.2-0.073,0.4-0.073,0.607c0,2.688,4.896,4.865,10.943,4.865
	c6.047,0,10.95-2.18,10.95-4.862c0-0.206-0.022-0.41-0.077-0.608c-0.674,2.4-5.29,4.258-10.873,4.258
	c-5.582,0-10.197-1.854-10.87-4.258V35.623L271.58,35.623z"/>
<path fill="#BDC3C7" d="M282.45,43.53v9.728c6.047,0,10.95-2.45,10.95-5.475v-4.258l-10.95,0.004V43.53z"/>
<path fill="#ECF0F1" d="M282.45,38.666v9.73c6.047,0,10.95-2.18,10.95-4.864C293.4,40.844,288.497,38.666,282.45,38.666z"/>
<path fill="#BDC3C7" d="M282.45,37.447v9.729c6.047,0,10.95-2.45,10.95-5.476v-4.254l-10.95,0.004V37.447z"/>
<path fill="#95A5A6" d="M293.323,41.705c-0.674,2.4-5.29,4.258-10.873,4.258v1.218c6.047,0,10.95-2.18,10.95-4.86
	c0-0.213-0.02-0.413-0.077-0.61V41.705z"/>
<path fill="#ECF0F1" d="M282.45,32.582v9.73c6.047,0,10.95-2.18,10.95-4.864c0-2.684-4.903-4.863-10.95-4.863V32.582z"/>
<path fill="#BDC3C7" d="M282.45,31.365v9.729c6.047,0,10.95-2.45,10.95-5.476v-4.26h-10.95v0.002V31.365z"/>
<path fill="#95A5A6" d="M293.323,35.623c-0.674,2.398-5.29,4.258-10.873,4.258v1.22c6.047,0,10.95-2.18,10.95-4.863
	c0-0.21-0.02-0.412-0.077-0.61V35.623z M293.323,47.787c-0.674,2.4-5.29,4.26-10.873,4.26v1.215c6.047,0,10.95-2.178,10.95-4.863
	c0-0.21-0.02-0.415-0.077-0.616V47.787z"/>
<path fill="#BDC3C7" d="M293.4,31.365c0,2.688-4.903,4.866-10.95,4.866c-6.05,0-10.943-2.18-10.943-4.862
	c0-2.687,4.896-4.865,10.943-4.865c6.047,0,10.95,2.18,10.95,4.866V31.365z"/>
<text transform="matrix(1 0 0 1 514.5 71.5)" font-family="'Helvetica'" font-size="12">WSC2017</text>
<text transform="matrix(1 0 0 1 514.5 85.8994)" font-family="'Helvetica'" font-size="12">database</text>
<path fill="#E67E22" d="M109.504,175.883v11.03L125.39,197.5v-11.025l-15.886-10.588V175.883z"/>
<path fill="#F39C12" d="M141.27,175.883v11.03L125.388,197.5v-11.03L141.27,175.883z"/>
<path fill="#F1C40F" d="M125.388,165.735L109.5,175.883l15.887,10.588l15.88-10.584l-15.883-10.146l0.004-0.003V165.735z"/>
<path fill="#E67E22" d="M120.754,168.713v1.984c0,1.645,2.074,2.98,4.637,2.98c2.56,0,4.637-1.335,4.637-2.98v-1.984h-9.27H120.754z
	 M120.754,168.713v1.984c0,1.645,2.074,2.98,4.637,2.98v-4.966l-4.633,0.006L120.754,168.713z"/>
<path fill="#F1C40F" d="M130.02,168.713c0,1.646-2.073,2.978-4.633,2.978c-2.565,0-4.64-1.325-4.64-2.97s2.074-2.98,4.637-2.98
	c2.558,0,4.632,1.335,4.632,2.98l0.002-0.002l0.002-0.002V168.713z"/>
<path fill="#E67E22" d="M129.358,174.006v1.985c0,1.65,2.072,2.98,4.632,2.98c2.562,0,4.633-1.33,4.633-2.98v-1.98h-9.265V174.006z
	 M129.358,174.006v1.985c0,1.65,2.072,2.98,4.632,2.98v-4.96h-4.632V174.006z"/>
<path fill="#F1C40F" d="M138.623,174.006c0,1.646-2.07,2.98-4.633,2.98c-2.56,0-4.633-1.334-4.633-2.98
	c0-1.645,2.07-2.978,4.63-2.978c2.56,0,4.633,1.332,4.633,2.976L138.623,174.006L138.623,174.006z"/>
<path fill="#E67E22" d="M112.15,173.346v1.984c0,1.648,2.074,2.98,4.633,2.98c2.56,0,4.633-1.332,4.633-2.98v-1.98h-9.266V173.346z
	 M112.15,173.346v1.984c0,1.648,2.074,2.98,4.633,2.98v-4.962h-4.633V173.346L112.15,173.346z"/>
<path fill="#F1C40F" d="M121.416,173.346c0,1.646-2.074,2.98-4.633,2.98c-2.56,0-4.633-1.334-4.633-2.98s2.074-2.98,4.633-2.98
	C119.343,170.366,121.416,171.701,121.416,173.346z"/>
<path fill="#E67E22" d="M120.754,178.64v1.984c0,1.646,2.074,2.978,4.637,2.978c2.56,0,4.637-1.332,4.637-2.978v-1.985h-9.27
	L120.754,178.64z M120.754,178.64v1.984c0,1.646,2.074,2.978,4.637,2.978v-4.963h-4.633L120.754,178.64z"/>
<path fill="#F1C40F" d="M130.02,178.64c0,1.645-2.073,2.98-4.633,2.98c-2.565,0-4.64-1.335-4.64-2.98c0-1.646,2.074-2.98,4.637-2.98
	c2.558,0,4.632,1.335,4.632,2.98H130.02z"/>
<text transform="matrix(1 0 0 1 109.5 215.5)" font-family="'Helvetica'" font-size="12">Web</text>
<text transform="matrix(1 0 0 1 109.5 229.9004)" font-family="'Helvetica'" font-size="12">services</text>
<path fill="#95A5A6" d="M110.614,34.75v4.182c-0.01,0.024,0,0.054,0,0.076c0,3.02,4.896,5.474,10.943,5.474
	c6.047,0,10.948-2.45,10.948-5.476v-4.26l-21.89,0.002v0.003L110.614,34.75z"/>
<path fill="#BDC3C7" d="M132.51,34.75c0,2.69-4.903,4.866-10.95,4.866s-10.943-2.182-10.943-4.865c0-2.684,4.896-4.862,10.943-4.862
	c6.048,0,10.95,2.177,10.95,4.866V34.75z"/>
<path fill="#7F8C8D" d="M110.69,39.01c-0.058,0.197-0.073,0.4-0.073,0.605c0,2.688,4.896,4.865,10.943,4.865
	c6.048,0,10.95-2.177,10.95-4.862c0-0.207-0.02-0.408-0.075-0.606c-0.673,2.397-5.288,4.258-10.872,4.258
	c-5.58,0-10.197-1.856-10.87-4.258h-0.003V39.01L110.69,39.01z"/>
<path fill="#95A5A6" d="M110.614,28.67v4.18c-0.01,0.022,0,0.05,0,0.073c0,3.022,4.896,5.477,10.943,5.477
	c6.047,0,10.948-2.45,10.948-5.476v-4.257l-21.89,0.002L110.614,28.67z"/>
<path fill="#BDC3C7" d="M132.51,28.67c0,2.687-4.903,4.864-10.95,4.864s-10.94-2.18-10.94-4.865c0-2.69,4.895-4.87,10.942-4.87
	s10.95,2.18,10.95,4.866h-0.003L132.51,28.67z"/>
<path fill="#7F8C8D" d="M110.69,32.924c-0.058,0.2-0.073,0.402-0.073,0.61c0,2.687,4.896,4.864,10.943,4.864
	c6.048,0,10.95-2.18,10.95-4.87c0-0.206-0.02-0.406-0.075-0.608c-0.673,2.4-5.288,4.26-10.872,4.26c-5.58,0-10.197-1.854-10.87-4.26
	L110.69,32.924L110.69,32.924z"/>
<path fill="#95A5A6" d="M110.614,22.587v4.18c-0.01,0.024,0,0.053,0,0.077c0,3.021,4.896,5.476,10.943,5.476
	c6.047,0,10.948-2.45,10.948-5.476v-4.26h-21.89v0.003H110.614z"/>
<path fill="#7F8C8D" d="M110.69,26.842c-0.058,0.2-0.073,0.402-0.073,0.61c0,2.687,4.896,4.864,10.943,4.864
	c6.048,0,10.95-2.18,10.95-4.865c0-0.203-0.02-0.41-0.075-0.61c-0.673,2.4-5.288,4.265-10.872,4.265
	c-5.58,0-10.197-1.855-10.87-4.26h-0.004L110.69,26.842z"/>
<path fill="#BDC3C7" d="M121.56,34.75v9.73c6.047,0,10.95-2.45,10.95-5.476v-4.257L121.56,34.75L121.56,34.75z"/>
<path fill="#ECF0F1" d="M121.56,29.885v9.732c6.047,0,10.95-2.18,10.95-4.867s-4.903-4.86-10.95-4.86V29.885z"/>
<path fill="#BDC3C7" d="M121.56,28.67v9.73c6.047,0,10.95-2.45,10.95-5.477v-4.258L121.56,28.67L121.56,28.67z"/>
<path fill="#95A5A6" d="M132.432,32.924c-0.673,2.4-5.288,4.26-10.872,4.26v1.218c6.05,0,10.95-2.18,10.95-4.866
	c0-0.205-0.02-0.408-0.075-0.61L132.432,32.924z"/>
<path fill="#ECF0F1" d="M121.56,23.803v9.73c6.047,0,10.95-2.182,10.95-4.868C132.51,25.98,127.607,23.803,121.56,23.803z"/>
<path fill="#BDC3C7" d="M121.56,22.587v9.73c6.047,0,10.95-2.448,10.95-5.475v-4.26h-10.95V22.587z"/>
<path fill="#95A5A6" d="M132.432,26.842c-0.673,2.4-5.288,4.26-10.872,4.26v1.218c6.05,0,10.95-2.18,10.95-4.866
	c0-0.205-0.02-0.408-0.075-0.61L132.432,26.842z M132.432,39.009c-0.673,2.393-5.288,4.253-10.872,4.253v1.218
	c6.05,0,10.95-2.18,10.95-4.863c0-0.21-0.02-0.41-0.075-0.61h-0.003V39.009z"/>
<path fill="#BDC3C7" d="M132.51,22.587c0,2.688-4.903,4.865-10.95,4.865s-10.943-2.182-10.943-4.865
	c0-2.688,4.896-4.866,10.943-4.866c6.048,0,10.95,2.18,10.95,4.87V22.587z"/>
<text transform="matrix(1 0 0 1 109.5 71.5)" font-family="'Helvetica'" font-size="12">Web services</text>
<text transform="matrix(1 0 0 1 109.5 85.8984)" font-family="'Helvetica'" font-size="12">databases</text>
<text transform="matrix(1 0 0 1 190.5 584.5)" font-family="'Helvetica'" font-size="12">Mailer</text>
<text transform="matrix(1 0 0 1 190.5 598.8994)" font-family="'Helvetica'" font-size="12">application</text>
<text transform="matrix(1 0 0 1 271.5 368.5)" font-family="'Helvetica'" font-size="12">Registrations</text>
<text transform="matrix(1 0 0 1 271.5 382.9004)" font-family="'Helvetica'" font-size="12">application</text>
<path fill="#95A5A6" d="M190.504,439.523v4.185c-0.01,0.02,0,0.05,0,0.078c0,3.02,4.897,5.476,10.944,5.476
	c6.047,0,10.948-2.449,10.948-5.474v-4.265l-21.89,0.003L190.504,439.523z"/>
<path fill="#BDC3C7" d="M212.4,439.523c0,2.688-4.9,4.864-10.948,4.864c-6.048,0-10.943-2.18-10.943-4.864
	c0-2.688,4.892-4.86,10.94-4.86c6.048,0,10.95,2.176,10.95,4.858v0.006L212.4,439.523z"/>
<path fill="#7F8C8D" d="M190.58,443.782c-0.055,0.193-0.07,0.396-0.07,0.604c0,2.688,4.896,4.863,10.943,4.863
	c6.047,0,10.948-2.18,10.948-4.868c0-0.208-0.02-0.41-0.072-0.604c-0.673,2.396-5.288,4.26-10.872,4.26
	c-5.582,0-10.2-1.86-10.872-4.26L190.58,443.782z"/>
<path fill="#95A5A6" d="M190.504,433.44v4.186c-0.01,0.021,0,0.054,0,0.077c0,3.02,4.897,5.475,10.944,5.475
	c6.047,0,10.948-2.45,10.948-5.476v-4.266l-21.89,0.003L190.504,433.44L190.504,433.44z"/>
<path fill="#BDC3C7" d="M212.4,433.44c0,2.689-4.9,4.865-10.948,4.865c-6.048,0-10.943-2.18-10.943-4.864
	c0-2.686,4.892-4.855,10.94-4.855c6.048,0,10.95,2.172,10.95,4.86L212.4,433.44z"/>
<path fill="#7F8C8D" d="M190.58,437.7c-0.055,0.193-0.07,0.396-0.07,0.604c0,2.688,4.896,4.865,10.943,4.865
	c6.047,0,10.948-2.18,10.948-4.868c0-0.206-0.02-0.408-0.072-0.604c-0.673,2.396-5.288,4.256-10.872,4.256
	c-5.582,0-10.2-1.858-10.872-4.266v0.01L190.58,437.7z"/>
<path fill="#95A5A6" d="M190.504,427.36v4.184c-0.01,0.021,0,0.05,0,0.077c0,3.02,4.897,5.479,10.944,5.479
	c6.047,0,10.948-2.449,10.948-5.475v-4.265L190.504,427.36L190.504,427.36z"/>
<path fill="#7F8C8D" d="M190.58,431.617c-0.055,0.193-0.07,0.396-0.07,0.604c0,2.69,4.896,4.87,10.943,4.87
	c6.047,0,10.948-2.18,10.948-4.867c0-0.205-0.02-0.409-0.072-0.603c-0.673,2.395-5.288,4.26-10.872,4.26
	c-5.582-0.003-10.2-1.859-10.872-4.26L190.58,431.617z"/>
<path fill="#BDC3C7" d="M201.453,439.523v9.729c6.047,0,10.948-2.45,10.948-5.475v-4.267l-10.944,0.011L201.453,439.523z"/>
<path fill="#ECF0F1" d="M201.453,434.66v9.729c6.047,0,10.948-2.18,10.948-4.865c0-2.69-4.9-4.865-10.944-4.864H201.453z"/>
<path fill="#BDC3C7" d="M201.453,433.44v9.731c6.047,0,10.948-2.45,10.948-5.475v-4.268h-10.944v0.011H201.453z"/>
<path fill="#95A5A6" d="M212.325,437.7c-0.673,2.396-5.288,4.258-10.872,4.258v1.217c6.047,0,10.948-2.18,10.948-4.866
	c0-0.21-0.02-0.415-0.072-0.609L212.325,437.7z"/>
<path fill="#ECF0F1" d="M201.453,428.577v9.729c6.047,0,10.948-2.18,10.948-4.866s-4.9-4.855-10.944-4.855v-0.008H201.453z"/>
<path fill="#BDC3C7" d="M201.453,427.36v9.729c6.047,0,10.948-2.45,10.948-5.475v-4.266l-10.944,0.011H201.453z"/>
<path fill="#95A5A6" d="M212.325,431.617c-0.673,2.396-5.288,4.26-10.872,4.26v1.216c6.047,0,10.948-2.18,10.948-4.866
	c0-0.207-0.02-0.409-0.072-0.609H212.325z M212.325,443.782c-0.673,2.396-5.288,4.258-10.872,4.258v1.217
	c6.047,0,10.948-2.18,10.948-4.864c0-0.21-0.02-0.412-0.072-0.609L212.325,443.782z"/>
<path fill="#BDC3C7" d="M212.4,427.36c0,2.687-4.9,4.863-10.948,4.863c-6.048,0-10.943-2.18-10.943-4.864
	c0-2.69,4.892-4.86,10.94-4.86C207.497,422.499,212.399,424.669,212.4,427.36L212.4,427.36z"/>
<text transform="matrix(1 0 0 1 190.5 467.5)" font-family="'Helvetica'" font-size="12">Who-is-who</text>
<text transform="matrix(1 0 0 1 190.5 481.8994)" font-family="'Helvetica'" font-size="12">database</text>
<text transform="matrix(1 0 0 1 190.5 368.5)" font-family="'Helvetica'" font-size="12">Who-is-who</text>
<text transform="matrix(1 0 0 1 190.5 382.9004)" font-family="'Helvetica'" font-size="12">application</text>
<text transform="matrix(1 0 0 1 28.5 368.5)" font-family="'Helvetica'" font-size="12">IL</text>
<text transform="matrix(1 0 0 1 28.5 382.9004)" font-family="'Helvetica'" font-size="12">application</text>
<path fill="#95A5A6" d="M28.504,439.524v4.185c-0.01,0.02,0,0.05,0,0.073c0,3.02,4.896,5.475,10.943,5.475
	c6.047,0,10.948-2.45,10.948-5.474v-4.264L28.504,439.524l0.001-0.004L28.504,439.524z"/>
<path fill="#BDC3C7" d="M50.398,439.524c0,2.688-4.9,4.863-10.948,4.863c-6.05,0-10.946-2.18-10.946-4.866
	c0-2.688,4.896-4.86,10.943-4.86c6.047,0,10.947,2.18,10.947,4.86l0.004,0.007V439.524z"/>
<path fill="#7F8C8D" d="M28.58,443.783c-0.057,0.193-0.07,0.396-0.07,0.604c0,2.688,4.894,4.863,10.94,4.863
	c6.047,0,10.946-2.184,10.946-4.864c0-0.208-0.02-0.41-0.076-0.606c-0.673,2.393-5.288,4.26-10.87,4.26s-10.2-1.86-10.874-4.264
	v0.008l0.003-0.005L28.58,443.783z"/>
<path fill="#95A5A6" d="M28.504,433.442v4.188c-0.01,0.021,0,0.05,0,0.074c0,3.02,4.896,5.475,10.943,5.475
	c6.047,0,10.948-2.45,10.948-5.479v-4.267l-21.89,0.005L28.504,433.442z"/>
<path fill="#BDC3C7" d="M50.398,433.442c0,2.688-4.9,4.863-10.948,4.863c-6.05,0-10.946-2.178-10.946-4.863
	c0-2.688,4.896-4.86,10.943-4.86c6.047,0,10.947,2.178,10.947,4.86H50.398z"/>
<path fill="#7F8C8D" d="M28.58,437.7c-0.057,0.192-0.07,0.395-0.07,0.603c0,2.688,4.894,4.863,10.94,4.863
	c6.047,0,10.946-2.18,10.946-4.864c0-0.207-0.02-0.408-0.076-0.604c-0.673,2.396-5.288,4.26-10.87,4.26s-10.2-1.856-10.873-4.258
	H28.58L28.58,437.7z"/>
<path fill="#95A5A6" d="M28.504,427.36v4.185c-0.01,0.021,0,0.05,0,0.076c0,3.02,4.896,5.479,10.943,5.479
	c6.047,0,10.948-2.449,10.948-5.475v-4.265L28.504,427.36l0.001,0.003L28.504,427.36z"/>
<path fill="#7F8C8D" d="M28.58,431.617c-0.057,0.193-0.07,0.396-0.07,0.604c0,2.69,4.894,4.867,10.94,4.867
	c6.047,0,10.946-2.18,10.946-4.866c0-0.207-0.02-0.409-0.076-0.604c-0.673,2.396-5.288,4.26-10.87,4.26s-10.2-1.855-10.873-4.258
	h0.002L28.58,431.617z"/>
<path fill="#BDC3C7" d="M39.452,439.524v9.729c6.046,0,10.947-2.45,10.947-5.479v-4.261l-10.95,0.002v0.009H39.452z"/>
<path fill="#ECF0F1" d="M39.452,434.66v9.729c6.046,0,10.947-2.18,10.947-4.865c-0.005-2.686-4.9-4.864-10.95-4.863L39.452,434.66z"
	/>
<path fill="#BDC3C7" d="M39.452,433.442v9.729c6.046,0,10.947-2.448,10.947-5.475v-4.266l-10.95,0.011H39.452z"/>
<path fill="#95A5A6" d="M50.32,437.7c-0.67,2.395-5.286,4.26-10.87,4.26v1.216c6.047,0,10.948-2.18,10.948-4.867
	C50.398,438.099,50.378,437.894,50.32,437.7L50.32,437.7z"/>
<path fill="#ECF0F1" d="M39.452,428.577v9.729c6.046,0,10.947-2.18,10.947-4.866c-0.005-2.687-4.9-4.864-10.95-4.863H39.452z"/>
<path fill="#BDC3C7" d="M39.452,427.36v9.729c6.046,0,10.947-2.448,10.947-5.475v-4.266H39.45v0.011H39.452z"/>
<path fill="#95A5A6" d="M50.32,431.617c-0.67,2.396-5.286,4.26-10.87,4.26v1.217c6.047,0,10.948-2.18,10.948-4.867
	C50.398,432.021,50.378,431.817,50.32,431.617L50.32,431.617z M50.32,443.783c-0.67,2.396-5.286,4.258-10.87,4.258v1.22
	c6.047,0,10.948-2.18,10.948-4.863c0-0.207-0.02-0.41-0.077-0.61L50.32,443.783z"/>
<path fill="#BDC3C7" d="M50.398,427.36c0,2.688-4.9,4.863-10.948,4.863c-6.05,0-10.946-2.18-10.946-4.863
	c0-2.688,4.896-4.86,10.943-4.86c6.047,0,10.947,2.178,10.947,4.86H50.398z"/>
<text transform="matrix(1 0 0 1 28.5 467.5)" font-family="'Helvetica'" font-size="12">IL</text>
<text transform="matrix(1 0 0 1 28.5 481.9004)" font-family="'Helvetica'" font-size="12">database</text>
<text transform="matrix(1 0 0 1 181.5 134.5)" font-family="'Helvetica'" font-size="12">Message</text>
<text transform="matrix(1 0 0 1 181.5 148.9004)" font-family="'Helvetica'" font-size="12">queue</text>
<text transform="matrix(1 0 0 1 595.5 215.5)" font-family="'Helvetica'" font-size="12">Static user</text>
<text transform="matrix(1 0 0 1 595.5 229.9004)" font-family="'Helvetica'" font-size="12">content</text>
<path fill="#8E44AD" d="M597.5,175.5c-1.104,0-2,0.896-2,2v18c0,1.104,0.896,2,2,2h14c1.104,0,2-0.896,2-2v-14l-6-6H597.5z"/>
<path fill="#9B59B6" d="M597.5,174.5c-1.104,0-2,0.896-2,2v18c0,1.104,0.896,2,2,2h14c1.104,0,2-0.896,2-2v-14l-6-6H597.5z"/>
<path fill="#8E44AD" d="M613.5,180.5l-6-6v4c0,1.104,0.896,2,2,2H613.5z"/>
<text transform="matrix(1 0 0 1 757.5 368.5)" font-family="'Helvetica'" font-size="12">Archive</text>
<text transform="matrix(1 0 0 1 757.5 382.9004)" font-family="'Helvetica'" font-size="12">website</text>
<path fill="#8E44AD" d="M759.5,328.5c-1.104,0-2,0.896-2,2v18c0,1.104,0.896,2,2,2h14c1.104,0,2-0.896,2-2v-14l-6-6H759.5z"/>
<path fill="#9B59B6" d="M759.5,327.5c-1.104,0-2,0.896-2,2v18c0,1.104,0.896,2,2,2h14c1.104,0,2-0.896,2-2v-14l-6-6H759.5z"/>
<path fill="#8E44AD" d="M775.5,333.5l-6-6v4c0,1.104,0.896,2,2,2H775.5z"/>
<text transform="matrix(1 0 0 1 676.5 215.5)" font-family="'Helvetica'" font-size="12">Members map</text>
<path fill="#8E44AD" d="M678.5,175.5c-1.105,0-2,0.896-2,2v18c0,1.104,0.895,2,2,2h14c1.104,0,2-0.896,2-2v-14l-6-6H678.5z"/>
<path fill="#9B59B6" d="M678.5,174.5c-1.105,0-2,0.896-2,2v18c0,1.104,0.895,2,2,2h14c1.104,0,2-0.896,2-2v-14l-6-6H678.5z"/>
<path fill="#8E44AD" d="M694.5,180.5l-6-6v4c0,1.104,0.895,2,2,2H694.5z"/>
<text transform="matrix(1 0 0 1 28.5 215.5)" font-family="'Helvetica'" font-size="12">Management</text>
<text transform="matrix(1 0 0 1 28.5 229.9004)" font-family="'Helvetica'" font-size="12">applications</text>
<path fill="#8E44AD" d="M30.5,171.5c-1.104,0-2,0.896-2,2v18c0,1.104,0.896,2,2,2h14c1.104,0,2-0.896,2-2v-14l-6-6H30.5z"/>
<path fill="#9B59B6" d="M30.5,170.5c-1.104,0-2,0.896-2,2v18c0,1.104,0.896,2,2,2h14c1.104,0,2-0.896,2-2v-14l-6-6H30.5z"/>
<path fill="#8E44AD" d="M46.5,176.5l-6-6v4c0,1.104,0.896,2,2,2H46.5z"/>
<text transform="matrix(1 0 0 1 352.5 584.5)" font-family="'Helvetica'" font-size="12">CPT</text>
<text transform="matrix(1 0 0 1 352.5 598.9004)" font-family="'Helvetica'" font-size="12">application</text>
<path fill="#E67E22" d="M352.5,549.166v9.334l12,8v-9.334L352.5,549.166z"/>
<path fill="#F39C12" d="M376.5,549.166v9.334l-12,8v-9.334L376.5,549.166z"/>
<path fill="#F1C40F" d="M360.5,543.833l-8,5.333l12,8l12-8l-8-5.334L360.5,543.833L360.5,543.833z"/>
<path fill="#F39C12" d="M357.835,546.5v2.666c0,2.21,2.983,4,6.665,4s6.666-1.79,6.666-4V546.5H357.835L357.835,546.5z"/>
<path fill="#E67E22" d="M357.835,546.5v2.666c0,2.21,2.983,4,6.665,4V546.5H357.835z"/>
<path fill="#F1C40F" d="M371.165,546.5c0,2.21-2.983,4-6.665,4s-6.666-1.79-6.666-4s2.98-4,6.663-4c3.682,0,6.666,1.79,6.666,4
	H371.165z"/>
<path fill="#ECF0F1" d="M676.5,329.5l-2,5h20l-2-5H676.5z"/>
<path fill="#1ABC9C" d="M681.5,334.5h6l-1-5h-4L681.5,334.5z"/>
<path fill="none" d="M674.5,333.5h20l-2,13h-17L674.5,333.5z"/>
<path fill="#BDC3C7" d="M674.5,334.5h20v16h-20V334.5z"/>
<path fill="#ECF0F1" d="M677.5,344.5c-0.553,0-1,0.447-1,1v2c0,0.553,0.447,1,1,1h6c0.553,0,1-0.447,1-1v-2c0-0.553-0.447-1-1-1
	H677.5z"/>
<path fill="#16A085" d="M681.5,334.5v7l1-1l1,1l1-1l1,1l1-1l1,1v-7H681.5z"/>
<path fill="#95A5A6" d="M677.5,345.5h1v2h-1V345.5z M679.5,345.5h1v2h-1V345.5z M681.5,345.5h1v2h-1V345.5z"/>
<path fill="#7F8C8D" d="M682.5,345.5h1v2h-1V345.5z"/>
<path fill="#BDC3C7" d="M680.5,345.5h1v2h-1V345.5z"/>
<text transform="matrix(1 0 0 1 676.5 368.5)" font-family="'Helvetica'" font-size="12">Legacy</text>
<text transform="matrix(1 0 0 1 676.5 382.9004)" font-family="'Helvetica'" font-size="12">repository</text>
<text transform="matrix(1 0 0 1 271.5 584.5)" font-family="'Helvetica'" font-size="12">SMP</text>
<text transform="matrix(1 0 0 1 271.5 598.8994)" font-family="'Helvetica'" font-size="12">application</text>
<path fill="#E67E22" d="M271.5,549.168v9.332l12,8v-9.334L271.5,549.168z"/>
<path fill="#F39C12" d="M295.5,549.168v9.332l-12,8v-9.334L295.5,549.168z"/>
<path fill="#F1C40F" d="M279.5,543.832l-8,5.34l12,7.993l12-7.992l-8-5.335h-8V543.832z"/>
<path fill="#F39C12" d="M276.833,546.5v2.673c0,2.21,2.985,4,6.667,4s6.666-1.79,6.666-4V546.5H276.833L276.833,546.5z"/>
<path fill="#E67E22" d="M276.833,546.5v2.673c0,2.21,2.985,4,6.667,4V546.5H276.833z"/>
<path fill="#F1C40F" d="M290.166,546.5c0,2.215-2.984,4-6.666,4s-6.666-1.785-6.666-4c0-2.21,2.987-4,6.67-4s6.665,1.79,6.665,4
	h-0.007H290.166z"/>
<path fill="#95A5A6" d="M271.504,655.53v4.184c-0.01,0.021,0,0.05,0,0.07c0,3.021,4.896,5.479,10.943,5.479
	c6.047,0,10.947-2.449,10.947-5.479v-4.26L271.504,655.53L271.504,655.53z"/>
<path fill="#BDC3C7" d="M293.398,655.53c0,2.687-4.902,4.861-10.95,4.861c-6.048,0-10.942-2.178-10.942-4.863
	c0-2.688,4.896-4.868,10.943-4.868c6.043,0,10.95,2.183,10.95,4.865l-0.005,0.004L293.398,655.53z"/>
<path fill="#7F8C8D" d="M271.58,659.786c-0.058,0.2-0.073,0.399-0.073,0.605c0,2.688,4.896,4.865,10.943,4.865
	c6.047,0,10.95-2.187,10.95-4.868c0-0.21-0.022-0.409-0.077-0.609c-0.674,2.396-5.29,4.265-10.873,4.265
	c-5.582,0-10.197-1.86-10.87-4.265v0.004V659.786z"/>
<path fill="#95A5A6" d="M271.504,649.446v4.188c-0.01,0.021,0,0.05,0,0.067c0,3.025,4.896,5.479,10.943,5.479
	c6.047,0,10.947-2.45,10.947-5.479v-4.252h-21.89V649.446z"/>
<path fill="#BDC3C7" d="M293.398,649.446c0,2.688-4.902,4.863-10.95,4.863c-6.048,0-10.942-2.178-10.942-4.863
	c0-2.688,4.896-4.864,10.943-4.864c6.043,0,10.95,2.177,10.945,4.864H293.398z"/>
<path fill="#7F8C8D" d="M271.58,653.702c-0.058,0.2-0.073,0.399-0.073,0.61c0,2.688,4.896,4.862,10.943,4.862
	c6.047,0,10.95-2.185,10.95-4.865c0-0.206-0.022-0.406-0.077-0.609c-0.674,2.399-5.29,4.266-10.873,4.266
	C276.868,657.962,272.252,656.104,271.58,653.702L271.58,653.702z"/>
<path fill="#95A5A6" d="M271.504,643.364v4.185c-0.01,0.021,0,0.05,0,0.07c0,3.02,4.896,5.479,10.943,5.479
	c6.047,0,10.947-2.449,10.947-5.479v-4.26h-21.89V643.364z"/>
<path fill="#7F8C8D" d="M271.58,647.62c-0.058,0.2-0.073,0.399-0.073,0.607c0,2.688,4.896,4.865,10.943,4.865
	c6.047,0,10.95-2.185,10.95-4.865c0-0.206-0.022-0.409-0.077-0.609c-0.674,2.399-5.29,4.266-10.873,4.266
	C276.868,651.88,272.252,650.021,271.58,647.62L271.58,647.62z"/>
<path fill="#BDC3C7" d="M282.45,655.53v9.728c6.047,0,10.95-2.45,10.95-5.479v-4.258L282.45,655.53L282.45,655.53z"/>
<path fill="#ECF0F1" d="M282.45,650.663v9.729c6.047,0,10.95-2.18,10.95-4.864c0-2.688-4.903-4.868-10.95-4.868V650.663z"/>
<path fill="#BDC3C7" d="M282.45,649.446v9.729c6.047,0,10.95-2.452,10.95-5.478v-4.261l-10.95,0.005V649.446z"/>
<path fill="#95A5A6" d="M293.323,653.702c-0.674,2.399-5.29,4.265-10.873,4.265v1.221c6.047,0,10.95-2.183,10.95-4.867
	c0-0.207-0.02-0.41-0.077-0.607V653.702L293.323,653.702z"/>
<path fill="#ECF0F1" d="M282.45,644.582v9.729c6.047,0,10.95-2.18,10.95-4.867C293.4,646.759,288.497,644.582,282.45,644.582z"/>
<path fill="#BDC3C7" d="M282.45,643.364v9.729c6.047,0,10.95-2.447,10.95-5.478v-4.257h-10.95V643.364z"/>
<path fill="#95A5A6" d="M293.323,647.62c-0.674,2.399-5.29,4.264-10.873,4.264v1.22c6.047,0,10.95-2.18,10.95-4.866
	C293.4,648.027,293.38,647.823,293.323,647.62L293.323,647.62z M293.323,659.786c-0.674,2.396-5.29,4.265-10.873,4.265v1.221
	c6.047,0,10.95-2.183,10.95-4.864c0-0.215-0.02-0.416-0.077-0.617V659.786z"/>
<path fill="#BDC3C7" d="M293.398,643.364c0,2.688-4.902,4.864-10.95,4.864c-6.048,0-10.942-2.179-10.942-4.864
	c0-2.688,4.896-4.864,10.943-4.864c6.043,0,10.95,2.178,10.945,4.864H293.398z"/>
<text transform="matrix(1 0 0 1 271.5 683.5)" font-family="'Helvetica'" font-size="12">SMP</text>
<text transform="matrix(1 0 0 1 271.5 697.8994)" font-family="'Helvetica'" font-size="12">database</text>
<path fill="#95A5A6" d="M352.504,655.528v4.185c-0.01,0.021,0,0.05,0,0.07c0,3.021,4.896,5.479,10.943,5.479
	c6.047,0,10.948-2.45,10.948-5.479v-4.26L352.504,655.528L352.504,655.528z"/>
<path fill="#BDC3C7" d="M374.4,655.528c0,2.688-4.903,4.863-10.95,4.863c-6.05,0-10.943-2.178-10.943-4.863
	c0-2.688,4.896-4.865,10.943-4.865C369.497,650.663,374.4,652.843,374.4,655.528z"/>
<path fill="#7F8C8D" d="M352.58,659.786c-0.057,0.2-0.072,0.399-0.072,0.605c0,2.688,4.896,4.865,10.943,4.865
	c6.05,0,10.95-2.185,10.95-4.865c0-0.206-0.02-0.406-0.07-0.605c-0.674,2.396-5.29,4.265-10.873,4.265
	c-5.58,0-10.197-1.854-10.87-4.26h-0.004L352.58,659.786z"/>
<path fill="#95A5A6" d="M352.504,649.446v4.185c-0.01,0.025,0,0.055,0,0.07c0,3.02,4.896,5.479,10.943,5.479
	c6.047,0,10.948-2.45,10.948-5.479v-4.255l-21.89,0.002v0.002L352.504,649.446z"/>
<path fill="#BDC3C7" d="M374.4,649.446c0,2.688-4.903,4.863-10.95,4.863c-6.05,0-10.943-2.178-10.943-4.863
	c0-2.688,4.896-4.865,10.943-4.865c6.047,0,10.95,2.18,10.95,4.87V649.446z"/>
<path fill="#7F8C8D" d="M352.58,653.7c-0.057,0.203-0.072,0.403-0.072,0.609c0,2.688,4.896,4.865,10.943,4.865
	c6.05,0,10.95-2.185,10.95-4.865c0-0.206-0.02-0.406-0.07-0.609c-0.674,2.399-5.29,4.266-10.873,4.266
	c-5.58,0-10.197-1.854-10.87-4.265h-0.004L352.58,653.7z"/>
<path fill="#95A5A6" d="M352.504,643.364v4.185c-0.01,0.021,0,0.05,0,0.07c0,3.02,4.896,5.479,10.943,5.479
	c6.047,0,10.948-2.449,10.948-5.479v-4.26h-21.89L352.504,643.364z"/>
<path fill="#7F8C8D" d="M352.58,647.62c-0.057,0.2-0.072,0.399-0.072,0.607c0,2.688,4.896,4.865,10.943,4.865
	c6.05,0,10.95-2.185,10.95-4.865c0-0.206-0.02-0.409-0.07-0.609c-0.674,2.399-5.29,4.266-10.873,4.266
	c-5.58,0-10.197-1.854-10.87-4.265h-0.004L352.58,647.62z"/>
<path fill="#BDC3C7" d="M363.45,655.528v9.729c6.048,0,10.95-2.45,10.95-5.479v-4.259L363.45,655.528z"/>
<path fill="#ECF0F1" d="M363.45,650.663v9.729c6.048,0,10.95-2.18,10.95-4.864C374.4,652.842,369.498,650.663,363.45,650.663z"/>
<path fill="#BDC3C7" d="M363.45,649.446v9.729c6.048,0,10.95-2.448,10.95-5.478v-4.261L363.45,649.446L363.45,649.446z"/>
<path fill="#95A5A6" d="M374.323,653.7c-0.673,2.399-5.288,4.266-10.872,4.266v1.22c6.05,0,10.95-2.184,10.95-4.866
	c0-0.208-0.02-0.41-0.07-0.61l-0.004-0.01L374.323,653.7z"/>
<path fill="#ECF0F1" d="M363.45,644.58v9.729c6.048,0,10.95-2.178,10.95-4.865C374.4,646.759,369.498,644.581,363.45,644.58
	L363.45,644.58z"/>
<path fill="#BDC3C7" d="M363.45,643.364v9.729c6.048,0,10.95-2.447,10.95-5.478v-4.261L363.45,643.364L363.45,643.364z"/>
<path fill="#95A5A6" d="M374.323,647.62c-0.673,2.399-5.288,4.266-10.872,4.266v1.218c6.05,0,10.95-2.186,10.95-4.866
	c0-0.208-0.02-0.41-0.07-0.61l-0.004-0.006L374.323,647.62z M374.323,659.786c-0.673,2.396-5.288,4.265-10.872,4.265v1.221
	c6.05,0,10.95-2.186,10.95-4.863c0-0.208-0.02-0.41-0.07-0.607h-0.003v-0.01L374.323,659.786z"/>
<path fill="#BDC3C7" d="M374.4,643.364c0,2.688-4.903,4.864-10.95,4.864c-6.05,0-10.943-2.179-10.943-4.864
	c0-2.688,4.896-4.864,10.943-4.864C369.497,638.5,374.4,640.676,374.4,643.364z"/>
<text transform="matrix(1 0 0 1 352.5 683.5)" font-family="'Helvetica'" font-size="12">CPT</text>
<text transform="matrix(1 0 0 1 352.5 697.8994)" font-family="'Helvetica'" font-size="12">database</text>
<text transform="matrix(1 0 0 1 109.5 368.5)" font-family="'Helvetica'" font-size="12">Aggregator</text>
<text transform="matrix(1 0 0 1 109.5 382.9004)" font-family="'Helvetica'" font-size="12">application</text>
<path fill="#95A5A6" d="M109.504,439.763v4.181c-0.01,0.023,0,0.056,0,0.076c0,3.021,4.896,5.48,10.943,5.48
	c6.047,0,10.948-2.45,10.948-5.48v-4.26L109.504,439.763L109.504,439.763z"/>
<path fill="#BDC3C7" d="M131.4,439.763c0,2.688-4.9,4.865-10.95,4.865c-6.047,0-10.942-2.178-10.942-4.865
	c0-2.687,4.896-4.863,10.943-4.863c6.05-0.006,10.95,2.173,10.95,4.859L131.4,439.763z"/>
<path fill="#7F8C8D" d="M109.578,444.02c-0.056,0.2-0.07,0.4-0.07,0.608c0,2.688,4.895,4.864,10.942,4.864
	c6.047,0,10.945-2.185,10.945-4.864c0-0.207-0.02-0.408-0.076-0.605c-0.677,2.399-5.29,4.267-10.87,4.267
	c-5.586,0-10.2-1.86-10.878-4.271h0.003L109.578,444.02z"/>
<path fill="#95A5A6" d="M109.504,433.68v4.184c-0.01,0.021,0,0.055,0,0.072c0,3.023,4.896,5.48,10.943,5.48
	c6.047,0,10.948-2.45,10.948-5.48v-4.26L109.504,433.68L109.504,433.68z"/>
<path fill="#BDC3C7" d="M131.4,433.68c0,2.69-4.9,4.866-10.95,4.866c-6.047,0-10.942-2.178-10.942-4.865
	c0-2.682,4.896-4.859,10.943-4.859c6.05,0,10.95,2.188,10.95,4.867v-0.005L131.4,433.68z"/>
<path fill="#7F8C8D" d="M109.578,437.938c-0.056,0.2-0.07,0.4-0.07,0.61c0,2.688,4.895,4.863,10.942,4.863
	c6.047,0,10.945-2.18,10.945-4.86c0-0.205-0.02-0.41-0.076-0.609c-0.677,2.399-5.29,4.268-10.87,4.268
	c-5.586,0-10.2-1.857-10.877-4.265h0.002L109.578,437.938z"/>
<path fill="#95A5A6" d="M109.504,427.6v4.181c-0.01,0.022,0,0.056,0,0.077c0,3.02,4.896,5.479,10.943,5.479
	c6.047,0,10.948-2.45,10.948-5.479v-4.261L109.504,427.6L109.504,427.6z"/>
<path fill="#7F8C8D" d="M109.578,431.854c-0.056,0.2-0.07,0.402-0.07,0.61c0,2.688,4.895,4.864,10.942,4.864
	c6.047,0,10.945-2.188,10.945-4.868c0-0.207-0.02-0.41-0.076-0.61c-0.677,2.4-5.29,4.261-10.87,4.261
	c-5.586,0-10.2-1.854-10.878-4.261v0.004h0.003H109.578z"/>
<path fill="#BDC3C7" d="M120.45,439.763v9.73c6.047,0,10.948-2.45,10.948-5.48v-4.253L120.45,439.763L120.45,439.763z"/>
<path fill="#ECF0F1" d="M120.45,434.896v9.731c6.047,0,10.948-2.18,10.948-4.867c0-2.68-4.9-4.859-10.947-4.859L120.45,434.896z"/>
<path fill="#BDC3C7" d="M120.45,433.68v9.733c6.047,0,10.948-2.45,10.948-5.48v-4.26L120.45,433.68L120.45,433.68z"/>
<path fill="#95A5A6" d="M131.323,437.938c-0.673,2.4-5.288,4.261-10.872,4.261v1.223c6.05,0,10.95-2.18,10.95-4.863
	c0-0.213-0.02-0.416-0.074-0.615L131.323,437.938z"/>
<path fill="#ECF0F1" d="M120.45,428.814v9.729c6.047,0,10.948-2.178,10.948-4.867c0-2.688-4.9-4.864-10.948-4.864V428.814
	L120.45,428.814z"/>
<path fill="#BDC3C7" d="M120.45,427.6v9.73c6.047,0,10.948-2.45,10.948-5.48v-4.257H120.45V427.6z"/>
<path fill="#95A5A6" d="M131.323,431.854c-0.673,2.4-5.288,4.267-10.872,4.267v1.218c6.05,0,10.95-2.185,10.95-4.867
	c0-0.21-0.02-0.41-0.074-0.612L131.323,431.854z M131.323,444.02c-0.673,2.4-5.288,4.261-10.872,4.261v1.222
	c6.05,0,10.95-2.185,10.95-4.864c0-0.213-0.02-0.416-0.074-0.618H131.323z"/>
<path fill="#BDC3C7" d="M131.4,427.6c0,2.688-4.9,4.864-10.95,4.864c-6.047,0-10.942-2.178-10.942-4.865
	c0-2.689,4.896-4.869,10.943-4.869c6.05,0,10.95,2.184,10.95,4.862v0.004L131.4,427.6z"/>
<text transform="matrix(1 0 0 1 109.5 467.5)" font-family="'Helvetica'" font-size="12">Aggregator</text>
<text transform="matrix(1 0 0 1 109.5 481.9004)" font-family="'Helvetica'" font-size="12">database</text>
<text transform="matrix(1 0 0 1 433.5 368.5)" font-family="'Helvetica'" font-size="12">Portal</text>
<text transform="matrix(1 0 0 1 433.5 382.8994)" font-family="'Helvetica'" font-size="12">website</text>
<path fill="#95A5A6" d="M433.504,439.53v4.18c-0.01,0.021,0,0.05,0,0.075c0,3.02,4.896,5.474,10.943,5.474s10.946-2.45,10.946-5.478
	v-4.264H433.5l0.004,0.008V439.53z"/>
<path fill="#BDC3C7" d="M455.397,439.53c0,2.687-4.9,4.857-10.947,4.857s-10.943-2.18-10.943-4.857
	c0-2.688,4.896-4.865,10.943-4.865s10.948,2.18,10.948,4.868L455.397,439.53L455.397,439.53z"/>
<path fill="#7F8C8D" d="M433.577,443.786c-0.055,0.2-0.07,0.396-0.07,0.604c0,2.69,4.896,4.866,10.943,4.866
	s10.948-2.178,10.948-4.864c0-0.206-0.021-0.399-0.073-0.604c-0.673,2.396-5.288,4.258-10.872,4.258
	c-5.582,0-10.198-1.854-10.872-4.257v-0.007L433.577,443.786z"/>
<path fill="#95A5A6" d="M433.504,433.447v4.18c-0.01,0.02,0,0.053,0,0.076c0,3.02,4.896,5.476,10.943,5.476
	s10.946-2.45,10.946-5.479v-4.266l-21.89,0.011V433.447z"/>
<path fill="#BDC3C7" d="M455.397,433.447c0,2.688-4.9,4.859-10.947,4.859s-10.943-2.18-10.943-4.859
	c0-2.69,4.896-4.866,10.943-4.866s10.948,2.178,10.948,4.86v0.01L455.397,433.447z"/>
<path fill="#7F8C8D" d="M433.577,437.703c-0.055,0.2-0.07,0.396-0.07,0.604c0,2.688,4.896,4.865,10.943,4.865
	s10.948-2.178,10.948-4.865c0-0.206-0.021-0.399-0.073-0.604c-0.673,2.396-5.288,4.26-10.872,4.26
	c-5.582,0-10.198-1.856-10.872-4.26H433.577z"/>
<path fill="#95A5A6" d="M433.504,427.365v4.182c-0.01,0.024,0,0.05,0,0.076c0,3.02,4.896,5.474,10.943,5.474
	s10.946-2.45,10.946-5.475v-4.26H433.5L433.504,427.365L433.504,427.365z"/>
<path fill="#7F8C8D" d="M433.577,431.62c-0.055,0.2-0.07,0.396-0.07,0.604c0,2.688,4.896,4.865,10.943,4.865
	s10.948-2.176,10.948-4.863c0-0.205-0.021-0.409-0.073-0.604c-0.673,2.396-5.288,4.26-10.872,4.26
	c-5.582,0-10.198-1.859-10.872-4.26v-0.002L433.577,431.62z"/>
<path fill="#BDC3C7" d="M444.45,439.53v9.728c6.047,0,10.948-2.45,10.948-5.475v-4.26l-10.945,0.007H444.45L444.45,439.53z"/>
<path fill="#ECF0F1" d="M444.45,434.663v9.729c6.047,0,10.948-2.18,10.948-4.859c0-2.688-4.9-4.865-10.945-4.865L444.45,434.663
	L444.45,434.663z"/>
<path fill="#BDC3C7" d="M444.45,433.447v9.729c6.047,0,10.948-2.45,10.948-5.475v-4.257l-10.945,0.002H444.45L444.45,433.447z"/>
<path fill="#95A5A6" d="M455.322,437.703c-0.673,2.396-5.288,4.26-10.872,4.26v1.216c6.047,0,10.948-2.18,10.948-4.87
	c0-0.204-0.021-0.403-0.073-0.604l-0.003-0.007V437.703z"/>
<path fill="#ECF0F1" d="M444.45,428.58v9.729c6.047,0,10.948-2.18,10.948-4.859c0-2.69-4.9-4.865-10.945-4.865L444.45,428.58
	L444.45,428.58z"/>
<path fill="#BDC3C7" d="M444.45,427.365v9.729c6.047,0,10.948-2.45,10.948-5.475v-4.265h-10.945L444.45,427.365z"/>
<path fill="#95A5A6" d="M455.322,431.62c-0.673,2.396-5.288,4.26-10.872,4.26v1.217c6.047,0,10.948-2.18,10.948-4.865
	c0-0.2-0.021-0.4-0.073-0.601l-0.003-0.006V431.62z M455.322,443.786c-0.673,2.396-5.288,4.258-10.872,4.258v1.22
	c6.047,0,10.948-2.18,10.948-4.863c0-0.207-0.021-0.405-0.073-0.605L455.322,443.786L455.322,443.786z"/>
<path fill="#BDC3C7" d="M455.397,427.365c0,2.688-4.9,4.859-10.947,4.859s-10.943-2.18-10.943-4.859
	c0-2.688,4.896-4.865,10.943-4.865S455.398,424.677,455.397,427.365z"/>
<text transform="matrix(1 0 0 1 433.5 467.5)" font-family="'Helvetica'" font-size="12">Portal</text>
<text transform="matrix(1 0 0 1 433.5 481.8984)" font-family="'Helvetica'" font-size="12">database</text>
<text transform="matrix(1 0 0 1 181.5 215.5)" font-family="'Helvetica'" font-size="12">Auth</text>
<text transform="matrix(1 0 0 1 181.5 229.8994)" font-family="'Helvetica'" font-size="12">application</text>
<path fill="#354A5D" d="M181.5,180.166v9.334l12,8v-9.334L181.5,180.166z"/>
<path fill="#3382B6" d="M205.5,180.166v9.334l-12,8v-9.334L205.5,180.166z"/>
<path fill="#3F9BD7" d="M189.5,174.833l-8,5.333l12,8l12-8l-8-5.333H189.5L189.5,174.833z"/>
<path fill="#3382B6" d="M186.833,177.5v2.666c0,2.21,2.984,4,6.666,4s6.66-1.79,6.66-4V177.5h-13.33H186.833z"/>
<path fill="#354A5D" d="M186.833,177.5v2.666c0,2.21,2.984,4,6.666,4V177.5h-6.67H186.833z"/>
<path fill="#3F9BD7" d="M200.165,177.5c0,2.21-2.984,4-6.666,4s-6.67-1.79-6.67-4s2.98-4,6.663-4c3.683,0,6.665,1.79,6.665,4h0.004
	H200.165z"/>
<path fill="#354A5D" d="M190.5,333.166v9.334l12,8v-9.334L190.5,333.166L190.5,333.166z"/>
<path fill="#3382B6" d="M214.5,333.166v9.334l-12,8v-9.334L214.5,333.166L214.5,333.166z"/>
<path fill="#3F9BD7" d="M198.5,327.834l-8,5.332l12,8l12-8l-8-5.332H198.5z"/>
<path fill="#3382B6" d="M195.833,330.5v2.666c0,2.21,2.985,4,6.667,4s6.666-1.79,6.666-4V330.5H195.833L195.833,330.5z"/>
<path fill="#354A5D" d="M195.833,330.5v2.666c0,2.21,2.985,4,6.667,4V330.5H195.833L195.833,330.5z"/>
<path fill="#3F9BD7" d="M209.166,330.5c0,2.21-2.984,4-6.666,4s-6.666-1.79-6.666-4s2.987-4,6.67-4s6.665,1.79,6.665,4h-0.007
	H209.166z"/>
<path fill="#354A5D" d="M433.5,180.166v9.334l12,8v-9.334L433.5,180.166z"/>
<path fill="#3382B6" d="M457.5,180.166v9.334l-12,8v-9.334L457.5,180.166z"/>
<path fill="#3F9BD7" d="M441.5,174.833l-8,5.333l12,8l12-8l-8-5.333H441.5L441.5,174.833z"/>
<path fill="#3382B6" d="M438.834,177.5v2.666c0,2.21,2.984,4,6.666,4c3.688,0,6.666-1.79,6.666-4V177.5H438.834L438.834,177.5z"/>
<path fill="#354A5D" d="M438.834,177.5v2.666c0,2.21,2.984,4,6.666,4V177.5H438.834z"/>
<path fill="#3F9BD7" d="M452.166,177.5c0,2.21-2.98,4-6.666,4c-3.682,0-6.666-1.79-6.666-4s2.984-4,6.666-4
	C449.183,173.5,452.166,175.29,452.166,177.5z"/>
<path fill="#354A5D" d="M514.5,180.166v9.334l12,8v-9.334L514.5,180.166z"/>
<path fill="#3382B6" d="M538.5,180.166v9.334l-12,8v-9.334L538.5,180.166z"/>
<path fill="#3F9BD7" d="M522.5,174.834l-8,5.332l12,8l12-8l-8-5.333L522.5,174.834L522.5,174.834z"/>
<path fill="#3382B6" d="M519.835,177.5v2.665c0,2.21,2.982,4,6.665,4c3.682,0,6.666-1.79,6.666-4v-2.663h-13.33L519.835,177.5
	L519.835,177.5z"/>
<path fill="#354A5D" d="M519.835,177.5v2.665c0,2.21,2.982,4,6.665,4v-6.663h-6.666L519.835,177.5L519.835,177.5z"/>
<path fill="#3F9BD7" d="M533.165,177.5c0,2.21-2.983,4-6.665,4c-3.683,0-6.666-1.79-6.666-4s2.98-4,6.663-4
	C530.179,173.5,533.163,175.29,533.165,177.5L533.165,177.5z"/>
<path fill="#354A5D" d="M109.5,333.167v9.333l12,8v-9.33L109.5,333.167L109.5,333.167z"/>
<path fill="#3382B6" d="M133.5,333.167v9.333l-12,8v-9.33L133.5,333.167L133.5,333.167z"/>
<path fill="#3F9BD7" d="M117.5,327.834l-8,5.333l12,8l12-8l-8-5.333H117.5z"/>
<path fill="#3382B6" d="M114.833,330.5v2.667c0,2.21,2.984,4,6.666,4s6.66-1.79,6.66-4V330.5h-13.33H114.833z"/>
<path fill="#354A5D" d="M114.833,330.5v2.667c0,2.21,2.984,4,6.666,4V330.5h-6.67H114.833z"/>
<path fill="#3F9BD7" d="M128.165,330.5c0,2.21-2.984,4-6.666,4s-6.67-1.79-6.67-4s2.98-4,6.663-4c3.683,0,6.665,1.79,6.665,4h0.004
	H128.165z"/>
<path fill="#354A5D" d="M352.5,333.165v9.335l12,8v-9.334L352.5,333.165L352.5,333.165z"/>
<path fill="#3382B6" d="M376.5,333.165v9.335l-12,8v-9.334L376.5,333.165L376.5,333.165z"/>
<path fill="#3F9BD7" d="M360.5,327.832l-8,5.334l12,8l12-8l-8-5.33h-8V327.832L360.5,327.832z"/>
<path fill="#3382B6" d="M357.835,330.5v2.666c0,2.21,2.984,4,6.666,4c3.69,0,6.67-1.79,6.67-4v-2.663h-13.33V330.5H357.835z"/>
<path fill="#354A5D" d="M357.835,330.5v2.666c0,2.21,2.984,4,6.666,4v-6.663h-6.66l-0.002-0.003H357.835z"/>
<path fill="#3F9BD7" d="M371.167,330.5c0,2.21-2.98,4-6.666,4c-3.68,0-6.66-1.79-6.66-4s2.985-4,6.667-4c3.688,0,6.667,1.79,6.667,4
	h-0.003H371.167z"/>
<path fill="#354A5D" d="M271.5,180.166v9.334l12,8v-9.33l-12-8V180.166z"/>
<path fill="#3382B6" d="M295.5,180.166v9.334l-12,8v-9.33l12-8V180.166z"/>
<path fill="#3F9BD7" d="M279.5,174.833l-8,5.333l12,8l12-8l-8-5.333H279.5L279.5,174.833z"/>
<path fill="#3382B6" d="M276.834,177.5v2.666c0,2.21,2.984,4,6.666,4s6.666-1.79,6.666-4V177.5H276.834L276.834,177.5z"/>
<path fill="#354A5D" d="M276.834,177.5v2.666c0,2.21,2.984,4,6.666,4V177.5H276.834z"/>
<path fill="#3F9BD7" d="M290.166,177.5c0,2.21-2.984,4-6.666,4s-6.666-1.79-6.666-4s2.984-4,6.666-4S290.166,175.29,290.166,177.5z"
	/>
<path fill="#354A5D" d="M433.5,333.166v9.334l12,8v-9.332L433.5,333.166z"/>
<path fill="#3382B6" d="M457.5,333.166v9.334l-12,8v-9.332L457.5,333.166z"/>
<path fill="#3F9BD7" d="M441.5,327.834l-8,5.332l12,8l12-8l-8-5.332H441.5z"/>
<path fill="#3382B6" d="M438.835,330.5v2.666c0,2.21,2.983,4,6.665,4s6.666-1.79,6.666-4V330.5H438.835L438.835,330.5z"/>
<path fill="#354A5D" d="M438.835,330.5v2.666c0,2.21,2.983,4,6.665,4V330.5H438.835z"/>
<path fill="#3F9BD7" d="M452.165,330.5c0,2.21-2.983,4-6.665,4s-6.666-1.79-6.666-4s2.98-4,6.663-4S452.163,328.29,452.165,330.5z"
	/>
<path fill="#354A5D" d="M28.5,333.166v9.334l12,8v-9.334L28.5,333.166L28.5,333.166z"/>
<path fill="#3382B6" d="M52.5,333.166v9.334l-12,8v-9.334L52.5,333.166L52.5,333.166z"/>
<path fill="#3F9BD7" d="M36.5,327.834l-8,5.332l12,8l12-8l-8-5.332H36.5z"/>
<path fill="#3382B6" d="M33.834,330.5v2.666c0,2.21,2.984,4,6.666,4s6.666-1.79,6.666-4V330.5H33.834z"/>
<path fill="#354A5D" d="M33.834,330.5v2.666c0,2.21,2.984,4,6.666,4V330.5H33.834z"/>
<path fill="#3F9BD7" d="M47.166,330.5c0,2.21-2.984,4-6.666,4s-6.666-1.79-6.666-4s2.984-4,6.666-4S47.166,328.29,47.166,330.5z"/>
<path fill="#354A5D" d="M271.5,333.166v9.334l12,8v-9.334L271.5,333.166L271.5,333.166z"/>
<path fill="#3382B6" d="M295.5,333.166v9.334l-12,8v-9.334L295.5,333.166L295.5,333.166z"/>
<path fill="#3F9BD7" d="M279.5,327.832l-8,5.334l12,8l12-8l-8-5.333L279.5,327.832L279.5,327.832z"/>
<path fill="#3382B6" d="M276.834,330.5v2.666c0,2.21,2.984,4,6.666,4s6.666-1.79,6.666-4V330.5H276.834L276.834,330.5z"/>
<path fill="#354A5D" d="M276.834,330.5v2.666c0,2.21,2.984,4,6.666,4V330.5H276.834z"/>
<path fill="#3F9BD7" d="M290.166,330.5c0,2.21-2.984,4-6.666,4s-6.666-1.79-6.666-4s2.984-4,6.666-4S290.166,328.29,290.166,330.5z"
	/>
<path fill="#354A5D" d="M190.5,549.166v9.334l12,8v-9.334L190.5,549.166z"/>
<path fill="#3382B6" d="M214.5,549.166v9.334l-12,8v-9.334L214.5,549.166z"/>
<path fill="#3F9BD7" d="M198.5,543.833l-8,5.333l12,8l12-8l-8-5.333H198.5z"/>
<path fill="#3382B6" d="M195.834,546.5v2.666c0,2.21,2.984,4,6.666,4c3.688,0,6.666-1.79,6.666-4V546.5H195.834z"/>
<path fill="#354A5D" d="M195.834,546.5v2.666c0,2.21,2.984,4,6.666,4V546.5H195.834z"/>
<path fill="#3F9BD7" d="M209.166,546.5c0,2.21-2.98,4-6.666,4c-3.682,0-6.666-1.79-6.666-4s2.984-4,6.666-4
	C206.183,542.5,209.166,544.29,209.166,546.5z"/>
<path fill="#95A5A6" d="M123.605,43.77v4.18c-0.01,0.023,0,0.052,0,0.075c0,3.02,4.896,5.475,10.943,5.475
	c6.047,0,10.945-2.45,10.945-5.478v-4.258l-21.89,0.002v0.002L123.605,43.77z"/>
<path fill="#BDC3C7" d="M145.5,43.77c0,2.688-4.9,4.863-10.948,4.863c-6.047,0-10.943-2.18-10.943-4.865
	c0-2.688,4.892-4.868,10.94-4.868c6.048,0,10.95,2.18,10.95,4.866L145.5,43.77L145.5,43.77z"/>
<path fill="#7F8C8D" d="M123.68,48.025c-0.057,0.2-0.07,0.4-0.07,0.606c0,2.69,4.894,4.87,10.94,4.87c6.048,0,10.95-2.18,10.95-4.87
	c0-0.207-0.02-0.407-0.077-0.605c-0.673,2.396-5.288,4.258-10.872,4.258c-5.58,0-10.194-1.857-10.87-4.257v0.002L123.68,48.025z"/>
<path fill="#95A5A6" d="M123.605,37.686v4.184c-0.01,0.02,0,0.05,0,0.07c0,3.023,4.896,5.478,10.943,5.478
	c6.047,0,10.945-2.45,10.945-5.478v-4.256l-21.89,0.002H123.605z"/>
<path fill="#BDC3C7" d="M145.5,37.686c0,2.688-4.9,4.865-10.948,4.865c-6.047,0-10.943-2.174-10.943-4.86s4.892-4.865,10.94-4.865
	c6.048,0,10.95,2.18,10.95,4.868v-0.003L145.5,37.686z"/>
<path fill="#7F8C8D" d="M123.68,41.94c-0.057,0.2-0.07,0.402-0.07,0.61c0,2.688,4.894,4.864,10.94,4.864
	c6.048,0,10.95-2.18,10.95-4.865c0-0.21-0.02-0.41-0.077-0.61c-0.673,2.4-5.288,4.26-10.872,4.26
	C128.971,46.199,124.357,44.339,123.68,41.94L123.68,41.94z"/>
<path fill="#95A5A6" d="M123.605,31.604v4.182c-0.01,0.023,0,0.052,0,0.075c0,3.028,4.896,5.48,10.943,5.48
	c6.047,0,10.945-2.45,10.945-5.474v-4.258h-21.89h0.002V31.604z"/>
<path fill="#7F8C8D" d="M123.68,35.86c-0.057,0.2-0.07,0.4-0.07,0.607c0,2.688,4.894,4.865,10.94,4.865
	c6.048,0,10.95-2.18,10.95-4.865c0-0.207-0.02-0.41-0.077-0.608c-0.673,2.394-5.288,4.26-10.872,4.26
	C128.971,40.119,124.357,38.259,123.68,35.86L123.68,35.86z"/>
<path fill="#BDC3C7" d="M134.552,43.77v9.73c6.047,0,10.948-2.45,10.948-5.477v-4.26l-10.945,0.003L134.552,43.77L134.552,43.77z"/>
<path fill="#ECF0F1" d="M134.552,38.902v9.73c6.047,0,10.948-2.18,10.948-4.866c0-2.687-4.9-4.866-10.945-4.866L134.552,38.902
	L134.552,38.902z"/>
<path fill="#BDC3C7" d="M134.552,37.686v9.732c6.047,0,10.948-2.454,10.948-5.48v-4.256l-10.945,0.002L134.552,37.686
	L134.552,37.686z"/>
<path fill="#95A5A6" d="M145.424,41.94c-0.673,2.4-5.288,4.262-10.872,4.262v1.217c6.047,0,10.948-2.185,10.948-4.87
	c0-0.207-0.02-0.41-0.073-0.61L145.424,41.94L145.424,41.94z"/>
<path fill="#ECF0F1" d="M134.552,32.818v9.73c6.047,0,10.948-2.18,10.948-4.866s-4.9-4.862-10.945-4.862L134.552,32.818
	L134.552,32.818z"/>
<path fill="#BDC3C7" d="M134.552,31.604v9.732c6.047,0,10.948-2.45,10.948-5.477V31.6h-10.948V31.604z"/>
<path fill="#95A5A6" d="M145.424,35.86c-0.673,2.397-5.288,4.26-10.872,4.26v1.217c6.047,0,10.948-2.18,10.948-4.866
	c0-0.2-0.02-0.4-0.073-0.61L145.424,35.86L145.424,35.86z M145.424,48.025c-0.673,2.397-5.288,4.26-10.872,4.26V53.5
	c6.047,0,10.948-2.176,10.948-4.86c0-0.21-0.02-0.408-0.073-0.61L145.424,48.025z"/>
<path fill="#BDC3C7" d="M145.5,31.604c0,2.688-4.9,4.865-10.948,4.865c-6.047,0-10.943-2.18-10.943-4.87s4.892-4.863,10.94-4.863
	c6.048,0,10.95,2.174,10.95,4.86v0.003L145.5,31.604z"/>
<path fill="#8E44AD" d="M36.5,175.232c-1.104,0-2,0.895-2,2v18c0,1.104,0.896,2,2,2h14c1.104,0,2-0.896,2-2v-14l-6-6H36.5z"/>
<path fill="#9B59B6" d="M36.5,174.232c-1.104,0-2,0.895-2,2v18c0,1.104,0.896,2,2,2h14c1.104,0,2-0.896,2-2v-14l-6-6H36.5z"/>
<path fill="#8E44AD" d="M52.5,180.232l-6-6v4c0,1.104,0.896,2,2,2H52.5z"/>
<path fill="none" stroke="#BDC3C7" stroke-miterlimit="10" d="M10.5,8.5h801v279h-801V8.5z M10.5,296.5h801v216h-801V296.5z
	 M10.5,521.5h801v189h-801V521.5z"/>
<text transform="matrix(1 0 0 1 28.5 26.5)" fill="#96A5A6" font-family="'Helvetica'" font-size="12">Server Beuk</text>
<text transform="matrix(1 0 0 1 28.5 314.5)" fill="#96A5A6" font-family="'Helvetica'" font-size="12">Server Main</text>
<text transform="matrix(1 0 0 1 28.5 539.5)" fill="#96A5A6" font-family="'Helvetica'" font-size="12">Server Vidal</text>
<text transform="matrix(1 0 0 1 595.5 368.5)" font-family="'Helvetica'" font-size="12">Rooms</text>
<text transform="matrix(1 0 0 1 595.5 382.8994)" font-family="'Helvetica'" font-size="12">application</text>
<path fill="#E67E22" d="M595.5,333.168v9.332l12,8v-9.334L595.5,333.168L595.5,333.168z"/>
<path fill="#F39C12" d="M619.5,333.168v9.332l-12,8v-9.334L619.5,333.168L619.5,333.168z"/>
<path fill="#F1C40F" d="M603.5,327.832l-8,5.34l12,7.993l12-7.992l-8-5.335h-8V327.832z"/>
<path fill="#F39C12" d="M600.833,330.5v2.673c0,2.21,2.984,4,6.667,4s6.666-1.79,6.666-4V330.5H600.833z"/>
<path fill="#E67E22" d="M600.833,330.5v2.673c0,2.21,2.984,4,6.667,4V330.5H600.833z"/>
<path fill="#F1C40F" d="M614.166,330.5c0,2.215-2.983,4-6.666,4s-6.666-1.785-6.666-4c0-2.21,2.987-4,6.67-4s6.665,1.79,6.665,4
	h-0.007H614.166z"/>
<path fill="#95A5A6" d="M595.504,439.763v4.187c-0.01,0.02,0,0.05,0,0.069c0,3.021,4.896,5.48,10.943,5.48s10.944-2.45,10.944-5.48
	v-4.26h-21.888V439.763z"/>
<path fill="#BDC3C7" d="M617.396,439.763c0,2.688-4.9,4.864-10.948,4.864c-6.05,0-10.94-2.178-10.94-4.865
	c0-2.687,4.896-4.868,10.94-4.868s10.95,2.185,10.95,4.865h-0.002V439.763z"/>
<path fill="#7F8C8D" d="M595.578,444.02c-0.061,0.2-0.07,0.4-0.07,0.607c0,2.688,4.896,4.865,10.94,4.865s10.95-2.188,10.95-4.868
	c0-0.207-0.021-0.408-0.076-0.607c-0.675,2.398-5.29,4.267-10.873,4.267c-5.586,0-10.2-1.86-10.87-4.267l-0.005,0.003H595.578z"/>
<path fill="#95A5A6" d="M595.504,433.68v4.188c-0.01,0.02,0,0.05,0,0.066c0,3.022,4.896,5.48,10.943,5.48s10.944-2.453,10.944-5.48
	v-4.257L595.504,433.68z"/>
<path fill="#BDC3C7" d="M617.396,433.68c0,2.688-4.9,4.865-10.948,4.865c-6.05,0-10.94-2.178-10.94-4.865
	c0-2.687,4.896-4.862,10.94-4.862S617.398,430.992,617.396,433.68z"/>
<path fill="#7F8C8D" d="M595.578,437.936c-0.061,0.2-0.07,0.402-0.07,0.61c0,2.688,4.896,4.864,10.94,4.864s10.95-2.187,10.95-4.865
	c0-0.207-0.021-0.408-0.076-0.61c-0.675,2.4-5.29,4.267-10.873,4.267c-5.586-0.002-10.2-1.86-10.875-4.26L595.578,437.936z"/>
<path fill="#95A5A6" d="M595.504,427.598v4.187c-0.01,0.02,0,0.05,0,0.072c0,3.02,4.896,5.479,10.943,5.479
	s10.944-2.45,10.944-5.479v-4.261L595.504,427.598z"/>
<path fill="#7F8C8D" d="M595.578,431.854c-0.061,0.2-0.07,0.402-0.07,0.61c0,2.688,4.896,4.864,10.94,4.864s10.95-2.187,10.95-4.865
	c0-0.207-0.021-0.41-0.076-0.609c-0.675,2.399-5.29,4.266-10.873,4.266c-5.586-0.01-10.2-1.867-10.875-4.271L595.578,431.854z"/>
<path fill="#BDC3C7" d="M606.45,439.763v9.73c6.046,0,10.95-2.45,10.95-5.48v-4.257L606.45,439.763z"/>
<path fill="#ECF0F1" d="M606.45,434.896v9.729c6.046,0,10.95-2.18,10.95-4.866s-4.904-4.868-10.95-4.868V434.896z"/>
<path fill="#BDC3C7" d="M606.45,433.68v9.732c6.046,0,10.95-2.454,10.95-5.48v-4.26l-10.95,0.004V433.68L606.45,433.68z"/>
<path fill="#95A5A6" d="M617.322,437.936c-0.675,2.4-5.29,4.267-10.873,4.267v1.218c6.043,0,10.95-2.18,10.95-4.866
	c0-0.207-0.025-0.41-0.08-0.605v-0.013H617.322z"/>
<path fill="#ECF0F1" d="M606.45,428.814v9.729c6.046,0,10.95-2.18,10.95-4.87C617.4,430.992,612.496,428.814,606.45,428.814
	L606.45,428.814z"/>
<path fill="#BDC3C7" d="M606.45,427.598v9.732c6.046,0,10.95-2.45,10.95-5.48v-4.257L606.45,427.598z"/>
<path fill="#95A5A6" d="M617.322,431.854c-0.675,2.4-5.29,4.266-10.873,4.266v1.22c6.043,0,10.95-2.18,10.95-4.87
	c0-0.21-0.021-0.416-0.08-0.62L617.322,431.854z M617.322,444.02c-0.675,2.398-5.29,4.267-10.873,4.267v1.216
	c6.043,0,10.95-2.182,10.95-4.865c0-0.216-0.021-0.416-0.08-0.617H617.322z"/>
<path fill="#BDC3C7" d="M617.396,427.598c0,2.688-4.9,4.865-10.948,4.865c-6.05,0-10.94-2.178-10.94-4.865
	c0-2.687,4.896-4.862,10.94-4.862S617.398,424.911,617.396,427.598z"/>
<text transform="matrix(1 0 0 1 595.5 467.5)" font-family="'Helvetica'" font-size="12">Rooms</text>
<text transform="matrix(1 0 0 1 595.5 481.8994)" font-family="'Helvetica'" font-size="12">database</text>
<text transform="matrix(1 0 0 1 514.5 368.5)" font-family="'Helvetica'" font-size="12">CIS demo</text>
<text transform="matrix(1 0 0 1 514.5 382.8994)" font-family="'Helvetica'" font-size="12">application</text>
<path fill="#E67E22" d="M514.5,333.168v9.332l12,8v-9.334L514.5,333.168L514.5,333.168z"/>
<path fill="#F39C12" d="M538.5,333.168v9.332l-12,8v-9.334L538.5,333.168L538.5,333.168z"/>
<path fill="#F1C40F" d="M522.5,327.832l-8,5.34l12,7.993l12-7.992l-8-5.335h-8V327.832z"/>
<path fill="#F39C12" d="M519.832,330.5v2.673c0,2.21,2.984,4,6.668,4c3.682,0,6.666-1.79,6.666-4V330.5H519.832L519.832,330.5z"/>
<path fill="#E67E22" d="M519.832,330.5v2.673c0,2.21,2.984,4,6.668,4V330.5H519.832z"/>
<path fill="#F1C40F" d="M533.166,330.5c0,2.215-2.984,4-6.666,4c-3.684,0-6.666-1.785-6.666-4c0-2.21,2.986-4,6.67-4
	c3.682,0,6.664,1.79,6.664,4H533.166L533.166,330.5z"/>
<path fill="#95A5A6" d="M514.504,439.53v4.184c-0.01,0.021,0,0.05,0,0.07c0,3.021,4.896,5.479,10.943,5.479
	s10.943-2.449,10.943-5.479v-4.26l-21.883,0.005L514.504,439.53z"/>
<path fill="#BDC3C7" d="M536.396,439.53c0,2.687-4.9,4.861-10.95,4.861s-10.94-2.178-10.94-4.863c0-2.688,4.896-4.868,10.943-4.868
	s10.944,2.183,10.944,4.865l-0.002,0.004L536.396,439.53z"/>
<path fill="#7F8C8D" d="M514.578,443.786c-0.061,0.2-0.072,0.399-0.072,0.605c0,2.688,4.896,4.865,10.943,4.865
	s10.944-2.187,10.944-4.868c0-0.21-0.02-0.41-0.075-0.609c-0.678,2.396-5.29,4.265-10.873,4.265s-10.198-1.86-10.872-4.265v0.004
	L514.578,443.786z"/>
<path fill="#95A5A6" d="M514.504,433.446v4.188c-0.01,0.021,0,0.05,0,0.067c0,3.025,4.896,5.479,10.943,5.479
	s10.943-2.449,10.943-5.479v-4.252h-21.883L514.504,433.446z"/>
<path fill="#BDC3C7" d="M536.396,433.446c0,2.688-4.9,4.863-10.95,4.863s-10.94-2.178-10.94-4.863c0-2.688,4.896-4.864,10.943-4.864
	s10.944,2.177,10.942,4.864H536.396z"/>
<path fill="#7F8C8D" d="M514.578,437.702c-0.061,0.2-0.072,0.399-0.072,0.609c0,2.688,4.896,4.863,10.943,4.863
	s10.944-2.185,10.944-4.865c0-0.207-0.02-0.406-0.075-0.609c-0.678,2.399-5.29,4.266-10.873,4.266
	c-5.583-0.004-10.198-1.862-10.872-4.264H514.578z"/>
<path fill="#95A5A6" d="M514.504,427.364v4.185c-0.01,0.021,0,0.05,0,0.07c0,3.02,4.896,5.479,10.943,5.479
	s10.943-2.449,10.943-5.479v-4.26h-21.883L514.504,427.364z"/>
<path fill="#7F8C8D" d="M514.578,431.62c-0.061,0.2-0.072,0.399-0.072,0.607c0,2.688,4.896,4.865,10.943,4.865
	s10.944-2.185,10.944-4.865c0-0.206-0.02-0.409-0.075-0.609c-0.678,2.399-5.29,4.266-10.873,4.266
	c-5.583-0.004-10.198-1.862-10.872-4.265L514.578,431.62z"/>
<path fill="#BDC3C7" d="M525.45,439.53v9.728c6.046,0,10.948-2.45,10.948-5.479v-4.259l-10.95,0.011H525.45z"/>
<path fill="#ECF0F1" d="M525.45,434.663v9.729c6.046,0,10.948-2.18,10.948-4.864c0-2.688-4.902-4.868-10.95-4.868v0.003H525.45z"/>
<path fill="#BDC3C7" d="M525.45,433.446v9.729c6.046,0,10.948-2.452,10.948-5.478v-4.26l-10.95,0.004v0.004H525.45z"/>
<path fill="#95A5A6" d="M536.322,437.702c-0.676,2.399-5.29,4.265-10.873,4.265v1.221c6.043,0,10.945-2.183,10.945-4.867
	c0-0.207-0.021-0.41-0.076-0.607v-0.01L536.322,437.702z"/>
<path fill="#ECF0F1" d="M525.45,428.582v9.73c6.046,0,10.948-2.181,10.948-4.868c0-2.686-4.902-4.862-10.95-4.862H525.45z"/>
<path fill="#BDC3C7" d="M525.45,427.364v9.729c6.046,0,10.948-2.447,10.948-5.478v-4.257h-10.95L525.45,427.364z"/>
<path fill="#95A5A6" d="M536.322,431.62c-0.676,2.399-5.29,4.264-10.873,4.264v1.22c6.043,0,10.945-2.18,10.945-4.866
	c0-0.21-0.021-0.414-0.076-0.618L536.322,431.62z M536.322,443.786c-0.676,2.396-5.29,4.265-10.873,4.265v1.221
	c6.043,0,10.945-2.183,10.945-4.864c0-0.215-0.021-0.416-0.076-0.617L536.322,443.786z"/>
<path fill="#BDC3C7" d="M536.396,427.364c0,2.688-4.9,4.864-10.95,4.864s-10.94-2.179-10.94-4.864c0-2.688,4.896-4.864,10.943-4.864
	s10.944,2.178,10.942,4.864H536.396z"/>
<text transform="matrix(1 0 0 1 514.5 467.5)" font-family="'Helvetica'" font-size="12">CIS demo</text>
<text transform="matrix(1 0 0 1 514.5 481.8994)" font-family="'Helvetica'" font-size="12">database</text>
<path fill="#F39C12" d="M201.5,98.5l2,10h-2V98.5z M183.5,98.5l-2,10h2V98.5z"/>
<path fill="#E67E22" d="M183.5,101.5l-2,14h22l-2-14H183.5z"/>
<path fill="#F1C40F" d="M181.5,108.5v7h22v-7h-8.188c-0.416,1.158-1.512,2-2.812,2s-2.397-0.842-2.812-2H181.5z"/>
<path fill="#F39C12" d="M183.5,98.5h18v3h-18V98.5z M181.5,115.5h22v1h-22V115.5z"/>
<path fill="none" stroke="#CCCCCC" stroke-miterlimit="10" stroke-dasharray="4,4" d="M176.847,107.5h0.078 M136.5,107.5h43.025
	 M181.422,107.5h0.078 M136.5,155.916v0.094 M136.5,107.5v51.63 M136.5,161.406v0.094 M271.5,163.985v0.108 M271.5,107.5v60.234
	 M271.5,170.39v0.11 M289.5,163.055v0.125 M289.5,98.5v68.84 M289.5,170.375v0.125 M118.5,154.985v0.108 M118.5,98.5v60.233
	 M118.5,161.39v0.11 M266.756,107.5h0.113 M208.499,107.5h62.12 M273.359,107.5h0.113 M442.5,163.055v0.125 M442.5,98.5v68.84
	 M442.5,170.375v0.125 M523.5,163.055v0.125 M523.5,98.5v68.84 M523.5,170.375v0.125 M37.5,412.946v0.031 M37.5,395.5v18.604
	 M37.5,414.924v0.034 M118.5,411.488v0.033 M118.5,394.045v18.604 M118.5,413.469v0.034 M199.5,412.949v0.032 M199.5,395.503v18.604
	 M199.5,414.927v0.034 M361.5,411.643v0.03 M361.5,395.503v17.21 M361.5,413.473v0.03 M442.5,412.949v0.032 M442.5,395.503v18.604
	 M442.5,414.927v0.034 M523.5,412.949v0.032 M523.5,395.503v18.604 M523.5,414.927v0.034 M604.5,412.949v0.032 M604.5,395.503
	v18.604 M604.5,414.927v0.034 M280.5,628.949v0.032 M280.5,611.503v18.604 M280.5,630.927v0.034 M361.5,628.949v0.032
	 M361.5,611.503v18.604 M361.5,630.927v0.034 M258.157,188.5h0.073 M220.5,188.5h40.156 M262.426,188.5h0.074 M171.13,188.5h0.05
	 M145.5,188.5h27.33 M174.036,188.5h0.05 M265.61,251.5h0.25 M136.5,251.5h137.68 M280.25,251.5h0.25 M280.5,250.57v0.015
	 M280.5,242.5v8.605 M280.5,251.485v0.015 M136.5,250.57v0.015 M136.5,242.5v8.605 M136.5,251.485v0.015 M99.383,188.5h0.068
	 M64.501,188.5h37.2 M103.341,188.5h0.068 M409.929,260.5h0.55 M127.502,260.5h315 M441.957,260.5h0.546 M127.503,258.64v0.03
	 M127.503,242.5v17.21 M127.503,260.47v0.03 M442.503,258.64v0.03 M442.503,242.5v17.21 M442.503,260.47v0.03 M263.753,269.5h0.28
	 M118.503,269.5h162 M280.223,269.5h0.28 M118.503,269.17v0.05 M118.503,242.5v28.44 M118.503,272.193v0.052 M280.503,317.915v0.095
	 M280.503,269.5v51.63 M280.503,323.406v0.094 M280.503,435.93v0.08 M280.503,395.5v43.114 M280.503,440.516v0.078 M274.241,440.5
	h0.11 M217.504,440.5h63.28 M280.674,440.5h0.11 M199.504,534.696v0.08 M199.504,493.042v44.418 M199.504,539.418v0.082"/>
<path fill="#354A5D" d="M28.5,756.166v9.334l12,8v-9.334L28.5,756.166z"/>
<path fill="#3382B6" d="M52.5,756.166v9.334l-12,8v-9.334L52.5,756.166z"/>
<path fill="#3F9BD7" d="M36.5,750.833l-8,5.333l12,8l12-8l-8-5.333H36.5z"/>
<path fill="#3382B6" d="M33.834,753.5v2.666c0,2.21,2.984,4,6.666,4c3.688,0,6.666-1.79,6.666-4V753.5H33.834z"/>
<path fill="#354A5D" d="M33.834,753.5v2.666c0,2.21,2.984,4,6.666,4V753.5H33.834z"/>
<path fill="#3F9BD7" d="M47.166,753.5c0,2.21-2.98,4-6.666,4c-3.682,0-6.666-1.79-6.666-4s2.984-4,6.666-4
	C44.183,749.5,47.166,751.29,47.166,753.5z"/>
<text transform="matrix(1 0 0 1 28.5 737.5)" fill="#96A5A6" font-family="'Helvetica'" font-size="12">Legend</text>
<text transform="matrix(1 0 0 1 28.5 791.5)" font-family="'Helvetica'" font-size="12">PHP</text>
<text transform="matrix(1 0 0 1 28.5 805.9004)" font-family="'Helvetica'" font-size="12">application</text>
<text transform="matrix(1 0 0 1 109.5 791.5)" font-family="'Helvetica'" font-size="12">Java</text>
<text transform="matrix(1 0 0 1 109.5 805.8994)" font-family="'Helvetica'" font-size="12">application</text>
<path fill="#E67E22" d="M109.5,756.168v9.332l12,8v-9.334L109.5,756.168z"/>
<path fill="#F39C12" d="M133.5,756.168v9.332l-12,8v-9.334L133.5,756.168z"/>
<path fill="#F1C40F" d="M117.5,750.832l-8,5.34l12,7.993l12-7.992l-8-5.335h-8V750.832z"/>
<path fill="#F39C12" d="M114.833,753.5v2.673c0,2.21,2.985,4,6.667,4s6.666-1.79,6.666-4V753.5H114.833z"/>
<path fill="#E67E22" d="M114.833,753.5v2.673c0,2.21,2.985,4,6.667,4V753.5H114.833z"/>
<path fill="#F1C40F" d="M128.166,753.5c0,2.215-2.984,4-6.666,4s-6.666-1.785-6.666-4c0-2.21,2.986-4,6.67-4s6.665,1.79,6.665,4
	h-0.007H128.166z"/>
<path fill="#95A5A6" d="M190.504,763.763v4.187c-0.01,0.02,0,0.05,0,0.069c0,3.021,4.896,5.48,10.943,5.48
	c6.047,0,10.947-2.45,10.947-5.48v-4.26h-21.89V763.763z"/>
<path fill="#BDC3C7" d="M212.398,763.763c0,2.688-4.902,4.864-10.95,4.864c-6.048,0-10.94-2.178-10.94-4.865
	c0-2.687,4.895-4.867,10.94-4.867c6.047,0,10.95,2.184,10.95,4.864V763.763z"/>
<path fill="#7F8C8D" d="M190.578,768.02c-0.057,0.2-0.07,0.4-0.07,0.607c0,2.688,4.895,4.865,10.94,4.865
	c6.047,0,10.95-2.188,10.95-4.868c0-0.207-0.02-0.408-0.076-0.607c-0.674,2.398-5.29,4.267-10.873,4.267
	c-5.586,0-10.2-1.86-10.87-4.267l-0.005,0.003H190.578z"/>
<path fill="#95A5A6" d="M190.504,757.68v4.188c-0.01,0.02,0,0.05,0,0.066c0,3.022,4.896,5.48,10.943,5.48
	c6.047,0,10.947-2.453,10.947-5.48v-4.257L190.504,757.68z"/>
<path fill="#BDC3C7" d="M212.398,757.68c0,2.688-4.902,4.865-10.95,4.865c-6.048,0-10.94-2.178-10.94-4.865
	c0-2.687,4.895-4.862,10.94-4.862C207.495,752.817,212.398,754.992,212.398,757.68z"/>
<path fill="#7F8C8D" d="M190.578,761.936c-0.057,0.2-0.07,0.402-0.07,0.61c0,2.688,4.895,4.864,10.94,4.864
	c6.047,0,10.95-2.187,10.95-4.865c0-0.207-0.02-0.408-0.076-0.61c-0.674,2.4-5.29,4.267-10.873,4.267
	c-5.586-0.002-10.2-1.86-10.875-4.26L190.578,761.936z"/>
<path fill="#95A5A6" d="M190.504,751.598v4.187c-0.01,0.02,0,0.05,0,0.072c0,3.02,4.896,5.479,10.943,5.479
	c6.047,0,10.947-2.45,10.947-5.479v-4.261L190.504,751.598z"/>
<path fill="#7F8C8D" d="M190.578,755.854c-0.057,0.2-0.07,0.402-0.07,0.61c0,2.688,4.895,4.864,10.94,4.864
	c6.047,0,10.95-2.187,10.95-4.865c0-0.207-0.02-0.41-0.076-0.609c-0.674,2.399-5.29,4.266-10.873,4.266
	c-5.586-0.01-10.2-1.867-10.875-4.271L190.578,755.854z"/>
<path fill="#BDC3C7" d="M201.45,763.763v9.73c6.046,0,10.95-2.45,10.95-5.48v-4.257L201.45,763.763z"/>
<path fill="#ECF0F1" d="M201.45,758.896v9.729c6.046,0,10.95-2.18,10.95-4.866s-4.904-4.868-10.95-4.868V758.896z"/>
<path fill="#BDC3C7" d="M201.45,757.68v9.732c6.046,0,10.95-2.454,10.95-5.48v-4.26l-10.95,0.004V757.68L201.45,757.68z"/>
<path fill="#95A5A6" d="M212.322,761.936c-0.674,2.4-5.29,4.267-10.873,4.267v1.218c6.043,0,10.95-2.18,10.95-4.866
	c0-0.207-0.02-0.41-0.08-0.605v-0.013H212.322z"/>
<path fill="#ECF0F1" d="M201.45,752.814v9.729c6.046,0,10.95-2.18,10.95-4.87C212.4,754.992,207.496,752.814,201.45,752.814z"/>
<path fill="#BDC3C7" d="M201.45,751.598v9.732c6.046,0,10.95-2.45,10.95-5.48v-4.257L201.45,751.598z"/>
<path fill="#95A5A6" d="M212.322,755.854c-0.674,2.4-5.29,4.266-10.873,4.266v1.22c6.043,0,10.95-2.18,10.95-4.87
	c0-0.21-0.02-0.416-0.08-0.62L212.322,755.854z M212.322,768.02c-0.674,2.398-5.29,4.267-10.873,4.267v1.216
	c6.043,0,10.95-2.182,10.95-4.865c0-0.216-0.02-0.416-0.08-0.617H212.322z"/>
<path fill="#BDC3C7" d="M212.398,751.598c0,2.688-4.902,4.865-10.95,4.865c-6.048,0-10.94-2.178-10.94-4.865
	c0-2.687,4.895-4.862,10.94-4.862C207.495,746.735,212.398,748.911,212.398,751.598z"/>
<text transform="matrix(1 0 0 1 190.5 791.5)" font-family="'Helvetica'" font-size="12">MySQL</text>
<text transform="matrix(1 0 0 1 190.5 805.8994)" font-family="'Helvetica'" font-size="12">database</text>
<text transform="matrix(1 0 0 1 352.5 791.5)" font-family="'Helvetica'" font-size="12">Static</text>
<text transform="matrix(1 0 0 1 352.5 805.9004)" font-family="'Helvetica'" font-size="12">files</text>
<path fill="#8E44AD" d="M354.5,751.5c-1.104,0-2,0.896-2,2v18c0,1.104,0.896,2,2,2h14c1.104,0,2-0.896,2-2v-14l-6-6H354.5z"/>
<path fill="#9B59B6" d="M354.5,750.5c-1.104,0-2,0.896-2,2v18c0,1.104,0.896,2,2,2h14c1.104,0,2-0.896,2-2v-14l-6-6H354.5z"/>
<path fill="#8E44AD" d="M370.5,756.5l-6-6v4c0,1.104,0.896,2,2,2H370.5z"/>
<path fill="#ECF0F1" d="M273.5,752.5l-2,5h20l-2-5H273.5z"/>
<path fill="#1ABC9C" d="M278.5,757.5h6l-1-5h-4L278.5,757.5z"/>
<path fill="none" d="M271.5,756.5h20l-2,13h-17L271.5,756.5z"/>
<path fill="#BDC3C7" d="M271.5,757.5h20v16h-20V757.5z"/>
<path fill="#ECF0F1" d="M274.5,767.5c-0.553,0-1,0.447-1,1v2c0,0.553,0.447,1,1,1h6c0.553,0,1-0.447,1-1v-2c0-0.553-0.447-1-1-1
	H274.5z"/>
<path fill="#16A085" d="M278.5,757.5v7l1-1l1,1l1-1l1,1l1-1l1,1v-7H278.5z"/>
<path fill="#95A5A6" d="M274.5,768.5h1v2h-1V768.5z M276.5,768.5h1v2h-1V768.5z M278.5,768.5h1v2h-1V768.5z"/>
<path fill="#7F8C8D" d="M279.5,768.5h1v2h-1V768.5z"/>
<path fill="#BDC3C7" d="M277.5,768.5h1v2h-1V768.5z"/>
<text transform="matrix(1 0 0 1 271.5 791.5)" font-family="'Helvetica'" font-size="12">Subversion</text>
<text transform="matrix(1 0 0 1 271.5 805.9004)" font-family="'Helvetica'" font-size="12">repository</text>
</svg>
