<?xml version="1.0" encoding="utf-8"?>
<!-- Generator: Adobe Illustrator 16.0.4, SVG Export Plug-In . SVG Version: 6.00 Build 0)  -->
<!DOCTYPE svg PUBLIC "-//W3C//DTD SVG 1.1//EN" "http://www.w3.org/Graphics/SVG/1.1/DTD/svg11.dtd">
<svg version="1.1" id="Layer_1" xmlns="http://www.w3.org/2000/svg" xmlns:xlink="http://www.w3.org/1999/xlink" x="0px" y="0px"
	 width="800px" height="600px" viewBox="0 0 800 600" enable-background="new 0 0 800 600" xml:space="preserve">
<g>
	<path fill="none" stroke="#CCCCCC" stroke-width="2" stroke-miterlimit="10" d="M54.853,115.52l-0.017-0.977"/>
	<path fill="none" stroke="#CCCCCC" stroke-width="2" stroke-miterlimit="10" stroke-dasharray="12.0308,12.0308" d="
		M54.802,112.587L53.86,58.773"/>
	<path fill="none" stroke="#CCCCCC" stroke-width="2" stroke-miterlimit="10" d="M53.843,57.794l-0.017-0.975"/>
</g>
<text transform="matrix(1 0 0 1 461.5137 320.7148)" font-family="'Helvetica'" font-size="12">Forums</text>
<text transform="matrix(1 0 0 1 461.5137 335.1152)" font-family="'Helvetica'" font-size="12">application</text>
<path fill="#95A5A6" d="M465.235,365.74v4.18c-0.013,0.023,0,0.05,0,0.076c0,3.021,4.896,5.475,10.939,5.475
	s10.948-2.45,10.948-5.472v-4.258L465.235,365.74L465.235,365.74z"/>
<path fill="#BDC3C7" d="M487.13,365.74c0,2.687-4.897,4.866-10.948,4.866c-6.048,0-10.939-2.183-10.939-4.867
	c0-2.69,4.894-4.868,10.938-4.868s10.95,2.18,10.95,4.865V365.74L487.13,365.74z"/>
<path fill="#7F8C8D" d="M465.31,369.997c-0.056,0.2-0.067,0.402-0.067,0.61c0,2.686,4.896,4.859,10.939,4.859
	s10.948-2.18,10.948-4.861c0-0.207-0.02-0.41-0.076-0.61c-0.673,2.397-5.288,4.26-10.872,4.26c-5.582,0-10.197-1.855-10.872-4.26
	V369.997z"/>
<path fill="#95A5A6" d="M465.235,359.657v4.182c-0.013,0.023,0,0.05,0,0.074c0,3.021,4.896,5.475,10.939,5.475
	s10.948-2.452,10.948-5.477v-4.258h-21.89v0.002L465.235,359.657L465.235,359.657z"/>
<path fill="#BDC3C7" d="M487.13,359.657c0,2.688-4.897,4.867-10.948,4.867c-6.048,0-10.939-2.183-10.939-4.867
	c0-2.688,4.894-4.865,10.938-4.865S487.13,356.972,487.13,359.657L487.13,359.657z"/>
<path fill="#7F8C8D" d="M465.31,363.915c-0.056,0.2-0.067,0.402-0.067,0.607c0,2.688,4.896,4.862,10.939,4.862
	s10.948-2.18,10.948-4.862c0-0.205-0.02-0.408-0.076-0.607c-0.673,2.4-5.288,4.258-10.872,4.258
	C470.6,368.173,465.982,366.316,465.31,363.915L465.31,363.915z"/>
<path fill="#95A5A6" d="M465.235,353.575v4.18c-0.013,0.025,0,0.05,0,0.076c0,3.025,4.896,5.477,10.939,5.477
	s10.948-2.447,10.948-5.475v-4.257L465.235,353.575L465.235,353.575z"/>
<path fill="#7F8C8D" d="M465.31,357.833c-0.056,0.2-0.067,0.402-0.067,0.607c0,2.688,4.896,4.862,10.939,4.862
	s10.948-2.18,10.948-4.862c0-0.205-0.02-0.408-0.076-0.607c-0.673,2.4-5.288,4.258-10.872,4.258c-5.582,0-10.197-1.853-10.872-4.255
	V357.833L465.31,357.833z"/>
<path fill="#BDC3C7" d="M476.182,365.74v9.729c6.047,0,10.948-2.45,10.948-5.475v-4.258h-10.948V365.74z"/>
<path fill="#ECF0F1" d="M476.182,360.875v9.73c6.047,0,10.948-2.181,10.948-4.864c0-2.688-4.897-4.863-10.948-4.863V360.875
	L476.182,360.875z"/>
<path fill="#BDC3C7" d="M476.182,359.657v9.729c6.047,0,10.948-2.452,10.948-5.476v-4.257h-10.948V359.657L476.182,359.657z"/>
<path fill="#95A5A6" d="M487.054,363.915c-0.673,2.4-5.288,4.258-10.872,4.258v1.217c6.047,0,10.948-2.18,10.948-4.861
	C487.13,364.318,487.11,364.116,487.054,363.915L487.054,363.915z"/>
<path fill="#ECF0F1" d="M476.182,354.792v9.73c6.047,0,10.948-2.183,10.948-4.865C487.13,356.972,482.23,354.792,476.182,354.792
	L476.182,354.792z"/>
<path fill="#BDC3C7" d="M476.182,353.575v9.729c6.047,0,10.948-2.445,10.948-5.474v-4.257L476.182,353.575L476.182,353.575z"/>
<path fill="#95A5A6" d="M487.054,357.833c-0.673,2.4-5.288,4.258-10.872,4.258v1.22c6.047,0,10.948-2.18,10.948-4.861
	c0-0.207-0.02-0.41-0.076-0.61V357.833L487.054,357.833z M487.054,369.997c-0.673,2.4-5.288,4.26-10.872,4.26v1.215
	c6.047,0,10.948-2.18,10.948-4.861C487.13,370.4,487.11,370.198,487.054,369.997L487.054,369.997z"/>
<path fill="#BDC3C7" d="M487.13,353.575c0,2.688-4.897,4.867-10.948,4.867c-6.048,0-10.939-2.183-10.939-4.867
	c0-2.688,4.894-4.865,10.938-4.865S487.13,350.89,487.13,353.575L487.13,353.575z"/>
<text transform="matrix(1 0 0 1 465.2305 395.7812)" font-family="'Helvetica'" font-size="12">Forums</text>
<text transform="matrix(1 0 0 1 465.2305 410.1797)" font-family="'Helvetica'" font-size="12">database</text>
<text transform="matrix(1 0 0 1 339.0508 204.6084)" font-family="'Helvetica'" font-size="12">worldskills.org</text>
<text transform="matrix(1 0 0 1 339.0508 219.0068)" font-family="'Helvetica'" font-size="12">website</text>
<text transform="matrix(1 0 0 1 461.3848 199.5371)" font-family="'Helvetica'" font-size="12">WSC2015</text>
<text transform="matrix(1 0 0 1 461.3848 213.9346)" font-family="'Helvetica'" font-size="12">website</text>
<text transform="matrix(1 0 0 1 551.333 192.1309)" font-family="'Helvetica'" font-size="12">WSC2017</text>
<text transform="matrix(1 0 0 1 551.333 206.5312)" font-family="'Helvetica'" font-size="12">website</text>
<path fill="#95A5A6" d="M333.434,91.122v4.182c-0.01,0.024,0,0.05,0,0.076c0,3.022,4.896,5.473,10.943,5.473
	s10.948-2.45,10.948-5.474v-4.26h-21.89L333.434,91.122L333.434,91.122z"/>
<path fill="#BDC3C7" d="M355.33,91.122c0,2.688-4.902,4.866-10.95,4.866s-10.942-2.18-10.942-4.866s4.896-4.866,10.943-4.866
	S355.331,88.436,355.33,91.122L355.33,91.122z"/>
<path fill="#7F8C8D" d="M333.508,95.38c-0.056,0.2-0.07,0.4-0.07,0.608c0,2.687,4.895,4.865,10.942,4.865s10.948-2.18,10.948-4.865
	c0-0.207-0.02-0.41-0.076-0.608c-0.673,2.4-5.288,4.258-10.872,4.258C338.798,99.638,334.182,97.78,333.508,95.38L333.508,95.38z"/>
<path fill="#95A5A6" d="M333.434,85.04v4.182c-0.01,0.024,0,0.05,0,0.075c0,3.023,4.896,5.475,10.943,5.475
	s10.948-2.45,10.948-5.475V85.04H333.434L333.434,85.04z"/>
<path fill="#BDC3C7" d="M355.33,85.04c0,2.688-4.902,4.866-10.95,4.866s-10.942-2.178-10.942-4.866
	c0-2.687,4.896-4.866,10.943-4.866S355.331,82.354,355.33,85.04L355.33,85.04z"/>
<path fill="#7F8C8D" d="M333.508,89.297c-0.056,0.2-0.07,0.402-0.07,0.608c0,2.688,4.895,4.866,10.942,4.866
	s10.948-2.176,10.948-4.863c0-0.206-0.02-0.408-0.076-0.608c-0.673,2.4-5.288,4.257-10.872,4.257
	c-5.582,0-10.198-1.857-10.872-4.258V89.297L333.508,89.297z"/>
<path fill="#95A5A6" d="M333.434,78.958v4.182c-0.01,0.024,0,0.05,0,0.075c0,3.023,4.896,5.475,10.943,5.475
	s10.948-2.45,10.948-5.475v-4.258L333.434,78.958L333.434,78.958z"/>
<path fill="#7F8C8D" d="M333.508,83.215c-0.056,0.2-0.07,0.402-0.07,0.608c0,2.687,4.895,4.866,10.942,4.866
	s10.948-2.18,10.948-4.87c0-0.205-0.02-0.41-0.076-0.607c-0.673,2.4-5.288,4.258-10.872,4.258c-5.582,0-10.198-1.856-10.872-4.257
	V83.215L333.508,83.215z"/>
<path fill="#BDC3C7" d="M344.38,91.122v9.73c6.047,0,10.948-2.45,10.948-5.473v-4.26H344.38V91.122L344.38,91.122z"/>
<path fill="#ECF0F1" d="M344.38,86.257v9.732c6.047,0,10.948-2.18,10.948-4.87s-4.9-4.865-10.948-4.865V86.257L344.38,86.257z"/>
<path fill="#BDC3C7" d="M344.38,85.04v9.732c6.047,0,10.948-2.45,10.948-5.475V85.04H344.38z"/>
<path fill="#95A5A6" d="M355.252,89.297c-0.673,2.4-5.288,4.258-10.872,4.258v1.217c6.047,0,10.948-2.18,10.948-4.866
	C355.328,89.7,355.308,89.496,355.252,89.297L355.252,89.297z"/>
<path fill="#ECF0F1" d="M344.38,80.174v9.73c6.047,0,10.948-2.177,10.948-4.865s-4.9-4.868-10.948-4.868V80.174L344.38,80.174z"/>
<path fill="#BDC3C7" d="M344.38,78.958v9.732c6.047,0,10.948-2.45,10.948-5.475v-4.258L344.38,78.958L344.38,78.958z"/>
<path fill="#95A5A6" d="M355.252,83.215c-0.673,2.4-5.288,4.258-10.872,4.258v1.217c6.047,0,10.948-2.18,10.948-4.866
	C355.328,83.618,355.308,83.414,355.252,83.215L355.252,83.215z M355.252,95.38c-0.673,2.4-5.288,4.258-10.872,4.258v1.216
	c6.047,0,10.948-2.18,10.948-4.865C355.328,95.779,355.308,95.579,355.252,95.38L355.252,95.38z"/>
<path fill="#BDC3C7" d="M355.33,78.958c0,2.687-4.902,4.866-10.95,4.866s-10.942-2.18-10.942-4.866s4.896-4.866,10.943-4.866
	S355.331,76.272,355.33,78.958L355.33,78.958z"/>
<text transform="matrix(1 0 0 1 333.4302 121.1631)" font-family="'Helvetica'" font-size="12">worldskills.org</text>
<text transform="matrix(1 0 0 1 333.4302 135.5625)" font-family="'Helvetica'" font-size="12">database</text>
<path fill="#95A5A6" d="M459.106,93.888v4.18c-0.013,0.025,0,0.053,0,0.077c0,3.023,4.896,5.475,10.939,5.475
	s10.947-2.45,10.947-5.476v-4.258L459.1,93.888H459.106L459.106,93.888z"/>
<path fill="#BDC3C7" d="M481,93.888c0,2.688-4.9,4.866-10.946,4.866s-10.939-2.18-10.939-4.866s4.896-4.866,10.941-4.866
	S481,91.202,481,93.888z"/>
<path fill="#7F8C8D" d="M459.18,98.146c-0.054,0.2-0.067,0.4-0.067,0.608c0,2.688,4.896,4.865,10.941,4.865S481,101.44,481,98.75
	c0-0.207-0.02-0.41-0.075-0.608c-0.672,2.4-5.287,4.26-10.87,4.26c-5.583-0.002-10.197-1.86-10.874-4.26v0.002L459.18,98.146z"/>
<path fill="#95A5A6" d="M459.106,87.806v4.182c-0.013,0.023,0,0.05,0,0.074c0,3.023,4.896,5.475,10.939,5.475
	s10.947-2.45,10.947-5.475v-4.258L459.1,87.806H459.106L459.106,87.806z"/>
<path fill="#BDC3C7" d="M481,87.806c0,2.688-4.9,4.866-10.946,4.866s-10.939-2.178-10.939-4.866c0-2.687,4.896-4.866,10.941-4.866
	S481,85.12,481,87.806z"/>
<path fill="#7F8C8D" d="M459.18,92.063c-0.054,0.2-0.067,0.402-0.067,0.608c0,2.69,4.896,4.87,10.941,4.87S481,95.357,481,92.67
	c0-0.205-0.02-0.407-0.075-0.607c-0.672,2.4-5.287,4.258-10.87,4.258s-10.197-1.854-10.874-4.255L459.18,92.063L459.18,92.063z"/>
<path fill="#95A5A6" d="M459.106,81.724v4.18c-0.013,0.025,0,0.052,0,0.076c0,3.023,4.896,5.476,10.939,5.476
	s10.947-2.45,10.947-5.476v-4.258H459.1L459.106,81.724L459.106,81.724z"/>
<path fill="#7F8C8D" d="M459.18,85.98c-0.054,0.2-0.067,0.403-0.067,0.61c0,2.686,4.896,4.865,10.941,4.865S481,89.275,481,86.59
	c0-0.207-0.02-0.41-0.075-0.61c-0.672,2.4-5.287,4.26-10.87,4.26C464.472,90.238,459.855,88.382,459.18,85.98L459.18,85.98z"/>
<path fill="#BDC3C7" d="M470.054,93.888v9.73c6.047,0,10.947-2.45,10.947-5.474v-4.258l-10.944,0.002H470.054L470.054,93.888z"/>
<path fill="#ECF0F1" d="M470.054,89.024v9.73c6.047,0,10.947-2.178,10.947-4.865s-4.9-4.868-10.944-4.868L470.054,89.024
	L470.054,89.024z"/>
<path fill="#BDC3C7" d="M470.054,87.806v9.732c6.047,0,10.947-2.45,10.947-5.476v-4.258l-10.944,0.002H470.054L470.054,87.806z"/>
<path fill="#95A5A6" d="M480.925,92.063c-0.672,2.4-5.287,4.258-10.87,4.258v1.22c6.046,0,10.946-2.18,10.946-4.865
	c0-0.207-0.02-0.41-0.073-0.61L480.925,92.063L480.925,92.063z"/>
<path fill="#ECF0F1" d="M470.054,82.94v9.73c6.047,0,10.947-2.178,10.947-4.865c0-2.686-4.9-4.865-10.944-4.865H470.054
	L470.054,82.94z"/>
<path fill="#BDC3C7" d="M470.054,81.724v9.732c6.047,0,10.947-2.45,10.947-5.476v-4.258h-10.944L470.054,81.724L470.054,81.724z"/>
<path fill="#95A5A6" d="M480.925,85.98c-0.672,2.4-5.287,4.26-10.87,4.26v1.217c6.046,0,10.946-2.18,10.946-4.866
	c0-0.204-0.02-0.41-0.073-0.61L480.925,85.98L480.925,85.98z M480.925,98.146c-0.672,2.4-5.287,4.26-10.87,4.26v1.214
	c6.046,0,10.946-2.178,10.946-4.864c0-0.208-0.02-0.41-0.073-0.61H480.925L480.925,98.146z"/>
<path fill="#BDC3C7" d="M481,81.724c0,2.687-4.9,4.866-10.946,4.866s-10.939-2.18-10.939-4.866s4.896-4.866,10.941-4.866
	S481,79.038,481,81.724z"/>
<text transform="matrix(1 0 0 1 459.1035 123.9287)" font-family="'Helvetica'" font-size="12">WSC2015</text>
<text transform="matrix(1 0 0 1 459.1035 138.3281)" font-family="'Helvetica'" font-size="12">database</text>
<path fill="#95A5A6" d="M549.05,91.034v4.18c-0.01,0.024,0,0.052,0,0.076c0,3.023,4.896,5.475,10.943,5.475
	s10.947-2.45,10.947-5.475v-4.258L549.05,91.034z"/>
<path fill="#BDC3C7" d="M570.944,91.034c0,2.688-4.902,4.866-10.95,4.866s-10.942-2.18-10.942-4.866s4.896-4.866,10.943-4.866
	S570.945,88.348,570.944,91.034L570.944,91.034z"/>
<path fill="#7F8C8D" d="M549.124,95.292c-0.057,0.2-0.072,0.4-0.072,0.608c0,2.688,4.896,4.865,10.943,4.865s10.95-2.18,10.95-4.865
	c0-0.207-0.022-0.41-0.077-0.608c-0.674,2.4-5.29,4.26-10.873,4.26C554.413,99.552,549.798,97.692,549.124,95.292L549.124,95.292z"
	/>
<path fill="#95A5A6" d="M549.05,84.952v4.182c-0.01,0.023,0,0.05,0,0.074c0,3.023,4.896,5.475,10.943,5.475
	s10.947-2.45,10.947-5.475V84.95L549.05,84.952z"/>
<path fill="#BDC3C7" d="M570.944,84.952c0,2.688-4.902,4.866-10.95,4.866s-10.942-2.178-10.942-4.866
	c0-2.687,4.896-4.866,10.943-4.866S570.945,82.266,570.944,84.952L570.944,84.952z"/>
<path fill="#7F8C8D" d="M549.124,89.21c-0.057,0.2-0.072,0.4-0.072,0.607c0,2.688,4.896,4.866,10.943,4.866s10.95-2.18,10.95-4.866
	c0-0.206-0.022-0.408-0.077-0.608c-0.674,2.4-5.29,4.255-10.873,4.255c-5.582,0-10.197-1.856-10.87-4.258L549.124,89.21
	L549.124,89.21z"/>
<path fill="#95A5A6" d="M549.05,78.87v4.18c-0.01,0.024,0,0.05,0,0.075c0,3.023,4.896,5.476,10.943,5.476s10.947-2.45,10.947-5.474
	v-4.258L549.05,78.87L549.05,78.87L549.05,78.87z"/>
<path fill="#7F8C8D" d="M549.124,83.127c-0.057,0.2-0.072,0.402-0.072,0.608c0,2.687,4.896,4.866,10.943,4.866
	s10.95-2.18,10.95-4.863c0-0.206-0.022-0.41-0.077-0.608c-0.674,2.4-5.29,4.257-10.873,4.257c-5.582,0-10.197-1.856-10.87-4.258
	L549.124,83.127L549.124,83.127z"/>
<path fill="#BDC3C7" d="M559.995,91.034v9.73c6.047,0,10.95-2.45,10.95-5.474v-4.258L559.995,91.034z"/>
<path fill="#ECF0F1" d="M559.995,86.17v9.73c6.047,0,10.95-2.178,10.95-4.865S566.042,86.17,559.995,86.17z"/>
<path fill="#BDC3C7" d="M559.995,84.952v9.732c6.047,0,10.95-2.45,10.95-5.476V84.95L559.995,84.952z"/>
<path fill="#95A5A6" d="M570.868,89.21c-0.674,2.4-5.29,4.257-10.873,4.257v1.218c6.047,0,10.95-2.18,10.95-4.866
	C570.945,89.609,570.925,89.409,570.868,89.21L570.868,89.21z"/>
<path fill="#ECF0F1" d="M559.995,80.086v9.73c6.047,0,10.95-2.178,10.95-4.865c0-2.682-4.903-4.862-10.95-4.862V80.086
	L559.995,80.086z"/>
<path fill="#BDC3C7" d="M559.995,78.87v9.732c6.047,0,10.95-2.45,10.95-5.476v-4.258h-10.95V78.87z"/>
<path fill="#95A5A6" d="M570.868,83.127c-0.674,2.4-5.29,4.258-10.873,4.258v1.218c6.047,0,10.95-2.18,10.95-4.866
	C570.945,83.53,570.925,83.327,570.868,83.127z M570.868,95.292c-0.674,2.4-5.29,4.26-10.873,4.26v1.214
	c6.047,0,10.95-2.178,10.95-4.864C570.945,95.695,570.925,95.492,570.868,95.292z"/>
<path fill="#BDC3C7" d="M570.944,78.87c0,2.687-4.902,4.866-10.95,4.866s-10.942-2.18-10.942-4.866s4.896-4.866,10.943-4.866
	S570.945,76.184,570.944,78.87L570.944,78.87z"/>
<text transform="matrix(1 0 0 1 549.0449 121.0752)" font-family="'Helvetica'" font-size="12">WSC2017</text>
<text transform="matrix(1 0 0 1 549.0449 135.4746)" font-family="'Helvetica'" font-size="12">database</text>
<path fill="#F39C12" d="M256.017,12.21l2,10h-2V12.21z M238.017,12.21l-2,10h2V12.21z"/>
<path fill="#E67E22" d="M238.017,15.21l-2,14h22l-2-14H238.017z"/>
<path fill="#F1C40F" d="M237.017,22.21v7h22v-7h-8.19c-0.415,1.157-1.51,2-2.81,2c-1.303,0-2.398-0.843-2.813-2H237.017z"/>
<path fill="#F39C12" d="M238.017,12.21h18v3h-18V12.21z M236.017,29.21h22v1h-22V29.21z"/>
<path fill="#E67E22" d="M142.566,169.744v11.03l15.887,10.587v-11.026l-15.887-10.588V169.744L142.566,169.744z"/>
<path fill="#F39C12" d="M174.332,169.744v11.03L158.45,191.36v-11.028L174.332,169.744z"/>
<path fill="#F1C40F" d="M158.45,159.596l-15.888,10.148l15.887,10.588l15.88-10.588l-15.883-10.148H158.45L158.45,159.596z"/>
<path fill="#E67E22" d="M153.816,162.574v1.984c0,1.645,2.074,2.98,4.637,2.98c2.56,0,4.633-1.333,4.633-2.98v-1.984H153.816
	L153.816,162.574z M153.816,162.574v1.984c0,1.645,2.074,2.98,4.637,2.98v-4.964H153.816L153.816,162.574z"/>
<path fill="#F1C40F" d="M163.082,162.574c0,1.645-2.073,2.977-4.633,2.977c-2.565,0-4.64-1.33-4.64-2.974s2.074-2.98,4.637-2.98
	c2.558,0,4.632,1.334,4.632,2.98l0.002-0.002L163.082,162.574z"/>
<path fill="#E67E22" d="M162.42,167.867v1.985c0,1.646,2.072,2.978,4.632,2.978c2.562,0,4.633-1.332,4.633-2.978v-1.985H162.42z
	 M162.42,167.867v1.985c0,1.646,2.072,2.978,4.632,2.978v-4.963H162.42z"/>
<path fill="#F1C40F" d="M171.685,167.867c0,1.646-2.07,2.98-4.633,2.98c-2.56,0-4.633-1.334-4.633-2.98
	c0-1.645,2.07-2.978,4.63-2.978c2.56,0,4.633,1.332,4.633,2.975L171.685,167.867L171.685,167.867z"/>
<path fill="#E67E22" d="M145.212,167.207v1.984c0,1.648,2.074,2.98,4.633,2.98c2.56,0,4.633-1.332,4.633-2.98v-1.98h-9.266V167.207
	L145.212,167.207z M145.212,167.207v1.984c0,1.648,2.074,2.98,4.633,2.98v-4.96h-4.633V167.207L145.212,167.207z"/>
<path fill="#F1C40F" d="M154.478,167.207c0,1.645-2.074,2.978-4.633,2.978c-2.56,0-4.633-1.333-4.633-2.978
	c0-1.646,2.074-2.98,4.633-2.98C152.405,164.227,154.478,165.562,154.478,167.207z"/>
<path fill="#E67E22" d="M153.816,172.5v1.985c0,1.646,2.074,2.978,4.637,2.978c2.56,0,4.633-1.332,4.633-2.978V172.5H153.816
	L153.816,172.5z M153.816,172.5v1.985c0,1.646,2.074,2.978,4.637,2.978V172.5H153.816z"/>
<path fill="#F1C40F" d="M163.082,172.5c0,1.646-2.073,2.98-4.633,2.98c-2.565,0-4.64-1.334-4.64-2.98
	c0-1.645,2.074-2.978,4.637-2.978c2.558,0,4.632,1.334,4.632,2.978h0.002H163.082z"/>
<text transform="matrix(1 0 0 1 142.5659 213.333)" font-family="'Helvetica'" font-size="12">Web</text>
<text transform="matrix(1 0 0 1 142.5659 227.7334)" font-family="'Helvetica'" font-size="12">services</text>
<path fill="#95A5A6" d="M135.395,88.522v4.18c-0.01,0.025,0,0.053,0,0.077c0,3.02,4.896,5.472,10.943,5.472
	s10.948-2.45,10.948-5.474v-4.26l-21.89,0.002L135.395,88.522L135.395,88.522z"/>
<path fill="#BDC3C7" d="M157.29,88.522c0,2.688-4.902,4.865-10.95,4.865c-6.048,0-10.942-2.18-10.942-4.865
	c0-2.688,4.896-4.866,10.943-4.866C152.389,83.656,157.291,85.834,157.29,88.522L157.29,88.522z"/>
<path fill="#7F8C8D" d="M135.47,92.78c-0.057,0.198-0.072,0.4-0.072,0.606c0,2.688,4.896,4.865,10.943,4.865
	c6.048,0,10.95-2.176,10.95-4.862c0-0.207-0.02-0.408-0.075-0.607c-0.673,2.398-5.288,4.258-10.872,4.258
	c-5.58,0-10.197-1.857-10.87-4.258h-0.003L135.47,92.78z"/>
<path fill="#95A5A6" d="M135.395,82.44v4.18c-0.01,0.023,0,0.05,0,0.074c0,3.023,4.896,5.476,10.943,5.476s10.948-2.45,10.948-5.475
	v-4.257L135.395,82.44L135.395,82.44z"/>
<path fill="#BDC3C7" d="M157.29,82.44c0,2.688-4.902,4.865-10.95,4.865c-6.048,0-10.94-2.178-10.94-4.865s4.896-4.866,10.943-4.866
	c6.047,0,10.95,2.178,10.95,4.866H157.29L157.29,82.44z"/>
<path fill="#7F8C8D" d="M135.47,86.695c-0.057,0.2-0.072,0.402-0.072,0.61c0,2.687,4.896,4.864,10.943,4.864
	c6.048,0,10.95-2.18,10.95-4.868c0-0.207-0.02-0.408-0.075-0.61c-0.673,2.4-5.288,4.26-10.872,4.26c-5.58,0-10.197-1.856-10.87-4.26
	L135.47,86.695L135.47,86.695z"/>
<path fill="#95A5A6" d="M135.395,76.358v4.18c-0.01,0.024,0,0.052,0,0.076c0,3.02,4.896,5.476,10.943,5.476
	s10.948-2.45,10.948-5.476v-4.258h-21.89L135.395,76.358L135.395,76.358z"/>
<path fill="#7F8C8D" d="M135.47,80.613c-0.057,0.2-0.072,0.402-0.072,0.61c0,2.686,4.896,4.864,10.943,4.864
	c6.048,0,10.95-2.18,10.95-4.865c0-0.207-0.02-0.41-0.075-0.61c-0.673,2.4-5.288,4.26-10.872,4.26c-5.58,0-10.197-1.856-10.87-4.26
	L135.47,80.613L135.47,80.613z"/>
<path fill="#BDC3C7" d="M146.34,88.522v9.73c6.048,0,10.95-2.45,10.95-5.475V88.52L146.34,88.522z"/>
<path fill="#ECF0F1" d="M146.34,83.656v9.732c6.048,0,10.95-2.18,10.95-4.867s-4.902-4.862-10.95-4.862V83.656L146.34,83.656z"/>
<path fill="#BDC3C7" d="M146.34,82.44v9.732c6.048,0,10.95-2.45,10.95-5.476v-4.258L146.34,82.44z"/>
<path fill="#95A5A6" d="M157.213,86.695c-0.673,2.4-5.288,4.26-10.872,4.26v1.217c6.05,0,10.95-2.18,10.95-4.867
	c0-0.205-0.02-0.408-0.075-0.61H157.213L157.213,86.695z"/>
<path fill="#ECF0F1" d="M146.34,77.573v9.729c6.048,0,10.95-2.18,10.95-4.867C157.29,79.752,152.388,77.573,146.34,77.573z"/>
<path fill="#BDC3C7" d="M146.34,76.358v9.732c6.048,0,10.95-2.45,10.95-5.476v-4.258h-10.95V76.358z"/>
<path fill="#95A5A6" d="M157.213,80.613c-0.673,2.4-5.288,4.26-10.872,4.26v1.217c6.05,0,10.95-2.18,10.95-4.867
	c0-0.205-0.02-0.408-0.075-0.61L157.213,80.613L157.213,80.613z M157.213,92.78c-0.673,2.397-5.288,4.257-10.872,4.257v1.216
	c6.05,0,10.95-2.18,10.95-4.864c0-0.21-0.02-0.41-0.075-0.61L157.213,92.78L157.213,92.78z"/>
<path fill="#BDC3C7" d="M157.29,76.358c0,2.687-4.902,4.865-10.95,4.865c-6.048,0-10.942-2.18-10.942-4.865
	c0-2.688,4.896-4.866,10.943-4.866C152.389,71.492,157.291,73.67,157.29,76.358L157.29,76.358z"/>
<text transform="matrix(1 0 0 1 135.3911 126.5625)" font-family="'Helvetica'" font-size="12">Web services</text>
<text transform="matrix(1 0 0 1 135.3911 140.9609)" font-family="'Helvetica'" font-size="12">databases</text>
<text transform="matrix(1 0 0 1 464.0527 506.4062)" font-family="'Helvetica'" font-size="12">Mailer</text>
<text transform="matrix(1 0 0 1 464.0527 520.8057)" font-family="'Helvetica'" font-size="12">application</text>
<text transform="matrix(1 0 0 1 348.207 324.082)" font-family="'Helvetica'" font-size="12">Registrations</text>
<text transform="matrix(1 0 0 1 348.207 338.4824)" font-family="'Helvetica'" font-size="12">application</text>
<path fill="#95A5A6" d="M232.07,368.224v4.183c-0.01,0.021,0,0.05,0,0.078c0,3.021,4.897,5.476,10.944,5.476
	c6.047,0,10.948-2.45,10.948-5.474v-4.263l-21.89,0.003L232.07,368.224z"/>
<path fill="#BDC3C7" d="M253.966,368.224c0,2.688-4.9,4.866-10.948,4.866s-10.943-2.18-10.943-4.866
	c0-2.686,4.896-4.861,10.943-4.861s10.948,2.175,10.948,4.859V368.224z"/>
<path fill="#7F8C8D" d="M232.146,372.482c-0.056,0.197-0.07,0.397-0.07,0.604c0,2.688,4.895,4.863,10.942,4.863
	s10.948-2.178,10.948-4.864c0-0.208-0.02-0.41-0.076-0.605c-0.673,2.397-5.288,4.258-10.872,4.258c-5.582,0-10.2-1.858-10.872-4.258
	V372.482z"/>
<path fill="#95A5A6" d="M232.07,362.142v4.183c-0.01,0.022,0,0.054,0,0.077c0,3.02,4.897,5.475,10.944,5.475
	c6.047,0,10.948-2.45,10.948-5.476v-4.263l-21.89,0.002h-0.002V362.142z"/>
<path fill="#BDC3C7" d="M253.966,362.142c0,2.688-4.9,4.866-10.948,4.866s-10.943-2.18-10.943-4.866
	c0-2.686,4.896-4.861,10.943-4.861S253.966,359.454,253.966,362.142z"/>
<path fill="#7F8C8D" d="M232.146,366.4c-0.056,0.197-0.07,0.397-0.07,0.604c0,2.688,4.895,4.865,10.942,4.865
	s10.948-2.177,10.948-4.864c0-0.206-0.02-0.408-0.076-0.604c-0.673,2.396-5.288,4.256-10.872,4.256
	c-5.582,0-10.2-1.858-10.872-4.263V366.4L232.146,366.4z"/>
<path fill="#95A5A6" d="M232.07,356.06v4.183c-0.01,0.021,0,0.05,0,0.077c0,3.02,4.897,5.475,10.944,5.475
	c6.047,0,10.948-2.45,10.948-5.474v-4.263h-21.89L232.07,356.06z"/>
<path fill="#7F8C8D" d="M232.146,360.317c-0.056,0.197-0.07,0.397-0.07,0.604c0,2.688,4.895,4.865,10.942,4.865
	s10.948-2.18,10.948-4.866c0-0.206-0.02-0.41-0.076-0.604c-0.673,2.397-5.288,4.26-10.872,4.26
	C237.436,364.574,232.818,362.716,232.146,360.317L232.146,360.317z"/>
<path fill="#BDC3C7" d="M243.018,368.224v9.73c6.047,0,10.948-2.45,10.948-5.474v-4.263L243.018,368.224z"/>
<path fill="#ECF0F1" d="M243.018,363.36v9.729c6.047,0,10.948-2.18,10.948-4.866C253.966,365.534,249.064,363.359,243.018,363.36z"
	/>
<path fill="#BDC3C7" d="M243.018,362.142v9.732c6.047,0,10.948-2.45,10.948-5.475v-4.265h-10.948V362.142L243.018,362.142z"/>
<path fill="#95A5A6" d="M253.89,366.4c-0.673,2.397-5.288,4.258-10.872,4.258v1.217c6.047,0,10.948-2.18,10.948-4.866
	C253.966,366.799,253.946,366.599,253.89,366.4L253.89,366.4z"/>
<path fill="#ECF0F1" d="M243.018,357.277v9.729c6.047,0,10.948-2.18,10.948-4.867c0-2.685-4.902-4.857-10.948-4.857V357.277
	L243.018,357.277z"/>
<path fill="#BDC3C7" d="M243.018,356.06v9.732c6.047,0,10.948-2.45,10.948-5.475v-4.263L243.018,356.06L243.018,356.06z"/>
<path fill="#95A5A6" d="M253.89,360.317c-0.673,2.397-5.288,4.26-10.872,4.26v1.216c6.047,0,10.948-2.18,10.948-4.866
	C253.966,360.72,253.946,360.517,253.89,360.317L253.89,360.317z M253.89,372.482c-0.673,2.397-5.288,4.258-10.872,4.258v1.217
	c6.047,0,10.948-2.18,10.948-4.865C253.966,372.884,253.946,372.682,253.89,372.482L253.89,372.482z"/>
<path fill="#BDC3C7" d="M253.966,356.06c0,2.688-4.9,4.866-10.948,4.866s-10.943-2.18-10.943-4.866
	c0-2.686,4.896-4.861,10.943-4.861S253.966,353.372,253.966,356.06z"/>
<text transform="matrix(1 0 0 1 232.0669 398.2646)" font-family="'Helvetica'" font-size="12">Who-is-who</text>
<text transform="matrix(1 0 0 1 232.0669 412.6641)" font-family="'Helvetica'" font-size="12">database</text>
<text transform="matrix(1 0 0 1 231.0171 324.0957)" font-family="'Helvetica'" font-size="12">Who-is-who</text>
<text transform="matrix(1 0 0 1 231.0171 338.4961)" font-family="'Helvetica'" font-size="12">application</text>
<text transform="matrix(1 0 0 1 48.9912 323.3438)" font-family="'Helvetica'" font-size="12">IL</text>
<text transform="matrix(1 0 0 1 48.9912 337.7441)" font-family="'Helvetica'" font-size="12">application</text>
<path fill="#95A5A6" d="M47.003,368.224v4.183c-0.01,0.021,0,0.053,0,0.077c0,3.021,4.896,5.475,10.943,5.475
	c6.047,0,10.948-2.45,10.948-5.474v-4.261l-21.89,0.002L47.003,368.224z"/>
<path fill="#BDC3C7" d="M68.897,368.224c0,2.688-4.9,4.865-10.948,4.865c-6.05,0-10.946-2.18-10.946-4.868
	c0-2.688,4.896-4.862,10.943-4.862c6.047,0,10.947,2.178,10.947,4.862L68.897,368.224L68.897,368.224z"/>
<path fill="#7F8C8D" d="M47.077,372.482c-0.056,0.197-0.07,0.397-0.07,0.604c0,2.688,4.895,4.863,10.942,4.863
	c6.046,0,10.945-2.182,10.945-4.864c0-0.208-0.02-0.41-0.076-0.608c-0.673,2.398-5.288,4.263-10.87,4.263
	c-5.582,0-10.2-1.86-10.874-4.263v0.007L47.077,372.482z"/>
<path fill="#95A5A6" d="M47.003,362.142v4.186c-0.01,0.021,0,0.05,0,0.074c0,3.02,4.896,5.475,10.943,5.475
	c6.047,0,10.948-2.45,10.948-5.476v-4.263L47.003,362.142l0.001-0.002L47.003,362.142z"/>
<path fill="#BDC3C7" d="M68.897,362.142c0,2.688-4.9,4.865-10.948,4.865c-6.05,0-10.946-2.178-10.946-4.865
	c0-2.687,4.896-4.862,10.943-4.862c6.047,0,10.947,2.178,10.947,4.862H68.897L68.897,362.142z"/>
<path fill="#7F8C8D" d="M47.077,366.398c-0.056,0.197-0.07,0.397-0.07,0.607c0,2.688,4.895,4.863,10.942,4.863
	c6.046,0,10.945-2.18,10.945-4.864c0-0.207-0.02-0.408-0.076-0.607c-0.673,2.397-5.288,4.26-10.87,4.26
	c-5.582,0-10.2-1.856-10.873-4.258L47.077,366.398z"/>
<path fill="#95A5A6" d="M47.003,356.06v4.183c-0.01,0.021,0,0.05,0,0.076c0,3.02,4.896,5.476,10.943,5.476
	c6.047,0,10.948-2.45,10.948-5.475v-4.263h-21.89L47.003,356.06L47.003,356.06z"/>
<path fill="#7F8C8D" d="M47.077,360.316c-0.056,0.197-0.07,0.397-0.07,0.607c0,2.688,4.895,4.863,10.942,4.863
	c6.046,0,10.945-2.18,10.945-4.866c0-0.207-0.02-0.41-0.076-0.607c-0.673,2.397-5.288,4.26-10.87,4.26
	c-5.582,0-10.2-1.856-10.873-4.258L47.077,360.316z"/>
<path fill="#BDC3C7" d="M57.95,368.224v9.73c6.046,0,10.947-2.45,10.947-5.479v-4.26l-10.948,0.003L57.95,368.224L57.95,368.224z"/>
<path fill="#ECF0F1" d="M57.95,363.36v9.729c6.046,0,10.947-2.18,10.947-4.867C68.897,365.538,63.997,363.359,57.95,363.36z"/>
<path fill="#BDC3C7" d="M57.95,362.142v9.732c6.046,0,10.947-2.45,10.947-5.476v-4.263L57.95,362.142L57.95,362.142z"/>
<path fill="#95A5A6" d="M68.82,366.398c-0.672,2.397-5.287,4.26-10.87,4.26v1.217c6.046,0,10.947-2.18,10.947-4.867
	C68.897,366.802,68.877,366.598,68.82,366.398L68.82,366.398z"/>
<path fill="#ECF0F1" d="M57.95,357.276v9.729c6.046,0,10.947-2.18,10.947-4.867C68.897,359.453,63.997,357.275,57.95,357.276
	L57.95,357.276z"/>
<path fill="#BDC3C7" d="M57.95,356.06v9.732c6.046,0,10.947-2.45,10.947-5.476v-4.263H57.95V356.06L57.95,356.06z"/>
<path fill="#95A5A6" d="M68.82,360.316c-0.672,2.397-5.287,4.26-10.87,4.26v1.217c6.046,0,10.947-2.18,10.947-4.867
	C68.897,360.72,68.877,360.516,68.82,360.316L68.82,360.316z M68.82,372.482c-0.672,2.396-5.287,4.258-10.87,4.258v1.216
	c6.046,0,10.947-2.18,10.947-4.864C68.897,372.884,68.877,372.682,68.82,372.482z"/>
<path fill="#BDC3C7" d="M68.897,356.06c0,2.688-4.9,4.865-10.948,4.865c-6.05,0-10.946-2.18-10.946-4.865
	c0-2.688,4.896-4.862,10.943-4.862c6.047,0,10.947,2.178,10.947,4.862H68.897L68.897,356.06z"/>
<text transform="matrix(1 0 0 1 46.999 398.2637)" font-family="'Helvetica'" font-size="12">IL</text>
<text transform="matrix(1 0 0 1 46.999 412.6641)" font-family="'Helvetica'" font-size="12">database</text>
<text transform="matrix(1 0 0 1 234.1489 49.9756)" font-family="'Helvetica'" font-size="12">Message</text>
<text transform="matrix(1 0 0 1 234.1489 64.376)" font-family="'Helvetica'" font-size="12">queue</text>
<text transform="matrix(1 0 0 1 625.8389 191.2598)" font-family="'Helvetica'" font-size="12">Static user</text>
<text transform="matrix(1 0 0 1 625.8389 205.6602)" font-family="'Helvetica'" font-size="12">content</text>
<path fill="#8E44AD" d="M629.84,150.978c-1.104,0-2,0.896-2,2v18c0,1.104,0.896,2,2,2h14c1.104,0,2-0.896,2-2v-14l-6-6H629.84z"/>
<path fill="#9B59B6" d="M629.84,149.978c-1.104,0-2,0.896-2,2v18c0,1.104,0.896,2,2,2h14c1.104,0,2-0.896,2-2v-14l-6-6H629.84z"/>
<path fill="#8E44AD" d="M645.84,155.978l-6-6v4c0,1.104,0.896,2,2,2H645.84z"/>
<text transform="matrix(1 0 0 1 645.7695 321.2637)" font-family="'Helvetica'" font-size="12">Archive</text>
<text transform="matrix(1 0 0 1 645.7695 335.6641)" font-family="'Helvetica'" font-size="12">website</text>
<path fill="#8E44AD" d="M649.77,280.982c-1.104,0-2,0.896-2,2v18c0,1.104,0.896,2,2,2h14c1.104,0,2-0.896,2-2v-14l-6-6H649.77z"/>
<path fill="#9B59B6" d="M649.77,279.982c-1.104,0-2,0.896-2,2v18c0,1.104,0.896,2,2,2h14c1.104,0,2-0.896,2-2v-14l-6-6H649.77z"/>
<path fill="#8E44AD" d="M665.77,285.982l-6-6v4c0,1.104,0.896,2,2,2H665.77z"/>
<text transform="matrix(1 0 0 1 703.0752 191.4873)" font-family="'Helvetica'" font-size="12">Facebook</text>
<text transform="matrix(1 0 0 1 703.0752 205.8867)" font-family="'Helvetica'" font-size="12">Members map</text>
<path fill="#8E44AD" d="M707.076,151.204c-1.105,0-2,0.896-2,2v18c0,1.104,0.895,2,2,2h14c1.104,0,2-0.896,2-2v-14l-6-6H707.076z"/>
<path fill="#9B59B6" d="M707.076,150.204c-1.105,0-2,0.896-2,2v18c0,1.104,0.895,2,2,2h14c1.104,0,2-0.896,2-2v-14l-6-6H707.076z"/>
<path fill="#8E44AD" d="M723.076,156.204l-6-6v4c0,1.104,0.895,2,2,2H723.076z"/>
<text transform="matrix(1 0 0 1 44.2778 202.3467)" font-family="'Helvetica'" font-size="12">Management</text>
<text transform="matrix(1 0 0 1 44.2778 216.7471)" font-family="'Helvetica'" font-size="12">applications</text>
<path fill="#8E44AD" d="M45.278,158.48c-1.104,0-2,0.896-2,2v18c0,1.104,0.896,2,2,2h14c1.104,0,2-0.896,2-2v-14l-6-6H45.278z"/>
<path fill="#9B59B6" d="M45.278,157.48c-1.104,0-2,0.896-2,2v18c0,1.104,0.896,2,2,2h14c1.104,0,2-0.896,2-2v-14l-6-6H45.278z"/>
<path fill="#8E44AD" d="M61.278,163.48l-6-6v4c0,1.104,0.896,2,2,2H61.278z"/>
<text transform="matrix(1 0 0 1 362.5752 500.9639)" font-family="'Helvetica'" font-size="12">CPT</text>
<text transform="matrix(1 0 0 1 362.5752 515.3643)" font-family="'Helvetica'" font-size="12">application</text>
<path fill="#E67E22" d="M362.575,465.073v9.334l12,8v-9.334L362.575,465.073z"/>
<path fill="#F39C12" d="M386.575,465.073v9.334l-12,8v-9.334L386.575,465.073z"/>
<path fill="#F1C40F" d="M370.575,459.74l-8,5.333l12,8l12-8l-8-5.334L370.575,459.74L370.575,459.74z"/>
<path fill="#F39C12" d="M367.91,462.407v2.666c0,2.21,2.983,4,6.665,4c3.682,0,6.666-1.79,6.666-4v-2.666H367.91L367.91,462.407z"/>
<path fill="#E67E22" d="M367.91,462.407v2.666c0,2.21,2.983,4,6.665,4v-6.666H367.91z"/>
<path fill="#F1C40F" d="M381.24,462.407c0,2.21-2.983,4-6.665,4c-3.682,0-6.666-1.79-6.666-4s2.98-4,6.663-4
	c3.682,0,6.666,1.79,6.666,4H381.24z"/>
<path fill="#ECF0F1" d="M709.204,278.13l-2,5h20l-2-5H709.204z"/>
<path fill="#1ABC9C" d="M714.204,283.13h6l-1-5h-4L714.204,283.13z"/>
<path fill="none" d="M707.204,282.13h20l-2,13h-17L707.204,282.13z"/>
<path fill="#BDC3C7" d="M707.204,283.13h20v16h-20V283.13z"/>
<path fill="#ECF0F1" d="M710.204,293.13c-0.553,0-1,0.447-1,1v2c0,0.553,0.447,1,1,1h6c0.553,0,1-0.447,1-1v-2c0-0.553-0.447-1-1-1
	H710.204z"/>
<path fill="#16A085" d="M714.204,283.13v7l1-1l1,1l1-1l1,1l1-1l1,1v-7H714.204z"/>
<path fill="#95A5A6" d="M710.204,294.13h1v2h-1V294.13z M712.204,294.13h1v2h-1V294.13z M714.204,294.13h1v2h-1V294.13z"/>
<path fill="#7F8C8D" d="M715.204,294.13h1v2h-1V294.13z"/>
<path fill="#BDC3C7" d="M713.204,294.13h1v2h-1V294.13z"/>
<text transform="matrix(1 0 0 1 707.2041 327.834)" font-family="'Helvetica'" font-size="12">Subversion</text>
<text transform="matrix(1 0 0 1 707.2041 342.2344)" font-family="'Helvetica'" font-size="12">server</text>
<text transform="matrix(1 0 0 1 236.0171 498.2441)" font-family="'Helvetica'" font-size="12">SMP</text>
<text transform="matrix(1 0 0 1 236.0171 512.6436)" font-family="'Helvetica'" font-size="12">application</text>
<path fill="#E67E22" d="M236.017,462.355v9.332l12,8v-9.334L236.017,462.355L236.017,462.355z"/>
<path fill="#F39C12" d="M260.018,462.355v9.332l-12,8v-9.334L260.018,462.355L260.018,462.355z"/>
<path fill="#F1C40F" d="M244.017,457.02l-8,5.339l12,7.994l12-7.994l-8-5.335h-8V457.02z"/>
<path fill="#F39C12" d="M241.35,459.688v2.671c0,2.21,2.985,4,6.667,4s6.666-1.79,6.666-4v-2.671H241.35z"/>
<path fill="#E67E22" d="M241.35,459.688v2.671c0,2.21,2.985,4,6.667,4v-6.671H241.35z"/>
<path fill="#F1C40F" d="M254.683,459.688c0,2.213-2.984,4-6.666,4s-6.666-1.787-6.666-4c0-2.21,2.987-4,6.67-4s6.665,1.79,6.665,4
	H254.683L254.683,459.688z"/>
<path fill="#95A5A6" d="M239.072,542.01v4.183c-0.01,0.021,0,0.05,0,0.073c0,3.021,4.896,5.477,10.943,5.477
	c6.047,0,10.947-2.45,10.947-5.479v-4.26l-21.89,0.003V542.01L239.072,542.01z"/>
<path fill="#BDC3C7" d="M260.966,542.01c0,2.688-4.902,4.864-10.95,4.864c-6.048,0-10.942-2.178-10.942-4.865
	c0-2.687,4.896-4.868,10.943-4.868s10.95,2.181,10.95,4.865L260.966,542.01L260.966,542.01z"/>
<path fill="#7F8C8D" d="M239.146,546.267c-0.057,0.2-0.072,0.4-0.072,0.607c0,2.688,4.896,4.865,10.943,4.865
	s10.95-2.185,10.95-4.868c0-0.207-0.022-0.408-0.077-0.607c-0.674,2.398-5.29,4.263-10.873,4.263c-5.582,0-10.197-1.86-10.87-4.263
	L239.146,546.267L239.146,546.267z"/>
<path fill="#95A5A6" d="M239.072,535.927v4.186c-0.01,0.02,0,0.05,0,0.069c0,3.023,4.896,5.479,10.943,5.479
	c6.047,0,10.947-2.452,10.947-5.48v-4.256L239.072,535.927L239.072,535.927z"/>
<path fill="#BDC3C7" d="M260.966,535.927c0,2.688-4.902,4.865-10.95,4.865c-6.048,0-10.942-2.178-10.942-4.865
	c0-2.687,4.896-4.864,10.943-4.864S260.967,533.239,260.966,535.927L260.966,535.927z"/>
<path fill="#7F8C8D" d="M239.146,540.183c-0.057,0.2-0.072,0.402-0.072,0.61c0,2.688,4.896,4.864,10.943,4.864
	s10.95-2.183,10.95-4.865c0-0.207-0.022-0.408-0.077-0.61c-0.674,2.4-5.29,4.263-10.873,4.263
	C244.435,544.442,239.82,542.585,239.146,540.183L239.146,540.183z"/>
<path fill="#95A5A6" d="M239.072,529.845v4.183c-0.01,0.021,0,0.05,0,0.074c0,3.021,4.896,5.479,10.943,5.479
	c6.047,0,10.947-2.45,10.947-5.479v-4.258L239.072,529.845L239.072,529.845z"/>
<path fill="#7F8C8D" d="M239.146,534.1c-0.057,0.202-0.072,0.403-0.072,0.61c0,2.688,4.896,4.865,10.943,4.865
	s10.95-2.183,10.95-4.865c0-0.207-0.022-0.41-0.077-0.61c-0.674,2.4-5.29,4.263-10.873,4.263
	C244.435,538.36,239.82,536.503,239.146,534.1L239.146,534.1z"/>
<path fill="#BDC3C7" d="M250.017,542.01v9.73c6.047,0,10.95-2.45,10.95-5.479v-4.258L250.017,542.01L250.017,542.01z"/>
<path fill="#ECF0F1" d="M250.017,537.144v9.732c6.047,0,10.95-2.18,10.95-4.867c0-2.687-4.903-4.868-10.95-4.868V537.144
	L250.017,537.144z"/>
<path fill="#BDC3C7" d="M250.017,535.927v9.732c6.047,0,10.95-2.454,10.95-5.48v-4.26l-10.95,0.004V535.927L250.017,535.927z"/>
<path fill="#95A5A6" d="M260.89,540.183c-0.674,2.4-5.29,4.263-10.873,4.263v1.218c6.047,0,10.95-2.18,10.95-4.866
	c0-0.207-0.02-0.41-0.077-0.609V540.183z"/>
<path fill="#ECF0F1" d="M250.017,531.062v9.729c6.047,0,10.95-2.18,10.95-4.868C260.967,533.239,256.064,531.062,250.017,531.062
	L250.017,531.062z"/>
<path fill="#BDC3C7" d="M250.017,529.845v9.732c6.047,0,10.95-2.45,10.95-5.479v-4.257L250.017,529.845L250.017,529.845z"/>
<path fill="#95A5A6" d="M260.89,534.1c-0.674,2.4-5.29,4.263-10.873,4.263v1.22c6.047,0,10.95-2.18,10.95-4.868
	C260.967,534.507,260.947,534.304,260.89,534.1z M260.89,546.267c-0.674,2.398-5.29,4.263-10.873,4.263v1.216
	c6.047,0,10.95-2.182,10.95-4.865C260.967,546.668,260.947,546.468,260.89,546.267L260.89,546.267z"/>
<path fill="#BDC3C7" d="M260.966,529.845c0,2.688-4.902,4.865-10.95,4.865c-6.048,0-10.942-2.178-10.942-4.865
	c0-2.687,4.896-4.864,10.943-4.864S260.967,527.158,260.966,529.845L260.966,529.845z"/>
<text transform="matrix(1 0 0 1 239.0669 572.0498)" font-family="'Helvetica'" font-size="12">SMP</text>
<text transform="matrix(1 0 0 1 239.0669 586.4492)" font-family="'Helvetica'" font-size="12">database</text>
<path fill="#95A5A6" d="M361.425,542.007v4.183c-0.01,0.021,0,0.05,0,0.073c0,3.021,4.896,5.477,10.943,5.477
	c6.047,0,10.948-2.45,10.948-5.477v-4.26L361.425,542.007L361.425,542.007z"/>
<path fill="#BDC3C7" d="M383.32,542.007c0,2.688-4.902,4.865-10.95,4.865c-6.048,0-10.942-2.178-10.942-4.865
	c0-2.687,4.896-4.865,10.943-4.865S383.321,539.32,383.32,542.007L383.32,542.007z"/>
<path fill="#7F8C8D" d="M361.5,546.265c-0.057,0.2-0.072,0.4-0.072,0.607c0,2.688,4.896,4.865,10.943,4.865s10.95-2.183,10.95-4.865
	c0-0.207-0.02-0.408-0.075-0.607c-0.673,2.398-5.288,4.263-10.872,4.263c-5.58,0-10.197-1.86-10.87-4.263H361.5L361.5,546.265z"/>
<path fill="#95A5A6" d="M361.425,535.925v4.183c-0.01,0.021,0,0.05,0,0.071c0,3.021,4.896,5.479,10.943,5.479
	c6.047,0,10.948-2.45,10.948-5.479v-4.258l-21.89,0.002L361.425,535.925L361.425,535.925z"/>
<path fill="#BDC3C7" d="M383.32,535.925c0,2.688-4.902,4.865-10.95,4.865c-6.048,0-10.942-2.178-10.942-4.865
	c0-2.687,4.896-4.865,10.943-4.865S383.321,533.237,383.32,535.925L383.32,535.925z"/>
<path fill="#7F8C8D" d="M361.5,540.18c-0.057,0.202-0.072,0.403-0.072,0.61c0,2.688,4.896,4.865,10.943,4.865
	s10.95-2.183,10.95-4.865c0-0.207-0.02-0.408-0.075-0.61c-0.673,2.4-5.288,4.263-10.872,4.263c-5.58,0-10.197-1.856-10.87-4.263
	H361.5L361.5,540.18z"/>
<path fill="#95A5A6" d="M361.425,529.843v4.183c-0.01,0.021,0,0.05,0,0.074c0,3.021,4.896,5.479,10.943,5.479
	c6.047,0,10.948-2.45,10.948-5.479v-4.258L361.425,529.843L361.425,529.843z"/>
<path fill="#7F8C8D" d="M361.5,534.1c-0.057,0.2-0.072,0.4-0.072,0.608c0,2.688,4.896,4.865,10.943,4.865s10.95-2.183,10.95-4.865
	c0-0.207-0.02-0.41-0.075-0.61c-0.673,2.4-5.288,4.263-10.872,4.263c-5.58,0-10.197-1.856-10.87-4.263L361.5,534.1L361.5,534.1z"/>
<path fill="#BDC3C7" d="M372.37,542.007v9.73c6.048,0,10.95-2.45,10.95-5.479v-4.257L372.37,542.007L372.37,542.007z"/>
<path fill="#ECF0F1" d="M372.37,537.142v9.732c6.048,0,10.95-2.18,10.95-4.867C383.32,539.32,378.418,537.142,372.37,537.142z"/>
<path fill="#BDC3C7" d="M372.37,535.925v9.732c6.048,0,10.95-2.45,10.95-5.479v-4.26L372.37,535.925L372.37,535.925z"/>
<path fill="#95A5A6" d="M383.243,540.18c-0.673,2.4-5.288,4.263-10.872,4.263v1.22c6.05,0,10.95-2.182,10.95-4.868
	c0-0.204-0.02-0.407-0.075-0.61L383.243,540.18L383.243,540.18z"/>
<path fill="#ECF0F1" d="M372.37,531.06v9.73c6.048,0,10.95-2.178,10.95-4.867C383.32,533.237,378.418,531.06,372.37,531.06z"/>
<path fill="#BDC3C7" d="M372.37,529.843v9.732c6.048,0,10.95-2.45,10.95-5.479v-4.26L372.37,529.843L372.37,529.843z"/>
<path fill="#95A5A6" d="M383.243,534.1c-0.673,2.4-5.288,4.263-10.872,4.263v1.217c6.05,0,10.95-2.183,10.95-4.867
	c0-0.208-0.02-0.41-0.075-0.61L383.243,534.1L383.243,534.1z M383.243,546.265c-0.673,2.398-5.288,4.263-10.872,4.263v1.216
	c6.05,0,10.95-2.183,10.95-4.864c0-0.208-0.02-0.41-0.075-0.609h-0.002L383.243,546.265z"/>
<path fill="#BDC3C7" d="M383.32,529.843c0,2.688-4.902,4.865-10.95,4.865c-6.048,0-10.942-2.178-10.942-4.865
	c0-2.687,4.896-4.864,10.943-4.864S383.321,527.154,383.32,529.843L383.32,529.843z"/>
<text transform="matrix(1 0 0 1 361.4209 572.0479)" font-family="'Helvetica'" font-size="12">CPT</text>
<text transform="matrix(1 0 0 1 361.4209 586.4473)" font-family="'Helvetica'" font-size="12">database</text>
<text transform="matrix(1 0 0 1 129.519 320.7686)" font-family="'Helvetica'" font-size="12">Aggregator</text>
<text transform="matrix(1 0 0 1 129.519 335.1689)" font-family="'Helvetica'" font-size="12">application</text>
<path fill="#95A5A6" d="M136.243,363.003v4.18c-0.01,0.024,0,0.053,0,0.077c0,3.021,4.896,5.476,10.943,5.476
	s10.948-2.448,10.948-5.476V363L136.243,363.003L136.243,363.003z"/>
<path fill="#BDC3C7" d="M158.138,363.003c0,2.688-4.9,4.865-10.948,4.865s-10.943-2.178-10.943-4.865
	c0-2.687,4.896-4.865,10.943-4.865S158.138,360.316,158.138,363.003z"/>
<path fill="#7F8C8D" d="M136.317,367.26c-0.056,0.2-0.07,0.4-0.07,0.608c0,2.688,4.895,4.864,10.942,4.864
	s10.945-2.181,10.945-4.864c0-0.207-0.02-0.408-0.076-0.607c-0.673,2.4-5.288,4.265-10.87,4.265s-10.2-1.858-10.874-4.263v-0.002
	L136.317,367.26z"/>
<path fill="#95A5A6" d="M136.243,356.92v4.182c-0.01,0.023,0,0.053,0,0.074c0,3.023,4.896,5.479,10.943,5.479
	s10.948-2.45,10.948-5.479v-4.26L136.243,356.92L136.243,356.92z"/>
<path fill="#BDC3C7" d="M158.138,356.92c0,2.69-4.9,4.866-10.948,4.866s-10.943-2.178-10.943-4.865
	c0-2.686,4.896-4.862,10.943-4.862s10.948,2.183,10.948,4.865V356.92L158.138,356.92z"/>
<path fill="#7F8C8D" d="M136.317,361.177c-0.056,0.2-0.07,0.402-0.07,0.61c0,2.687,4.895,4.864,10.942,4.864
	s10.945-2.179,10.945-4.862c0-0.207-0.02-0.408-0.076-0.61c-0.673,2.4-5.288,4.263-10.87,4.263s-10.2-1.857-10.873-4.263
	L136.317,361.177z"/>
<path fill="#95A5A6" d="M136.243,350.84v4.18c-0.01,0.023,0,0.053,0,0.076c0,3.021,4.896,5.479,10.943,5.479
	s10.948-2.45,10.948-5.477v-4.258H136.243L136.243,350.84z"/>
<path fill="#7F8C8D" d="M136.317,355.095c-0.056,0.2-0.07,0.402-0.07,0.61c0,2.687,4.895,4.864,10.942,4.864
	s10.945-2.185,10.945-4.868c0-0.207-0.02-0.41-0.076-0.61c-0.673,2.4-5.288,4.26-10.87,4.26s-10.2-1.854-10.874-4.26v0.003
	L136.317,355.095z"/>
<path fill="#BDC3C7" d="M147.19,363.003v9.73c6.046,0,10.947-2.45,10.947-5.479V363L147.19,363.003z"/>
<path fill="#ECF0F1" d="M147.19,358.138v9.732c6.046,0,10.947-2.18,10.947-4.867C158.137,360.316,153.237,358.138,147.19,358.138z"
	/>
<path fill="#BDC3C7" d="M147.19,356.92v9.733c6.046,0,10.947-2.45,10.947-5.479v-4.26L147.19,356.92L147.19,356.92z"/>
<path fill="#95A5A6" d="M158.062,361.177c-0.673,2.4-5.288,4.261-10.872,4.261v1.22c6.047,0,10.948-2.183,10.948-4.867
	C158.138,361.581,158.118,361.378,158.062,361.177L158.062,361.177z"/>
<path fill="#ECF0F1" d="M147.19,352.056v9.73c6.046,0,10.947-2.178,10.947-4.867c0-2.688-4.9-4.866-10.948-4.866L147.19,352.056
	L147.19,352.056z"/>
<path fill="#BDC3C7" d="M147.19,350.84v9.73c6.046,0,10.947-2.45,10.947-5.478v-4.258H147.19V350.84z"/>
<path fill="#95A5A6" d="M158.062,355.095c-0.673,2.4-5.288,4.263-10.872,4.263v1.218c6.047,0,10.948-2.183,10.948-4.867
	C158.138,355.499,158.118,355.296,158.062,355.095L158.062,355.095z M158.062,367.26c-0.673,2.4-5.288,4.258-10.872,4.258v1.221
	c6.047,0,10.948-2.183,10.948-4.864C158.138,367.665,158.118,367.462,158.062,367.26L158.062,367.26z"/>
<path fill="#BDC3C7" d="M158.138,350.84c0,2.688-4.9,4.864-10.948,4.864s-10.943-2.178-10.943-4.865
	c0-2.687,4.896-4.868,10.943-4.868s10.948,2.183,10.948,4.865V350.84L158.138,350.84z"/>
<text transform="matrix(1 0 0 1 136.2388 393.043)" font-family="'Helvetica'" font-size="12">Aggregator</text>
<text transform="matrix(1 0 0 1 136.2388 407.4434)" font-family="'Helvetica'" font-size="12">database</text>
<text transform="matrix(1 0 0 1 567.125 324.166)" font-family="'Helvetica'" font-size="12">Portal</text>
<text transform="matrix(1 0 0 1 567.125 338.5654)" font-family="'Helvetica'" font-size="12">website</text>
<path fill="#95A5A6" d="M564.847,370.606v4.18c-0.01,0.021,0,0.05,0,0.076c0,3.02,4.896,5.474,10.943,5.474
	s10.948-2.45,10.948-5.474V370.6h-21.893L564.847,370.606L564.847,370.606z"/>
<path fill="#BDC3C7" d="M586.74,370.606c0,2.688-4.9,4.862-10.947,4.862s-10.943-2.18-10.943-4.861
	c0-2.688,4.896-4.865,10.943-4.865s10.948,2.18,10.948,4.868v-0.002L586.74,370.606z"/>
<path fill="#7F8C8D" d="M564.92,374.863c-0.055,0.2-0.07,0.397-0.07,0.604c0,2.69,4.896,4.866,10.943,4.866
	s10.948-2.178,10.948-4.864c0-0.206-0.021-0.404-0.073-0.604c-0.673,2.397-5.288,4.258-10.872,4.258
	c-5.582,0-10.198-1.856-10.872-4.257L564.92,374.863L564.92,374.863z"/>
<path fill="#95A5A6" d="M564.847,364.524v4.18c-0.01,0.021,0,0.053,0,0.076c0,3.021,4.896,5.476,10.943,5.476
	s10.948-2.45,10.948-5.476v-4.263L564.847,364.524L564.847,364.524z"/>
<path fill="#BDC3C7" d="M586.74,364.524c0,2.688-4.9,4.862-10.947,4.862s-10.943-2.18-10.943-4.863
	c0-2.688,4.896-4.865,10.943-4.865s10.948,2.174,10.948,4.859v0.004L586.74,364.524z"/>
<path fill="#7F8C8D" d="M564.92,368.78c-0.055,0.2-0.07,0.397-0.07,0.604c0,2.688,4.896,4.865,10.943,4.865
	s10.948-2.178,10.948-4.865c0-0.206-0.021-0.404-0.073-0.604c-0.673,2.397-5.288,4.26-10.872,4.26
	c-5.582,0-10.198-1.858-10.872-4.26H564.92L564.92,368.78z"/>
<path fill="#95A5A6" d="M564.847,358.442v4.182c-0.01,0.024,0,0.05,0,0.076c0,3.02,4.896,5.474,10.943,5.474
	s10.948-2.45,10.948-5.475v-4.26h-21.893L564.847,358.442L564.847,358.442z"/>
<path fill="#7F8C8D" d="M564.92,362.698c-0.055,0.2-0.07,0.397-0.07,0.604c0,2.688,4.896,4.865,10.943,4.865
	s10.948-2.176,10.948-4.863c0-0.206-0.021-0.41-0.073-0.604c-0.673,2.397-5.288,4.26-10.872,4.26c-5.582,0-10.198-1.86-10.872-4.26
	L564.92,362.698L564.92,362.698z"/>
<path fill="#BDC3C7" d="M575.793,370.606v9.729c6.047,0,10.948-2.45,10.948-5.475V370.6l-10.945,0.006L575.793,370.606
	L575.793,370.606z"/>
<path fill="#ECF0F1" d="M575.793,365.74v9.729c6.047,0,10.948-2.18,10.948-4.861c0-2.688-4.9-4.866-10.945-4.866L575.793,365.74
	L575.793,365.74z"/>
<path fill="#BDC3C7" d="M575.793,364.524v9.729c6.047,0,10.948-2.45,10.948-5.474v-4.257l-10.945,0.002H575.793L575.793,364.524z"/>
<path fill="#95A5A6" d="M586.665,368.78c-0.673,2.397-5.288,4.26-10.872,4.26v1.216c6.047,0,10.948-2.18,10.948-4.866
	c0-0.206-0.02-0.407-0.073-0.607L586.665,368.78L586.665,368.78z"/>
<path fill="#ECF0F1" d="M575.793,359.658v9.729c6.047,0,10.948-2.18,10.948-4.863c0-2.688-4.9-4.864-10.945-4.864L575.793,359.658
	L575.793,359.658z"/>
<path fill="#BDC3C7" d="M575.793,358.442v9.729c6.047,0,10.948-2.45,10.948-5.474v-4.263h-10.945L575.793,358.442L575.793,358.442z"
	/>
<path fill="#95A5A6" d="M586.665,362.698c-0.673,2.397-5.288,4.26-10.872,4.26v1.216c6.047,0,10.948-2.18,10.948-4.866
	c0-0.206-0.02-0.407-0.073-0.607L586.665,362.698L586.665,362.698z M586.665,374.863c-0.673,2.397-5.288,4.258-10.872,4.258v1.22
	c6.047,0,10.948-2.18,10.948-4.865c0-0.207-0.02-0.407-0.073-0.607L586.665,374.863L586.665,374.863z"/>
<path fill="#BDC3C7" d="M586.74,358.442c0,2.688-4.9,4.862-10.947,4.862s-10.943-2.18-10.943-4.862
	c0-2.688,4.896-4.865,10.943-4.865S586.741,355.754,586.74,358.442z"/>
<text transform="matrix(1 0 0 1 564.8428 400.6475)" font-family="'Helvetica'" font-size="12">Portal</text>
<text transform="matrix(1 0 0 1 564.8428 415.0459)" font-family="'Helvetica'" font-size="12">database</text>
<text transform="matrix(1 0 0 1 233.1489 207.9287)" font-family="'Helvetica'" font-size="12">Auth</text>
<text transform="matrix(1 0 0 1 233.1489 222.3281)" font-family="'Helvetica'" font-size="12">application</text>
<path fill="#354A5D" d="M233.15,172.038v9.334l12,8v-9.334L233.15,172.038z"/>
<path fill="#3382B6" d="M257.15,172.038v9.334l-12,8v-9.334L257.15,172.038z"/>
<path fill="#3F9BD7" d="M241.15,166.705l-8,5.333l12,8l12-8l-8-5.333H241.15L241.15,166.705z"/>
<path fill="#3382B6" d="M238.483,169.372v2.666c0,2.21,2.984,4,6.666,4s6.663-1.79,6.663-4v-2.666H238.48H238.483z"/>
<path fill="#354A5D" d="M238.483,169.372v2.666c0,2.21,2.984,4,6.666,4v-6.666h-6.67H238.483L238.483,169.372z"/>
<path fill="#3F9BD7" d="M251.815,169.372c0,2.21-2.984,4-6.666,4s-6.67-1.79-6.67-4s2.985-4,6.667-4s6.665,1.79,6.665,4H251.815
	L251.815,169.372z"/>
<path fill="#354A5D" d="M231.017,286.87v9.334l12,8v-9.334L231.017,286.87z"/>
<path fill="#3382B6" d="M255.017,286.87v9.334l-12,8v-9.334L255.017,286.87z"/>
<path fill="#3F9BD7" d="M239.017,281.538l-8,5.332l12,8l12-8l-8-5.332H239.017z"/>
<path fill="#3382B6" d="M236.35,284.204v2.666c0,2.21,2.985,4,6.667,4s6.666-1.79,6.666-4v-2.666H236.35z"/>
<path fill="#354A5D" d="M236.35,284.204v2.666c0,2.21,2.985,4,6.667,4v-6.666H236.35z"/>
<path fill="#3F9BD7" d="M249.683,284.204c0,2.21-2.984,4-6.666,4s-6.666-1.79-6.666-4s2.987-4,6.67-4s6.665,1.79,6.665,4H249.683
	L249.683,284.204z"/>
<path fill="#354A5D" d="M458.052,166.236v9.334l12,8v-9.334L458.052,166.236z"/>
<path fill="#3382B6" d="M482.052,166.236v9.334l-12,8v-9.334L482.052,166.236z"/>
<path fill="#3F9BD7" d="M466.052,160.903l-8,5.333l12,8l12-8l-8-5.333H466.052L466.052,160.903z"/>
<path fill="#3382B6" d="M463.386,163.57v2.666c0,2.21,2.984,4,6.666,4c3.686,0,6.666-1.79,6.666-4v-2.666H463.386L463.386,163.57z"
	/>
<path fill="#354A5D" d="M463.386,163.57v2.666c0,2.21,2.984,4,6.666,4v-6.666H463.386z"/>
<path fill="#3F9BD7" d="M476.718,163.57c0,2.21-2.98,4-6.666,4c-3.682,0-6.666-1.79-6.666-4c0-2.21,2.984-4,6.666-4
	C473.734,159.57,476.718,161.36,476.718,163.57z"/>
<path fill="#354A5D" d="M547.995,155.862v9.334l12,8v-9.334L547.995,155.862z"/>
<path fill="#3382B6" d="M571.995,155.862v9.334l-12,8v-9.334L571.995,155.862z"/>
<path fill="#3F9BD7" d="M555.995,150.53l-8,5.332l12,8l12-8l-8-5.333L555.995,150.53L555.995,150.53z"/>
<path fill="#3382B6" d="M553.33,153.195v2.666c0,2.21,2.982,4,6.665,4c3.682,0,6.666-1.79,6.666-4v-2.663h-13.33L553.33,153.195
	L553.33,153.195z"/>
<path fill="#354A5D" d="M553.33,153.195v2.666c0,2.21,2.982,4,6.665,4v-6.663h-6.666L553.33,153.195L553.33,153.195z"/>
<path fill="#3F9BD7" d="M566.66,153.195c0,2.21-2.983,4-6.665,4c-3.683,0-6.666-1.79-6.666-4c0-2.21,2.979-4,6.663-4
	C563.674,149.195,566.658,150.987,566.66,153.195L566.66,153.195z"/>
<path fill="#354A5D" d="M137.02,287.908v9.333l12,8v-9.33L137.02,287.908L137.02,287.908z"/>
<path fill="#3382B6" d="M161.02,287.908v9.333l-12,8v-9.33L161.02,287.908L161.02,287.908z"/>
<path fill="#3F9BD7" d="M145.02,282.575l-8,5.333l12,8l12-8l-8-5.333H145.02z"/>
<path fill="#3382B6" d="M142.353,285.242v2.666c0,2.21,2.984,4,6.666,4s6.663-1.79,6.663-4v-2.666H142.35H142.353L142.353,285.242z"
	/>
<path fill="#354A5D" d="M142.353,285.242v2.666c0,2.21,2.984,4,6.666,4v-6.666h-6.67H142.353L142.353,285.242z"/>
<path fill="#3F9BD7" d="M155.685,285.242c0,2.21-2.984,4-6.666,4s-6.67-1.79-6.67-4s2.985-4,6.667-4c3.682,0,6.665,1.79,6.665,4
	H155.685L155.685,285.242z"/>
<path fill="#354A5D" d="M464.18,288.17v9.335l12,8v-9.334L464.18,288.17L464.18,288.17z"/>
<path fill="#3382B6" d="M488.18,288.17v9.335l-12,8v-9.334L488.18,288.17L488.18,288.17z"/>
<path fill="#3F9BD7" d="M472.18,282.837l-8,5.334l12,8l12-8l-8-5.33h-8V282.837L472.18,282.837z"/>
<path fill="#3382B6" d="M469.515,285.505v2.666c0,2.21,2.984,4,6.666,4c3.687,0,6.67-1.79,6.67-4v-2.663h-13.333L469.515,285.505
	L469.515,285.505z"/>
<path fill="#354A5D" d="M469.515,285.505v2.666c0,2.21,2.984,4,6.666,4v-6.663h-6.663L469.515,285.505L469.515,285.505z"/>
<path fill="#3F9BD7" d="M482.847,285.505c0,2.21-2.98,4-6.666,4c-3.68,0-6.663-1.79-6.663-4s2.984-4,6.666-4
	c3.686,0,6.667,1.79,6.667,4H482.847L482.847,285.505z"/>
<path fill="#354A5D" d="M335.712,168.297v9.334l12,8v-9.33l-12-8V168.297L335.712,168.297z"/>
<path fill="#3382B6" d="M359.712,168.297v9.334l-12,8v-9.33l12-8V168.297L359.712,168.297z"/>
<path fill="#3F9BD7" d="M343.712,162.964l-8,5.333l12,8l12-8l-8-5.333H343.712z"/>
<path fill="#3382B6" d="M341.046,165.63v2.667c0,2.21,2.984,4,6.666,4s6.666-1.79,6.666-4v-2.666L341.046,165.63L341.046,165.63z"/>
<path fill="#354A5D" d="M341.046,165.63v2.667c0,2.21,2.984,4,6.666,4v-6.666L341.046,165.63L341.046,165.63z"/>
<path fill="#3F9BD7" d="M354.378,165.63c0,2.21-2.984,4-6.666,4s-6.666-1.79-6.666-4s2.984-4,6.666-4
	C351.394,161.63,354.378,163.422,354.378,165.63z"/>
<path fill="#354A5D" d="M567.125,284.72v9.334l12,8v-9.333L567.125,284.72L567.125,284.72z"/>
<path fill="#3382B6" d="M591.125,284.72v9.334l-12,8v-9.333L591.125,284.72L591.125,284.72z"/>
<path fill="#3F9BD7" d="M575.125,279.387l-8,5.333l12,8l12-8l-8-5.333H575.125z"/>
<path fill="#3382B6" d="M572.46,282.054v2.666c0,2.21,2.983,4,6.665,4s6.666-1.79,6.666-4v-2.666H572.46L572.46,282.054z"/>
<path fill="#354A5D" d="M572.46,282.054v2.666c0,2.21,2.983,4,6.665,4v-6.666H572.46z"/>
<path fill="#3F9BD7" d="M585.79,282.054c0,2.21-2.983,4-6.665,4s-6.666-1.79-6.666-4c0-2.21,2.98-4,6.663-4
	S585.788,279.844,585.79,282.054L585.79,282.054z"/>
<path fill="#354A5D" d="M45.948,287.623v9.334l12,8v-9.334L45.948,287.623z"/>
<path fill="#3382B6" d="M69.948,287.623v9.334l-12,8v-9.334L69.948,287.623z"/>
<path fill="#3F9BD7" d="M53.948,282.29l-8,5.333l12,8l12-8l-8-5.333H53.948z"/>
<path fill="#3382B6" d="M51.282,284.957v2.666c0,2.21,2.984,4,6.666,4c3.682,0,6.666-1.79,6.666-4v-2.666H51.282z"/>
<path fill="#354A5D" d="M51.282,284.957v2.666c0,2.21,2.984,4,6.666,4v-6.666H51.282z"/>
<path fill="#3F9BD7" d="M64.614,284.957c0,2.21-2.984,4-6.666,4c-3.682,0-6.666-1.79-6.666-4s2.984-4,6.666-4
	C61.63,280.957,64.614,282.747,64.614,284.957z"/>
<path fill="#354A5D" d="M348.212,286.884v9.334l12,8v-9.334L348.212,286.884L348.212,286.884z"/>
<path fill="#3382B6" d="M372.212,286.884v9.334l-12,8v-9.334L372.212,286.884L372.212,286.884z"/>
<path fill="#3F9BD7" d="M356.212,281.55l-8,5.334l12,8l12-8l-8-5.333L356.212,281.55L356.212,281.55z"/>
<path fill="#3382B6" d="M353.546,284.218v2.666c0,2.21,2.984,4,6.666,4s6.666-1.79,6.666-4v-2.666H353.546L353.546,284.218z"/>
<path fill="#354A5D" d="M353.546,284.218v2.666c0,2.21,2.984,4,6.666,4v-6.666H353.546z"/>
<path fill="#3F9BD7" d="M366.878,284.218c0,2.21-2.984,4-6.666,4s-6.666-1.79-6.666-4s2.984-4,6.666-4
	C363.894,280.218,366.878,282.008,366.878,284.218z"/>
<path fill="#354A5D" d="M464.052,466.306v9.334l12,8v-9.334L464.052,466.306L464.052,466.306z"/>
<path fill="#3382B6" d="M488.052,466.306v9.334l-12,8v-9.334L488.052,466.306L488.052,466.306z"/>
<path fill="#3F9BD7" d="M472.052,460.973l-8,5.333l12,8l12-8l-8-5.333H472.052z"/>
<path fill="#3382B6" d="M469.386,463.64v2.666c0,2.21,2.984,4,6.666,4c3.686,0,6.666-1.79,6.666-4v-2.666H469.386L469.386,463.64z"
	/>
<path fill="#354A5D" d="M469.386,463.64v2.666c0,2.21,2.984,4,6.666,4v-6.666H469.386z"/>
<path fill="#3F9BD7" d="M482.718,463.64c0,2.21-2.98,4-6.666,4c-3.682,0-6.666-1.79-6.666-4s2.984-4,6.666-4
	C479.734,459.64,482.718,461.43,482.718,463.64z"/>
<path fill="#95A5A6" d="M148.386,97.54v4.178c-0.01,0.025,0,0.053,0,0.077c0,3.022,4.896,5.474,10.943,5.474
	s10.945-2.45,10.945-5.477v-4.258l-21.89,0.002v0.003L148.386,97.54z"/>
<path fill="#BDC3C7" d="M170.28,97.54c0,2.687-4.9,4.864-10.947,4.864s-10.943-2.18-10.943-4.865c0-2.69,4.896-4.87,10.943-4.87
	s10.948,2.18,10.948,4.867L170.28,97.54L170.28,97.54z"/>
<path fill="#7F8C8D" d="M148.46,101.797c-0.056,0.2-0.07,0.4-0.07,0.607c0,2.688,4.895,4.865,10.942,4.865s10.948-2.18,10.948-4.868
	c0-0.207-0.02-0.408-0.076-0.607c-0.673,2.398-5.288,4.258-10.872,4.258c-5.582,0-10.198-1.858-10.872-4.258V101.797L148.46,101.797
	z"/>
<path fill="#95A5A6" d="M148.386,91.457v4.182c-0.01,0.02,0,0.05,0,0.072c0,3.023,4.896,5.476,10.943,5.476
	s10.945-2.45,10.945-5.477v-4.256l-21.89,0.002L148.386,91.457z"/>
<path fill="#BDC3C7" d="M170.28,91.457c0,2.688-4.9,4.865-10.947,4.865s-10.943-2.178-10.943-4.865s4.896-4.866,10.943-4.866
	s10.948,2.18,10.948,4.87L170.28,91.457L170.28,91.457z"/>
<path fill="#7F8C8D" d="M148.46,95.713c-0.056,0.2-0.07,0.402-0.07,0.61c0,2.687,4.895,4.864,10.942,4.864s10.948-2.18,10.948-4.865
	c0-0.207-0.02-0.408-0.076-0.61c-0.673,2.4-5.288,4.26-10.872,4.26C153.75,99.972,149.134,98.115,148.46,95.713L148.46,95.713z"/>
<path fill="#95A5A6" d="M148.386,85.375v4.18c-0.01,0.024,0,0.052,0,0.076c0,3.025,4.896,5.48,10.943,5.48s10.945-2.45,10.945-5.477
	v-4.257h-21.89L148.386,85.375z"/>
<path fill="#7F8C8D" d="M148.46,89.63c-0.056,0.202-0.07,0.403-0.07,0.61c0,2.687,4.895,4.865,10.942,4.865
	s10.948-2.18,10.948-4.865c0-0.207-0.02-0.41-0.076-0.61c-0.673,2.4-5.288,4.26-10.872,4.26
	C153.75,93.89,149.134,92.033,148.46,89.63z"/>
<path fill="#BDC3C7" d="M159.333,97.54v9.73c6.047,0,10.948-2.45,10.948-5.476v-4.258l-10.945,0.003L159.333,97.54L159.333,97.54z"
	/>
<path fill="#ECF0F1" d="M159.333,92.674v9.732c6.047,0,10.948-2.18,10.948-4.867s-4.9-4.868-10.945-4.868L159.333,92.674
	L159.333,92.674z"/>
<path fill="#BDC3C7" d="M159.333,91.457v9.732c6.047,0,10.948-2.454,10.948-5.48v-4.257l-10.945,0.002L159.333,91.457
	L159.333,91.457z"/>
<path fill="#95A5A6" d="M170.205,95.713c-0.673,2.4-5.288,4.26-10.872,4.26v1.217c6.047,0,10.948-2.18,10.948-4.867
	c0-0.206-0.02-0.41-0.073-0.61H170.205L170.205,95.713z"/>
<path fill="#ECF0F1" d="M159.333,86.59v9.732c6.047,0,10.948-2.18,10.948-4.867c0-2.686-4.9-4.864-10.945-4.864L159.333,86.59
	L159.333,86.59z"/>
<path fill="#BDC3C7" d="M159.333,85.375v9.732c6.047,0,10.948-2.45,10.948-5.476v-4.255L159.333,85.375L159.333,85.375z"/>
<path fill="#95A5A6" d="M170.205,89.63c-0.673,2.4-5.288,4.26-10.872,4.26v1.218c6.047,0,10.948-2.18,10.948-4.867
	c0-0.203-0.02-0.406-0.073-0.61L170.205,89.63L170.205,89.63z M170.205,101.797c-0.673,2.398-5.288,4.258-10.872,4.258v1.216
	c6.047,0,10.948-2.176,10.948-4.86c0-0.21-0.02-0.41-0.073-0.61L170.205,101.797L170.205,101.797z"/>
<path fill="#BDC3C7" d="M170.28,85.375c0,2.687-4.9,4.865-10.947,4.865s-10.943-2.18-10.943-4.865c0-2.688,4.896-4.866,10.943-4.866
	s10.948,2.175,10.948,4.863L170.28,85.375L170.28,85.375z"/>
<path fill="#8E44AD" d="M51.278,162.212c-1.104,0-2,0.895-2,2v18c0,1.104,0.896,2,2,2h14c1.104,0,2-0.896,2-2v-14l-6-6H51.278z"/>
<path fill="#9B59B6" d="M51.278,161.212c-1.104,0-2,0.895-2,2v18c0,1.104,0.896,2,2,2h14c1.104,0,2-0.896,2-2v-14l-6-6H51.278z"/>
<path fill="#8E44AD" d="M67.278,167.212l-6-6v4c0,1.104,0.896,2,2,2H67.278z"/>
<path fill="none" stroke="#BDC3C7" stroke-miterlimit="10" d="M9.5,2.533h781v242.79H9.5V2.533z M9.5,252.5h781v182.824H9.5V252.5z
	 M9.5,444.5h781v148H9.5V444.5z"/>
<text transform="matrix(1 0 0 1 20.1489 21.209)" fill="#96A5A6" font-family="'Helvetica'" font-size="12">Server Beuk</text>
<text transform="matrix(1 0 0 1 20.1489 271.209)" fill="#96A5A6" font-family="'Helvetica'" font-size="12">Server Main</text>
<text transform="matrix(1 0 0 1 16.1489 467.6387)" fill="#96A5A6" font-family="'Helvetica'" font-size="12">Server Vidal</text>
</svg>
