<?xml version="1.0" encoding="utf-8"?>
<!-- Generator: Adobe Illustrator 16.0.4, SVG Export Plug-In . SVG Version: 6.00 Build 0)  -->
<!DOCTYPE svg PUBLIC "-//W3C//DTD SVG 1.1//EN" "http://www.w3.org/Graphics/SVG/1.1/DTD/svg11.dtd">
<svg version="1.1" id="Layer_1" xmlns="http://www.w3.org/2000/svg" xmlns:xlink="http://www.w3.org/1999/xlink" x="0px" y="0px"
	 width="820px" height="820px" viewBox="10.5 610.5 820 820" enable-background="new 10.5 610.5 820 820" xml:space="preserve">
<text transform="matrix(1 0 0 1 360.5 978.5)" font-family="'Helvetica'" font-size="12">Forums</text>
<text transform="matrix(1 0 0 1 360.5 992.9004)" font-family="'Helvetica'" font-size="12">application</text>
<path fill="#95A5A6" d="M360.507,1049.53v4.18c-0.015,0.023,0,0.05,0,0.076c0,3.021,4.896,5.475,10.938,5.475
	s10.948-2.45,10.948-5.472v-4.258L360.507,1049.53L360.507,1049.53z"/>
<path fill="#BDC3C7" d="M382.401,1049.53c0,2.687-4.896,4.866-10.948,4.866c-6.048,0-10.938-2.185-10.938-4.867
	c0-2.69,4.894-4.868,10.938-4.868s10.95,2.18,10.95,4.865L382.401,1049.53L382.401,1049.53z"/>
<path fill="#7F8C8D" d="M360.581,1053.787c-0.056,0.2-0.065,0.402-0.065,0.61c0,2.686,4.896,4.857,10.938,4.857
	s10.948-2.18,10.948-4.859c0-0.207-0.02-0.41-0.076-0.61c-0.673,2.396-5.288,4.26-10.872,4.26c-5.582,0-10.195-1.854-10.872-4.26
	V1053.787L360.581,1053.787z"/>
<path fill="#95A5A6" d="M360.507,1043.447v4.182c-0.015,0.023,0,0.05,0,0.074c0,3.021,4.896,5.475,10.938,5.475
	s10.948-2.452,10.948-5.477v-4.258h-21.891v0.002L360.507,1043.447L360.507,1043.447z"/>
<path fill="#BDC3C7" d="M382.401,1043.447c0,2.688-4.896,4.867-10.948,4.867c-6.048,0-10.938-2.185-10.938-4.867
	c0-2.688,4.894-4.865,10.938-4.865S382.401,1040.762,382.401,1043.447L382.401,1043.447z"/>
<path fill="#7F8C8D" d="M360.581,1047.705c-0.056,0.2-0.065,0.402-0.065,0.607c0,2.688,4.896,4.86,10.938,4.86
	s10.948-2.18,10.948-4.86c0-0.205-0.02-0.408-0.076-0.607c-0.673,2.4-5.288,4.258-10.872,4.258
	C365.871,1051.963,361.254,1050.106,360.581,1047.705L360.581,1047.705z"/>
<path fill="#95A5A6" d="M360.507,1037.365v4.18c-0.015,0.025,0,0.05,0,0.076c0,3.025,4.896,5.477,10.938,5.477
	s10.948-2.445,10.948-5.475v-4.257L360.507,1037.365L360.507,1037.365z"/>
<path fill="#7F8C8D" d="M360.581,1041.623c-0.056,0.2-0.065,0.402-0.065,0.607c0,2.688,4.896,4.86,10.938,4.86
	s10.948-2.18,10.948-4.86c0-0.205-0.02-0.408-0.076-0.607c-0.673,2.4-5.288,4.258-10.872,4.258c-5.582,0-10.195-1.853-10.872-4.255
	V1041.623L360.581,1041.623z"/>
<path fill="#BDC3C7" d="M371.453,1049.53v9.729c6.047,0,10.948-2.45,10.948-5.475v-4.258h-10.948V1049.53z"/>
<path fill="#ECF0F1" d="M371.453,1044.665v9.73c6.047,0,10.948-2.183,10.948-4.864c0-2.688-4.896-4.863-10.948-4.863V1044.665
	L371.453,1044.665z"/>
<path fill="#BDC3C7" d="M371.453,1043.447v9.729c6.047,0,10.948-2.452,10.948-5.476v-4.257h-10.948V1043.447L371.453,1043.447z"/>
<path fill="#95A5A6" d="M382.325,1047.705c-0.673,2.4-5.288,4.258-10.872,4.258v1.217c6.047,0,10.948-2.18,10.948-4.859
	C382.401,1048.108,382.382,1047.906,382.325,1047.705L382.325,1047.705z"/>
<path fill="#ECF0F1" d="M371.453,1038.582v9.73c6.047,0,10.948-2.185,10.948-4.865
	C382.401,1040.762,377.502,1038.582,371.453,1038.582L371.453,1038.582z"/>
<path fill="#BDC3C7" d="M371.453,1037.365v9.729c6.047,0,10.948-2.443,10.948-5.474v-4.257L371.453,1037.365L371.453,1037.365z"/>
<path fill="#95A5A6" d="M382.325,1041.623c-0.673,2.4-5.288,4.258-10.872,4.258v1.22c6.047,0,10.948-2.18,10.948-4.859
	c0-0.207-0.02-0.41-0.076-0.61V1041.623L382.325,1041.623z M382.325,1053.787c-0.673,2.4-5.288,4.26-10.872,4.26v1.215
	c6.047,0,10.948-2.18,10.948-4.859C382.401,1054.19,382.382,1053.988,382.325,1053.787L382.325,1053.787z"/>
<path fill="#BDC3C7" d="M382.401,1037.365c0,2.688-4.896,4.867-10.948,4.867c-6.048,0-10.938-2.185-10.938-4.867
	c0-2.688,4.894-4.865,10.938-4.865S382.401,1034.68,382.401,1037.365L382.401,1037.365z"/>
<text transform="matrix(1 0 0 1 360.5 1077.5)" font-family="'Helvetica'" font-size="12">Forums</text>
<text transform="matrix(1 0 0 1 360.5 1091.8984)" font-family="'Helvetica'" font-size="12">database</text>
<text transform="matrix(1 0 0 1 279.5 825.5)" font-family="'Helvetica'" font-size="12">worldskills.org</text>
<text transform="matrix(1 0 0 1 279.5 839.8984)" font-family="'Helvetica'" font-size="12">website</text>
<text transform="matrix(1 0 0 1 441.5 825.5)" font-family="'Helvetica'" font-size="12">WSC2015</text>
<text transform="matrix(1 0 0 1 441.5 839.8975)" font-family="'Helvetica'" font-size="12">website</text>
<text transform="matrix(1 0 0 1 522.5 825.5)" font-family="'Helvetica'" font-size="12">WSC2017</text>
<text transform="matrix(1 0 0 1 522.5 839.9004)" font-family="'Helvetica'" font-size="12">website</text>
<path fill="#95A5A6" d="M441.504,653.529v4.183c-0.01,0.024,0,0.05,0,0.075c0,3.022,4.896,5.474,10.943,5.474
	s10.948-2.45,10.948-5.474v-4.26h-21.89L441.504,653.529L441.504,653.529z"/>
<path fill="#BDC3C7" d="M463.4,653.529c0,2.688-4.902,4.866-10.95,4.866s-10.942-2.18-10.942-4.866
	c0-2.686,4.896-4.865,10.943-4.865S463.401,650.844,463.4,653.529L463.4,653.529z"/>
<path fill="#7F8C8D" d="M441.578,657.787c-0.056,0.201-0.07,0.4-0.07,0.608c0,2.687,4.896,4.865,10.942,4.865
	s10.948-2.181,10.948-4.865c0-0.206-0.02-0.409-0.076-0.608c-0.673,2.4-5.288,4.259-10.872,4.259
	C446.868,662.046,442.252,660.188,441.578,657.787L441.578,657.787z"/>
<path fill="#95A5A6" d="M441.504,647.447v4.183c-0.01,0.024,0,0.05,0,0.075c0,3.022,4.896,5.475,10.943,5.475
	s10.948-2.45,10.948-5.475v-4.258H441.504L441.504,647.447z"/>
<path fill="#BDC3C7" d="M463.4,647.447c0,2.688-4.902,4.867-10.95,4.867s-10.942-2.179-10.942-4.867
	c0-2.687,4.896-4.865,10.943-4.865S463.401,644.762,463.4,647.447L463.4,647.447z"/>
<path fill="#7F8C8D" d="M441.578,651.705c-0.056,0.199-0.07,0.402-0.07,0.607c0,2.688,4.896,4.866,10.942,4.866
	s10.948-2.176,10.948-4.862c0-0.207-0.02-0.408-0.076-0.609c-0.673,2.4-5.288,4.258-10.872,4.258
	c-5.582,0-10.198-1.857-10.872-4.258V651.705L441.578,651.705z"/>
<path fill="#95A5A6" d="M441.504,641.365v4.183c-0.01,0.024,0,0.05,0,0.075c0,3.022,4.896,5.475,10.943,5.475
	s10.948-2.449,10.948-5.475v-4.258H441.504L441.504,641.365z"/>
<path fill="#7F8C8D" d="M441.578,645.623c-0.056,0.199-0.07,0.402-0.07,0.607c0,2.688,4.896,4.866,10.942,4.866
	s10.948-2.181,10.948-4.87c0-0.205-0.02-0.41-0.076-0.607c-0.673,2.4-5.288,4.259-10.872,4.259c-5.582,0-10.198-1.856-10.872-4.257
	V645.623L441.578,645.623z"/>
<path fill="#BDC3C7" d="M452.45,653.529v9.73c6.047,0,10.948-2.45,10.948-5.473v-4.26H452.45V653.529L452.45,653.529z"/>
<path fill="#ECF0F1" d="M452.45,648.664v9.732c6.047,0,10.948-2.18,10.948-4.869c0-2.69-4.9-4.865-10.948-4.865V648.664
	L452.45,648.664z"/>
<path fill="#BDC3C7" d="M452.45,647.447v9.732c6.047,0,10.948-2.449,10.948-5.475v-4.258H452.45z"/>
<path fill="#95A5A6" d="M463.322,651.705c-0.673,2.399-5.288,4.258-10.872,4.258v1.217c6.047,0,10.948-2.18,10.948-4.865
	C463.398,652.107,463.379,651.904,463.322,651.705L463.322,651.705z"/>
<path fill="#ECF0F1" d="M452.45,642.582v9.729c6.047,0,10.948-2.177,10.948-4.864c0-2.688-4.9-4.869-10.948-4.869V642.582
	L452.45,642.582z"/>
<path fill="#BDC3C7" d="M452.45,641.365v9.732c6.047,0,10.948-2.449,10.948-5.475v-4.258H452.45L452.45,641.365z"/>
<path fill="#95A5A6" d="M463.322,645.623c-0.673,2.4-5.288,4.258-10.872,4.258v1.217c6.047,0,10.948-2.18,10.948-4.865
	C463.398,646.025,463.379,645.822,463.322,645.623L463.322,645.623z M463.322,657.787c-0.673,2.4-5.288,4.259-10.872,4.259v1.216
	c6.047,0,10.948-2.18,10.948-4.865C463.398,658.187,463.379,657.986,463.322,657.787L463.322,657.787z"/>
<path fill="#BDC3C7" d="M463.4,641.365c0,2.688-4.902,4.867-10.95,4.867s-10.942-2.181-10.942-4.867
	c0-2.686,4.896-4.865,10.943-4.865S463.401,638.68,463.4,641.365L463.4,641.365z"/>
<text transform="matrix(1 0 0 1 279.5 681.5)" font-family="'Helvetica'" font-size="12">worldskills.org</text>
<text transform="matrix(1 0 0 1 279.5 695.8994)" font-family="'Helvetica'" font-size="12">database</text>
<path fill="#95A5A6" d="M522.507,653.529v4.18c-0.015,0.025,0,0.054,0,0.078c0,3.022,4.896,5.475,10.938,5.475
	s10.947-2.45,10.947-5.477v-4.258l-21.892,0.002H522.507L522.507,653.529z"/>
<path fill="#BDC3C7" d="M544.4,653.529c0,2.688-4.9,4.866-10.946,4.866s-10.938-2.18-10.938-4.866c0-2.686,4.896-4.865,10.939-4.865
	S544.4,650.844,544.4,653.529z"/>
<path fill="#7F8C8D" d="M522.58,657.787c-0.054,0.201-0.065,0.4-0.065,0.608c0,2.688,4.896,4.865,10.939,4.865
	s10.946-2.179,10.946-4.869c0-0.207-0.02-0.41-0.075-0.608c-0.672,2.4-5.287,4.26-10.87,4.26c-5.583-0.002-10.195-1.859-10.874-4.26
	v0.002L522.58,657.787z"/>
<path fill="#95A5A6" d="M522.507,647.447v4.182c-0.015,0.023,0,0.051,0,0.074c0,3.023,4.896,5.476,10.938,5.476
	s10.947-2.45,10.947-5.476v-4.258l-21.892,0.002H522.507L522.507,647.447z"/>
<path fill="#BDC3C7" d="M544.4,647.447c0,2.688-4.9,4.866-10.946,4.866s-10.938-2.178-10.938-4.866
	c0-2.687,4.896-4.865,10.939-4.865S544.4,644.762,544.4,647.447z"/>
<path fill="#7F8C8D" d="M522.58,651.705c-0.054,0.199-0.065,0.401-0.065,0.607c0,2.689,4.896,4.87,10.939,4.87
	s10.946-2.185,10.946-4.871c0-0.205-0.02-0.407-0.075-0.606c-0.672,2.399-5.287,4.258-10.87,4.258s-10.195-1.854-10.874-4.256
	L522.58,651.705L522.58,651.705z"/>
<path fill="#95A5A6" d="M522.507,641.365v4.18c-0.015,0.025,0,0.053,0,0.076c0,3.023,4.896,5.477,10.938,5.477
	s10.947-2.45,10.947-5.477v-4.258H522.5L522.507,641.365L522.507,641.365z"/>
<path fill="#7F8C8D" d="M522.58,645.621c-0.054,0.201-0.065,0.403-0.065,0.61c0,2.687,4.896,4.865,10.939,4.865
	s10.946-2.181,10.946-4.865c0-0.207-0.02-0.409-0.075-0.61c-0.672,2.4-5.287,4.261-10.87,4.261
	C527.872,649.879,523.256,648.023,522.58,645.621L522.58,645.621z"/>
<path fill="#BDC3C7" d="M533.454,653.529v9.73c6.047,0,10.947-2.45,10.947-5.475v-4.258l-10.944,0.002H533.454L533.454,653.529z"/>
<path fill="#ECF0F1" d="M533.454,648.666v9.729c6.047,0,10.947-2.178,10.947-4.864c0-2.688-4.9-4.869-10.944-4.869L533.454,648.666
	L533.454,648.666z"/>
<path fill="#BDC3C7" d="M533.454,647.447v9.732c6.047,0,10.947-2.45,10.947-5.477v-4.258l-10.944,0.002H533.454L533.454,647.447z"/>
<path fill="#95A5A6" d="M544.325,651.705c-0.672,2.399-5.287,4.258-10.87,4.258v1.22c6.046,0,10.946-2.181,10.946-4.865
	c0-0.207-0.02-0.409-0.073-0.61L544.325,651.705L544.325,651.705z"/>
<path fill="#ECF0F1" d="M533.454,642.582v9.729c6.047,0,10.947-2.178,10.947-4.864s-4.9-4.865-10.944-4.865H533.454L533.454,642.582
	z"/>
<path fill="#BDC3C7" d="M533.454,641.365v9.732c6.047,0,10.947-2.45,10.947-5.477v-4.258h-10.944L533.454,641.365L533.454,641.365z"
	/>
<path fill="#95A5A6" d="M544.325,645.621c-0.672,2.4-5.287,4.261-10.87,4.261v1.217c6.046,0,10.946-2.181,10.946-4.866
	c0-0.203-0.02-0.41-0.073-0.609L544.325,645.621L544.325,645.621z M544.325,657.787c-0.672,2.4-5.287,4.261-10.87,4.261v1.214
	c6.046,0,10.946-2.178,10.946-4.864c0-0.208-0.02-0.409-0.073-0.61H544.325L544.325,657.787z"/>
<path fill="#BDC3C7" d="M544.4,641.365c0,2.688-4.9,4.866-10.946,4.866s-10.938-2.18-10.938-4.866c0-2.686,4.896-4.865,10.939-4.865
	S544.4,638.68,544.4,641.365z"/>
<text transform="matrix(1 0 0 1 441.5 681.5)" font-family="'Helvetica'" font-size="12">WSC2015</text>
<text transform="matrix(1 0 0 1 441.5 695.8994)" font-family="'Helvetica'" font-size="12">database</text>
<path fill="#95A5A6" d="M279.504,653.529v4.18c-0.01,0.024,0,0.053,0,0.076c0,3.023,4.896,5.476,10.943,5.476
	s10.947-2.45,10.947-5.476v-4.258L279.504,653.529z"/>
<path fill="#BDC3C7" d="M301.399,653.529c0,2.688-4.902,4.866-10.95,4.866s-10.942-2.18-10.942-4.866
	c0-2.686,4.896-4.865,10.943-4.865S301.4,650.844,301.399,653.529L301.399,653.529z"/>
<path fill="#7F8C8D" d="M279.579,657.787c-0.057,0.201-0.072,0.4-0.072,0.608c0,2.688,4.896,4.865,10.943,4.865
	s10.95-2.181,10.95-4.865c0-0.207-0.022-0.409-0.077-0.608c-0.674,2.4-5.29,4.26-10.873,4.26
	C284.868,662.047,280.252,660.188,279.579,657.787L279.579,657.787z"/>
<path fill="#95A5A6" d="M279.504,647.447v4.182c-0.01,0.023,0,0.051,0,0.074c0,3.023,4.896,5.476,10.943,5.476
	s10.947-2.45,10.947-5.476v-4.258L279.504,647.447z"/>
<path fill="#BDC3C7" d="M301.399,647.447c0,2.688-4.902,4.866-10.95,4.866s-10.942-2.178-10.942-4.866
	c0-2.687,4.896-4.865,10.943-4.865S301.4,644.762,301.399,647.447L301.399,647.447z"/>
<path fill="#7F8C8D" d="M279.579,651.705c-0.057,0.201-0.072,0.4-0.072,0.607c0,2.688,4.896,4.866,10.943,4.866
	s10.95-2.181,10.95-4.866c0-0.206-0.022-0.408-0.077-0.607c-0.674,2.399-5.29,4.254-10.873,4.254c-5.582,0-10.197-1.855-10.87-4.258
	L279.579,651.705L279.579,651.705z"/>
<path fill="#95A5A6" d="M279.504,641.365v4.18c-0.01,0.025,0,0.051,0,0.076c0,3.022,4.896,5.476,10.943,5.476
	s10.947-2.45,10.947-5.474v-4.258H279.504L279.504,641.365L279.504,641.365z"/>
<path fill="#7F8C8D" d="M279.579,645.623c-0.057,0.199-0.072,0.401-0.072,0.607c0,2.688,4.896,4.866,10.943,4.866
	s10.95-2.181,10.95-4.863c0-0.206-0.022-0.409-0.077-0.608c-0.674,2.4-5.29,4.258-10.873,4.258c-5.582,0-10.197-1.855-10.87-4.258
	L279.579,645.623L279.579,645.623z"/>
<path fill="#BDC3C7" d="M290.45,653.529v9.73c6.047,0,10.95-2.45,10.95-5.475v-4.258L290.45,653.529z"/>
<path fill="#ECF0F1" d="M290.45,648.666v9.729c6.047,0,10.95-2.178,10.95-4.864C301.4,650.844,296.497,648.666,290.45,648.666z"/>
<path fill="#BDC3C7" d="M290.45,647.447v9.732c6.047,0,10.95-2.45,10.95-5.477v-4.258L290.45,647.447z"/>
<path fill="#95A5A6" d="M301.323,651.705c-0.674,2.4-5.29,4.258-10.873,4.258v1.218c6.047,0,10.95-2.181,10.95-4.866
	C301.4,652.104,301.379,651.904,301.323,651.705L301.323,651.705z"/>
<path fill="#ECF0F1" d="M290.45,642.582v9.729c6.047,0,10.95-2.178,10.95-4.864c0-2.683-4.903-4.863-10.95-4.863V642.582
	L290.45,642.582z"/>
<path fill="#BDC3C7" d="M290.45,641.365v9.732c6.047,0,10.95-2.45,10.95-5.477v-4.258h-10.95V641.365z"/>
<path fill="#95A5A6" d="M301.323,645.623c-0.674,2.399-5.29,4.258-10.873,4.258v1.218c6.047,0,10.95-2.181,10.95-4.866
	C301.4,646.025,301.379,645.822,301.323,645.623z M301.323,657.787c-0.674,2.4-5.29,4.26-10.873,4.26v1.215
	c6.047,0,10.95-2.178,10.95-4.864C301.4,658.19,301.379,657.988,301.323,657.787z"/>
<path fill="#BDC3C7" d="M301.399,641.365c0,2.688-4.902,4.866-10.95,4.866s-10.942-2.18-10.942-4.866
	c0-2.686,4.896-4.865,10.943-4.865S301.4,638.68,301.399,641.365L301.399,641.365z"/>
<text transform="matrix(1 0 0 1 522.5 681.5)" font-family="'Helvetica'" font-size="12">WSC2017</text>
<text transform="matrix(1 0 0 1 522.5 695.8994)" font-family="'Helvetica'" font-size="12">database</text>
<path fill="#E67E22" d="M117.504,785.883v11.03l15.887,10.587v-11.025l-15.887-10.588V785.883L117.504,785.883z"/>
<path fill="#F39C12" d="M149.27,785.883v11.03l-15.882,10.586v-11.028L149.27,785.883z"/>
<path fill="#F1C40F" d="M133.388,775.735L117.5,785.883l15.887,10.588l15.88-10.588l-15.883-10.147H133.388L133.388,775.735z"/>
<path fill="#E67E22" d="M128.754,778.713v1.984c0,1.645,2.074,2.98,4.637,2.98c2.56,0,4.633-1.334,4.633-2.98v-1.984H128.754
	L128.754,778.713z M128.754,778.713v1.984c0,1.645,2.074,2.98,4.637,2.98v-4.965H128.754L128.754,778.713z"/>
<path fill="#F1C40F" d="M138.02,778.713c0,1.645-2.073,2.977-4.633,2.977c-2.565,0-4.64-1.329-4.64-2.973
	c0-1.645,2.074-2.98,4.637-2.98c2.558,0,4.632,1.334,4.632,2.98l0.002-0.002L138.02,778.713z"/>
<path fill="#E67E22" d="M137.358,784.006v1.985c0,1.646,2.072,2.978,4.632,2.978c2.562,0,4.633-1.332,4.633-2.978v-1.985H137.358z
	 M137.358,784.006v1.985c0,1.646,2.072,2.978,4.632,2.978v-4.963H137.358z"/>
<path fill="#F1C40F" d="M146.623,784.006c0,1.646-2.07,2.98-4.633,2.98c-2.56,0-4.633-1.334-4.633-2.98
	c0-1.645,2.07-2.978,4.63-2.978c2.56,0,4.633,1.332,4.633,2.976L146.623,784.006L146.623,784.006z"/>
<path fill="#E67E22" d="M120.15,783.346v1.984c0,1.648,2.074,2.98,4.633,2.98c2.56,0,4.633-1.332,4.633-2.98v-1.98h-9.266V783.346
	L120.15,783.346z M120.15,783.346v1.984c0,1.648,2.074,2.98,4.633,2.98v-4.961h-4.633V783.346L120.15,783.346z"/>
<path fill="#F1C40F" d="M129.416,783.346c0,1.646-2.074,2.979-4.633,2.979c-2.56,0-4.633-1.333-4.633-2.979s2.074-2.979,4.633-2.979
	C127.343,780.366,129.416,781.701,129.416,783.346z"/>
<path fill="#E67E22" d="M128.754,788.639v1.985c0,1.646,2.074,2.978,4.637,2.978c2.56,0,4.633-1.332,4.633-2.978v-1.985H128.754
	L128.754,788.639z M128.754,788.639v1.985c0,1.646,2.074,2.978,4.637,2.978v-4.963H128.754z"/>
<path fill="#F1C40F" d="M138.02,788.639c0,1.646-2.073,2.98-4.633,2.98c-2.565,0-4.64-1.334-4.64-2.98
	c0-1.645,2.074-2.978,4.637-2.978c2.558,0,4.632,1.334,4.632,2.978h0.002H138.02z"/>
<text transform="matrix(1 0 0 1 117.5 825.5)" font-family="'Helvetica'" font-size="12">Web</text>
<text transform="matrix(1 0 0 1 117.5 839.9004)" font-family="'Helvetica'" font-size="12">services</text>
<path fill="#95A5A6" d="M118.614,644.751v4.181c-0.01,0.024,0,0.053,0,0.076c0,3.02,4.896,5.473,10.943,5.473
	s10.948-2.451,10.948-5.475v-4.26l-21.89,0.002L118.614,644.751L118.614,644.751z"/>
<path fill="#BDC3C7" d="M140.509,644.751c0,2.688-4.902,4.865-10.95,4.865c-6.048,0-10.942-2.181-10.942-4.865
	c0-2.688,4.896-4.866,10.943-4.866C135.608,639.885,140.51,642.062,140.509,644.751L140.509,644.751z"/>
<path fill="#7F8C8D" d="M118.689,649.009c-0.057,0.198-0.072,0.4-0.072,0.606c0,2.688,4.896,4.865,10.943,4.865
	c6.048,0,10.95-2.176,10.95-4.862c0-0.207-0.02-0.408-0.075-0.606c-0.673,2.397-5.288,4.258-10.872,4.258
	c-5.58,0-10.197-1.857-10.87-4.258h-0.003L118.689,649.009z"/>
<path fill="#95A5A6" d="M118.614,638.669v4.181c-0.01,0.022,0,0.049,0,0.073c0,3.022,4.896,5.476,10.943,5.476
	s10.948-2.449,10.948-5.475v-4.257L118.614,638.669L118.614,638.669z"/>
<path fill="#BDC3C7" d="M140.509,638.669c0,2.688-4.902,4.865-10.95,4.865c-6.048,0-10.94-2.179-10.94-4.865
	s4.896-4.866,10.943-4.866c6.047,0,10.95,2.178,10.95,4.866H140.509L140.509,638.669z"/>
<path fill="#7F8C8D" d="M118.689,642.924c-0.057,0.2-0.072,0.402-0.072,0.61c0,2.687,4.896,4.864,10.943,4.864
	c6.048,0,10.95-2.18,10.95-4.869c0-0.207-0.02-0.407-0.075-0.609c-0.673,2.4-5.288,4.26-10.872,4.26
	c-5.58,0-10.197-1.855-10.87-4.26L118.689,642.924L118.689,642.924z"/>
<path fill="#95A5A6" d="M118.614,632.587v4.181c-0.01,0.023,0,0.051,0,0.076c0,3.02,4.896,5.475,10.943,5.475
	s10.948-2.449,10.948-5.475v-4.259h-21.89L118.614,632.587L118.614,632.587z"/>
<path fill="#7F8C8D" d="M118.689,636.842c-0.057,0.2-0.072,0.402-0.072,0.61c0,2.687,4.896,4.864,10.943,4.864
	c6.048,0,10.95-2.18,10.95-4.865c0-0.207-0.02-0.41-0.075-0.61c-0.673,2.4-5.288,4.261-10.872,4.261
	c-5.58,0-10.197-1.856-10.87-4.261L118.689,636.842L118.689,636.842z"/>
<path fill="#BDC3C7" d="M129.559,644.751v9.729c6.048,0,10.95-2.449,10.95-5.475v-4.257L129.559,644.751z"/>
<path fill="#ECF0F1" d="M129.559,639.885v9.732c6.048,0,10.95-2.18,10.95-4.867s-4.902-4.861-10.95-4.861V639.885L129.559,639.885z"
	/>
<path fill="#BDC3C7" d="M129.559,638.669v9.731c6.048,0,10.95-2.449,10.95-5.476v-4.258L129.559,638.669z"/>
<path fill="#95A5A6" d="M140.432,642.924c-0.673,2.4-5.288,4.26-10.872,4.26v1.217c6.05,0,10.95-2.18,10.95-4.866
	c0-0.205-0.02-0.408-0.075-0.61H140.432L140.432,642.924z"/>
<path fill="#ECF0F1" d="M129.559,633.803v9.729c6.048,0,10.95-2.18,10.95-4.867C140.509,635.98,135.607,633.803,129.559,633.803z"/>
<path fill="#BDC3C7" d="M129.559,632.587v9.731c6.048,0,10.95-2.449,10.95-5.475v-4.259h-10.95V632.587z"/>
<path fill="#95A5A6" d="M140.432,636.842c-0.673,2.4-5.288,4.26-10.872,4.26v1.217c6.05,0,10.95-2.18,10.95-4.866
	c0-0.205-0.02-0.408-0.075-0.61H140.432L140.432,636.842z M140.432,649.009c-0.673,2.397-5.288,4.257-10.872,4.257v1.217
	c6.05,0,10.95-2.18,10.95-4.864c0-0.21-0.02-0.41-0.075-0.61L140.432,649.009L140.432,649.009z"/>
<path fill="#BDC3C7" d="M140.509,632.587c0,2.687-4.902,4.865-10.95,4.865c-6.048,0-10.942-2.181-10.942-4.865
	c0-2.688,4.896-4.866,10.943-4.866C135.608,627.721,140.51,629.898,140.509,632.587L140.509,632.587z"/>
<text transform="matrix(1 0 0 1 117.5 681.5)" font-family="'Helvetica'" font-size="12">Web services</text>
<text transform="matrix(1 0 0 1 117.5 695.8984)" font-family="'Helvetica'" font-size="12">databases</text>
<text transform="matrix(1 0 0 1 198.5 1194.5)" font-family="'Helvetica'" font-size="12">Mailer</text>
<text transform="matrix(1 0 0 1 198.5 1208.8994)" font-family="'Helvetica'" font-size="12">application</text>
<text transform="matrix(1 0 0 1 279.5 978.5)" font-family="'Helvetica'" font-size="12">Registrations</text>
<text transform="matrix(1 0 0 1 279.5 992.9004)" font-family="'Helvetica'" font-size="12">application</text>
<path fill="#95A5A6" d="M198.504,1049.523v4.185c-0.01,0.021,0,0.05,0,0.078c0,3.021,4.897,5.476,10.944,5.476
	c6.047,0,10.948-2.45,10.948-5.474v-4.265l-21.89,0.003L198.504,1049.523z"/>
<path fill="#BDC3C7" d="M220.4,1049.523c0,2.688-4.9,4.866-10.948,4.866s-10.943-2.18-10.943-4.866
	c0-2.686,4.896-4.859,10.943-4.859s10.948,2.175,10.948,4.857V1049.523z"/>
<path fill="#7F8C8D" d="M198.581,1053.782c-0.056,0.195-0.07,0.396-0.07,0.604c0,2.688,4.895,4.863,10.942,4.863
	s10.948-2.178,10.948-4.864c0-0.208-0.02-0.41-0.076-0.604c-0.673,2.396-5.288,4.258-10.872,4.258
	C203.871,1058.039,199.252,1056.181,198.581,1053.782L198.581,1053.782z"/>
<path fill="#95A5A6" d="M198.504,1043.441v4.185c-0.01,0.021,0,0.054,0,0.077c0,3.02,4.897,5.475,10.944,5.475
	c6.047,0,10.948-2.45,10.948-5.476v-4.265l-21.89,0.002h-0.002V1043.441z"/>
<path fill="#BDC3C7" d="M220.4,1043.441c0,2.688-4.9,4.866-10.948,4.866s-10.943-2.18-10.943-4.866
	c0-2.686,4.896-4.859,10.943-4.859S220.4,1040.754,220.4,1043.441z"/>
<path fill="#7F8C8D" d="M198.581,1047.7c-0.056,0.195-0.07,0.396-0.07,0.604c0,2.688,4.895,4.865,10.942,4.865
	s10.948-2.177,10.948-4.864c0-0.206-0.02-0.408-0.076-0.604c-0.673,2.396-5.288,4.256-10.872,4.256
	c-5.582,0-10.2-1.858-10.872-4.265V1047.7L198.581,1047.7z"/>
<path fill="#95A5A6" d="M198.504,1037.359v4.185c-0.01,0.021,0,0.05,0,0.077c0,3.02,4.897,5.475,10.944,5.475
	c6.047,0,10.948-2.45,10.948-5.474v-4.265h-21.89L198.504,1037.359z"/>
<path fill="#7F8C8D" d="M198.581,1041.617c-0.056,0.195-0.07,0.396-0.07,0.604c0,2.688,4.895,4.865,10.942,4.865
	s10.948-2.18,10.948-4.866c0-0.206-0.02-0.41-0.076-0.604c-0.673,2.396-5.288,4.26-10.872,4.26
	C203.871,1045.874,199.252,1044.016,198.581,1041.617L198.581,1041.617z"/>
<path fill="#BDC3C7" d="M209.453,1049.523v9.73c6.047,0,10.948-2.45,10.948-5.474v-4.265L209.453,1049.523z"/>
<path fill="#ECF0F1" d="M209.453,1044.66v9.729c6.047,0,10.948-2.18,10.948-4.866C220.4,1046.834,215.499,1044.659,209.453,1044.66z
	"/>
<path fill="#BDC3C7" d="M209.453,1043.441v9.732c6.047,0,10.948-2.45,10.948-5.475v-4.267h-10.948V1043.441L209.453,1043.441z"/>
<path fill="#95A5A6" d="M220.325,1047.7c-0.673,2.396-5.288,4.258-10.872,4.258v1.217c6.047,0,10.948-2.18,10.948-4.866
	C220.4,1048.099,220.38,1047.898,220.325,1047.7L220.325,1047.7z"/>
<path fill="#ECF0F1" d="M209.453,1038.577v9.729c6.047,0,10.948-2.18,10.948-4.867c0-2.685-4.902-4.855-10.948-4.855V1038.577
	L209.453,1038.577z"/>
<path fill="#BDC3C7" d="M209.453,1037.359v9.732c6.047,0,10.948-2.45,10.948-5.475v-4.265L209.453,1037.359L209.453,1037.359z"/>
<path fill="#95A5A6" d="M220.325,1041.617c-0.673,2.396-5.288,4.26-10.872,4.26v1.216c6.047,0,10.948-2.18,10.948-4.866
	C220.4,1042.02,220.38,1041.816,220.325,1041.617L220.325,1041.617z M220.325,1053.782c-0.673,2.396-5.288,4.258-10.872,4.258v1.217
	c6.047,0,10.948-2.18,10.948-4.865C220.4,1054.184,220.38,1053.981,220.325,1053.782L220.325,1053.782z"/>
<path fill="#BDC3C7" d="M220.4,1037.359c0,2.688-4.9,4.866-10.948,4.866s-10.943-2.18-10.943-4.866
	c0-2.686,4.896-4.859,10.943-4.859S220.4,1034.672,220.4,1037.359z"/>
<text transform="matrix(1 0 0 1 198.5 1077.5)" font-family="'Helvetica'" font-size="12">Who-is-who</text>
<text transform="matrix(1 0 0 1 198.5 1091.8994)" font-family="'Helvetica'" font-size="12">database</text>
<text transform="matrix(1 0 0 1 198.5 978.5)" font-family="'Helvetica'" font-size="12">Who-is-who</text>
<text transform="matrix(1 0 0 1 198.5 992.9004)" font-family="'Helvetica'" font-size="12">application</text>
<text transform="matrix(1 0 0 1 36.5 978.5)" font-family="'Helvetica'" font-size="12">IL</text>
<text transform="matrix(1 0 0 1 36.5 992.9004)" font-family="'Helvetica'" font-size="12">application</text>
<path fill="#95A5A6" d="M36.504,1049.524v4.185c-0.01,0.021,0,0.053,0,0.077c0,3.021,4.896,5.475,10.943,5.475
	c6.047,0,10.948-2.45,10.948-5.474v-4.263l-21.89,0.002L36.504,1049.524z"/>
<path fill="#BDC3C7" d="M58.398,1049.524c0,2.688-4.9,4.865-10.948,4.865c-6.05,0-10.946-2.18-10.946-4.868
	c0-2.688,4.896-4.86,10.943-4.86c6.047,0,10.947,2.178,10.947,4.86L58.398,1049.524L58.398,1049.524z"/>
<path fill="#7F8C8D" d="M36.579,1053.783c-0.056,0.195-0.07,0.396-0.07,0.604c0,2.688,4.895,4.863,10.942,4.863
	c6.046,0,10.945-2.184,10.945-4.864c0-0.208-0.02-0.41-0.076-0.608c-0.673,2.398-5.288,4.265-10.87,4.265
	c-5.582,0-10.2-1.86-10.874-4.265v0.009L36.579,1053.783z"/>
<path fill="#95A5A6" d="M36.504,1043.442v4.188c-0.01,0.021,0,0.05,0,0.074c0,3.02,4.896,5.475,10.943,5.475
	c6.047,0,10.948-2.45,10.948-5.476v-4.265L36.504,1043.442l0.001-0.002L36.504,1043.442z"/>
<path fill="#BDC3C7" d="M58.398,1043.442c0,2.688-4.9,4.865-10.948,4.865c-6.05,0-10.946-2.178-10.946-4.865
	c0-2.687,4.896-4.86,10.943-4.86c6.047,0,10.947,2.178,10.947,4.86H58.398L58.398,1043.442z"/>
<path fill="#7F8C8D" d="M36.579,1047.699c-0.056,0.195-0.07,0.396-0.07,0.605c0,2.688,4.895,4.863,10.942,4.863
	c6.046,0,10.945-2.18,10.945-4.864c0-0.207-0.02-0.408-0.076-0.605c-0.673,2.396-5.288,4.26-10.87,4.26
	c-5.582,0-10.2-1.856-10.873-4.258L36.579,1047.699z"/>
<path fill="#95A5A6" d="M36.504,1037.36v4.185c-0.01,0.021,0,0.05,0,0.076c0,3.02,4.896,5.476,10.943,5.476
	c6.047,0,10.948-2.45,10.948-5.475v-4.265h-21.89L36.504,1037.36L36.504,1037.36z"/>
<path fill="#7F8C8D" d="M36.579,1041.617c-0.056,0.195-0.07,0.396-0.07,0.605c0,2.688,4.895,4.863,10.942,4.863
	c6.046,0,10.945-2.18,10.945-4.866c0-0.207-0.02-0.41-0.076-0.605c-0.673,2.396-5.288,4.26-10.87,4.26
	c-5.582,0-10.2-1.856-10.873-4.258L36.579,1041.617z"/>
<path fill="#BDC3C7" d="M47.452,1049.524v9.73c6.046,0,10.947-2.45,10.947-5.479v-4.26l-10.948,0.003L47.452,1049.524
	L47.452,1049.524z"/>
<path fill="#ECF0F1" d="M47.452,1044.661v9.729c6.046,0,10.947-2.18,10.947-4.867C58.398,1046.839,53.499,1044.66,47.452,1044.661z"
	/>
<path fill="#BDC3C7" d="M47.452,1043.442v9.732c6.046,0,10.947-2.45,10.947-5.476v-4.265L47.452,1043.442L47.452,1043.442z"/>
<path fill="#95A5A6" d="M58.321,1047.699c-0.672,2.396-5.287,4.26-10.87,4.26v1.217c6.046,0,10.947-2.18,10.947-4.867
	C58.398,1048.103,58.378,1047.898,58.321,1047.699L58.321,1047.699z"/>
<path fill="#ECF0F1" d="M47.452,1038.577v9.729c6.046,0,10.947-2.18,10.947-4.867C58.398,1040.754,53.499,1038.576,47.452,1038.577
	L47.452,1038.577z"/>
<path fill="#BDC3C7" d="M47.452,1037.36v9.732c6.046,0,10.947-2.45,10.947-5.476v-4.265H47.452V1037.36L47.452,1037.36z"/>
<path fill="#95A5A6" d="M58.321,1041.617c-0.672,2.396-5.287,4.26-10.87,4.26v1.217c6.046,0,10.947-2.18,10.947-4.867
	C58.398,1042.021,58.378,1041.816,58.321,1041.617L58.321,1041.617z M58.321,1053.783c-0.672,2.396-5.287,4.258-10.87,4.258v1.216
	c6.046,0,10.947-2.18,10.947-4.864C58.398,1054.185,58.378,1053.982,58.321,1053.783z"/>
<path fill="#BDC3C7" d="M58.398,1037.36c0,2.688-4.9,4.865-10.948,4.865c-6.05,0-10.946-2.18-10.946-4.865
	c0-2.688,4.896-4.86,10.943-4.86c6.047,0,10.947,2.178,10.947,4.86H58.398L58.398,1037.36z"/>
<text transform="matrix(1 0 0 1 36.5 1077.5)" font-family="'Helvetica'" font-size="12">IL</text>
<text transform="matrix(1 0 0 1 36.5 1091.9004)" font-family="'Helvetica'" font-size="12">database</text>
<text transform="matrix(1 0 0 1 189.5 744.5)" font-family="'Helvetica'" font-size="12">Message</text>
<text transform="matrix(1 0 0 1 189.5 758.9004)" font-family="'Helvetica'" font-size="12">queue</text>
<text transform="matrix(1 0 0 1 603.5 825.5)" font-family="'Helvetica'" font-size="12">Static user</text>
<text transform="matrix(1 0 0 1 603.5 839.9004)" font-family="'Helvetica'" font-size="12">content</text>
<path fill="#8E44AD" d="M605.5,785.5c-1.104,0-2,0.896-2,2v18c0,1.104,0.896,2,2,2h14c1.104,0,2-0.896,2-2v-14l-6-6H605.5z"/>
<path fill="#9B59B6" d="M605.5,784.5c-1.104,0-2,0.896-2,2v18c0,1.104,0.896,2,2,2h14c1.104,0,2-0.896,2-2v-14l-6-6H605.5z"/>
<path fill="#8E44AD" d="M621.5,790.5l-6-6v4c0,1.104,0.896,2,2,2H621.5z"/>
<text transform="matrix(1 0 0 1 765.5 978.5)" font-family="'Helvetica'" font-size="12">Archive</text>
<text transform="matrix(1 0 0 1 765.5 992.9004)" font-family="'Helvetica'" font-size="12">website</text>
<path fill="#8E44AD" d="M767.5,938.5c-1.104,0-2,0.896-2,2v18c0,1.104,0.896,2,2,2h14c1.104,0,2-0.896,2-2v-14l-6-6H767.5z"/>
<path fill="#9B59B6" d="M767.5,937.5c-1.104,0-2,0.896-2,2v18c0,1.104,0.896,2,2,2h14c1.104,0,2-0.896,2-2v-14l-6-6H767.5z"/>
<path fill="#8E44AD" d="M783.5,943.5l-6-6v4c0,1.104,0.896,2,2,2H783.5z"/>
<text transform="matrix(1 0 0 1 684.5 825.5)" font-family="'Helvetica'" font-size="12">Facebook</text>
<text transform="matrix(1 0 0 1 684.5 839.8994)" font-family="'Helvetica'" font-size="12">Members map</text>
<path fill="#8E44AD" d="M686.5,785.5c-1.105,0-2,0.896-2,2v18c0,1.104,0.895,2,2,2h14c1.104,0,2-0.896,2-2v-14l-6-6H686.5z"/>
<path fill="#9B59B6" d="M686.5,784.5c-1.105,0-2,0.896-2,2v18c0,1.104,0.895,2,2,2h14c1.104,0,2-0.896,2-2v-14l-6-6H686.5z"/>
<path fill="#8E44AD" d="M702.5,790.5l-6-6v4c0,1.104,0.895,2,2,2H702.5z"/>
<text transform="matrix(1 0 0 1 36.5 825.5)" font-family="'Helvetica'" font-size="12">Management</text>
<text transform="matrix(1 0 0 1 36.5 839.9004)" font-family="'Helvetica'" font-size="12">applications</text>
<path fill="#8E44AD" d="M38.5,781.5c-1.104,0-2,0.896-2,2v18c0,1.104,0.896,2,2,2h14c1.104,0,2-0.896,2-2v-14l-6-6H38.5z"/>
<path fill="#9B59B6" d="M38.5,780.5c-1.104,0-2,0.896-2,2v18c0,1.104,0.896,2,2,2h14c1.104,0,2-0.896,2-2v-14l-6-6H38.5z"/>
<path fill="#8E44AD" d="M54.5,786.5l-6-6v4c0,1.104,0.896,2,2,2H54.5z"/>
<text transform="matrix(1 0 0 1 360.5 1194.5)" font-family="'Helvetica'" font-size="12">CPT</text>
<text transform="matrix(1 0 0 1 360.5 1208.9004)" font-family="'Helvetica'" font-size="12">application</text>
<path fill="#E67E22" d="M360.5,1159.166v9.334l12,8v-9.334L360.5,1159.166z"/>
<path fill="#F39C12" d="M384.5,1159.166v9.334l-12,8v-9.334L384.5,1159.166z"/>
<path fill="#F1C40F" d="M368.5,1153.833l-8,5.333l12,8l12-8l-8-5.334L368.5,1153.833L368.5,1153.833z"/>
<path fill="#F39C12" d="M365.835,1156.5v2.666c0,2.21,2.983,4,6.665,4c3.682,0,6.666-1.79,6.666-4v-2.666H365.835L365.835,1156.5z"
	/>
<path fill="#E67E22" d="M365.835,1156.5v2.666c0,2.21,2.983,4,6.665,4v-6.666H365.835z"/>
<path fill="#F1C40F" d="M379.165,1156.5c0,2.21-2.983,4-6.665,4c-3.682,0-6.666-1.79-6.666-4s2.98-4,6.663-4
	c3.682,0,6.666,1.79,6.666,4H379.165z"/>
<path fill="#ECF0F1" d="M684.5,939.5l-2,5h20l-2-5H684.5z"/>
<path fill="#1ABC9C" d="M689.5,944.5h6l-1-5h-4L689.5,944.5z"/>
<path fill="none" d="M682.5,943.5h20l-2,13h-17L682.5,943.5z"/>
<path fill="#BDC3C7" d="M682.5,944.5h20v16h-20V944.5z"/>
<path fill="#ECF0F1" d="M685.5,954.5c-0.553,0-1,0.447-1,1v2c0,0.553,0.447,1,1,1h6c0.553,0,1-0.447,1-1v-2c0-0.553-0.447-1-1-1
	H685.5z"/>
<path fill="#16A085" d="M689.5,944.5v7l1-1l1,1l1-1l1,1l1-1l1,1v-7H689.5z"/>
<path fill="#95A5A6" d="M685.5,955.5h1v2h-1V955.5z M687.5,955.5h1v2h-1V955.5z M689.5,955.5h1v2h-1V955.5z"/>
<path fill="#7F8C8D" d="M690.5,955.5h1v2h-1V955.5z"/>
<path fill="#BDC3C7" d="M688.5,955.5h1v2h-1V955.5z"/>
<text transform="matrix(1 0 0 1 684.5 978.5)" font-family="'Helvetica'" font-size="12">Legacy</text>
<text transform="matrix(1 0 0 1 684.5 992.9004)" font-family="'Helvetica'" font-size="12">repository</text>
<text transform="matrix(1 0 0 1 279.5 1194.5)" font-family="'Helvetica'" font-size="12">SMP</text>
<text transform="matrix(1 0 0 1 279.5 1208.8994)" font-family="'Helvetica'" font-size="12">application</text>
<path fill="#E67E22" d="M279.5,1159.168v9.332l12,8v-9.334L279.5,1159.168L279.5,1159.168z"/>
<path fill="#F39C12" d="M303.501,1159.168v9.332l-12,8v-9.334L303.501,1159.168L303.501,1159.168z"/>
<path fill="#F1C40F" d="M287.5,1153.832l-8,5.341l12,7.992l12-7.992l-8-5.335h-8V1153.832z"/>
<path fill="#F39C12" d="M284.833,1156.5v2.673c0,2.21,2.985,4,6.667,4s6.666-1.79,6.666-4v-2.673H284.833z"/>
<path fill="#E67E22" d="M284.833,1156.5v2.673c0,2.21,2.985,4,6.667,4v-6.673H284.833z"/>
<path fill="#F1C40F" d="M298.166,1156.5c0,2.215-2.984,4-6.666,4s-6.666-1.785-6.666-4c0-2.21,2.987-4,6.67-4s6.665,1.79,6.665,4
	H298.166L298.166,1156.5z"/>
<path fill="#95A5A6" d="M279.504,1265.529v4.185c-0.01,0.021,0,0.05,0,0.071c0,3.021,4.896,5.479,10.943,5.479
	c6.047,0,10.947-2.45,10.947-5.479v-4.26l-21.89,0.003V1265.529L279.504,1265.529z"/>
<path fill="#BDC3C7" d="M301.398,1265.529c0,2.688-4.902,4.864-10.95,4.864c-6.048,0-10.942-2.178-10.942-4.865
	c0-2.687,4.896-4.868,10.943-4.868s10.95,2.183,10.95,4.865L301.398,1265.529L301.398,1265.529z"/>
<path fill="#7F8C8D" d="M279.579,1269.786c-0.057,0.2-0.072,0.4-0.072,0.607c0,2.688,4.896,4.865,10.943,4.865
	s10.95-2.187,10.95-4.868c0-0.207-0.022-0.408-0.077-0.607c-0.674,2.398-5.29,4.265-10.873,4.265c-5.582,0-10.197-1.86-10.87-4.265
	L279.579,1269.786L279.579,1269.786z"/>
<path fill="#95A5A6" d="M279.504,1259.446v4.188c-0.01,0.02,0,0.05,0,0.067c0,3.023,4.896,5.479,10.943,5.479
	c6.047,0,10.947-2.452,10.947-5.48v-4.256L279.504,1259.446L279.504,1259.446z"/>
<path fill="#BDC3C7" d="M301.398,1259.446c0,2.688-4.902,4.865-10.95,4.865c-6.048,0-10.942-2.178-10.942-4.865
	c0-2.687,4.896-4.864,10.943-4.864S301.399,1256.759,301.398,1259.446L301.398,1259.446z"/>
<path fill="#7F8C8D" d="M279.579,1263.702c-0.057,0.2-0.072,0.402-0.072,0.61c0,2.688,4.896,4.864,10.943,4.864
	s10.95-2.185,10.95-4.865c0-0.207-0.022-0.408-0.077-0.61c-0.674,2.4-5.29,4.265-10.873,4.265
	C284.868,1267.962,280.252,1266.104,279.579,1263.702L279.579,1263.702z"/>
<path fill="#95A5A6" d="M279.504,1253.364v4.185c-0.01,0.021,0,0.05,0,0.072c0,3.021,4.896,5.479,10.943,5.479
	c6.047,0,10.947-2.45,10.947-5.479v-4.258L279.504,1253.364L279.504,1253.364z"/>
<path fill="#7F8C8D" d="M279.579,1257.619c-0.057,0.202-0.072,0.403-0.072,0.61c0,2.688,4.896,4.865,10.943,4.865
	s10.95-2.185,10.95-4.865c0-0.207-0.022-0.41-0.077-0.61c-0.674,2.4-5.29,4.265-10.873,4.265
	C284.868,1261.88,280.252,1260.022,279.579,1257.619L279.579,1257.619z"/>
<path fill="#BDC3C7" d="M290.45,1265.529v9.73c6.047,0,10.95-2.45,10.95-5.479v-4.258L290.45,1265.529L290.45,1265.529z"/>
<path fill="#ECF0F1" d="M290.45,1260.663v9.732c6.047,0,10.95-2.18,10.95-4.867c0-2.687-4.903-4.868-10.95-4.868V1260.663
	L290.45,1260.663z"/>
<path fill="#BDC3C7" d="M290.45,1259.446v9.732c6.047,0,10.95-2.454,10.95-5.48v-4.26l-10.95,0.004V1259.446L290.45,1259.446z"/>
<path fill="#95A5A6" d="M301.323,1263.702c-0.674,2.4-5.29,4.265-10.873,4.265v1.218c6.047,0,10.95-2.18,10.95-4.866
	c0-0.207-0.02-0.41-0.077-0.607V1263.702z"/>
<path fill="#ECF0F1" d="M290.45,1254.582v9.729c6.047,0,10.95-2.18,10.95-4.868C301.399,1256.759,296.497,1254.582,290.45,1254.582
	L290.45,1254.582z"/>
<path fill="#BDC3C7" d="M290.45,1253.364v9.732c6.047,0,10.95-2.45,10.95-5.479v-4.257L290.45,1253.364L290.45,1253.364z"/>
<path fill="#95A5A6" d="M301.323,1257.619c-0.674,2.4-5.29,4.265-10.873,4.265v1.22c6.047,0,10.95-2.18,10.95-4.868
	C301.399,1258.026,301.379,1257.823,301.323,1257.619z M301.323,1269.786c-0.674,2.398-5.29,4.265-10.873,4.265v1.216
	c6.047,0,10.95-2.182,10.95-4.865C301.399,1270.188,301.379,1269.987,301.323,1269.786L301.323,1269.786z"/>
<path fill="#BDC3C7" d="M301.398,1253.364c0,2.688-4.902,4.865-10.95,4.865c-6.048,0-10.942-2.178-10.942-4.865
	c0-2.687,4.896-4.864,10.943-4.864S301.399,1250.678,301.398,1253.364L301.398,1253.364z"/>
<text transform="matrix(1 0 0 1 279.5 1293.5)" font-family="'Helvetica'" font-size="12">SMP</text>
<text transform="matrix(1 0 0 1 279.5 1307.8994)" font-family="'Helvetica'" font-size="12">database</text>
<path fill="#95A5A6" d="M360.504,1265.528v4.185c-0.01,0.021,0,0.05,0,0.071c0,3.021,4.896,5.479,10.943,5.479
	c6.047,0,10.948-2.45,10.948-5.479v-4.26L360.504,1265.528L360.504,1265.528z"/>
<path fill="#BDC3C7" d="M382.399,1265.528c0,2.688-4.902,4.865-10.95,4.865c-6.048,0-10.942-2.178-10.942-4.865
	c0-2.687,4.896-4.865,10.943-4.865S382.4,1262.842,382.399,1265.528L382.399,1265.528z"/>
<path fill="#7F8C8D" d="M360.58,1269.786c-0.057,0.2-0.072,0.4-0.072,0.607c0,2.688,4.896,4.865,10.943,4.865
	s10.95-2.185,10.95-4.865c0-0.207-0.02-0.408-0.075-0.607c-0.673,2.398-5.288,4.265-10.872,4.265c-5.58,0-10.197-1.86-10.87-4.265
	H360.58L360.58,1269.786z"/>
<path fill="#95A5A6" d="M360.504,1259.446v4.185c-0.01,0.021,0,0.05,0,0.069c0,3.021,4.896,5.479,10.943,5.479
	c6.047,0,10.948-2.45,10.948-5.479v-4.258l-21.89,0.002L360.504,1259.446L360.504,1259.446z"/>
<path fill="#BDC3C7" d="M382.399,1259.446c0,2.688-4.902,4.865-10.95,4.865c-6.048,0-10.942-2.178-10.942-4.865
	c0-2.687,4.896-4.865,10.943-4.865S382.4,1256.759,382.399,1259.446L382.399,1259.446z"/>
<path fill="#7F8C8D" d="M360.58,1263.701c-0.057,0.202-0.072,0.403-0.072,0.61c0,2.688,4.896,4.865,10.943,4.865
	s10.95-2.185,10.95-4.865c0-0.207-0.02-0.408-0.075-0.61c-0.673,2.4-5.288,4.265-10.872,4.265c-5.58,0-10.197-1.856-10.87-4.265
	H360.58L360.58,1263.701z"/>
<path fill="#95A5A6" d="M360.504,1253.364v4.185c-0.01,0.021,0,0.05,0,0.072c0,3.021,4.896,5.479,10.943,5.479
	c6.047,0,10.948-2.45,10.948-5.479v-4.258L360.504,1253.364L360.504,1253.364z"/>
<path fill="#7F8C8D" d="M360.58,1257.621c-0.057,0.2-0.072,0.4-0.072,0.608c0,2.688,4.896,4.865,10.943,4.865
	s10.95-2.185,10.95-4.865c0-0.207-0.02-0.41-0.075-0.61c-0.673,2.4-5.288,4.265-10.872,4.265c-5.58,0-10.197-1.856-10.87-4.265
	L360.58,1257.621L360.58,1257.621z"/>
<path fill="#BDC3C7" d="M371.45,1265.528v9.73c6.048,0,10.95-2.45,10.95-5.479v-4.257L371.45,1265.528L371.45,1265.528z"/>
<path fill="#ECF0F1" d="M371.45,1260.663v9.732c6.048,0,10.95-2.18,10.95-4.867C382.399,1262.842,377.498,1260.663,371.45,1260.663z
	"/>
<path fill="#BDC3C7" d="M371.45,1259.446v9.732c6.048,0,10.95-2.45,10.95-5.479v-4.26L371.45,1259.446L371.45,1259.446z"/>
<path fill="#95A5A6" d="M382.323,1263.701c-0.673,2.4-5.288,4.265-10.872,4.265v1.22c6.05,0,10.95-2.184,10.95-4.868
	c0-0.204-0.02-0.407-0.075-0.61L382.323,1263.701L382.323,1263.701z"/>
<path fill="#ECF0F1" d="M371.45,1254.581v9.73c6.048,0,10.95-2.178,10.95-4.867C382.399,1256.759,377.498,1254.581,371.45,1254.581z
	"/>
<path fill="#BDC3C7" d="M371.45,1253.364v9.732c6.048,0,10.95-2.45,10.95-5.479v-4.26L371.45,1253.364L371.45,1253.364z"/>
<path fill="#95A5A6" d="M382.323,1257.621c-0.673,2.4-5.288,4.265-10.872,4.265v1.217c6.05,0,10.95-2.185,10.95-4.867
	c0-0.208-0.02-0.41-0.075-0.61L382.323,1257.621L382.323,1257.621z M382.323,1269.786c-0.673,2.398-5.288,4.265-10.872,4.265v1.216
	c6.05,0,10.95-2.185,10.95-4.864c0-0.208-0.02-0.41-0.075-0.607h-0.002L382.323,1269.786z"/>
<path fill="#BDC3C7" d="M382.399,1253.364c0,2.688-4.902,4.865-10.95,4.865c-6.048,0-10.942-2.178-10.942-4.865
	c0-2.687,4.896-4.864,10.943-4.864S382.4,1250.676,382.399,1253.364L382.399,1253.364z"/>
<text transform="matrix(1 0 0 1 360.5 1293.5)" font-family="'Helvetica'" font-size="12">CPT</text>
<text transform="matrix(1 0 0 1 360.5 1307.8994)" font-family="'Helvetica'" font-size="12">database</text>
<text transform="matrix(1 0 0 1 117.5 978.5)" font-family="'Helvetica'" font-size="12">Aggregator</text>
<text transform="matrix(1 0 0 1 117.5 992.9004)" font-family="'Helvetica'" font-size="12">application</text>
<path fill="#95A5A6" d="M117.504,1049.763v4.18c-0.01,0.024,0,0.055,0,0.077c0,3.021,4.896,5.478,10.943,5.478
	s10.948-2.448,10.948-5.478v-4.26L117.504,1049.763L117.504,1049.763z"/>
<path fill="#BDC3C7" d="M139.399,1049.763c0,2.688-4.9,4.865-10.948,4.865s-10.943-2.178-10.943-4.865
	c0-2.687,4.896-4.865,10.943-4.865S139.399,1047.076,139.399,1049.763z"/>
<path fill="#7F8C8D" d="M117.578,1054.02c-0.056,0.2-0.07,0.4-0.07,0.608c0,2.688,4.895,4.864,10.942,4.864
	s10.945-2.183,10.945-4.864c0-0.207-0.02-0.408-0.076-0.607c-0.673,2.4-5.288,4.267-10.87,4.267s-10.2-1.858-10.874-4.265v-0.002
	L117.578,1054.02z"/>
<path fill="#95A5A6" d="M117.504,1043.68v4.182c-0.01,0.023,0,0.055,0,0.074c0,3.023,4.896,5.479,10.943,5.479
	s10.948-2.45,10.948-5.479v-4.26L117.504,1043.68L117.504,1043.68z"/>
<path fill="#BDC3C7" d="M139.399,1043.68c0,2.69-4.9,4.866-10.948,4.866s-10.943-2.178-10.943-4.865
	c0-2.686,4.896-4.862,10.943-4.862s10.948,2.185,10.948,4.865V1043.68L139.399,1043.68z"/>
<path fill="#7F8C8D" d="M117.578,1047.937c-0.056,0.2-0.07,0.402-0.07,0.61c0,2.687,4.895,4.864,10.942,4.864
	s10.945-2.181,10.945-4.862c0-0.207-0.02-0.408-0.076-0.61c-0.673,2.4-5.288,4.265-10.87,4.265s-10.2-1.857-10.873-4.265
	L117.578,1047.937z"/>
<path fill="#95A5A6" d="M117.504,1037.6v4.18c-0.01,0.023,0,0.055,0,0.076c0,3.021,4.896,5.479,10.943,5.479
	s10.948-2.45,10.948-5.479v-4.258L117.504,1037.6L117.504,1037.6z"/>
<path fill="#7F8C8D" d="M117.578,1041.854c-0.056,0.2-0.07,0.402-0.07,0.61c0,2.687,4.895,4.864,10.942,4.864
	s10.945-2.187,10.945-4.868c0-0.207-0.02-0.41-0.076-0.61c-0.673,2.4-5.288,4.26-10.87,4.26s-10.2-1.854-10.874-4.26v0.003
	L117.578,1041.854z"/>
<path fill="#BDC3C7" d="M128.451,1049.763v9.73c6.046,0,10.947-2.45,10.947-5.479v-4.254L128.451,1049.763z"/>
<path fill="#ECF0F1" d="M128.451,1044.897v9.732c6.046,0,10.947-2.18,10.947-4.867
	C139.398,1047.076,134.498,1044.897,128.451,1044.897z"/>
<path fill="#BDC3C7" d="M128.451,1043.68v9.733c6.046,0,10.947-2.45,10.947-5.479v-4.26L128.451,1043.68L128.451,1043.68z"/>
<path fill="#95A5A6" d="M139.323,1047.937c-0.673,2.4-5.288,4.261-10.872,4.261v1.222c6.047,0,10.948-2.185,10.948-4.867
	C139.399,1048.341,139.379,1048.138,139.323,1047.937L139.323,1047.937z"/>
<path fill="#ECF0F1" d="M128.451,1038.815v9.73c6.046,0,10.947-2.178,10.947-4.867c0-2.688-4.9-4.866-10.948-4.866L128.451,1038.815
	L128.451,1038.815z"/>
<path fill="#BDC3C7" d="M128.451,1037.6v9.73c6.046,0,10.947-2.45,10.947-5.479v-4.258h-10.947V1037.6z"/>
<path fill="#95A5A6" d="M139.323,1041.854c-0.673,2.4-5.288,4.265-10.872,4.265v1.218c6.047,0,10.948-2.185,10.948-4.867
	C139.399,1042.259,139.379,1042.056,139.323,1041.854L139.323,1041.854z M139.323,1054.02c-0.673,2.4-5.288,4.258-10.872,4.258
	v1.223c6.047,0,10.948-2.185,10.948-4.864C139.399,1054.425,139.379,1054.222,139.323,1054.02L139.323,1054.02z"/>
<path fill="#BDC3C7" d="M139.399,1037.6c0,2.688-4.9,4.864-10.948,4.864s-10.943-2.178-10.943-4.865
	c0-2.687,4.896-4.868,10.943-4.868s10.948,2.185,10.948,4.865V1037.6L139.399,1037.6z"/>
<text transform="matrix(1 0 0 1 117.5 1077.5)" font-family="'Helvetica'" font-size="12">Aggregator</text>
<text transform="matrix(1 0 0 1 117.5 1091.9004)" font-family="'Helvetica'" font-size="12">database</text>
<text transform="matrix(1 0 0 1 441.5 978.5)" font-family="'Helvetica'" font-size="12">Portal</text>
<text transform="matrix(1 0 0 1 441.5 992.8994)" font-family="'Helvetica'" font-size="12">website</text>
<path fill="#95A5A6" d="M441.504,1049.529v4.18c-0.01,0.021,0,0.05,0,0.076c0,3.02,4.896,5.474,10.943,5.474
	s10.948-2.45,10.948-5.474v-4.263h-21.895L441.504,1049.529L441.504,1049.529z"/>
<path fill="#BDC3C7" d="M463.397,1049.529c0,2.688-4.9,4.86-10.947,4.86s-10.943-2.18-10.943-4.859
	c0-2.688,4.896-4.865,10.943-4.865s10.948,2.18,10.948,4.868v-0.002L463.397,1049.529z"/>
<path fill="#7F8C8D" d="M441.577,1053.786c-0.055,0.2-0.07,0.396-0.07,0.604c0,2.69,4.896,4.866,10.943,4.866
	s10.948-2.178,10.948-4.864c0-0.206-0.021-0.402-0.073-0.604c-0.673,2.396-5.288,4.258-10.872,4.258
	c-5.582,0-10.198-1.856-10.872-4.257L441.577,1053.786L441.577,1053.786z"/>
<path fill="#95A5A6" d="M441.504,1043.447v4.18c-0.01,0.021,0,0.053,0,0.076c0,3.021,4.896,5.476,10.943,5.476
	s10.948-2.45,10.948-5.476v-4.265L441.504,1043.447L441.504,1043.447z"/>
<path fill="#BDC3C7" d="M463.397,1043.447c0,2.688-4.9,4.86-10.947,4.86s-10.943-2.18-10.943-4.861
	c0-2.688,4.896-4.865,10.943-4.865s10.948,2.174,10.948,4.857v0.006L463.397,1043.447z"/>
<path fill="#7F8C8D" d="M441.577,1047.703c-0.055,0.2-0.07,0.396-0.07,0.604c0,2.688,4.896,4.865,10.943,4.865
	s10.948-2.178,10.948-4.865c0-0.206-0.021-0.402-0.073-0.604c-0.673,2.396-5.288,4.26-10.872,4.26
	c-5.582,0-10.198-1.858-10.872-4.26H441.577L441.577,1047.703z"/>
<path fill="#95A5A6" d="M441.504,1037.365v4.182c-0.01,0.024,0,0.05,0,0.076c0,3.02,4.896,5.474,10.943,5.474
	s10.948-2.45,10.948-5.475v-4.26h-21.895L441.504,1037.365L441.504,1037.365z"/>
<path fill="#7F8C8D" d="M441.577,1041.621c-0.055,0.2-0.07,0.396-0.07,0.604c0,2.688,4.896,4.865,10.943,4.865
	s10.948-2.176,10.948-4.863c0-0.206-0.021-0.41-0.073-0.604c-0.673,2.396-5.288,4.26-10.872,4.26c-5.582,0-10.198-1.86-10.872-4.26
	L441.577,1041.621L441.577,1041.621z"/>
<path fill="#BDC3C7" d="M452.45,1049.529v9.729c6.047,0,10.948-2.45,10.948-5.475v-4.261l-10.945,0.008L452.45,1049.529
	L452.45,1049.529z"/>
<path fill="#ECF0F1" d="M452.45,1044.663v9.729c6.047,0,10.948-2.18,10.948-4.859c0-2.688-4.9-4.866-10.945-4.866L452.45,1044.663
	L452.45,1044.663z"/>
<path fill="#BDC3C7" d="M452.45,1043.447v9.729c6.047,0,10.948-2.45,10.948-5.474v-4.257l-10.945,0.002H452.45L452.45,1043.447z"/>
<path fill="#95A5A6" d="M463.322,1047.703c-0.673,2.396-5.288,4.26-10.872,4.26v1.216c6.047,0,10.948-2.18,10.948-4.866
	c0-0.206-0.021-0.405-0.073-0.605L463.322,1047.703L463.322,1047.703z"/>
<path fill="#ECF0F1" d="M452.45,1038.581v9.729c6.047,0,10.948-2.18,10.948-4.861c0-2.688-4.9-4.864-10.945-4.864L452.45,1038.581
	L452.45,1038.581z"/>
<path fill="#BDC3C7" d="M452.45,1037.365v9.729c6.047,0,10.948-2.45,10.948-5.474v-4.265h-10.945L452.45,1037.365L452.45,1037.365z"
	/>
<path fill="#95A5A6" d="M463.322,1041.621c-0.673,2.396-5.288,4.26-10.872,4.26v1.216c6.047,0,10.948-2.18,10.948-4.866
	c0-0.206-0.021-0.405-0.073-0.605L463.322,1041.621L463.322,1041.621z M463.322,1053.786c-0.673,2.396-5.288,4.258-10.872,4.258
	v1.22c6.047,0,10.948-2.18,10.948-4.865c0-0.207-0.021-0.405-0.073-0.605L463.322,1053.786L463.322,1053.786z"/>
<path fill="#BDC3C7" d="M463.397,1037.365c0,2.688-4.9,4.86-10.947,4.86s-10.943-2.18-10.943-4.86c0-2.688,4.896-4.865,10.943-4.865
	S463.398,1034.677,463.397,1037.365z"/>
<text transform="matrix(1 0 0 1 441.5 1077.5)" font-family="'Helvetica'" font-size="12">Portal</text>
<text transform="matrix(1 0 0 1 441.5 1091.8984)" font-family="'Helvetica'" font-size="12">database</text>
<text transform="matrix(1 0 0 1 189.5 825.5)" font-family="'Helvetica'" font-size="12">Auth</text>
<text transform="matrix(1 0 0 1 189.5 839.8994)" font-family="'Helvetica'" font-size="12">application</text>
<path fill="#354A5D" d="M189.5,790.166v9.334l12,8v-9.334L189.5,790.166z"/>
<path fill="#3382B6" d="M213.5,790.166v9.334l-12,8v-9.334L213.5,790.166z"/>
<path fill="#3F9BD7" d="M197.5,784.833l-8,5.333l12,8l12-8l-8-5.333H197.5L197.5,784.833z"/>
<path fill="#3382B6" d="M194.833,787.5v2.666c0,2.21,2.984,4,6.666,4s6.663-1.79,6.663-4V787.5H194.83H194.833z"/>
<path fill="#354A5D" d="M194.833,787.5v2.666c0,2.21,2.984,4,6.666,4V787.5h-6.67H194.833L194.833,787.5z"/>
<path fill="#3F9BD7" d="M208.165,787.5c0,2.21-2.984,4-6.666,4s-6.67-1.79-6.67-4s2.985-4,6.667-4s6.665,1.79,6.665,4H208.165
	L208.165,787.5z"/>
<path fill="#354A5D" d="M198.5,943.166v9.334l12,8v-9.334L198.5,943.166z"/>
<path fill="#3382B6" d="M222.5,943.166v9.334l-12,8v-9.334L222.5,943.166z"/>
<path fill="#3F9BD7" d="M206.5,937.834l-8,5.332l12,8l12-8l-8-5.332H206.5z"/>
<path fill="#3382B6" d="M203.833,940.5v2.666c0,2.21,2.985,4,6.667,4s6.666-1.79,6.666-4V940.5H203.833z"/>
<path fill="#354A5D" d="M203.833,940.5v2.666c0,2.21,2.985,4,6.667,4V940.5H203.833z"/>
<path fill="#3F9BD7" d="M217.166,940.5c0,2.21-2.984,4-6.666,4s-6.666-1.79-6.666-4s2.987-4,6.67-4s6.665,1.79,6.665,4H217.166
	L217.166,940.5z"/>
<path fill="#354A5D" d="M441.5,790.166v9.334l12,8v-9.334L441.5,790.166z"/>
<path fill="#3382B6" d="M465.5,790.166v9.334l-12,8v-9.334L465.5,790.166z"/>
<path fill="#3F9BD7" d="M449.5,784.833l-8,5.333l12,8l12-8l-8-5.333H449.5L449.5,784.833z"/>
<path fill="#3382B6" d="M446.834,787.5v2.666c0,2.21,2.984,4,6.666,4c3.688,0,6.666-1.79,6.666-4V787.5H446.834L446.834,787.5z"/>
<path fill="#354A5D" d="M446.834,787.5v2.666c0,2.21,2.984,4,6.666,4V787.5H446.834z"/>
<path fill="#3F9BD7" d="M460.166,787.5c0,2.211-2.979,4-6.666,4c-3.682,0-6.666-1.789-6.666-4c0-2.21,2.984-4,6.666-4
	C457.183,783.5,460.166,785.29,460.166,787.5z"/>
<path fill="#354A5D" d="M522.5,790.166v9.334l12,8v-9.334L522.5,790.166z"/>
<path fill="#3382B6" d="M546.5,790.166v9.334l-12,8v-9.334L546.5,790.166z"/>
<path fill="#3F9BD7" d="M530.5,784.834l-8,5.332l12,8l12-8l-8-5.333L530.5,784.834L530.5,784.834z"/>
<path fill="#3382B6" d="M527.835,787.499v2.666c0,2.21,2.982,4,6.665,4c3.682,0,6.666-1.79,6.666-4v-2.663h-13.33L527.835,787.499
	L527.835,787.499z"/>
<path fill="#354A5D" d="M527.835,787.499v2.666c0,2.21,2.982,4,6.665,4v-6.663h-6.666L527.835,787.499L527.835,787.499z"/>
<path fill="#3F9BD7" d="M541.165,787.499c0,2.21-2.983,4-6.665,4c-3.683,0-6.666-1.79-6.666-4s2.979-4,6.663-4
	C538.179,783.499,541.163,785.291,541.165,787.499L541.165,787.499z"/>
<path fill="#354A5D" d="M117.5,943.167v9.333l12,8v-9.33L117.5,943.167L117.5,943.167z"/>
<path fill="#3382B6" d="M141.5,943.167v9.333l-12,8v-9.33L141.5,943.167L141.5,943.167z"/>
<path fill="#3F9BD7" d="M125.5,937.834l-8,5.333l12,8l12-8l-8-5.333H125.5z"/>
<path fill="#3382B6" d="M122.833,940.501v2.666c0,2.21,2.984,4,6.666,4s6.663-1.79,6.663-4v-2.666H122.83H122.833L122.833,940.501z"
	/>
<path fill="#354A5D" d="M122.833,940.501v2.666c0,2.21,2.984,4,6.666,4v-6.666h-6.67H122.833L122.833,940.501z"/>
<path fill="#3F9BD7" d="M136.165,940.501c0,2.21-2.984,4-6.666,4s-6.67-1.79-6.67-4s2.985-4,6.667-4c3.682,0,6.665,1.79,6.665,4
	H136.165L136.165,940.501z"/>
<path fill="#354A5D" d="M360.5,943.165v9.335l12,8v-9.334L360.5,943.165L360.5,943.165z"/>
<path fill="#3382B6" d="M384.5,943.165v9.335l-12,8v-9.334L384.5,943.165L384.5,943.165z"/>
<path fill="#3F9BD7" d="M368.5,937.832l-8,5.334l12,8l12-8l-8-5.33h-8V937.832L368.5,937.832z"/>
<path fill="#3382B6" d="M365.835,940.5v2.666c0,2.21,2.984,4,6.666,4c3.688,0,6.67-1.79,6.67-4v-2.663h-13.333L365.835,940.5
	L365.835,940.5z"/>
<path fill="#354A5D" d="M365.835,940.5v2.666c0,2.21,2.984,4,6.666,4v-6.663h-6.663L365.835,940.5L365.835,940.5z"/>
<path fill="#3F9BD7" d="M379.167,940.5c0,2.21-2.979,4-6.666,4c-3.68,0-6.663-1.79-6.663-4s2.984-4,6.666-4
	c3.688,0,6.667,1.79,6.667,4H379.167L379.167,940.5z"/>
<path fill="#354A5D" d="M279.5,790.166v9.334l12,8v-9.33l-12-8V790.166L279.5,790.166z"/>
<path fill="#3382B6" d="M303.5,790.166v9.334l-12,8v-9.33l12-8V790.166L303.5,790.166z"/>
<path fill="#3F9BD7" d="M287.5,784.833l-8,5.333l12,8l12-8l-8-5.333H287.5z"/>
<path fill="#3382B6" d="M284.834,787.499v2.667c0,2.21,2.984,4,6.666,4s6.666-1.79,6.666-4V787.5L284.834,787.499L284.834,787.499z"
	/>
<path fill="#354A5D" d="M284.834,787.499v2.667c0,2.21,2.984,4,6.666,4V787.5L284.834,787.499L284.834,787.499z"/>
<path fill="#3F9BD7" d="M298.166,787.499c0,2.21-2.984,4-6.666,4s-6.666-1.79-6.666-4s2.984-4,6.666-4
	C295.182,783.499,298.166,785.291,298.166,787.499z"/>
<path fill="#354A5D" d="M441.5,943.166v9.334l12,8v-9.332L441.5,943.166L441.5,943.166z"/>
<path fill="#3382B6" d="M465.5,943.166v9.334l-12,8v-9.332L465.5,943.166L465.5,943.166z"/>
<path fill="#3F9BD7" d="M449.5,937.834l-8,5.332l12,8l12-8l-8-5.332H449.5z"/>
<path fill="#3382B6" d="M446.835,940.5v2.666c0,2.211,2.983,4,6.665,4s6.666-1.789,6.666-4V940.5H446.835L446.835,940.5z"/>
<path fill="#354A5D" d="M446.835,940.5v2.666c0,2.211,2.983,4,6.665,4V940.5H446.835z"/>
<path fill="#3F9BD7" d="M460.165,940.5c0,2.211-2.983,4-6.665,4s-6.666-1.789-6.666-4c0-2.21,2.98-4,6.663-4
	S460.163,938.29,460.165,940.5L460.165,940.5z"/>
<path fill="#354A5D" d="M36.5,943.166v9.334l12,8v-9.334L36.5,943.166z"/>
<path fill="#3382B6" d="M60.5,943.166v9.334l-12,8v-9.334L60.5,943.166z"/>
<path fill="#3F9BD7" d="M44.5,937.834l-8,5.332l12,8l12-8l-8-5.332H44.5z"/>
<path fill="#3382B6" d="M41.834,940.5v2.666c0,2.211,2.984,4,6.666,4c3.682,0,6.666-1.789,6.666-4V940.5H41.834z"/>
<path fill="#354A5D" d="M41.834,940.5v2.666c0,2.211,2.984,4,6.666,4V940.5H41.834z"/>
<path fill="#3F9BD7" d="M55.166,940.5c0,2.211-2.984,4-6.666,4c-3.682,0-6.666-1.789-6.666-4c0-2.209,2.984-4,6.666-4
	C52.182,936.5,55.166,938.291,55.166,940.5z"/>
<path fill="#354A5D" d="M279.5,943.166v9.334l12,8v-9.334L279.5,943.166L279.5,943.166z"/>
<path fill="#3382B6" d="M303.5,943.166v9.334l-12,8v-9.334L303.5,943.166L303.5,943.166z"/>
<path fill="#3F9BD7" d="M287.5,937.832l-8,5.334l12,8l12-8l-8-5.333L287.5,937.832L287.5,937.832z"/>
<path fill="#3382B6" d="M284.834,940.5v2.666c0,2.21,2.984,4,6.666,4s6.666-1.79,6.666-4V940.5H284.834L284.834,940.5z"/>
<path fill="#354A5D" d="M284.834,940.5v2.666c0,2.21,2.984,4,6.666,4V940.5H284.834z"/>
<path fill="#3F9BD7" d="M298.166,940.5c0,2.21-2.984,4-6.666,4s-6.666-1.79-6.666-4s2.984-4,6.666-4
	C295.182,936.5,298.166,938.29,298.166,940.5z"/>
<path fill="#354A5D" d="M198.5,1159.166v9.334l12,8v-9.334L198.5,1159.166L198.5,1159.166z"/>
<path fill="#3382B6" d="M222.5,1159.166v9.334l-12,8v-9.334L222.5,1159.166L222.5,1159.166z"/>
<path fill="#3F9BD7" d="M206.5,1153.833l-8,5.333l12,8l12-8l-8-5.333H206.5z"/>
<path fill="#3382B6" d="M203.834,1156.5v2.666c0,2.21,2.984,4,6.666,4c3.688,0,6.666-1.79,6.666-4v-2.666H203.834L203.834,1156.5z"
	/>
<path fill="#354A5D" d="M203.834,1156.5v2.666c0,2.21,2.984,4,6.666,4v-6.666H203.834z"/>
<path fill="#3F9BD7" d="M217.166,1156.5c0,2.21-2.979,4-6.666,4c-3.682,0-6.666-1.79-6.666-4s2.984-4,6.666-4
	C214.183,1152.5,217.166,1154.29,217.166,1156.5z"/>
<path fill="#95A5A6" d="M131.605,653.77v4.178c-0.01,0.025,0,0.053,0,0.076c0,3.022,4.896,5.475,10.943,5.475
	s10.945-2.45,10.945-5.477v-4.258l-21.89,0.002v0.002L131.605,653.77z"/>
<path fill="#BDC3C7" d="M153.499,653.77c0,2.687-4.9,4.863-10.947,4.863s-10.943-2.18-10.943-4.865
	c0-2.689,4.896-4.869,10.943-4.869s10.948,2.18,10.948,4.867L153.499,653.77L153.499,653.77z"/>
<path fill="#7F8C8D" d="M131.679,658.025c-0.056,0.201-0.07,0.4-0.07,0.607c0,2.688,4.895,4.865,10.942,4.865
	s10.948-2.18,10.948-4.868c0-0.207-0.02-0.407-0.076-0.606c-0.673,2.397-5.288,4.258-10.872,4.258
	c-5.582,0-10.198-1.858-10.872-4.258V658.025L131.679,658.025z"/>
<path fill="#95A5A6" d="M131.605,647.686v4.183c-0.01,0.021,0,0.05,0,0.071c0,3.023,4.896,5.477,10.943,5.477
	s10.945-2.45,10.945-5.477v-4.256l-21.89,0.002H131.605z"/>
<path fill="#BDC3C7" d="M153.499,647.686c0,2.688-4.9,4.865-10.947,4.865s-10.943-2.178-10.943-4.865
	c0-2.687,4.896-4.865,10.943-4.865S153.5,645,153.5,647.689L153.499,647.686L153.499,647.686z"/>
<path fill="#7F8C8D" d="M131.679,651.941c-0.056,0.201-0.07,0.402-0.07,0.611c0,2.686,4.895,4.863,10.942,4.863
	s10.948-2.18,10.948-4.865c0-0.207-0.02-0.408-0.076-0.609c-0.673,2.399-5.288,4.26-10.872,4.26
	C136.969,656.201,132.353,654.344,131.679,651.941L131.679,651.941z"/>
<path fill="#95A5A6" d="M131.605,641.604v4.181c-0.01,0.024,0,0.052,0,0.075c0,3.025,4.896,5.48,10.943,5.48
	s10.945-2.449,10.945-5.477v-4.258h-21.89L131.605,641.604z"/>
<path fill="#7F8C8D" d="M131.679,645.859c-0.056,0.201-0.07,0.402-0.07,0.609c0,2.688,4.895,4.865,10.942,4.865
	s10.948-2.18,10.948-4.865c0-0.207-0.02-0.41-0.076-0.609c-0.673,2.399-5.288,4.26-10.872,4.26
	C136.969,650.119,132.353,648.262,131.679,645.859z"/>
<path fill="#BDC3C7" d="M142.552,653.77v9.729c6.047,0,10.948-2.45,10.948-5.476v-4.258l-10.945,0.002L142.552,653.77
	L142.552,653.77z"/>
<path fill="#ECF0F1" d="M142.552,648.902v9.732c6.047,0,10.948-2.18,10.948-4.867c0-2.687-4.9-4.867-10.945-4.867L142.552,648.902
	L142.552,648.902z"/>
<path fill="#BDC3C7" d="M142.552,647.686v9.732c6.047,0,10.948-2.454,10.948-5.48v-4.256l-10.945,0.002L142.552,647.686
	L142.552,647.686z"/>
<path fill="#95A5A6" d="M153.424,651.941c-0.673,2.4-5.288,4.261-10.872,4.261v1.217c6.047,0,10.948-2.181,10.948-4.866
	c0-0.207-0.02-0.41-0.073-0.611H153.424L153.424,651.941z"/>
<path fill="#ECF0F1" d="M142.552,642.818v9.732c6.047,0,10.948-2.18,10.948-4.867c0-2.686-4.9-4.863-10.945-4.863L142.552,642.818
	L142.552,642.818z"/>
<path fill="#BDC3C7" d="M142.552,641.604v9.732c6.047,0,10.948-2.449,10.948-5.477v-4.254L142.552,641.604L142.552,641.604z"/>
<path fill="#95A5A6" d="M153.424,645.859c-0.673,2.399-5.288,4.26-10.872,4.26v1.218c6.047,0,10.948-2.18,10.948-4.866
	c0-0.203-0.02-0.406-0.073-0.611H153.424L153.424,645.859z M153.424,658.025c-0.673,2.398-5.288,4.259-10.872,4.259v1.216
	c6.047,0,10.948-2.176,10.948-4.859c0-0.211-0.02-0.41-0.073-0.611L153.424,658.025L153.424,658.025z"/>
<path fill="#BDC3C7" d="M153.499,641.604c0,2.688-4.9,4.865-10.947,4.865s-10.943-2.18-10.943-4.865
	c0-2.688,4.896-4.865,10.943-4.865s10.948,2.175,10.948,4.863L153.499,641.604L153.499,641.604z"/>
<path fill="#8E44AD" d="M44.5,785.232c-1.104,0-2,0.895-2,2v18c0,1.104,0.896,2,2,2h14c1.104,0,2-0.896,2-2v-14l-6-6H44.5z"/>
<path fill="#9B59B6" d="M44.5,784.232c-1.104,0-2,0.895-2,2v18c0,1.104,0.896,2,2,2h14c1.104,0,2-0.896,2-2v-14l-6-6H44.5z"/>
<path fill="#8E44AD" d="M60.5,790.232l-6-6v4c0,1.104,0.896,2,2,2H60.5z"/>
<rect x="18.5" y="618.5" fill="none" stroke="#BDC3C7" stroke-miterlimit="10" width="801" height="279"/>
<rect x="18.5" y="906.5" fill="none" stroke="#BDC3C7" stroke-miterlimit="10" width="801" height="216"/>
<rect x="18.5" y="1131.5" fill="none" stroke="#BDC3C7" stroke-miterlimit="10" width="801" height="189"/>
<text transform="matrix(1 0 0 1 36.5 636.5)" fill="#96A5A6" font-family="'Helvetica'" font-size="12">Server Beuk</text>
<text transform="matrix(1 0 0 1 36.5 924.5)" fill="#96A5A6" font-family="'Helvetica'" font-size="12">Server Main</text>
<text transform="matrix(1 0 0 1 36.5 1149.5)" fill="#96A5A6" font-family="'Helvetica'" font-size="12">Server Vidal</text>
<text transform="matrix(1 0 0 1 603.5 978.5)" font-family="'Helvetica'" font-size="12">Rooms</text>
<text transform="matrix(1 0 0 1 603.5 992.8994)" font-family="'Helvetica'" font-size="12">application</text>
<path fill="#E67E22" d="M603.5,943.168v9.332l12,8v-9.334L603.5,943.168L603.5,943.168z"/>
<path fill="#F39C12" d="M627.501,943.168v9.332l-12,8v-9.334L627.501,943.168L627.501,943.168z"/>
<path fill="#F1C40F" d="M611.5,937.832l-8,5.341l12,7.992l12-7.992l-8-5.335h-8V937.832z"/>
<path fill="#F39C12" d="M608.833,940.5v2.673c0,2.21,2.984,4,6.667,4s6.666-1.79,6.666-4V940.5H608.833z"/>
<path fill="#E67E22" d="M608.833,940.5v2.673c0,2.21,2.984,4,6.667,4V940.5H608.833z"/>
<path fill="#F1C40F" d="M622.166,940.5c0,2.215-2.983,4-6.666,4s-6.666-1.785-6.666-4c0-2.21,2.987-4,6.67-4s6.665,1.79,6.665,4
	H622.166L622.166,940.5z"/>
<path fill="#95A5A6" d="M603.504,1049.763v4.185c-0.01,0.021,0,0.05,0,0.071c0,3.021,4.896,5.479,10.943,5.479
	c6.047,0,10.946-2.45,10.946-5.479v-4.26l-21.89,0.003V1049.763L603.504,1049.763z"/>
<path fill="#BDC3C7" d="M625.397,1049.763c0,2.688-4.901,4.864-10.949,4.864c-6.049,0-10.941-2.178-10.941-4.865
	c0-2.687,4.896-4.868,10.942-4.868s10.95,2.183,10.95,4.865L625.397,1049.763L625.397,1049.763z"/>
<path fill="#7F8C8D" d="M603.578,1054.02c-0.058,0.2-0.071,0.4-0.071,0.607c0,2.688,4.896,4.865,10.942,4.865
	s10.95-2.187,10.95-4.868c0-0.207-0.022-0.408-0.077-0.607c-0.675,2.398-5.29,4.265-10.873,4.265c-5.582,0-10.197-1.86-10.87-4.265
	L603.578,1054.02L603.578,1054.02z"/>
<path fill="#95A5A6" d="M603.504,1043.68v4.188c-0.01,0.02,0,0.05,0,0.067c0,3.023,4.896,5.479,10.943,5.479
	c6.047,0,10.946-2.452,10.946-5.48v-4.256L603.504,1043.68L603.504,1043.68z"/>
<path fill="#BDC3C7" d="M625.397,1043.68c0,2.688-4.901,4.865-10.949,4.865c-6.049,0-10.941-2.178-10.941-4.865
	c0-2.687,4.896-4.864,10.942-4.864S625.399,1040.992,625.397,1043.68L625.397,1043.68z"/>
<path fill="#7F8C8D" d="M603.578,1047.936c-0.058,0.2-0.071,0.402-0.071,0.61c0,2.688,4.896,4.864,10.942,4.864
	s10.95-2.185,10.95-4.865c0-0.207-0.022-0.408-0.077-0.61c-0.675,2.4-5.29,4.265-10.873,4.265
	C608.867,1052.195,604.252,1050.338,603.578,1047.936L603.578,1047.936z"/>
<path fill="#95A5A6" d="M603.504,1037.598v4.185c-0.01,0.021,0,0.05,0,0.072c0,3.021,4.896,5.479,10.943,5.479
	c6.047,0,10.946-2.45,10.946-5.479v-4.258L603.504,1037.598L603.504,1037.598z"/>
<path fill="#7F8C8D" d="M603.578,1041.853c-0.058,0.202-0.071,0.403-0.071,0.61c0,2.688,4.896,4.865,10.942,4.865
	s10.95-2.185,10.95-4.865c0-0.207-0.022-0.41-0.077-0.61c-0.675,2.4-5.29,4.265-10.873,4.265
	C608.867,1046.113,604.252,1044.256,603.578,1041.853L603.578,1041.853z"/>
<path fill="#BDC3C7" d="M614.449,1049.763v9.73c6.047,0,10.95-2.45,10.95-5.479v-4.258L614.449,1049.763L614.449,1049.763z"/>
<path fill="#ECF0F1" d="M614.449,1044.896v9.732c6.047,0,10.95-2.18,10.95-4.867c0-2.687-4.903-4.868-10.95-4.868V1044.896
	L614.449,1044.896z"/>
<path fill="#BDC3C7" d="M614.449,1043.68v9.732c6.047,0,10.95-2.454,10.95-5.48v-4.26l-10.95,0.004V1043.68L614.449,1043.68z"/>
<path fill="#95A5A6" d="M625.322,1047.936c-0.675,2.4-5.29,4.265-10.873,4.265v1.218c6.047,0,10.95-2.18,10.95-4.866
	c0-0.207-0.02-0.41-0.077-0.607V1047.936z"/>
<path fill="#ECF0F1" d="M614.449,1038.815v9.729c6.047,0,10.95-2.18,10.95-4.868
	C625.399,1040.992,620.496,1038.815,614.449,1038.815L614.449,1038.815z"/>
<path fill="#BDC3C7" d="M614.449,1037.598v9.732c6.047,0,10.95-2.45,10.95-5.479v-4.257L614.449,1037.598L614.449,1037.598z"/>
<path fill="#95A5A6" d="M625.322,1041.853c-0.675,2.4-5.29,4.265-10.873,4.265v1.22c6.047,0,10.95-2.18,10.95-4.868
	C625.399,1042.26,625.379,1042.057,625.322,1041.853z M625.322,1054.02c-0.675,2.398-5.29,4.265-10.873,4.265v1.216
	c6.047,0,10.95-2.182,10.95-4.865C625.399,1054.421,625.379,1054.221,625.322,1054.02L625.322,1054.02z"/>
<path fill="#BDC3C7" d="M625.397,1037.598c0,2.688-4.901,4.865-10.949,4.865c-6.049,0-10.941-2.178-10.941-4.865
	c0-2.687,4.896-4.864,10.942-4.864S625.399,1034.911,625.397,1037.598L625.397,1037.598z"/>
<text transform="matrix(1 0 0 1 603.5 1077.5)" font-family="'Helvetica'" font-size="12">Rooms</text>
<text transform="matrix(1 0 0 1 603.5 1091.8994)" font-family="'Helvetica'" font-size="12">database</text>
<text transform="matrix(1 0 0 1 522.5 978.5)" font-family="'Helvetica'" font-size="12">CIS demo</text>
<text transform="matrix(1 0 0 1 522.5 992.8994)" font-family="'Helvetica'" font-size="12">application</text>
<path fill="#E67E22" d="M522.5,943.168v9.332l12,8v-9.334L522.5,943.168L522.5,943.168z"/>
<path fill="#F39C12" d="M546.5,943.168v9.332l-12,8v-9.334L546.5,943.168L546.5,943.168z"/>
<path fill="#F1C40F" d="M530.5,937.832l-8,5.341l12,7.992l12-7.992l-8-5.335h-8V937.832z"/>
<path fill="#F39C12" d="M527.832,940.5v2.673c0,2.21,2.984,4,6.668,4c3.682,0,6.666-1.79,6.666-4V940.5H527.832z"/>
<path fill="#E67E22" d="M527.832,940.5v2.673c0,2.21,2.984,4,6.668,4V940.5H527.832z"/>
<path fill="#F1C40F" d="M541.166,940.5c0,2.215-2.984,4-6.666,4c-3.684,0-6.666-1.785-6.666-4c0-2.21,2.986-4,6.67-4
	c3.682,0,6.664,1.79,6.664,4H541.166L541.166,940.5z"/>
<path fill="#95A5A6" d="M522.504,1049.529v4.185c-0.01,0.021,0,0.05,0,0.071c0,3.021,4.895,5.479,10.943,5.479
	c6.047,0,10.945-2.45,10.945-5.479v-4.26l-21.889,0.003V1049.529L522.504,1049.529z"/>
<path fill="#BDC3C7" d="M544.396,1049.529c0,2.688-4.9,4.864-10.949,4.864s-10.941-2.178-10.941-4.865
	c0-2.687,4.896-4.868,10.943-4.868s10.949,2.183,10.949,4.865L544.396,1049.529L544.396,1049.529z"/>
<path fill="#7F8C8D" d="M522.578,1053.786c-0.059,0.2-0.072,0.4-0.072,0.607c0,2.688,4.896,4.865,10.943,4.865
	s10.949-2.187,10.949-4.868c0-0.207-0.021-0.408-0.076-0.607c-0.676,2.398-5.291,4.265-10.873,4.265s-10.197-1.86-10.871-4.265
	V1053.786L522.578,1053.786z"/>
<path fill="#95A5A6" d="M522.504,1043.446v4.188c-0.01,0.02,0,0.05,0,0.067c0,3.023,4.895,5.479,10.943,5.479
	c6.047,0,10.945-2.452,10.945-5.48v-4.256L522.504,1043.446L522.504,1043.446z"/>
<path fill="#BDC3C7" d="M544.396,1043.446c0,2.688-4.9,4.865-10.949,4.865s-10.941-2.178-10.941-4.865
	c0-2.687,4.896-4.864,10.943-4.864S544.398,1040.759,544.396,1043.446L544.396,1043.446z"/>
<path fill="#7F8C8D" d="M522.578,1047.702c-0.059,0.2-0.072,0.402-0.072,0.61c0,2.688,4.896,4.864,10.943,4.864
	s10.949-2.185,10.949-4.865c0-0.207-0.021-0.408-0.076-0.61c-0.676,2.4-5.291,4.265-10.873,4.265
	C527.867,1051.962,523.252,1050.104,522.578,1047.702L522.578,1047.702z"/>
<path fill="#95A5A6" d="M522.504,1037.364v4.185c-0.01,0.021,0,0.05,0,0.072c0,3.021,4.895,5.479,10.943,5.479
	c6.047,0,10.945-2.45,10.945-5.479v-4.258L522.504,1037.364L522.504,1037.364z"/>
<path fill="#7F8C8D" d="M522.578,1041.619c-0.059,0.202-0.072,0.403-0.072,0.61c0,2.688,4.896,4.865,10.943,4.865
	s10.949-2.185,10.949-4.865c0-0.207-0.021-0.41-0.076-0.61c-0.676,2.4-5.291,4.265-10.873,4.265
	C527.867,1045.88,523.252,1044.022,522.578,1041.619L522.578,1041.619z"/>
<path fill="#BDC3C7" d="M533.449,1049.529v9.73c6.047,0,10.949-2.45,10.949-5.479v-4.258L533.449,1049.529L533.449,1049.529z"/>
<path fill="#ECF0F1" d="M533.449,1044.663v9.732c6.047,0,10.949-2.18,10.949-4.867c0-2.687-4.902-4.868-10.949-4.868V1044.663
	L533.449,1044.663z"/>
<path fill="#BDC3C7" d="M533.449,1043.446v9.732c6.047,0,10.949-2.454,10.949-5.48v-4.26l-10.949,0.004V1043.446L533.449,1043.446z"
	/>
<path fill="#95A5A6" d="M544.322,1047.702c-0.676,2.4-5.291,4.265-10.873,4.265v1.218c6.047,0,10.949-2.18,10.949-4.866
	c0-0.207-0.02-0.41-0.076-0.607V1047.702z"/>
<path fill="#ECF0F1" d="M533.449,1038.582v9.729c6.047,0,10.949-2.18,10.949-4.868
	C544.398,1040.759,539.496,1038.582,533.449,1038.582L533.449,1038.582z"/>
<path fill="#BDC3C7" d="M533.449,1037.364v9.732c6.047,0,10.949-2.45,10.949-5.479v-4.257L533.449,1037.364L533.449,1037.364z"/>
<path fill="#95A5A6" d="M544.322,1041.619c-0.676,2.4-5.291,4.265-10.873,4.265v1.22c6.047,0,10.949-2.18,10.949-4.868
	C544.398,1042.026,544.379,1041.823,544.322,1041.619z M544.322,1053.786c-0.676,2.398-5.291,4.265-10.873,4.265v1.216
	c6.047,0,10.949-2.182,10.949-4.865C544.398,1054.188,544.379,1053.987,544.322,1053.786L544.322,1053.786z"/>
<path fill="#BDC3C7" d="M544.396,1037.364c0,2.688-4.9,4.865-10.949,4.865s-10.941-2.178-10.941-4.865
	c0-2.687,4.896-4.864,10.943-4.864S544.398,1034.678,544.396,1037.364L544.396,1037.364z"/>
<text transform="matrix(1 0 0 1 522.5 1077.5)" font-family="'Helvetica'" font-size="12">CIS demo</text>
<text transform="matrix(1 0 0 1 522.5 1091.8994)" font-family="'Helvetica'" font-size="12">database</text>
<g id="layer1" transform="translate(0,-1028.3622)" inkscape:label="Layer 1" inkscape:groupmode="layer">
	<path id="path3031-3" inkscape:connector-curvature="0" fill="#F39C12" d="M209.5,1736.862l2,10h-2V1736.862z"/>
	<path id="path3031" inkscape:connector-curvature="0" fill="#F39C12" d="M191.5,1736.862l-2,10h2V1736.862z"/>
	<path id="path3031-8" inkscape:connector-curvature="0" fill="#E67E22" d="M191.5,1739.862l-2,14h2h18h2l-2-14H191.5z"/>
	<path id="rect3011" inkscape:connector-curvature="0" fill="#F1C40F" d="M189.5,1746.862v7h22v-7h-8.188
		c-0.416,1.158-1.512,2-2.812,2c-1.301,0-2.397-0.842-2.812-2H189.5z"/>
	<rect id="rect3011-4" x="191.5" y="1736.862" fill="#F39C12" width="18" height="3"/>
	<rect id="rect3096" x="189.5" y="1753.862" fill="#F39C12" width="22" height="1"/>
</g>
<g>
	<path fill="none" stroke="#CCCCCC" stroke-miterlimit="10" stroke-dasharray="4,4" d="M184.847,717.5h0.078"/>
	<path fill="none" stroke="#CCCCCC" stroke-miterlimit="10" stroke-dasharray="4,4" d="M144.5,717.5h43.025"/>
	<path fill="none" stroke="#CCCCCC" stroke-miterlimit="10" stroke-dasharray="4,4" d="M189.422,717.5h0.078"/>
</g>
<g>
	<path fill="none" stroke="#CCCCCC" stroke-miterlimit="10" stroke-dasharray="4,4" d="M144.5,765.916v0.094"/>
	<path fill="none" stroke="#CCCCCC" stroke-miterlimit="10" stroke-dasharray="4,4" d="M144.5,717.5v51.629"/>
	<path fill="none" stroke="#CCCCCC" stroke-miterlimit="10" stroke-dasharray="4,4" d="M144.5,771.406v0.094"/>
</g>
<g>
	<path fill="none" stroke="#CCCCCC" stroke-miterlimit="10" stroke-dasharray="4,4" d="M279.5,773.985v0.109"/>
	<path fill="none" stroke="#CCCCCC" stroke-miterlimit="10" stroke-dasharray="4,4" d="M279.5,717.5v60.234"/>
	<path fill="none" stroke="#CCCCCC" stroke-miterlimit="10" stroke-dasharray="4,4" d="M279.5,780.391v0.109"/>
</g>
<g>
	<path fill="none" stroke="#CCCCCC" stroke-miterlimit="10" stroke-dasharray="4,4" d="M297.5,773.055v0.125"/>
	<path fill="none" stroke="#CCCCCC" stroke-miterlimit="10" stroke-dasharray="4,4" d="M297.5,708.5v68.84"/>
	<path fill="none" stroke="#CCCCCC" stroke-miterlimit="10" stroke-dasharray="4,4" d="M297.5,780.375v0.125"/>
</g>
<g>
	<path fill="none" stroke="#CCCCCC" stroke-miterlimit="10" stroke-dasharray="4,4" d="M126.5,764.985v0.109"/>
	<path fill="none" stroke="#CCCCCC" stroke-miterlimit="10" stroke-dasharray="4,4" d="M126.5,708.5v60.233"/>
	<path fill="none" stroke="#CCCCCC" stroke-miterlimit="10" stroke-dasharray="4,4" d="M126.5,771.391v0.109"/>
</g>
<g>
	<path fill="none" stroke="#CCCCCC" stroke-miterlimit="10" stroke-dasharray="4,4" d="M274.756,717.5h0.113"/>
	<path fill="none" stroke="#CCCCCC" stroke-miterlimit="10" stroke-dasharray="4,4" d="M216.5,717.5h62.123"/>
	<path fill="none" stroke="#CCCCCC" stroke-miterlimit="10" stroke-dasharray="4,4" d="M281.362,717.5h0.113"/>
</g>
<g>
	<path fill="none" stroke="#CCCCCC" stroke-miterlimit="10" stroke-dasharray="4,4" d="M450.5,773.055v0.125"/>
	<path fill="none" stroke="#CCCCCC" stroke-miterlimit="10" stroke-dasharray="4,4" d="M450.5,708.5v68.84"/>
	<path fill="none" stroke="#CCCCCC" stroke-miterlimit="10" stroke-dasharray="4,4" d="M450.5,780.375v0.125"/>
</g>
<g>
	<path fill="none" stroke="#CCCCCC" stroke-miterlimit="10" stroke-dasharray="4,4" d="M531.5,773.055v0.125"/>
	<path fill="none" stroke="#CCCCCC" stroke-miterlimit="10" stroke-dasharray="4,4" d="M531.5,708.5v68.84"/>
	<path fill="none" stroke="#CCCCCC" stroke-miterlimit="10" stroke-dasharray="4,4" d="M531.5,780.375v0.125"/>
</g>
<g>
	<path fill="none" stroke="#CCCCCC" stroke-miterlimit="10" stroke-dasharray="4,4" d="M45.5,1022.946v0.033"/>
	<path fill="none" stroke="#CCCCCC" stroke-miterlimit="10" stroke-dasharray="4,4" d="M45.5,1005.5v18.604"/>
	<path fill="none" stroke="#CCCCCC" stroke-miterlimit="10" stroke-dasharray="4,4" d="M45.5,1024.924v0.034"/>
</g>
<g>
	<path fill="none" stroke="#CCCCCC" stroke-miterlimit="10" stroke-dasharray="4,4" d="M126.5,1021.488v0.033"/>
	<path fill="none" stroke="#CCCCCC" stroke-miterlimit="10" stroke-dasharray="4,4" d="M126.5,1004.042v18.604"/>
	<path fill="none" stroke="#CCCCCC" stroke-miterlimit="10" stroke-dasharray="4,4" d="M126.5,1023.466v0.034"/>
</g>
<g>
	<path fill="none" stroke="#CCCCCC" stroke-miterlimit="10" stroke-dasharray="4,4" d="M207.5,1022.946v0.033"/>
	<path fill="none" stroke="#CCCCCC" stroke-miterlimit="10" stroke-dasharray="4,4" d="M207.5,1005.5v18.604"/>
	<path fill="none" stroke="#CCCCCC" stroke-miterlimit="10" stroke-dasharray="4,4" d="M207.5,1024.924v0.034"/>
</g>
<g>
	<path fill="none" stroke="#CCCCCC" stroke-miterlimit="10" stroke-dasharray="4,4" d="M369.5,1021.639v0.031"/>
	<path fill="none" stroke="#CCCCCC" stroke-miterlimit="10" stroke-dasharray="4,4" d="M369.5,1005.5v17.21"/>
	<path fill="none" stroke="#CCCCCC" stroke-miterlimit="10" stroke-dasharray="4,4" d="M369.5,1023.469v0.031"/>
</g>
<g>
	<path fill="none" stroke="#CCCCCC" stroke-miterlimit="10" stroke-dasharray="4,4" d="M450.5,1022.946v0.033"/>
	<path fill="none" stroke="#CCCCCC" stroke-miterlimit="10" stroke-dasharray="4,4" d="M450.5,1005.5v18.604"/>
	<path fill="none" stroke="#CCCCCC" stroke-miterlimit="10" stroke-dasharray="4,4" d="M450.5,1024.924v0.034"/>
</g>
<g>
	<path fill="none" stroke="#CCCCCC" stroke-miterlimit="10" stroke-dasharray="4,4" d="M531.5,1022.946v0.033"/>
	<path fill="none" stroke="#CCCCCC" stroke-miterlimit="10" stroke-dasharray="4,4" d="M531.5,1005.5v18.604"/>
	<path fill="none" stroke="#CCCCCC" stroke-miterlimit="10" stroke-dasharray="4,4" d="M531.5,1024.924v0.034"/>
</g>
<g>
	<path fill="none" stroke="#CCCCCC" stroke-miterlimit="10" stroke-dasharray="4,4" d="M612.5,1022.946v0.033"/>
	<path fill="none" stroke="#CCCCCC" stroke-miterlimit="10" stroke-dasharray="4,4" d="M612.5,1005.5v18.604"/>
	<path fill="none" stroke="#CCCCCC" stroke-miterlimit="10" stroke-dasharray="4,4" d="M612.5,1024.924v0.034"/>
</g>
<g>
	<path fill="none" stroke="#CCCCCC" stroke-miterlimit="10" stroke-dasharray="4,4" d="M288.5,1238.946v0.033"/>
	<path fill="none" stroke="#CCCCCC" stroke-miterlimit="10" stroke-dasharray="4,4" d="M288.5,1221.5v18.604"/>
	<path fill="none" stroke="#CCCCCC" stroke-miterlimit="10" stroke-dasharray="4,4" d="M288.5,1240.924v0.034"/>
</g>
<g>
	<path fill="none" stroke="#CCCCCC" stroke-miterlimit="10" stroke-dasharray="4,4" d="M369.5,1238.946v0.033"/>
	<path fill="none" stroke="#CCCCCC" stroke-miterlimit="10" stroke-dasharray="4,4" d="M369.5,1221.5v18.604"/>
	<path fill="none" stroke="#CCCCCC" stroke-miterlimit="10" stroke-dasharray="4,4" d="M369.5,1240.924v0.034"/>
</g>
<g>
	<path fill="none" stroke="#CCCCCC" stroke-miterlimit="10" stroke-dasharray="4,4" d="M266.157,798.5h0.073"/>
	<path fill="none" stroke="#CCCCCC" stroke-miterlimit="10" stroke-dasharray="4,4" d="M228.5,798.5h40.156"/>
	<path fill="none" stroke="#CCCCCC" stroke-miterlimit="10" stroke-dasharray="4,4" d="M270.427,798.5h0.073"/>
</g>
<g>
	<path fill="none" stroke="#CCCCCC" stroke-miterlimit="10" stroke-dasharray="4,4" d="M179.129,798.5h0.05"/>
	<path fill="none" stroke="#CCCCCC" stroke-miterlimit="10" stroke-dasharray="4,4" d="M153.5,798.5h27.331"/>
	<path fill="none" stroke="#CCCCCC" stroke-miterlimit="10" stroke-dasharray="4,4" d="M182.036,798.5h0.05"/>
</g>
<g>
	<path fill="none" stroke="#CCCCCC" stroke-miterlimit="10" stroke-dasharray="4,4" d="M273.609,861.5h0.251"/>
	<path fill="none" stroke="#CCCCCC" stroke-miterlimit="10" stroke-dasharray="4,4" d="M144.5,861.5h137.679"/>
	<path fill="none" stroke="#CCCCCC" stroke-miterlimit="10" stroke-dasharray="4,4" d="M288.25,861.5h0.25"/>
</g>
<g>
	<path fill="none" stroke="#CCCCCC" stroke-miterlimit="10" stroke-dasharray="4,4" d="M288.5,860.569v0.016"/>
	<path fill="none" stroke="#CCCCCC" stroke-miterlimit="10" stroke-dasharray="4,4" d="M288.5,852.5v8.605"/>
	<path fill="none" stroke="#CCCCCC" stroke-miterlimit="10" stroke-dasharray="4,4" d="M288.5,861.484v0.016"/>
</g>
<g>
	<path fill="none" stroke="#CCCCCC" stroke-miterlimit="10" stroke-dasharray="4,4" d="M144.5,860.569v0.016"/>
	<path fill="none" stroke="#CCCCCC" stroke-miterlimit="10" stroke-dasharray="4,4" d="M144.5,852.5v8.605"/>
	<path fill="none" stroke="#CCCCCC" stroke-miterlimit="10" stroke-dasharray="4,4" d="M144.5,861.484v0.016"/>
</g>
<g>
	<path fill="none" stroke="#CCCCCC" stroke-miterlimit="10" stroke-dasharray="4,4" d="M107.383,798.5h0.068"/>
	<path fill="none" stroke="#CCCCCC" stroke-miterlimit="10" stroke-dasharray="4,4" d="M72.5,798.5h37.198"/>
	<path fill="none" stroke="#CCCCCC" stroke-miterlimit="10" stroke-dasharray="4,4" d="M111.338,798.5h0.068"/>
</g>
<g>
	<path fill="none" stroke="#CCCCCC" stroke-miterlimit="10" stroke-dasharray="4,4" d="M417.926,870.5h0.549"/>
	<path fill="none" stroke="#CCCCCC" stroke-miterlimit="10" stroke-dasharray="4,4" d="M135.5,870.5h315"/>
	<path fill="none" stroke="#CCCCCC" stroke-miterlimit="10" stroke-dasharray="4,4" d="M449.954,870.5h0.546"/>
</g>
<g>
	<path fill="none" stroke="#CCCCCC" stroke-miterlimit="10" stroke-dasharray="4,4" d="M135.5,868.639v0.031"/>
	<path fill="none" stroke="#CCCCCC" stroke-miterlimit="10" stroke-dasharray="4,4" d="M135.5,852.5v17.21"/>
	<path fill="none" stroke="#CCCCCC" stroke-miterlimit="10" stroke-dasharray="4,4" d="M135.5,870.469v0.031"/>
</g>
<g>
	<path fill="none" stroke="#CCCCCC" stroke-miterlimit="10" stroke-dasharray="4,4" d="M450.5,868.639v0.031"/>
	<path fill="none" stroke="#CCCCCC" stroke-miterlimit="10" stroke-dasharray="4,4" d="M450.5,852.5v17.21"/>
	<path fill="none" stroke="#CCCCCC" stroke-miterlimit="10" stroke-dasharray="4,4" d="M450.5,870.469v0.031"/>
</g>
<g>
	<path fill="none" stroke="#CCCCCC" stroke-miterlimit="10" stroke-dasharray="4,4" d="M271.748,879.5h0.282"/>
	<path fill="none" stroke="#CCCCCC" stroke-miterlimit="10" stroke-dasharray="4,4" d="M126.5,879.5h162"/>
	<path fill="none" stroke="#CCCCCC" stroke-miterlimit="10" stroke-dasharray="4,4" d="M288.219,879.5h0.281"/>
</g>
<g>
	<path fill="none" stroke="#CCCCCC" stroke-miterlimit="10" stroke-dasharray="4,4" d="M126.5,879.169v0.052"/>
	<path fill="none" stroke="#CCCCCC" stroke-miterlimit="10" stroke-dasharray="4,4" d="M126.5,852.5v28.439"/>
	<path fill="none" stroke="#CCCCCC" stroke-miterlimit="10" stroke-dasharray="4,4" d="M126.5,882.193v0.052"/>
</g>
<g>
	<path fill="none" stroke="#CCCCCC" stroke-miterlimit="10" stroke-dasharray="4,4" d="M288.5,927.916v0.094"/>
	<path fill="none" stroke="#CCCCCC" stroke-miterlimit="10" stroke-dasharray="4,4" d="M288.5,879.5v51.63"/>
	<path fill="none" stroke="#CCCCCC" stroke-miterlimit="10" stroke-dasharray="4,4" d="M288.5,933.406v0.094"/>
</g>
<g>
	<path fill="none" stroke="#CCCCCC" stroke-miterlimit="10" stroke-dasharray="4,4" d="M288.5,1045.931v0.078"/>
	<path fill="none" stroke="#CCCCCC" stroke-miterlimit="10" stroke-dasharray="4,4" d="M288.5,1005.5v43.114"/>
	<path fill="none" stroke="#CCCCCC" stroke-miterlimit="10" stroke-dasharray="4,4" d="M288.5,1050.516v0.078"/>
</g>
<g>
	<path fill="none" stroke="#CCCCCC" stroke-miterlimit="10" stroke-dasharray="4,4" d="M282.237,1050.5h0.11"/>
	<path fill="none" stroke="#CCCCCC" stroke-miterlimit="10" stroke-dasharray="4,4" d="M225.5,1050.5h63.281"/>
	<path fill="none" stroke="#CCCCCC" stroke-miterlimit="10" stroke-dasharray="4,4" d="M288.671,1050.5h0.11"/>
</g>
<g>
	<path fill="none" stroke="#CCCCCC" stroke-miterlimit="10" stroke-dasharray="4,4" d="M207.5,1144.696v0.079"/>
	<path fill="none" stroke="#CCCCCC" stroke-miterlimit="10" stroke-dasharray="4,4" d="M207.5,1103.042v44.418"/>
	<path fill="none" stroke="#CCCCCC" stroke-miterlimit="10" stroke-dasharray="4,4" d="M207.5,1149.418v0.082"/>
</g>
<path fill="#354A5D" d="M36.5,1366.166v9.334l12,8v-9.334L36.5,1366.166L36.5,1366.166z"/>
<path fill="#3382B6" d="M60.5,1366.166v9.334l-12,8v-9.334L60.5,1366.166L60.5,1366.166z"/>
<path fill="#3F9BD7" d="M44.5,1360.833l-8,5.333l12,8l12-8l-8-5.333H44.5z"/>
<path fill="#3382B6" d="M41.834,1363.5v2.666c0,2.21,2.984,4,6.666,4c3.688,0,6.666-1.79,6.666-4v-2.666H41.834L41.834,1363.5z"/>
<path fill="#354A5D" d="M41.834,1363.5v2.666c0,2.21,2.984,4,6.666,4v-6.666H41.834z"/>
<path fill="#3F9BD7" d="M55.166,1363.5c0,2.21-2.979,4-6.666,4c-3.682,0-6.666-1.79-6.666-4s2.984-4,6.666-4
	C52.183,1359.5,55.166,1361.29,55.166,1363.5z"/>
<text transform="matrix(1 0 0 1 36.5 1347.5)" fill="#96A5A6" font-family="'Helvetica'" font-size="12">Legend</text>
<text transform="matrix(1 0 0 1 36.5 1401.5)" enable-background="new    "><tspan x="0" y="0" font-family="'Helvetica'" font-size="12">PHP</tspan><tspan x="0" y="14.4" font-family="'Helvetica'" font-size="12">application</tspan></text>
<text transform="matrix(1 0 0 1 117.5 1401.5)" font-family="'Helvetica'" font-size="12">Java</text>
<text transform="matrix(1 0 0 1 117.5 1415.8994)" font-family="'Helvetica'" font-size="12">application</text>
<path fill="#E67E22" d="M117.5,1366.168v9.332l12,8v-9.334L117.5,1366.168L117.5,1366.168z"/>
<path fill="#F39C12" d="M141.501,1366.168v9.332l-12,8v-9.334L141.501,1366.168L141.501,1366.168z"/>
<path fill="#F1C40F" d="M125.5,1360.832l-8,5.341l12,7.992l12-7.992l-8-5.335h-8V1360.832z"/>
<path fill="#F39C12" d="M122.833,1363.5v2.673c0,2.21,2.985,4,6.667,4s6.666-1.79,6.666-4v-2.673H122.833z"/>
<path fill="#E67E22" d="M122.833,1363.5v2.673c0,2.21,2.985,4,6.667,4v-6.673H122.833z"/>
<path fill="#F1C40F" d="M136.166,1363.5c0,2.215-2.984,4-6.666,4s-6.666-1.785-6.666-4c0-2.21,2.986-4,6.67-4s6.665,1.79,6.665,4
	H136.166L136.166,1363.5z"/>
<path fill="#95A5A6" d="M198.504,1373.763v4.185c-0.01,0.021,0,0.05,0,0.071c0,3.021,4.896,5.479,10.943,5.479
	s10.947-2.45,10.947-5.479v-4.26l-21.891,0.003V1373.763L198.504,1373.763z"/>
<path fill="#BDC3C7" d="M220.398,1373.763c0,2.688-4.902,4.864-10.949,4.864c-6.049,0-10.942-2.178-10.942-4.865
	c0-2.687,4.896-4.868,10.942-4.868s10.95,2.183,10.95,4.865L220.398,1373.763L220.398,1373.763z"/>
<path fill="#7F8C8D" d="M198.578,1378.02c-0.057,0.2-0.071,0.4-0.071,0.607c0,2.688,4.896,4.865,10.942,4.865
	s10.95-2.187,10.95-4.868c0-0.207-0.022-0.408-0.077-0.607c-0.674,2.398-5.289,4.265-10.873,4.265
	c-5.582,0-10.197-1.86-10.869-4.265L198.578,1378.02L198.578,1378.02z"/>
<path fill="#95A5A6" d="M198.504,1367.68v4.188c-0.01,0.02,0,0.05,0,0.067c0,3.023,4.896,5.479,10.943,5.479
	s10.947-2.452,10.947-5.48v-4.256L198.504,1367.68L198.504,1367.68z"/>
<path fill="#BDC3C7" d="M220.398,1367.68c0,2.688-4.902,4.865-10.949,4.865c-6.049,0-10.942-2.178-10.942-4.865
	c0-2.687,4.896-4.864,10.942-4.864S220.399,1364.992,220.398,1367.68L220.398,1367.68z"/>
<path fill="#7F8C8D" d="M198.578,1371.936c-0.057,0.2-0.071,0.402-0.071,0.61c0,2.688,4.896,4.864,10.942,4.864
	s10.95-2.185,10.95-4.865c0-0.207-0.022-0.408-0.077-0.61c-0.674,2.4-5.289,4.265-10.873,4.265
	C203.867,1376.195,199.252,1374.338,198.578,1371.936L198.578,1371.936z"/>
<path fill="#95A5A6" d="M198.504,1361.598v4.185c-0.01,0.021,0,0.05,0,0.072c0,3.021,4.896,5.479,10.943,5.479
	s10.947-2.45,10.947-5.479v-4.258L198.504,1361.598L198.504,1361.598z"/>
<path fill="#7F8C8D" d="M198.578,1365.853c-0.057,0.202-0.071,0.403-0.071,0.61c0,2.688,4.896,4.865,10.942,4.865
	s10.95-2.185,10.95-4.865c0-0.207-0.022-0.41-0.077-0.61c-0.674,2.4-5.289,4.265-10.873,4.265
	C203.867,1370.113,199.252,1368.256,198.578,1365.853L198.578,1365.853z"/>
<path fill="#BDC3C7" d="M209.449,1373.763v9.73c6.047,0,10.95-2.45,10.95-5.479v-4.258L209.449,1373.763L209.449,1373.763z"/>
<path fill="#ECF0F1" d="M209.449,1368.896v9.732c6.047,0,10.95-2.18,10.95-4.867c0-2.687-4.903-4.868-10.95-4.868V1368.896
	L209.449,1368.896z"/>
<path fill="#BDC3C7" d="M209.449,1367.68v9.732c6.047,0,10.95-2.454,10.95-5.48v-4.26l-10.95,0.004V1367.68L209.449,1367.68z"/>
<path fill="#95A5A6" d="M220.322,1371.936c-0.674,2.4-5.289,4.265-10.873,4.265v1.218c6.047,0,10.95-2.18,10.95-4.866
	c0-0.207-0.02-0.41-0.077-0.607V1371.936z"/>
<path fill="#ECF0F1" d="M209.449,1362.815v9.729c6.047,0,10.95-2.18,10.95-4.868
	C220.399,1364.992,215.496,1362.815,209.449,1362.815L209.449,1362.815z"/>
<path fill="#BDC3C7" d="M209.449,1361.598v9.732c6.047,0,10.95-2.45,10.95-5.479v-4.257L209.449,1361.598L209.449,1361.598z"/>
<path fill="#95A5A6" d="M220.322,1365.853c-0.674,2.4-5.289,4.265-10.873,4.265v1.22c6.047,0,10.95-2.18,10.95-4.868
	C220.399,1366.26,220.379,1366.057,220.322,1365.853z M220.322,1378.02c-0.674,2.398-5.289,4.265-10.873,4.265v1.216
	c6.047,0,10.95-2.182,10.95-4.865C220.399,1378.421,220.379,1378.221,220.322,1378.02L220.322,1378.02z"/>
<path fill="#BDC3C7" d="M220.398,1361.598c0,2.688-4.902,4.865-10.949,4.865c-6.049,0-10.942-2.178-10.942-4.865
	c0-2.687,4.896-4.864,10.942-4.864S220.399,1358.911,220.398,1361.598L220.398,1361.598z"/>
<text transform="matrix(1 0 0 1 198.5 1401.5)" font-family="'Helvetica'" font-size="12">MySQL</text>
<text transform="matrix(1 0 0 1 198.5 1415.8994)" font-family="'Helvetica'" font-size="12">database</text>
<text transform="matrix(1 0 0 1 360.5 1401.5)" font-family="'Helvetica'" font-size="12">Static</text>
<text transform="matrix(1 0 0 1 360.5 1415.9004)" font-family="'Helvetica'" font-size="12">files</text>
<path fill="#8E44AD" d="M362.5,1361.5c-1.104,0-2,0.896-2,2v18c0,1.104,0.896,2,2,2h14c1.104,0,2-0.896,2-2v-14l-6-6H362.5z"/>
<path fill="#9B59B6" d="M362.5,1360.5c-1.104,0-2,0.896-2,2v18c0,1.104,0.896,2,2,2h14c1.104,0,2-0.896,2-2v-14l-6-6H362.5z"/>
<path fill="#8E44AD" d="M378.5,1366.5l-6-6v4c0,1.104,0.896,2,2,2H378.5z"/>
<path fill="#ECF0F1" d="M281.5,1362.5l-2,5h20l-2-5H281.5z"/>
<path fill="#1ABC9C" d="M286.5,1367.5h6l-1-5h-4L286.5,1367.5z"/>
<path fill="none" d="M279.5,1366.5h20l-2,13h-17L279.5,1366.5z"/>
<path fill="#BDC3C7" d="M279.5,1367.5h20v16h-20V1367.5z"/>
<path fill="#ECF0F1" d="M282.5,1377.5c-0.553,0-1,0.447-1,1v2c0,0.553,0.447,1,1,1h6c0.553,0,1-0.447,1-1v-2c0-0.553-0.447-1-1-1
	H282.5z"/>
<path fill="#16A085" d="M286.5,1367.5v7l1-1l1,1l1-1l1,1l1-1l1,1v-7H286.5z"/>
<path fill="#95A5A6" d="M282.5,1378.5h1v2h-1V1378.5z M284.5,1378.5h1v2h-1V1378.5z M286.5,1378.5h1v2h-1V1378.5z"/>
<path fill="#7F8C8D" d="M287.5,1378.5h1v2h-1V1378.5z"/>
<path fill="#BDC3C7" d="M285.5,1378.5h1v2h-1V1378.5z"/>
<text transform="matrix(1 0 0 1 279.5 1401.5)" font-family="'Helvetica'" font-size="12">Subversion</text>
<text transform="matrix(1 0 0 1 279.5 1415.9004)" font-family="'Helvetica'" font-size="12">repository</text>
</svg>
