<svg xmlns="http://www.w3.org/2000/svg" width="820" height="820" viewBox="0 0 820 820">
    <text transform="translate(352.5 368.5)" font-family="'Helvetica'" font-size="12">
        Forums
    </text>
    <text transform="translate(352.5 382.9)" font-family="'Helvetica'" font-size="12">
        application
    </text>
    <path fill="#95A5A6" d="M352.507 439.53v4.18c-.015.023 0 .05 0 .076 0 3.02 4.896 5.475 10.938 5.475s10.948-2.445 10.948-5.47v-4.26h-21.886z"/>
    <path fill="#BDC3C7" d="M374.4 439.53c0 2.687-4.895 4.866-10.947 4.866-6.048 0-10.938-2.186-10.938-4.867 0-2.69 4.894-4.87 10.938-4.87s10.95 2.18 10.95 4.863l-.002.004z"/>
    <path fill="#7F8C8D" d="M352.58 443.787c-.055.2-.064.402-.064.61 0 2.686 4.896 4.856 10.938 4.856s10.948-2.18 10.948-4.86c0-.206-.02-.408-.076-.608-.673 2.396-5.288 4.26-10.872 4.26-5.582 0-10.195-1.854-10.872-4.26v.002z"/>
    <path fill="#95A5A6" d="M352.507 433.447v4.182c-.015.02 0 .05 0 .07 0 3.02 4.896 5.475 10.938 5.475s10.948-2.452 10.948-5.477v-4.258h-21.89v.002l.004.002z"/>
    <path fill="#BDC3C7" d="M374.4 433.447c0 2.688-4.895 4.867-10.947 4.867-6.048 0-10.938-2.186-10.938-4.867 0-2.688 4.894-4.865 10.938-4.865s10.948 2.18 10.948 4.865z"/>
    <path fill="#7F8C8D" d="M352.58 437.705c-.055.2-.064.402-.064.607 0 2.688 4.896 4.86 10.938 4.86s10.948-2.18 10.948-4.86c0-.205-.02-.408-.076-.607-.673 2.4-5.288 4.258-10.872 4.258-5.583 0-10.2-1.858-10.873-4.258z"/>
    <path fill="#95A5A6" d="M352.507 427.365v4.18c-.015.025 0 .05 0 .076 0 3.03 4.896 5.48 10.938 5.48s10.948-2.443 10.948-5.474v-4.257h-21.886z"/>
    <path fill="#7F8C8D" d="M352.58 431.623c-.055.2-.064.402-.064.607 0 2.688 4.896 4.86 10.938 4.86s10.948-2.18 10.948-4.86c0-.205-.02-.408-.076-.607-.673 2.4-5.288 4.258-10.872 4.258-5.582 0-10.195-1.85-10.872-4.25v-.004z"/>
    <path fill="#BDC3C7" d="M363.453 439.53v9.73c6.047 0 10.948-2.45 10.948-5.476v-4.258h-10.944v.004z"/>
    <path fill="#ECF0F1" d="M363.453 434.665v9.73c6.047 0 10.948-2.184 10.948-4.864 0-2.684-4.892-4.86-10.944-4.86v-.002z"/>
    <path fill="#BDC3C7" d="M363.453 433.447v9.73c6.047 0 10.948-2.453 10.948-5.477v-4.257h-10.944v.004z"/>
    <path fill="#95A5A6" d="M374.325 437.705c-.673 2.4-5.288 4.258-10.872 4.258v1.217c6.047 0 10.948-2.18 10.948-4.858 0-.214-.015-.416-.072-.617z"/>
    <path fill="#ECF0F1" d="M363.453 428.582v9.73c6.047 0 10.948-2.186 10.948-4.865 0-2.685-4.895-4.865-10.944-4.865z"/>
    <path fill="#BDC3C7" d="M363.453 427.365v9.73c6.047 0 10.948-2.443 10.948-5.475v-4.257l-10.944.002z"/>
    <path fill="#95A5A6" d="M374.325 431.623c-.673 2.4-5.288 4.258-10.872 4.258v1.225c6.047 0 10.948-2.18 10.948-4.86 0-.206-.02-.41-.072-.61v-.01zm0 12.164c-.673 2.4-5.288 4.26-10.872 4.26v1.215c6.047 0 10.948-2.18 10.948-4.858 0-.215-.015-.416-.072-.617z"/>
    <path fill="#BDC3C7" d="M374.4 427.365c0 2.688-4.895 4.867-10.947 4.867-6.048 0-10.938-2.186-10.938-4.867 0-2.688 4.894-4.865 10.938-4.865s10.948 2.18 10.948 4.865z"/>
    <text transform="translate(352.5 467.5)" font-family="'Helvetica'" font-size="12">
        Forums
    </text>
    <text transform="translate(352.5 481.898)" font-family="'Helvetica'" font-size="12">
        database
    </text>
    <text transform="translate(271.5 215.5)" font-family="'Helvetica'" font-size="12">
        worldskills.org
    </text>
    <text transform="translate(271.5 229.898)" font-family="'Helvetica'" font-size="12">
        website
    </text>
    <text transform="translate(433.5 215.5)" font-family="'Helvetica'" font-size="12">
        WSC2015
    </text>
    <text transform="translate(433.5 229.898)" font-family="'Helvetica'" font-size="12">
        website
    </text>
    <text transform="translate(514.5 215.5)" font-family="'Helvetica'" font-size="12">
        WSC2017
    </text>
    <text transform="translate(514.5 229.9)" font-family="'Helvetica'" font-size="12">
        website
    </text>
    <path fill="#95A5A6" d="M433.504 43.53v4.182c-.01.024 0 .05 0 .075 0 3.02 4.896 5.474 10.943 5.474s10.947-2.45 10.947-5.47v-4.26h-21.89z"/>
    <path fill="#BDC3C7" d="M455.4 43.53c0 2.687-4.902 4.864-10.95 4.864s-10.942-2.18-10.942-4.865c0-2.69 4.896-4.87 10.943-4.87s10.95 2.18 10.95 4.866z"/>
    <path fill="#7F8C8D" d="M433.578 47.787c-.056.2-.07.4-.07.607 0 2.688 4.896 4.865 10.942 4.865s10.948-2.185 10.948-4.87c0-.204-.02-.407-.076-.606-.673 2.4-5.288 4.26-10.872 4.26-5.582 0-10.198-1.86-10.872-4.26z"/>
    <path fill="#95A5A6" d="M433.504 37.447v4.183c-.01.024 0 .05 0 .075 0 3.02 4.896 5.475 10.943 5.475s10.947-2.45 10.947-5.475v-4.258h-21.89z"/>
    <path fill="#BDC3C7" d="M455.4 37.447c0 2.688-4.902 4.867-10.95 4.867s-10.942-2.18-10.942-4.867 4.896-4.865 10.943-4.865 10.95 2.18 10.95 4.865z"/>
    <path fill="#7F8C8D" d="M433.578 41.705c-.056.2-.07.402-.07.607 0 2.688 4.896 4.865 10.942 4.865s10.948-2.176 10.948-4.86c0-.208-.02-.41-.076-.61-.673 2.4-5.288 4.258-10.872 4.258-5.582 0-10.198-1.856-10.872-4.258v-.002z"/>
    <path fill="#95A5A6" d="M433.504 31.365v4.183c-.01.024 0 .05 0 .075 0 3.02 4.896 5.475 10.943 5.475s10.947-2.448 10.947-5.475v-4.258h-21.89z"/>
    <path fill="#7F8C8D" d="M433.578 35.623c-.056.2-.07.402-.07.607 0 2.688 4.896 4.865 10.942 4.865s10.948-2.18 10.948-4.87c0-.204-.02-.41-.076-.606-.673 2.4-5.288 4.255-10.872 4.255-5.582 0-10.198-1.856-10.872-4.257v.002z"/>
    <path fill="#BDC3C7" d="M444.45 43.53v9.728c6.047 0 10.948-2.45 10.948-5.473v-4.26H444.45v.004z"/>
    <path fill="#ECF0F1" d="M444.45 38.664v9.732c6.047 0 10.948-2.18 10.948-4.87s-4.9-4.864-10.948-4.864v.002z"/>
    <path fill="#BDC3C7" d="M444.45 37.447v9.73c6.047 0 10.948-2.447 10.948-5.474v-4.258l-10.948.002z"/>
    <path fill="#95A5A6" d="M455.322 41.705c-.673 2.398-5.288 4.258-10.872 4.258v1.217c6.047 0 10.948-2.18 10.948-4.864 0-.21-.02-.412-.076-.61z"/>
    <path fill="#ECF0F1" d="M444.45 32.582v9.73c6.047 0 10.948-2.178 10.948-4.864 0-2.688-4.9-4.87-10.948-4.87v.004z"/>
    <path fill="#BDC3C7" d="M444.45 31.365v9.73c6.047 0 10.948-2.447 10.948-5.474v-4.254l-10.948.002z"/>
    <path fill="#95A5A6" d="M455.322 35.623c-.673 2.4-5.288 4.258-10.872 4.258v1.22c6.047 0 10.948-2.18 10.948-4.862 0-.21-.02-.412-.076-.61zm0 12.164c-.673 2.4-5.288 4.26-10.872 4.26v1.215c6.047 0 10.948-2.18 10.948-4.865 0-.21-.02-.41-.076-.61z"/>
    <path fill="#BDC3C7" d="M455.4 31.365c0 2.688-4.902 4.867-10.95 4.867s-10.942-2.182-10.942-4.867c0-2.687 4.896-4.865 10.943-4.865s10.95 2.18 10.95 4.865z"/>
    <text transform="translate(271.5 71.5)" font-family="'Helvetica'" font-size="12">
        worldskills.org
    </text>
    <text transform="translate(271.5 85.899)" font-family="'Helvetica'" font-size="12">
        database
    </text>
    <path fill="#95A5A6" d="M514.507 43.53v4.18c-.015.024 0 .053 0 .077 0 3.02 4.896 5.475 10.938 5.475s10.946-2.45 10.946-5.477v-4.258l-21.89.002h.01z"/>
    <path fill="#BDC3C7" d="M536.4 43.53c0 2.687-4.9 4.864-10.946 4.864s-10.938-2.18-10.938-4.865c0-2.69 4.896-4.87 10.94-4.87s10.944 2.18 10.944 4.866z"/>
    <path fill="#7F8C8D" d="M514.58 47.787c-.054.2-.065.4-.065.607 0 2.688 4.896 4.865 10.94 4.865s10.945-2.18 10.945-4.87c0-.21-.02-.41-.075-.61-.672 2.4-5.287 4.26-10.87 4.26-5.583 0-10.195-1.86-10.874-4.26v.004z"/>
    <path fill="#95A5A6" d="M514.507 37.447v4.182c-.015.02 0 .05 0 .07 0 3.022 4.896 5.476 10.938 5.476s10.946-2.45 10.946-5.477V37.44l-21.89.002h.01z"/>
    <path fill="#BDC3C7" d="M536.4 37.447c0 2.688-4.9 4.866-10.946 4.866s-10.938-2.18-10.938-4.866 4.896-4.865 10.94-4.865 10.944 2.18 10.944 4.865z"/>
    <path fill="#7F8C8D" d="M514.58 41.705c-.054.2-.065.4-.065.607 0 2.688 4.896 4.87 10.94 4.87S536.4 44.995 536.4 42.31c0-.204-.02-.406-.075-.605-.672 2.398-5.287 4.258-10.87 4.258s-10.195-1.854-10.874-4.256v-.002z"/>
    <path fill="#95A5A6" d="M514.507 31.365v4.18c-.015.025 0 .053 0 .076 0 3.026 4.896 5.48 10.938 5.48s10.946-2.45 10.946-5.476v-4.257H514.5l.007.002z"/>
    <path fill="#7F8C8D" d="M514.58 35.62c-.054.202-.065.404-.065.61 0 2.688 4.896 4.865 10.94 4.865s10.945-2.18 10.945-4.865c0-.206-.02-.408-.075-.61-.672 2.4-5.287 4.262-10.87 4.262-5.583-.003-10.2-1.86-10.875-4.26z"/>
    <path fill="#BDC3C7" d="M525.454 43.53v9.728c6.047 0 10.947-2.45 10.947-5.475v-4.258l-10.94.002-.003.002z"/>
    <path fill="#ECF0F1" d="M525.454 38.666v9.73c6.047 0 10.947-2.18 10.947-4.864 0-2.688-4.9-4.87-10.94-4.87l-.003.004z"/>
    <path fill="#BDC3C7" d="M525.454 37.447v9.73c6.047 0 10.947-2.45 10.947-5.476v-4.254l-10.94.002-.003.002z"/>
    <path fill="#95A5A6" d="M536.325 41.705c-.672 2.398-5.287 4.258-10.87 4.258v1.22c6.046 0 10.946-2.18 10.946-4.864 0-.21-.02-.41-.07-.61l-.002-.008z"/>
    <path fill="#ECF0F1" d="M525.454 32.582v9.73c6.047 0 10.947-2.18 10.947-4.864 0-2.687-4.9-4.865-10.94-4.865h-.003z"/>
    <path fill="#BDC3C7" d="M525.454 31.365v9.73c6.047 0 10.947-2.45 10.947-5.476v-4.26h-10.94l-.002.002z"/>
    <path fill="#95A5A6" d="M536.325 35.62c-.672 2.4-5.287 4.262-10.87 4.262V41.1c6.046 0 10.946-2.182 10.946-4.867 0-.202-.02-.41-.07-.608l-.002-.004zm0 12.167c-.672 2.4-5.287 4.26-10.87 4.26v1.215c6.046 0 10.946-2.178 10.946-4.863 0-.21-.02-.41-.07-.61l-.002-.006z"/>
    <path fill="#BDC3C7" d="M536.4 31.365c0 2.688-4.9 4.866-10.946 4.866s-10.938-2.18-10.938-4.862c0-2.687 4.896-4.865 10.94-4.865s10.944 2.18 10.944 4.866z"/>
    <text transform="translate(433.5 71.5)" font-family="'Helvetica'" font-size="12">
        WSC2015
    </text>
    <text transform="translate(433.5 85.899)" font-family="'Helvetica'" font-size="12">
        database
    </text>
    <path fill="#95A5A6" d="M271.504 43.53v4.18c-.01.023 0 .052 0 .075 0 3.022 4.896 5.476 10.943 5.476s10.947-2.45 10.947-5.472V43.53h-21.89z"/>
    <path fill="#BDC3C7" d="M293.4 43.53c0 2.687-4.903 4.864-10.95 4.864-6.05 0-10.943-2.18-10.943-4.865 0-2.69 4.896-4.87 10.943-4.87s10.95 2.18 10.95 4.866z"/>
    <path fill="#7F8C8D" d="M271.58 47.787c-.058.2-.073.4-.073.607 0 2.688 4.896 4.865 10.943 4.865s10.95-2.185 10.95-4.87c0-.206-.022-.407-.077-.606-.674 2.4-5.29 4.26-10.873 4.26-5.582 0-10.198-1.86-10.87-4.26z"/>
    <path fill="#95A5A6" d="M271.504 37.447v4.182c-.01.02 0 .05 0 .07 0 3.022 4.896 5.476 10.943 5.476s10.947-2.45 10.947-5.477V37.44l-21.89.002z"/>
    <path fill="#BDC3C7" d="M293.4 37.447c0 2.688-4.903 4.866-10.95 4.866-6.05 0-10.943-2.18-10.943-4.866s4.896-4.865 10.943-4.865 10.95 2.18 10.95 4.865z"/>
    <path fill="#7F8C8D" d="M271.58 41.705c-.058.2-.073.4-.073.607 0 2.688 4.896 4.865 10.943 4.865s10.95-2.18 10.95-4.865c0-.206-.022-.408-.077-.607-.674 2.398-5.29 4.254-10.873 4.254-5.582 0-10.197-1.858-10.87-4.26v.002z"/>
    <path fill="#95A5A6" d="M271.504 31.365v4.18c-.01.025 0 .05 0 .076 0 3.025 4.896 5.48 10.943 5.48s10.947-2.45 10.947-5.474v-4.258h-21.89z"/>
    <path fill="#7F8C8D" d="M271.58 35.623c-.058.2-.073.4-.073.607 0 2.688 4.896 4.865 10.943 4.865s10.95-2.18 10.95-4.862c0-.206-.022-.41-.077-.608-.674 2.4-5.29 4.258-10.873 4.258-5.582 0-10.197-1.854-10.87-4.258v-.002z"/>
    <path fill="#BDC3C7" d="M282.45 43.53v9.728c6.047 0 10.95-2.45 10.95-5.475v-4.258l-10.95.004z"/>
    <path fill="#ECF0F1" d="M282.45 38.666v9.73c6.047 0 10.95-2.18 10.95-4.864 0-2.688-4.903-4.866-10.95-4.866z"/>
    <path fill="#BDC3C7" d="M282.45 37.447v9.73c6.047 0 10.95-2.45 10.95-5.476v-4.254l-10.95.004z"/>
    <path fill="#95A5A6" d="M293.323 41.705c-.674 2.4-5.29 4.258-10.873 4.258v1.218c6.047 0 10.95-2.18 10.95-4.86 0-.213-.02-.413-.077-.61z"/>
    <path fill="#ECF0F1" d="M282.45 32.582v9.73c6.047 0 10.95-2.18 10.95-4.864 0-2.684-4.903-4.863-10.95-4.863v-.003z"/>
    <path fill="#BDC3C7" d="M282.45 31.365v9.73c6.047 0 10.95-2.45 10.95-5.476v-4.26h-10.95v.002z"/>
    <path fill="#95A5A6" d="M293.323 35.623c-.674 2.398-5.29 4.258-10.873 4.258v1.22c6.047 0 10.95-2.18 10.95-4.863 0-.21-.02-.412-.077-.61zm0 12.164c-.674 2.4-5.29 4.26-10.873 4.26v1.215c6.047 0 10.95-2.178 10.95-4.863 0-.21-.02-.415-.077-.616z"/>
    <path fill="#BDC3C7" d="M293.4 31.365c0 2.688-4.903 4.866-10.95 4.866-6.05 0-10.943-2.18-10.943-4.862 0-2.687 4.896-4.865 10.943-4.865s10.95 2.18 10.95 4.866z"/>
    <text transform="translate(514.5 71.5)" font-family="'Helvetica'" font-size="12">
        WSC2017
    </text>
    <text transform="translate(514.5 85.899)" font-family="'Helvetica'" font-size="12">
        database
    </text>
    <path fill="#E67E22" d="M109.504 175.883v11.03L125.39 197.5v-11.025l-15.886-10.588v-.004z"/>
    <path fill="#F39C12" d="M141.27 175.883v11.03L125.388 197.5v-11.03l15.882-10.587z"/>
    <path fill="#F1C40F" d="M125.388 165.735L109.5 175.883l15.887 10.588 15.88-10.584-15.883-10.146.004-.003z"/>
    <path fill="#E67E22" d="M120.754 168.713v1.984c0 1.645 2.074 2.98 4.637 2.98 2.56 0 4.637-1.335 4.637-2.98v-1.984h-9.27zm0 0v1.984c0 1.645 2.074 2.98 4.637 2.98v-4.966l-4.633.006z"/>
    <path fill="#F1C40F" d="M130.02 168.713c0 1.646-2.073 2.978-4.633 2.978-2.565 0-4.64-1.325-4.64-2.97s2.074-2.98 4.637-2.98c2.558 0 4.632 1.335 4.632 2.98l.002-.002.002-.002z"/>
    <path fill="#E67E22" d="M129.358 174.006v1.985c0 1.65 2.072 2.98 4.632 2.98 2.562 0 4.633-1.33 4.633-2.98v-1.98h-9.265zm0 0v1.985c0 1.65 2.072 2.98 4.632 2.98v-4.96h-4.632z"/>
    <path fill="#F1C40F" d="M138.623 174.006c0 1.646-2.07 2.98-4.633 2.98-2.56 0-4.633-1.334-4.633-2.98 0-1.645 2.07-2.978 4.63-2.978s4.633 1.332 4.633 2.976l.003.002z"/>
    <path fill="#E67E22" d="M112.15 173.346v1.984c0 1.648 2.074 2.98 4.633 2.98 2.56 0 4.633-1.332 4.633-2.98v-1.98h-9.266v-.004zm0 0v1.984c0 1.648 2.074 2.98 4.633 2.98v-4.962h-4.633v-.002z"/>
    <path fill="#F1C40F" d="M121.416 173.346c0 1.646-2.074 2.98-4.633 2.98-2.56 0-4.633-1.334-4.633-2.98s2.074-2.98 4.633-2.98c2.56 0 4.633 1.335 4.633 2.98z"/>
    <path fill="#E67E22" d="M120.754 178.64v1.984c0 1.646 2.074 2.978 4.637 2.978 2.56 0 4.637-1.332 4.637-2.978v-1.985h-9.27zm0 0v1.984c0 1.646 2.074 2.978 4.637 2.978v-4.963h-4.633z"/>
    <path fill="#F1C40F" d="M130.02 178.64c0 1.645-2.073 2.98-4.633 2.98-2.565 0-4.64-1.335-4.64-2.98 0-1.646 2.074-2.98 4.637-2.98 2.558 0 4.632 1.335 4.632 2.98h.004z"/>
    <text transform="translate(109.5 215.5)" font-family="'Helvetica'" font-size="12">
        Web
    </text>
    <text transform="translate(109.5 229.9)" font-family="'Helvetica'" font-size="12">
        services
    </text>
    <path fill="#95A5A6" d="M110.614 34.75v4.182c-.01.024 0 .054 0 .076 0 3.02 4.896 5.474 10.943 5.474s10.948-2.45 10.948-5.476v-4.26l-21.89.002v.003z"/>
    <path fill="#BDC3C7" d="M132.51 34.75c0 2.69-4.903 4.866-10.95 4.866s-10.943-2.182-10.943-4.865c0-2.684 4.896-4.862 10.943-4.862 6.048 0 10.95 2.177 10.95 4.866z"/>
    <path fill="#7F8C8D" d="M110.69 39.01c-.058.197-.073.4-.073.605 0 2.688 4.896 4.865 10.943 4.865 6.048 0 10.95-2.177 10.95-4.862 0-.207-.02-.408-.075-.606-.673 2.397-5.288 4.258-10.872 4.258-5.58 0-10.197-1.856-10.87-4.258h-.003v-.003z"/>
    <path fill="#95A5A6" d="M110.614 28.67v4.18c-.01.022 0 .05 0 .073 0 3.022 4.896 5.477 10.943 5.477s10.948-2.45 10.948-5.476v-4.257l-21.89.002z"/>
    <path fill="#BDC3C7" d="M132.51 28.67c0 2.687-4.903 4.864-10.95 4.864s-10.94-2.18-10.94-4.865c0-2.69 4.895-4.87 10.942-4.87s10.95 2.18 10.95 4.866h-.003z"/>
    <path fill="#7F8C8D" d="M110.69 32.924c-.058.2-.073.402-.073.61 0 2.687 4.896 4.864 10.943 4.864 6.048 0 10.95-2.18 10.95-4.87 0-.206-.02-.406-.075-.608-.673 2.4-5.288 4.26-10.872 4.26-5.58 0-10.197-1.854-10.87-4.26l-.004.004z"/>
    <path fill="#95A5A6" d="M110.614 22.587v4.18c-.01.024 0 .053 0 .077 0 3.02 4.896 5.476 10.943 5.476s10.948-2.45 10.948-5.476v-4.26h-21.89v.003z"/>
    <path fill="#7F8C8D" d="M110.69 26.842c-.058.2-.073.402-.073.61 0 2.687 4.896 4.864 10.943 4.864 6.048 0 10.95-2.18 10.95-4.865 0-.203-.02-.41-.075-.61-.673 2.4-5.288 4.265-10.872 4.265-5.58 0-10.197-1.855-10.87-4.26h-.004z"/>
    <path fill="#BDC3C7" d="M121.56 34.75v9.73c6.047 0 10.95-2.45 10.95-5.476v-4.257l-10.95.004z"/>
    <path fill="#ECF0F1" d="M121.56 29.885v9.732c6.047 0 10.95-2.18 10.95-4.867s-4.903-4.86-10.95-4.86v-.005z"/>
    <path fill="#BDC3C7" d="M121.56 28.67v9.73c6.047 0 10.95-2.45 10.95-5.477v-4.258l-10.95.004z"/>
    <path fill="#95A5A6" d="M132.432 32.924c-.673 2.4-5.288 4.26-10.872 4.26v1.218c6.05 0 10.95-2.18 10.95-4.866 0-.205-.02-.408-.075-.61l-.003-.002z"/>
    <path fill="#ECF0F1" d="M121.56 23.803v9.73c6.047 0 10.95-2.182 10.95-4.868 0-2.685-4.903-4.862-10.95-4.862z"/>
    <path fill="#BDC3C7" d="M121.56 22.587v9.73c6.047 0 10.95-2.448 10.95-5.475v-4.26h-10.95v.005z"/>
    <path fill="#95A5A6" d="M132.432 26.842c-.673 2.4-5.288 4.26-10.872 4.26v1.218c6.05 0 10.95-2.18 10.95-4.866 0-.205-.02-.408-.075-.61l-.003-.002zm0 12.167c-.673 2.393-5.288 4.253-10.872 4.253v1.218c6.05 0 10.95-2.18 10.95-4.863 0-.21-.02-.41-.075-.61h-.003z"/>
    <path fill="#BDC3C7" d="M132.51 22.587c0 2.688-4.903 4.865-10.95 4.865s-10.943-2.182-10.943-4.865c0-2.688 4.896-4.866 10.943-4.866 6.048 0 10.95 2.18 10.95 4.87z"/>
    <text transform="translate(109.5 71.5)" font-family="'Helvetica'" font-size="12">
        Web services
    </text>
    <text transform="translate(109.5 85.898)" font-family="'Helvetica'" font-size="12">
        databases
    </text>
    <text transform="translate(190.5 584.5)" font-family="'Helvetica'" font-size="12">
        Mailer
    </text>
    <text transform="translate(190.5 598.899)" font-family="'Helvetica'" font-size="12">
        application
    </text>
    <text transform="translate(271.5 368.5)" font-family="'Helvetica'" font-size="12">
        Registrations
    </text>
    <text transform="translate(271.5 382.9)" font-family="'Helvetica'" font-size="12">
        application
    </text>
    <path fill="#95A5A6" d="M190.504 439.523v4.185c-.01.02 0 .05 0 .078 0 3.02 4.897 5.476 10.944 5.476 6.047 0 10.948-2.45 10.948-5.474v-4.265l-21.89.003-.002-.003z"/>
    <path fill="#BDC3C7" d="M212.4 439.523c0 2.688-4.9 4.865-10.948 4.865s-10.943-2.18-10.943-4.865c0-2.687 4.892-4.86 10.94-4.86s10.95 2.176 10.95 4.858v.006z"/>
    <path fill="#7F8C8D" d="M190.58 443.782c-.055.194-.07.396-.07.604 0 2.688 4.896 4.863 10.943 4.863s10.948-2.18 10.948-4.868c0-.208-.02-.41-.072-.604-.673 2.396-5.288 4.26-10.872 4.26-5.582 0-10.2-1.86-10.872-4.26z"/>
    <path fill="#95A5A6" d="M190.504 433.44v4.186c-.01.02 0 .054 0 .077 0 3.02 4.897 5.475 10.944 5.475 6.047 0 10.948-2.45 10.948-5.476v-4.265l-21.89.002h-.002z"/>
    <path fill="#BDC3C7" d="M212.4 433.44c0 2.69-4.9 4.866-10.948 4.866s-10.943-2.18-10.943-4.865 4.892-4.855 10.94-4.855 10.95 2.172 10.95 4.86z"/>
    <path fill="#7F8C8D" d="M190.58 437.7c-.055.194-.07.396-.07.604 0 2.688 4.896 4.865 10.943 4.865s10.948-2.18 10.948-4.868c0-.206-.02-.408-.072-.604-.673 2.396-5.288 4.256-10.872 4.256-5.582 0-10.2-1.858-10.872-4.266v.01z"/>
    <path fill="#95A5A6" d="M190.504 427.36v4.184c-.01.02 0 .05 0 .077 0 3.02 4.897 5.48 10.944 5.48 6.047 0 10.948-2.45 10.948-5.475v-4.265h-21.892z"/>
    <path fill="#7F8C8D" d="M190.58 431.617c-.055.194-.07.396-.07.604 0 2.69 4.896 4.87 10.943 4.87s10.948-2.18 10.948-4.867c0-.205-.02-.41-.072-.603-.673 2.395-5.288 4.26-10.872 4.26-5.582-.003-10.2-1.86-10.872-4.26z"/>
    <path fill="#BDC3C7" d="M201.453 439.523v9.73c6.047 0 10.948-2.45 10.948-5.475v-4.266l-10.944.01z"/>
    <path fill="#ECF0F1" d="M201.453 434.66v9.73c6.047 0 10.948-2.18 10.948-4.866 0-2.69-4.9-4.865-10.944-4.864z"/>
    <path fill="#BDC3C7" d="M201.453 433.44v9.732c6.047 0 10.948-2.45 10.948-5.475v-4.267h-10.944v.01z"/>
    <path fill="#95A5A6" d="M212.325 437.7c-.673 2.396-5.288 4.258-10.872 4.258v1.217c6.047 0 10.948-2.18 10.948-4.866 0-.21-.02-.415-.072-.61z"/>
    <path fill="#ECF0F1" d="M201.453 428.577v9.73c6.047 0 10.948-2.18 10.948-4.867 0-2.686-4.9-4.855-10.944-4.855v-.008z"/>
    <path fill="#BDC3C7" d="M201.453 427.36v9.73c6.047 0 10.948-2.45 10.948-5.475v-4.265l-10.944.01z"/>
    <path fill="#95A5A6" d="M212.325 431.617c-.673 2.396-5.288 4.26-10.872 4.26v1.216c6.047 0 10.948-2.18 10.948-4.866 0-.207-.02-.41-.072-.61zm0 12.165c-.673 2.396-5.288 4.258-10.872 4.258v1.217c6.047 0 10.948-2.18 10.948-4.864 0-.21-.02-.413-.072-.61z"/>
    <path fill="#BDC3C7" d="M212.4 427.36c0 2.687-4.9 4.864-10.948 4.864s-10.943-2.18-10.943-4.865c0-2.69 4.892-4.86 10.94-4.86s10.95 2.17 10.95 4.86z"/>
    <text transform="translate(190.5 467.5)" font-family="'Helvetica'" font-size="12">
        Who-is-who
    </text>
    <text transform="translate(190.5 481.899)" font-family="'Helvetica'" font-size="12">
        database
    </text>
    <text transform="translate(190.5 368.5)" font-family="'Helvetica'" font-size="12">
        Who-is-who
    </text>
    <text transform="translate(190.5 382.9)" font-family="'Helvetica'" font-size="12">
        application
    </text>
    <text transform="translate(28.5 368.5)" font-family="'Helvetica'" font-size="12">
        IL
    </text>
    <text transform="translate(28.5 382.9)" font-family="'Helvetica'" font-size="12">
        application
    </text>
    <path fill="#95A5A6" d="M28.504 439.524v4.185c-.01.02 0 .05 0 .073 0 3.02 4.896 5.475 10.943 5.475s10.948-2.45 10.948-5.474v-4.263l-21.89.003v-.002z"/>
    <path fill="#BDC3C7" d="M50.398 439.524c0 2.688-4.9 4.864-10.948 4.864-6.05 0-10.946-2.18-10.946-4.867s4.896-4.86 10.943-4.86 10.947 2.18 10.947 4.86l.004.007z"/>
    <path fill="#7F8C8D" d="M28.58 443.783c-.057.194-.07.396-.07.604 0 2.688 4.894 4.863 10.94 4.863 6.047 0 10.946-2.184 10.946-4.864 0-.208-.02-.41-.076-.607-.673 2.393-5.288 4.26-10.87 4.26s-10.2-1.86-10.874-4.264v.008l.003-.005z"/>
    <path fill="#95A5A6" d="M28.504 433.442v4.188c-.01.02 0 .05 0 .074 0 3.02 4.896 5.475 10.943 5.475s10.948-2.45 10.948-5.48v-4.266l-21.89.005z"/>
    <path fill="#BDC3C7" d="M50.398 433.442c0 2.688-4.9 4.864-10.948 4.864-6.05 0-10.946-2.178-10.946-4.864 0-2.688 4.896-4.86 10.943-4.86s10.947 2.178 10.947 4.86h.004z"/>
    <path fill="#7F8C8D" d="M28.58 437.7c-.057.193-.07.395-.07.603 0 2.688 4.894 4.863 10.94 4.863 6.047 0 10.946-2.18 10.946-4.864 0-.207-.02-.408-.076-.604-.673 2.396-5.288 4.26-10.87 4.26s-10.2-1.856-10.873-4.258h.002z"/>
    <path fill="#95A5A6" d="M28.504 427.36v4.185c-.01.02 0 .05 0 .076 0 3.02 4.896 5.48 10.943 5.48s10.948-2.45 10.948-5.475v-4.265h-21.89v.002z"/>
    <path fill="#7F8C8D" d="M28.58 431.617c-.057.194-.07.396-.07.604 0 2.69 4.894 4.867 10.94 4.867 6.047 0 10.946-2.18 10.946-4.866 0-.207-.02-.41-.076-.604-.673 2.396-5.288 4.26-10.87 4.26s-10.2-1.856-10.873-4.258h.002z"/>
    <path fill="#BDC3C7" d="M39.452 439.524v9.73c6.046 0 10.947-2.45 10.947-5.48v-4.26l-10.95.002v.008z"/>
    <path fill="#ECF0F1" d="M39.452 434.66v9.73c6.046 0 10.947-2.18 10.947-4.866-.005-2.685-4.9-4.864-10.95-4.863z"/>
    <path fill="#BDC3C7" d="M39.452 433.442v9.73c6.046 0 10.947-2.448 10.947-5.475v-4.265l-10.95.01z"/>
    <path fill="#95A5A6" d="M50.32 437.7c-.67 2.395-5.286 4.26-10.87 4.26v1.216c6.047 0 10.948-2.18 10.948-4.867 0-.21-.02-.415-.077-.61z"/>
    <path fill="#ECF0F1" d="M39.452 428.577v9.73c6.046 0 10.947-2.18 10.947-4.867-.005-2.686-4.9-4.864-10.95-4.863z"/>
    <path fill="#BDC3C7" d="M39.452 427.36v9.73c6.046 0 10.947-2.448 10.947-5.475v-4.265H39.45v.01z"/>
    <path fill="#95A5A6" d="M50.32 431.617c-.67 2.396-5.286 4.26-10.87 4.26v1.217c6.047 0 10.948-2.18 10.948-4.867 0-.206-.02-.41-.077-.61zm0 12.166c-.67 2.396-5.286 4.258-10.87 4.258v1.22c6.047 0 10.948-2.18 10.948-4.864 0-.207-.02-.41-.077-.61z"/>
    <path fill="#BDC3C7" d="M50.398 427.36c0 2.688-4.9 4.864-10.948 4.864-6.05 0-10.946-2.18-10.946-4.864 0-2.688 4.896-4.86 10.943-4.86s10.947 2.178 10.947 4.86h.004z"/>
    <text transform="translate(28.5 467.5)" font-family="'Helvetica'" font-size="12">
        IL
    </text>
    <text transform="translate(28.5 481.9)" font-family="'Helvetica'" font-size="12">
        database
    </text>
    <text transform="translate(181.5 134.5)" font-family="'Helvetica'" font-size="12">
        Message
    </text>
    <text transform="translate(181.5 148.9)" font-family="'Helvetica'" font-size="12">
        queue
    </text>
    <text transform="translate(595.5 215.5)" font-family="'Helvetica'" font-size="12">
        Static user
    </text>
    <text transform="translate(595.5 229.9)" font-family="'Helvetica'" font-size="12">
        content
    </text>
    <path fill="#8E44AD" d="M597.5 175.5c-1.104 0-2 .896-2 2v18c0 1.104.896 2 2 2h14c1.104 0 2-.896 2-2v-14l-6-6h-10z"/>
    <path fill="#9B59B6" d="M597.5 174.5c-1.104 0-2 .896-2 2v18c0 1.104.896 2 2 2h14c1.104 0 2-.896 2-2v-14l-6-6h-10z"/>
    <path fill="#8E44AD" d="M613.5 180.5l-6-6v4c0 1.104.896 2 2 2h4z"/>
    <text transform="translate(757.5 368.5)" font-family="'Helvetica'" font-size="12">
        Archive
    </text>
    <text transform="translate(757.5 382.9)" font-family="'Helvetica'" font-size="12">
        website
    </text>
    <path fill="#8E44AD" d="M759.5 328.5c-1.104 0-2 .896-2 2v18c0 1.104.896 2 2 2h14c1.104 0 2-.896 2-2v-14l-6-6h-10z"/>
    <path fill="#9B59B6" d="M759.5 327.5c-1.104 0-2 .896-2 2v18c0 1.104.896 2 2 2h14c1.104 0 2-.896 2-2v-14l-6-6h-10z"/>
    <path fill="#8E44AD" d="M775.5 333.5l-6-6v4c0 1.104.896 2 2 2h4z"/>
    <text transform="translate(676.5 215.5)" font-family="'Helvetica'" font-size="12">
        Facebook
    </text>
    <text transform="translate(676.5 229.899)" font-family="'Helvetica'" font-size="12">
        Members map
    </text>
    <path fill="#8E44AD" d="M678.5 175.5c-1.105 0-2 .896-2 2v18c0 1.104.895 2 2 2h14c1.104 0 2-.896 2-2v-14l-6-6h-10z"/>
    <path fill="#9B59B6" d="M678.5 174.5c-1.105 0-2 .896-2 2v18c0 1.104.895 2 2 2h14c1.104 0 2-.896 2-2v-14l-6-6h-10z"/>
    <path fill="#8E44AD" d="M694.5 180.5l-6-6v4c0 1.104.895 2 2 2h4z"/>
    <text transform="translate(28.5 215.5)" font-family="'Helvetica'" font-size="12">
        Management
    </text>
    <text transform="translate(28.5 229.9)" font-family="'Helvetica'" font-size="12">
        applications
    </text>
    <path fill="#8E44AD" d="M30.5 171.5c-1.104 0-2 .896-2 2v18c0 1.104.896 2 2 2h14c1.104 0 2-.896 2-2v-14l-6-6h-10z"/>
    <path fill="#9B59B6" d="M30.5 170.5c-1.104 0-2 .896-2 2v18c0 1.104.896 2 2 2h14c1.104 0 2-.896 2-2v-14l-6-6h-10z"/>
    <path fill="#8E44AD" d="M46.5 176.5l-6-6v4c0 1.104.896 2 2 2h4z"/>
    <text transform="translate(352.5 584.5)" font-family="'Helvetica'" font-size="12">
        CPT
    </text>
    <text transform="translate(352.5 598.9)" font-family="'Helvetica'" font-size="12">
        application
    </text>
    <path fill="#E67E22" d="M352.5 549.166v9.334l12 8v-9.334l-12-8z"/>
    <path fill="#F39C12" d="M376.5 549.166v9.334l-12 8v-9.334l12-8z"/>
    <path fill="#F1C40F" d="M360.5 543.833l-8 5.333 12 8 12-8-8-5.334h-8z"/>
    <path fill="#F39C12" d="M357.835 546.5v2.666c0 2.21 2.983 4 6.665 4s6.666-1.79 6.666-4V546.5h-13.33z"/>
    <path fill="#E67E22" d="M357.835 546.5v2.666c0 2.21 2.983 4 6.665 4V546.5h-6.665z"/>
    <path fill="#F1C40F" d="M371.165 546.5c0 2.21-2.983 4-6.665 4s-6.666-1.79-6.666-4 2.98-4 6.663-4c3.682 0 6.666 1.79 6.666 4h.002z"/>
    <path fill="#ECF0F1" d="M676.5 329.5l-2 5h20l-2-5h-16z"/>
    <path fill="#1ABC9C" d="M681.5 334.5h6l-1-5h-4l-1 5z"/>
    <path fill="none" d="M674.5 333.5h20l-2 13h-17l-1-13z"/>
    <path fill="#BDC3C7" d="M674.5 334.5h20v16h-20v-16z"/>
    <path fill="#ECF0F1" d="M677.5 344.5c-.553 0-1 .447-1 1v2c0 .553.447 1 1 1h6c.553 0 1-.447 1-1v-2c0-.553-.447-1-1-1h-6z"/>
    <path fill="#16A085" d="M681.5 334.5v7l1-1 1 1 1-1 1 1 1-1 1 1v-7h-6z"/>
    <path fill="#95A5A6" d="M677.5 345.5h1v2h-1v-2zm2 0h1v2h-1v-2zm2 0h1v2h-1v-2z"/>
    <path fill="#7F8C8D" d="M682.5 345.5h1v2h-1v-2z"/>
    <path fill="#BDC3C7" d="M680.5 345.5h1v2h-1v-2z"/>
    <text transform="translate(676.5 368.5)" font-family="'Helvetica'" font-size="12">
        Legacy
    </text>
    <text transform="translate(676.5 382.9)" font-family="'Helvetica'" font-size="12">
        repository
    </text>
    <text transform="translate(271.5 584.5)" font-family="'Helvetica'" font-size="12">
        SMP
    </text>
    <text transform="translate(271.5 598.899)" font-family="'Helvetica'" font-size="12">
        application
    </text>
    <path fill="#E67E22" d="M271.5 549.168v9.332l12 8v-9.334l-12-7.998z"/>
    <path fill="#F39C12" d="M295.5 549.168v9.332l-12 8v-9.334l12-7.998z"/>
    <path fill="#F1C40F" d="M279.5 543.832l-8 5.34 12 7.993 12-7.992-8-5.335h-8v-.006z"/>
    <path fill="#F39C12" d="M276.833 546.5v2.673c0 2.21 2.985 4 6.667 4s6.666-1.79 6.666-4V546.5h-13.333z"/>
    <path fill="#E67E22" d="M276.833 546.5v2.673c0 2.21 2.985 4 6.667 4V546.5h-6.667z"/>
    <path fill="#F1C40F" d="M290.166 546.5c0 2.215-2.984 4-6.666 4s-6.666-1.785-6.666-4c0-2.21 2.987-4 6.67-4s6.665 1.79 6.665 4h-.007z"/>
    <path fill="#95A5A6" d="M271.504 655.53v4.184c-.01.02 0 .05 0 .07 0 3.022 4.896 5.48 10.943 5.48s10.947-2.45 10.947-5.48v-4.26l-21.89.005z"/>
    <path fill="#BDC3C7" d="M293.398 655.53c0 2.687-4.902 4.862-10.95 4.862-6.048 0-10.942-2.178-10.942-4.864 0-2.688 4.896-4.868 10.943-4.868 6.043 0 10.95 2.183 10.95 4.865l-.005.004z"/>
    <path fill="#7F8C8D" d="M271.58 659.786c-.058.2-.073.4-.073.606 0 2.688 4.896 4.865 10.943 4.865s10.95-2.187 10.95-4.868c0-.21-.022-.41-.077-.61-.674 2.397-5.29 4.265-10.873 4.265-5.582 0-10.197-1.86-10.87-4.265v.004z"/>
    <path fill="#95A5A6" d="M271.504 649.446v4.188c-.01.02 0 .05 0 .067 0 3.026 4.896 5.48 10.943 5.48s10.947-2.45 10.947-5.48v-4.252h-21.89z"/>
    <path fill="#BDC3C7" d="M293.398 649.446c0 2.688-4.902 4.864-10.95 4.864-6.048 0-10.942-2.178-10.942-4.864 0-2.688 4.896-4.864 10.943-4.864 6.043 0 10.95 2.177 10.945 4.864z"/>
    <path fill="#7F8C8D" d="M271.58 653.702c-.058.2-.073.4-.073.61 0 2.688 4.896 4.863 10.943 4.863s10.95-2.185 10.95-4.865c0-.207-.022-.407-.077-.61-.674 2.4-5.29 4.266-10.873 4.266-5.582-.004-10.198-1.862-10.87-4.264z"/>
    <path fill="#95A5A6" d="M271.504 643.364v4.185c-.01.02 0 .05 0 .07 0 3.02 4.896 5.48 10.943 5.48s10.947-2.45 10.947-5.48v-4.26h-21.89z"/>
    <path fill="#7F8C8D" d="M271.58 647.62c-.058.2-.073.4-.073.608 0 2.688 4.896 4.865 10.943 4.865s10.95-2.185 10.95-4.865c0-.207-.022-.41-.077-.61-.674 2.4-5.29 4.266-10.873 4.266-5.582-.004-10.198-1.863-10.87-4.265z"/>
    <path fill="#BDC3C7" d="M282.45 655.53v9.728c6.047 0 10.95-2.45 10.95-5.48v-4.258l-10.95.01z"/>
    <path fill="#ECF0F1" d="M282.45 650.663v9.73c6.047 0 10.95-2.18 10.95-4.865 0-2.688-4.903-4.868-10.95-4.868v.003z"/>
    <path fill="#BDC3C7" d="M282.45 649.446v9.73c6.047 0 10.95-2.452 10.95-5.478v-4.26l-10.95.004v.004z"/>
    <path fill="#95A5A6" d="M293.323 653.702c-.674 2.4-5.29 4.265-10.873 4.265v1.22c6.047 0 10.95-2.182 10.95-4.867 0-.207-.02-.41-.077-.607v-.01z"/>
    <path fill="#ECF0F1" d="M282.45 644.582v9.73c6.047 0 10.95-2.18 10.95-4.868 0-2.685-4.903-4.862-10.95-4.862z"/>
    <path fill="#BDC3C7" d="M282.45 643.364v9.73c6.047 0 10.95-2.448 10.95-5.478v-4.257h-10.95z"/>
    <path fill="#95A5A6" d="M293.323 647.62c-.674 2.4-5.29 4.264-10.873 4.264v1.22c6.047 0 10.95-2.18 10.95-4.867 0-.21-.02-.414-.077-.618zm0 12.166c-.674 2.397-5.29 4.265-10.873 4.265v1.22c6.047 0 10.95-2.182 10.95-4.864 0-.215-.02-.416-.077-.617z"/>
    <path fill="#BDC3C7" d="M293.398 643.364c0 2.688-4.902 4.864-10.95 4.864-6.048 0-10.942-2.178-10.942-4.864 0-2.688 4.896-4.864 10.943-4.864 6.043 0 10.95 2.178 10.945 4.864z"/>
    <text transform="translate(271.5 683.5)" font-family="'Helvetica'" font-size="12">
        SMP
    </text>
    <text transform="translate(271.5 697.899)" font-family="'Helvetica'" font-size="12">
        database
    </text>
    <path fill="#95A5A6" d="M352.504 655.528v4.185c-.01.02 0 .05 0 .07 0 3.022 4.896 5.48 10.943 5.48s10.948-2.45 10.948-5.48v-4.26l-21.89.005z"/>
    <path fill="#BDC3C7" d="M374.4 655.528c0 2.688-4.903 4.864-10.95 4.864-6.05 0-10.943-2.178-10.943-4.864 0-2.688 4.896-4.865 10.943-4.865s10.95 2.18 10.95 4.865z"/>
    <path fill="#7F8C8D" d="M352.58 659.786c-.057.2-.072.4-.072.606 0 2.688 4.896 4.865 10.943 4.865 6.05 0 10.95-2.185 10.95-4.865 0-.207-.02-.407-.07-.606-.674 2.397-5.29 4.265-10.873 4.265-5.58 0-10.197-1.855-10.87-4.26h-.004z"/>
    <path fill="#95A5A6" d="M352.504 649.446v4.185c-.01.025 0 .055 0 .07 0 3.02 4.896 5.48 10.943 5.48s10.948-2.45 10.948-5.48v-4.255l-21.89.002v.002z"/>
    <path fill="#BDC3C7" d="M374.4 649.446c0 2.688-4.903 4.864-10.95 4.864-6.05 0-10.943-2.178-10.943-4.864 0-2.688 4.896-4.865 10.943-4.865s10.95 2.18 10.95 4.87z"/>
    <path fill="#7F8C8D" d="M352.58 653.7c-.057.203-.072.403-.072.61 0 2.688 4.896 4.865 10.943 4.865 6.05 0 10.95-2.185 10.95-4.865 0-.207-.02-.407-.07-.61-.674 2.4-5.29 4.266-10.873 4.266-5.58 0-10.197-1.855-10.87-4.265h-.004z"/>
    <path fill="#95A5A6" d="M352.504 643.364v4.185c-.01.02 0 .05 0 .07 0 3.02 4.896 5.48 10.943 5.48s10.948-2.45 10.948-5.48v-4.26h-21.89z"/>
    <path fill="#7F8C8D" d="M352.58 647.62c-.057.2-.072.4-.072.608 0 2.688 4.896 4.865 10.943 4.865 6.05 0 10.95-2.185 10.95-4.865 0-.207-.02-.41-.07-.61-.674 2.4-5.29 4.266-10.873 4.266-5.58 0-10.197-1.855-10.87-4.265h-.004z"/>
    <path fill="#BDC3C7" d="M363.45 655.528v9.73c6.048 0 10.95-2.45 10.95-5.48v-4.258l-10.95.008z"/>
    <path fill="#ECF0F1" d="M363.45 650.663v9.73c6.048 0 10.95-2.18 10.95-4.865 0-2.686-4.902-4.865-10.95-4.865z"/>
    <path fill="#BDC3C7" d="M363.45 649.446v9.73c6.048 0 10.95-2.448 10.95-5.478v-4.26l-10.95.008z"/>
    <path fill="#95A5A6" d="M374.323 653.7c-.673 2.4-5.288 4.266-10.872 4.266v1.22c6.05 0 10.95-2.184 10.95-4.867 0-.208-.02-.41-.07-.61l-.004-.01z"/>
    <path fill="#ECF0F1" d="M363.45 644.58v9.73c6.048 0 10.95-2.178 10.95-4.866 0-2.685-4.902-4.863-10.95-4.863z"/>
    <path fill="#BDC3C7" d="M363.45 643.364v9.73c6.048 0 10.95-2.448 10.95-5.478v-4.26l-10.95.008z"/>
    <path fill="#95A5A6" d="M374.323 647.62c-.673 2.4-5.288 4.266-10.872 4.266v1.218c6.05 0 10.95-2.186 10.95-4.867 0-.208-.02-.41-.07-.61l-.004-.006zm0 12.166c-.673 2.397-5.288 4.265-10.872 4.265v1.22c6.05 0 10.95-2.185 10.95-4.863 0-.208-.02-.41-.07-.607h-.003v-.01z"/>
    <path fill="#BDC3C7" d="M374.4 643.364c0 2.688-4.903 4.864-10.95 4.864-6.05 0-10.943-2.178-10.943-4.864 0-2.688 4.896-4.864 10.943-4.864s10.95 2.176 10.95 4.864z"/>
    <text transform="translate(352.5 683.5)" font-family="'Helvetica'" font-size="12">
        CPT
    </text>
    <text transform="translate(352.5 697.899)" font-family="'Helvetica'" font-size="12">
        database
    </text>
    <text transform="translate(109.5 368.5)" font-family="'Helvetica'" font-size="12">
        Aggregator
    </text>
    <text transform="translate(109.5 382.9)" font-family="'Helvetica'" font-size="12">
        application
    </text>
    <path fill="#95A5A6" d="M109.504 439.763v4.18c-.01.024 0 .056 0 .077 0 3.02 4.896 5.48 10.943 5.48s10.948-2.45 10.948-5.48v-4.26l-21.89.003z"/>
    <path fill="#BDC3C7" d="M131.4 439.763c0 2.688-4.9 4.865-10.95 4.865-6.047 0-10.942-2.178-10.942-4.865 0-2.687 4.896-4.864 10.943-4.864 6.05-.005 10.95 2.173 10.95 4.86z"/>
    <path fill="#7F8C8D" d="M109.578 444.02c-.056.2-.07.4-.07.608 0 2.688 4.895 4.864 10.942 4.864 6.047 0 10.945-2.184 10.945-4.864 0-.207-.02-.408-.076-.606-.677 2.4-5.29 4.267-10.87 4.267-5.586 0-10.2-1.86-10.878-4.27h.003z"/>
    <path fill="#95A5A6" d="M109.504 433.68v4.183c-.01.022 0 .055 0 .073 0 3.023 4.896 5.48 10.943 5.48s10.948-2.45 10.948-5.48v-4.26l-21.89.004z"/>
    <path fill="#BDC3C7" d="M131.4 433.68c0 2.69-4.9 4.866-10.95 4.866-6.047 0-10.942-2.178-10.942-4.865 0-2.682 4.896-4.86 10.943-4.86 6.05 0 10.95 2.188 10.95 4.867v-.004z"/>
    <path fill="#7F8C8D" d="M109.578 437.938c-.056.2-.07.4-.07.61 0 2.687 4.895 4.863 10.942 4.863 6.047 0 10.945-2.18 10.945-4.86 0-.205-.02-.41-.076-.61-.677 2.4-5.29 4.268-10.87 4.268-5.586 0-10.2-1.857-10.877-4.265h.002z"/>
    <path fill="#95A5A6" d="M109.504 427.6v4.18c-.01.023 0 .056 0 .077 0 3.02 4.896 5.48 10.943 5.48s10.948-2.45 10.948-5.48v-4.26l-21.89.003z"/>
    <path fill="#7F8C8D" d="M109.578 431.854c-.056.2-.07.402-.07.61 0 2.688 4.895 4.864 10.942 4.864 6.047 0 10.945-2.188 10.945-4.868 0-.207-.02-.41-.076-.61-.677 2.4-5.29 4.26-10.87 4.26-5.586 0-10.2-1.853-10.878-4.26v.004h.003z"/>
    <path fill="#BDC3C7" d="M120.45 439.763v9.73c6.047 0 10.948-2.45 10.948-5.48v-4.253l-10.947.003z"/>
    <path fill="#ECF0F1" d="M120.45 434.896v9.732c6.047 0 10.948-2.18 10.948-4.867 0-2.68-4.9-4.86-10.947-4.86z"/>
    <path fill="#BDC3C7" d="M120.45 433.68v9.733c6.047 0 10.948-2.45 10.948-5.48v-4.26l-10.947.007z"/>
    <path fill="#95A5A6" d="M131.323 437.938c-.673 2.4-5.288 4.26-10.872 4.26v1.223c6.05 0 10.95-2.18 10.95-4.863 0-.213-.02-.416-.074-.616z"/>
    <path fill="#ECF0F1" d="M120.45 428.814v9.73c6.047 0 10.948-2.178 10.948-4.867 0-2.688-4.9-4.865-10.948-4.865v.002z"/>
    <path fill="#BDC3C7" d="M120.45 427.6v9.73c6.047 0 10.948-2.45 10.948-5.48v-4.257H120.45v.007z"/>
    <path fill="#95A5A6" d="M131.323 431.854c-.673 2.4-5.288 4.266-10.872 4.266v1.218c6.05 0 10.95-2.185 10.95-4.867 0-.21-.02-.41-.074-.613zm0 12.166c-.673 2.4-5.288 4.26-10.872 4.26v1.222c6.05 0 10.95-2.185 10.95-4.864 0-.213-.02-.416-.074-.618z"/>
    <path fill="#BDC3C7" d="M131.4 427.6c0 2.688-4.9 4.864-10.95 4.864-6.047 0-10.942-2.178-10.942-4.865 0-2.69 4.896-4.87 10.943-4.87 6.05 0 10.95 2.184 10.95 4.863v.004z"/>
    <text transform="translate(109.5 467.5)" font-family="'Helvetica'" font-size="12">
        Aggregator
    </text>
    <text transform="translate(109.5 481.9)" font-family="'Helvetica'" font-size="12">
        database
    </text>
    <text transform="translate(433.5 368.5)" font-family="'Helvetica'" font-size="12">
        Portal
    </text>
    <text transform="translate(433.5 382.899)" font-family="'Helvetica'" font-size="12">
        website
    </text>
    <path fill="#95A5A6" d="M433.504 439.53v4.18c-.01.02 0 .05 0 .075 0 3.02 4.896 5.474 10.943 5.474s10.947-2.45 10.947-5.478v-4.263H433.5l.004.007z"/>
    <path fill="#BDC3C7" d="M455.397 439.53c0 2.687-4.9 4.858-10.947 4.858s-10.943-2.18-10.943-4.858c0-2.688 4.896-4.865 10.943-4.865s10.948 2.18 10.948 4.868v-.002z"/>
    <path fill="#7F8C8D" d="M433.577 443.786c-.055.2-.07.396-.07.604 0 2.69 4.896 4.866 10.943 4.866s10.948-2.178 10.948-4.864c0-.206-.02-.4-.073-.604-.673 2.396-5.288 4.258-10.872 4.258-5.582 0-10.198-1.855-10.872-4.257v-.007z"/>
    <path fill="#95A5A6" d="M433.504 433.447v4.18c-.01.02 0 .053 0 .076 0 3.02 4.896 5.476 10.943 5.476s10.947-2.45 10.947-5.48v-4.265l-21.89.01z"/>
    <path fill="#BDC3C7" d="M455.397 433.447c0 2.688-4.9 4.86-10.947 4.86s-10.943-2.18-10.943-4.86c0-2.69 4.896-4.866 10.943-4.866s10.948 2.178 10.948 4.86v.01z"/>
    <path fill="#7F8C8D" d="M433.577 437.703c-.055.2-.07.396-.07.604 0 2.688 4.896 4.865 10.943 4.865s10.948-2.178 10.948-4.865c0-.206-.02-.4-.073-.604-.673 2.396-5.288 4.26-10.872 4.26-5.582 0-10.198-1.857-10.872-4.26z"/>
    <path fill="#95A5A6" d="M433.504 427.365v4.182c-.01.024 0 .05 0 .076 0 3.02 4.896 5.474 10.943 5.474s10.947-2.45 10.947-5.475v-4.26H433.5l.004.003z"/>
    <path fill="#7F8C8D" d="M433.577 431.62c-.055.2-.07.397-.07.605 0 2.688 4.896 4.865 10.943 4.865s10.948-2.176 10.948-4.863c0-.206-.02-.41-.073-.604-.673 2.396-5.288 4.26-10.872 4.26-5.582 0-10.198-1.86-10.872-4.26v-.002z"/>
    <path fill="#BDC3C7" d="M444.45 439.53v9.728c6.047 0 10.948-2.45 10.948-5.475v-4.26l-10.945.007h-.003z"/>
    <path fill="#ECF0F1" d="M444.45 434.663v9.73c6.047 0 10.948-2.18 10.948-4.86 0-2.687-4.9-4.865-10.945-4.865l-.003-.005z"/>
    <path fill="#BDC3C7" d="M444.45 433.447v9.73c6.047 0 10.948-2.45 10.948-5.475v-4.257l-10.945.002h-.003z"/>
    <path fill="#95A5A6" d="M455.322 437.703c-.673 2.396-5.288 4.26-10.872 4.26v1.216c6.047 0 10.948-2.18 10.948-4.87 0-.205-.02-.404-.073-.604l-.003-.007z"/>
    <path fill="#ECF0F1" d="M444.45 428.58v9.73c6.047 0 10.948-2.18 10.948-4.86 0-2.69-4.9-4.865-10.945-4.865l-.003-.004z"/>
    <path fill="#BDC3C7" d="M444.45 427.365v9.73c6.047 0 10.948-2.45 10.948-5.475v-4.265h-10.945l-.003.01z"/>
    <path fill="#95A5A6" d="M455.322 431.62c-.673 2.397-5.288 4.26-10.872 4.26v1.217c6.047 0 10.948-2.18 10.948-4.866 0-.2-.02-.4-.073-.6l-.003-.006zm0 12.166c-.673 2.396-5.288 4.258-10.872 4.258v1.22c6.047 0 10.948-2.18 10.948-4.864 0-.207-.02-.405-.073-.605l-.003-.01z"/>
    <path fill="#BDC3C7" d="M455.397 427.365c0 2.688-4.9 4.86-10.947 4.86s-10.943-2.18-10.943-4.86c0-2.688 4.896-4.865 10.943-4.865s10.948 2.177 10.947 4.865z"/>
    <text transform="translate(433.5 467.5)" font-family="'Helvetica'" font-size="12">
        Portal
    </text>
    <text transform="translate(433.5 481.898)" font-family="'Helvetica'" font-size="12">
        database
    </text>
    <text transform="translate(181.5 215.5)" font-family="'Helvetica'" font-size="12">
        Auth
    </text>
    <text transform="translate(181.5 229.899)" font-family="'Helvetica'" font-size="12">
        application
    </text>
    <path fill="#354A5D" d="M181.5 180.166v9.334l12 8v-9.334l-12-8z"/>
    <path fill="#3382B6" d="M205.5 180.166v9.334l-12 8v-9.334l12-8z"/>
    <path fill="#3F9BD7" d="M189.5 174.833l-8 5.333 12 8 12-8-8-5.333h-8z"/>
    <path fill="#3382B6" d="M186.833 177.5v2.666c0 2.21 2.984 4 6.666 4s6.66-1.79 6.66-4V177.5h-13.33z"/>
    <path fill="#354A5D" d="M186.833 177.5v2.666c0 2.21 2.984 4 6.666 4V177.5h-6.67z"/>
    <path fill="#3F9BD7" d="M200.165 177.5c0 2.21-2.984 4-6.666 4s-6.67-1.79-6.67-4 2.98-4 6.663-4 6.665 1.79 6.665 4h.004z"/>
    <path fill="#354A5D" d="M190.5 333.166v9.334l12 8v-9.334l-12-8z"/>
    <path fill="#3382B6" d="M214.5 333.166v9.334l-12 8v-9.334l12-8z"/>
    <path fill="#3F9BD7" d="M198.5 327.834l-8 5.332 12 8 12-8-8-5.332h-8z"/>
    <path fill="#3382B6" d="M195.833 330.5v2.666c0 2.21 2.985 4 6.667 4s6.666-1.79 6.666-4V330.5h-13.333z"/>
    <path fill="#354A5D" d="M195.833 330.5v2.666c0 2.21 2.985 4 6.667 4V330.5h-6.667z"/>
    <path fill="#3F9BD7" d="M209.166 330.5c0 2.21-2.984 4-6.666 4s-6.666-1.79-6.666-4 2.987-4 6.67-4 6.665 1.79 6.665 4h-.007z"/>
    <path fill="#354A5D" d="M433.5 180.166v9.334l12 8v-9.334l-12-8z"/>
    <path fill="#3382B6" d="M457.5 180.166v9.334l-12 8v-9.334l12-8z"/>
    <path fill="#3F9BD7" d="M441.5 174.833l-8 5.333 12 8 12-8-8-5.333h-8z"/>
    <path fill="#3382B6" d="M438.834 177.5v2.666c0 2.21 2.984 4 6.666 4 3.688 0 6.666-1.79 6.666-4V177.5h-13.332z"/>
    <path fill="#354A5D" d="M438.834 177.5v2.666c0 2.21 2.984 4 6.666 4V177.5h-6.666z"/>
    <path fill="#3F9BD7" d="M452.166 177.5c0 2.21-2.98 4-6.666 4-3.682 0-6.666-1.79-6.666-4s2.984-4 6.666-4c3.683 0 6.666 1.79 6.666 4z"/>
    <path fill="#354A5D" d="M514.5 180.166v9.334l12 8v-9.334l-12-8z"/>
    <path fill="#3382B6" d="M538.5 180.166v9.334l-12 8v-9.334l12-8z"/>
    <path fill="#3F9BD7" d="M522.5 174.834l-8 5.332 12 8 12-8-8-5.333h-8z"/>
    <path fill="#3382B6" d="M519.835 177.5v2.665c0 2.21 2.982 4 6.665 4 3.682 0 6.666-1.79 6.666-4v-2.663h-13.33v-.003z"/>
    <path fill="#354A5D" d="M519.835 177.5v2.665c0 2.21 2.982 4 6.665 4v-6.663h-6.666v-.003z"/>
    <path fill="#3F9BD7" d="M533.165 177.5c0 2.21-2.983 4-6.665 4-3.683 0-6.666-1.79-6.666-4s2.98-4 6.663-4c3.682 0 6.666 1.79 6.668 4z"/>
    <path fill="#354A5D" d="M109.5 333.167v9.333l12 8v-9.33l-12-8.003z"/>
    <path fill="#3382B6" d="M133.5 333.167v9.333l-12 8v-9.33l12-8.003z"/>
    <path fill="#3F9BD7" d="M117.5 327.834l-8 5.333 12 8 12-8-8-5.333h-8z"/>
    <path fill="#3382B6" d="M114.833 330.5v2.667c0 2.21 2.984 4 6.666 4s6.66-1.79 6.66-4V330.5h-13.33z"/>
    <path fill="#354A5D" d="M114.833 330.5v2.667c0 2.21 2.984 4 6.666 4V330.5h-6.67z"/>
    <path fill="#3F9BD7" d="M128.165 330.5c0 2.21-2.984 4-6.666 4s-6.67-1.79-6.67-4 2.98-4 6.663-4 6.665 1.79 6.665 4h.004z"/>
    <path fill="#354A5D" d="M352.5 333.165v9.335l12 8v-9.334l-12-8z"/>
    <path fill="#3382B6" d="M376.5 333.165v9.335l-12 8v-9.334l12-8z"/>
    <path fill="#3F9BD7" d="M360.5 327.832l-8 5.334 12 8 12-8-8-5.33h-8v-.004z"/>
    <path fill="#3382B6" d="M357.835 330.5v2.666c0 2.21 2.984 4 6.666 4 3.69 0 6.67-1.79 6.67-4v-2.663h-13.33v-.003z"/>
    <path fill="#354A5D" d="M357.835 330.5v2.666c0 2.21 2.984 4 6.666 4v-6.663h-6.66l-.002-.003z"/>
    <path fill="#3F9BD7" d="M371.167 330.5c0 2.21-2.98 4-6.666 4-3.68 0-6.66-1.79-6.66-4s2.985-4 6.667-4c3.688 0 6.667 1.79 6.667 4h-.003z"/>
    <path fill="#354A5D" d="M271.5 180.166v9.334l12 8v-9.33l-12-8v-.004z"/>
    <path fill="#3382B6" d="M295.5 180.166v9.334l-12 8v-9.33l12-8v-.004z"/>
    <path fill="#3F9BD7" d="M279.5 174.833l-8 5.333 12 8 12-8-8-5.333h-8z"/>
    <path fill="#3382B6" d="M276.834 177.5v2.666c0 2.21 2.984 4 6.666 4s6.666-1.79 6.666-4V177.5h-13.332z"/>
    <path fill="#354A5D" d="M276.834 177.5v2.666c0 2.21 2.984 4 6.666 4V177.5h-6.666z"/>
    <path fill="#3F9BD7" d="M290.166 177.5c0 2.21-2.984 4-6.666 4s-6.666-1.79-6.666-4 2.984-4 6.666-4 6.666 1.79 6.666 4z"/>
    <path fill="#354A5D" d="M433.5 333.166v9.334l12 8v-9.332l-12-8.002z"/>
    <path fill="#3382B6" d="M457.5 333.166v9.334l-12 8v-9.332l12-8.002z"/>
    <path fill="#3F9BD7" d="M441.5 327.834l-8 5.332 12 8 12-8-8-5.332h-8z"/>
    <path fill="#3382B6" d="M438.835 330.5v2.666c0 2.21 2.983 4 6.665 4s6.666-1.79 6.666-4V330.5h-13.33z"/>
    <path fill="#354A5D" d="M438.835 330.5v2.666c0 2.21 2.983 4 6.665 4V330.5h-6.665z"/>
    <path fill="#3F9BD7" d="M452.165 330.5c0 2.21-2.983 4-6.665 4s-6.666-1.79-6.666-4 2.98-4 6.663-4 6.666 1.79 6.668 4z"/>
    <path fill="#354A5D" d="M28.5 333.166v9.334l12 8v-9.334l-12-8z"/>
    <path fill="#3382B6" d="M52.5 333.166v9.334l-12 8v-9.334l12-8z"/>
    <path fill="#3F9BD7" d="M36.5 327.834l-8 5.332 12 8 12-8-8-5.332h-8z"/>
    <path fill="#3382B6" d="M33.834 330.5v2.666c0 2.21 2.984 4 6.666 4s6.666-1.79 6.666-4V330.5H33.834z"/>
    <path fill="#354A5D" d="M33.834 330.5v2.666c0 2.21 2.984 4 6.666 4V330.5h-6.666z"/>
    <path fill="#3F9BD7" d="M47.166 330.5c0 2.21-2.984 4-6.666 4s-6.666-1.79-6.666-4 2.984-4 6.666-4 6.666 1.79 6.666 4z"/>
    <path fill="#354A5D" d="M271.5 333.166v9.334l12 8v-9.334l-12-8z"/>
    <path fill="#3382B6" d="M295.5 333.166v9.334l-12 8v-9.334l12-8z"/>
    <path fill="#3F9BD7" d="M279.5 327.832l-8 5.334 12 8 12-8-8-5.333h-8z"/>
    <path fill="#3382B6" d="M276.834 330.5v2.666c0 2.21 2.984 4 6.666 4s6.666-1.79 6.666-4V330.5h-13.332z"/>
    <path fill="#354A5D" d="M276.834 330.5v2.666c0 2.21 2.984 4 6.666 4V330.5h-6.666z"/>
    <path fill="#3F9BD7" d="M290.166 330.5c0 2.21-2.984 4-6.666 4s-6.666-1.79-6.666-4 2.984-4 6.666-4 6.666 1.79 6.666 4z"/>
    <path fill="#354A5D" d="M190.5 549.166v9.334l12 8v-9.334l-12-8z"/>
    <path fill="#3382B6" d="M214.5 549.166v9.334l-12 8v-9.334l12-8z"/>
    <path fill="#3F9BD7" d="M198.5 543.833l-8 5.333 12 8 12-8-8-5.333h-8z"/>
    <path fill="#3382B6" d="M195.834 546.5v2.666c0 2.21 2.984 4 6.666 4 3.688 0 6.666-1.79 6.666-4V546.5h-13.332z"/>
    <path fill="#354A5D" d="M195.834 546.5v2.666c0 2.21 2.984 4 6.666 4V546.5h-6.666z"/>
    <path fill="#3F9BD7" d="M209.166 546.5c0 2.21-2.98 4-6.666 4-3.682 0-6.666-1.79-6.666-4s2.984-4 6.666-4c3.683 0 6.666 1.79 6.666 4z"/>
    <path fill="#95A5A6" d="M123.605 43.77v4.18c-.01.023 0 .052 0 .075 0 3.02 4.896 5.475 10.943 5.475s10.945-2.45 10.945-5.478v-4.258l-21.89.002v.002l.002.002z"/>
    <path fill="#BDC3C7" d="M145.5 43.77c0 2.688-4.9 4.863-10.948 4.863-6.047 0-10.943-2.18-10.943-4.865 0-2.688 4.892-4.868 10.94-4.868s10.95 2.18 10.95 4.866v.004z"/>
    <path fill="#7F8C8D" d="M123.68 48.025c-.057.2-.07.4-.07.606 0 2.69 4.894 4.87 10.94 4.87 6.048 0 10.95-2.18 10.95-4.87 0-.207-.02-.407-.077-.605-.673 2.396-5.288 4.258-10.872 4.258-5.58 0-10.194-1.857-10.87-4.257v.002z"/>
    <path fill="#95A5A6" d="M123.605 37.686v4.184c-.01.02 0 .05 0 .07 0 3.023 4.896 5.478 10.943 5.478s10.945-2.45 10.945-5.478v-4.256l-21.89.002h.002z"/>
    <path fill="#BDC3C7" d="M145.5 37.686c0 2.688-4.9 4.865-10.948 4.865-6.047 0-10.943-2.174-10.943-4.86s4.892-4.865 10.94-4.865 10.95 2.18 10.95 4.868v-.003z"/>
    <path fill="#7F8C8D" d="M123.68 41.94c-.057.2-.07.402-.07.61 0 2.688 4.894 4.864 10.94 4.864 6.048 0 10.95-2.18 10.95-4.865 0-.21-.02-.41-.077-.61-.673 2.4-5.288 4.26-10.872 4.26-5.58 0-10.194-1.86-10.87-4.26z"/>
    <path fill="#95A5A6" d="M123.605 31.604v4.182c-.01.023 0 .052 0 .075 0 3.028 4.896 5.48 10.943 5.48s10.945-2.45 10.945-5.474v-4.258h-21.89.002z"/>
    <path fill="#7F8C8D" d="M123.68 35.86c-.057.2-.07.4-.07.607 0 2.688 4.894 4.865 10.94 4.865 6.048 0 10.95-2.18 10.95-4.865 0-.207-.02-.41-.077-.608-.673 2.394-5.288 4.26-10.872 4.26-5.58 0-10.194-1.86-10.87-4.26z"/>
    <path fill="#BDC3C7" d="M134.552 43.77v9.73c6.047 0 10.948-2.45 10.948-5.477v-4.26l-10.945.003-.003.004z"/>
    <path fill="#ECF0F1" d="M134.552 38.902v9.73c6.047 0 10.948-2.18 10.948-4.866 0-2.687-4.9-4.866-10.945-4.866l-.003.002z"/>
    <path fill="#BDC3C7" d="M134.552 37.686v9.732c6.047 0 10.948-2.454 10.948-5.48v-4.256l-10.945.002-.003.002z"/>
    <path fill="#95A5A6" d="M145.424 41.94c-.673 2.4-5.288 4.262-10.872 4.262v1.217c6.047 0 10.948-2.185 10.948-4.87 0-.207-.02-.41-.073-.61h-.003z"/>
    <path fill="#ECF0F1" d="M134.552 32.818v9.73c6.047 0 10.948-2.18 10.948-4.866 0-2.686-4.9-4.862-10.945-4.862l-.003-.002z"/>
    <path fill="#BDC3C7" d="M134.552 31.604v9.732c6.047 0 10.948-2.45 10.948-5.477V31.6h-10.948z"/>
    <path fill="#95A5A6" d="M145.424 35.86c-.673 2.397-5.288 4.26-10.872 4.26v1.217c6.047 0 10.948-2.18 10.948-4.866 0-.2-.02-.4-.073-.61h-.003zm0 12.165c-.673 2.397-5.288 4.26-10.872 4.26V53.5c6.047 0 10.948-2.176 10.948-4.86 0-.21-.02-.408-.073-.61l-.003-.005z"/>
    <path fill="#BDC3C7" d="M145.5 31.604c0 2.688-4.9 4.865-10.948 4.865-6.047 0-10.943-2.18-10.943-4.87s4.892-4.863 10.94-4.863 10.95 2.174 10.95 4.86v.003z"/>
    <path fill="#8E44AD" d="M36.5 175.232c-1.104 0-2 .895-2 2v18c0 1.104.896 2 2 2h14c1.104 0 2-.896 2-2v-14l-6-6h-10z"/>
    <path fill="#9B59B6" d="M36.5 174.232c-1.104 0-2 .895-2 2v18c0 1.104.896 2 2 2h14c1.104 0 2-.896 2-2v-14l-6-6h-10z"/>
    <path fill="#8E44AD" d="M52.5 180.232l-6-6v4c0 1.104.896 2 2 2h4z"/>
    <path fill="none" stroke="#BDC3C7" stroke-miterlimit="10" d="M10.5 8.5h801v279h-801zm0 288h801v216h-801zm0 225h801v189h-801z"/>
    <text transform="translate(28.5 26.5)" fill="#96A5A6" font-family="'Helvetica'" font-size="12">
        Server Beuk
    </text>
    <text transform="translate(28.5 314.5)" fill="#96A5A6" font-family="'Helvetica'" font-size="12">
        Server Main
    </text>
    <text transform="translate(28.5 539.5)" fill="#96A5A6" font-family="'Helvetica'" font-size="12">
        Server Vidal
    </text>
    <text transform="translate(595.5 368.5)" font-family="'Helvetica'" font-size="12">
        Rooms
    </text>
    <text transform="translate(595.5 382.899)" font-family="'Helvetica'" font-size="12">
        application
    </text>
    <path fill="#E67E22" d="M595.5 333.168v9.332l12 8v-9.334l-12-7.998z"/>
    <path fill="#F39C12" d="M619.5 333.168v9.332l-12 8v-9.334l12-7.998z"/>
    <path fill="#F1C40F" d="M603.5 327.832l-8 5.34 12 7.993 12-7.992-8-5.335h-8v-.006z"/>
    <path fill="#F39C12" d="M600.833 330.5v2.673c0 2.21 2.984 4 6.667 4s6.666-1.79 6.666-4V330.5h-13.333z"/>
    <path fill="#E67E22" d="M600.833 330.5v2.673c0 2.21 2.984 4 6.667 4V330.5h-6.667z"/>
    <path fill="#F1C40F" d="M614.166 330.5c0 2.215-2.983 4-6.666 4s-6.666-1.785-6.666-4c0-2.21 2.987-4 6.67-4s6.665 1.79 6.665 4h-.007z"/>
    <path fill="#95A5A6" d="M595.504 439.763v4.186c-.01.02 0 .05 0 .07 0 3.02 4.896 5.48 10.943 5.48s10.945-2.45 10.945-5.48v-4.26h-21.888z"/>
    <path fill="#BDC3C7" d="M617.396 439.763c0 2.688-4.9 4.864-10.948 4.864-6.05 0-10.94-2.178-10.94-4.865 0-2.687 4.895-4.868 10.94-4.868s10.95 2.184 10.95 4.865h-.002z"/>
    <path fill="#7F8C8D" d="M595.578 444.02c-.06.2-.07.4-.07.607 0 2.688 4.895 4.865 10.94 4.865s10.95-2.188 10.95-4.868c0-.207-.02-.408-.076-.607-.675 2.398-5.29 4.266-10.873 4.266-5.586 0-10.2-1.86-10.87-4.266l-.005.003z"/>
    <path fill="#95A5A6" d="M595.504 433.68v4.188c-.01.02 0 .05 0 .067 0 3.022 4.896 5.48 10.943 5.48s10.945-2.453 10.945-5.48v-4.257l-21.888.002z"/>
    <path fill="#BDC3C7" d="M617.396 433.68c0 2.688-4.9 4.865-10.948 4.865-6.05 0-10.94-2.178-10.94-4.865 0-2.687 4.895-4.863 10.94-4.863s10.95 2.175 10.948 4.863z"/>
    <path fill="#7F8C8D" d="M595.578 437.936c-.06.2-.07.402-.07.61 0 2.688 4.895 4.864 10.94 4.864s10.95-2.186 10.95-4.865c0-.207-.02-.408-.076-.61-.675 2.4-5.29 4.266-10.873 4.266-5.586-.002-10.2-1.86-10.875-4.26z"/>
    <path fill="#95A5A6" d="M595.504 427.598v4.186c-.01.02 0 .05 0 .072 0 3.02 4.896 5.48 10.943 5.48s10.945-2.45 10.945-5.48v-4.26l-21.888.002z"/>
    <path fill="#7F8C8D" d="M595.578 431.854c-.06.2-.07.402-.07.61 0 2.687 4.895 4.864 10.94 4.864s10.95-2.186 10.95-4.865c0-.207-.02-.41-.076-.61-.675 2.4-5.29 4.266-10.873 4.266-5.586-.01-10.2-1.867-10.875-4.27z"/>
    <path fill="#BDC3C7" d="M606.45 439.763v9.73c6.046 0 10.95-2.45 10.95-5.48v-4.257l-10.95.007z"/>
    <path fill="#ECF0F1" d="M606.45 434.896v9.73c6.046 0 10.95-2.18 10.95-4.866 0-2.687-4.904-4.868-10.95-4.868v.004z"/>
    <path fill="#BDC3C7" d="M606.45 433.68v9.732c6.046 0 10.95-2.454 10.95-5.48v-4.26l-10.95.004v.004z"/>
    <path fill="#95A5A6" d="M617.322 437.936c-.675 2.4-5.29 4.266-10.873 4.266v1.218c6.043 0 10.95-2.18 10.95-4.866 0-.207-.025-.41-.08-.606v-.012z"/>
    <path fill="#ECF0F1" d="M606.45 428.814v9.73c6.046 0 10.95-2.18 10.95-4.87 0-2.682-4.904-4.86-10.95-4.86z"/>
    <path fill="#BDC3C7" d="M606.45 427.598v9.732c6.046 0 10.95-2.45 10.95-5.48v-4.257l-10.95.005z"/>
    <path fill="#95A5A6" d="M617.322 431.854c-.675 2.4-5.29 4.265-10.873 4.265v1.22c6.043 0 10.95-2.18 10.95-4.87 0-.21-.02-.416-.08-.62zm0 12.166c-.675 2.398-5.29 4.266-10.873 4.266v1.216c6.043 0 10.95-2.182 10.95-4.865 0-.216-.02-.416-.08-.617z"/>
    <path fill="#BDC3C7" d="M617.396 427.598c0 2.688-4.9 4.865-10.948 4.865-6.05 0-10.94-2.178-10.94-4.865 0-2.687 4.895-4.863 10.94-4.863s10.95 2.176 10.948 4.863z"/>
    <text transform="translate(595.5 467.5)" font-family="'Helvetica'" font-size="12">
        Rooms
    </text>
    <text transform="translate(595.5 481.899)" font-family="'Helvetica'" font-size="12">
        database
    </text>
    <text transform="translate(514.5 368.5)" font-family="'Helvetica'" font-size="12">
        CIS demo
    </text>
    <text transform="translate(514.5 382.899)" font-family="'Helvetica'" font-size="12">
        application
    </text>
    <path fill="#E67E22" d="M514.5 333.168v9.332l12 8v-9.334l-12-7.998z"/>
    <path fill="#F39C12" d="M538.5 333.168v9.332l-12 8v-9.334l12-7.998z"/>
    <path fill="#F1C40F" d="M522.5 327.832l-8 5.34 12 7.993 12-7.992-8-5.335h-8v-.006z"/>
    <path fill="#F39C12" d="M519.832 330.5v2.673c0 2.21 2.984 4 6.668 4 3.682 0 6.666-1.79 6.666-4V330.5h-13.334z"/>
    <path fill="#E67E22" d="M519.832 330.5v2.673c0 2.21 2.984 4 6.668 4V330.5h-6.668z"/>
    <path fill="#F1C40F" d="M533.166 330.5c0 2.215-2.984 4-6.666 4-3.684 0-6.666-1.785-6.666-4 0-2.21 2.986-4 6.67-4 3.682 0 6.664 1.79 6.664 4h-.002z"/>
    <path fill="#95A5A6" d="M514.504 439.53v4.184c-.01.02 0 .05 0 .07 0 3.022 4.896 5.48 10.943 5.48s10.944-2.45 10.944-5.48v-4.26l-21.883.005z"/>
    <path fill="#BDC3C7" d="M536.396 439.53c0 2.687-4.9 4.862-10.95 4.862s-10.94-2.178-10.94-4.864c0-2.688 4.896-4.868 10.943-4.868s10.945 2.183 10.945 4.865l-.002.004z"/>
    <path fill="#7F8C8D" d="M514.578 443.786c-.06.2-.072.4-.072.606 0 2.688 4.896 4.865 10.943 4.865s10.945-2.187 10.945-4.868c0-.21-.02-.41-.076-.61-.677 2.397-5.29 4.265-10.873 4.265s-10.198-1.86-10.872-4.265v.004z"/>
    <path fill="#95A5A6" d="M514.504 433.446v4.188c-.01.02 0 .05 0 .067 0 3.026 4.896 5.48 10.943 5.48s10.944-2.45 10.944-5.48v-4.252h-21.883z"/>
    <path fill="#BDC3C7" d="M536.396 433.446c0 2.688-4.9 4.864-10.95 4.864s-10.94-2.178-10.94-4.864c0-2.688 4.896-4.864 10.943-4.864s10.945 2.177 10.943 4.864z"/>
    <path fill="#7F8C8D" d="M514.578 437.702c-.06.2-.072.4-.072.61 0 2.688 4.896 4.863 10.943 4.863s10.945-2.185 10.945-4.865c0-.207-.02-.407-.076-.61-.677 2.4-5.29 4.266-10.873 4.266-5.583-.004-10.198-1.862-10.872-4.264z"/>
    <path fill="#95A5A6" d="M514.504 427.364v4.185c-.01.02 0 .05 0 .07 0 3.02 4.896 5.48 10.943 5.48s10.944-2.45 10.944-5.48v-4.26h-21.883z"/>
    <path fill="#7F8C8D" d="M514.578 431.62c-.06.2-.072.4-.072.608 0 2.688 4.896 4.865 10.943 4.865s10.945-2.185 10.945-4.865c0-.207-.02-.41-.076-.61-.677 2.4-5.29 4.266-10.873 4.266-5.583-.004-10.198-1.863-10.872-4.265z"/>
    <path fill="#BDC3C7" d="M525.45 439.53v9.728c6.046 0 10.948-2.45 10.948-5.48v-4.258l-10.95.01z"/>
    <path fill="#ECF0F1" d="M525.45 434.663v9.73c6.046 0 10.948-2.18 10.948-4.865 0-2.688-4.902-4.868-10.95-4.868v.003z"/>
    <path fill="#BDC3C7" d="M525.45 433.446v9.73c6.046 0 10.948-2.452 10.948-5.478v-4.26l-10.95.004v.004z"/>
    <path fill="#95A5A6" d="M536.322 437.702c-.676 2.4-5.29 4.265-10.873 4.265v1.22c6.043 0 10.945-2.182 10.945-4.867 0-.207-.02-.41-.076-.607v-.01z"/>
    <path fill="#ECF0F1" d="M525.45 428.582v9.73c6.046 0 10.948-2.18 10.948-4.868 0-2.685-4.902-4.862-10.95-4.862z"/>
    <path fill="#BDC3C7" d="M525.45 427.364v9.73c6.046 0 10.948-2.448 10.948-5.478v-4.257h-10.95z"/>
    <path fill="#95A5A6" d="M536.322 431.62c-.676 2.4-5.29 4.264-10.873 4.264v1.22c6.043 0 10.945-2.18 10.945-4.867 0-.21-.02-.414-.076-.618zm0 12.166c-.676 2.397-5.29 4.265-10.873 4.265v1.22c6.043 0 10.945-2.182 10.945-4.864 0-.215-.02-.416-.076-.617z"/>
    <path fill="#BDC3C7" d="M536.396 427.364c0 2.688-4.9 4.864-10.95 4.864s-10.94-2.178-10.94-4.864c0-2.688 4.896-4.864 10.943-4.864s10.945 2.178 10.943 4.864z"/>
    <text transform="translate(514.5 467.5)" font-family="'Helvetica'" font-size="12">
        CIS demo
    </text>
    <text transform="translate(514.5 481.899)" font-family="'Helvetica'" font-size="12">
        database
    </text>
    <path fill="#F39C12" d="M201.5 98.5l2 10h-2v-10zm-18 0l-2 10h2v-10z"/>
    <path fill="#E67E22" d="M183.5 101.5l-2 14h22l-2-14h-18z"/>
    <path fill="#F1C40F" d="M181.5 108.5v7h22v-7h-8.188c-.416 1.158-1.512 2-2.812 2-1.3 0-2.397-.842-2.812-2H181.5z"/>
    <path fill="#F39C12" d="M183.5 98.5h18v3h-18zm-2 17h22v1h-22z"/>
    <path d="M176.847 107.5h.078m-40.425 0h43.025m1.897 0h.078m-45 48.416v.094m0-48.51v51.63m0 2.276v.094m135 2.485v.108m0-56.593v60.234m0 2.656v.11m18-7.445v.125m0-64.68v68.84m0 3.035v.125m-171-15.515v.108m0-56.593v60.233m0 2.657v.11m148.256-54h.113m-58.37 0h62.12m2.74 0h.113M442.5 163.055v.125m0-64.68v68.84m0 3.035v.125m81-7.445v.125m0-64.68v68.84m0 3.035v.125m-486 242.446v.032m0-17.478v18.604m0 .82v.034m81-3.47v.033m0-17.476v18.604m0 .82v.034m81-.554v.032m0-17.478v18.604m0 .82v.034m162-3.318v.03m0-16.17v17.21m0 .76v.03m81-.554v.032m0-17.478v18.604m0 .82v.034m81-2.012v.032m0-17.478v18.604m0 .82v.034m81-2.012v.032m0-17.478v18.604m0 .82v.034m-324 213.988v.032m0-17.478v18.604m0 .82v.034m81-2.012v.032m0-17.478v18.604m0 .82v.034M258.157 188.5h.073m-37.73 0h40.156m1.77 0h.074m-91.37 0h.05m-25.68 0h27.33m1.206 0h.05m91.524 63h.25m-129.36 0h137.68m6.07 0h.25m0-.93v.015m0-8.085v8.605m0 .38v.015m-144-.93v.015m0-8.085v8.605m0 .38v.015m-37.117-63h.068m-34.95 0h37.2m1.64 0h.068m306.52 72h.55m-282.977 0h315m-.545 0h.546m-315-1.86v.03m0-16.17v17.21m0 .76v.03m315-1.86v.03m0-16.17v17.21m0 .76v.03m-178.75 9h.28m-145.53 0h162m-.28 0h.28m-162-.33v.05m0-26.72v28.44m0 1.253v.052m162 45.67v.095m0-48.51v51.63m0 2.276v.094m0 112.43v.08m0-40.51v43.114m0 1.902v.078m-6.262-.094h.11m-56.847 0h63.28m-.11 0h.11m-81.28 94.196v.08m0-41.734v44.418m0 1.958v.082" fill="none" stroke="#ccc" stroke-miterlimit="10" stroke-dasharray="4,4"/>
    <path fill="#354A5D" d="M28.5 756.166v9.334l12 8v-9.334l-12-8z"/>
    <path fill="#3382B6" d="M52.5 756.166v9.334l-12 8v-9.334l12-8z"/>
    <path fill="#3F9BD7" d="M36.5 750.833l-8 5.333 12 8 12-8-8-5.333h-8z"/>
    <path fill="#3382B6" d="M33.834 753.5v2.666c0 2.21 2.984 4 6.666 4 3.688 0 6.666-1.79 6.666-4V753.5H33.834z"/>
    <path fill="#354A5D" d="M33.834 753.5v2.666c0 2.21 2.984 4 6.666 4V753.5h-6.666z"/>
    <path fill="#3F9BD7" d="M47.166 753.5c0 2.21-2.98 4-6.666 4-3.682 0-6.666-1.79-6.666-4s2.984-4 6.666-4c3.683 0 6.666 1.79 6.666 4z"/>
    <text transform="translate(28.5 737.5)" fill="#96A5A6" font-family="'Helvetica'" font-size="12">
        Legend
    </text>
    <text transform="translate(28.5 791.5)" font-family="'Helvetica'" font-size="12">
        PHP
    </text>
    <text transform="translate(28.5 805.9)" font-family="'Helvetica'" font-size="12">
        application
    </text>
    <text transform="translate(109.5 791.5)" font-family="'Helvetica'" font-size="12">
        Java
    </text>
    <text transform="translate(109.5 805.899)" font-family="'Helvetica'" font-size="12">
        application
    </text>
    <path fill="#E67E22" d="M109.5 756.168v9.332l12 8v-9.334l-12-7.998z"/>
    <path fill="#F39C12" d="M133.5 756.168v9.332l-12 8v-9.334l12-7.998z"/>
    <path fill="#F1C40F" d="M117.5 750.832l-8 5.34 12 7.993 12-7.992-8-5.335h-8v-.006z"/>
    <path fill="#F39C12" d="M114.833 753.5v2.673c0 2.21 2.985 4 6.667 4s6.666-1.79 6.666-4V753.5h-13.333z"/>
    <path fill="#E67E22" d="M114.833 753.5v2.673c0 2.21 2.985 4 6.667 4V753.5h-6.667z"/>
    <path fill="#F1C40F" d="M128.166 753.5c0 2.215-2.984 4-6.666 4s-6.666-1.785-6.666-4c0-2.21 2.986-4 6.67-4s6.665 1.79 6.665 4h-.007z"/>
    <path fill="#95A5A6" d="M190.504 763.763v4.186c-.01.02 0 .05 0 .07 0 3.02 4.896 5.48 10.943 5.48s10.947-2.45 10.947-5.48v-4.26h-21.89z"/>
    <path fill="#BDC3C7" d="M212.398 763.763c0 2.688-4.902 4.864-10.95 4.864-6.048 0-10.94-2.178-10.94-4.865 0-2.687 4.895-4.868 10.94-4.868 6.047 0 10.95 2.184 10.95 4.865z"/>
    <path fill="#7F8C8D" d="M190.578 768.02c-.057.2-.07.4-.07.607 0 2.688 4.895 4.865 10.94 4.865 6.047 0 10.95-2.188 10.95-4.868 0-.207-.02-.408-.076-.607-.674 2.398-5.29 4.266-10.873 4.266-5.586 0-10.2-1.86-10.87-4.266l-.005.003z"/>
    <path fill="#95A5A6" d="M190.504 757.68v4.188c-.01.02 0 .05 0 .067 0 3.022 4.896 5.48 10.943 5.48s10.947-2.453 10.947-5.48v-4.257l-21.89.002z"/>
    <path fill="#BDC3C7" d="M212.398 757.68c0 2.688-4.902 4.865-10.95 4.865-6.048 0-10.94-2.178-10.94-4.865 0-2.687 4.895-4.863 10.94-4.863 6.047 0 10.95 2.175 10.95 4.863z"/>
    <path fill="#7F8C8D" d="M190.578 761.936c-.057.2-.07.402-.07.61 0 2.688 4.895 4.864 10.94 4.864 6.047 0 10.95-2.186 10.95-4.865 0-.207-.02-.408-.076-.61-.674 2.4-5.29 4.266-10.873 4.266-5.586-.002-10.2-1.86-10.875-4.26z"/>
    <path fill="#95A5A6" d="M190.504 751.598v4.186c-.01.02 0 .05 0 .072 0 3.02 4.896 5.48 10.943 5.48s10.947-2.45 10.947-5.48v-4.26l-21.89.002z"/>
    <path fill="#7F8C8D" d="M190.578 755.854c-.057.2-.07.402-.07.61 0 2.687 4.895 4.864 10.94 4.864 6.047 0 10.95-2.186 10.95-4.865 0-.207-.02-.41-.076-.61-.674 2.4-5.29 4.266-10.873 4.266-5.586-.01-10.2-1.867-10.875-4.27z"/>
    <path fill="#BDC3C7" d="M201.45 763.763v9.73c6.046 0 10.95-2.45 10.95-5.48v-4.257l-10.95.007z"/>
    <path fill="#ECF0F1" d="M201.45 758.896v9.73c6.046 0 10.95-2.18 10.95-4.866 0-2.687-4.904-4.868-10.95-4.868v.004z"/>
    <path fill="#BDC3C7" d="M201.45 757.68v9.732c6.046 0 10.95-2.454 10.95-5.48v-4.26l-10.95.004v.004z"/>
    <path fill="#95A5A6" d="M212.322 761.936c-.674 2.4-5.29 4.266-10.873 4.266v1.218c6.043 0 10.95-2.18 10.95-4.866 0-.207-.02-.41-.08-.606v-.012z"/>
    <path fill="#ECF0F1" d="M201.45 752.814v9.73c6.046 0 10.95-2.18 10.95-4.87 0-2.682-4.904-4.86-10.95-4.86z"/>
    <path fill="#BDC3C7" d="M201.45 751.598v9.732c6.046 0 10.95-2.45 10.95-5.48v-4.257l-10.95.005z"/>
    <path fill="#95A5A6" d="M212.322 755.854c-.674 2.4-5.29 4.265-10.873 4.265v1.22c6.043 0 10.95-2.18 10.95-4.87 0-.21-.02-.416-.08-.62zm0 12.166c-.674 2.398-5.29 4.266-10.873 4.266v1.216c6.043 0 10.95-2.182 10.95-4.865 0-.216-.02-.416-.08-.617z"/>
    <path fill="#BDC3C7" d="M212.398 751.598c0 2.688-4.902 4.865-10.95 4.865-6.048 0-10.94-2.178-10.94-4.865 0-2.687 4.895-4.863 10.94-4.863 6.047 0 10.95 2.176 10.95 4.863z"/>
    <text transform="translate(190.5 791.5)" font-family="'Helvetica'" font-size="12">
        MySQL
    </text>
    <text transform="translate(190.5 805.899)" font-family="'Helvetica'" font-size="12">
        database
    </text>
    <text transform="translate(352.5 791.5)" font-family="'Helvetica'" font-size="12">
        Static
    </text>
    <text transform="translate(352.5 805.9)" font-family="'Helvetica'" font-size="12">
        files
    </text>
    <path fill="#8E44AD" d="M354.5 751.5c-1.104 0-2 .896-2 2v18c0 1.104.896 2 2 2h14c1.104 0 2-.896 2-2v-14l-6-6h-10z"/>
    <path fill="#9B59B6" d="M354.5 750.5c-1.104 0-2 .896-2 2v18c0 1.104.896 2 2 2h14c1.104 0 2-.896 2-2v-14l-6-6h-10z"/>
    <path fill="#8E44AD" d="M370.5 756.5l-6-6v4c0 1.104.896 2 2 2h4z"/>
    <path fill="#ECF0F1" d="M273.5 752.5l-2 5h20l-2-5h-16z"/>
    <path fill="#1ABC9C" d="M278.5 757.5h6l-1-5h-4l-1 5z"/>
    <path fill="none" d="M271.5 756.5h20l-2 13h-17l-1-13z"/>
    <path fill="#BDC3C7" d="M271.5 757.5h20v16h-20v-16z"/>
    <path fill="#ECF0F1" d="M274.5 767.5c-.553 0-1 .447-1 1v2c0 .553.447 1 1 1h6c.553 0 1-.447 1-1v-2c0-.553-.447-1-1-1h-6z"/>
    <path fill="#16A085" d="M278.5 757.5v7l1-1 1 1 1-1 1 1 1-1 1 1v-7h-6z"/>
    <path fill="#95A5A6" d="M274.5 768.5h1v2h-1v-2zm2 0h1v2h-1v-2zm2 0h1v2h-1v-2z"/>
    <path fill="#7F8C8D" d="M279.5 768.5h1v2h-1v-2z"/>
    <path fill="#BDC3C7" d="M277.5 768.5h1v2h-1v-2z"/>
    <text transform="translate(271.5 791.5)" font-family="'Helvetica'" font-size="12">
        Subversion
    </text>
    <text transform="translate(271.5 805.9)" font-family="'Helvetica'" font-size="12">
        repository
    </text>
</svg>
