<?xml version="1.0" encoding="utf-8"?>
<!-- Generator: Adobe Illustrator 16.0.4, SVG Export Plug-In . SVG Version: 6.00 Build 0)  -->
<!DOCTYPE svg PUBLIC "-//W3C//DTD SVG 1.1//EN" "http://www.w3.org/Graphics/SVG/1.1/DTD/svg11.dtd">
<svg version="1.1" id="Layer_1" xmlns="http://www.w3.org/2000/svg" xmlns:xlink="http://www.w3.org/1999/xlink" x="0px" y="0px"
	 width="820px" height="820px" viewBox="0 0 820 820" enable-background="new 0 0 820 820" xml:space="preserve">
<text transform="matrix(1 0 0 1 352.5 368.5)" font-family="'Helvetica'" font-size="12">Forums</text>
<text transform="matrix(1 0 0 1 352.5 382.9004)" font-family="'Helvetica'" font-size="12">application</text>
<path fill="#95A5A6" d="M352.507,439.53v4.18c-0.015,0.023,0,0.05,0,0.076c0,3.021,4.896,5.475,10.938,5.475
	s10.948-2.449,10.948-5.472v-4.258L352.507,439.53L352.507,439.53z"/>
<path fill="#BDC3C7" d="M374.401,439.53c0,2.687-4.896,4.866-10.948,4.866c-6.048,0-10.938-2.187-10.938-4.867
	c0-2.69,4.894-4.868,10.938-4.868s10.95,2.18,10.95,4.865L374.401,439.53L374.401,439.53z"/>
<path fill="#7F8C8D" d="M352.581,443.787c-0.056,0.2-0.065,0.402-0.065,0.609c0,2.687,4.896,4.856,10.938,4.856
	s10.948-2.18,10.948-4.859c0-0.207-0.02-0.408-0.076-0.608c-0.673,2.396-5.288,4.26-10.872,4.26c-5.582,0-10.195-1.854-10.872-4.26
	L352.581,443.787L352.581,443.787z"/>
<path fill="#95A5A6" d="M352.507,433.447v4.182c-0.015,0.023,0,0.05,0,0.074c0,3.021,4.896,5.475,10.938,5.475
	s10.948-2.452,10.948-5.477v-4.258h-21.891v0.002L352.507,433.447L352.507,433.447z"/>
<path fill="#BDC3C7" d="M374.401,433.447c0,2.688-4.896,4.867-10.948,4.867c-6.048,0-10.938-2.187-10.938-4.867
	c0-2.688,4.894-4.865,10.938-4.865S374.401,430.762,374.401,433.447L374.401,433.447z"/>
<path fill="#7F8C8D" d="M352.581,437.705c-0.056,0.2-0.065,0.402-0.065,0.606c0,2.688,4.896,4.859,10.938,4.859
	s10.948-2.18,10.948-4.859c0-0.204-0.02-0.407-0.076-0.606c-0.673,2.4-5.288,4.258-10.872,4.258
	C357.871,441.963,353.254,440.105,352.581,437.705L352.581,437.705z"/>
<path fill="#95A5A6" d="M352.507,427.365v4.18c-0.015,0.025,0,0.05,0,0.076c0,3.024,4.896,5.477,10.938,5.477
	s10.948-2.443,10.948-5.475v-4.257L352.507,427.365L352.507,427.365z"/>
<path fill="#7F8C8D" d="M352.581,431.623c-0.056,0.2-0.065,0.402-0.065,0.607c0,2.688,4.896,4.858,10.938,4.858
	s10.948-2.18,10.948-4.858c0-0.205-0.02-0.408-0.076-0.607c-0.673,2.4-5.288,4.258-10.872,4.258c-5.582,0-10.195-1.853-10.872-4.255
	L352.581,431.623L352.581,431.623z"/>
<path fill="#BDC3C7" d="M363.453,439.53v9.729c6.047,0,10.948-2.45,10.948-5.475v-4.258h-10.948V439.53z"/>
<path fill="#ECF0F1" d="M363.453,434.665v9.729c6.047,0,10.948-2.183,10.948-4.862c0-2.688-4.896-4.863-10.948-4.863V434.665
	L363.453,434.665z"/>
<path fill="#BDC3C7" d="M363.453,433.447v9.729c6.047,0,10.948-2.452,10.948-5.476v-4.257h-10.948V433.447L363.453,433.447z"/>
<path fill="#95A5A6" d="M374.325,437.705c-0.673,2.4-5.288,4.258-10.872,4.258v1.217c6.047,0,10.948-2.18,10.948-4.857
	C374.401,438.108,374.382,437.906,374.325,437.705L374.325,437.705z"/>
<path fill="#ECF0F1" d="M363.453,428.582v9.73c6.047,0,10.948-2.187,10.948-4.865C374.401,430.762,369.502,428.582,363.453,428.582
	L363.453,428.582z"/>
<path fill="#BDC3C7" d="M363.453,427.365v9.729c6.047,0,10.948-2.441,10.948-5.474v-4.257L363.453,427.365L363.453,427.365z"/>
<path fill="#95A5A6" d="M374.325,431.623c-0.673,2.4-5.288,4.258-10.872,4.258v1.221c6.047,0,10.948-2.181,10.948-4.858
	c0-0.207-0.02-0.41-0.076-0.61V431.623L374.325,431.623z M374.325,443.787c-0.673,2.399-5.288,4.26-10.872,4.26v1.215
	c6.047,0,10.948-2.18,10.948-4.857C374.401,444.189,374.382,443.988,374.325,443.787L374.325,443.787z"/>
<path fill="#BDC3C7" d="M374.401,427.365c0,2.688-4.896,4.867-10.948,4.867c-6.048,0-10.938-2.187-10.938-4.867
	c0-2.688,4.894-4.865,10.938-4.865S374.401,424.68,374.401,427.365L374.401,427.365z"/>
<text transform="matrix(1 0 0 1 352.5 467.5)" font-family="'Helvetica'" font-size="12">Forums</text>
<text transform="matrix(1 0 0 1 352.5 481.8984)" font-family="'Helvetica'" font-size="12">database</text>
<text transform="matrix(1 0 0 1 271.5 215.5)" font-family="'Helvetica'" font-size="12">worldskills.org</text>
<text transform="matrix(1 0 0 1 271.5 229.8984)" font-family="'Helvetica'" font-size="12">website</text>
<text transform="matrix(1 0 0 1 433.5 215.5)" font-family="'Helvetica'" font-size="12">WSC2015</text>
<text transform="matrix(1 0 0 1 433.5 229.8975)" font-family="'Helvetica'" font-size="12">website</text>
<text transform="matrix(1 0 0 1 514.5 215.5)" font-family="'Helvetica'" font-size="12">WSC2017</text>
<text transform="matrix(1 0 0 1 514.5 229.9004)" font-family="'Helvetica'" font-size="12">website</text>
<path fill="#95A5A6" d="M433.504,43.529v4.183c-0.01,0.024,0,0.05,0,0.075c0,3.021,4.896,5.474,10.943,5.474
	s10.946-2.45,10.946-5.474v-4.26h-21.89V43.529L433.504,43.529z"/>
<path fill="#BDC3C7" d="M455.4,43.529c0,2.688-4.902,4.865-10.95,4.865s-10.942-2.18-10.942-4.865c0-2.687,4.896-4.865,10.943-4.865
	S455.401,40.844,455.4,43.529L455.4,43.529z"/>
<path fill="#7F8C8D" d="M433.578,47.787c-0.056,0.201-0.07,0.4-0.07,0.607c0,2.688,4.896,4.865,10.942,4.865
	s10.948-2.181,10.948-4.865c0-0.205-0.021-0.408-0.076-0.607c-0.673,2.4-5.288,4.259-10.872,4.259
	C438.868,52.046,434.252,50.188,433.578,47.787L433.578,47.787z"/>
<path fill="#95A5A6" d="M433.504,37.447v4.183c-0.01,0.024,0,0.05,0,0.075c0,3.021,4.896,5.475,10.943,5.475
	s10.946-2.449,10.946-5.475v-4.258H433.504L433.504,37.447z"/>
<path fill="#BDC3C7" d="M455.4,37.447c0,2.688-4.902,4.867-10.95,4.867s-10.942-2.18-10.942-4.867c0-2.688,4.896-4.865,10.943-4.865
	S455.401,34.762,455.4,37.447L455.4,37.447z"/>
<path fill="#7F8C8D" d="M433.578,41.705c-0.056,0.199-0.07,0.402-0.07,0.607c0,2.688,4.896,4.865,10.942,4.865
	s10.948-2.176,10.948-4.861c0-0.207-0.021-0.408-0.076-0.609c-0.673,2.4-5.288,4.258-10.872,4.258
	c-5.582,0-10.198-1.856-10.872-4.258V41.705L433.578,41.705z"/>
<path fill="#95A5A6" d="M433.504,31.365v4.183c-0.01,0.024,0,0.05,0,0.075c0,3.021,4.896,5.475,10.943,5.475
	s10.946-2.448,10.946-5.475v-4.258H433.504L433.504,31.365z"/>
<path fill="#7F8C8D" d="M433.578,35.623c-0.056,0.199-0.07,0.402-0.07,0.607c0,2.688,4.896,4.865,10.942,4.865
	s10.948-2.181,10.948-4.87c0-0.204-0.021-0.409-0.076-0.606c-0.673,2.4-5.288,4.259-10.872,4.259
	c-5.582,0-10.198-1.856-10.872-4.257V35.623L433.578,35.623z"/>
<path fill="#BDC3C7" d="M444.45,43.529v9.729c6.047,0,10.948-2.45,10.948-5.473v-4.26H444.45V43.529L444.45,43.529z"/>
<path fill="#ECF0F1" d="M444.45,38.664v9.732c6.047,0,10.948-2.181,10.948-4.869c0-2.69-4.9-4.865-10.948-4.865V38.664
	L444.45,38.664z"/>
<path fill="#BDC3C7" d="M444.45,37.447v9.73c6.047,0,10.948-2.448,10.948-5.475v-4.258L444.45,37.447L444.45,37.447z"/>
<path fill="#95A5A6" d="M455.322,41.705c-0.673,2.398-5.288,4.258-10.872,4.258v1.217c6.047,0,10.948-2.18,10.948-4.864
	C455.398,42.107,455.379,41.904,455.322,41.705L455.322,41.705z"/>
<path fill="#ECF0F1" d="M444.45,32.582v9.729c6.047,0,10.948-2.177,10.948-4.863c0-2.688-4.9-4.869-10.948-4.869V32.582
	L444.45,32.582z"/>
<path fill="#BDC3C7" d="M444.45,31.365v9.731c6.047,0,10.948-2.448,10.948-5.475v-4.258L444.45,31.365L444.45,31.365z"/>
<path fill="#95A5A6" d="M455.322,35.623c-0.673,2.4-5.288,4.258-10.872,4.258v1.217c6.047,0,10.948-2.18,10.948-4.864
	C455.398,36.025,455.379,35.822,455.322,35.623L455.322,35.623z M455.322,47.787c-0.673,2.4-5.288,4.259-10.872,4.259v1.216
	c6.047,0,10.948-2.18,10.948-4.865C455.398,48.188,455.379,47.986,455.322,47.787L455.322,47.787z"/>
<path fill="#BDC3C7" d="M455.4,31.365c0,2.688-4.902,4.867-10.95,4.867s-10.942-2.182-10.942-4.867
	c0-2.688,4.896-4.865,10.943-4.865S455.401,28.68,455.4,31.365L455.4,31.365z"/>
<text transform="matrix(1 0 0 1 271.5 71.5)" font-family="'Helvetica'" font-size="12">worldskills.org</text>
<text transform="matrix(1 0 0 1 271.5 85.8994)" font-family="'Helvetica'" font-size="12">database</text>
<path fill="#95A5A6" d="M514.507,43.529v4.18c-0.015,0.025,0,0.054,0,0.078c0,3.021,4.896,5.475,10.938,5.475
	s10.945-2.45,10.945-5.477v-4.258L514.5,43.529H514.507L514.507,43.529z"/>
<path fill="#BDC3C7" d="M536.4,43.529c0,2.688-4.9,4.865-10.946,4.865s-10.938-2.18-10.938-4.865c0-2.687,4.896-4.865,10.939-4.865
	S536.4,40.844,536.4,43.529z"/>
<path fill="#7F8C8D" d="M514.58,47.787c-0.054,0.201-0.065,0.4-0.065,0.607c0,2.688,4.896,4.865,10.939,4.865
	S536.4,51.08,536.4,48.39c0-0.207-0.021-0.41-0.075-0.607c-0.672,2.399-5.287,4.26-10.87,4.26
	c-5.583-0.002-10.195-1.859-10.874-4.26v0.002L514.58,47.787z"/>
<path fill="#95A5A6" d="M514.507,37.447v4.182c-0.015,0.023,0,0.051,0,0.074c0,3.022,4.896,5.476,10.938,5.476
	s10.945-2.45,10.945-5.476v-4.258L514.5,37.447H514.507L514.507,37.447z"/>
<path fill="#BDC3C7" d="M536.4,37.447c0,2.688-4.9,4.866-10.946,4.866s-10.938-2.179-10.938-4.866c0-2.688,4.896-4.865,10.939-4.865
	S536.4,34.762,536.4,37.447z"/>
<path fill="#7F8C8D" d="M514.58,41.705c-0.054,0.199-0.065,0.401-0.065,0.607c0,2.688,4.896,4.869,10.939,4.869
	S536.4,44.996,536.4,42.31c0-0.204-0.021-0.406-0.075-0.605c-0.672,2.398-5.287,4.258-10.87,4.258s-10.195-1.854-10.874-4.256
	L514.58,41.705L514.58,41.705z"/>
<path fill="#95A5A6" d="M514.507,31.365v4.18c-0.015,0.025,0,0.053,0,0.076c0,3.022,4.896,5.477,10.938,5.477
	s10.945-2.449,10.945-5.477v-4.258H514.5L514.507,31.365L514.507,31.365z"/>
<path fill="#7F8C8D" d="M514.58,35.621c-0.054,0.201-0.065,0.403-0.065,0.609c0,2.688,4.896,4.865,10.939,4.865
	s10.946-2.18,10.946-4.865c0-0.206-0.021-0.408-0.075-0.609c-0.672,2.4-5.287,4.261-10.87,4.261
	C519.872,39.879,515.256,38.023,514.58,35.621L514.58,35.621z"/>
<path fill="#BDC3C7" d="M525.454,43.529v9.729c6.047,0,10.947-2.45,10.947-5.475v-4.258l-10.944,0.002L525.454,43.529
	L525.454,43.529z"/>
<path fill="#ECF0F1" d="M525.454,38.666v9.729c6.047,0,10.947-2.178,10.947-4.863c0-2.688-4.9-4.869-10.944-4.869L525.454,38.666
	L525.454,38.666z"/>
<path fill="#BDC3C7" d="M525.454,37.447v9.73c6.047,0,10.947-2.45,10.947-5.477v-4.258l-10.944,0.002L525.454,37.447L525.454,37.447
	z"/>
<path fill="#95A5A6" d="M536.325,41.705c-0.672,2.398-5.287,4.258-10.87,4.258v1.22c6.046,0,10.946-2.181,10.946-4.864
	c0-0.207-0.021-0.409-0.073-0.61L536.325,41.705L536.325,41.705z"/>
<path fill="#ECF0F1" d="M525.454,32.582v9.729c6.047,0,10.947-2.178,10.947-4.863c0-2.688-4.9-4.865-10.944-4.865L525.454,32.582
	L525.454,32.582z"/>
<path fill="#BDC3C7" d="M525.454,31.365v9.731c6.047,0,10.947-2.45,10.947-5.477v-4.258h-10.944L525.454,31.365L525.454,31.365z"/>
<path fill="#95A5A6" d="M536.325,35.621c-0.672,2.4-5.287,4.261-10.87,4.261v1.217c6.046,0,10.946-2.181,10.946-4.866
	c0-0.202-0.021-0.409-0.073-0.608L536.325,35.621L536.325,35.621z M536.325,47.787c-0.672,2.4-5.287,4.261-10.87,4.261v1.214
	c6.046,0,10.946-2.178,10.946-4.863c0-0.209-0.021-0.409-0.073-0.61L536.325,47.787L536.325,47.787z"/>
<path fill="#BDC3C7" d="M536.4,31.365c0,2.688-4.9,4.866-10.946,4.866s-10.938-2.181-10.938-4.866c0-2.688,4.896-4.865,10.939-4.865
	S536.4,28.68,536.4,31.365z"/>
<text transform="matrix(1 0 0 1 433.5 71.5)" font-family="'Helvetica'" font-size="12">WSC2015</text>
<text transform="matrix(1 0 0 1 433.5 85.8994)" font-family="'Helvetica'" font-size="12">database</text>
<path fill="#95A5A6" d="M271.504,43.529v4.18c-0.01,0.024,0,0.053,0,0.076c0,3.022,4.896,5.476,10.943,5.476
	c6.047,0,10.947-2.45,10.947-5.476v-4.258L271.504,43.529z"/>
<path fill="#BDC3C7" d="M293.399,43.529c0,2.688-4.902,4.865-10.95,4.865c-6.048,0-10.942-2.18-10.942-4.865
	c0-2.687,4.896-4.865,10.943-4.865C288.497,38.664,293.4,40.844,293.399,43.529L293.399,43.529z"/>
<path fill="#7F8C8D" d="M271.579,47.787c-0.057,0.201-0.072,0.4-0.072,0.607c0,2.688,4.896,4.865,10.943,4.865
	c6.047,0,10.95-2.181,10.95-4.865c0-0.207-0.022-0.408-0.077-0.607c-0.674,2.4-5.29,4.26-10.873,4.26
	C276.868,52.047,272.252,50.188,271.579,47.787L271.579,47.787z"/>
<path fill="#95A5A6" d="M271.504,37.447v4.182c-0.01,0.023,0,0.051,0,0.074c0,3.022,4.896,5.476,10.943,5.476
	c6.047,0,10.947-2.45,10.947-5.476v-4.258L271.504,37.447z"/>
<path fill="#BDC3C7" d="M293.399,37.447c0,2.688-4.902,4.866-10.95,4.866c-6.048,0-10.942-2.179-10.942-4.866
	c0-2.688,4.896-4.865,10.943-4.865C288.497,32.582,293.4,34.762,293.399,37.447L293.399,37.447z"/>
<path fill="#7F8C8D" d="M271.579,41.705c-0.057,0.201-0.072,0.4-0.072,0.607c0,2.688,4.896,4.865,10.943,4.865
	c6.047,0,10.95-2.181,10.95-4.865c0-0.206-0.022-0.408-0.077-0.607c-0.674,2.398-5.29,4.254-10.873,4.254
	c-5.582,0-10.197-1.854-10.87-4.258L271.579,41.705L271.579,41.705z"/>
<path fill="#95A5A6" d="M271.504,31.365v4.18c-0.01,0.025,0,0.051,0,0.076c0,3.021,4.896,5.476,10.943,5.476
	c6.047,0,10.947-2.45,10.947-5.474v-4.258H271.504L271.504,31.365L271.504,31.365z"/>
<path fill="#7F8C8D" d="M271.579,35.623c-0.057,0.199-0.072,0.401-0.072,0.607c0,2.688,4.896,4.865,10.943,4.865
	c6.047,0,10.95-2.181,10.95-4.862c0-0.206-0.022-0.409-0.077-0.608c-0.674,2.4-5.29,4.258-10.873,4.258
	c-5.582,0-10.197-1.854-10.87-4.258L271.579,35.623L271.579,35.623z"/>
<path fill="#BDC3C7" d="M282.45,43.529v9.729c6.047,0,10.95-2.45,10.95-5.475v-4.258L282.45,43.529z"/>
<path fill="#ECF0F1" d="M282.45,38.666v9.729c6.047,0,10.95-2.178,10.95-4.863C293.4,40.844,288.497,38.666,282.45,38.666z"/>
<path fill="#BDC3C7" d="M282.45,37.447v9.73c6.047,0,10.95-2.45,10.95-5.477v-4.258L282.45,37.447z"/>
<path fill="#95A5A6" d="M293.323,41.705c-0.674,2.4-5.29,4.258-10.873,4.258v1.218c6.047,0,10.95-2.181,10.95-4.865
	C293.4,42.104,293.379,41.904,293.323,41.705L293.323,41.705z"/>
<path fill="#ECF0F1" d="M282.45,32.582v9.729c6.047,0,10.95-2.178,10.95-4.863c0-2.684-4.903-4.863-10.95-4.863V32.582
	L282.45,32.582z"/>
<path fill="#BDC3C7" d="M282.45,31.365v9.731c6.047,0,10.95-2.45,10.95-5.477v-4.258h-10.95V31.365z"/>
<path fill="#95A5A6" d="M293.323,35.623c-0.674,2.398-5.29,4.258-10.873,4.258v1.218c6.047,0,10.95-2.181,10.95-4.865
	C293.4,36.025,293.379,35.822,293.323,35.623z M293.323,47.787c-0.674,2.4-5.29,4.26-10.873,4.26v1.215
	c6.047,0,10.95-2.178,10.95-4.863C293.4,48.19,293.379,47.988,293.323,47.787z"/>
<path fill="#BDC3C7" d="M293.399,31.365c0,2.688-4.902,4.866-10.95,4.866c-6.048,0-10.942-2.181-10.942-4.866
	c0-2.688,4.896-4.865,10.943-4.865C288.497,26.5,293.4,28.68,293.399,31.365L293.399,31.365z"/>
<text transform="matrix(1 0 0 1 514.5 71.5)" font-family="'Helvetica'" font-size="12">WSC2017</text>
<text transform="matrix(1 0 0 1 514.5 85.8994)" font-family="'Helvetica'" font-size="12">database</text>
<path fill="#E67E22" d="M109.504,175.883v11.03l15.887,10.587v-11.025l-15.887-10.588V175.883L109.504,175.883z"/>
<path fill="#F39C12" d="M141.27,175.883v11.03l-15.882,10.586v-11.028L141.27,175.883z"/>
<path fill="#F1C40F" d="M125.388,165.735L109.5,175.883l15.887,10.588l15.88-10.588l-15.883-10.146L125.388,165.735L125.388,165.735
	z"/>
<path fill="#E67E22" d="M120.754,168.713v1.984c0,1.645,2.074,2.979,4.637,2.979c2.56,0,4.633-1.334,4.633-2.979v-1.984H120.754
	L120.754,168.713z M120.754,168.713v1.984c0,1.645,2.074,2.979,4.637,2.979v-4.965L120.754,168.713L120.754,168.713z"/>
<path fill="#F1C40F" d="M130.02,168.713c0,1.646-2.073,2.978-4.633,2.978c-2.565,0-4.64-1.329-4.64-2.974s2.074-2.979,4.637-2.979
	c2.558,0,4.632,1.334,4.632,2.979l0.002-0.002L130.02,168.713z"/>
<path fill="#E67E22" d="M129.358,174.006v1.985c0,1.646,2.072,2.978,4.632,2.978c2.562,0,4.633-1.332,4.633-2.978v-1.985H129.358z
	 M129.358,174.006v1.985c0,1.646,2.072,2.978,4.632,2.978v-4.963H129.358z"/>
<path fill="#F1C40F" d="M138.623,174.006c0,1.646-2.07,2.98-4.633,2.98c-2.56,0-4.633-1.334-4.633-2.98
	c0-1.645,2.07-2.978,4.63-2.978c2.56,0,4.633,1.332,4.633,2.976L138.623,174.006L138.623,174.006z"/>
<path fill="#E67E22" d="M112.15,173.346v1.984c0,1.648,2.074,2.979,4.633,2.979c2.56,0,4.633-1.331,4.633-2.979v-1.98h-9.266
	V173.346L112.15,173.346z M112.15,173.346v1.984c0,1.648,2.074,2.979,4.633,2.979v-4.961h-4.633V173.346L112.15,173.346z"/>
<path fill="#F1C40F" d="M121.416,173.346c0,1.646-2.074,2.979-4.633,2.979c-2.56,0-4.633-1.333-4.633-2.979s2.074-2.979,4.633-2.979
	C119.343,170.366,121.416,171.701,121.416,173.346z"/>
<path fill="#E67E22" d="M120.754,178.639v1.985c0,1.646,2.074,2.978,4.637,2.978c2.56,0,4.633-1.332,4.633-2.978v-1.985H120.754
	L120.754,178.639z M120.754,178.639v1.985c0,1.646,2.074,2.978,4.637,2.978v-4.963H120.754z"/>
<path fill="#F1C40F" d="M130.02,178.639c0,1.646-2.073,2.98-4.633,2.98c-2.565,0-4.64-1.334-4.64-2.98
	c0-1.645,2.074-2.978,4.637-2.978c2.558,0,4.632,1.334,4.632,2.978h0.002H130.02z"/>
<text transform="matrix(1 0 0 1 109.5 215.5)" font-family="'Helvetica'" font-size="12">Web</text>
<text transform="matrix(1 0 0 1 109.5 229.9004)" font-family="'Helvetica'" font-size="12">services</text>
<path fill="#95A5A6" d="M110.614,34.751v4.181c-0.01,0.024,0,0.054,0,0.076c0,3.021,4.896,5.474,10.943,5.474
	c6.047,0,10.948-2.451,10.948-5.476v-4.26l-21.89,0.002L110.614,34.751L110.614,34.751z"/>
<path fill="#BDC3C7" d="M132.509,34.751c0,2.688-4.902,4.865-10.95,4.865s-10.942-2.182-10.942-4.865
	c0-2.688,4.896-4.866,10.943-4.866C127.608,29.885,132.51,32.062,132.509,34.751L132.509,34.751z"/>
<path fill="#7F8C8D" d="M110.689,39.009c-0.057,0.198-0.072,0.4-0.072,0.606c0,2.688,4.896,4.865,10.943,4.865
	c6.048,0,10.95-2.177,10.95-4.862c0-0.207-0.02-0.408-0.075-0.606c-0.673,2.397-5.288,4.258-10.872,4.258
	c-5.58,0-10.197-1.856-10.87-4.258h-0.003L110.689,39.009z"/>
<path fill="#95A5A6" d="M110.614,28.669v4.181c-0.01,0.022,0,0.05,0,0.073c0,3.022,4.896,5.477,10.943,5.477
	c6.047,0,10.948-2.449,10.948-5.476v-4.257L110.614,28.669L110.614,28.669z"/>
<path fill="#BDC3C7" d="M132.509,28.669c0,2.688-4.902,4.865-10.95,4.865s-10.94-2.179-10.94-4.865s4.896-4.866,10.943-4.866
	s10.95,2.178,10.95,4.866H132.509L132.509,28.669z"/>
<path fill="#7F8C8D" d="M110.689,32.924c-0.057,0.2-0.072,0.402-0.072,0.61c0,2.687,4.896,4.864,10.943,4.864
	c6.048,0,10.95-2.181,10.95-4.869c0-0.207-0.02-0.407-0.075-0.609c-0.673,2.4-5.288,4.26-10.872,4.26
	c-5.58,0-10.197-1.854-10.87-4.26L110.689,32.924L110.689,32.924z"/>
<path fill="#95A5A6" d="M110.614,22.587v4.181c-0.01,0.023,0,0.052,0,0.076c0,3.021,4.896,5.476,10.943,5.476
	c6.047,0,10.948-2.449,10.948-5.476v-4.259h-21.89L110.614,22.587L110.614,22.587z"/>
<path fill="#7F8C8D" d="M110.689,26.842c-0.057,0.2-0.072,0.402-0.072,0.61c0,2.687,4.896,4.864,10.943,4.864
	c6.048,0,10.95-2.181,10.95-4.865c0-0.207-0.02-0.41-0.075-0.61c-0.673,2.4-5.288,4.261-10.872,4.261
	c-5.58,0-10.197-1.855-10.87-4.261L110.689,26.842L110.689,26.842z"/>
<path fill="#BDC3C7" d="M121.559,34.751v9.729c6.048,0,10.95-2.449,10.95-5.476v-4.257L121.559,34.751z"/>
<path fill="#ECF0F1" d="M121.559,29.885v9.732c6.048,0,10.95-2.18,10.95-4.867s-4.902-4.861-10.95-4.861V29.885L121.559,29.885z"/>
<path fill="#BDC3C7" d="M121.559,28.669V38.4c6.048,0,10.95-2.449,10.95-5.477v-4.258L121.559,28.669z"/>
<path fill="#95A5A6" d="M132.432,32.924c-0.673,2.4-5.288,4.26-10.872,4.26v1.218c6.05,0,10.95-2.181,10.95-4.866
	c0-0.205-0.02-0.408-0.075-0.61L132.432,32.924L132.432,32.924z"/>
<path fill="#ECF0F1" d="M121.559,23.803v9.729c6.048,0,10.95-2.181,10.95-4.867C132.509,25.98,127.607,23.803,121.559,23.803z"/>
<path fill="#BDC3C7" d="M121.559,22.587v9.731c6.048,0,10.95-2.449,10.95-5.476v-4.259h-10.95V22.587z"/>
<path fill="#95A5A6" d="M132.432,26.842c-0.673,2.4-5.288,4.26-10.872,4.26v1.218c6.05,0,10.95-2.181,10.95-4.866
	c0-0.205-0.02-0.408-0.075-0.61L132.432,26.842L132.432,26.842z M132.432,39.009c-0.673,2.397-5.288,4.257-10.872,4.257v1.218
	c6.05,0,10.95-2.181,10.95-4.864c0-0.21-0.02-0.41-0.075-0.61L132.432,39.009L132.432,39.009z"/>
<path fill="#BDC3C7" d="M132.509,22.587c0,2.688-4.902,4.865-10.95,4.865s-10.942-2.182-10.942-4.865
	c0-2.688,4.896-4.866,10.943-4.866C127.608,17.721,132.51,19.898,132.509,22.587L132.509,22.587z"/>
<text transform="matrix(1 0 0 1 109.5 71.5)" font-family="'Helvetica'" font-size="12">Web services</text>
<text transform="matrix(1 0 0 1 109.5 85.8984)" font-family="'Helvetica'" font-size="12">databases</text>
<text transform="matrix(1 0 0 1 190.5 584.5)" font-family="'Helvetica'" font-size="12">Mailer</text>
<text transform="matrix(1 0 0 1 190.5 598.8994)" font-family="'Helvetica'" font-size="12">application</text>
<text transform="matrix(1 0 0 1 271.5 368.5)" font-family="'Helvetica'" font-size="12">Registrations</text>
<text transform="matrix(1 0 0 1 271.5 382.9004)" font-family="'Helvetica'" font-size="12">application</text>
<path fill="#95A5A6" d="M190.504,439.523v4.185c-0.01,0.021,0,0.05,0,0.078c0,3.021,4.897,5.476,10.944,5.476
	c6.047,0,10.948-2.448,10.948-5.474v-4.265l-21.89,0.003L190.504,439.523z"/>
<path fill="#BDC3C7" d="M212.4,439.523c0,2.688-4.9,4.864-10.948,4.864c-6.048,0-10.943-2.18-10.943-4.864
	c0-2.688,4.896-4.859,10.943-4.859c6.047,0,10.948,2.175,10.948,4.857V439.523z"/>
<path fill="#7F8C8D" d="M190.581,443.782c-0.056,0.193-0.07,0.396-0.07,0.604c0,2.688,4.895,4.863,10.942,4.863
	c6.047,0,10.948-2.178,10.948-4.864c0-0.208-0.02-0.41-0.076-0.604c-0.673,2.396-5.288,4.258-10.872,4.258
	C195.871,448.039,191.252,446.181,190.581,443.782L190.581,443.782z"/>
<path fill="#95A5A6" d="M190.504,433.441v4.185c-0.01,0.021,0,0.054,0,0.077c0,3.02,4.897,5.475,10.944,5.475
	c6.047,0,10.948-2.449,10.948-5.476v-4.266l-21.89,0.003h-0.002V433.441z"/>
<path fill="#BDC3C7" d="M212.4,433.441c0,2.688-4.9,4.864-10.948,4.864c-6.048,0-10.943-2.18-10.943-4.864
	c0-2.688,4.896-4.859,10.943-4.859C207.499,428.582,212.4,430.754,212.4,433.441z"/>
<path fill="#7F8C8D" d="M190.581,437.7c-0.056,0.193-0.07,0.396-0.07,0.604c0,2.688,4.895,4.865,10.942,4.865
	c6.047,0,10.948-2.177,10.948-4.864c0-0.206-0.02-0.407-0.076-0.604c-0.673,2.396-5.288,4.256-10.872,4.256
	c-5.582,0-10.2-1.858-10.872-4.266V437.7L190.581,437.7z"/>
<path fill="#95A5A6" d="M190.504,427.359v4.185c-0.01,0.021,0,0.05,0,0.077c0,3.02,4.897,5.475,10.944,5.475
	c6.047,0,10.948-2.448,10.948-5.474v-4.265h-21.89L190.504,427.359z"/>
<path fill="#7F8C8D" d="M190.581,431.617c-0.056,0.193-0.07,0.396-0.07,0.604c0,2.688,4.895,4.865,10.942,4.865
	c6.047,0,10.948-2.18,10.948-4.866c0-0.206-0.02-0.41-0.076-0.604c-0.673,2.396-5.288,4.26-10.872,4.26
	C195.871,435.874,191.252,434.016,190.581,431.617L190.581,431.617z"/>
<path fill="#BDC3C7" d="M201.453,439.523v9.729c6.047,0,10.948-2.45,10.948-5.474v-4.267L201.453,439.523z"/>
<path fill="#ECF0F1" d="M201.453,434.66v9.729c6.047,0,10.948-2.18,10.948-4.864C212.4,436.834,207.499,434.659,201.453,434.66z"/>
<path fill="#BDC3C7" d="M201.453,433.441v9.73c6.047,0,10.948-2.45,10.948-5.475v-4.268h-10.948V433.441L201.453,433.441z"/>
<path fill="#95A5A6" d="M212.325,437.7c-0.673,2.396-5.288,4.258-10.872,4.258v1.217c6.047,0,10.948-2.18,10.948-4.866
	C212.4,438.099,212.38,437.898,212.325,437.7L212.325,437.7z"/>
<path fill="#ECF0F1" d="M201.453,428.577v9.729c6.047,0,10.948-2.18,10.948-4.865c0-2.687-4.902-4.855-10.948-4.855V428.577
	L201.453,428.577z"/>
<path fill="#BDC3C7" d="M201.453,427.359v9.73c6.047,0,10.948-2.45,10.948-5.475v-4.266L201.453,427.359L201.453,427.359z"/>
<path fill="#95A5A6" d="M212.325,431.617c-0.673,2.396-5.288,4.26-10.872,4.26v1.216c6.047,0,10.948-2.18,10.948-4.866
	C212.4,432.02,212.38,431.816,212.325,431.617L212.325,431.617z M212.325,443.782c-0.673,2.396-5.288,4.258-10.872,4.258v1.217
	c6.047,0,10.948-2.18,10.948-4.864C212.4,444.184,212.38,443.98,212.325,443.782L212.325,443.782z"/>
<path fill="#BDC3C7" d="M212.4,427.359c0,2.688-4.9,4.864-10.948,4.864c-6.048,0-10.943-2.18-10.943-4.864
	c0-2.688,4.896-4.859,10.943-4.859C207.499,422.5,212.4,424.672,212.4,427.359z"/>
<text transform="matrix(1 0 0 1 190.5 467.5)" font-family="'Helvetica'" font-size="12">Who-is-who</text>
<text transform="matrix(1 0 0 1 190.5 481.8994)" font-family="'Helvetica'" font-size="12">database</text>
<text transform="matrix(1 0 0 1 190.5 368.5)" font-family="'Helvetica'" font-size="12">Who-is-who</text>
<text transform="matrix(1 0 0 1 190.5 382.9004)" font-family="'Helvetica'" font-size="12">application</text>
<text transform="matrix(1 0 0 1 28.5 368.5)" font-family="'Helvetica'" font-size="12">IL</text>
<text transform="matrix(1 0 0 1 28.5 382.9004)" font-family="'Helvetica'" font-size="12">application</text>
<path fill="#95A5A6" d="M28.504,439.524v4.185c-0.01,0.021,0,0.053,0,0.077c0,3.021,4.896,5.475,10.943,5.475
	c6.047,0,10.948-2.449,10.948-5.474v-4.263l-21.89,0.002L28.504,439.524z"/>
<path fill="#BDC3C7" d="M50.398,439.524c0,2.688-4.9,4.863-10.948,4.863c-6.05,0-10.946-2.18-10.946-4.866
	c0-2.688,4.896-4.86,10.943-4.86c6.047,0,10.947,2.178,10.947,4.86L50.398,439.524L50.398,439.524z"/>
<path fill="#7F8C8D" d="M28.579,443.783c-0.056,0.193-0.07,0.396-0.07,0.604c0,2.688,4.895,4.863,10.942,4.863
	c6.046,0,10.945-2.184,10.945-4.864c0-0.208-0.02-0.41-0.076-0.606c-0.673,2.396-5.288,4.265-10.87,4.265s-10.2-1.86-10.874-4.265
	v0.009L28.579,443.783z"/>
<path fill="#95A5A6" d="M28.504,433.442v4.188c-0.01,0.021,0,0.05,0,0.074c0,3.02,4.896,5.475,10.943,5.475
	c6.047,0,10.948-2.45,10.948-5.476v-4.267L28.504,433.442l0.001-0.002L28.504,433.442z"/>
<path fill="#BDC3C7" d="M50.398,433.442c0,2.688-4.9,4.863-10.948,4.863c-6.05,0-10.946-2.178-10.946-4.863
	c0-2.688,4.896-4.86,10.943-4.86c6.047,0,10.947,2.178,10.947,4.86H50.398L50.398,433.442z"/>
<path fill="#7F8C8D" d="M28.579,437.699c-0.056,0.193-0.07,0.396-0.07,0.604c0,2.688,4.895,4.863,10.942,4.863
	c6.046,0,10.945-2.18,10.945-4.864c0-0.207-0.02-0.408-0.076-0.604c-0.673,2.396-5.288,4.26-10.87,4.26s-10.2-1.856-10.873-4.258
	L28.579,437.699z"/>
<path fill="#95A5A6" d="M28.504,427.36v4.185c-0.01,0.021,0,0.05,0,0.076c0,3.02,4.896,5.476,10.943,5.476
	c6.047,0,10.948-2.448,10.948-5.475v-4.265h-21.89L28.504,427.36L28.504,427.36z"/>
<path fill="#7F8C8D" d="M28.579,431.617c-0.056,0.193-0.07,0.396-0.07,0.604c0,2.688,4.895,4.863,10.942,4.863
	c6.046,0,10.945-2.18,10.945-4.866c0-0.207-0.02-0.41-0.076-0.604c-0.673,2.396-5.288,4.26-10.87,4.26s-10.2-1.856-10.873-4.258
	L28.579,431.617z"/>
<path fill="#BDC3C7" d="M39.452,439.524v9.729c6.046,0,10.947-2.45,10.947-5.479v-4.262l-10.948,0.003L39.452,439.524
	L39.452,439.524z"/>
<path fill="#ECF0F1" d="M39.452,434.661v9.729c6.046,0,10.947-2.18,10.947-4.865C50.398,436.839,45.499,434.66,39.452,434.661z"/>
<path fill="#BDC3C7" d="M39.452,433.442v9.73c6.046,0,10.947-2.449,10.947-5.476v-4.266L39.452,433.442L39.452,433.442z"/>
<path fill="#95A5A6" d="M50.321,437.699c-0.672,2.396-5.287,4.26-10.87,4.26v1.217c6.046,0,10.947-2.18,10.947-4.867
	C50.398,438.104,50.378,437.898,50.321,437.699L50.321,437.699z"/>
<path fill="#ECF0F1" d="M39.452,428.577v9.729c6.046,0,10.947-2.18,10.947-4.865C50.398,430.754,45.499,428.576,39.452,428.577
	L39.452,428.577z"/>
<path fill="#BDC3C7" d="M39.452,427.36v9.73c6.046,0,10.947-2.449,10.947-5.476v-4.266H39.452V427.36L39.452,427.36z"/>
<path fill="#95A5A6" d="M50.321,431.617c-0.672,2.396-5.287,4.26-10.87,4.26v1.217c6.046,0,10.947-2.18,10.947-4.867
	C50.398,432.021,50.378,431.816,50.321,431.617L50.321,431.617z M50.321,443.783c-0.672,2.396-5.287,4.258-10.87,4.258v1.216
	c6.046,0,10.947-2.18,10.947-4.864C50.398,444.186,50.378,443.982,50.321,443.783z"/>
<path fill="#BDC3C7" d="M50.398,427.36c0,2.688-4.9,4.863-10.948,4.863c-6.05,0-10.946-2.18-10.946-4.863
	c0-2.688,4.896-4.86,10.943-4.86c6.047,0,10.947,2.178,10.947,4.86H50.398L50.398,427.36z"/>
<text transform="matrix(1 0 0 1 28.5 467.5)" font-family="'Helvetica'" font-size="12">IL</text>
<text transform="matrix(1 0 0 1 28.5 481.9004)" font-family="'Helvetica'" font-size="12">database</text>
<text transform="matrix(1 0 0 1 181.5 134.5)" font-family="'Helvetica'" font-size="12">Message</text>
<text transform="matrix(1 0 0 1 181.5 148.9004)" font-family="'Helvetica'" font-size="12">queue</text>
<text transform="matrix(1 0 0 1 595.5 215.5)" font-family="'Helvetica'" font-size="12">Static user</text>
<text transform="matrix(1 0 0 1 595.5 229.9004)" font-family="'Helvetica'" font-size="12">content</text>
<path fill="#8E44AD" d="M597.5,175.5c-1.104,0-2,0.896-2,2v18c0,1.104,0.896,2,2,2h14c1.104,0,2-0.896,2-2v-14l-6-6H597.5z"/>
<path fill="#9B59B6" d="M597.5,174.5c-1.104,0-2,0.896-2,2v18c0,1.104,0.896,2,2,2h14c1.104,0,2-0.896,2-2v-14l-6-6H597.5z"/>
<path fill="#8E44AD" d="M613.5,180.5l-6-6v4c0,1.104,0.896,2,2,2H613.5z"/>
<text transform="matrix(1 0 0 1 757.5 368.5)" font-family="'Helvetica'" font-size="12">Archive</text>
<text transform="matrix(1 0 0 1 757.5 382.9004)" font-family="'Helvetica'" font-size="12">website</text>
<path fill="#8E44AD" d="M759.5,328.5c-1.104,0-2,0.896-2,2v18c0,1.104,0.896,2,2,2h14c1.104,0,2-0.896,2-2v-14l-6-6H759.5z"/>
<path fill="#9B59B6" d="M759.5,327.5c-1.104,0-2,0.896-2,2v18c0,1.104,0.896,2,2,2h14c1.104,0,2-0.896,2-2v-14l-6-6H759.5z"/>
<path fill="#8E44AD" d="M775.5,333.5l-6-6v4c0,1.104,0.896,2,2,2H775.5z"/>
<text transform="matrix(1 0 0 1 676.5 215.5)" font-family="'Helvetica'" font-size="12">Members map</text>
<path fill="#8E44AD" d="M678.5,175.5c-1.105,0-2,0.896-2,2v18c0,1.104,0.895,2,2,2h14c1.104,0,2-0.896,2-2v-14l-6-6H678.5z"/>
<path fill="#9B59B6" d="M678.5,174.5c-1.105,0-2,0.896-2,2v18c0,1.104,0.895,2,2,2h14c1.104,0,2-0.896,2-2v-14l-6-6H678.5z"/>
<path fill="#8E44AD" d="M694.5,180.5l-6-6v4c0,1.104,0.895,2,2,2H694.5z"/>
<text transform="matrix(1 0 0 1 28.5 215.5)" font-family="'Helvetica'" font-size="12">Management</text>
<text transform="matrix(1 0 0 1 28.5 229.9004)" font-family="'Helvetica'" font-size="12">applications</text>
<path fill="#8E44AD" d="M30.5,171.5c-1.104,0-2,0.896-2,2v18c0,1.104,0.896,2,2,2h14c1.104,0,2-0.896,2-2v-14l-6-6H30.5z"/>
<path fill="#9B59B6" d="M30.5,170.5c-1.104,0-2,0.896-2,2v18c0,1.104,0.896,2,2,2h14c1.104,0,2-0.896,2-2v-14l-6-6H30.5z"/>
<path fill="#8E44AD" d="M46.5,176.5l-6-6v4c0,1.104,0.896,2,2,2H46.5z"/>
<text transform="matrix(1 0 0 1 352.5 584.5)" font-family="'Helvetica'" font-size="12">CPT</text>
<text transform="matrix(1 0 0 1 352.5 598.9004)" font-family="'Helvetica'" font-size="12">application</text>
<path fill="#E67E22" d="M352.5,549.166v9.334l12,8v-9.334L352.5,549.166z"/>
<path fill="#F39C12" d="M376.5,549.166v9.334l-12,8v-9.334L376.5,549.166z"/>
<path fill="#F1C40F" d="M360.5,543.833l-8,5.333l12,8l12-8l-8-5.334L360.5,543.833L360.5,543.833z"/>
<path fill="#F39C12" d="M357.835,546.5v2.666c0,2.21,2.983,4,6.665,4s6.666-1.79,6.666-4V546.5H357.835L357.835,546.5z"/>
<path fill="#E67E22" d="M357.835,546.5v2.666c0,2.21,2.983,4,6.665,4V546.5H357.835z"/>
<path fill="#F1C40F" d="M371.165,546.5c0,2.21-2.983,4-6.665,4s-6.666-1.79-6.666-4s2.98-4,6.663-4c3.682,0,6.666,1.79,6.666,4
	H371.165z"/>
<path fill="#ECF0F1" d="M676.5,329.5l-2,5h20l-2-5H676.5z"/>
<path fill="#1ABC9C" d="M681.5,334.5h6l-1-5h-4L681.5,334.5z"/>
<path fill="none" d="M674.5,333.5h20l-2,13h-17L674.5,333.5z"/>
<path fill="#BDC3C7" d="M674.5,334.5h20v16h-20V334.5z"/>
<path fill="#ECF0F1" d="M677.5,344.5c-0.553,0-1,0.447-1,1v2c0,0.553,0.447,1,1,1h6c0.553,0,1-0.447,1-1v-2c0-0.553-0.447-1-1-1
	H677.5z"/>
<path fill="#16A085" d="M681.5,334.5v7l1-1l1,1l1-1l1,1l1-1l1,1v-7H681.5z"/>
<path fill="#95A5A6" d="M677.5,345.5h1v2h-1V345.5z M679.5,345.5h1v2h-1V345.5z M681.5,345.5h1v2h-1V345.5z"/>
<path fill="#7F8C8D" d="M682.5,345.5h1v2h-1V345.5z"/>
<path fill="#BDC3C7" d="M680.5,345.5h1v2h-1V345.5z"/>
<text transform="matrix(1 0 0 1 676.5 368.5)" font-family="'Helvetica'" font-size="12">Legacy</text>
<text transform="matrix(1 0 0 1 676.5 382.9004)" font-family="'Helvetica'" font-size="12">repository</text>
<text transform="matrix(1 0 0 1 271.5 584.5)" font-family="'Helvetica'" font-size="12">SMP</text>
<text transform="matrix(1 0 0 1 271.5 598.8994)" font-family="'Helvetica'" font-size="12">application</text>
<path fill="#E67E22" d="M271.5,549.168v9.332l12,8v-9.334L271.5,549.168L271.5,549.168z"/>
<path fill="#F39C12" d="M295.501,549.168v9.332l-12,8v-9.334L295.501,549.168L295.501,549.168z"/>
<path fill="#F1C40F" d="M279.5,543.832l-8,5.341l12,7.992l12-7.992l-8-5.335h-8V543.832z"/>
<path fill="#F39C12" d="M276.833,546.5v2.673c0,2.21,2.985,4,6.667,4s6.666-1.79,6.666-4V546.5H276.833z"/>
<path fill="#E67E22" d="M276.833,546.5v2.673c0,2.21,2.985,4,6.667,4V546.5H276.833z"/>
<path fill="#F1C40F" d="M290.166,546.5c0,2.215-2.984,4-6.666,4s-6.666-1.785-6.666-4c0-2.21,2.987-4,6.67-4s6.665,1.79,6.665,4
	H290.166L290.166,546.5z"/>
<path fill="#95A5A6" d="M271.504,655.529v4.185c-0.01,0.021,0,0.05,0,0.071c0,3.021,4.896,5.479,10.943,5.479
	c6.047,0,10.947-2.448,10.947-5.479v-4.26L271.504,655.529L271.504,655.529L271.504,655.529z"/>
<path fill="#BDC3C7" d="M293.398,655.529c0,2.688-4.902,4.862-10.95,4.862c-6.048,0-10.942-2.178-10.942-4.863
	c0-2.688,4.896-4.868,10.943-4.868c6.047,0,10.95,2.183,10.95,4.865L293.398,655.529L293.398,655.529z"/>
<path fill="#7F8C8D" d="M271.579,659.786c-0.057,0.2-0.072,0.398-0.072,0.605c0,2.688,4.896,4.865,10.943,4.865
	c6.047,0,10.95-2.187,10.95-4.868c0-0.207-0.022-0.406-0.077-0.605c-0.674,2.396-5.29,4.265-10.873,4.265
	c-5.582,0-10.197-1.859-10.87-4.265L271.579,659.786L271.579,659.786z"/>
<path fill="#95A5A6" d="M271.504,649.446v4.188c-0.01,0.021,0,0.05,0,0.067c0,3.021,4.896,5.479,10.943,5.479
	c6.047,0,10.947-2.451,10.947-5.479v-4.256L271.504,649.446L271.504,649.446z"/>
<path fill="#BDC3C7" d="M293.398,649.446c0,2.688-4.902,4.863-10.95,4.863c-6.048,0-10.942-2.178-10.942-4.863
	c0-2.688,4.896-4.864,10.943-4.864C288.496,644.582,293.399,646.759,293.398,649.446L293.398,649.446z"/>
<path fill="#7F8C8D" d="M271.579,653.702c-0.057,0.2-0.072,0.401-0.072,0.61c0,2.688,4.896,4.862,10.943,4.862
	c6.047,0,10.95-2.185,10.95-4.865c0-0.206-0.022-0.406-0.077-0.608c-0.674,2.399-5.29,4.265-10.873,4.265
	C276.868,657.962,272.252,656.104,271.579,653.702L271.579,653.702z"/>
<path fill="#95A5A6" d="M271.504,643.364v4.185c-0.01,0.021,0,0.051,0,0.072c0,3.021,4.896,5.479,10.943,5.479
	c6.047,0,10.947-2.448,10.947-5.479v-4.258L271.504,643.364L271.504,643.364z"/>
<path fill="#7F8C8D" d="M271.579,647.619c-0.057,0.202-0.072,0.402-0.072,0.609c0,2.688,4.896,4.864,10.943,4.864
	c6.047,0,10.95-2.185,10.95-4.864c0-0.207-0.022-0.409-0.077-0.609c-0.674,2.4-5.29,4.265-10.873,4.265
	C276.868,651.88,272.252,650.021,271.579,647.619L271.579,647.619z"/>
<path fill="#BDC3C7" d="M282.45,655.529v9.729c6.047,0,10.95-2.45,10.95-5.479v-4.26L282.45,655.529L282.45,655.529z"/>
<path fill="#ECF0F1" d="M282.45,650.663v9.731c6.047,0,10.95-2.181,10.95-4.866c0-2.688-4.903-4.868-10.95-4.868V650.663
	L282.45,650.663z"/>
<path fill="#BDC3C7" d="M282.45,649.446v9.73c6.047,0,10.95-2.453,10.95-5.479v-4.261l-10.95,0.005V649.446L282.45,649.446z"/>
<path fill="#95A5A6" d="M293.323,653.702c-0.674,2.398-5.29,4.265-10.873,4.265v1.219c6.047,0,10.95-2.181,10.95-4.865
	c0-0.207-0.02-0.41-0.077-0.607V653.702L293.323,653.702z"/>
<path fill="#ECF0F1" d="M282.45,644.582v9.729c6.047,0,10.95-2.18,10.95-4.866C293.399,646.759,288.497,644.582,282.45,644.582
	L282.45,644.582z"/>
<path fill="#BDC3C7" d="M282.45,643.364v9.73c6.047,0,10.95-2.448,10.95-5.479v-4.257L282.45,643.364L282.45,643.364z"/>
<path fill="#95A5A6" d="M293.323,647.619c-0.674,2.4-5.29,4.265-10.873,4.265v1.22c6.047,0,10.95-2.18,10.95-4.866
	C293.399,648.026,293.379,647.823,293.323,647.619z M293.323,659.786c-0.674,2.396-5.29,4.265-10.873,4.265v1.216
	c6.047,0,10.95-2.182,10.95-4.863C293.399,660.188,293.379,659.987,293.323,659.786L293.323,659.786z"/>
<path fill="#BDC3C7" d="M293.398,643.364c0,2.688-4.902,4.864-10.95,4.864c-6.048,0-10.942-2.179-10.942-4.864
	c0-2.688,4.896-4.864,10.943-4.864C288.496,638.5,293.399,640.678,293.398,643.364L293.398,643.364z"/>
<text transform="matrix(1 0 0 1 271.5 683.5)" font-family="'Helvetica'" font-size="12">SMP</text>
<text transform="matrix(1 0 0 1 271.5 697.8994)" font-family="'Helvetica'" font-size="12">database</text>
<path fill="#95A5A6" d="M352.504,655.528v4.185c-0.01,0.021,0,0.05,0,0.071c0,3.021,4.896,5.479,10.943,5.479
	c6.047,0,10.948-2.448,10.948-5.479v-4.26L352.504,655.528L352.504,655.528z"/>
<path fill="#BDC3C7" d="M374.399,655.528c0,2.688-4.902,4.863-10.95,4.863c-6.048,0-10.942-2.178-10.942-4.863
	c0-2.688,4.896-4.865,10.943-4.865C369.497,650.663,374.4,652.842,374.399,655.528L374.399,655.528z"/>
<path fill="#7F8C8D" d="M352.58,659.786c-0.057,0.2-0.072,0.398-0.072,0.605c0,2.688,4.896,4.865,10.943,4.865
	c6.047,0,10.95-2.185,10.95-4.865c0-0.206-0.02-0.406-0.075-0.605c-0.673,2.396-5.288,4.265-10.872,4.265
	c-5.58,0-10.197-1.858-10.87-4.265H352.58L352.58,659.786z"/>
<path fill="#95A5A6" d="M352.504,649.446v4.185c-0.01,0.021,0,0.051,0,0.069c0,3.021,4.896,5.479,10.943,5.479
	c6.047,0,10.948-2.448,10.948-5.479v-4.258l-21.89,0.002L352.504,649.446L352.504,649.446z"/>
<path fill="#BDC3C7" d="M374.399,649.446c0,2.688-4.902,4.863-10.95,4.863c-6.048,0-10.942-2.178-10.942-4.863
	c0-2.688,4.896-4.865,10.943-4.865C369.497,644.581,374.4,646.759,374.399,649.446L374.399,649.446z"/>
<path fill="#7F8C8D" d="M352.58,653.701c-0.057,0.202-0.072,0.401-0.072,0.608c0,2.688,4.896,4.865,10.943,4.865
	c6.047,0,10.95-2.185,10.95-4.865c0-0.206-0.02-0.406-0.075-0.608c-0.673,2.399-5.288,4.265-10.872,4.265
	c-5.58,0-10.197-1.854-10.87-4.265H352.58L352.58,653.701z"/>
<path fill="#95A5A6" d="M352.504,643.364v4.185c-0.01,0.021,0,0.051,0,0.072c0,3.021,4.896,5.479,10.943,5.479
	c6.047,0,10.948-2.448,10.948-5.479v-4.258L352.504,643.364L352.504,643.364z"/>
<path fill="#7F8C8D" d="M352.58,647.621c-0.057,0.2-0.072,0.4-0.072,0.606c0,2.688,4.896,4.865,10.943,4.865
	c6.047,0,10.95-2.185,10.95-4.865c0-0.206-0.02-0.408-0.075-0.608c-0.673,2.399-5.288,4.265-10.872,4.265
	c-5.58,0-10.197-1.854-10.87-4.265L352.58,647.621L352.58,647.621z"/>
<path fill="#BDC3C7" d="M363.45,655.528v9.729c6.048,0,10.95-2.45,10.95-5.479v-4.259L363.45,655.528L363.45,655.528z"/>
<path fill="#ECF0F1" d="M363.45,650.663v9.731c6.048,0,10.95-2.181,10.95-4.866C374.399,652.842,369.498,650.663,363.45,650.663z"/>
<path fill="#BDC3C7" d="M363.45,649.446v9.73c6.048,0,10.95-2.448,10.95-5.479v-4.261L363.45,649.446L363.45,649.446z"/>
<path fill="#95A5A6" d="M374.323,653.701c-0.673,2.399-5.288,4.265-10.872,4.265v1.22c6.05,0,10.95-2.184,10.95-4.866
	c0-0.204-0.02-0.407-0.075-0.61L374.323,653.701L374.323,653.701z"/>
<path fill="#ECF0F1" d="M363.45,644.581v9.729c6.048,0,10.95-2.178,10.95-4.865C374.399,646.759,369.498,644.581,363.45,644.581z"/>
<path fill="#BDC3C7" d="M363.45,643.364v9.73c6.048,0,10.95-2.448,10.95-5.479v-4.26L363.45,643.364L363.45,643.364z"/>
<path fill="#95A5A6" d="M374.323,647.621c-0.673,2.4-5.288,4.265-10.872,4.265v1.218c6.05,0,10.95-2.186,10.95-4.866
	c0-0.208-0.02-0.41-0.075-0.61L374.323,647.621L374.323,647.621z M374.323,659.786c-0.673,2.396-5.288,4.265-10.872,4.265v1.216
	c6.05,0,10.95-2.185,10.95-4.862c0-0.208-0.02-0.41-0.075-0.607h-0.002L374.323,659.786z"/>
<path fill="#BDC3C7" d="M374.399,643.364c0,2.688-4.902,4.864-10.95,4.864c-6.048,0-10.942-2.179-10.942-4.864
	c0-2.688,4.896-4.864,10.943-4.864C369.497,638.5,374.4,640.676,374.399,643.364L374.399,643.364z"/>
<text transform="matrix(1 0 0 1 352.5 683.5)" font-family="'Helvetica'" font-size="12">CPT</text>
<text transform="matrix(1 0 0 1 352.5 697.8994)" font-family="'Helvetica'" font-size="12">database</text>
<text transform="matrix(1 0 0 1 109.5 368.5)" font-family="'Helvetica'" font-size="12">Aggregator</text>
<text transform="matrix(1 0 0 1 109.5 382.9004)" font-family="'Helvetica'" font-size="12">application</text>
<path fill="#95A5A6" d="M109.504,439.763v4.182c-0.01,0.022,0,0.055,0,0.075c0,3.021,4.896,5.479,10.943,5.479
	c6.047,0,10.948-2.448,10.948-5.479v-4.26L109.504,439.763L109.504,439.763z"/>
<path fill="#BDC3C7" d="M131.399,439.763c0,2.688-4.9,4.865-10.948,4.865c-6.048,0-10.943-2.178-10.943-4.865
	c0-2.687,4.896-4.863,10.943-4.863C126.498,434.898,131.399,437.076,131.399,439.763z"/>
<path fill="#7F8C8D" d="M109.578,444.02c-0.056,0.2-0.07,0.4-0.07,0.608c0,2.688,4.895,4.864,10.942,4.864
	c6.047,0,10.945-2.185,10.945-4.864c0-0.207-0.02-0.408-0.076-0.605c-0.673,2.398-5.288,4.267-10.87,4.267
	c-5.582,0-10.2-1.858-10.874-4.265v-0.003L109.578,444.02z"/>
<path fill="#95A5A6" d="M109.504,433.68v4.184c-0.01,0.021,0,0.055,0,0.072c0,3.023,4.896,5.479,10.943,5.479
	c6.047,0,10.948-2.45,10.948-5.479v-4.26L109.504,433.68L109.504,433.68z"/>
<path fill="#BDC3C7" d="M131.399,433.68c0,2.69-4.9,4.866-10.948,4.866c-6.048,0-10.943-2.178-10.943-4.865
	c0-2.686,4.896-4.86,10.943-4.86c6.047,0,10.948,2.185,10.948,4.863V433.68L131.399,433.68z"/>
<path fill="#7F8C8D" d="M109.578,437.938c-0.056,0.199-0.07,0.401-0.07,0.609c0,2.688,4.895,4.864,10.942,4.864
	c6.047,0,10.945-2.181,10.945-4.862c0-0.207-0.02-0.408-0.076-0.608c-0.673,2.398-5.288,4.265-10.87,4.265
	c-5.582,0-10.2-1.857-10.873-4.265L109.578,437.938z"/>
<path fill="#95A5A6" d="M109.504,427.6v4.182c-0.01,0.021,0,0.055,0,0.076c0,3.021,4.896,5.479,10.943,5.479
	c6.047,0,10.948-2.45,10.948-5.479v-4.26L109.504,427.6L109.504,427.6z"/>
<path fill="#7F8C8D" d="M109.578,431.854c-0.056,0.2-0.07,0.402-0.07,0.61c0,2.688,4.895,4.864,10.942,4.864
	c6.047,0,10.945-2.188,10.945-4.868c0-0.207-0.02-0.41-0.076-0.61c-0.673,2.4-5.288,4.262-10.87,4.262
	c-5.582,0-10.2-1.854-10.874-4.262v0.004H109.578z"/>
<path fill="#BDC3C7" d="M120.451,439.763v9.73c6.046,0,10.947-2.45,10.947-5.479v-4.254L120.451,439.763z"/>
<path fill="#ECF0F1" d="M120.451,434.896v9.731c6.046,0,10.947-2.18,10.947-4.867C131.398,437.076,126.498,434.896,120.451,434.896z
	"/>
<path fill="#BDC3C7" d="M120.451,433.68v9.733c6.046,0,10.947-2.45,10.947-5.479v-4.26L120.451,433.68L120.451,433.68z"/>
<path fill="#95A5A6" d="M131.323,437.938c-0.673,2.399-5.288,4.262-10.872,4.262v1.222c6.047,0,10.948-2.185,10.948-4.867
	C131.399,438.341,131.379,438.138,131.323,437.938L131.323,437.938z"/>
<path fill="#ECF0F1" d="M120.451,428.814v9.729c6.046,0,10.947-2.178,10.947-4.867c0-2.688-4.9-4.864-10.948-4.864L120.451,428.814
	L120.451,428.814z"/>
<path fill="#BDC3C7" d="M120.451,427.6v9.73c6.046,0,10.947-2.45,10.947-5.479v-4.258h-10.947V427.6z"/>
<path fill="#95A5A6" d="M131.323,431.854c-0.673,2.4-5.288,4.267-10.872,4.267v1.218c6.047,0,10.948-2.185,10.948-4.867
	C131.399,432.259,131.379,432.056,131.323,431.854L131.323,431.854z M131.323,444.02c-0.673,2.4-5.288,4.26-10.872,4.26v1.223
	c6.047,0,10.948-2.185,10.948-4.864C131.399,444.425,131.379,444.222,131.323,444.02L131.323,444.02z"/>
<path fill="#BDC3C7" d="M131.399,427.6c0,2.688-4.9,4.864-10.948,4.864c-6.048,0-10.943-2.178-10.943-4.865
	c0-2.687,4.896-4.867,10.943-4.867c6.047,0,10.948,2.186,10.948,4.864V427.6L131.399,427.6z"/>
<text transform="matrix(1 0 0 1 109.5 467.5)" font-family="'Helvetica'" font-size="12">Aggregator</text>
<text transform="matrix(1 0 0 1 109.5 481.9004)" font-family="'Helvetica'" font-size="12">database</text>
<text transform="matrix(1 0 0 1 433.5 368.5)" font-family="'Helvetica'" font-size="12">Portal</text>
<text transform="matrix(1 0 0 1 433.5 382.8994)" font-family="'Helvetica'" font-size="12">website</text>
<path fill="#95A5A6" d="M433.504,439.529v4.18c-0.01,0.021,0,0.05,0,0.076c0,3.02,4.896,5.474,10.943,5.474
	s10.946-2.449,10.946-5.474v-4.264H433.5L433.504,439.529L433.504,439.529z"/>
<path fill="#BDC3C7" d="M455.397,439.529c0,2.688-4.9,4.858-10.947,4.858s-10.943-2.18-10.943-4.857
	c0-2.688,4.896-4.865,10.943-4.865s10.948,2.18,10.948,4.868v-0.002L455.397,439.529z"/>
<path fill="#7F8C8D" d="M433.577,443.786c-0.055,0.2-0.07,0.396-0.07,0.604c0,2.69,4.896,4.866,10.943,4.866
	s10.948-2.178,10.948-4.864c0-0.206-0.021-0.4-0.073-0.604c-0.673,2.396-5.288,4.258-10.872,4.258
	c-5.582,0-10.198-1.854-10.872-4.257L433.577,443.786L433.577,443.786z"/>
<path fill="#95A5A6" d="M433.504,433.447v4.18c-0.01,0.021,0,0.053,0,0.076c0,3.021,4.896,5.476,10.943,5.476
	s10.946-2.448,10.946-5.476v-4.266L433.504,433.447L433.504,433.447z"/>
<path fill="#BDC3C7" d="M455.397,433.447c0,2.688-4.9,4.858-10.947,4.858s-10.943-2.18-10.943-4.859
	c0-2.688,4.896-4.865,10.943-4.865s10.948,2.174,10.948,4.857v0.006L455.397,433.447z"/>
<path fill="#7F8C8D" d="M433.577,437.703c-0.055,0.2-0.07,0.396-0.07,0.604c0,2.688,4.896,4.865,10.943,4.865
	s10.948-2.178,10.948-4.865c0-0.206-0.021-0.4-0.073-0.604c-0.673,2.396-5.288,4.26-10.872,4.26c-5.582,0-10.198-1.856-10.872-4.26
	H433.577L433.577,437.703z"/>
<path fill="#95A5A6" d="M433.504,427.365v4.182c-0.01,0.024,0,0.05,0,0.076c0,3.02,4.896,5.474,10.943,5.474
	s10.946-2.448,10.946-5.475v-4.26H433.5L433.504,427.365L433.504,427.365z"/>
<path fill="#7F8C8D" d="M433.577,431.621c-0.055,0.2-0.07,0.396-0.07,0.604c0,2.688,4.896,4.865,10.943,4.865
	s10.948-2.176,10.948-4.863c0-0.205-0.021-0.409-0.073-0.604c-0.673,2.396-5.288,4.26-10.872,4.26
	c-5.582,0-10.198-1.858-10.872-4.26L433.577,431.621L433.577,431.621z"/>
<path fill="#BDC3C7" d="M444.45,439.529v9.729c6.047,0,10.948-2.449,10.948-5.475v-4.261l-10.945,0.008L444.45,439.529
	L444.45,439.529z"/>
<path fill="#ECF0F1" d="M444.45,434.663v9.729c6.047,0,10.948-2.18,10.948-4.857c0-2.688-4.9-4.866-10.945-4.866L444.45,434.663
	L444.45,434.663z"/>
<path fill="#BDC3C7" d="M444.45,433.447v9.729c6.047,0,10.948-2.449,10.948-5.474v-4.257l-10.945,0.002H444.45L444.45,433.447z"/>
<path fill="#95A5A6" d="M455.322,437.703c-0.673,2.396-5.288,4.26-10.872,4.26v1.216c6.047,0,10.948-2.18,10.948-4.865
	c0-0.205-0.021-0.404-0.073-0.604L455.322,437.703L455.322,437.703z"/>
<path fill="#ECF0F1" d="M444.45,428.581v9.729c6.047,0,10.948-2.181,10.948-4.86c0-2.688-4.9-4.864-10.945-4.864L444.45,428.581
	L444.45,428.581z"/>
<path fill="#BDC3C7" d="M444.45,427.365v9.729c6.047,0,10.948-2.449,10.948-5.474v-4.265h-10.945L444.45,427.365L444.45,427.365z"/>
<path fill="#95A5A6" d="M455.322,431.621c-0.673,2.396-5.288,4.26-10.872,4.26v1.216c6.047,0,10.948-2.18,10.948-4.865
	c0-0.205-0.021-0.404-0.073-0.604L455.322,431.621L455.322,431.621z M455.322,443.786c-0.673,2.396-5.288,4.258-10.872,4.258v1.22
	c6.047,0,10.948-2.18,10.948-4.863c0-0.207-0.021-0.405-0.073-0.605L455.322,443.786L455.322,443.786z"/>
<path fill="#BDC3C7" d="M455.397,427.365c0,2.688-4.9,4.858-10.947,4.858s-10.943-2.18-10.943-4.858
	c0-2.688,4.896-4.865,10.943-4.865S455.398,424.677,455.397,427.365z"/>
<text transform="matrix(1 0 0 1 433.5 467.5)" font-family="'Helvetica'" font-size="12">Portal</text>
<text transform="matrix(1 0 0 1 433.5 481.8984)" font-family="'Helvetica'" font-size="12">database</text>
<text transform="matrix(1 0 0 1 181.5 215.5)" font-family="'Helvetica'" font-size="12">Auth</text>
<text transform="matrix(1 0 0 1 181.5 229.8994)" font-family="'Helvetica'" font-size="12">application</text>
<path fill="#354A5D" d="M181.5,180.166v9.334l12,8v-9.334L181.5,180.166z"/>
<path fill="#3382B6" d="M205.5,180.166v9.334l-12,8v-9.334L205.5,180.166z"/>
<path fill="#3F9BD7" d="M189.5,174.833l-8,5.333l12,8l12-8l-8-5.333H189.5L189.5,174.833z"/>
<path fill="#3382B6" d="M186.833,177.5v2.666c0,2.21,2.984,4,6.666,4s6.663-1.79,6.663-4V177.5H186.83H186.833z"/>
<path fill="#354A5D" d="M186.833,177.5v2.666c0,2.21,2.984,4,6.666,4V177.5h-6.67H186.833L186.833,177.5z"/>
<path fill="#3F9BD7" d="M200.165,177.5c0,2.21-2.984,4-6.666,4s-6.67-1.79-6.67-4s2.985-4,6.667-4s6.665,1.79,6.665,4H200.165
	L200.165,177.5z"/>
<path fill="#354A5D" d="M190.5,333.166v9.334l12,8v-9.334L190.5,333.166z"/>
<path fill="#3382B6" d="M214.5,333.166v9.334l-12,8v-9.334L214.5,333.166z"/>
<path fill="#3F9BD7" d="M198.5,327.834l-8,5.332l12,8l12-8l-8-5.332H198.5z"/>
<path fill="#3382B6" d="M195.833,330.5v2.666c0,2.21,2.985,4,6.667,4s6.666-1.79,6.666-4V330.5H195.833z"/>
<path fill="#354A5D" d="M195.833,330.5v2.666c0,2.21,2.985,4,6.667,4V330.5H195.833z"/>
<path fill="#3F9BD7" d="M209.166,330.5c0,2.21-2.984,4-6.666,4s-6.666-1.79-6.666-4s2.987-4,6.67-4s6.665,1.79,6.665,4H209.166
	L209.166,330.5z"/>
<path fill="#354A5D" d="M433.5,180.166v9.334l12,8v-9.334L433.5,180.166z"/>
<path fill="#3382B6" d="M457.5,180.166v9.334l-12,8v-9.334L457.5,180.166z"/>
<path fill="#3F9BD7" d="M441.5,174.833l-8,5.333l12,8l12-8l-8-5.333H441.5L441.5,174.833z"/>
<path fill="#3382B6" d="M438.834,177.5v2.666c0,2.21,2.984,4,6.666,4c3.688,0,6.666-1.79,6.666-4V177.5H438.834L438.834,177.5z"/>
<path fill="#354A5D" d="M438.834,177.5v2.666c0,2.21,2.984,4,6.666,4V177.5H438.834z"/>
<path fill="#3F9BD7" d="M452.166,177.5c0,2.211-2.979,4-6.666,4c-3.682,0-6.666-1.789-6.666-4c0-2.21,2.984-4,6.666-4
	C449.183,173.5,452.166,175.29,452.166,177.5z"/>
<path fill="#354A5D" d="M514.5,180.166v9.334l12,8v-9.334L514.5,180.166z"/>
<path fill="#3382B6" d="M538.5,180.166v9.334l-12,8v-9.334L538.5,180.166z"/>
<path fill="#3F9BD7" d="M522.5,174.834l-8,5.332l12,8l12-8l-8-5.333L522.5,174.834L522.5,174.834z"/>
<path fill="#3382B6" d="M519.835,177.499v2.666c0,2.21,2.982,4,6.665,4c3.682,0,6.666-1.79,6.666-4v-2.663h-13.33L519.835,177.499
	L519.835,177.499z"/>
<path fill="#354A5D" d="M519.835,177.499v2.666c0,2.21,2.982,4,6.665,4v-6.663h-6.666L519.835,177.499L519.835,177.499z"/>
<path fill="#3F9BD7" d="M533.165,177.499c0,2.21-2.983,4-6.665,4c-3.683,0-6.666-1.79-6.666-4s2.979-4,6.663-4
	C530.179,173.499,533.163,175.291,533.165,177.499L533.165,177.499z"/>
<path fill="#354A5D" d="M109.5,333.167v9.333l12,8v-9.33L109.5,333.167L109.5,333.167z"/>
<path fill="#3382B6" d="M133.5,333.167v9.333l-12,8v-9.33L133.5,333.167L133.5,333.167z"/>
<path fill="#3F9BD7" d="M117.5,327.834l-8,5.333l12,8l12-8l-8-5.333H117.5z"/>
<path fill="#3382B6" d="M114.833,330.501v2.666c0,2.21,2.984,4,6.666,4s6.663-1.79,6.663-4v-2.666H114.83H114.833L114.833,330.501z"
	/>
<path fill="#354A5D" d="M114.833,330.501v2.666c0,2.21,2.984,4,6.666,4v-6.666h-6.67H114.833L114.833,330.501z"/>
<path fill="#3F9BD7" d="M128.165,330.501c0,2.21-2.984,4-6.666,4s-6.67-1.79-6.67-4s2.985-4,6.667-4s6.665,1.79,6.665,4H128.165
	L128.165,330.501z"/>
<path fill="#354A5D" d="M352.5,333.165v9.335l12,8v-9.334L352.5,333.165L352.5,333.165z"/>
<path fill="#3382B6" d="M376.5,333.165v9.335l-12,8v-9.334L376.5,333.165L376.5,333.165z"/>
<path fill="#3F9BD7" d="M360.5,327.832l-8,5.334l12,8l12-8l-8-5.33h-8V327.832L360.5,327.832z"/>
<path fill="#3382B6" d="M357.835,330.5v2.666c0,2.21,2.984,4,6.666,4c3.688,0,6.67-1.79,6.67-4v-2.663h-13.333L357.835,330.5
	L357.835,330.5z"/>
<path fill="#354A5D" d="M357.835,330.5v2.666c0,2.21,2.984,4,6.666,4v-6.663h-6.663L357.835,330.5L357.835,330.5z"/>
<path fill="#3F9BD7" d="M371.167,330.5c0,2.21-2.979,4-6.666,4c-3.68,0-6.663-1.79-6.663-4s2.984-4,6.666-4
	c3.688,0,6.667,1.79,6.667,4H371.167L371.167,330.5z"/>
<path fill="#354A5D" d="M271.5,180.166v9.334l12,8v-9.33l-12-8V180.166L271.5,180.166z"/>
<path fill="#3382B6" d="M295.5,180.166v9.334l-12,8v-9.33l12-8V180.166L295.5,180.166z"/>
<path fill="#3F9BD7" d="M279.5,174.833l-8,5.333l12,8l12-8l-8-5.333H279.5L279.5,174.833z"/>
<path fill="#3382B6" d="M276.834,177.499v2.667c0,2.21,2.984,4,6.666,4s6.666-1.79,6.666-4V177.5L276.834,177.499L276.834,177.499z"
	/>
<path fill="#354A5D" d="M276.834,177.499v2.667c0,2.21,2.984,4,6.666,4V177.5L276.834,177.499L276.834,177.499z"/>
<path fill="#3F9BD7" d="M290.166,177.499c0,2.21-2.984,4-6.666,4s-6.666-1.79-6.666-4s2.984-4,6.666-4
	S290.166,175.291,290.166,177.499z"/>
<path fill="#354A5D" d="M433.5,333.166v9.334l12,8v-9.332L433.5,333.166L433.5,333.166z"/>
<path fill="#3382B6" d="M457.5,333.166v9.334l-12,8v-9.332L457.5,333.166L457.5,333.166z"/>
<path fill="#3F9BD7" d="M441.5,327.834l-8,5.332l12,8l12-8l-8-5.332H441.5z"/>
<path fill="#3382B6" d="M438.835,330.5v2.666c0,2.211,2.983,4,6.665,4s6.666-1.789,6.666-4V330.5H438.835L438.835,330.5z"/>
<path fill="#354A5D" d="M438.835,330.5v2.666c0,2.211,2.983,4,6.665,4V330.5H438.835z"/>
<path fill="#3F9BD7" d="M452.165,330.5c0,2.211-2.983,4-6.665,4s-6.666-1.789-6.666-4c0-2.21,2.98-4,6.663-4
	S452.163,328.29,452.165,330.5L452.165,330.5z"/>
<path fill="#354A5D" d="M28.5,333.166v9.334l12,8v-9.334L28.5,333.166z"/>
<path fill="#3382B6" d="M52.5,333.166v9.334l-12,8v-9.334L52.5,333.166z"/>
<path fill="#3F9BD7" d="M36.5,327.834l-8,5.332l12,8l12-8l-8-5.332H36.5z"/>
<path fill="#3382B6" d="M33.834,330.5v2.666c0,2.211,2.984,4,6.666,4s6.666-1.789,6.666-4V330.5H33.834z"/>
<path fill="#354A5D" d="M33.834,330.5v2.666c0,2.211,2.984,4,6.666,4V330.5H33.834z"/>
<path fill="#3F9BD7" d="M47.166,330.5c0,2.211-2.984,4-6.666,4s-6.666-1.789-6.666-4c0-2.209,2.984-4,6.666-4
	S47.166,328.291,47.166,330.5z"/>
<path fill="#354A5D" d="M271.5,333.166v9.334l12,8v-9.334L271.5,333.166L271.5,333.166z"/>
<path fill="#3382B6" d="M295.5,333.166v9.334l-12,8v-9.334L295.5,333.166L295.5,333.166z"/>
<path fill="#3F9BD7" d="M279.5,327.832l-8,5.334l12,8l12-8l-8-5.333L279.5,327.832L279.5,327.832z"/>
<path fill="#3382B6" d="M276.834,330.5v2.666c0,2.21,2.984,4,6.666,4s6.666-1.79,6.666-4V330.5H276.834L276.834,330.5z"/>
<path fill="#354A5D" d="M276.834,330.5v2.666c0,2.21,2.984,4,6.666,4V330.5H276.834z"/>
<path fill="#3F9BD7" d="M290.166,330.5c0,2.21-2.984,4-6.666,4s-6.666-1.79-6.666-4s2.984-4,6.666-4S290.166,328.29,290.166,330.5z"
	/>
<path fill="#354A5D" d="M190.5,549.166v9.334l12,8v-9.334L190.5,549.166L190.5,549.166z"/>
<path fill="#3382B6" d="M214.5,549.166v9.334l-12,8v-9.334L214.5,549.166L214.5,549.166z"/>
<path fill="#3F9BD7" d="M198.5,543.833l-8,5.333l12,8l12-8l-8-5.333H198.5z"/>
<path fill="#3382B6" d="M195.834,546.5v2.666c0,2.21,2.984,4,6.666,4c3.688,0,6.666-1.79,6.666-4V546.5H195.834L195.834,546.5z"/>
<path fill="#354A5D" d="M195.834,546.5v2.666c0,2.21,2.984,4,6.666,4V546.5H195.834z"/>
<path fill="#3F9BD7" d="M209.166,546.5c0,2.21-2.979,4-6.666,4c-3.682,0-6.666-1.79-6.666-4s2.984-4,6.666-4
	C206.183,542.5,209.166,544.29,209.166,546.5z"/>
<path fill="#95A5A6" d="M123.605,43.77v4.179c-0.01,0.024,0,0.053,0,0.076c0,3.021,4.896,5.475,10.943,5.475
	c6.047,0,10.945-2.45,10.945-5.478v-4.258l-21.89,0.002v0.002L123.605,43.77z"/>
<path fill="#BDC3C7" d="M145.499,43.77c0,2.688-4.9,4.863-10.947,4.863c-6.047,0-10.943-2.18-10.943-4.865
	c0-2.688,4.896-4.868,10.943-4.868c6.047,0,10.948,2.18,10.948,4.866L145.499,43.77L145.499,43.77z"/>
<path fill="#7F8C8D" d="M123.679,48.025c-0.056,0.2-0.07,0.399-0.07,0.606c0,2.688,4.895,4.865,10.942,4.865
	c6.047,0,10.948-2.18,10.948-4.868c0-0.207-0.02-0.407-0.076-0.605c-0.673,2.396-5.288,4.258-10.872,4.258
	c-5.582,0-10.198-1.858-10.872-4.258V48.025L123.679,48.025z"/>
<path fill="#95A5A6" d="M123.605,37.686v4.184c-0.01,0.021,0,0.05,0,0.07c0,3.023,4.896,5.478,10.943,5.478
	c6.047,0,10.945-2.45,10.945-5.478v-4.256l-21.89,0.002H123.605z"/>
<path fill="#BDC3C7" d="M145.499,37.686c0,2.688-4.9,4.865-10.947,4.865c-6.047,0-10.943-2.178-10.943-4.865
	s4.896-4.864,10.943-4.864c6.047,0,10.948,2.179,10.948,4.868L145.499,37.686L145.499,37.686z"/>
<path fill="#7F8C8D" d="M123.679,41.941c-0.056,0.2-0.07,0.401-0.07,0.61c0,2.687,4.895,4.863,10.942,4.863
	c6.047,0,10.948-2.18,10.948-4.865c0-0.207-0.02-0.408-0.076-0.608c-0.673,2.398-5.288,4.26-10.872,4.26
	C128.969,46.201,124.353,44.344,123.679,41.941L123.679,41.941z"/>
<path fill="#95A5A6" d="M123.605,31.604v4.182c-0.01,0.023,0,0.052,0,0.075c0,3.024,4.896,5.479,10.943,5.479
	c6.047,0,10.945-2.449,10.945-5.477v-4.258h-21.89L123.605,31.604z"/>
<path fill="#7F8C8D" d="M123.679,35.859c-0.056,0.2-0.07,0.401-0.07,0.608c0,2.688,4.895,4.865,10.942,4.865
	c6.047,0,10.948-2.18,10.948-4.865c0-0.207-0.02-0.41-0.076-0.608c-0.673,2.398-5.288,4.26-10.872,4.26
	C128.969,40.119,124.353,38.262,123.679,35.859z"/>
<path fill="#BDC3C7" d="M134.552,43.77v9.729c6.047,0,10.948-2.45,10.948-5.476v-4.259l-10.945,0.002L134.552,43.77L134.552,43.77z"
	/>
<path fill="#ECF0F1" d="M134.552,38.902v9.731c6.047,0,10.948-2.18,10.948-4.867s-4.9-4.866-10.945-4.866L134.552,38.902
	L134.552,38.902z"/>
<path fill="#BDC3C7" d="M134.552,37.686v9.732c6.047,0,10.948-2.454,10.948-5.48v-4.256l-10.945,0.002L134.552,37.686
	L134.552,37.686z"/>
<path fill="#95A5A6" d="M145.424,41.941c-0.673,2.399-5.288,4.261-10.872,4.261v1.217c6.047,0,10.948-2.181,10.948-4.866
	c0-0.207-0.02-0.41-0.073-0.611L145.424,41.941L145.424,41.941z"/>
<path fill="#ECF0F1" d="M134.552,32.818v9.731c6.047,0,10.948-2.18,10.948-4.867c0-2.686-4.9-4.862-10.945-4.862L134.552,32.818
	L134.552,32.818z"/>
<path fill="#BDC3C7" d="M134.552,31.604v9.732c6.047,0,10.948-2.449,10.948-5.477v-4.254L134.552,31.604L134.552,31.604z"/>
<path fill="#95A5A6" d="M145.424,35.859c-0.673,2.398-5.288,4.26-10.872,4.26v1.218c6.047,0,10.948-2.18,10.948-4.866
	c0-0.203-0.02-0.405-0.073-0.61L145.424,35.859L145.424,35.859z M145.424,48.025c-0.673,2.397-5.288,4.259-10.872,4.259V53.5
	c6.047,0,10.948-2.176,10.948-4.859c0-0.211-0.02-0.409-0.073-0.61L145.424,48.025L145.424,48.025z"/>
<path fill="#BDC3C7" d="M145.499,31.604c0,2.688-4.9,4.865-10.947,4.865c-6.047,0-10.943-2.18-10.943-4.865
	c0-2.688,4.896-4.864,10.943-4.864c6.047,0,10.948,2.175,10.948,4.862L145.499,31.604L145.499,31.604z"/>
<path fill="#8E44AD" d="M36.5,175.232c-1.104,0-2,0.895-2,2v18c0,1.104,0.896,2,2,2h14c1.104,0,2-0.896,2-2v-14l-6-6H36.5z"/>
<path fill="#9B59B6" d="M36.5,174.232c-1.104,0-2,0.895-2,2v18c0,1.104,0.896,2,2,2h14c1.104,0,2-0.896,2-2v-14l-6-6H36.5z"/>
<path fill="#8E44AD" d="M52.5,180.232l-6-6v4c0,1.104,0.896,2,2,2H52.5z"/>
<rect x="10.5" y="8.5" fill="none" stroke="#BDC3C7" stroke-miterlimit="10" width="801" height="279"/>
<rect x="10.5" y="296.5" fill="none" stroke="#BDC3C7" stroke-miterlimit="10" width="801" height="216"/>
<rect x="10.5" y="521.5" fill="none" stroke="#BDC3C7" stroke-miterlimit="10" width="801" height="189"/>
<text transform="matrix(1 0 0 1 28.5 26.5)" fill="#96A5A6" font-family="'Helvetica'" font-size="12">Server Beuk</text>
<text transform="matrix(1 0 0 1 28.5 314.5)" fill="#96A5A6" font-family="'Helvetica'" font-size="12">Server Main</text>
<text transform="matrix(1 0 0 1 28.5 539.5)" fill="#96A5A6" font-family="'Helvetica'" font-size="12">Server Vidal</text>
<text transform="matrix(1 0 0 1 595.5 368.5)" font-family="'Helvetica'" font-size="12">Rooms</text>
<text transform="matrix(1 0 0 1 595.5 382.8994)" font-family="'Helvetica'" font-size="12">application</text>
<path fill="#E67E22" d="M595.5,333.168v9.332l12,8v-9.334L595.5,333.168L595.5,333.168z"/>
<path fill="#F39C12" d="M619.501,333.168v9.332l-12,8v-9.334L619.501,333.168L619.501,333.168z"/>
<path fill="#F1C40F" d="M603.5,327.832l-8,5.341l12,7.992l12-7.992l-8-5.335h-8V327.832z"/>
<path fill="#F39C12" d="M600.833,330.5v2.673c0,2.21,2.984,4,6.667,4s6.666-1.79,6.666-4V330.5H600.833z"/>
<path fill="#E67E22" d="M600.833,330.5v2.673c0,2.21,2.984,4,6.667,4V330.5H600.833z"/>
<path fill="#F1C40F" d="M614.166,330.5c0,2.215-2.983,4-6.666,4s-6.666-1.785-6.666-4c0-2.21,2.987-4,6.67-4s6.665,1.79,6.665,4
	H614.166L614.166,330.5z"/>
<path fill="#95A5A6" d="M595.504,439.763v4.187c-0.01,0.021,0,0.05,0,0.07c0,3.021,4.896,5.479,10.943,5.479
	s10.944-2.45,10.944-5.479v-4.261L595.504,439.763L595.504,439.763L595.504,439.763z"/>
<path fill="#BDC3C7" d="M617.396,439.763c0,2.688-4.9,4.864-10.948,4.864c-6.049,0-10.941-2.178-10.941-4.865
	c0-2.687,4.896-4.868,10.942-4.868s10.95,2.185,10.95,4.865L617.396,439.763L617.396,439.763z"/>
<path fill="#7F8C8D" d="M595.578,444.02c-0.06,0.2-0.071,0.4-0.071,0.607c0,2.688,4.896,4.865,10.942,4.865s10.95-2.188,10.95-4.868
	c0-0.207-0.022-0.408-0.077-0.607c-0.675,2.398-5.29,4.267-10.873,4.267c-5.582,0-10.197-1.86-10.87-4.267L595.578,444.02
	L595.578,444.02z"/>
<path fill="#95A5A6" d="M595.504,433.68v4.188c-0.01,0.02,0,0.05,0,0.066c0,3.022,4.896,5.479,10.943,5.479
	s10.944-2.452,10.944-5.48v-4.256L595.504,433.68L595.504,433.68z"/>
<path fill="#BDC3C7" d="M617.396,433.68c0,2.688-4.9,4.865-10.948,4.865c-6.049,0-10.941-2.178-10.941-4.865
	c0-2.687,4.896-4.862,10.942-4.862S617.399,430.992,617.396,433.68L617.396,433.68z"/>
<path fill="#7F8C8D" d="M595.578,437.936c-0.06,0.2-0.071,0.402-0.071,0.61c0,2.688,4.896,4.864,10.942,4.864
	s10.95-2.187,10.95-4.865c0-0.207-0.022-0.408-0.077-0.609c-0.675,2.399-5.29,4.266-10.873,4.266
	C600.867,442.195,596.252,440.338,595.578,437.936L595.578,437.936z"/>
<path fill="#95A5A6" d="M595.504,427.598v4.187c-0.01,0.021,0,0.05,0,0.072c0,3.021,4.896,5.479,10.943,5.479
	s10.944-2.45,10.944-5.479v-4.26L595.504,427.598L595.504,427.598z"/>
<path fill="#7F8C8D" d="M595.578,431.854c-0.06,0.201-0.071,0.402-0.071,0.609c0,2.688,4.896,4.865,10.942,4.865
	s10.95-2.187,10.95-4.865c0-0.207-0.022-0.41-0.077-0.609c-0.675,2.399-5.29,4.266-10.873,4.266
	C600.867,436.113,596.252,434.256,595.578,431.854L595.578,431.854z"/>
<path fill="#BDC3C7" d="M606.449,439.763v9.73c6.047,0,10.95-2.45,10.95-5.479v-4.258L606.449,439.763L606.449,439.763z"/>
<path fill="#ECF0F1" d="M606.449,434.896v9.73c6.047,0,10.95-2.18,10.95-4.867c0-2.687-4.903-4.868-10.95-4.868V434.896
	L606.449,434.896z"/>
<path fill="#BDC3C7" d="M606.449,433.68v9.732c6.047,0,10.95-2.454,10.95-5.48v-4.26l-10.95,0.004V433.68L606.449,433.68z"/>
<path fill="#95A5A6" d="M617.322,437.936c-0.675,2.4-5.29,4.267-10.873,4.267v1.218c6.047,0,10.95-2.18,10.95-4.866
	c0-0.207-0.021-0.41-0.077-0.605V437.936z"/>
<path fill="#ECF0F1" d="M606.449,428.814v9.729c6.047,0,10.95-2.18,10.95-4.868C617.399,430.992,612.496,428.814,606.449,428.814
	L606.449,428.814z"/>
<path fill="#BDC3C7" d="M606.449,427.598v9.732c6.047,0,10.95-2.45,10.95-5.479v-4.258L606.449,427.598L606.449,427.598z"/>
<path fill="#95A5A6" d="M617.322,431.854c-0.675,2.399-5.29,4.266-10.873,4.266v1.22c6.047,0,10.95-2.18,10.95-4.868
	C617.399,432.26,617.379,432.057,617.322,431.854z M617.322,444.02c-0.675,2.398-5.29,4.267-10.873,4.267v1.216
	c6.047,0,10.95-2.182,10.95-4.865C617.399,444.421,617.379,444.221,617.322,444.02L617.322,444.02z"/>
<path fill="#BDC3C7" d="M617.396,427.598c0,2.688-4.9,4.865-10.948,4.865c-6.049,0-10.941-2.178-10.941-4.865
	c0-2.687,4.896-4.862,10.942-4.862S617.399,424.911,617.396,427.598L617.396,427.598z"/>
<text transform="matrix(1 0 0 1 595.5 467.5)" font-family="'Helvetica'" font-size="12">Rooms</text>
<text transform="matrix(1 0 0 1 595.5 481.8994)" font-family="'Helvetica'" font-size="12">database</text>
<text transform="matrix(1 0 0 1 514.5 368.5)" font-family="'Helvetica'" font-size="12">CIS demo</text>
<text transform="matrix(1 0 0 1 514.5 382.8994)" font-family="'Helvetica'" font-size="12">application</text>
<path fill="#E67E22" d="M514.5,333.168v9.332l12,8v-9.334L514.5,333.168L514.5,333.168z"/>
<path fill="#F39C12" d="M538.5,333.168v9.332l-12,8v-9.334L538.5,333.168L538.5,333.168z"/>
<path fill="#F1C40F" d="M522.5,327.832l-8,5.341l12,7.992l12-7.992l-8-5.335h-8V327.832z"/>
<path fill="#F39C12" d="M519.832,330.5v2.673c0,2.21,2.984,4,6.668,4c3.682,0,6.666-1.79,6.666-4V330.5H519.832z"/>
<path fill="#E67E22" d="M519.832,330.5v2.673c0,2.21,2.984,4,6.668,4V330.5H519.832z"/>
<path fill="#F1C40F" d="M533.166,330.5c0,2.215-2.984,4-6.666,4c-3.684,0-6.666-1.785-6.666-4c0-2.21,2.986-4,6.67-4
	c3.682,0,6.664,1.79,6.664,4H533.166L533.166,330.5z"/>
<path fill="#95A5A6" d="M514.504,439.529v4.185c-0.01,0.021,0,0.05,0,0.071c0,3.021,4.896,5.479,10.943,5.479
	s10.943-2.448,10.943-5.479v-4.26L514.504,439.529L514.504,439.529L514.504,439.529z"/>
<path fill="#BDC3C7" d="M536.396,439.529c0,2.688-4.9,4.862-10.949,4.862s-10.941-2.178-10.941-4.863
	c0-2.688,4.896-4.868,10.943-4.868s10.949,2.183,10.949,4.865L536.396,439.529L536.396,439.529z"/>
<path fill="#7F8C8D" d="M514.578,443.786c-0.061,0.2-0.072,0.398-0.072,0.605c0,2.688,4.896,4.865,10.943,4.865
	s10.949-2.187,10.949-4.868c0-0.207-0.021-0.406-0.076-0.605c-0.678,2.396-5.291,4.265-10.873,4.265s-10.197-1.859-10.871-4.265
	V443.786L514.578,443.786z"/>
<path fill="#95A5A6" d="M514.504,433.446v4.188c-0.01,0.021,0,0.05,0,0.067c0,3.021,4.896,5.479,10.943,5.479
	s10.943-2.451,10.943-5.479v-4.256L514.504,433.446L514.504,433.446z"/>
<path fill="#BDC3C7" d="M536.396,433.446c0,2.688-4.9,4.863-10.949,4.863s-10.941-2.178-10.941-4.863
	c0-2.688,4.896-4.864,10.943-4.864S536.398,430.759,536.396,433.446L536.396,433.446z"/>
<path fill="#7F8C8D" d="M514.578,437.702c-0.061,0.2-0.072,0.4-0.072,0.609c0,2.688,4.896,4.863,10.943,4.863
	s10.949-2.185,10.949-4.865c0-0.207-0.021-0.406-0.076-0.608c-0.678,2.399-5.291,4.265-10.873,4.265
	C519.867,441.962,515.252,440.104,514.578,437.702L514.578,437.702z"/>
<path fill="#95A5A6" d="M514.504,427.364v4.185c-0.01,0.021,0,0.051,0,0.072c0,3.021,4.896,5.479,10.943,5.479
	s10.943-2.448,10.943-5.479v-4.258L514.504,427.364L514.504,427.364z"/>
<path fill="#7F8C8D" d="M514.578,431.619c-0.061,0.202-0.072,0.402-0.072,0.608c0,2.688,4.896,4.865,10.943,4.865
	s10.949-2.185,10.949-4.865c0-0.206-0.021-0.408-0.076-0.608c-0.678,2.399-5.291,4.265-10.873,4.265
	C519.867,435.88,515.252,434.021,514.578,431.619L514.578,431.619z"/>
<path fill="#BDC3C7" d="M525.449,439.529v9.729c6.047,0,10.949-2.45,10.949-5.479v-4.26L525.449,439.529L525.449,439.529z"/>
<path fill="#ECF0F1" d="M525.449,434.663v9.73c6.047,0,10.949-2.18,10.949-4.865c0-2.688-4.902-4.868-10.949-4.868V434.663
	L525.449,434.663z"/>
<path fill="#BDC3C7" d="M525.449,433.446v9.73c6.047,0,10.949-2.453,10.949-5.479v-4.261l-10.949,0.005V433.446L525.449,433.446z"/>
<path fill="#95A5A6" d="M536.322,437.702c-0.676,2.398-5.291,4.265-10.873,4.265v1.219c6.047,0,10.949-2.181,10.949-4.865
	c0-0.207-0.021-0.41-0.076-0.607V437.702z"/>
<path fill="#ECF0F1" d="M525.449,428.582v9.729c6.047,0,10.949-2.18,10.949-4.866C536.398,430.759,531.496,428.582,525.449,428.582
	L525.449,428.582z"/>
<path fill="#BDC3C7" d="M525.449,427.364v9.73c6.047,0,10.949-2.448,10.949-5.479v-4.257L525.449,427.364L525.449,427.364z"/>
<path fill="#95A5A6" d="M536.322,431.619c-0.676,2.399-5.291,4.265-10.873,4.265v1.22c6.047,0,10.949-2.18,10.949-4.866
	C536.398,432.026,536.379,431.823,536.322,431.619z M536.322,443.786c-0.676,2.396-5.291,4.265-10.873,4.265v1.216
	c6.047,0,10.949-2.182,10.949-4.863C536.398,444.188,536.379,443.987,536.322,443.786L536.322,443.786z"/>
<path fill="#BDC3C7" d="M536.396,427.364c0,2.688-4.9,4.864-10.949,4.864s-10.941-2.179-10.941-4.864
	c0-2.688,4.896-4.864,10.943-4.864S536.398,424.678,536.396,427.364L536.396,427.364z"/>
<text transform="matrix(1 0 0 1 514.5 467.5)" font-family="'Helvetica'" font-size="12">CIS demo</text>
<text transform="matrix(1 0 0 1 514.5 481.8994)" font-family="'Helvetica'" font-size="12">database</text>
<g id="layer1" transform="translate(0,-1028.3622)">
	<path id="path3031-3" fill="#F39C12" d="M201.5,1126.862l2,10h-2V1126.862z"/>
	<path id="path3031" fill="#F39C12" d="M183.5,1126.862l-2,10h2V1126.862z"/>
	<path id="path3031-8" fill="#E67E22" d="M183.5,1129.862l-2,14h2h18h2l-2-14H183.5z"/>
	<path id="rect3011" fill="#F1C40F" d="M181.5,1136.862v7h22v-7h-8.188c-0.416,1.158-1.512,2-2.812,2c-1.301,0-2.397-0.842-2.812-2
		H181.5z"/>
	<rect id="rect3011-4" x="183.5" y="1126.862" fill="#F39C12" width="18" height="3"/>
	<rect id="rect3096" x="181.5" y="1143.862" fill="#F39C12" width="22" height="1"/>
</g>
<g>
	<path fill="none" stroke="#CCCCCC" stroke-miterlimit="10" stroke-dasharray="4,4" d="M176.847,107.5h0.078"/>
	<path fill="none" stroke="#CCCCCC" stroke-miterlimit="10" stroke-dasharray="4,4" d="M136.5,107.5h43.025"/>
	<path fill="none" stroke="#CCCCCC" stroke-miterlimit="10" stroke-dasharray="4,4" d="M181.422,107.5h0.078"/>
</g>
<g>
	<path fill="none" stroke="#CCCCCC" stroke-miterlimit="10" stroke-dasharray="4,4" d="M136.5,155.916v0.094"/>
	<path fill="none" stroke="#CCCCCC" stroke-miterlimit="10" stroke-dasharray="4,4" d="M136.5,107.5v51.629"/>
	<path fill="none" stroke="#CCCCCC" stroke-miterlimit="10" stroke-dasharray="4,4" d="M136.5,161.406v0.094"/>
</g>
<g>
	<path fill="none" stroke="#CCCCCC" stroke-miterlimit="10" stroke-dasharray="4,4" d="M271.5,163.985v0.108"/>
	<path fill="none" stroke="#CCCCCC" stroke-miterlimit="10" stroke-dasharray="4,4" d="M271.5,107.5v60.234"/>
	<path fill="none" stroke="#CCCCCC" stroke-miterlimit="10" stroke-dasharray="4,4" d="M271.5,170.391v0.109"/>
</g>
<g>
	<path fill="none" stroke="#CCCCCC" stroke-miterlimit="10" stroke-dasharray="4,4" d="M289.5,163.055v0.125"/>
	<path fill="none" stroke="#CCCCCC" stroke-miterlimit="10" stroke-dasharray="4,4" d="M289.5,98.5v68.84"/>
	<path fill="none" stroke="#CCCCCC" stroke-miterlimit="10" stroke-dasharray="4,4" d="M289.5,170.375v0.125"/>
</g>
<g>
	<path fill="none" stroke="#CCCCCC" stroke-miterlimit="10" stroke-dasharray="4,4" d="M118.5,154.985v0.108"/>
	<path fill="none" stroke="#CCCCCC" stroke-miterlimit="10" stroke-dasharray="4,4" d="M118.5,98.5v60.233"/>
	<path fill="none" stroke="#CCCCCC" stroke-miterlimit="10" stroke-dasharray="4,4" d="M118.5,161.391v0.109"/>
</g>
<g>
	<path fill="none" stroke="#CCCCCC" stroke-miterlimit="10" stroke-dasharray="4,4" d="M266.756,107.5h0.113"/>
	<path fill="none" stroke="#CCCCCC" stroke-miterlimit="10" stroke-dasharray="4,4" d="M208.5,107.5h62.123"/>
	<path fill="none" stroke="#CCCCCC" stroke-miterlimit="10" stroke-dasharray="4,4" d="M273.362,107.5h0.113"/>
</g>
<g>
	<path fill="none" stroke="#CCCCCC" stroke-miterlimit="10" stroke-dasharray="4,4" d="M442.5,163.055v0.125"/>
	<path fill="none" stroke="#CCCCCC" stroke-miterlimit="10" stroke-dasharray="4,4" d="M442.5,98.5v68.84"/>
	<path fill="none" stroke="#CCCCCC" stroke-miterlimit="10" stroke-dasharray="4,4" d="M442.5,170.375v0.125"/>
</g>
<g>
	<path fill="none" stroke="#CCCCCC" stroke-miterlimit="10" stroke-dasharray="4,4" d="M523.5,163.055v0.125"/>
	<path fill="none" stroke="#CCCCCC" stroke-miterlimit="10" stroke-dasharray="4,4" d="M523.5,98.5v68.84"/>
	<path fill="none" stroke="#CCCCCC" stroke-miterlimit="10" stroke-dasharray="4,4" d="M523.5,170.375v0.125"/>
</g>
<g>
	<path fill="none" stroke="#CCCCCC" stroke-miterlimit="10" stroke-dasharray="4,4" d="M37.5,412.946v0.032"/>
	<path fill="none" stroke="#CCCCCC" stroke-miterlimit="10" stroke-dasharray="4,4" d="M37.5,395.5v18.604"/>
	<path fill="none" stroke="#CCCCCC" stroke-miterlimit="10" stroke-dasharray="4,4" d="M37.5,414.924v0.034"/>
</g>
<g>
	<path fill="none" stroke="#CCCCCC" stroke-miterlimit="10" stroke-dasharray="4,4" d="M118.5,411.488v0.033"/>
	<path fill="none" stroke="#CCCCCC" stroke-miterlimit="10" stroke-dasharray="4,4" d="M118.5,394.042v18.604"/>
	<path fill="none" stroke="#CCCCCC" stroke-miterlimit="10" stroke-dasharray="4,4" d="M118.5,413.466v0.034"/>
</g>
<g>
	<path fill="none" stroke="#CCCCCC" stroke-miterlimit="10" stroke-dasharray="4,4" d="M199.5,412.946v0.032"/>
	<path fill="none" stroke="#CCCCCC" stroke-miterlimit="10" stroke-dasharray="4,4" d="M199.5,395.5v18.604"/>
	<path fill="none" stroke="#CCCCCC" stroke-miterlimit="10" stroke-dasharray="4,4" d="M199.5,414.924v0.034"/>
</g>
<g>
	<path fill="none" stroke="#CCCCCC" stroke-miterlimit="10" stroke-dasharray="4,4" d="M361.5,411.639v0.031"/>
	<path fill="none" stroke="#CCCCCC" stroke-miterlimit="10" stroke-dasharray="4,4" d="M361.5,395.5v17.21"/>
	<path fill="none" stroke="#CCCCCC" stroke-miterlimit="10" stroke-dasharray="4,4" d="M361.5,413.469v0.031"/>
</g>
<g>
	<path fill="none" stroke="#CCCCCC" stroke-miterlimit="10" stroke-dasharray="4,4" d="M442.5,412.946v0.032"/>
	<path fill="none" stroke="#CCCCCC" stroke-miterlimit="10" stroke-dasharray="4,4" d="M442.5,395.5v18.604"/>
	<path fill="none" stroke="#CCCCCC" stroke-miterlimit="10" stroke-dasharray="4,4" d="M442.5,414.924v0.034"/>
</g>
<g>
	<path fill="none" stroke="#CCCCCC" stroke-miterlimit="10" stroke-dasharray="4,4" d="M523.5,412.946v0.032"/>
	<path fill="none" stroke="#CCCCCC" stroke-miterlimit="10" stroke-dasharray="4,4" d="M523.5,395.5v18.604"/>
	<path fill="none" stroke="#CCCCCC" stroke-miterlimit="10" stroke-dasharray="4,4" d="M523.5,414.924v0.034"/>
</g>
<g>
	<path fill="none" stroke="#CCCCCC" stroke-miterlimit="10" stroke-dasharray="4,4" d="M604.5,412.946v0.032"/>
	<path fill="none" stroke="#CCCCCC" stroke-miterlimit="10" stroke-dasharray="4,4" d="M604.5,395.5v18.604"/>
	<path fill="none" stroke="#CCCCCC" stroke-miterlimit="10" stroke-dasharray="4,4" d="M604.5,414.924v0.034"/>
</g>
<g>
	<path fill="none" stroke="#CCCCCC" stroke-miterlimit="10" stroke-dasharray="4,4" d="M280.5,628.946v0.031"/>
	<path fill="none" stroke="#CCCCCC" stroke-miterlimit="10" stroke-dasharray="4,4" d="M280.5,611.5v18.604"/>
	<path fill="none" stroke="#CCCCCC" stroke-miterlimit="10" stroke-dasharray="4,4" d="M280.5,630.924v0.034"/>
</g>
<g>
	<path fill="none" stroke="#CCCCCC" stroke-miterlimit="10" stroke-dasharray="4,4" d="M361.5,628.946v0.031"/>
	<path fill="none" stroke="#CCCCCC" stroke-miterlimit="10" stroke-dasharray="4,4" d="M361.5,611.5v18.604"/>
	<path fill="none" stroke="#CCCCCC" stroke-miterlimit="10" stroke-dasharray="4,4" d="M361.5,630.924v0.034"/>
</g>
<g>
	<path fill="none" stroke="#CCCCCC" stroke-miterlimit="10" stroke-dasharray="4,4" d="M258.157,188.5h0.073"/>
	<path fill="none" stroke="#CCCCCC" stroke-miterlimit="10" stroke-dasharray="4,4" d="M220.5,188.5h40.156"/>
	<path fill="none" stroke="#CCCCCC" stroke-miterlimit="10" stroke-dasharray="4,4" d="M262.427,188.5h0.073"/>
</g>
<g>
	<path fill="none" stroke="#CCCCCC" stroke-miterlimit="10" stroke-dasharray="4,4" d="M171.129,188.5h0.05"/>
	<path fill="none" stroke="#CCCCCC" stroke-miterlimit="10" stroke-dasharray="4,4" d="M145.5,188.5h27.331"/>
	<path fill="none" stroke="#CCCCCC" stroke-miterlimit="10" stroke-dasharray="4,4" d="M174.036,188.5h0.05"/>
</g>
<g>
	<path fill="none" stroke="#CCCCCC" stroke-miterlimit="10" stroke-dasharray="4,4" d="M265.609,251.5h0.251"/>
	<path fill="none" stroke="#CCCCCC" stroke-miterlimit="10" stroke-dasharray="4,4" d="M136.5,251.5h137.679"/>
	<path fill="none" stroke="#CCCCCC" stroke-miterlimit="10" stroke-dasharray="4,4" d="M280.25,251.5h0.25"/>
</g>
<g>
	<path fill="none" stroke="#CCCCCC" stroke-miterlimit="10" stroke-dasharray="4,4" d="M280.5,250.569v0.016"/>
	<path fill="none" stroke="#CCCCCC" stroke-miterlimit="10" stroke-dasharray="4,4" d="M280.5,242.5v8.605"/>
	<path fill="none" stroke="#CCCCCC" stroke-miterlimit="10" stroke-dasharray="4,4" d="M280.5,251.484v0.016"/>
</g>
<g>
	<path fill="none" stroke="#CCCCCC" stroke-miterlimit="10" stroke-dasharray="4,4" d="M136.5,250.569v0.016"/>
	<path fill="none" stroke="#CCCCCC" stroke-miterlimit="10" stroke-dasharray="4,4" d="M136.5,242.5v8.605"/>
	<path fill="none" stroke="#CCCCCC" stroke-miterlimit="10" stroke-dasharray="4,4" d="M136.5,251.484v0.016"/>
</g>
<g>
	<path fill="none" stroke="#CCCCCC" stroke-miterlimit="10" stroke-dasharray="4,4" d="M99.383,188.5h0.068"/>
	<path fill="none" stroke="#CCCCCC" stroke-miterlimit="10" stroke-dasharray="4,4" d="M64.5,188.5h37.198"/>
	<path fill="none" stroke="#CCCCCC" stroke-miterlimit="10" stroke-dasharray="4,4" d="M103.338,188.5h0.068"/>
</g>
<g>
	<path fill="none" stroke="#CCCCCC" stroke-miterlimit="10" stroke-dasharray="4,4" d="M409.926,260.5h0.549"/>
	<path fill="none" stroke="#CCCCCC" stroke-miterlimit="10" stroke-dasharray="4,4" d="M127.5,260.5h315"/>
	<path fill="none" stroke="#CCCCCC" stroke-miterlimit="10" stroke-dasharray="4,4" d="M441.954,260.5h0.546"/>
</g>
<g>
	<path fill="none" stroke="#CCCCCC" stroke-miterlimit="10" stroke-dasharray="4,4" d="M127.5,258.639v0.031"/>
	<path fill="none" stroke="#CCCCCC" stroke-miterlimit="10" stroke-dasharray="4,4" d="M127.5,242.5v17.21"/>
	<path fill="none" stroke="#CCCCCC" stroke-miterlimit="10" stroke-dasharray="4,4" d="M127.5,260.469v0.031"/>
</g>
<g>
	<path fill="none" stroke="#CCCCCC" stroke-miterlimit="10" stroke-dasharray="4,4" d="M442.5,258.639v0.031"/>
	<path fill="none" stroke="#CCCCCC" stroke-miterlimit="10" stroke-dasharray="4,4" d="M442.5,242.5v17.21"/>
	<path fill="none" stroke="#CCCCCC" stroke-miterlimit="10" stroke-dasharray="4,4" d="M442.5,260.469v0.031"/>
</g>
<g>
	<path fill="none" stroke="#CCCCCC" stroke-miterlimit="10" stroke-dasharray="4,4" d="M263.748,269.5h0.282"/>
	<path fill="none" stroke="#CCCCCC" stroke-miterlimit="10" stroke-dasharray="4,4" d="M118.5,269.5h162"/>
	<path fill="none" stroke="#CCCCCC" stroke-miterlimit="10" stroke-dasharray="4,4" d="M280.219,269.5h0.281"/>
</g>
<g>
	<path fill="none" stroke="#CCCCCC" stroke-miterlimit="10" stroke-dasharray="4,4" d="M118.5,269.169v0.052"/>
	<path fill="none" stroke="#CCCCCC" stroke-miterlimit="10" stroke-dasharray="4,4" d="M118.5,242.5v28.439"/>
	<path fill="none" stroke="#CCCCCC" stroke-miterlimit="10" stroke-dasharray="4,4" d="M118.5,272.193v0.052"/>
</g>
<g>
	<path fill="none" stroke="#CCCCCC" stroke-miterlimit="10" stroke-dasharray="4,4" d="M280.5,317.916v0.094"/>
	<path fill="none" stroke="#CCCCCC" stroke-miterlimit="10" stroke-dasharray="4,4" d="M280.5,269.5v51.63"/>
	<path fill="none" stroke="#CCCCCC" stroke-miterlimit="10" stroke-dasharray="4,4" d="M280.5,323.406v0.094"/>
</g>
<g>
	<path fill="none" stroke="#CCCCCC" stroke-miterlimit="10" stroke-dasharray="4,4" d="M280.5,403.569v0.016"/>
	<path fill="none" stroke="#CCCCCC" stroke-miterlimit="10" stroke-dasharray="4,4" d="M280.5,395.5v8.605"/>
	<path fill="none" stroke="#CCCCCC" stroke-miterlimit="10" stroke-dasharray="4,4" d="M280.5,404.484v0.016"/>
</g>
<g>
	<path fill="none" stroke="#CCCCCC" stroke-miterlimit="10" stroke-dasharray="4,4" d="M273.306,404.5h0.126"/>
	<path fill="none" stroke="#CCCCCC" stroke-miterlimit="10" stroke-dasharray="4,4" d="M208.5,404.5h72.281"/>
	<path fill="none" stroke="#CCCCCC" stroke-miterlimit="10" stroke-dasharray="4,4" d="M280.655,404.5h0.125"/>
</g>
<g>
	<path fill="none" stroke="#CCCCCC" stroke-miterlimit="10" stroke-dasharray="4,4" d="M199.5,534.847v0.077"/>
	<path fill="none" stroke="#CCCCCC" stroke-miterlimit="10" stroke-dasharray="4,4" d="M199.5,494.5v43.024"/>
	<path fill="none" stroke="#CCCCCC" stroke-miterlimit="10" stroke-dasharray="4,4" d="M199.5,539.421v0.079"/>
</g>
<path fill="#354A5D" d="M28.5,756.166v9.334l12,8v-9.334L28.5,756.166L28.5,756.166z"/>
<path fill="#3382B6" d="M52.5,756.166v9.334l-12,8v-9.334L52.5,756.166L52.5,756.166z"/>
<path fill="#3F9BD7" d="M36.5,750.833l-8,5.333l12,8l12-8l-8-5.333H36.5z"/>
<path fill="#3382B6" d="M33.834,753.5v2.666c0,2.21,2.984,4,6.666,4c3.688,0,6.666-1.79,6.666-4V753.5H33.834L33.834,753.5z"/>
<path fill="#354A5D" d="M33.834,753.5v2.666c0,2.21,2.984,4,6.666,4V753.5H33.834z"/>
<path fill="#3F9BD7" d="M47.166,753.5c0,2.21-2.979,4-6.666,4c-3.682,0-6.666-1.79-6.666-4s2.984-4,6.666-4
	C44.183,749.5,47.166,751.29,47.166,753.5z"/>
<text transform="matrix(1 0 0 1 28.5 737.5)" fill="#96A5A6" font-family="'Helvetica'" font-size="12">Legend</text>
<text transform="matrix(1 0 0 1 28.5 791.5)" font-family="'Helvetica'" font-size="12">PHP</text>
<text transform="matrix(1 0 0 1 28.5 805.9004)" font-family="'Helvetica'" font-size="12">application</text>
<text transform="matrix(1 0 0 1 109.5 791.5)" font-family="'Helvetica'" font-size="12">Java</text>
<text transform="matrix(1 0 0 1 109.5 805.8994)" font-family="'Helvetica'" font-size="12">application</text>
<path fill="#E67E22" d="M109.5,756.168v9.332l12,8v-9.334L109.5,756.168L109.5,756.168z"/>
<path fill="#F39C12" d="M133.501,756.168v9.332l-12,8v-9.334L133.501,756.168L133.501,756.168z"/>
<path fill="#F1C40F" d="M117.5,750.832l-8,5.341l12,7.992l12-7.992l-8-5.335h-8V750.832z"/>
<path fill="#F39C12" d="M114.833,753.5v2.673c0,2.21,2.985,4,6.667,4s6.666-1.79,6.666-4V753.5H114.833z"/>
<path fill="#E67E22" d="M114.833,753.5v2.673c0,2.21,2.985,4,6.667,4V753.5H114.833z"/>
<path fill="#F1C40F" d="M128.166,753.5c0,2.215-2.984,4-6.666,4s-6.666-1.785-6.666-4c0-2.21,2.986-4,6.67-4s6.665,1.79,6.665,4
	H128.166L128.166,753.5z"/>
<path fill="#95A5A6" d="M190.504,763.763v4.187c-0.01,0.021,0,0.05,0,0.07c0,3.021,4.896,5.479,10.943,5.479
	c6.047,0,10.947-2.45,10.947-5.479v-4.261L190.504,763.763L190.504,763.763L190.504,763.763z"/>
<path fill="#BDC3C7" d="M212.398,763.763c0,2.688-4.902,4.864-10.949,4.864c-6.049,0-10.942-2.178-10.942-4.865
	c0-2.687,4.896-4.867,10.942-4.867c6.046,0,10.95,2.184,10.95,4.864L212.398,763.763L212.398,763.763z"/>
<path fill="#7F8C8D" d="M190.578,768.02c-0.057,0.2-0.071,0.4-0.071,0.607c0,2.688,4.896,4.865,10.942,4.865
	c6.046,0,10.95-2.188,10.95-4.868c0-0.207-0.022-0.408-0.077-0.607c-0.674,2.398-5.289,4.267-10.873,4.267
	c-5.582,0-10.197-1.86-10.869-4.267L190.578,768.02L190.578,768.02z"/>
<path fill="#95A5A6" d="M190.504,757.68v4.188c-0.01,0.02,0,0.05,0,0.066c0,3.022,4.896,5.479,10.943,5.479
	c6.047,0,10.947-2.452,10.947-5.48v-4.256L190.504,757.68L190.504,757.68z"/>
<path fill="#BDC3C7" d="M212.398,757.68c0,2.688-4.902,4.865-10.949,4.865c-6.049,0-10.942-2.178-10.942-4.865
	c0-2.687,4.896-4.862,10.942-4.862C207.495,752.816,212.399,754.992,212.398,757.68L212.398,757.68z"/>
<path fill="#7F8C8D" d="M190.578,761.936c-0.057,0.2-0.071,0.402-0.071,0.61c0,2.688,4.896,4.864,10.942,4.864
	c6.046,0,10.95-2.187,10.95-4.865c0-0.207-0.022-0.408-0.077-0.609c-0.674,2.399-5.289,4.266-10.873,4.266
	C195.867,766.195,191.252,764.338,190.578,761.936L190.578,761.936z"/>
<path fill="#95A5A6" d="M190.504,751.598v4.187c-0.01,0.021,0,0.05,0,0.072c0,3.021,4.896,5.479,10.943,5.479
	c6.047,0,10.947-2.45,10.947-5.479v-4.26L190.504,751.598L190.504,751.598z"/>
<path fill="#7F8C8D" d="M190.578,755.854c-0.057,0.201-0.071,0.402-0.071,0.609c0,2.688,4.896,4.865,10.942,4.865
	c6.046,0,10.95-2.187,10.95-4.865c0-0.207-0.022-0.41-0.077-0.609c-0.674,2.399-5.289,4.266-10.873,4.266
	C195.867,760.113,191.252,758.256,190.578,755.854L190.578,755.854z"/>
<path fill="#BDC3C7" d="M201.449,763.763v9.73c6.047,0,10.95-2.45,10.95-5.479v-4.258L201.449,763.763L201.449,763.763z"/>
<path fill="#ECF0F1" d="M201.449,758.896v9.73c6.047,0,10.95-2.18,10.95-4.867c0-2.687-4.903-4.868-10.95-4.868V758.896
	L201.449,758.896z"/>
<path fill="#BDC3C7" d="M201.449,757.68v9.732c6.047,0,10.95-2.454,10.95-5.48v-4.26l-10.95,0.004V757.68L201.449,757.68z"/>
<path fill="#95A5A6" d="M212.322,761.936c-0.674,2.4-5.289,4.267-10.873,4.267v1.218c6.047,0,10.95-2.18,10.95-4.866
	c0-0.207-0.02-0.41-0.077-0.605V761.936z"/>
<path fill="#ECF0F1" d="M201.449,752.814v9.729c6.047,0,10.95-2.18,10.95-4.868C212.399,754.992,207.496,752.814,201.449,752.814
	L201.449,752.814z"/>
<path fill="#BDC3C7" d="M201.449,751.598v9.732c6.047,0,10.95-2.45,10.95-5.479v-4.258L201.449,751.598L201.449,751.598z"/>
<path fill="#95A5A6" d="M212.322,755.854c-0.674,2.399-5.289,4.266-10.873,4.266v1.22c6.047,0,10.95-2.18,10.95-4.868
	C212.399,756.26,212.379,756.057,212.322,755.854z M212.322,768.02c-0.674,2.398-5.289,4.267-10.873,4.267v1.216
	c6.047,0,10.95-2.182,10.95-4.865C212.399,768.421,212.379,768.221,212.322,768.02L212.322,768.02z"/>
<path fill="#BDC3C7" d="M212.398,751.598c0,2.688-4.902,4.865-10.949,4.865c-6.049,0-10.942-2.178-10.942-4.865
	c0-2.687,4.896-4.862,10.942-4.862C207.495,746.734,212.399,748.911,212.398,751.598L212.398,751.598z"/>
<text transform="matrix(1 0 0 1 190.5 791.5)" font-family="'Helvetica'" font-size="12">MySQL</text>
<text transform="matrix(1 0 0 1 190.5 805.8994)" font-family="'Helvetica'" font-size="12">database</text>
<text transform="matrix(1 0 0 1 433.5 791.5)" font-family="'Helvetica'" font-size="12">Static</text>
<text transform="matrix(1 0 0 1 433.5 805.9004)" font-family="'Helvetica'" font-size="12">files</text>
<path fill="#8E44AD" d="M435.5,751.5c-1.104,0-2,0.896-2,2v18c0,1.104,0.896,2,2,2h14c1.104,0,2-0.896,2-2v-14l-6-6H435.5z"/>
<path fill="#9B59B6" d="M435.5,750.5c-1.104,0-2,0.896-2,2v18c0,1.104,0.896,2,2,2h14c1.104,0,2-0.896,2-2v-14l-6-6H435.5z"/>
<path fill="#8E44AD" d="M451.5,756.5l-6-6v4c0,1.104,0.896,2,2,2H451.5z"/>
<path fill="#ECF0F1" d="M354.5,752.5l-2,5h20l-2-5H354.5z"/>
<path fill="#1ABC9C" d="M359.5,757.5h6l-1-5h-4L359.5,757.5z"/>
<path fill="none" d="M352.5,756.5h20l-2,13h-17L352.5,756.5z"/>
<path fill="#BDC3C7" d="M352.5,757.5h20v16h-20V757.5z"/>
<path fill="#ECF0F1" d="M355.5,767.5c-0.553,0-1,0.447-1,1v2c0,0.553,0.447,1,1,1h6c0.553,0,1-0.447,1-1v-2c0-0.553-0.447-1-1-1
	H355.5z"/>
<path fill="#16A085" d="M359.5,757.5v7l1-1l1,1l1-1l1,1l1-1l1,1v-7H359.5z"/>
<path fill="#95A5A6" d="M355.5,768.5h1v2h-1V768.5z M357.5,768.5h1v2h-1V768.5z M359.5,768.5h1v2h-1V768.5z"/>
<path fill="#7F8C8D" d="M360.5,768.5h1v2h-1V768.5z"/>
<path fill="#BDC3C7" d="M358.5,768.5h1v2h-1V768.5z"/>
<text transform="matrix(1 0 0 1 352.5 791.5)" font-family="'Helvetica'" font-size="12">Subversion</text>
<text transform="matrix(1 0 0 1 352.5 805.9004)" font-family="'Helvetica'" font-size="12">repository</text>
<text transform="matrix(1 0 0 1 271.5 791.5)" font-family="'Helvetica'" font-size="12">RabbitMQ</text>
<text transform="matrix(1 0 0 1 271.5 805.9004)" font-family="'Helvetica'" font-size="12">queue</text>
<g id="layer1_1_" transform="translate(0,-1028.3622)">
	<path id="path3031-3_1_" fill="#F39C12" d="M291.5,1783.862l2,10h-2V1783.862z"/>
	<path id="path3031_1_" fill="#F39C12" d="M273.5,1783.862l-2,10h2V1783.862z"/>
	<path id="path3031-8_1_" fill="#E67E22" d="M273.5,1786.862l-2,14h2h18h2l-2-14H273.5z"/>
	<path id="rect3011_1_" fill="#F1C40F" d="M271.5,1793.862v7h22v-7h-8.188c-0.416,1.158-1.512,2-2.812,2
		c-1.301,0-2.397-0.842-2.812-2H271.5z"/>
	<rect id="rect3011-4_1_" x="273.5" y="1783.862" fill="#F39C12" width="18" height="3"/>
	<rect id="rect3096_1_" x="271.5" y="1800.862" fill="#F39C12" width="22" height="1"/>
</g>
<g>
	<path fill="none" stroke="#CCCCCC" stroke-miterlimit="10" stroke-dasharray="4,4" d="M208.5,412.569v0.016"/>
	<path fill="none" stroke="#CCCCCC" stroke-miterlimit="10" stroke-dasharray="4,4" d="M208.5,404.5v8.605"/>
	<path fill="none" stroke="#CCCCCC" stroke-miterlimit="10" stroke-dasharray="4,4" d="M208.5,413.484v0.016"/>
</g>
<g>
	<path fill="none" stroke="#CCCCCC" stroke-miterlimit="10" stroke-dasharray="4,4" d="M289.5,524.612v0.231"/>
	<path fill="none" stroke="#CCCCCC" stroke-miterlimit="10" stroke-dasharray="4,4" d="M289.5,395.5v137.675"/>
	<path fill="none" stroke="#CCCCCC" stroke-miterlimit="10" stroke-dasharray="4,4" d="M289.5,539.247v0.253"/>
</g>
</svg>
