<?xml version="1.0" encoding="utf-8"?>
<!-- Generator: Adobe Illustrator 16.0.4, SVG Export Plug-In . SVG Version: 6.00 Build 0)  -->
<!DOCTYPE svg PUBLIC "-//W3C//DTD SVG 1.1//EN" "http://www.w3.org/Graphics/SVG/1.1/DTD/svg11.dtd">
<svg version="1.1" id="Layer_1" xmlns="http://www.w3.org/2000/svg" xmlns:xlink="http://www.w3.org/1999/xlink" x="0px" y="0px"
	 width="783px" height="558.625px" viewBox="0 0 783 558.625" enable-background="new 0 0 783 558.625" xml:space="preserve">
<path fill="none" stroke="#BDC3C7" stroke-miterlimit="10" d="M7.094,9.625h765v540h-765C7.094,549.625,7.094,9.625,7.094,9.625z"/>
<text transform="matrix(1 0 0 1 16.0938 27.625)" font-family="'Helvetica'" font-size="12">worldskills-playbook</text>
<text transform="matrix(1 0 0 1 61.0938 462.8125)" font-family="'Helvetica'" font-size="12">Inventory prod</text>
<g transform="translate(0 -1028.4)">
	<path fill="#16A085" d="M25.094,1489.213v2v1v3v1v5v1c0,1.105,0.896,2,2,2h14c1.105,0,2-0.895,2-2v-1v-5v-4v-3H25.094z"/>
	<path fill="#ECF0F1" d="M25.094,1488.213v2v1v3v1v5v1c0,1.1,0.896,2,2,2h14c1.105,0,2-0.9,2-2v-1v-5v-4v-3H25.094z"/>
	<path fill="#BDC3C7" d="M25.094,1487.213v2v1v3v1v5v1c0,1.1,0.896,2,2,2h14c1.105,0,2-0.9,2-2v-1v-5v-4v-3H25.094z"/>
	<path fill="#ECF0F1" d="M25.094,1486.213v2v1v3v1v5v1c0,1.1,0.896,2,2,2h14c1.105,0,2-0.9,2-2v-1v-5v-4v-3H25.094z"/>
	<path fill="#16A085" d="M27.094,1482.213c-1.104,0-2,0.896-2,2v1v4v2v1v3v1v5v1c0,1.105,0.896,2,2,2h2v-1h-1.5
		c-0.829,0-1.5-0.672-1.5-1.5s0.671-1.5,1.5-1.5h12.5h1c1.105,0,2-0.895,2-2v-1v-5v-4v-3v-1c0-1.104-0.895-2-2-2h-4H27.094z"/>
	<path fill="#1ABC9C" d="M30.094,1482.213v18h1h9h1c1.105,0,2-0.895,2-2v-1v-5v-4v-3v-1c0-1.104-0.895-2-2-2h-4h-6H30.094z"/>
</g>
<text transform="matrix(1 0 0 1 250.0938 462.8125)" font-family="'Helvetica'" font-size="12">Inventory staging</text>
<g transform="translate(0 -1028.4)">
	<path fill="#16A085" d="M214.094,1489.213v2v1v3v1v5v1c0,1.105,0.896,2,2,2h14c1.105,0,2-0.895,2-2v-1v-5v-4v-3H214.094z"/>
	<path fill="#ECF0F1" d="M214.094,1488.213v2v1v3v1v5v1c0,1.1,0.896,2,2,2h14c1.105,0,2-0.9,2-2v-1v-5v-4v-3H214.094z"/>
	<path fill="#BDC3C7" d="M214.094,1487.213v2v1v3v1v5v1c0,1.1,0.896,2,2,2h14c1.105,0,2-0.9,2-2v-1v-5v-4v-3H214.094z"/>
	<path fill="#ECF0F1" d="M214.094,1486.213v2v1v3v1v5v1c0,1.1,0.896,2,2,2h14c1.105,0,2-0.9,2-2v-1v-5v-4v-3H214.094z"/>
	<path fill="#16A085" d="M216.094,1482.213c-1.104,0-2,0.896-2,2v1v4v2v1v3v1v5v1c0,1.105,0.896,2,2,2h2v-1h-1.5
		c-0.828,0-1.5-0.672-1.5-1.5s0.672-1.5,1.5-1.5h12.5h1c1.105,0,2-0.895,2-2v-1v-5v-4v-3v-1c0-1.104-0.895-2-2-2h-4H216.094z"/>
	<path fill="#1ABC9C" d="M219.094,1482.213v18h1h9h1c1.105,0,2-0.895,2-2v-1v-5v-4v-3v-1c0-1.104-0.895-2-2-2h-4h-6H219.094z"/>
</g>
<text transform="matrix(1 0 0 1 61.0938 66.8125)" font-family="'Helvetica'" font-size="12">Role common</text>
<g transform="translate(0 -1028.4)">
	<path fill="#16A085" d="M32.256,1087.127c-1.714-0.2-3.283,1.899-2.357,3.5c1.008,0.6,1.747,2.5,0.415,3.199
		c-1.411,0.801-3.31-0.301-4.56,0.899c-1.004,1.101-0.465,2.7-0.571,4.101c-0.022,2.601-0.079,5.199,0.045,7.801
		c0.315,1.3,1.784,1.6,2.896,1.6c0.977,0,2.112-0.1,2.693-1c0.758-1.199-0.895-2-1.199-3.1c-0.538-1.602,1.068-3.102,2.616-3
		c1.503,0,3,1.5,2.487,3c-0.549,1-2.002,2.1-1.11,3.3c1.005,1,2.618,0.7,3.917,0.7c1.367-0.301,1.951-1.9,1.592-3.102
		c-0.09-1.1,0.229-2.5,1.441-2.8c1.355-0.1,2.018,1.8,3.443,1.5c1.715-0.2,2.709-2.3,1.902-3.8c-0.49-1.102-1.961-2-3.084-1.2
		c-0.824,0.7-2.158,1.9-3.18,0.7c-1.162-1.3,0.197-3.4-1.061-4.7c-1.295-1.3-3.36,0.101-4.703-1.1c-0.971-0.802-0.271-2,0.397-2.801
		c1.192-1,0.372-3.1-1.022-3.6C32.936,1087.127,32.592,1087.127,32.256,1087.127z"/>
	<path fill="#1ABC9C" d="M32.217,1086.226c-1.713-0.2-3.282,1.9-2.357,3.4c1.009,0.699,1.748,2.5,0.416,3.3
		c-1.411,0.8-3.309-0.399-4.56,0.899c-1.003,1.101-0.464,2.699-0.571,4.101c-0.021,2.601-0.079,5.2,0.045,7.8
		c0.316,1.301,1.785,1.5,2.896,1.5c0.976,0.101,2.111,0,2.691-0.899c0.759-1.3-0.894-2.101-1.199-3.101
		c-0.537-1.6,1.07-3.199,2.617-3.1c1.504,0,3,1.6,2.488,3.1c-0.549,1-2.002,2-1.111,3.2c1.004,1.101,2.617,0.8,3.918,0.7
		c1.367-0.301,1.951-1.801,1.59-3.102c-0.088-1,0.23-2.5,1.443-2.699c1.354-0.1,2.016,1.801,3.443,1.5
		c1.713-0.199,2.707-2.301,1.9-3.801c-0.49-1.1-1.959-2-3.084-1.3c-0.822,0.8-2.156,2-3.178,0.8c-1.162-1.398,0.197-3.398-1.062-4.8
		c-1.295-1.3-3.359,0.101-4.701-1c-0.971-0.8-0.271-2.1,0.396-2.8c1.192-1.101,0.372-3.101-1.021-3.601
		C32.898,1086.226,32.553,1086.226,32.217,1086.226z"/>
</g>
<text transform="matrix(1 0 0 1 250.0938 66.8125)" font-family="'Helvetica'" font-size="12">Role servers</text>
<g transform="translate(0 -1028.4)">
	<path fill="#16A085" d="M221.256,1087.127c-1.714-0.201-3.283,1.898-2.357,3.5c1.008,0.6,1.747,2.5,0.415,3.199
		c-1.411,0.801-3.31-0.301-4.56,0.899c-1.004,1.101-0.465,2.699-0.571,4.101c-0.022,2.6-0.079,5.199,0.045,7.801
		c0.315,1.299,1.784,1.6,2.896,1.6c0.977,0,2.112-0.1,2.693-1c0.758-1.201-0.895-2-1.199-3.1c-0.538-1.602,1.068-3.102,2.616-3
		c1.503,0,3,1.5,2.487,3c-0.549,1-2.002,2.1-1.11,3.299c1.005,1,2.618,0.701,3.917,0.701c1.367-0.301,1.951-1.9,1.592-3.102
		c-0.09-1.101,0.229-2.5,1.441-2.8c1.355-0.1,2.018,1.8,3.443,1.5c1.715-0.2,2.709-2.301,1.902-3.801
		c-0.49-1.101-1.961-2-3.084-1.199c-0.824,0.699-2.158,1.9-3.18,0.699c-1.162-1.299,0.197-3.399-1.061-4.699
		c-1.295-1.301-3.36,0.101-4.703-1.1c-0.971-0.802-0.271-2,0.397-2.801c1.192-1,0.372-3.1-1.022-3.6
		C221.936,1087.127,221.592,1087.127,221.256,1087.127z"/>
	<path fill="#1ABC9C" d="M221.217,1086.226c-1.713-0.201-3.282,1.9-2.357,3.4c1.009,0.699,1.748,2.5,0.416,3.299
		c-1.411,0.801-3.309-0.4-4.56,0.9c-1.003,1.1-0.464,2.699-0.571,4.1c-0.021,2.6-0.079,5.201,0.045,7.801
		c0.316,1.301,1.785,1.5,2.896,1.5c0.976,0.1,2.111,0,2.691-0.9c0.759-1.301-0.894-2.1-1.199-3.1c-0.537-1.6,1.07-3.199,2.617-3.1
		c1.504,0,3,1.6,2.488,3.1c-0.549,1-2.002,2-1.111,3.199c1.004,1.1,2.617,0.801,3.918,0.701c1.367-0.301,1.951-1.801,1.59-3.102
		c-0.088-1,0.23-2.5,1.443-2.699c1.354-0.101,2.016,1.801,3.443,1.5c1.713-0.199,2.707-2.301,1.9-3.801
		c-0.49-1.101-1.959-2-3.084-1.3c-0.822,0.8-2.156,2-3.178,0.8c-1.162-1.398,0.197-3.398-1.062-4.8
		c-1.295-1.301-3.359,0.101-4.701-1c-0.971-0.801-0.271-2.1,0.396-2.801c1.192-1.1,0.372-3.1-1.021-3.6
		C221.898,1086.226,221.553,1086.226,221.217,1086.226z"/>
</g>
<text transform="matrix(1 0 0 1 439.0938 66.8125)" font-family="'Helvetica'" font-size="12">Role apache</text>
<g transform="translate(0 -1028.4)">
	<path fill="#16A085" d="M410.256,1087.127c-1.714-0.201-3.283,1.898-2.357,3.5c1.01,0.6,1.748,2.5,0.416,3.199
		c-1.412,0.801-3.311-0.301-4.561,0.899c-1.004,1.101-0.465,2.699-0.57,4.101c-0.021,2.6-0.08,5.199,0.045,7.801
		c0.314,1.299,1.783,1.6,2.896,1.6c0.979,0,2.111-0.1,2.691-1c0.759-1.201-0.896-2-1.198-3.1c-0.537-1.602,1.067-3.102,2.616-3
		c1.502,0,3,1.5,2.485,3c-0.549,1-2.002,2.1-1.108,3.299c1.005,1,2.617,0.701,3.916,0.701c1.367-0.301,1.951-1.9,1.595-3.102
		c-0.093-1.101,0.229-2.5,1.438-2.8c1.354-0.1,2.021,1.8,3.442,1.5c1.715-0.2,2.709-2.301,1.902-3.801
		c-0.49-1.101-1.963-2-3.085-1.199c-0.823,0.699-2.157,1.9-3.183,0.699c-1.161-1.299,0.197-3.399-1.061-4.699
		c-1.296-1.301-3.36,0.101-4.703-1.1c-0.972-0.802-0.271-2,0.396-2.801c1.191-1,0.371-3.1-1.021-3.6
		C410.936,1087.127,410.592,1087.127,410.256,1087.127z"/>
	<path fill="#1ABC9C" d="M410.217,1086.226c-1.713-0.201-3.281,1.9-2.357,3.4c1.012,0.699,1.748,2.5,0.416,3.299
		c-1.408,0.801-3.309-0.4-4.56,0.9c-1.003,1.1-0.464,2.699-0.571,4.1c-0.021,2.6-0.078,5.201,0.045,7.801
		c0.316,1.301,1.785,1.5,2.896,1.5c0.977,0.1,2.111,0,2.691-0.9c0.758-1.301-0.896-2.1-1.199-3.1c-0.537-1.6,1.068-3.199,2.617-3.1
		c1.504,0,3,1.6,2.486,3.1c-0.55,1-2.002,2-1.109,3.199c1.004,1.1,2.615,0.801,3.918,0.701c1.365-0.301,1.949-1.801,1.59-3.102
		c-0.088-1,0.229-2.5,1.441-2.699c1.354-0.101,2.018,1.801,3.441,1.5c1.713-0.199,2.707-2.301,1.898-3.801
		c-0.488-1.101-1.959-2-3.086-1.3c-0.818,0.8-2.152,2-3.178,0.8c-1.162-1.398,0.197-3.398-1.062-4.8
		c-1.296-1.301-3.359,0.101-4.701-1c-0.972-0.801-0.271-2.1,0.396-2.801c1.192-1.1,0.373-3.1-1.021-3.6
		C410.896,1086.226,410.553,1086.226,410.217,1086.226z"/>
</g>
<text transform="matrix(1 0 0 1 88.0938 498.8125)" font-family="'Helvetica'" font-size="12">Variables</text>
<g>
	<path fill="#7F8C8D" d="M56.19,489.912v1l3.906,3.9l-1,3l-3,1l-3.906-3.9c-0.055,0.301-0.094,0.5-0.094,0.9c0,0-0.004,0.1,0,0.2
		c-0.004,0.1,0,0.2,0,0.3c0,3,2.463,5.5,5.5,5.5c0.46,0,0.887-0.1,1.312-0.2l2.154,2.101l4.03,4.103l3,3c0.508,0.5,1.215,0.8,2,0.8
		c1.542,0,2.781-1.197,2.781-2.8c0-0.8-0.297-1.5-0.779-2l-0.032-0.103l-2.97-2.897l-4.03-4.103l-2.154-2.101
		c0.104-0.5,0.188-0.899,0.188-1.3c0-3.1-2.462-5.5-5.5-5.5H57.19v-0.9H56.19z M70.096,507.312c0.828,0,1.5,0.6,1.5,1.5
		c0,0.8-0.672,1.5-1.5,1.5c-0.828,0-1.5-0.7-1.5-1.5C68.596,507.912,69.268,507.312,70.096,507.312z"/>
	<path fill="#95A5A6" d="M57.096,489.812c-0.312,0-0.609,0-0.906,0.1l3.906,3.9l-1,3l-3,1l-3.906-3.9
		c-0.055,0.301-0.094,0.5-0.094,0.9c0,0-0.004,0.1,0,0.2c-0.004,0.1,0,0.2,0,0.3c0,3,2.463,5.5,5.5,5.5c0.46,0,0.887-0.1,1.312-0.2
		l2.154,2.101l4.03,4.103l3,3c0.508,0.5,1.215,0.8,2,0.8c1.542,0,2.781-1.197,2.781-2.8c0-0.8-0.297-1.5-0.779-2l-0.032-0.103
		l-2.97-2.897l-4.03-4.103l-2.154-2.101c0.104-0.5,0.188-0.899,0.188-1.3c0-3.1-2.462-5.5-5.5-5.5H57.096z M70.096,506.312
		c0.828,0,1.5,0.6,1.5,1.5c0,0.8-0.672,1.5-1.5,1.5c-0.828,0-1.5-0.7-1.5-1.5C68.596,506.912,69.268,506.312,70.096,506.312z"/>
	<path fill="#7F8C8D" d="M62.096,498.812l-1.97,1.9l-0.03,0.1c0.008,0-0.006,0,0,0c0,0-0.003,0,0,0.1c0.076,0.2,0.062,0.5,0,0.9
		l0.97,0.9l2.03,2.1c0.365-0.1,0.72-0.1,1,0l2-2l-0.5-0.5l-1-1l1.5-1.5l-1-1l-1.5,1.5L62.096,498.812z"/>
	<path fill="#BDC3C7" d="M62.596,500.312l1,1l9-9l-1-1L62.596,500.312z"/>
	<path fill="#95A5A6" d="M72.096,491.812l-9,9l0.5,0.5l9-9L72.096,491.812z"/>
	<path fill="#95A5A6" d="M73.096,489.812l-2.5,1.5l2,2l1.5-2.5L73.096,489.812z"/>
	<g>
		<path fill="#F39C12" d="M62.096,497.812l-2,2c0.338,0.8-0.416,2.4-1,3c-0.584,0.5-2.116,1.3-3,1l-4,4l4,4l4-4
			c-0.338-0.9,0.416-2.5,1-3c0.584-0.6,2.116-1.4,3-1l2-2L62.096,497.812z"/>
		<path fill="#F1C40F" d="M62.096,497.812l-2,2c0.338,0.8-0.416,2.4-1,3c-0.584,0.5-2.116,1.3-3,1l-4,4l2,2l10-10L62.096,497.812z"
			/>
		<path fill="#E67E22" d="M60.126,499.713l-0.03,0.1c0.012,0-0.01,0,0,0.1C60.106,499.812,60.119,499.812,60.126,499.713z
			 M65.596,501.312l-1.5,1.5c-0.884-0.4-2.416,0.4-3,1c-0.564,0.5-1.258,2-1,2.9c0.176-0.801,0.62-1.604,1-1.9
			c0.584-0.6,2.116-1.4,3-1l2-2L65.596,501.312z M60.066,506.812l-3.97,4l-3.5-3.5l-0.5,0.5l4,4l4-4
			C59.991,507.513,59.996,507.112,60.066,506.812z"/>
	</g>
</g>
<path fill="#95A5A6" d="M54.094,103.812c-1.104,0-2,0.9-2,2v18c0,1.1,0.896,2,2,2h14c1.105,0,2-0.9,2-2v-14l-6-6H54.094z"/>
<path fill="#BDC3C7" d="M54.094,102.812c-1.104,0-2,0.9-2,2v18c0,1.1,0.896,2,2,2h14c1.105,0,2-0.9,2-2v-14l-6-6H54.094z"/>
<path fill="#95A5A6" d="M70.094,108.812l-6-6v4c0,1.1,0.896,2,2,2H70.094z"/>
<text transform="matrix(1 0 0 1 88.0938 111.8125)" font-family="'Helvetica'" font-size="12">Public keys</text>
<path fill="#2C3E50" d="M54.094,147.812c-1.104,0-2,0.9-2,2v16c0,1.1,0.896,2,2,2h18c1.105,0,2-0.9,2-2v-16c0-1.1-0.895-2-2-2
	H54.094z"/>
<path fill="#34495E" d="M54.094,147.812c-1.104,0-2,0.896-2,2v15c0,1.105,0.896,2,2,2h18c1.105,0,2-0.895,2-2v-15
	c0-1.104-0.895-2-2-2H54.094z"/>
<path fill="#ECF0F1" d="M55.094,150.938v1.125l3,1.75l-3,1.75v1.125l5-2.875L55.094,150.938z M60.094,155.812v1h5v-1H60.094z"/>
<text transform="matrix(1 0 0 1 88.0938 156.8125)" font-family="'Helvetica'" font-size="12">Setup</text>
<text transform="matrix(1 0 0 1 277.0938 111.8125)" font-family="'Helvetica'" font-size="12">List of servers</text>
<path fill="#2C3E50" d="M243.094,147.812c-1.104,0-2,0.9-2,2v16c0,1.1,0.896,2,2,2h18c1.105,0,2-0.9,2-2v-16c0-1.1-0.895-2-2-2
	H243.094z"/>
<path fill="#34495E" d="M243.094,147.812c-1.104,0-2,0.896-2,2v15c0,1.105,0.896,2,2,2h18c1.105,0,2-0.895,2-2v-15
	c0-1.104-0.895-2-2-2H243.094z"/>
<path fill="#ECF0F1" d="M244.094,150.938v1.125l3,1.75l-3,1.75v1.125l5-2.875L244.094,150.938z M249.094,155.812v1h5v-1H249.094z"/>
<text transform="matrix(1 0 0 1 277.0938 156.8125)" font-family="'Helvetica'" font-size="12">Server creation</text>
<path fill="#2C3E50" d="M243.094,192.812c-1.104,0-2,0.9-2,2v16c0,1.1,0.896,2,2,2h18c1.105,0,2-0.9,2-2v-16c0-1.1-0.895-2-2-2
	H243.094z"/>
<path fill="#34495E" d="M243.094,192.812c-1.104,0-2,0.896-2,2v15c0,1.105,0.896,2,2,2h18c1.105,0,2-0.895,2-2v-15
	c0-1.104-0.895-2-2-2H243.094z"/>
<path fill="#ECF0F1" d="M244.094,195.938v1.125l3,1.75l-3,1.75v1.125l5-2.875L244.094,195.938z M249.094,200.812v1h5v-1H249.094z"/>
<text transform="matrix(1 0 0 1 277.0938 201.8125)" font-family="'Helvetica'" font-size="12">Domain setup</text>
<path fill="none" stroke="#BDC3C7" stroke-miterlimit="10" stroke-dasharray="4,4" d="M16.094,48.812h180v180h-180
	C16.094,228.812,16.094,48.812,16.094,48.812z"/>
<g>
	<path fill="#7F8C8D" d="M245.19,102.913v1l3.906,3.9l-1,3l-3,1l-3.906-3.9c-0.055,0.301-0.094,0.5-0.094,0.9c0,0-0.004,0.1,0,0.2
		c-0.004,0.1,0,0.2,0,0.3c0,3,2.463,5.5,5.5,5.5c0.46,0,0.887-0.1,1.312-0.2l2.153,2.101l4.03,4.104l3,3
		c0.508,0.5,1.215,0.801,2,0.801c1.542,0,2.781-1.197,2.781-2.801c0-0.8-0.297-1.5-0.779-2l-0.032-0.104l-2.97-2.896l-4.03-4.104
		l-2.153-2.101c0.104-0.5,0.188-0.899,0.188-1.3c0-3.1-2.462-5.5-5.5-5.5h-0.406v-0.9H245.19z M259.096,120.312
		c0.828,0,1.5,0.6,1.5,1.5c0,0.8-0.672,1.5-1.5,1.5c-0.828,0-1.5-0.7-1.5-1.5C257.596,120.913,258.268,120.312,259.096,120.312z"/>
	<path fill="#95A5A6" d="M246.096,102.812c-0.312,0-0.609,0-0.906,0.1l3.906,3.9l-1,3l-3,1l-3.906-3.9
		c-0.055,0.301-0.094,0.5-0.094,0.9c0,0-0.004,0.1,0,0.2c-0.004,0.1,0,0.2,0,0.3c0,3,2.463,5.5,5.5,5.5c0.46,0,0.887-0.1,1.312-0.2
		l2.153,2.101l4.03,4.104l3,3c0.508,0.5,1.215,0.801,2,0.801c1.542,0,2.781-1.197,2.781-2.801c0-0.8-0.297-1.5-0.779-2l-0.032-0.104
		l-2.97-2.896l-4.03-4.104l-2.153-2.101c0.104-0.5,0.188-0.899,0.188-1.3c0-3.1-2.462-5.5-5.5-5.5H246.096z M259.096,119.312
		c0.828,0,1.5,0.6,1.5,1.5c0,0.8-0.672,1.5-1.5,1.5c-0.828,0-1.5-0.7-1.5-1.5C257.596,119.913,258.268,119.312,259.096,119.312z"/>
	<path fill="#7F8C8D" d="M251.096,111.812l-1.971,1.9l-0.029,0.1c0.008,0-0.006,0,0,0c0,0-0.003,0,0,0.1c0.076,0.2,0.062,0.5,0,0.9
		l0.971,0.9l2.029,2.1c0.365-0.1,0.721-0.1,1,0l2-2l-0.5-0.5l-1-1l1.5-1.5l-1-1l-1.5,1.5L251.096,111.812z"/>
	<path fill="#BDC3C7" d="M251.596,113.312l1,1l9-9l-1-1L251.596,113.312z"/>
	<path fill="#95A5A6" d="M261.096,104.812l-9,9l0.5,0.5l9-9L261.096,104.812z"/>
	<path fill="#95A5A6" d="M262.096,102.812l-2.5,1.5l2,2l1.5-2.5L262.096,102.812z"/>
	<g>
		<path fill="#F39C12" d="M251.096,110.812l-2,2c0.338,0.8-0.416,2.4-1,3c-0.584,0.5-2.116,1.3-3,1l-4,4l4,4l4-4
			c-0.338-0.9,0.416-2.5,1-3c0.584-0.6,2.116-1.4,3-1l2-2L251.096,110.812z"/>
		<path fill="#F1C40F" d="M251.096,110.812l-2,2c0.338,0.8-0.416,2.4-1,3c-0.584,0.5-2.116,1.3-3,1l-4,4l2,2l10-10L251.096,110.812z
			"/>
		<path fill="#E67E22" d="M249.125,112.712l-0.029,0.1c0.012,0-0.01,0,0,0.1C249.106,112.812,249.119,112.812,249.125,112.712z
			 M254.596,114.312l-1.5,1.5c-0.884-0.4-2.416,0.4-3,1c-0.564,0.5-1.258,2-1,2.9c0.176-0.801,0.62-1.604,1-1.9
			c0.584-0.6,2.116-1.4,3-1l2-2L254.596,114.312z M249.067,119.812l-3.971,4l-3.5-3.5l-0.5,0.5l4,4l4-4
			C248.99,120.513,248.996,120.112,249.067,119.812z"/>
	</g>
</g>
<text transform="matrix(1 0 0 1 466.0938 111.8125)" font-family="'Helvetica'" font-size="12">Virtual hosts</text>
<g>
	<path fill="#7F8C8D" d="M434.189,102.913v1l3.904,3.9l-1,3l-3,1l-3.904-3.9c-0.057,0.301-0.096,0.5-0.096,0.9c0,0-0.004,0.1,0,0.2
		c-0.004,0.1,0,0.2,0,0.3c0,3,2.463,5.5,5.5,5.5c0.46,0,0.889-0.1,1.312-0.2l2.149,2.101l4.03,4.104l3,3
		c0.508,0.5,1.215,0.801,2,0.801c1.542,0,2.781-1.197,2.781-2.801c0-0.8-0.297-1.5-0.779-2l-0.032-0.104l-2.97-2.896l-4.03-4.104
		l-2.149-2.101c0.104-0.5,0.188-0.899,0.188-1.3c0-3.1-2.462-5.5-5.5-5.5h-0.404v-0.9H434.189z M448.096,120.312
		c0.828,0,1.5,0.6,1.5,1.5c0,0.8-0.672,1.5-1.5,1.5s-1.5-0.7-1.5-1.5C446.596,120.913,447.268,120.312,448.096,120.312z"/>
	<path fill="#95A5A6" d="M435.096,102.812c-0.312,0-0.607,0-0.904,0.1l3.904,3.9l-1,3l-3,1l-3.904-3.9
		c-0.057,0.301-0.096,0.5-0.096,0.9c0,0-0.004,0.1,0,0.2c-0.004,0.1,0,0.2,0,0.3c0,3,2.463,5.5,5.5,5.5c0.46,0,0.889-0.1,1.312-0.2
		l2.149,2.101l4.03,4.104l3,3c0.508,0.5,1.215,0.801,2,0.801c1.542,0,2.781-1.197,2.781-2.801c0-0.8-0.297-1.5-0.779-2l-0.032-0.104
		l-2.97-2.896l-4.03-4.104l-2.149-2.101c0.104-0.5,0.188-0.899,0.188-1.3c0-3.1-2.462-5.5-5.5-5.5H435.096z M448.096,119.312
		c0.828,0,1.5,0.6,1.5,1.5c0,0.8-0.672,1.5-1.5,1.5s-1.5-0.7-1.5-1.5C446.596,119.913,447.268,119.312,448.096,119.312z"/>
	<path fill="#7F8C8D" d="M440.096,111.812l-1.971,1.9l-0.029,0.1c0.008,0-0.006,0,0,0c0,0-0.003,0,0,0.1c0.076,0.2,0.062,0.5,0,0.9
		l0.973,0.9l2.027,2.1c0.365-0.1,0.723-0.1,1,0l2-2l-0.5-0.5l-1-1l1.5-1.5l-1-1l-1.5,1.5L440.096,111.812z"/>
	<path fill="#BDC3C7" d="M440.596,113.312l1,1l9-9l-1-1L440.596,113.312z"/>
	<path fill="#95A5A6" d="M450.096,104.812l-9,9l0.5,0.5l9-9L450.096,104.812z"/>
	<path fill="#95A5A6" d="M451.096,102.812l-2.5,1.5l2,2l1.5-2.5L451.096,102.812z"/>
	<g>
		<path fill="#F39C12" d="M440.096,110.812l-2,2c0.338,0.8-0.416,2.4-1,3c-0.584,0.5-2.114,1.3-3,1l-4,4l4,4l4-4
			c-0.338-0.9,0.416-2.5,1-3c0.584-0.6,2.116-1.4,3-1l2-2L440.096,110.812z"/>
		<path fill="#F1C40F" d="M440.096,110.812l-2,2c0.338,0.8-0.416,2.4-1,3c-0.584,0.5-2.114,1.3-3,1l-4,4l2,2l10-10L440.096,110.812z
			"/>
		<path fill="#E67E22" d="M438.125,112.712l-0.029,0.1c0.014,0-0.01,0,0,0.1C438.105,112.812,438.119,112.812,438.125,112.712z
			 M443.596,114.312l-1.5,1.5c-0.884-0.4-2.416,0.4-3,1c-0.562,0.5-1.258,2-1,2.9c0.177-0.801,0.62-1.604,1-1.9
			c0.584-0.6,2.116-1.4,3-1l2-2L443.596,114.312z M438.066,119.812l-3.973,4l-3.5-3.5l-0.5,0.5l4,4l4-4
			C437.99,120.513,437.996,120.112,438.066,119.812z"/>
	</g>
</g>
<path fill="#95A5A6" d="M432.094,193.812c-1.104,0-2,0.9-2,2v18c0,1.1,0.896,2,2,2h14c1.105,0,2-0.9,2-2v-14l-6-6H432.094z"/>
<path fill="#BDC3C7" d="M432.094,192.812c-1.104,0-2,0.9-2,2v18c0,1.1,0.896,2,2,2h14c1.105,0,2-0.9,2-2v-14l-6-6H432.094z"/>
<path fill="#95A5A6" d="M448.094,198.812l-6-6v4c0,1.1,0.896,2,2,2H448.094z"/>
<text transform="matrix(1 0 0 1 466.0938 201.8125)" font-family="'Helvetica'" font-size="12">Configuration files</text>
<path fill="#2C3E50" d="M432.094,147.812c-1.104,0-2,0.9-2,2v16c0,1.1,0.896,2,2,2h18c1.105,0,2-0.9,2-2v-16c0-1.1-0.895-2-2-2
	H432.094z"/>
<path fill="#34495E" d="M432.094,147.812c-1.104,0-2,0.896-2,2v15c0,1.105,0.896,2,2,2h18c1.105,0,2-0.895,2-2v-15
	c0-1.104-0.895-2-2-2H432.094z"/>
<path fill="#ECF0F1" d="M433.094,150.938v1.125l3,1.75l-3,1.75v1.125l5-2.875L433.094,150.938z M438.094,155.812v1h5v-1H438.094z"/>
<text transform="matrix(1 0 0 1 466.0938 156.8125)" font-family="'Helvetica'" font-size="12">Installation</text>
<path fill="none" stroke="#BDC3C7" stroke-miterlimit="10" stroke-dasharray="4,4" d="M205.094,48.812h180v180h-180V48.812z"/>
<path fill="none" stroke="#BDC3C7" stroke-miterlimit="10" stroke-dasharray="4,4" d="M394.094,48.812h180v180h-180V48.812z"/>
<text transform="matrix(1 0 0 1 279.0918 499.8125)" font-family="'Helvetica'" font-size="12">Variables</text>
<g>
	<path fill="#7F8C8D" d="M247.188,490.912v1l3.906,3.9l-1,3l-3,1l-3.906-3.9c-0.055,0.301-0.094,0.5-0.094,0.9c0,0-0.004,0.1,0,0.2
		c-0.004,0.1,0,0.2,0,0.3c0,3,2.463,5.5,5.5,5.5c0.46,0,0.887-0.1,1.312-0.2l2.153,2.101l4.03,4.103l3,3c0.508,0.5,1.215,0.8,2,0.8
		c1.542,0,2.781-1.197,2.781-2.8c0-0.8-0.297-1.5-0.779-2l-0.032-0.103l-2.97-2.897l-4.03-4.103l-2.153-2.101
		c0.104-0.5,0.188-0.899,0.188-1.3c0-3.1-2.462-5.5-5.5-5.5h-0.406v-0.9H247.188z M261.094,508.312c0.828,0,1.5,0.6,1.5,1.5
		c0,0.8-0.672,1.5-1.5,1.5c-0.828,0-1.5-0.7-1.5-1.5C259.594,508.912,260.266,508.312,261.094,508.312z"/>
	<path fill="#95A5A6" d="M248.094,490.812c-0.312,0-0.609,0-0.906,0.1l3.906,3.9l-1,3l-3,1l-3.906-3.9
		c-0.055,0.301-0.094,0.5-0.094,0.9c0,0-0.004,0.1,0,0.2c-0.004,0.1,0,0.2,0,0.3c0,3,2.463,5.5,5.5,5.5c0.46,0,0.887-0.1,1.312-0.2
		l2.153,2.101l4.03,4.103l3,3c0.508,0.5,1.215,0.8,2,0.8c1.542,0,2.781-1.197,2.781-2.8c0-0.8-0.297-1.5-0.779-2l-0.032-0.103
		l-2.97-2.897l-4.03-4.103l-2.153-2.101c0.104-0.5,0.188-0.899,0.188-1.3c0-3.1-2.462-5.5-5.5-5.5H248.094z M261.094,507.312
		c0.828,0,1.5,0.6,1.5,1.5c0,0.8-0.672,1.5-1.5,1.5c-0.828,0-1.5-0.7-1.5-1.5C259.594,507.912,260.266,507.312,261.094,507.312z"/>
	<path fill="#7F8C8D" d="M253.094,499.812l-1.971,1.9l-0.029,0.1c0.008,0-0.006,0,0,0c0,0-0.003,0,0,0.1c0.076,0.2,0.062,0.5,0,0.9
		l0.971,0.9l2.029,2.1c0.365-0.1,0.721-0.1,1,0l2-2l-0.5-0.5l-1-1l1.5-1.5l-1-1l-1.5,1.5L253.094,499.812z"/>
	<path fill="#BDC3C7" d="M253.594,501.312l1,1l9-9l-1-1L253.594,501.312z"/>
	<path fill="#95A5A6" d="M263.094,492.812l-9,9l0.5,0.5l9-9L263.094,492.812z"/>
	<path fill="#95A5A6" d="M264.094,490.812l-2.5,1.5l2,2l1.5-2.5L264.094,490.812z"/>
	<g>
		<path fill="#F39C12" d="M253.094,498.812l-2,2c0.338,0.8-0.416,2.4-1,3c-0.584,0.5-2.116,1.3-3,1l-4,4l4,4l4-4
			c-0.338-0.9,0.416-2.5,1-3c0.584-0.6,2.116-1.4,3-1l2-2L253.094,498.812z"/>
		<path fill="#F1C40F" d="M253.094,498.812l-2,2c0.338,0.8-0.416,2.4-1,3c-0.584,0.5-2.116,1.3-3,1l-4,4l2,2l10-10L253.094,498.812z
			"/>
		<path fill="#E67E22" d="M251.123,500.713l-0.029,0.1c0.012,0-0.01,0,0,0.1C251.104,500.812,251.117,500.812,251.123,500.713z
			 M256.594,502.312l-1.5,1.5c-0.884-0.4-2.416,0.4-3,1c-0.564,0.5-1.258,2-1,2.9c0.176-0.801,0.62-1.604,1-1.9
			c0.584-0.6,2.116-1.4,3-1l2-2L256.594,502.312z M251.065,507.812l-3.971,4l-3.5-3.5l-0.5,0.5l4,4l4-4
			C250.989,508.513,250.994,508.112,251.065,507.812z"/>
	</g>
</g>
<path fill="none" stroke="#BDC3C7" stroke-miterlimit="10" stroke-dasharray="4,4" d="M16.094,444.812h180v90h-180
	C16.094,534.812,16.094,444.812,16.094,444.812z"/>
<path fill="none" stroke="#BDC3C7" stroke-miterlimit="10" stroke-dasharray="4,4" d="M205.094,444.812h180v90h-180V444.812z"/>
<text transform="matrix(1 0 0 1 61.0938 255.8125)" font-family="'Helvetica'" font-size="12">Role php</text>
<g transform="translate(0 -1028.4)">
	<path fill="#16A085" d="M32.256,1276.127c-1.714-0.201-3.283,1.896-2.357,3.5c1.008,0.6,1.747,2.5,0.415,3.199
		c-1.411,0.801-3.31-0.303-4.56,0.897c-1.004,1.103-0.465,2.699-0.571,4.103c-0.021,2.6-0.079,5.197,0.045,7.801
		c0.315,1.299,1.784,1.6,2.896,1.6c0.977,0,2.11-0.1,2.691-1c0.759-1.201-0.895-2-1.197-3.1c-0.538-1.604,1.066-3.104,2.614-3
		c1.503,0,3,1.5,2.487,3c-0.549,1-2.002,2.1-1.11,3.299c1.006,1,2.618,0.701,3.917,0.701c1.367-0.301,1.951-1.9,1.594-3.104
		c-0.092-1.101,0.229-2.5,1.439-2.8c1.355-0.1,2.02,1.8,3.443,1.5c1.715-0.2,2.709-2.301,1.9-3.801
		c-0.488-1.103-1.961-2-3.084-1.199c-0.822,0.699-2.156,1.9-3.18,0.699c-1.162-1.299,0.197-3.399-1.061-4.699
		c-1.295-1.301-3.36,0.103-4.703-1.1c-0.972-0.804-0.271-2,0.396-2.804c1.192-1,0.372-3.1-1.021-3.6
		C32.936,1276.127,32.592,1276.127,32.256,1276.127z"/>
	<path fill="#1ABC9C" d="M32.217,1275.226c-1.713-0.201-3.282,1.9-2.357,3.4c1.011,0.699,1.748,2.5,0.416,3.299
		c-1.409,0.801-3.309-0.4-4.56,0.9c-1.003,1.1-0.464,2.697-0.571,4.1c-0.021,2.6-0.079,5.201,0.045,7.801
		c0.316,1.301,1.785,1.5,2.896,1.5c0.976,0.102,2.111,0,2.689-0.898c0.761-1.303-0.894-2.102-1.197-3.102
		c-0.537-1.6,1.068-3.199,2.615-3.1c1.506,0,3,1.6,2.488,3.1c-0.549,1-2.002,2-1.111,3.199c1.006,1.1,2.617,0.801,3.92,0.701
		c1.365-0.301,1.949-1.801,1.59-3.104c-0.088-1,0.229-2.5,1.441-2.697c1.354-0.103,2.018,1.801,3.443,1.5
		c1.713-0.199,2.707-2.303,1.9-3.803c-0.49-1.101-1.959-2-3.084-1.3c-0.822,0.8-2.156,2-3.18,0.8
		c-1.162-1.396,0.197-3.396-1.062-4.8c-1.295-1.301-3.359,0.103-4.701-1c-0.971-0.801-0.271-2.1,0.396-2.801
		c1.192-1.103,0.372-3.103-1.021-3.603C32.897,1275.226,32.553,1275.226,32.217,1275.226z"/>
</g>
<text transform="matrix(1 0 0 1 88.0938 300.8125)" font-family="'Helvetica'" font-size="12">Extensions</text>
<g>
	<path fill="#7F8C8D" d="M56.189,291.912v1l3.906,3.9l-1,3l-3,1l-3.906-3.9c-0.055,0.303-0.094,0.5-0.094,0.9c0,0-0.004,0.1,0,0.2
		c-0.004,0.1,0,0.2,0,0.3c0,3,2.463,5.5,5.5,5.5c0.46,0,0.887-0.1,1.312-0.2l2.151,2.103l4.03,4.104l3,3
		c0.508,0.5,1.215,0.801,2,0.801c1.542,0,2.781-1.195,2.781-2.801c0-0.8-0.297-1.5-0.779-2l-0.032-0.104l-2.97-2.896l-4.03-4.104
		l-2.151-2.103c0.104-0.5,0.188-0.897,0.188-1.3c0-3.1-2.462-5.5-5.5-5.5h-0.406v-0.9H56.189z M70.096,309.312
		c0.828,0,1.5,0.6,1.5,1.5c0,0.8-0.672,1.5-1.5,1.5c-0.828,0-1.5-0.7-1.5-1.5C68.596,309.912,69.268,309.312,70.096,309.312z"/>
	<path fill="#95A5A6" d="M57.096,291.812c-0.312,0-0.609,0-0.906,0.1l3.906,3.9l-1,3l-3,1l-3.906-3.9
		c-0.055,0.303-0.094,0.5-0.094,0.9c0,0-0.004,0.1,0,0.2c-0.004,0.1,0,0.2,0,0.3c0,3,2.463,5.5,5.5,5.5c0.46,0,0.887-0.1,1.312-0.2
		l2.151,2.103l4.03,4.104l3,3c0.508,0.5,1.215,0.801,2,0.801c1.542,0,2.781-1.195,2.781-2.801c0-0.8-0.297-1.5-0.779-2l-0.032-0.104
		l-2.97-2.896l-4.03-4.104l-2.151-2.103c0.104-0.5,0.188-0.897,0.188-1.3c0-3.1-2.462-5.5-5.5-5.5H57.096z M70.096,308.312
		c0.828,0,1.5,0.6,1.5,1.5c0,0.8-0.672,1.5-1.5,1.5c-0.828,0-1.5-0.7-1.5-1.5C68.596,308.912,69.268,308.312,70.096,308.312z"/>
	<path fill="#7F8C8D" d="M62.096,300.812l-1.971,1.9l-0.029,0.1c0.008,0-0.006,0,0,0c0,0-0.003,0,0,0.1c0.076,0.2,0.062,0.5,0,0.9
		l0.971,0.9l2.029,2.1c0.365-0.1,0.721-0.1,1,0l2-2l-0.5-0.5l-1-1l1.5-1.5l-1-1l-1.5,1.5L62.096,300.812z"/>
	<path fill="#BDC3C7" d="M62.596,302.312l1,1l9-9l-1-1L62.596,302.312z"/>
	<path fill="#95A5A6" d="M72.096,293.812l-9,9l0.5,0.5l9-9L72.096,293.812z"/>
	<path fill="#95A5A6" d="M73.096,291.812l-2.5,1.5l2,2l1.5-2.5L73.096,291.812z"/>
	<g>
		<path fill="#F39C12" d="M62.096,299.812l-2,2c0.338,0.8-0.416,2.4-1,3c-0.584,0.5-2.116,1.3-3,1l-4,4l4,4l4-4
			c-0.338-0.9,0.416-2.5,1-3c0.584-0.6,2.116-1.4,3-1l2-2L62.096,299.812z"/>
		<path fill="#F1C40F" d="M62.096,299.812l-2,2c0.338,0.8-0.416,2.4-1,3c-0.584,0.5-2.116,1.3-3,1l-4,4l2,2l10-10L62.096,299.812z"
			/>
		<path fill="#E67E22" d="M60.125,301.713l-0.029,0.1c0.012,0-0.01,0,0,0.1C60.105,301.812,60.119,301.812,60.125,301.713z
			 M65.596,303.312l-1.5,1.5c-0.884-0.4-2.416,0.4-3,1c-0.564,0.5-1.258,2-1,2.9c0.176-0.803,0.62-1.604,1-1.9
			c0.584-0.6,2.116-1.4,3-1l2-2L65.596,303.312z M60.066,308.812l-3.971,4l-3.5-3.5l-0.5,0.5l4,4l4-4
			C59.99,309.513,59.996,309.112,60.066,308.812z"/>
	</g>
</g>
<path fill="#95A5A6" d="M54.094,382.812c-1.104,0-2,0.9-2,2v18c0,1.1,0.896,2,2,2h14c1.105,0,2-0.9,2-2v-14l-6-6H54.094z"/>
<path fill="#BDC3C7" d="M54.094,381.812c-1.104,0-2,0.9-2,2v18c0,1.1,0.896,2,2,2h14c1.105,0,2-0.9,2-2v-14l-6-6H54.094z"/>
<path fill="#95A5A6" d="M70.094,387.812l-6-6v4c0,1.1,0.896,2,2,2H70.094z"/>
<text transform="matrix(1 0 0 1 88.0938 390.8125)" font-family="'Helvetica'" font-size="12">Configuration files</text>
<path fill="#2C3E50" d="M54.094,336.812c-1.104,0-2,0.9-2,2v16c0,1.1,0.896,2,2,2h18c1.105,0,2-0.9,2-2v-16c0-1.1-0.895-2-2-2
	H54.094z"/>
<path fill="#34495E" d="M54.094,336.812c-1.104,0-2,0.896-2,2v15c0,1.105,0.896,2,2,2h18c1.105,0,2-0.895,2-2v-15
	c0-1.104-0.895-2-2-2H54.094z"/>
<path fill="#ECF0F1" d="M55.094,339.938v1.125l3,1.75l-3,1.75v1.125l5-2.875L55.094,339.938z M60.094,344.812v1h5v-1H60.094z"/>
<text transform="matrix(1 0 0 1 88.0938 345.8125)" font-family="'Helvetica'" font-size="12">Installation</text>
<path fill="none" stroke="#BDC3C7" stroke-miterlimit="10" stroke-dasharray="4,4" d="M16.094,237.812h180v180h-180
	C16.094,417.812,16.094,237.812,16.094,237.812z"/>
<text transform="matrix(1 0 0 1 628.0938 66.8125)" font-family="'Helvetica'" font-size="12">Role mysql</text>
<g transform="translate(0 -1028.4)">
	<path fill="#16A085" d="M599.256,1087.127c-1.714-0.201-3.283,1.898-2.355,3.5c1.008,0.6,1.746,2.5,0.414,3.199
		c-1.41,0.801-3.311-0.301-4.561,0.899c-1.004,1.101-0.465,2.699-0.571,4.101c-0.021,2.6-0.079,5.199,0.045,7.801
		c0.315,1.299,1.784,1.6,2.896,1.6c0.977,0,2.112-0.1,2.692-1c0.758-1.201-0.896-2-1.199-3.1c-0.537-1.602,1.066-3.102,2.617-3
		c1.502,0,3,1.5,2.484,3c-0.549,1-2.002,2.1-1.107,3.299c1.004,1,2.617,0.701,3.916,0.701c1.367-0.301,1.951-1.9,1.594-3.102
		c-0.092-1.101,0.229-2.5,1.439-2.8c1.354-0.1,2.02,1.8,3.441,1.5c1.715-0.2,2.709-2.301,1.902-3.801
		c-0.49-1.101-1.963-2-3.085-1.199c-0.823,0.699-2.157,1.9-3.183,0.699c-1.162-1.299,0.197-3.399-1.061-4.699
		c-1.295-1.301-3.36,0.101-4.703-1.1c-0.971-0.802-0.271-2,0.396-2.802c1.19-1,0.37-3.1-1.021-3.6
		C599.936,1087.127,599.592,1087.127,599.256,1087.127z"/>
	<path fill="#1ABC9C" d="M599.217,1086.226c-1.713-0.201-3.282,1.9-2.355,3.4c1.01,0.699,1.748,2.5,0.416,3.299
		c-1.41,0.801-3.311-0.4-4.562,0.9c-1.003,1.1-0.464,2.699-0.571,4.1c-0.021,2.6-0.077,5.201,0.047,7.801
		c0.314,1.301,1.783,1.5,2.896,1.5c0.978,0.1,2.111,0,2.691-0.9c0.758-1.301-0.896-2.1-1.199-3.1c-0.537-1.6,1.068-3.199,2.617-3.1
		c1.504,0,3,1.6,2.485,3.1c-0.549,1-2.002,2-1.108,3.199c1.004,1.1,2.616,0.801,3.918,0.701c1.365-0.301,1.949-1.801,1.59-3.102
		c-0.088-1,0.229-2.5,1.441-2.699c1.354-0.101,2.018,1.801,3.441,1.5c1.713-0.199,2.707-2.301,1.898-3.801
		c-0.488-1.101-1.959-2-3.084-1.3c-0.82,0.8-2.154,2-3.179,0.8c-1.161-1.398,0.196-3.398-1.062-4.8
		c-1.296-1.301-3.359,0.101-4.701-1c-0.972-0.801-0.271-2.1,0.396-2.801c1.19-1.101,0.372-3.101-1.021-3.601
		C599.896,1086.226,599.553,1086.226,599.217,1086.226z"/>
</g>
<text transform="matrix(1 0 0 1 655.0938 111.8125)" font-family="'Helvetica'" font-size="12">Databases, users</text>
<g>
	<path fill="#7F8C8D" d="M623.189,102.913v1l3.904,3.9l-1,3l-3,1l-3.904-3.9c-0.057,0.301-0.096,0.5-0.096,0.9c0,0-0.004,0.1,0,0.2
		c-0.004,0.1,0,0.2,0,0.3c0,3,2.463,5.5,5.5,5.5c0.46,0,0.889-0.1,1.312-0.2l2.149,2.101l4.03,4.104l3,3
		c0.508,0.5,1.215,0.801,2,0.801c1.542,0,2.781-1.197,2.781-2.801c0-0.8-0.297-1.5-0.779-2l-0.031-0.104l-2.971-2.896l-4.029-4.104
		l-2.15-2.101c0.104-0.5,0.188-0.899,0.188-1.3c0-3.1-2.462-5.5-5.5-5.5h-0.404v-0.9H623.189z M637.096,120.312
		c0.828,0,1.5,0.6,1.5,1.5c0,0.8-0.672,1.5-1.5,1.5s-1.5-0.7-1.5-1.5C635.596,120.913,636.268,120.312,637.096,120.312z"/>
	<path fill="#95A5A6" d="M624.096,102.812c-0.312,0-0.607,0-0.904,0.1l3.904,3.9l-1,3l-3,1l-3.904-3.9
		c-0.057,0.301-0.096,0.5-0.096,0.9c0,0-0.004,0.1,0,0.2c-0.004,0.1,0,0.2,0,0.3c0,3,2.463,5.5,5.5,5.5c0.46,0,0.889-0.1,1.312-0.2
		l2.149,2.101l4.03,4.104l3,3c0.508,0.5,1.215,0.801,2,0.801c1.542,0,2.781-1.197,2.781-2.801c0-0.8-0.297-1.5-0.779-2l-0.031-0.104
		l-2.971-2.896l-4.029-4.104l-2.15-2.101c0.104-0.5,0.188-0.899,0.188-1.3c0-3.1-2.462-5.5-5.5-5.5H624.096z M637.096,119.312
		c0.828,0,1.5,0.6,1.5,1.5c0,0.8-0.672,1.5-1.5,1.5s-1.5-0.7-1.5-1.5C635.596,119.913,636.268,119.312,637.096,119.312z"/>
	<path fill="#7F8C8D" d="M629.096,111.812l-1.971,1.9l-0.029,0.1c0.008,0-0.006,0,0,0c0,0-0.003,0,0,0.1c0.076,0.2,0.062,0.5,0,0.9
		l0.973,0.9l2.027,2.1c0.365-0.1,0.723-0.1,1,0l2-2l-0.5-0.5l-1-1l1.5-1.5l-1-1l-1.5,1.5L629.096,111.812z"/>
	<path fill="#BDC3C7" d="M629.596,113.312l1,1l9-9l-1-1L629.596,113.312z"/>
	<path fill="#95A5A6" d="M639.096,104.812l-9,9l0.5,0.5l9-9L639.096,104.812z"/>
	<path fill="#95A5A6" d="M640.096,102.812l-2.5,1.5l2,2l1.5-2.5L640.096,102.812z"/>
	<g>
		<path fill="#F39C12" d="M629.096,110.812l-2,2c0.338,0.8-0.416,2.4-1,3c-0.584,0.5-2.114,1.3-3,1l-4,4l4,4l4-4
			c-0.338-0.9,0.416-2.5,1-3c0.584-0.6,2.116-1.4,3-1l2-2L629.096,110.812z"/>
		<path fill="#F1C40F" d="M629.096,110.812l-2,2c0.338,0.8-0.416,2.4-1,3c-0.584,0.5-2.114,1.3-3,1l-4,4l2,2l10-10L629.096,110.812z
			"/>
		<path fill="#E67E22" d="M627.125,112.712l-0.029,0.1c0.014,0-0.01,0,0,0.1C627.105,112.812,627.119,112.812,627.125,112.712z
			 M632.596,114.312l-1.5,1.5c-0.884-0.4-2.416,0.4-3,1c-0.562,0.5-1.258,2-1,2.9c0.178-0.801,0.62-1.604,1-1.9
			c0.584-0.6,2.116-1.4,3-1l2-2L632.596,114.312z M627.066,119.812l-3.973,4l-3.5-3.5l-0.5,0.5l4,4l4-4
			C626.99,120.513,626.996,120.112,627.066,119.812z"/>
	</g>
</g>
<path fill="#95A5A6" d="M621.094,193.812c-1.104,0-2,0.9-2,2v18c0,1.1,0.896,2,2,2h14c1.105,0,2-0.9,2-2v-14l-6-6H621.094z"/>
<path fill="#BDC3C7" d="M621.094,192.812c-1.104,0-2,0.9-2,2v18c0,1.1,0.896,2,2,2h14c1.105,0,2-0.9,2-2v-14l-6-6H621.094z"/>
<path fill="#95A5A6" d="M637.094,198.812l-6-6v4c0,1.1,0.896,2,2,2H637.094z"/>
<text transform="matrix(1 0 0 1 655.0938 201.8125)" font-family="'Helvetica'" font-size="12">Configuration files</text>
<path fill="#2C3E50" d="M621.094,147.812c-1.104,0-2,0.9-2,2v16c0,1.1,0.896,2,2,2h18c1.105,0,2-0.9,2-2v-16c0-1.1-0.895-2-2-2
	H621.094z"/>
<path fill="#34495E" d="M621.094,147.812c-1.104,0-2,0.896-2,2v15c0,1.105,0.896,2,2,2h18c1.105,0,2-0.895,2-2v-15
	c0-1.104-0.895-2-2-2H621.094z"/>
<path fill="#ECF0F1" d="M622.094,150.938v1.125l3,1.75l-3,1.75v1.125l5-2.875L622.094,150.938z M627.094,155.812v1h5v-1H627.094z"/>
<text transform="matrix(1 0 0 1 655.0938 156.8125)" font-family="'Helvetica'" font-size="12">Installation</text>
<path fill="none" stroke="#BDC3C7" stroke-miterlimit="10" stroke-dasharray="4,4" d="M583.094,48.812h180v180h-180V48.812z"/>
<text transform="matrix(1 0 0 1 250.0938 255.8125)" font-family="'Helvetica'" font-size="12">Role tomcat</text>
<g transform="translate(0 -1028.4)">
	<path fill="#16A085" d="M221.256,1276.127c-1.714-0.201-3.283,1.896-2.357,3.5c1.008,0.6,1.747,2.5,0.415,3.199
		c-1.411,0.801-3.31-0.303-4.56,0.897c-1.004,1.103-0.465,2.699-0.571,4.103c-0.021,2.6-0.079,5.197,0.045,7.801
		c0.315,1.299,1.784,1.6,2.896,1.6c0.977,0,2.11-0.1,2.691-1c0.759-1.201-0.895-2-1.197-3.1c-0.538-1.604,1.066-3.104,2.614-3
		c1.503,0,3,1.5,2.487,3c-0.549,1-2.002,2.1-1.11,3.299c1.006,1,2.618,0.701,3.917,0.701c1.367-0.301,1.951-1.9,1.594-3.104
		c-0.092-1.101,0.229-2.5,1.439-2.8c1.355-0.1,2.02,1.8,3.443,1.5c1.715-0.2,2.709-2.301,1.9-3.801
		c-0.488-1.103-1.961-2-3.084-1.199c-0.822,0.699-2.156,1.9-3.18,0.699c-1.162-1.299,0.197-3.399-1.061-4.699
		c-1.295-1.301-3.36,0.103-4.703-1.1c-0.972-0.804-0.271-2,0.396-2.804c1.192-1,0.372-3.1-1.021-3.6
		C221.936,1276.127,221.592,1276.127,221.256,1276.127z"/>
	<path fill="#1ABC9C" d="M221.217,1275.226c-1.713-0.201-3.282,1.9-2.357,3.4c1.011,0.699,1.748,2.5,0.416,3.299
		c-1.409,0.801-3.309-0.4-4.56,0.9c-1.003,1.1-0.464,2.697-0.571,4.1c-0.021,2.6-0.079,5.201,0.045,7.801
		c0.316,1.301,1.785,1.5,2.896,1.5c0.976,0.102,2.111,0,2.689-0.898c0.761-1.303-0.894-2.102-1.197-3.102
		c-0.537-1.6,1.068-3.199,2.615-3.1c1.506,0,3,1.6,2.488,3.1c-0.549,1-2.002,2-1.111,3.199c1.006,1.1,2.617,0.801,3.92,0.701
		c1.365-0.301,1.949-1.801,1.59-3.104c-0.088-1,0.229-2.5,1.441-2.697c1.354-0.103,2.018,1.801,3.443,1.5
		c1.713-0.199,2.707-2.303,1.9-3.803c-0.49-1.101-1.959-2-3.084-1.3c-0.822,0.8-2.156,2-3.18,0.8
		c-1.162-1.396,0.197-3.396-1.062-4.8c-1.295-1.301-3.359,0.103-4.701-1c-0.971-0.801-0.271-2.1,0.396-2.801
		c1.192-1.103,0.372-3.103-1.021-3.603C221.897,1275.226,221.553,1275.226,221.217,1275.226z"/>
</g>
<text transform="matrix(1 0 0 1 277.0938 300.8125)" font-family="'Helvetica'" font-size="12">Ports</text>
<g>
	<path fill="#7F8C8D" d="M245.189,291.912v1l3.906,3.9l-1,3l-3,1l-3.906-3.9c-0.055,0.303-0.094,0.5-0.094,0.9c0,0-0.004,0.1,0,0.2
		c-0.004,0.1,0,0.2,0,0.3c0,3,2.463,5.5,5.5,5.5c0.46,0,0.887-0.1,1.312-0.2l2.151,2.103l4.03,4.104l3,3
		c0.508,0.5,1.215,0.801,2,0.801c1.542,0,2.781-1.195,2.781-2.801c0-0.8-0.297-1.5-0.779-2l-0.032-0.104l-2.97-2.896l-4.03-4.104
		l-2.151-2.103c0.104-0.5,0.188-0.897,0.188-1.3c0-3.1-2.462-5.5-5.5-5.5h-0.406v-0.9H245.189z M259.096,309.312
		c0.828,0,1.5,0.6,1.5,1.5c0,0.8-0.672,1.5-1.5,1.5c-0.828,0-1.5-0.7-1.5-1.5C257.596,309.912,258.268,309.312,259.096,309.312z"/>
	<path fill="#95A5A6" d="M246.096,291.812c-0.312,0-0.609,0-0.906,0.1l3.906,3.9l-1,3l-3,1l-3.906-3.9
		c-0.055,0.303-0.094,0.5-0.094,0.9c0,0-0.004,0.1,0,0.2c-0.004,0.1,0,0.2,0,0.3c0,3,2.463,5.5,5.5,5.5c0.46,0,0.887-0.1,1.312-0.2
		l2.151,2.103l4.03,4.104l3,3c0.508,0.5,1.215,0.801,2,0.801c1.542,0,2.781-1.195,2.781-2.801c0-0.8-0.297-1.5-0.779-2l-0.032-0.104
		l-2.97-2.896l-4.03-4.104l-2.151-2.103c0.104-0.5,0.188-0.897,0.188-1.3c0-3.1-2.462-5.5-5.5-5.5H246.096z M259.096,308.312
		c0.828,0,1.5,0.6,1.5,1.5c0,0.8-0.672,1.5-1.5,1.5c-0.828,0-1.5-0.7-1.5-1.5C257.596,308.912,258.268,308.312,259.096,308.312z"/>
	<path fill="#7F8C8D" d="M251.096,300.812l-1.971,1.9l-0.029,0.1c0.008,0-0.006,0,0,0c0,0-0.003,0,0,0.1c0.076,0.2,0.062,0.5,0,0.9
		l0.971,0.9l2.029,2.1c0.365-0.1,0.721-0.1,1,0l2-2l-0.5-0.5l-1-1l1.5-1.5l-1-1l-1.5,1.5L251.096,300.812z"/>
	<path fill="#BDC3C7" d="M251.596,302.312l1,1l9-9l-1-1L251.596,302.312z"/>
	<path fill="#95A5A6" d="M261.096,293.812l-9,9l0.5,0.5l9-9L261.096,293.812z"/>
	<path fill="#95A5A6" d="M262.096,291.812l-2.5,1.5l2,2l1.5-2.5L262.096,291.812z"/>
	<g>
		<path fill="#F39C12" d="M251.096,299.812l-2,2c0.338,0.8-0.416,2.4-1,3c-0.584,0.5-2.116,1.3-3,1l-4,4l4,4l4-4
			c-0.338-0.9,0.416-2.5,1-3c0.584-0.6,2.116-1.4,3-1l2-2L251.096,299.812z"/>
		<path fill="#F1C40F" d="M251.096,299.812l-2,2c0.338,0.8-0.416,2.4-1,3c-0.584,0.5-2.116,1.3-3,1l-4,4l2,2l10-10L251.096,299.812z
			"/>
		<path fill="#E67E22" d="M249.125,301.713l-0.029,0.1c0.012,0-0.01,0,0,0.1C249.105,301.812,249.119,301.812,249.125,301.713z
			 M254.596,303.312l-1.5,1.5c-0.884-0.4-2.416,0.4-3,1c-0.564,0.5-1.258,2-1,2.9c0.176-0.803,0.62-1.604,1-1.9
			c0.584-0.6,2.116-1.4,3-1l2-2L254.596,303.312z M249.066,308.812l-3.971,4l-3.5-3.5l-0.5,0.5l4,4l4-4
			C248.99,309.513,248.996,309.112,249.066,308.812z"/>
	</g>
</g>
<path fill="#95A5A6" d="M243.094,382.812c-1.104,0-2,0.9-2,2v18c0,1.1,0.896,2,2,2h14c1.105,0,2-0.9,2-2v-14l-6-6H243.094z"/>
<path fill="#BDC3C7" d="M243.094,381.812c-1.104,0-2,0.9-2,2v18c0,1.1,0.896,2,2,2h14c1.105,0,2-0.9,2-2v-14l-6-6H243.094z"/>
<path fill="#95A5A6" d="M259.094,387.812l-6-6v4c0,1.1,0.896,2,2,2H259.094z"/>
<text transform="matrix(1 0 0 1 277.0938 390.8125)" font-family="'Helvetica'" font-size="12">Configuration files</text>
<path fill="#2C3E50" d="M243.094,336.812c-1.104,0-2,0.9-2,2v16c0,1.1,0.896,2,2,2h18c1.105,0,2-0.9,2-2v-16c0-1.1-0.895-2-2-2
	H243.094z"/>
<path fill="#34495E" d="M243.094,336.812c-1.104,0-2,0.896-2,2v15c0,1.105,0.896,2,2,2h18c1.105,0,2-0.895,2-2v-15
	c0-1.104-0.895-2-2-2H243.094z"/>
<path fill="#ECF0F1" d="M244.094,339.938v1.125l3,1.75l-3,1.75v1.125l5-2.875L244.094,339.938z M249.094,344.812v1h5v-1H249.094z"/>
<text transform="matrix(1 0 0 1 277.0938 345.8125)" font-family="'Helvetica'" font-size="12">Installation</text>
<path fill="none" stroke="#BDC3C7" stroke-miterlimit="10" stroke-dasharray="4,4" d="M205.094,237.812h180v180h-180V237.812z"/>
<text transform="matrix(1 0 0 1 439.0938 255.8125)" font-family="'Helvetica'" font-size="12">Role rabbitmq</text>
<g transform="translate(0 -1028.4)">
	<path fill="#16A085" d="M410.256,1276.127c-1.714-0.201-3.283,1.896-2.357,3.5c1.01,0.6,1.748,2.5,0.416,3.199
		c-1.412,0.801-3.311-0.303-4.561,0.897c-1.004,1.103-0.465,2.699-0.57,4.103c-0.021,2.6-0.08,5.197,0.045,7.801
		c0.314,1.299,1.783,1.6,2.896,1.6c0.979,0,2.109-0.1,2.689-1c0.761-1.201-0.895-2-1.195-3.1c-0.538-1.604,1.064-3.104,2.613-3
		c1.502,0,3,1.5,2.486,3c-0.549,1-2.002,2.1-1.109,3.299c1.007,1,2.617,0.701,3.916,0.701c1.367-0.301,1.951-1.9,1.596-3.104
		c-0.092-1.101,0.229-2.5,1.438-2.8c1.355-0.1,2.021,1.8,3.443,1.5c1.715-0.2,2.709-2.301,1.9-3.801
		c-0.488-1.103-1.961-2-3.084-1.199c-0.822,0.699-2.156,1.9-3.181,0.699c-1.161-1.299,0.196-3.399-1.062-4.699
		c-1.295-1.301-3.36,0.103-4.703-1.1c-0.973-0.804-0.271-2,0.396-2.804c1.191-1,0.373-3.1-1.021-3.6
		C410.936,1276.127,410.592,1276.127,410.256,1276.127z"/>
	<path fill="#1ABC9C" d="M410.217,1275.226c-1.713-0.201-3.281,1.9-2.357,3.4c1.013,0.699,1.748,2.5,0.416,3.299
		c-1.407,0.801-3.309-0.4-4.56,0.9c-1.003,1.1-0.464,2.697-0.571,4.1c-0.021,2.6-0.078,5.201,0.045,7.801
		c0.316,1.301,1.785,1.5,2.896,1.5c0.977,0.102,2.111,0,2.689-0.898c0.761-1.303-0.896-2.102-1.197-3.102
		c-0.537-1.6,1.068-3.199,2.615-3.1c1.506,0,3,1.6,2.488,3.1c-0.551,1-2.004,2-1.111,3.199c1.006,1.1,2.617,0.801,3.92,0.701
		c1.365-0.301,1.949-1.801,1.59-3.104c-0.088-1,0.229-2.5,1.441-2.697c1.354-0.103,2.018,1.801,3.441,1.5
		c1.713-0.199,2.707-2.303,1.9-3.803c-0.49-1.101-1.959-2-3.084-1.3c-0.822,0.8-2.156,2-3.182,0.8
		c-1.162-1.396,0.197-3.396-1.062-4.8c-1.295-1.301-3.359,0.103-4.701-1c-0.972-0.801-0.271-2.1,0.396-2.801
		c1.192-1.103,0.373-3.103-1.021-3.603C410.896,1275.226,410.553,1275.226,410.217,1275.226z"/>
</g>
<text transform="matrix(1 0 0 1 466.0938 300.8125)" font-family="'Helvetica'" font-size="12">Queues</text>
<g>
	<path fill="#7F8C8D" d="M434.189,291.912v1l3.904,3.9l-1,3l-3,1l-3.904-3.9c-0.057,0.303-0.096,0.5-0.096,0.9c0,0-0.004,0.1,0,0.2
		c-0.004,0.1,0,0.2,0,0.3c0,3,2.463,5.5,5.5,5.5c0.46,0,0.889-0.1,1.312-0.2l2.149,2.103l4.03,4.104l3,3
		c0.508,0.5,1.215,0.801,2,0.801c1.542,0,2.781-1.195,2.781-2.801c0-0.8-0.297-1.5-0.779-2l-0.032-0.104l-2.97-2.896l-4.03-4.104
		l-2.149-2.103c0.104-0.5,0.188-0.897,0.188-1.3c0-3.1-2.462-5.5-5.5-5.5h-0.404v-0.9H434.189z M448.096,309.312
		c0.828,0,1.5,0.6,1.5,1.5c0,0.8-0.672,1.5-1.5,1.5s-1.5-0.7-1.5-1.5C446.596,309.912,447.268,309.312,448.096,309.312z"/>
	<path fill="#95A5A6" d="M435.096,291.812c-0.312,0-0.607,0-0.904,0.1l3.904,3.9l-1,3l-3,1l-3.904-3.9
		c-0.057,0.303-0.096,0.5-0.096,0.9c0,0-0.004,0.1,0,0.2c-0.004,0.1,0,0.2,0,0.3c0,3,2.463,5.5,5.5,5.5c0.46,0,0.889-0.1,1.312-0.2
		l2.149,2.103l4.03,4.104l3,3c0.508,0.5,1.215,0.801,2,0.801c1.542,0,2.781-1.195,2.781-2.801c0-0.8-0.297-1.5-0.779-2l-0.032-0.104
		l-2.97-2.896l-4.03-4.104l-2.149-2.103c0.104-0.5,0.188-0.897,0.188-1.3c0-3.1-2.462-5.5-5.5-5.5H435.096z M448.096,308.312
		c0.828,0,1.5,0.6,1.5,1.5c0,0.8-0.672,1.5-1.5,1.5s-1.5-0.7-1.5-1.5C446.596,308.912,447.268,308.312,448.096,308.312z"/>
	<path fill="#7F8C8D" d="M440.096,300.812l-1.971,1.9l-0.029,0.1c0.008,0-0.006,0,0,0c0,0-0.003,0,0,0.1c0.076,0.2,0.062,0.5,0,0.9
		l0.973,0.9l2.027,2.1c0.365-0.1,0.723-0.1,1,0l2-2l-0.5-0.5l-1-1l1.5-1.5l-1-1l-1.5,1.5L440.096,300.812z"/>
	<path fill="#BDC3C7" d="M440.596,302.312l1,1l9-9l-1-1L440.596,302.312z"/>
	<path fill="#95A5A6" d="M450.096,293.812l-9,9l0.5,0.5l9-9L450.096,293.812z"/>
	<path fill="#95A5A6" d="M451.096,291.812l-2.5,1.5l2,2l1.5-2.5L451.096,291.812z"/>
	<g>
		<path fill="#F39C12" d="M440.096,299.812l-2,2c0.338,0.8-0.416,2.4-1,3c-0.584,0.5-2.114,1.3-3,1l-4,4l4,4l4-4
			c-0.338-0.9,0.416-2.5,1-3c0.584-0.6,2.116-1.4,3-1l2-2L440.096,299.812z"/>
		<path fill="#F1C40F" d="M440.096,299.812l-2,2c0.338,0.8-0.416,2.4-1,3c-0.584,0.5-2.114,1.3-3,1l-4,4l2,2l10-10L440.096,299.812z
			"/>
		<path fill="#E67E22" d="M438.125,301.713l-0.029,0.1c0.014,0-0.01,0,0,0.1C438.105,301.812,438.119,301.812,438.125,301.713z
			 M443.596,303.312l-1.5,1.5c-0.884-0.4-2.416,0.4-3,1c-0.562,0.5-1.258,2-1,2.9c0.177-0.803,0.62-1.604,1-1.9
			c0.584-0.6,2.116-1.4,3-1l2-2L443.596,303.312z M438.066,308.812l-3.973,4l-3.5-3.5l-0.5,0.5l4,4l4-4
			C437.99,309.513,437.996,309.112,438.066,308.812z"/>
	</g>
</g>
<path fill="#95A5A6" d="M432.094,382.812c-1.104,0-2,0.9-2,2v18c0,1.1,0.896,2,2,2h14c1.105,0,2-0.9,2-2v-14l-6-6H432.094z"/>
<path fill="#BDC3C7" d="M432.094,381.812c-1.104,0-2,0.9-2,2v18c0,1.1,0.896,2,2,2h14c1.105,0,2-0.9,2-2v-14l-6-6H432.094z"/>
<path fill="#95A5A6" d="M448.094,387.812l-6-6v4c0,1.1,0.896,2,2,2H448.094z"/>
<text transform="matrix(1 0 0 1 466.0938 390.8125)" font-family="'Helvetica'" font-size="12">Configuration files</text>
<path fill="#2C3E50" d="M432.094,336.812c-1.104,0-2,0.9-2,2v16c0,1.1,0.896,2,2,2h18c1.105,0,2-0.9,2-2v-16c0-1.1-0.895-2-2-2
	H432.094z"/>
<path fill="#34495E" d="M432.094,336.812c-1.104,0-2,0.896-2,2v15c0,1.105,0.896,2,2,2h18c1.105,0,2-0.895,2-2v-15
	c0-1.104-0.895-2-2-2H432.094z"/>
<path fill="#ECF0F1" d="M433.094,339.938v1.125l3,1.75l-3,1.75v1.125l5-2.875L433.094,339.938z M438.094,344.812v1h5v-1H438.094z"/>
<text transform="matrix(1 0 0 1 466.0938 345.8125)" font-family="'Helvetica'" font-size="12">Installation</text>
<path fill="none" stroke="#BDC3C7" stroke-miterlimit="10" stroke-dasharray="4,4" d="M394.094,237.812h180v180h-180V237.812z"/>
<text transform="matrix(1 0 0 1 628.0938 255.8125)" font-family="'Helvetica'" font-size="12">Role app …</text>
<g transform="translate(0 -1028.4)">
	<path fill="#16A085" d="M599.256,1276.127c-1.714-0.201-3.283,1.896-2.355,3.5c1.008,0.6,1.746,2.5,0.414,3.199
		c-1.41,0.801-3.311-0.303-4.561,0.897c-1.004,1.103-0.465,2.699-0.571,4.103c-0.021,2.6-0.079,5.197,0.045,7.801
		c0.315,1.299,1.784,1.6,2.896,1.6c0.977,0,2.11-0.1,2.69-1c0.76-1.201-0.896-2-1.196-3.1c-0.538-1.604,1.064-3.104,2.614-3
		c1.503,0,3,1.5,2.485,3c-0.549,1-2.002,2.1-1.108,3.299c1.006,1,2.616,0.701,3.917,0.701c1.365-0.301,1.949-1.9,1.594-3.104
		c-0.092-1.101,0.229-2.5,1.438-2.8c1.355-0.1,2.021,1.8,3.443,1.5c1.715-0.2,2.709-2.301,1.9-3.801
		c-0.488-1.103-1.961-2-3.084-1.199c-0.822,0.699-2.156,1.9-3.182,0.699c-1.162-1.299,0.197-3.399-1.061-4.699
		c-1.295-1.301-3.36,0.103-4.703-1.1c-0.972-0.804-0.271-2,0.396-2.804c1.192-1,0.372-3.1-1.021-3.6
		C599.936,1276.127,599.592,1276.127,599.256,1276.127z"/>
	<path fill="#1ABC9C" d="M599.217,1275.226c-1.713-0.201-3.282,1.9-2.355,3.4c1.011,0.699,1.748,2.5,0.416,3.299
		c-1.409,0.801-3.311-0.4-4.562,0.9c-1.003,1.1-0.464,2.697-0.571,4.1c-0.021,2.6-0.077,5.201,0.047,7.801
		c0.314,1.301,1.783,1.5,2.896,1.5c0.978,0.102,2.111,0,2.689-0.898c0.761-1.303-0.896-2.102-1.197-3.102
		c-0.537-1.6,1.068-3.199,2.615-3.1c1.506,0,3,1.6,2.486,3.1c-0.549,1-2.002,2-1.109,3.199c1.006,1.1,2.616,0.801,3.92,0.701
		c1.364-0.301,1.948-1.801,1.59-3.104c-0.088-1,0.229-2.5,1.44-2.697c1.354-0.103,2.019,1.801,3.442,1.5
		c1.713-0.199,2.707-2.303,1.9-3.803c-0.49-1.101-1.959-2-3.084-1.3c-0.822,0.8-2.156,2-3.182,0.8
		c-1.161-1.396,0.197-3.396-1.062-4.8c-1.295-1.301-3.359,0.103-4.701-1c-0.971-0.801-0.271-2.1,0.396-2.801
		c1.19-1.103,0.372-3.103-1.021-3.603C599.896,1275.226,599.553,1275.226,599.217,1275.226z"/>
</g>
<text transform="matrix(1 0 0 1 655.0938 300.8125)" font-family="'Helvetica'" font-size="12">Application config</text>
<g>
	<path fill="#7F8C8D" d="M623.189,291.912v1l3.904,3.9l-1,3l-3,1l-3.904-3.9c-0.057,0.303-0.096,0.5-0.096,0.9c0,0-0.004,0.1,0,0.2
		c-0.004,0.1,0,0.2,0,0.3c0,3,2.463,5.5,5.5,5.5c0.46,0,0.889-0.1,1.312-0.2l2.149,2.103l4.03,4.104l3,3
		c0.508,0.5,1.215,0.801,2,0.801c1.542,0,2.781-1.195,2.781-2.801c0-0.8-0.297-1.5-0.779-2l-0.031-0.104l-2.971-2.896l-4.029-4.104
		l-2.15-2.103c0.104-0.5,0.188-0.897,0.188-1.3c0-3.1-2.462-5.5-5.5-5.5h-0.404v-0.9H623.189z M637.096,309.312
		c0.828,0,1.5,0.6,1.5,1.5c0,0.8-0.672,1.5-1.5,1.5s-1.5-0.7-1.5-1.5C635.596,309.912,636.268,309.312,637.096,309.312z"/>
	<path fill="#95A5A6" d="M624.096,291.812c-0.312,0-0.607,0-0.904,0.1l3.904,3.9l-1,3l-3,1l-3.904-3.9
		c-0.057,0.303-0.096,0.5-0.096,0.9c0,0-0.004,0.1,0,0.2c-0.004,0.1,0,0.2,0,0.3c0,3,2.463,5.5,5.5,5.5c0.46,0,0.889-0.1,1.312-0.2
		l2.149,2.103l4.03,4.104l3,3c0.508,0.5,1.215,0.801,2,0.801c1.542,0,2.781-1.195,2.781-2.801c0-0.8-0.297-1.5-0.779-2l-0.031-0.104
		l-2.971-2.896l-4.029-4.104l-2.15-2.103c0.104-0.5,0.188-0.897,0.188-1.3c0-3.1-2.462-5.5-5.5-5.5H624.096z M637.096,308.312
		c0.828,0,1.5,0.6,1.5,1.5c0,0.8-0.672,1.5-1.5,1.5s-1.5-0.7-1.5-1.5C635.596,308.912,636.268,308.312,637.096,308.312z"/>
	<path fill="#7F8C8D" d="M629.096,300.812l-1.971,1.9l-0.029,0.1c0.008,0-0.006,0,0,0c0,0-0.003,0,0,0.1c0.076,0.2,0.062,0.5,0,0.9
		l0.973,0.9l2.027,2.1c0.365-0.1,0.723-0.1,1,0l2-2l-0.5-0.5l-1-1l1.5-1.5l-1-1l-1.5,1.5L629.096,300.812z"/>
	<path fill="#BDC3C7" d="M629.596,302.312l1,1l9-9l-1-1L629.596,302.312z"/>
	<path fill="#95A5A6" d="M639.096,293.812l-9,9l0.5,0.5l9-9L639.096,293.812z"/>
	<path fill="#95A5A6" d="M640.096,291.812l-2.5,1.5l2,2l1.5-2.5L640.096,291.812z"/>
	<g>
		<path fill="#F39C12" d="M629.096,299.812l-2,2c0.338,0.8-0.416,2.4-1,3c-0.584,0.5-2.114,1.3-3,1l-4,4l4,4l4-4
			c-0.338-0.9,0.416-2.5,1-3c0.584-0.6,2.116-1.4,3-1l2-2L629.096,299.812z"/>
		<path fill="#F1C40F" d="M629.096,299.812l-2,2c0.338,0.8-0.416,2.4-1,3c-0.584,0.5-2.114,1.3-3,1l-4,4l2,2l10-10L629.096,299.812z
			"/>
		<path fill="#E67E22" d="M627.125,301.713l-0.029,0.1c0.014,0-0.01,0,0,0.1C627.105,301.812,627.119,301.812,627.125,301.713z
			 M632.596,303.312l-1.5,1.5c-0.884-0.4-2.416,0.4-3,1c-0.562,0.5-1.258,2-1,2.9c0.178-0.803,0.62-1.604,1-1.9
			c0.584-0.6,2.116-1.4,3-1l2-2L632.596,303.312z M627.066,308.812l-3.973,4l-3.5-3.5l-0.5,0.5l4,4l4-4
			C626.99,309.513,626.996,309.112,627.066,308.812z"/>
	</g>
</g>
<path fill="#95A5A6" d="M621.094,382.812c-1.104,0-2,0.9-2,2v18c0,1.1,0.896,2,2,2h14c1.105,0,2-0.9,2-2v-14l-6-6H621.094z"/>
<path fill="#BDC3C7" d="M621.094,381.812c-1.104,0-2,0.9-2,2v18c0,1.1,0.896,2,2,2h14c1.105,0,2-0.9,2-2v-14l-6-6H621.094z"/>
<path fill="#95A5A6" d="M637.094,387.812l-6-6v4c0,1.1,0.896,2,2,2H637.094z"/>
<text transform="matrix(1 0 0 1 655.0938 390.8125)" font-family="'Helvetica'" font-size="12">Configuration files</text>
<path fill="#2C3E50" d="M621.094,336.812c-1.104,0-2,0.9-2,2v16c0,1.1,0.896,2,2,2h18c1.105,0,2-0.9,2-2v-16c0-1.1-0.895-2-2-2
	H621.094z"/>
<path fill="#34495E" d="M621.094,336.812c-1.104,0-2,0.896-2,2v15c0,1.105,0.896,2,2,2h18c1.105,0,2-0.895,2-2v-15
	c0-1.104-0.895-2-2-2H621.094z"/>
<path fill="#ECF0F1" d="M622.094,339.938v1.125l3,1.75l-3,1.75v1.125l5-2.875L622.094,339.938z M627.094,344.812v1h5v-1H627.094z"/>
<text transform="matrix(1 0 0 1 655.0938 345.8125)" font-family="'Helvetica'" font-size="12">Deployment</text>
<path fill="none" stroke="#BDC3C7" stroke-miterlimit="10" stroke-dasharray="4,4" d="M583.094,237.812h180v180h-180V237.812z"/>
</svg>
