<?xml version="1.0" encoding="utf-8"?>
<!-- Generator: Adobe Illustrator 16.0.4, SVG Export Plug-In . SVG Version: 6.00 Build 0)  -->
<!DOCTYPE svg PUBLIC "-//W3C//DTD SVG 1.1//EN" "http://www.w3.org/Graphics/SVG/1.1/DTD/svg11.dtd">
<svg version="1.1" id="Layer_1" xmlns="http://www.w3.org/2000/svg" xmlns:xlink="http://www.w3.org/1999/xlink" x="0px" y="0px"
	 width="783px" height="558.625px" viewBox="0 0 783 558.625" enable-background="new 0 0 783 558.625" xml:space="preserve">
<path fill="none" stroke="#BDC3C7" stroke-miterlimit="10" d="M7.094,9.625h765v540h-765V9.625z"/>
<text transform="matrix(1 0 0 1 16.0938 27.625)" font-family="'Helvetica'" font-size="12">worldskills-playbook</text>
<text transform="matrix(1 0 0 1 61.0938 72.625)" font-family="'Helvetica'" font-size="12">Inventory prod</text>
<g transform="translate(0 -1028.4)">
	<path fill="#16A085" d="M25.094,1099.025v2v1v3v1v5v1c0,1.105,0.896,2,2,2h14c1.105,0,2-0.895,2-2v-1v-5v-4v-3H25.094z"/>
	<path fill="#ECF0F1" d="M25.094,1098.025v2v1v3v1v5v1c0,1.1,0.896,2,2,2h14c1.105,0,2-0.9,2-2v-1v-5v-4v-3H25.094z"/>
	<path fill="#BDC3C7" d="M25.094,1097.025v2v1v3v1v5v1c0,1.1,0.896,2,2,2h14c1.105,0,2-0.9,2-2v-1v-5v-4v-3H25.094z"/>
	<path fill="#ECF0F1" d="M25.094,1096.025v2v1v3v1v5v1c0,1.1,0.896,2,2,2h14c1.105,0,2-0.9,2-2v-1v-5v-4v-3H25.094z"/>
	<path fill="#16A085" d="M27.094,1092.025c-1.104,0-2,0.896-2,2v1v4v2v1v3v1v5v1c0,1.105,0.896,2,2,2h2v-1h-1.5
		c-0.829,0-1.5-0.672-1.5-1.5s0.671-1.5,1.5-1.5h12.5h1c1.105,0,2-0.895,2-2v-1v-5v-4v-3v-1c0-1.104-0.895-2-2-2h-4H27.094z"/>
	<path fill="#1ABC9C" d="M30.094,1092.025v18h1h9h1c1.105,0,2-0.895,2-2v-1v-5v-4v-3v-1c0-1.104-0.895-2-2-2h-4h-6H30.094z"/>
</g>
<text transform="matrix(1 0 0 1 250.0938 72.625)" font-family="'Helvetica'" font-size="12">Inventory staging</text>
<g transform="translate(0 -1028.4)">
	<path fill="#16A085" d="M214.094,1099.025v2v1v3v1v5v1c0,1.105,0.896,2,2,2h14c1.105,0,2-0.895,2-2v-1v-5v-4v-3H214.094z"/>
	<path fill="#ECF0F1" d="M214.094,1098.025v2v1v3v1v5v1c0,1.1,0.896,2,2,2h14c1.105,0,2-0.9,2-2v-1v-5v-4v-3H214.094z"/>
	<path fill="#BDC3C7" d="M214.094,1097.025v2v1v3v1v5v1c0,1.1,0.896,2,2,2h14c1.105,0,2-0.9,2-2v-1v-5v-4v-3H214.094z"/>
	<path fill="#ECF0F1" d="M214.094,1096.025v2v1v3v1v5v1c0,1.1,0.896,2,2,2h14c1.105,0,2-0.9,2-2v-1v-5v-4v-3H214.094z"/>
	<path fill="#16A085" d="M216.094,1092.025c-1.104,0-2,0.896-2,2v1v4v2v1v3v1v5v1c0,1.105,0.896,2,2,2h2v-1h-1.5
		c-0.828,0-1.5-0.672-1.5-1.5s0.672-1.5,1.5-1.5h12.5h1c1.105,0,2-0.895,2-2v-1v-5v-4v-3v-1c0-1.104-0.895-2-2-2h-4H216.094z"/>
	<path fill="#1ABC9C" d="M219.094,1092.025v18h1h9h1c1.105,0,2-0.895,2-2v-1v-5v-4v-3v-1c0-1.104-0.895-2-2-2h-4h-6H219.094z"/>
</g>
<text transform="matrix(1 0 0 1 61.0938 189.625)" font-family="'Helvetica'" font-size="12">Role common</text>
<g transform="translate(0 -1028.4)">
	<path fill="#16A085" d="M32.256,1209.939c-1.714-0.2-3.283,1.899-2.357,3.5c1.008,0.6,1.747,2.5,0.415,3.199
		c-1.411,0.801-3.31-0.301-4.56,0.899c-1.004,1.101-0.465,2.7-0.571,4.101c-0.022,2.601-0.079,5.199,0.045,7.801
		c0.315,1.3,1.784,1.6,2.896,1.6c0.977,0,2.112-0.1,2.693-1c0.758-1.199-0.895-2-1.199-3.1c-0.538-1.602,1.068-3.102,2.616-3
		c1.503,0,3,1.5,2.487,3c-0.549,1-2.002,2.1-1.11,3.3c1.005,1,2.618,0.7,3.917,0.7c1.367-0.301,1.951-1.9,1.592-3.102
		c-0.09-1.1,0.229-2.5,1.441-2.8c1.355-0.1,2.018,1.8,3.443,1.5c1.715-0.2,2.709-2.3,1.902-3.8c-0.49-1.102-1.961-2-3.084-1.2
		c-0.824,0.7-2.158,1.9-3.18,0.7c-1.162-1.3,0.197-3.4-1.061-4.7c-1.295-1.3-3.36,0.101-4.703-1.1c-0.971-0.802-0.271-2,0.397-2.801
		c1.192-1,0.372-3.1-1.022-3.6C32.936,1209.939,32.592,1209.939,32.256,1209.939z"/>
	<path fill="#1ABC9C" d="M32.217,1209.039c-1.713-0.2-3.282,1.9-2.357,3.4c1.009,0.699,1.748,2.5,0.416,3.3
		c-1.411,0.8-3.309-0.399-4.56,0.899c-1.003,1.101-0.464,2.699-0.571,4.101c-0.021,2.601-0.079,5.2,0.045,7.8
		c0.316,1.301,1.785,1.5,2.896,1.5c0.976,0.101,2.111,0,2.691-0.899c0.759-1.3-0.894-2.101-1.199-3.101
		c-0.537-1.6,1.07-3.199,2.617-3.1c1.504,0,3,1.6,2.488,3.1c-0.549,1-2.002,2-1.111,3.2c1.004,1.101,2.617,0.8,3.918,0.7
		c1.367-0.301,1.951-1.801,1.59-3.102c-0.088-1,0.23-2.5,1.443-2.699c1.354-0.1,2.016,1.801,3.443,1.5
		c1.713-0.199,2.707-2.301,1.9-3.801c-0.49-1.1-1.959-2-3.084-1.3c-0.822,0.8-2.156,2-3.178,0.8c-1.162-1.398,0.197-3.398-1.062-4.8
		c-1.295-1.3-3.359,0.101-4.701-1c-0.971-0.8-0.271-2.1,0.396-2.8c1.192-1.101,0.372-3.101-1.021-3.601
		C32.898,1209.039,32.553,1209.039,32.217,1209.039z"/>
</g>
<text transform="matrix(1 0 0 1 250.0938 189.625)" font-family="'Helvetica'" font-size="12">Role servers</text>
<g transform="translate(0 -1028.4)">
	<path fill="#16A085" d="M221.256,1209.939c-1.714-0.201-3.283,1.898-2.357,3.5c1.008,0.6,1.747,2.5,0.415,3.199
		c-1.411,0.801-3.31-0.301-4.56,0.899c-1.004,1.101-0.465,2.699-0.571,4.101c-0.022,2.6-0.079,5.199,0.045,7.801
		c0.315,1.299,1.784,1.6,2.896,1.6c0.977,0,2.112-0.1,2.693-1c0.758-1.201-0.895-2-1.199-3.1c-0.538-1.602,1.068-3.102,2.616-3
		c1.503,0,3,1.5,2.487,3c-0.549,1-2.002,2.1-1.11,3.299c1.005,1,2.618,0.701,3.917,0.701c1.367-0.301,1.951-1.9,1.592-3.102
		c-0.09-1.101,0.229-2.5,1.441-2.8c1.355-0.1,2.018,1.8,3.443,1.5c1.715-0.2,2.709-2.301,1.902-3.801
		c-0.49-1.101-1.961-2-3.084-1.199c-0.824,0.699-2.158,1.9-3.18,0.699c-1.162-1.299,0.197-3.399-1.061-4.699
		c-1.295-1.301-3.36,0.101-4.703-1.1c-0.971-0.802-0.271-2,0.397-2.801c1.192-1,0.372-3.1-1.022-3.6
		C221.936,1209.939,221.592,1209.939,221.256,1209.939z"/>
	<path fill="#1ABC9C" d="M221.217,1209.039c-1.713-0.201-3.282,1.9-2.357,3.4c1.009,0.699,1.748,2.5,0.416,3.299
		c-1.411,0.801-3.309-0.4-4.56,0.9c-1.003,1.1-0.464,2.699-0.571,4.1c-0.021,2.6-0.079,5.201,0.045,7.801
		c0.316,1.301,1.785,1.5,2.896,1.5c0.976,0.1,2.111,0,2.691-0.9c0.759-1.301-0.894-2.1-1.199-3.1c-0.537-1.6,1.07-3.199,2.617-3.1
		c1.504,0,3,1.6,2.488,3.1c-0.549,1-2.002,2-1.111,3.199c1.004,1.1,2.617,0.801,3.918,0.701c1.367-0.301,1.951-1.801,1.59-3.102
		c-0.088-1,0.23-2.5,1.443-2.699c1.354-0.101,2.016,1.801,3.443,1.5c1.713-0.199,2.707-2.301,1.9-3.801
		c-0.49-1.101-1.959-2-3.084-1.3c-0.822,0.8-2.156,2-3.178,0.8c-1.162-1.398,0.197-3.398-1.062-4.8
		c-1.295-1.301-3.359,0.101-4.701-1c-0.971-0.801-0.271-2.1,0.396-2.801c1.192-1.1,0.372-3.1-1.021-3.6
		C221.898,1209.039,221.553,1209.039,221.217,1209.039z"/>
</g>
<text transform="matrix(1 0 0 1 439.0938 189.625)" font-family="'Helvetica'" font-size="12">Role apache</text>
<g transform="translate(0 -1028.4)">
	<path fill="#16A085" d="M410.256,1209.939c-1.714-0.201-3.283,1.898-2.357,3.5c1.009,0.6,1.748,2.5,0.416,3.199
		c-1.412,0.801-3.311-0.301-4.561,0.899c-1.004,1.101-0.465,2.699-0.57,4.101c-0.022,2.6-0.08,5.199,0.045,7.801
		c0.314,1.299,1.783,1.6,2.896,1.6c0.978,0,2.112-0.1,2.692-1c0.758-1.201-0.896-2-1.199-3.1c-0.537-1.602,1.068-3.102,2.617-3
		c1.502,0,3,1.5,2.485,3c-0.549,1-2.002,2.1-1.108,3.299c1.004,1,2.617,0.701,3.916,0.701c1.367-0.301,1.951-1.9,1.594-3.102
		c-0.092-1.101,0.229-2.5,1.439-2.8c1.354-0.1,2.02,1.8,3.442,1.5c1.715-0.2,2.709-2.301,1.902-3.801
		c-0.49-1.101-1.963-2-3.085-1.199c-0.823,0.699-2.157,1.9-3.182,0.699c-1.162-1.299,0.197-3.399-1.061-4.699
		c-1.295-1.301-3.36,0.101-4.703-1.1c-0.971-0.802-0.271-2,0.396-2.801c1.191-1,0.371-3.1-1.021-3.6
		C410.936,1209.939,410.592,1209.939,410.256,1209.939z"/>
	<path fill="#1ABC9C" d="M410.217,1209.039c-1.713-0.201-3.281,1.9-2.357,3.4c1.011,0.699,1.748,2.5,0.416,3.299
		c-1.409,0.801-3.309-0.4-4.56,0.9c-1.003,1.1-0.464,2.699-0.571,4.1c-0.021,2.6-0.078,5.201,0.045,7.801
		c0.316,1.301,1.785,1.5,2.896,1.5c0.977,0.1,2.111,0,2.691-0.9c0.758-1.301-0.896-2.1-1.199-3.1c-0.537-1.6,1.068-3.199,2.617-3.1
		c1.504,0,3,1.6,2.486,3.1c-0.549,1-2.002,2-1.109,3.199c1.004,1.1,2.615,0.801,3.918,0.701c1.365-0.301,1.949-1.801,1.59-3.102
		c-0.088-1,0.229-2.5,1.441-2.699c1.354-0.101,2.018,1.801,3.442,1.5c1.713-0.199,2.707-2.301,1.898-3.801
		c-0.488-1.101-1.959-2-3.085-1.3c-0.819,0.8-2.153,2-3.178,0.8c-1.162-1.398,0.197-3.398-1.062-4.8
		c-1.296-1.301-3.359,0.101-4.701-1c-0.972-0.801-0.271-2.1,0.396-2.801c1.192-1.1,0.373-3.1-1.021-3.6
		C410.896,1209.039,410.553,1209.039,410.217,1209.039z"/>
</g>
<text transform="matrix(1 0 0 1 88.0938 108.625)" font-family="'Helvetica'" font-size="12">Variables</text>
<g>
	<path fill="#7F8C8D" d="M56.19,99.725v1l3.906,3.9l-1,3l-3,1l-3.906-3.9c-0.055,0.301-0.094,0.5-0.094,0.9c0,0-0.004,0.1,0,0.2
		c-0.004,0.1,0,0.2,0,0.3c0,3,2.463,5.5,5.5,5.5c0.46,0,0.887-0.1,1.312-0.2l2.154,2.101l4.03,4.102l3,3c0.508,0.5,1.215,0.8,2,0.8
		c1.542,0,2.781-1.198,2.781-2.8c0-0.8-0.297-1.5-0.779-2l-0.032-0.102l-2.97-2.898l-4.03-4.102l-2.154-2.101
		c0.104-0.5,0.188-0.899,0.188-1.3c0-3.1-2.462-5.5-5.5-5.5H57.19v-0.9H56.19z M70.096,117.125c0.828,0,1.5,0.6,1.5,1.5
		c0,0.8-0.672,1.5-1.5,1.5c-0.828,0-1.5-0.7-1.5-1.5C68.596,117.725,69.268,117.125,70.096,117.125z"/>
	<path fill="#95A5A6" d="M57.096,99.625c-0.312,0-0.609,0-0.906,0.1l3.906,3.9l-1,3l-3,1l-3.906-3.9
		c-0.055,0.301-0.094,0.5-0.094,0.9c0,0-0.004,0.1,0,0.2c-0.004,0.1,0,0.2,0,0.3c0,3,2.463,5.5,5.5,5.5c0.46,0,0.887-0.1,1.312-0.2
		l2.154,2.101l4.03,4.102l3,3c0.508,0.5,1.215,0.8,2,0.8c1.542,0,2.781-1.198,2.781-2.8c0-0.8-0.297-1.5-0.779-2l-0.032-0.102
		l-2.97-2.898l-4.03-4.102l-2.154-2.101c0.104-0.5,0.188-0.899,0.188-1.3c0-3.1-2.462-5.5-5.5-5.5H57.096z M70.096,116.125
		c0.828,0,1.5,0.6,1.5,1.5c0,0.8-0.672,1.5-1.5,1.5c-0.828,0-1.5-0.7-1.5-1.5C68.596,116.725,69.268,116.125,70.096,116.125z"/>
	<path fill="#7F8C8D" d="M62.096,108.625l-1.97,1.9l-0.03,0.1c0.008,0-0.006,0,0,0c0,0-0.003,0,0,0.1c0.076,0.2,0.062,0.5,0,0.9
		l0.97,0.9l2.03,2.1c0.365-0.1,0.72-0.1,1,0l2-2l-0.5-0.5l-1-1l1.5-1.5l-1-1l-1.5,1.5L62.096,108.625z"/>
	<path fill="#BDC3C7" d="M62.596,110.125l1,1l9-9l-1-1L62.596,110.125z"/>
	<path fill="#95A5A6" d="M72.096,101.625l-9,9l0.5,0.5l9-9L72.096,101.625z"/>
	<path fill="#95A5A6" d="M73.096,99.625l-2.5,1.5l2,2l1.5-2.5L73.096,99.625z"/>
	<g>
		<path fill="#F39C12" d="M62.096,107.625l-2,2c0.338,0.8-0.416,2.4-1,3c-0.584,0.5-2.116,1.3-3,1l-4,4l4,4l4-4
			c-0.338-0.9,0.416-2.5,1-3c0.584-0.6,2.116-1.4,3-1l2-2L62.096,107.625z"/>
		<path fill="#F1C40F" d="M62.096,107.625l-2,2c0.338,0.8-0.416,2.4-1,3c-0.584,0.5-2.116,1.3-3,1l-4,4l2,2l10-10L62.096,107.625z"
			/>
		<path fill="#E67E22" d="M60.126,109.525l-0.03,0.1c0.012,0-0.01,0,0,0.1C60.106,109.625,60.119,109.625,60.126,109.525z
			 M65.596,111.125l-1.5,1.5c-0.884-0.4-2.416,0.4-3,1c-0.564,0.5-1.258,2-1,2.9c0.176-0.801,0.62-1.603,1-1.9
			c0.584-0.6,2.116-1.4,3-1l2-2L65.596,111.125z M60.066,116.625l-3.97,4l-3.5-3.5l-0.5,0.5l4,4l4-4
			C59.991,117.325,59.996,116.925,60.066,116.625z"/>
	</g>
</g>
<path fill="#95A5A6" d="M54.094,226.625c-1.104,0-2,0.9-2,2v18c0,1.1,0.896,2,2,2h14c1.105,0,2-0.9,2-2v-14l-6-6H54.094z"/>
<path fill="#BDC3C7" d="M54.094,225.625c-1.104,0-2,0.9-2,2v18c0,1.1,0.896,2,2,2h14c1.105,0,2-0.9,2-2v-14l-6-6H54.094z"/>
<path fill="#95A5A6" d="M70.094,231.625l-6-6v4c0,1.1,0.896,2,2,2H70.094z"/>
<text transform="matrix(1 0 0 1 88.0938 234.625)" font-family="'Helvetica'" font-size="12">Public keys</text>
<path fill="#2C3E50" d="M54.094,270.625c-1.104,0-2,0.9-2,2v16c0,1.1,0.896,2,2,2h18c1.105,0,2-0.9,2-2v-16c0-1.1-0.895-2-2-2
	H54.094z"/>
<path fill="#34495E" d="M54.094,270.625c-1.104,0-2,0.896-2,2v15c0,1.105,0.896,2,2,2h18c1.105,0,2-0.895,2-2v-15
	c0-1.104-0.895-2-2-2H54.094z"/>
<path fill="#ECF0F1" d="M55.094,273.75v1.125l3,1.75l-3,1.75v1.125l5-2.875L55.094,273.75z M60.094,278.625v1h5v-1H60.094z"/>
<text transform="matrix(1 0 0 1 88.0938 279.625)" font-family="'Helvetica'" font-size="12">Setup</text>
<text transform="matrix(1 0 0 1 277.0938 234.625)" font-family="'Helvetica'" font-size="12">List of servers</text>
<path fill="#2C3E50" d="M243.094,270.625c-1.104,0-2,0.9-2,2v16c0,1.1,0.896,2,2,2h18c1.105,0,2-0.9,2-2v-16c0-1.1-0.895-2-2-2
	H243.094z"/>
<path fill="#34495E" d="M243.094,270.625c-1.104,0-2,0.896-2,2v15c0,1.105,0.896,2,2,2h18c1.105,0,2-0.895,2-2v-15
	c0-1.104-0.895-2-2-2H243.094z"/>
<path fill="#ECF0F1" d="M244.094,273.75v1.125l3,1.75l-3,1.75v1.125l5-2.875L244.094,273.75z M249.094,278.625v1h5v-1H249.094z"/>
<text transform="matrix(1 0 0 1 277.0938 279.625)" font-family="'Helvetica'" font-size="12">Server creation</text>
<path fill="#2C3E50" d="M243.094,315.625c-1.104,0-2,0.9-2,2v16c0,1.1,0.896,2,2,2h18c1.105,0,2-0.9,2-2v-16c0-1.1-0.895-2-2-2
	H243.094z"/>
<path fill="#34495E" d="M243.094,315.625c-1.104,0-2,0.896-2,2v15c0,1.105,0.896,2,2,2h18c1.105,0,2-0.895,2-2v-15
	c0-1.104-0.895-2-2-2H243.094z"/>
<path fill="#ECF0F1" d="M244.094,318.75v1.125l3,1.75l-3,1.75v1.125l5-2.875L244.094,318.75z M249.094,323.625v1h5v-1H249.094z"/>
<text transform="matrix(1 0 0 1 277.0938 324.625)" font-family="'Helvetica'" font-size="12">Domain setup</text>
<path fill="none" stroke="#BDC3C7" stroke-miterlimit="10" stroke-dasharray="4,4" d="M16.094,171.625h180v180h-180V171.625z"/>
<g>
	<path fill="#7F8C8D" d="M245.19,225.725v1l3.906,3.9l-1,3l-3,1l-3.906-3.9c-0.055,0.301-0.094,0.5-0.094,0.9c0,0-0.004,0.1,0,0.2
		c-0.004,0.1,0,0.2,0,0.3c0,3,2.463,5.5,5.5,5.5c0.46,0,0.887-0.1,1.312-0.2l2.153,2.101l4.03,4.104l3,3
		c0.508,0.5,1.215,0.801,2,0.801c1.542,0,2.781-1.197,2.781-2.801c0-0.8-0.297-1.5-0.779-2l-0.032-0.104l-2.97-2.896l-4.03-4.104
		l-2.153-2.101c0.104-0.5,0.188-0.899,0.188-1.3c0-3.1-2.462-5.5-5.5-5.5h-0.406v-0.9H245.19z M259.096,243.125
		c0.828,0,1.5,0.6,1.5,1.5c0,0.8-0.672,1.5-1.5,1.5c-0.828,0-1.5-0.7-1.5-1.5C257.596,243.725,258.268,243.125,259.096,243.125z"/>
	<path fill="#95A5A6" d="M246.096,225.625c-0.312,0-0.609,0-0.906,0.1l3.906,3.9l-1,3l-3,1l-3.906-3.9
		c-0.055,0.301-0.094,0.5-0.094,0.9c0,0-0.004,0.1,0,0.2c-0.004,0.1,0,0.2,0,0.3c0,3,2.463,5.5,5.5,5.5c0.46,0,0.887-0.1,1.312-0.2
		l2.153,2.101l4.03,4.104l3,3c0.508,0.5,1.215,0.801,2,0.801c1.542,0,2.781-1.197,2.781-2.801c0-0.8-0.297-1.5-0.779-2l-0.032-0.104
		l-2.97-2.896l-4.03-4.104l-2.153-2.101c0.104-0.5,0.188-0.899,0.188-1.3c0-3.1-2.462-5.5-5.5-5.5H246.096z M259.096,242.125
		c0.828,0,1.5,0.6,1.5,1.5c0,0.8-0.672,1.5-1.5,1.5c-0.828,0-1.5-0.7-1.5-1.5C257.596,242.725,258.268,242.125,259.096,242.125z"/>
	<path fill="#7F8C8D" d="M251.096,234.625l-1.971,1.9l-0.029,0.1c0.008,0-0.006,0,0,0c0,0-0.003,0,0,0.1c0.076,0.2,0.062,0.5,0,0.9
		l0.971,0.9l2.029,2.1c0.365-0.1,0.721-0.1,1,0l2-2l-0.5-0.5l-1-1l1.5-1.5l-1-1l-1.5,1.5L251.096,234.625z"/>
	<path fill="#BDC3C7" d="M251.596,236.125l1,1l9-9l-1-1L251.596,236.125z"/>
	<path fill="#95A5A6" d="M261.096,227.625l-9,9l0.5,0.5l9-9L261.096,227.625z"/>
	<path fill="#95A5A6" d="M262.096,225.625l-2.5,1.5l2,2l1.5-2.5L262.096,225.625z"/>
	<g>
		<path fill="#F39C12" d="M251.096,233.625l-2,2c0.338,0.8-0.416,2.4-1,3c-0.584,0.5-2.116,1.3-3,1l-4,4l4,4l4-4
			c-0.338-0.9,0.416-2.5,1-3c0.584-0.6,2.116-1.4,3-1l2-2L251.096,233.625z"/>
		<path fill="#F1C40F" d="M251.096,233.625l-2,2c0.338,0.8-0.416,2.4-1,3c-0.584,0.5-2.116,1.3-3,1l-4,4l2,2l10-10L251.096,233.625z
			"/>
		<path fill="#E67E22" d="M249.125,235.525l-0.029,0.1c0.012,0-0.01,0,0,0.1C249.106,235.625,249.119,235.625,249.125,235.525z
			 M254.596,237.125l-1.5,1.5c-0.884-0.4-2.416,0.4-3,1c-0.564,0.5-1.258,2-1,2.9c0.176-0.801,0.62-1.604,1-1.9
			c0.584-0.6,2.116-1.4,3-1l2-2L254.596,237.125z M249.067,242.625l-3.971,4l-3.5-3.5l-0.5,0.5l4,4l4-4
			C248.99,243.325,248.996,242.925,249.067,242.625z"/>
	</g>
</g>
<text transform="matrix(1 0 0 1 466.0938 234.625)" font-family="'Helvetica'" font-size="12">Virtual hosts</text>
<g>
	<path fill="#7F8C8D" d="M434.189,225.725v1l3.905,3.9l-1,3l-3,1l-3.905-3.9c-0.056,0.301-0.095,0.5-0.095,0.9c0,0-0.004,0.1,0,0.2
		c-0.004,0.1,0,0.2,0,0.3c0,3,2.463,5.5,5.5,5.5c0.46,0,0.888-0.1,1.312-0.2l2.15,2.101l4.03,4.104l3,3
		c0.508,0.5,1.215,0.801,2,0.801c1.542,0,2.781-1.197,2.781-2.801c0-0.8-0.297-1.5-0.779-2l-0.032-0.104l-2.97-2.896l-4.03-4.104
		l-2.15-2.101c0.104-0.5,0.188-0.899,0.188-1.3c0-3.1-2.462-5.5-5.5-5.5h-0.405v-0.9H434.189z M448.096,243.125
		c0.828,0,1.5,0.6,1.5,1.5c0,0.8-0.672,1.5-1.5,1.5s-1.5-0.7-1.5-1.5C446.596,243.725,447.268,243.125,448.096,243.125z"/>
	<path fill="#95A5A6" d="M435.096,225.625c-0.312,0-0.608,0-0.905,0.1l3.905,3.9l-1,3l-3,1l-3.905-3.9
		c-0.056,0.301-0.095,0.5-0.095,0.9c0,0-0.004,0.1,0,0.2c-0.004,0.1,0,0.2,0,0.3c0,3,2.463,5.5,5.5,5.5c0.46,0,0.888-0.1,1.312-0.2
		l2.15,2.101l4.03,4.104l3,3c0.508,0.5,1.215,0.801,2,0.801c1.542,0,2.781-1.197,2.781-2.801c0-0.8-0.297-1.5-0.779-2l-0.032-0.104
		l-2.97-2.896l-4.03-4.104l-2.15-2.101c0.104-0.5,0.188-0.899,0.188-1.3c0-3.1-2.462-5.5-5.5-5.5H435.096z M448.096,242.125
		c0.828,0,1.5,0.6,1.5,1.5c0,0.8-0.672,1.5-1.5,1.5s-1.5-0.7-1.5-1.5C446.596,242.725,447.268,242.125,448.096,242.125z"/>
	<path fill="#7F8C8D" d="M440.096,234.625l-1.971,1.9l-0.029,0.1c0.008,0-0.006,0,0,0c0,0-0.003,0,0,0.1c0.076,0.2,0.062,0.5,0,0.9
		l0.972,0.9l2.028,2.1c0.365-0.1,0.722-0.1,1,0l2-2l-0.5-0.5l-1-1l1.5-1.5l-1-1l-1.5,1.5L440.096,234.625z"/>
	<path fill="#BDC3C7" d="M440.596,236.125l1,1l9-9l-1-1L440.596,236.125z"/>
	<path fill="#95A5A6" d="M450.096,227.625l-9,9l0.5,0.5l9-9L450.096,227.625z"/>
	<path fill="#95A5A6" d="M451.096,225.625l-2.5,1.5l2,2l1.5-2.5L451.096,225.625z"/>
	<g>
		<path fill="#F39C12" d="M440.096,233.625l-2,2c0.338,0.8-0.416,2.4-1,3c-0.584,0.5-2.115,1.3-3,1l-4,4l4,4l4-4
			c-0.338-0.9,0.416-2.5,1-3c0.584-0.6,2.116-1.4,3-1l2-2L440.096,233.625z"/>
		<path fill="#F1C40F" d="M440.096,233.625l-2,2c0.338,0.8-0.416,2.4-1,3c-0.584,0.5-2.115,1.3-3,1l-4,4l2,2l10-10L440.096,233.625z
			"/>
		<path fill="#E67E22" d="M438.125,235.525l-0.029,0.1c0.013,0-0.01,0,0,0.1C438.105,235.625,438.119,235.625,438.125,235.525z
			 M443.596,237.125l-1.5,1.5c-0.884-0.4-2.416,0.4-3,1c-0.563,0.5-1.258,2-1,2.9c0.176-0.801,0.62-1.604,1-1.9
			c0.584-0.6,2.116-1.4,3-1l2-2L443.596,237.125z M438.066,242.625l-3.972,4l-3.5-3.5l-0.5,0.5l4,4l4-4
			C437.99,243.325,437.996,242.925,438.066,242.625z"/>
	</g>
</g>
<path fill="#95A5A6" d="M432.094,316.625c-1.104,0-2,0.9-2,2v18c0,1.1,0.896,2,2,2h14c1.105,0,2-0.9,2-2v-14l-6-6H432.094z"/>
<path fill="#BDC3C7" d="M432.094,315.625c-1.104,0-2,0.9-2,2v18c0,1.1,0.896,2,2,2h14c1.105,0,2-0.9,2-2v-14l-6-6H432.094z"/>
<path fill="#95A5A6" d="M448.094,321.625l-6-6v4c0,1.1,0.896,2,2,2H448.094z"/>
<text transform="matrix(1 0 0 1 466.0938 324.625)" font-family="'Helvetica'" font-size="12">Configuration files</text>
<path fill="#2C3E50" d="M432.094,270.625c-1.104,0-2,0.9-2,2v16c0,1.1,0.896,2,2,2h18c1.105,0,2-0.9,2-2v-16c0-1.1-0.895-2-2-2
	H432.094z"/>
<path fill="#34495E" d="M432.094,270.625c-1.104,0-2,0.896-2,2v15c0,1.105,0.896,2,2,2h18c1.105,0,2-0.895,2-2v-15
	c0-1.104-0.895-2-2-2H432.094z"/>
<path fill="#ECF0F1" d="M433.094,273.75v1.125l3,1.75l-3,1.75v1.125l5-2.875L433.094,273.75z M438.094,278.625v1h5v-1H438.094z"/>
<text transform="matrix(1 0 0 1 466.0938 279.625)" font-family="'Helvetica'" font-size="12">Installation</text>
<path fill="none" stroke="#BDC3C7" stroke-miterlimit="10" stroke-dasharray="4,4" d="M205.094,171.625h180v180h-180V171.625z"/>
<path fill="none" stroke="#BDC3C7" stroke-miterlimit="10" stroke-dasharray="4,4" d="M394.094,171.625h180v180h-180V171.625z"/>
<text transform="matrix(1 0 0 1 279.0918 109.625)" font-family="'Helvetica'" font-size="12">Variables</text>
<g>
	<path fill="#7F8C8D" d="M247.188,100.725v1l3.906,3.9l-1,3l-3,1l-3.906-3.9c-0.055,0.301-0.094,0.5-0.094,0.9c0,0-0.004,0.1,0,0.2
		c-0.004,0.1,0,0.2,0,0.3c0,3,2.463,5.5,5.5,5.5c0.46,0,0.887-0.1,1.312-0.2l2.153,2.101l4.03,4.102l3,3c0.508,0.5,1.215,0.8,2,0.8
		c1.542,0,2.781-1.198,2.781-2.8c0-0.8-0.297-1.5-0.779-2l-0.032-0.102l-2.97-2.898l-4.03-4.102l-2.153-2.101
		c0.104-0.5,0.188-0.899,0.188-1.3c0-3.1-2.462-5.5-5.5-5.5h-0.406v-0.9H247.188z M261.094,118.125c0.828,0,1.5,0.6,1.5,1.5
		c0,0.8-0.672,1.5-1.5,1.5c-0.828,0-1.5-0.7-1.5-1.5C259.594,118.725,260.266,118.125,261.094,118.125z"/>
	<path fill="#95A5A6" d="M248.094,100.625c-0.312,0-0.609,0-0.906,0.1l3.906,3.9l-1,3l-3,1l-3.906-3.9
		c-0.055,0.301-0.094,0.5-0.094,0.9c0,0-0.004,0.1,0,0.2c-0.004,0.1,0,0.2,0,0.3c0,3,2.463,5.5,5.5,5.5c0.46,0,0.887-0.1,1.312-0.2
		l2.153,2.101l4.03,4.102l3,3c0.508,0.5,1.215,0.8,2,0.8c1.542,0,2.781-1.198,2.781-2.8c0-0.8-0.297-1.5-0.779-2l-0.032-0.102
		l-2.97-2.898l-4.03-4.102l-2.153-2.101c0.104-0.5,0.188-0.899,0.188-1.3c0-3.1-2.462-5.5-5.5-5.5H248.094z M261.094,117.125
		c0.828,0,1.5,0.6,1.5,1.5c0,0.8-0.672,1.5-1.5,1.5c-0.828,0-1.5-0.7-1.5-1.5C259.594,117.725,260.266,117.125,261.094,117.125z"/>
	<path fill="#7F8C8D" d="M253.094,109.625l-1.971,1.9l-0.029,0.1c0.008,0-0.006,0,0,0c0,0-0.003,0,0,0.1c0.076,0.2,0.062,0.5,0,0.9
		l0.971,0.9l2.029,2.1c0.365-0.1,0.721-0.1,1,0l2-2l-0.5-0.5l-1-1l1.5-1.5l-1-1l-1.5,1.5L253.094,109.625z"/>
	<path fill="#BDC3C7" d="M253.594,111.125l1,1l9-9l-1-1L253.594,111.125z"/>
	<path fill="#95A5A6" d="M263.094,102.625l-9,9l0.5,0.5l9-9L263.094,102.625z"/>
	<path fill="#95A5A6" d="M264.094,100.625l-2.5,1.5l2,2l1.5-2.5L264.094,100.625z"/>
	<g>
		<path fill="#F39C12" d="M253.094,108.625l-2,2c0.338,0.8-0.416,2.4-1,3c-0.584,0.5-2.116,1.3-3,1l-4,4l4,4l4-4
			c-0.338-0.9,0.416-2.5,1-3c0.584-0.6,2.116-1.4,3-1l2-2L253.094,108.625z"/>
		<path fill="#F1C40F" d="M253.094,108.625l-2,2c0.338,0.8-0.416,2.4-1,3c-0.584,0.5-2.116,1.3-3,1l-4,4l2,2l10-10L253.094,108.625z
			"/>
		<path fill="#E67E22" d="M251.123,110.525l-0.029,0.1c0.012,0-0.01,0,0,0.1C251.104,110.625,251.117,110.625,251.123,110.525z
			 M256.594,112.125l-1.5,1.5c-0.884-0.4-2.416,0.4-3,1c-0.564,0.5-1.258,2-1,2.9c0.176-0.801,0.62-1.603,1-1.9
			c0.584-0.6,2.116-1.4,3-1l2-2L256.594,112.125z M251.065,117.625l-3.971,4l-3.5-3.5l-0.5,0.5l4,4l4-4
			C250.989,118.325,250.994,117.925,251.065,117.625z"/>
	</g>
</g>
<path fill="none" stroke="#BDC3C7" stroke-miterlimit="10" stroke-dasharray="4,4" d="M16.094,54.625h180v90h-180V54.625z"/>
<path fill="none" stroke="#BDC3C7" stroke-miterlimit="10" stroke-dasharray="4,4" d="M205.094,54.625h180v90h-180V54.625z"/>
<text transform="matrix(1 0 0 1 61.0938 378.625)" font-family="'Helvetica'" font-size="12">Role php</text>
<g transform="translate(0 -1028.4)">
	<path fill="#16A085" d="M32.256,1398.939c-1.714-0.201-3.283,1.897-2.357,3.5c1.008,0.6,1.747,2.5,0.415,3.199
		c-1.411,0.801-3.31-0.302-4.56,0.898c-1.004,1.102-0.465,2.699-0.571,4.102c-0.021,2.6-0.079,5.198,0.045,7.801
		c0.315,1.299,1.784,1.6,2.896,1.6c0.977,0,2.11-0.1,2.691-1c0.759-1.201-0.895-2-1.197-3.1c-0.538-1.603,1.066-3.103,2.614-3
		c1.503,0,3,1.5,2.487,3c-0.549,1-2.002,2.1-1.11,3.299c1.006,1,2.618,0.701,3.917,0.701c1.367-0.301,1.951-1.9,1.594-3.103
		c-0.092-1.101,0.229-2.5,1.439-2.8c1.355-0.1,2.02,1.8,3.443,1.5c1.715-0.2,2.709-2.301,1.9-3.801
		c-0.488-1.102-1.961-2-3.084-1.199c-0.822,0.699-2.156,1.9-3.18,0.699c-1.162-1.299,0.197-3.399-1.061-4.699
		c-1.295-1.301-3.36,0.102-4.703-1.1c-0.972-0.803-0.271-2,0.396-2.803c1.192-1,0.372-3.1-1.021-3.6
		C32.936,1398.939,32.592,1398.939,32.256,1398.939z"/>
	<path fill="#1ABC9C" d="M32.217,1398.039c-1.713-0.201-3.282,1.9-2.357,3.4c1.011,0.699,1.748,2.5,0.416,3.299
		c-1.409,0.801-3.309-0.4-4.56,0.9c-1.003,1.1-0.464,2.698-0.571,4.1c-0.021,2.6-0.079,5.201,0.045,7.801
		c0.316,1.301,1.785,1.5,2.896,1.5c0.976,0.101,2.111,0,2.689-0.899c0.761-1.302-0.894-2.101-1.197-3.101
		c-0.537-1.6,1.068-3.199,2.615-3.1c1.506,0,3,1.6,2.488,3.1c-0.549,1-2.002,2-1.111,3.199c1.006,1.1,2.617,0.801,3.92,0.701
		c1.365-0.301,1.949-1.801,1.59-3.103c-0.088-1,0.229-2.5,1.441-2.698c1.354-0.102,2.018,1.801,3.443,1.5
		c1.713-0.199,2.707-2.302,1.9-3.802c-0.49-1.101-1.959-2-3.084-1.3c-0.822,0.8-2.156,2-3.18,0.8
		c-1.162-1.397,0.197-3.397-1.062-4.8c-1.295-1.301-3.359,0.102-4.701-1c-0.971-0.801-0.271-2.1,0.396-2.801
		c1.192-1.102,0.372-3.102-1.021-3.602C32.897,1398.039,32.553,1398.039,32.217,1398.039z"/>
</g>
<text transform="matrix(1 0 0 1 88.0938 423.625)" font-family="'Helvetica'" font-size="12">Extensions</text>
<g>
	<path fill="#7F8C8D" d="M56.189,414.725v1l3.906,3.9l-1,3l-3,1l-3.906-3.9c-0.055,0.302-0.094,0.5-0.094,0.9c0,0-0.004,0.1,0,0.2
		c-0.004,0.1,0,0.2,0,0.3c0,3,2.463,5.5,5.5,5.5c0.46,0,0.887-0.1,1.312-0.2l2.151,2.102l4.03,4.104l3,3
		c0.508,0.5,1.215,0.801,2,0.801c1.542,0,2.781-1.196,2.781-2.801c0-0.8-0.297-1.5-0.779-2l-0.032-0.104l-2.97-2.896l-4.03-4.104
		l-2.151-2.102c0.104-0.5,0.188-0.898,0.188-1.3c0-3.1-2.462-5.5-5.5-5.5h-0.406v-0.9H56.189z M70.096,432.125
		c0.828,0,1.5,0.6,1.5,1.5c0,0.8-0.672,1.5-1.5,1.5c-0.828,0-1.5-0.7-1.5-1.5C68.596,432.725,69.268,432.125,70.096,432.125z"/>
	<path fill="#95A5A6" d="M57.096,414.625c-0.312,0-0.609,0-0.906,0.1l3.906,3.9l-1,3l-3,1l-3.906-3.9
		c-0.055,0.302-0.094,0.5-0.094,0.9c0,0-0.004,0.1,0,0.2c-0.004,0.1,0,0.2,0,0.3c0,3,2.463,5.5,5.5,5.5c0.46,0,0.887-0.1,1.312-0.2
		l2.151,2.102l4.03,4.104l3,3c0.508,0.5,1.215,0.801,2,0.801c1.542,0,2.781-1.196,2.781-2.801c0-0.8-0.297-1.5-0.779-2l-0.032-0.104
		l-2.97-2.896l-4.03-4.104l-2.151-2.102c0.104-0.5,0.188-0.898,0.188-1.3c0-3.1-2.462-5.5-5.5-5.5H57.096z M70.096,431.125
		c0.828,0,1.5,0.6,1.5,1.5c0,0.8-0.672,1.5-1.5,1.5c-0.828,0-1.5-0.7-1.5-1.5C68.596,431.725,69.268,431.125,70.096,431.125z"/>
	<path fill="#7F8C8D" d="M62.096,423.625l-1.971,1.9l-0.029,0.1c0.008,0-0.006,0,0,0c0,0-0.003,0,0,0.1c0.076,0.2,0.062,0.5,0,0.9
		l0.971,0.9l2.029,2.1c0.365-0.1,0.721-0.1,1,0l2-2l-0.5-0.5l-1-1l1.5-1.5l-1-1l-1.5,1.5L62.096,423.625z"/>
	<path fill="#BDC3C7" d="M62.596,425.125l1,1l9-9l-1-1L62.596,425.125z"/>
	<path fill="#95A5A6" d="M72.096,416.625l-9,9l0.5,0.5l9-9L72.096,416.625z"/>
	<path fill="#95A5A6" d="M73.096,414.625l-2.5,1.5l2,2l1.5-2.5L73.096,414.625z"/>
	<g>
		<path fill="#F39C12" d="M62.096,422.625l-2,2c0.338,0.8-0.416,2.4-1,3c-0.584,0.5-2.116,1.3-3,1l-4,4l4,4l4-4
			c-0.338-0.9,0.416-2.5,1-3c0.584-0.6,2.116-1.4,3-1l2-2L62.096,422.625z"/>
		<path fill="#F1C40F" d="M62.096,422.625l-2,2c0.338,0.8-0.416,2.4-1,3c-0.584,0.5-2.116,1.3-3,1l-4,4l2,2l10-10L62.096,422.625z"
			/>
		<path fill="#E67E22" d="M60.125,424.525l-0.029,0.1c0.012,0-0.01,0,0,0.1C60.105,424.625,60.119,424.625,60.125,424.525z
			 M65.596,426.125l-1.5,1.5c-0.884-0.4-2.416,0.4-3,1c-0.564,0.5-1.258,2-1,2.9c0.176-0.802,0.62-1.604,1-1.9
			c0.584-0.6,2.116-1.4,3-1l2-2L65.596,426.125z M60.066,431.625l-3.971,4l-3.5-3.5l-0.5,0.5l4,4l4-4
			C59.99,432.325,59.996,431.925,60.066,431.625z"/>
	</g>
</g>
<path fill="#95A5A6" d="M54.094,505.625c-1.104,0-2,0.9-2,2v18c0,1.1,0.896,2,2,2h14c1.105,0,2-0.9,2-2v-14l-6-6H54.094z"/>
<path fill="#BDC3C7" d="M54.094,504.625c-1.104,0-2,0.9-2,2v18c0,1.1,0.896,2,2,2h14c1.105,0,2-0.9,2-2v-14l-6-6H54.094z"/>
<path fill="#95A5A6" d="M70.094,510.625l-6-6v4c0,1.1,0.896,2,2,2H70.094z"/>
<text transform="matrix(1 0 0 1 88.0938 513.625)" font-family="'Helvetica'" font-size="12">Configuration files</text>
<path fill="#2C3E50" d="M54.094,459.625c-1.104,0-2,0.9-2,2v16c0,1.1,0.896,2,2,2h18c1.105,0,2-0.9,2-2v-16c0-1.1-0.895-2-2-2
	H54.094z"/>
<path fill="#34495E" d="M54.094,459.625c-1.104,0-2,0.896-2,2v15c0,1.105,0.896,2,2,2h18c1.105,0,2-0.895,2-2v-15
	c0-1.104-0.895-2-2-2H54.094z"/>
<path fill="#ECF0F1" d="M55.094,462.75v1.125l3,1.75l-3,1.75v1.125l5-2.875L55.094,462.75z M60.094,467.625v1h5v-1H60.094z"/>
<text transform="matrix(1 0 0 1 88.0938 468.625)" font-family="'Helvetica'" font-size="12">Installation</text>
<path fill="none" stroke="#BDC3C7" stroke-miterlimit="10" stroke-dasharray="4,4" d="M16.094,360.625h180v180h-180V360.625z"/>
<text transform="matrix(1 0 0 1 628.0938 189.625)" font-family="'Helvetica'" font-size="12">Role mysql</text>
<g transform="translate(0 -1028.4)">
	<path fill="#16A085" d="M599.256,1209.939c-1.714-0.201-3.283,1.898-2.356,3.5c1.008,0.6,1.747,2.5,0.415,3.199
		c-1.411,0.801-3.311-0.301-4.561,0.899c-1.004,1.101-0.465,2.699-0.571,4.101c-0.021,2.6-0.079,5.199,0.045,7.801
		c0.315,1.299,1.784,1.6,2.896,1.6c0.977,0,2.112-0.1,2.692-1c0.758-1.201-0.896-2-1.199-3.1c-0.537-1.602,1.067-3.102,2.617-3
		c1.502,0,3,1.5,2.485,3c-0.549,1-2.002,2.1-1.108,3.299c1.004,1,2.617,0.701,3.916,0.701c1.367-0.301,1.951-1.9,1.594-3.102
		c-0.092-1.101,0.229-2.5,1.439-2.8c1.354-0.1,2.02,1.8,3.442,1.5c1.715-0.2,2.709-2.301,1.902-3.801
		c-0.49-1.101-1.963-2-3.085-1.199c-0.823,0.699-2.157,1.9-3.182,0.699c-1.162-1.299,0.197-3.399-1.061-4.699
		c-1.295-1.301-3.36,0.101-4.703-1.1c-0.971-0.802-0.271-2,0.396-2.802c1.191-1,0.371-3.1-1.021-3.6
		C599.936,1209.939,599.592,1209.939,599.256,1209.939z"/>
	<path fill="#1ABC9C" d="M599.217,1209.039c-1.713-0.201-3.282,1.9-2.356,3.4c1.01,0.699,1.748,2.5,0.416,3.299
		c-1.41,0.801-3.31-0.4-4.561,0.9c-1.003,1.1-0.464,2.699-0.571,4.1c-0.021,2.6-0.078,5.201,0.046,7.801
		c0.315,1.301,1.784,1.5,2.896,1.5c0.977,0.1,2.111,0,2.691-0.9c0.758-1.301-0.896-2.1-1.199-3.1c-0.537-1.6,1.068-3.199,2.617-3.1
		c1.504,0,3,1.6,2.486,3.1c-0.549,1-2.002,2-1.109,3.199c1.004,1.1,2.616,0.801,3.918,0.701c1.365-0.301,1.949-1.801,1.59-3.102
		c-0.088-1,0.229-2.5,1.441-2.699c1.354-0.101,2.018,1.801,3.442,1.5c1.713-0.199,2.707-2.301,1.898-3.801
		c-0.488-1.101-1.959-2-3.084-1.3c-0.82,0.8-2.154,2-3.179,0.8c-1.161-1.398,0.197-3.398-1.062-4.8
		c-1.296-1.301-3.359,0.101-4.701-1c-0.972-0.801-0.271-2.1,0.396-2.801c1.191-1.101,0.372-3.101-1.021-3.601
		C599.896,1209.039,599.553,1209.039,599.217,1209.039z"/>
</g>
<text transform="matrix(1 0 0 1 655.0938 234.625)" font-family="'Helvetica'" font-size="12">Databases, users</text>
<g>
	<path fill="#7F8C8D" d="M623.189,225.725v1l3.905,3.9l-1,3l-3,1l-3.905-3.9c-0.056,0.301-0.095,0.5-0.095,0.9c0,0-0.004,0.1,0,0.2
		c-0.004,0.1,0,0.2,0,0.3c0,3,2.463,5.5,5.5,5.5c0.46,0,0.888-0.1,1.312-0.2l2.15,2.101l4.03,4.104l3,3
		c0.508,0.5,1.215,0.801,2,0.801c1.542,0,2.781-1.197,2.781-2.801c0-0.8-0.297-1.5-0.779-2l-0.031-0.104l-2.971-2.896l-4.029-4.104
		l-2.151-2.101c0.104-0.5,0.188-0.899,0.188-1.3c0-3.1-2.462-5.5-5.5-5.5h-0.405v-0.9H623.189z M637.096,243.125
		c0.828,0,1.5,0.6,1.5,1.5c0,0.8-0.672,1.5-1.5,1.5s-1.5-0.7-1.5-1.5C635.596,243.725,636.268,243.125,637.096,243.125z"/>
	<path fill="#95A5A6" d="M624.096,225.625c-0.312,0-0.608,0-0.905,0.1l3.905,3.9l-1,3l-3,1l-3.905-3.9
		c-0.056,0.301-0.095,0.5-0.095,0.9c0,0-0.004,0.1,0,0.2c-0.004,0.1,0,0.2,0,0.3c0,3,2.463,5.5,5.5,5.5c0.46,0,0.888-0.1,1.312-0.2
		l2.15,2.101l4.03,4.104l3,3c0.508,0.5,1.215,0.801,2,0.801c1.542,0,2.781-1.197,2.781-2.801c0-0.8-0.297-1.5-0.779-2l-0.032-0.104
		l-2.97-2.896l-4.03-4.104l-2.15-2.101c0.104-0.5,0.188-0.899,0.188-1.3c0-3.1-2.462-5.5-5.5-5.5H624.096z M637.096,242.125
		c0.828,0,1.5,0.6,1.5,1.5c0,0.8-0.672,1.5-1.5,1.5s-1.5-0.7-1.5-1.5C635.596,242.725,636.268,242.125,637.096,242.125z"/>
	<path fill="#7F8C8D" d="M629.096,234.625l-1.971,1.9l-0.029,0.1c0.008,0-0.006,0,0,0c0,0-0.003,0,0,0.1c0.076,0.2,0.062,0.5,0,0.9
		l0.972,0.9l2.028,2.1c0.365-0.1,0.722-0.1,1,0l2-2l-0.5-0.5l-1-1l1.5-1.5l-1-1l-1.5,1.5L629.096,234.625z"/>
	<path fill="#BDC3C7" d="M629.596,236.125l1,1l9-9l-1-1L629.596,236.125z"/>
	<path fill="#95A5A6" d="M639.096,227.625l-9,9l0.5,0.5l9-9L639.096,227.625z"/>
	<path fill="#95A5A6" d="M640.096,225.625l-2.5,1.5l2,2l1.5-2.5L640.096,225.625z"/>
	<g>
		<path fill="#F39C12" d="M629.096,233.625l-2,2c0.338,0.8-0.416,2.4-1,3c-0.584,0.5-2.115,1.3-3,1l-4,4l4,4l4-4
			c-0.338-0.9,0.416-2.5,1-3c0.584-0.6,2.116-1.4,3-1l2-2L629.096,233.625z"/>
		<path fill="#F1C40F" d="M629.096,233.625l-2,2c0.338,0.8-0.416,2.4-1,3c-0.584,0.5-2.115,1.3-3,1l-4,4l2,2l10-10L629.096,233.625z
			"/>
		<path fill="#E67E22" d="M627.125,235.525l-0.029,0.1c0.013,0-0.01,0,0,0.1C627.105,235.625,627.119,235.625,627.125,235.525z
			 M632.596,237.125l-1.5,1.5c-0.884-0.4-2.416,0.4-3,1c-0.563,0.5-1.258,2-1,2.9c0.177-0.801,0.62-1.604,1-1.9
			c0.584-0.6,2.116-1.4,3-1l2-2L632.596,237.125z M627.066,242.625l-3.972,4l-3.5-3.5l-0.5,0.5l4,4l4-4
			C626.99,243.325,626.996,242.925,627.066,242.625z"/>
	</g>
</g>
<path fill="#95A5A6" d="M621.094,316.625c-1.104,0-2,0.9-2,2v18c0,1.1,0.896,2,2,2h14c1.105,0,2-0.9,2-2v-14l-6-6H621.094z"/>
<path fill="#BDC3C7" d="M621.094,315.625c-1.104,0-2,0.9-2,2v18c0,1.1,0.896,2,2,2h14c1.105,0,2-0.9,2-2v-14l-6-6H621.094z"/>
<path fill="#95A5A6" d="M637.094,321.625l-6-6v4c0,1.1,0.896,2,2,2H637.094z"/>
<text transform="matrix(1 0 0 1 655.0938 324.625)" font-family="'Helvetica'" font-size="12">Configuration files</text>
<path fill="#2C3E50" d="M621.094,270.625c-1.104,0-2,0.9-2,2v16c0,1.1,0.896,2,2,2h18c1.105,0,2-0.9,2-2v-16c0-1.1-0.895-2-2-2
	H621.094z"/>
<path fill="#34495E" d="M621.094,270.625c-1.104,0-2,0.896-2,2v15c0,1.105,0.896,2,2,2h18c1.105,0,2-0.895,2-2v-15
	c0-1.104-0.895-2-2-2H621.094z"/>
<path fill="#ECF0F1" d="M622.094,273.75v1.125l3,1.75l-3,1.75v1.125l5-2.875L622.094,273.75z M627.094,278.625v1h5v-1H627.094z"/>
<text transform="matrix(1 0 0 1 655.0938 279.625)" font-family="'Helvetica'" font-size="12">Installation</text>
<path fill="none" stroke="#BDC3C7" stroke-miterlimit="10" stroke-dasharray="4,4" d="M583.094,171.625h180v180h-180V171.625z"/>
<text transform="matrix(1 0 0 1 250.0938 378.625)" font-family="'Helvetica'" font-size="12">Role tomcat</text>
<g transform="translate(0 -1028.4)">
	<path fill="#16A085" d="M221.256,1398.939c-1.714-0.201-3.283,1.897-2.357,3.5c1.008,0.6,1.747,2.5,0.415,3.199
		c-1.411,0.801-3.31-0.302-4.56,0.898c-1.004,1.102-0.465,2.699-0.571,4.102c-0.021,2.6-0.079,5.198,0.045,7.801
		c0.315,1.299,1.784,1.6,2.896,1.6c0.977,0,2.11-0.1,2.691-1c0.759-1.201-0.895-2-1.197-3.1c-0.538-1.603,1.066-3.103,2.614-3
		c1.503,0,3,1.5,2.487,3c-0.549,1-2.002,2.1-1.11,3.299c1.006,1,2.618,0.701,3.917,0.701c1.367-0.301,1.951-1.9,1.594-3.103
		c-0.092-1.101,0.229-2.5,1.439-2.8c1.355-0.1,2.02,1.8,3.443,1.5c1.715-0.2,2.709-2.301,1.9-3.801
		c-0.488-1.102-1.961-2-3.084-1.199c-0.822,0.699-2.156,1.9-3.18,0.699c-1.162-1.299,0.197-3.399-1.061-4.699
		c-1.295-1.301-3.36,0.102-4.703-1.1c-0.972-0.803-0.271-2,0.396-2.803c1.192-1,0.372-3.1-1.021-3.6
		C221.936,1398.939,221.592,1398.939,221.256,1398.939z"/>
	<path fill="#1ABC9C" d="M221.217,1398.039c-1.713-0.201-3.282,1.9-2.357,3.4c1.011,0.699,1.748,2.5,0.416,3.299
		c-1.409,0.801-3.309-0.4-4.56,0.9c-1.003,1.1-0.464,2.698-0.571,4.1c-0.021,2.6-0.079,5.201,0.045,7.801
		c0.316,1.301,1.785,1.5,2.896,1.5c0.976,0.101,2.111,0,2.689-0.899c0.761-1.302-0.894-2.101-1.197-3.101
		c-0.537-1.6,1.068-3.199,2.615-3.1c1.506,0,3,1.6,2.488,3.1c-0.549,1-2.002,2-1.111,3.199c1.006,1.1,2.617,0.801,3.92,0.701
		c1.365-0.301,1.949-1.801,1.59-3.103c-0.088-1,0.229-2.5,1.441-2.698c1.354-0.102,2.018,1.801,3.443,1.5
		c1.713-0.199,2.707-2.302,1.9-3.802c-0.49-1.101-1.959-2-3.084-1.3c-0.822,0.8-2.156,2-3.18,0.8
		c-1.162-1.397,0.197-3.397-1.062-4.8c-1.295-1.301-3.359,0.102-4.701-1c-0.971-0.801-0.271-2.1,0.396-2.801
		c1.192-1.102,0.372-3.102-1.021-3.602C221.897,1398.039,221.553,1398.039,221.217,1398.039z"/>
</g>
<text transform="matrix(1 0 0 1 277.0938 423.625)" font-family="'Helvetica'" font-size="12">Ports</text>
<g>
	<path fill="#7F8C8D" d="M245.189,414.725v1l3.906,3.9l-1,3l-3,1l-3.906-3.9c-0.055,0.302-0.094,0.5-0.094,0.9c0,0-0.004,0.1,0,0.2
		c-0.004,0.1,0,0.2,0,0.3c0,3,2.463,5.5,5.5,5.5c0.46,0,0.887-0.1,1.312-0.2l2.151,2.102l4.03,4.104l3,3
		c0.508,0.5,1.215,0.801,2,0.801c1.542,0,2.781-1.196,2.781-2.801c0-0.8-0.297-1.5-0.779-2l-0.032-0.104l-2.97-2.896l-4.03-4.104
		l-2.151-2.102c0.104-0.5,0.188-0.898,0.188-1.3c0-3.1-2.462-5.5-5.5-5.5h-0.406v-0.9H245.189z M259.096,432.125
		c0.828,0,1.5,0.6,1.5,1.5c0,0.8-0.672,1.5-1.5,1.5c-0.828,0-1.5-0.7-1.5-1.5C257.596,432.725,258.268,432.125,259.096,432.125z"/>
	<path fill="#95A5A6" d="M246.096,414.625c-0.312,0-0.609,0-0.906,0.1l3.906,3.9l-1,3l-3,1l-3.906-3.9
		c-0.055,0.302-0.094,0.5-0.094,0.9c0,0-0.004,0.1,0,0.2c-0.004,0.1,0,0.2,0,0.3c0,3,2.463,5.5,5.5,5.5c0.46,0,0.887-0.1,1.312-0.2
		l2.151,2.102l4.03,4.104l3,3c0.508,0.5,1.215,0.801,2,0.801c1.542,0,2.781-1.196,2.781-2.801c0-0.8-0.297-1.5-0.779-2l-0.032-0.104
		l-2.97-2.896l-4.03-4.104l-2.151-2.102c0.104-0.5,0.188-0.898,0.188-1.3c0-3.1-2.462-5.5-5.5-5.5H246.096z M259.096,431.125
		c0.828,0,1.5,0.6,1.5,1.5c0,0.8-0.672,1.5-1.5,1.5c-0.828,0-1.5-0.7-1.5-1.5C257.596,431.725,258.268,431.125,259.096,431.125z"/>
	<path fill="#7F8C8D" d="M251.096,423.625l-1.971,1.9l-0.029,0.1c0.008,0-0.006,0,0,0c0,0-0.003,0,0,0.1c0.076,0.2,0.062,0.5,0,0.9
		l0.971,0.9l2.029,2.1c0.365-0.1,0.721-0.1,1,0l2-2l-0.5-0.5l-1-1l1.5-1.5l-1-1l-1.5,1.5L251.096,423.625z"/>
	<path fill="#BDC3C7" d="M251.596,425.125l1,1l9-9l-1-1L251.596,425.125z"/>
	<path fill="#95A5A6" d="M261.096,416.625l-9,9l0.5,0.5l9-9L261.096,416.625z"/>
	<path fill="#95A5A6" d="M262.096,414.625l-2.5,1.5l2,2l1.5-2.5L262.096,414.625z"/>
	<g>
		<path fill="#F39C12" d="M251.096,422.625l-2,2c0.338,0.8-0.416,2.4-1,3c-0.584,0.5-2.116,1.3-3,1l-4,4l4,4l4-4
			c-0.338-0.9,0.416-2.5,1-3c0.584-0.6,2.116-1.4,3-1l2-2L251.096,422.625z"/>
		<path fill="#F1C40F" d="M251.096,422.625l-2,2c0.338,0.8-0.416,2.4-1,3c-0.584,0.5-2.116,1.3-3,1l-4,4l2,2l10-10L251.096,422.625z
			"/>
		<path fill="#E67E22" d="M249.125,424.525l-0.029,0.1c0.012,0-0.01,0,0,0.1C249.105,424.625,249.119,424.625,249.125,424.525z
			 M254.596,426.125l-1.5,1.5c-0.884-0.4-2.416,0.4-3,1c-0.564,0.5-1.258,2-1,2.9c0.176-0.802,0.62-1.604,1-1.9
			c0.584-0.6,2.116-1.4,3-1l2-2L254.596,426.125z M249.066,431.625l-3.971,4l-3.5-3.5l-0.5,0.5l4,4l4-4
			C248.99,432.325,248.996,431.925,249.066,431.625z"/>
	</g>
</g>
<path fill="#95A5A6" d="M243.094,505.625c-1.104,0-2,0.9-2,2v18c0,1.1,0.896,2,2,2h14c1.105,0,2-0.9,2-2v-14l-6-6H243.094z"/>
<path fill="#BDC3C7" d="M243.094,504.625c-1.104,0-2,0.9-2,2v18c0,1.1,0.896,2,2,2h14c1.105,0,2-0.9,2-2v-14l-6-6H243.094z"/>
<path fill="#95A5A6" d="M259.094,510.625l-6-6v4c0,1.1,0.896,2,2,2H259.094z"/>
<text transform="matrix(1 0 0 1 277.0938 513.625)" font-family="'Helvetica'" font-size="12">Configuration files</text>
<path fill="#2C3E50" d="M243.094,459.625c-1.104,0-2,0.9-2,2v16c0,1.1,0.896,2,2,2h18c1.105,0,2-0.9,2-2v-16c0-1.1-0.895-2-2-2
	H243.094z"/>
<path fill="#34495E" d="M243.094,459.625c-1.104,0-2,0.896-2,2v15c0,1.105,0.896,2,2,2h18c1.105,0,2-0.895,2-2v-15
	c0-1.104-0.895-2-2-2H243.094z"/>
<path fill="#ECF0F1" d="M244.094,462.75v1.125l3,1.75l-3,1.75v1.125l5-2.875L244.094,462.75z M249.094,467.625v1h5v-1H249.094z"/>
<text transform="matrix(1 0 0 1 277.0938 468.625)" font-family="'Helvetica'" font-size="12">Installation</text>
<path fill="none" stroke="#BDC3C7" stroke-miterlimit="10" stroke-dasharray="4,4" d="M205.094,360.625h180v180h-180V360.625z"/>
<text transform="matrix(1 0 0 1 439.0938 378.625)" font-family="'Helvetica'" font-size="12">Role rabbitmq</text>
<g transform="translate(0 -1028.4)">
	<path fill="#16A085" d="M410.256,1398.939c-1.714-0.201-3.283,1.897-2.357,3.5c1.009,0.6,1.748,2.5,0.416,3.199
		c-1.412,0.801-3.311-0.302-4.561,0.898c-1.004,1.102-0.465,2.699-0.57,4.102c-0.021,2.6-0.08,5.198,0.045,7.801
		c0.314,1.299,1.783,1.6,2.896,1.6c0.978,0,2.11-0.1,2.69-1c0.76-1.201-0.895-2-1.196-3.1c-0.538-1.603,1.065-3.103,2.614-3
		c1.502,0,3,1.5,2.486,3c-0.549,1-2.002,2.1-1.109,3.299c1.006,1,2.617,0.701,3.916,0.701c1.367-0.301,1.951-1.9,1.595-3.103
		c-0.092-1.101,0.229-2.5,1.438-2.8c1.355-0.1,2.021,1.8,3.443,1.5c1.715-0.2,2.709-2.301,1.9-3.801
		c-0.488-1.102-1.961-2-3.084-1.199c-0.822,0.699-2.156,1.9-3.18,0.699c-1.162-1.299,0.196-3.399-1.062-4.699
		c-1.295-1.301-3.36,0.102-4.703-1.1c-0.972-0.803-0.271-2,0.396-2.803c1.192-1,0.373-3.1-1.021-3.6
		C410.936,1398.939,410.592,1398.939,410.256,1398.939z"/>
	<path fill="#1ABC9C" d="M410.217,1398.039c-1.713-0.201-3.281,1.9-2.357,3.4c1.012,0.699,1.748,2.5,0.416,3.299
		c-1.408,0.801-3.309-0.4-4.56,0.9c-1.003,1.1-0.464,2.698-0.571,4.1c-0.021,2.6-0.078,5.201,0.045,7.801
		c0.316,1.301,1.785,1.5,2.896,1.5c0.977,0.101,2.111,0,2.689-0.899c0.761-1.302-0.895-2.101-1.197-3.101
		c-0.537-1.6,1.068-3.199,2.615-3.1c1.506,0,3,1.6,2.488,3.1c-0.55,1-2.003,2-1.111,3.199c1.006,1.1,2.617,0.801,3.92,0.701
		c1.365-0.301,1.949-1.801,1.59-3.103c-0.088-1,0.229-2.5,1.441-2.698c1.354-0.102,2.018,1.801,3.442,1.5
		c1.713-0.199,2.707-2.302,1.9-3.802c-0.49-1.101-1.959-2-3.084-1.3c-0.822,0.8-2.156,2-3.181,0.8
		c-1.162-1.397,0.197-3.397-1.062-4.8c-1.295-1.301-3.359,0.102-4.701-1c-0.971-0.801-0.271-2.1,0.396-2.801
		c1.192-1.102,0.373-3.102-1.021-3.602C410.896,1398.039,410.553,1398.039,410.217,1398.039z"/>
</g>
<text transform="matrix(1 0 0 1 466.0938 423.625)" font-family="'Helvetica'" font-size="12">Queues</text>
<g>
	<path fill="#7F8C8D" d="M434.189,414.725v1l3.905,3.9l-1,3l-3,1l-3.905-3.9c-0.056,0.302-0.095,0.5-0.095,0.9c0,0-0.004,0.1,0,0.2
		c-0.004,0.1,0,0.2,0,0.3c0,3,2.463,5.5,5.5,5.5c0.46,0,0.888-0.1,1.312-0.2l2.15,2.102l4.03,4.104l3,3
		c0.508,0.5,1.215,0.801,2,0.801c1.542,0,2.781-1.196,2.781-2.801c0-0.8-0.297-1.5-0.779-2l-0.032-0.104l-2.97-2.896l-4.03-4.104
		l-2.15-2.102c0.104-0.5,0.188-0.898,0.188-1.3c0-3.1-2.462-5.5-5.5-5.5h-0.405v-0.9H434.189z M448.096,432.125
		c0.828,0,1.5,0.6,1.5,1.5c0,0.8-0.672,1.5-1.5,1.5s-1.5-0.7-1.5-1.5C446.596,432.725,447.268,432.125,448.096,432.125z"/>
	<path fill="#95A5A6" d="M435.096,414.625c-0.312,0-0.608,0-0.905,0.1l3.905,3.9l-1,3l-3,1l-3.905-3.9
		c-0.056,0.302-0.095,0.5-0.095,0.9c0,0-0.004,0.1,0,0.2c-0.004,0.1,0,0.2,0,0.3c0,3,2.463,5.5,5.5,5.5c0.46,0,0.888-0.1,1.312-0.2
		l2.15,2.102l4.03,4.104l3,3c0.508,0.5,1.215,0.801,2,0.801c1.542,0,2.781-1.196,2.781-2.801c0-0.8-0.297-1.5-0.779-2l-0.032-0.104
		l-2.97-2.896l-4.03-4.104l-2.15-2.102c0.104-0.5,0.188-0.898,0.188-1.3c0-3.1-2.462-5.5-5.5-5.5H435.096z M448.096,431.125
		c0.828,0,1.5,0.6,1.5,1.5c0,0.8-0.672,1.5-1.5,1.5s-1.5-0.7-1.5-1.5C446.596,431.725,447.268,431.125,448.096,431.125z"/>
	<path fill="#7F8C8D" d="M440.096,423.625l-1.971,1.9l-0.029,0.1c0.008,0-0.006,0,0,0c0,0-0.003,0,0,0.1c0.076,0.2,0.062,0.5,0,0.9
		l0.972,0.9l2.028,2.1c0.365-0.1,0.722-0.1,1,0l2-2l-0.5-0.5l-1-1l1.5-1.5l-1-1l-1.5,1.5L440.096,423.625z"/>
	<path fill="#BDC3C7" d="M440.596,425.125l1,1l9-9l-1-1L440.596,425.125z"/>
	<path fill="#95A5A6" d="M450.096,416.625l-9,9l0.5,0.5l9-9L450.096,416.625z"/>
	<path fill="#95A5A6" d="M451.096,414.625l-2.5,1.5l2,2l1.5-2.5L451.096,414.625z"/>
	<g>
		<path fill="#F39C12" d="M440.096,422.625l-2,2c0.338,0.8-0.416,2.4-1,3c-0.584,0.5-2.115,1.3-3,1l-4,4l4,4l4-4
			c-0.338-0.9,0.416-2.5,1-3c0.584-0.6,2.116-1.4,3-1l2-2L440.096,422.625z"/>
		<path fill="#F1C40F" d="M440.096,422.625l-2,2c0.338,0.8-0.416,2.4-1,3c-0.584,0.5-2.115,1.3-3,1l-4,4l2,2l10-10L440.096,422.625z
			"/>
		<path fill="#E67E22" d="M438.125,424.525l-0.029,0.1c0.013,0-0.01,0,0,0.1C438.105,424.625,438.119,424.625,438.125,424.525z
			 M443.596,426.125l-1.5,1.5c-0.884-0.4-2.416,0.4-3,1c-0.563,0.5-1.258,2-1,2.9c0.176-0.802,0.62-1.604,1-1.9
			c0.584-0.6,2.116-1.4,3-1l2-2L443.596,426.125z M438.066,431.625l-3.972,4l-3.5-3.5l-0.5,0.5l4,4l4-4
			C437.99,432.325,437.996,431.925,438.066,431.625z"/>
	</g>
</g>
<path fill="#95A5A6" d="M432.094,505.625c-1.104,0-2,0.9-2,2v18c0,1.1,0.896,2,2,2h14c1.105,0,2-0.9,2-2v-14l-6-6H432.094z"/>
<path fill="#BDC3C7" d="M432.094,504.625c-1.104,0-2,0.9-2,2v18c0,1.1,0.896,2,2,2h14c1.105,0,2-0.9,2-2v-14l-6-6H432.094z"/>
<path fill="#95A5A6" d="M448.094,510.625l-6-6v4c0,1.1,0.896,2,2,2H448.094z"/>
<text transform="matrix(1 0 0 1 466.0938 513.625)" font-family="'Helvetica'" font-size="12">Configuration files</text>
<path fill="#2C3E50" d="M432.094,459.625c-1.104,0-2,0.9-2,2v16c0,1.1,0.896,2,2,2h18c1.105,0,2-0.9,2-2v-16c0-1.1-0.895-2-2-2
	H432.094z"/>
<path fill="#34495E" d="M432.094,459.625c-1.104,0-2,0.896-2,2v15c0,1.105,0.896,2,2,2h18c1.105,0,2-0.895,2-2v-15
	c0-1.104-0.895-2-2-2H432.094z"/>
<path fill="#ECF0F1" d="M433.094,462.75v1.125l3,1.75l-3,1.75v1.125l5-2.875L433.094,462.75z M438.094,467.625v1h5v-1H438.094z"/>
<text transform="matrix(1 0 0 1 466.0938 468.625)" font-family="'Helvetica'" font-size="12">Installation</text>
<path fill="none" stroke="#BDC3C7" stroke-miterlimit="10" stroke-dasharray="4,4" d="M394.094,360.625h180v180h-180V360.625z"/>
<text transform="matrix(1 0 0 1 628.0938 378.625)" font-family="'Helvetica'" font-size="12">Role app …</text>
<g transform="translate(0 -1028.4)">
	<path fill="#16A085" d="M599.256,1398.939c-1.714-0.201-3.283,1.897-2.356,3.5c1.008,0.6,1.747,2.5,0.415,3.199
		c-1.411,0.801-3.311-0.302-4.561,0.898c-1.004,1.102-0.465,2.699-0.571,4.102c-0.021,2.6-0.079,5.198,0.045,7.801
		c0.315,1.299,1.784,1.6,2.896,1.6c0.977,0,2.11-0.1,2.69-1c0.76-1.201-0.895-2-1.196-3.1c-0.538-1.603,1.065-3.103,2.614-3
		c1.503,0,3,1.5,2.486,3c-0.549,1-2.002,2.1-1.109,3.299c1.006,1,2.617,0.701,3.917,0.701c1.366-0.301,1.95-1.9,1.594-3.103
		c-0.092-1.101,0.229-2.5,1.438-2.8c1.355-0.1,2.021,1.8,3.443,1.5c1.715-0.2,2.709-2.301,1.9-3.801
		c-0.488-1.102-1.961-2-3.084-1.199c-0.822,0.699-2.156,1.9-3.181,0.699c-1.162-1.299,0.197-3.399-1.061-4.699
		c-1.295-1.301-3.36,0.102-4.703-1.1c-0.972-0.803-0.271-2,0.396-2.803c1.192-1,0.372-3.1-1.021-3.6
		C599.936,1398.939,599.592,1398.939,599.256,1398.939z"/>
	<path fill="#1ABC9C" d="M599.217,1398.039c-1.713-0.201-3.282,1.9-2.356,3.4c1.011,0.699,1.748,2.5,0.416,3.299
		c-1.409,0.801-3.31-0.4-4.561,0.9c-1.003,1.1-0.464,2.698-0.571,4.1c-0.021,2.6-0.078,5.201,0.046,7.801
		c0.315,1.301,1.784,1.5,2.896,1.5c0.977,0.101,2.111,0,2.689-0.899c0.761-1.302-0.895-2.101-1.197-3.101
		c-0.537-1.6,1.068-3.199,2.615-3.1c1.506,0,3,1.6,2.487,3.1c-0.549,1-2.002,2-1.11,3.199c1.006,1.1,2.616,0.801,3.92,0.701
		c1.364-0.301,1.948-1.801,1.59-3.103c-0.088-1,0.229-2.5,1.44-2.698c1.354-0.102,2.019,1.801,3.443,1.5
		c1.713-0.199,2.707-2.302,1.9-3.802c-0.49-1.101-1.959-2-3.084-1.3c-0.822,0.8-2.156,2-3.181,0.8
		c-1.162-1.397,0.197-3.397-1.062-4.8c-1.295-1.301-3.359,0.102-4.701-1c-0.971-0.801-0.271-2.1,0.396-2.801
		c1.191-1.102,0.372-3.102-1.021-3.602C599.896,1398.039,599.553,1398.039,599.217,1398.039z"/>
</g>
<text transform="matrix(1 0 0 1 655.0938 423.625)" font-family="'Helvetica'" font-size="12">Application config</text>
<g>
	<path fill="#7F8C8D" d="M623.189,414.725v1l3.905,3.9l-1,3l-3,1l-3.905-3.9c-0.056,0.302-0.095,0.5-0.095,0.9c0,0-0.004,0.1,0,0.2
		c-0.004,0.1,0,0.2,0,0.3c0,3,2.463,5.5,5.5,5.5c0.46,0,0.888-0.1,1.312-0.2l2.15,2.102l4.03,4.104l3,3
		c0.508,0.5,1.215,0.801,2,0.801c1.542,0,2.781-1.196,2.781-2.801c0-0.8-0.297-1.5-0.779-2l-0.031-0.104l-2.971-2.896l-4.029-4.104
		l-2.151-2.102c0.104-0.5,0.188-0.898,0.188-1.3c0-3.1-2.462-5.5-5.5-5.5h-0.405v-0.9H623.189z M637.096,432.125
		c0.828,0,1.5,0.6,1.5,1.5c0,0.8-0.672,1.5-1.5,1.5s-1.5-0.7-1.5-1.5C635.596,432.725,636.268,432.125,637.096,432.125z"/>
	<path fill="#95A5A6" d="M624.096,414.625c-0.312,0-0.608,0-0.905,0.1l3.905,3.9l-1,3l-3,1l-3.905-3.9
		c-0.056,0.302-0.095,0.5-0.095,0.9c0,0-0.004,0.1,0,0.2c-0.004,0.1,0,0.2,0,0.3c0,3,2.463,5.5,5.5,5.5c0.46,0,0.888-0.1,1.312-0.2
		l2.15,2.102l4.03,4.104l3,3c0.508,0.5,1.215,0.801,2,0.801c1.542,0,2.781-1.196,2.781-2.801c0-0.8-0.297-1.5-0.779-2l-0.032-0.104
		l-2.97-2.896l-4.03-4.104l-2.15-2.102c0.104-0.5,0.188-0.898,0.188-1.3c0-3.1-2.462-5.5-5.5-5.5H624.096z M637.096,431.125
		c0.828,0,1.5,0.6,1.5,1.5c0,0.8-0.672,1.5-1.5,1.5s-1.5-0.7-1.5-1.5C635.596,431.725,636.268,431.125,637.096,431.125z"/>
	<path fill="#7F8C8D" d="M629.096,423.625l-1.971,1.9l-0.029,0.1c0.008,0-0.006,0,0,0c0,0-0.003,0,0,0.1c0.076,0.2,0.062,0.5,0,0.9
		l0.972,0.9l2.028,2.1c0.365-0.1,0.722-0.1,1,0l2-2l-0.5-0.5l-1-1l1.5-1.5l-1-1l-1.5,1.5L629.096,423.625z"/>
	<path fill="#BDC3C7" d="M629.596,425.125l1,1l9-9l-1-1L629.596,425.125z"/>
	<path fill="#95A5A6" d="M639.096,416.625l-9,9l0.5,0.5l9-9L639.096,416.625z"/>
	<path fill="#95A5A6" d="M640.096,414.625l-2.5,1.5l2,2l1.5-2.5L640.096,414.625z"/>
	<g>
		<path fill="#F39C12" d="M629.096,422.625l-2,2c0.338,0.8-0.416,2.4-1,3c-0.584,0.5-2.115,1.3-3,1l-4,4l4,4l4-4
			c-0.338-0.9,0.416-2.5,1-3c0.584-0.6,2.116-1.4,3-1l2-2L629.096,422.625z"/>
		<path fill="#F1C40F" d="M629.096,422.625l-2,2c0.338,0.8-0.416,2.4-1,3c-0.584,0.5-2.115,1.3-3,1l-4,4l2,2l10-10L629.096,422.625z
			"/>
		<path fill="#E67E22" d="M627.125,424.525l-0.029,0.1c0.013,0-0.01,0,0,0.1C627.105,424.625,627.119,424.625,627.125,424.525z
			 M632.596,426.125l-1.5,1.5c-0.884-0.4-2.416,0.4-3,1c-0.563,0.5-1.258,2-1,2.9c0.177-0.802,0.62-1.604,1-1.9
			c0.584-0.6,2.116-1.4,3-1l2-2L632.596,426.125z M627.066,431.625l-3.972,4l-3.5-3.5l-0.5,0.5l4,4l4-4
			C626.99,432.325,626.996,431.925,627.066,431.625z"/>
	</g>
</g>
<path fill="#95A5A6" d="M621.094,505.625c-1.104,0-2,0.9-2,2v18c0,1.1,0.896,2,2,2h14c1.105,0,2-0.9,2-2v-14l-6-6H621.094z"/>
<path fill="#BDC3C7" d="M621.094,504.625c-1.104,0-2,0.9-2,2v18c0,1.1,0.896,2,2,2h14c1.105,0,2-0.9,2-2v-14l-6-6H621.094z"/>
<path fill="#95A5A6" d="M637.094,510.625l-6-6v4c0,1.1,0.896,2,2,2H637.094z"/>
<text transform="matrix(1 0 0 1 655.0938 513.625)" font-family="'Helvetica'" font-size="12">Configuration files</text>
<path fill="#2C3E50" d="M621.094,459.625c-1.104,0-2,0.9-2,2v16c0,1.1,0.896,2,2,2h18c1.105,0,2-0.9,2-2v-16c0-1.1-0.895-2-2-2
	H621.094z"/>
<path fill="#34495E" d="M621.094,459.625c-1.104,0-2,0.896-2,2v15c0,1.105,0.896,2,2,2h18c1.105,0,2-0.895,2-2v-15
	c0-1.104-0.895-2-2-2H621.094z"/>
<path fill="#ECF0F1" d="M622.094,462.75v1.125l3,1.75l-3,1.75v1.125l5-2.875L622.094,462.75z M627.094,467.625v1h5v-1H627.094z"/>
<text transform="matrix(1 0 0 1 655.0938 468.625)" font-family="'Helvetica'" font-size="12">Deployment</text>
<path fill="none" stroke="#BDC3C7" stroke-miterlimit="10" stroke-dasharray="4,4" d="M583.094,360.625h180v180h-180V360.625z"/>
</svg>
