<?xml version="1.0" encoding="utf-8"?>
<!-- Generator: Adobe Illustrator 16.0.4, SVG Export Plug-In . SVG Version: 6.00 Build 0)  -->
<!DOCTYPE svg PUBLIC "-//W3C//DTD SVG 1.1//EN" "http://www.w3.org/Graphics/SVG/1.1/DTD/svg11.dtd">
<svg version="1.1" id="Layer_1" xmlns="http://www.w3.org/2000/svg" xmlns:xlink="http://www.w3.org/1999/xlink" x="0px" y="0px"
	 width="469.5px" height="458.5px" viewBox="0 0 469.5 458.5" enable-background="new 0 0 469.5 458.5" xml:space="preserve">
<text transform="matrix(1 0 0 1 352.5 305.5)" font-family="'Helvetica'" font-size="12">worldskills.org</text>
<text transform="matrix(1 0 0 1 352.5 319.8984)" font-family="'Helvetica'" font-size="12">website</text>
<text transform="matrix(1 0 0 1 352.5 71.5)" font-family="'Helvetica'" font-size="12">worldskills.org</text>
<text transform="matrix(1 0 0 1 352.5 85.8994)" font-family="'Helvetica'" font-size="12">database</text>
<path fill="#95A5A6" d="M109.504,43.526v4.18c-0.01,0.023,0,0.052,0,0.075c0,3.022,4.896,5.476,10.942,5.476
	c6.048,0,10.947-2.45,10.947-5.472v-4.259H109.504L109.504,43.526z"/>
<path fill="#BDC3C7" d="M131.4,43.526c0,2.687-4.902,4.864-10.949,4.864c-6.051,0-10.943-2.18-10.943-4.865
	c0-2.69,4.896-4.87,10.943-4.87s10.949,2.18,10.949,4.866V43.526z"/>
<path fill="#7F8C8D" d="M109.581,47.783c-0.058,0.2-0.073,0.4-0.073,0.607c0,2.688,4.896,4.865,10.943,4.865
	s10.949-2.185,10.949-4.87c0-0.206-0.021-0.407-0.076-0.606c-0.674,2.4-5.29,4.26-10.873,4.26c-5.582,0-10.198-1.86-10.87-4.26
	V47.783L109.581,47.783z"/>
<path fill="#95A5A6" d="M109.504,37.443v4.182c-0.01,0.02,0,0.05,0,0.07c0,3.022,4.896,5.476,10.942,5.476
	c6.048,0,10.947-2.45,10.947-5.477v-4.258l-21.89,0.002V37.443L109.504,37.443z"/>
<path fill="#BDC3C7" d="M131.4,37.443c0,2.688-4.902,4.866-10.949,4.866c-6.051,0-10.943-2.18-10.943-4.866
	c0-2.688,4.896-4.865,10.943-4.865S131.4,34.758,131.4,37.443z"/>
<path fill="#7F8C8D" d="M109.581,41.701c-0.058,0.2-0.073,0.4-0.073,0.607c0,2.688,4.896,4.865,10.943,4.865
	s10.949-2.18,10.949-4.865c0-0.206-0.021-0.408-0.076-0.607c-0.674,2.398-5.29,4.254-10.873,4.254c-5.582,0-10.197-1.858-10.87-4.26
	v0.002V41.701L109.581,41.701z"/>
<path fill="#95A5A6" d="M109.504,31.361v4.18c-0.01,0.025,0,0.05,0,0.076c0,3.025,4.896,5.48,10.942,5.48
	c6.048,0,10.947-2.45,10.947-5.474v-4.258h-21.89V31.361L109.504,31.361z"/>
<path fill="#7F8C8D" d="M109.581,35.619c-0.058,0.2-0.073,0.4-0.073,0.607c0,2.688,4.896,4.865,10.943,4.865
	s10.949-2.18,10.949-4.862c0-0.206-0.021-0.41-0.076-0.608c-0.674,2.4-5.29,4.258-10.873,4.258c-5.582,0-10.197-1.854-10.87-4.258
	V35.619L109.581,35.619z"/>
<path fill="#BDC3C7" d="M120.451,43.526v9.728c6.047,0,10.949-2.45,10.949-5.475v-4.258l-10.949,0.004V43.526z"/>
<path fill="#ECF0F1" d="M120.451,38.662v9.73c6.047,0,10.949-2.18,10.949-4.864C131.4,40.84,126.498,38.662,120.451,38.662z"/>
<path fill="#BDC3C7" d="M120.451,37.443v9.729c6.047,0,10.949-2.45,10.949-5.476v-4.254l-10.949,0.004V37.443z"/>
<path fill="#95A5A6" d="M131.324,41.701c-0.674,2.4-5.29,4.258-10.873,4.258v1.218c6.047,0,10.949-2.18,10.949-4.86
	c0-0.213-0.02-0.413-0.076-0.61V41.701L131.324,41.701z"/>
<path fill="#ECF0F1" d="M120.451,32.578v9.73c6.047,0,10.949-2.18,10.949-4.864c0-2.684-4.902-4.863-10.949-4.863V32.578z"/>
<path fill="#BDC3C7" d="M120.451,31.361v9.729c6.047,0,10.949-2.45,10.949-5.476v-4.26h-10.949v0.002V31.361z"/>
<path fill="#95A5A6" d="M131.324,35.619c-0.674,2.398-5.29,4.258-10.873,4.258v1.22c6.047,0,10.949-2.18,10.949-4.863
	c0-0.21-0.02-0.412-0.076-0.61V35.619L131.324,35.619z M131.324,47.783c-0.674,2.4-5.29,4.26-10.873,4.26v1.215
	c6.047,0,10.949-2.178,10.949-4.863c0-0.21-0.02-0.415-0.076-0.616V47.783L131.324,47.783z"/>
<path fill="#BDC3C7" d="M131.4,31.361c0,2.688-4.902,4.866-10.949,4.866c-6.051,0-10.943-2.18-10.943-4.862
	c0-2.687,4.896-4.865,10.943-4.865s10.949,2.18,10.949,4.866V31.361z"/>
<text transform="matrix(1 0 0 1 109.5 188.5)" font-family="'Helvetica'" font-size="12">Auth</text>
<text transform="matrix(1 0 0 1 109.5 202.9004)" font-family="'Helvetica'" font-size="12">web service</text>
<text transform="matrix(1 0 0 1 109.5015 71.5)" font-family="'Helvetica'" font-size="12">Auth</text>
<text transform="matrix(1 0 0 1 109.5015 85.8984)" font-family="'Helvetica'" font-size="12">databases</text>
<text transform="matrix(1 0 0 1 190.5 71.5)" font-family="'Helvetica'" font-size="12">Message</text>
<text transform="matrix(1 0 0 1 190.5 85.9004)" font-family="'Helvetica'" font-size="12">queue</text>
<path fill="#8E44AD" d="M273.5,265.5c-1.104,0-2,0.896-2,2v18c0,1.104,0.896,2,2,2h14c1.104,0,2-0.896,2-2v-14l-6-6H273.5z"/>
<path fill="#9B59B6" d="M273.5,264.5c-1.104,0-2,0.896-2,2v18c0,1.104,0.896,2,2,2h14c1.104,0,2-0.896,2-2v-14l-6-6H273.5z"/>
<path fill="#8E44AD" d="M289.5,270.5l-6-6v4c0,1.104,0.896,2,2,2H289.5z"/>
<text transform="matrix(1 0 0 1 271.5 305.5)" font-family="'Helvetica'" font-size="12">Events</text>
<text transform="matrix(1 0 0 1 271.5 319.9004)" font-family="'Helvetica'" font-size="12">application</text>
<text transform="matrix(1 0 0 1 109.5 305.5)" font-family="'Helvetica'" font-size="12">Auth</text>
<text transform="matrix(1 0 0 1 109.5 319.8994)" font-family="'Helvetica'" font-size="12">application</text>
<path fill="#354A5D" d="M109.5,270.166v9.334l12,8v-9.334L109.5,270.166z"/>
<path fill="#3382B6" d="M133.5,270.166v9.334l-12,8v-9.334L133.5,270.166z"/>
<path fill="#3F9BD7" d="M117.5,264.833l-8,5.333l12,8l12-8l-8-5.333H117.5L117.5,264.833z"/>
<path fill="#3382B6" d="M114.833,267.5v2.666c0,2.21,2.983,4,6.666,4s6.66-1.79,6.66-4V267.5h-13.33H114.833z"/>
<path fill="#354A5D" d="M114.833,267.5v2.666c0,2.21,2.983,4,6.666,4V267.5h-6.67H114.833z"/>
<path fill="#3F9BD7" d="M128.165,267.5c0,2.21-2.983,4-6.666,4s-6.67-1.79-6.67-4s2.979-4,6.663-4c3.683,0,6.665,1.79,6.665,4h0.004
	H128.165z"/>
<path fill="#354A5D" d="M352.5,270.166v9.334l12,8v-9.33l-12-8V270.166z"/>
<path fill="#3382B6" d="M376.5,270.166v9.334l-12,8v-9.33l12-8V270.166z"/>
<path fill="#3F9BD7" d="M360.5,264.833l-8,5.333l12,8l12-8l-8-5.333H360.5L360.5,264.833z"/>
<path fill="#3382B6" d="M357.834,267.5v2.666c0,2.21,2.984,4,6.666,4s6.666-1.79,6.666-4V267.5H357.834L357.834,267.5z"/>
<path fill="#354A5D" d="M357.834,267.5v2.666c0,2.21,2.984,4,6.666,4V267.5H357.834z"/>
<path fill="#3F9BD7" d="M371.166,267.5c0,2.21-2.984,4-6.666,4s-6.666-1.79-6.666-4s2.984-4,6.666-4S371.166,265.29,371.166,267.5z"
	/>
<path fill="none" stroke="#BDC3C7" stroke-miterlimit="10" d="M10.5,8.5h441v108h-441V8.5z"/>
<text transform="matrix(1 0 0 1 28.5 26.5)" enable-background="new    "><tspan x="0" y="0" fill="#96A5A6" font-family="'Helvetica'" font-size="12">Server</tspan><tspan x="0" y="14.4" fill="#96A5A6" font-family="'Helvetica'" font-size="12">database</tspan></text>
<path fill="#F39C12" d="M210.5,35.5l2,10h-2V35.5z M192.5,35.5l-2,10h2V35.5z"/>
<path fill="#E67E22" d="M192.5,38.5l-2,14h22l-2-14H192.5z"/>
<path fill="#F1C40F" d="M190.5,45.5v7h22v-7h-8.188c-0.416,1.158-1.513,2-2.812,2s-2.396-0.842-2.812-2H190.5z"/>
<path fill="#F39C12" d="M192.5,35.5h18v3h-18V35.5z M190.5,52.5h22v1h-22V52.5z"/>
<path fill="#354A5D" d="M28.5,396.166v9.334l12,8v-9.334L28.5,396.166z"/>
<path fill="#3382B6" d="M52.5,396.166v9.334l-12,8v-9.334L52.5,396.166z"/>
<path fill="#3F9BD7" d="M36.5,390.833l-8,5.333l12,8l12-8l-8-5.333H36.5z"/>
<path fill="#3382B6" d="M33.834,393.5v2.666c0,2.21,2.984,4,6.666,4c3.688,0,6.666-1.79,6.666-4V393.5H33.834z"/>
<path fill="#354A5D" d="M33.834,393.5v2.666c0,2.21,2.984,4,6.666,4V393.5H33.834z"/>
<path fill="#3F9BD7" d="M47.166,393.5c0,2.21-2.98,4-6.666,4c-3.682,0-6.666-1.79-6.666-4s2.984-4,6.666-4
	C44.183,389.5,47.166,391.29,47.166,393.5z"/>
<text transform="matrix(1 0 0 1 28.5 377.5)" fill="#96A5A6" font-family="'Helvetica'" font-size="12">Legend</text>
<text transform="matrix(1 0 0 1 28.5 431.5)" font-family="'Helvetica'" font-size="12">PHP</text>
<text transform="matrix(1 0 0 1 28.5 445.9004)" font-family="'Helvetica'" font-size="12">application</text>
<text transform="matrix(1 0 0 1 109.5 431.5)" font-family="'Helvetica'" font-size="12">Java</text>
<text transform="matrix(1 0 0 1 109.5 445.8994)" font-family="'Helvetica'" font-size="12">application</text>
<path fill="#E67E22" d="M109.5,396.168v9.332l12,8v-9.334L109.5,396.168z"/>
<path fill="#F39C12" d="M133.5,396.168v9.332l-12,8v-9.334L133.5,396.168z"/>
<path fill="#F1C40F" d="M117.5,390.832l-8,5.34l12,7.993l12-7.992l-8-5.335h-8V390.832z"/>
<path fill="#F39C12" d="M114.833,393.5v2.673c0,2.21,2.985,4,6.667,4s6.666-1.79,6.666-4V393.5H114.833z"/>
<path fill="#E67E22" d="M114.833,393.5v2.673c0,2.21,2.985,4,6.667,4V393.5H114.833z"/>
<path fill="#F1C40F" d="M128.166,393.5c0,2.215-2.984,4-6.666,4s-6.666-1.785-6.666-4c0-2.21,2.986-4,6.67-4s6.665,1.79,6.665,4
	h-0.007H128.166z"/>
<path fill="#95A5A6" d="M190.504,403.763v4.188c-0.01,0.02,0,0.05,0,0.068c0,3.021,4.896,5.48,10.943,5.48
	c6.047,0,10.947-2.45,10.947-5.48v-4.26h-21.89V403.763z"/>
<path fill="#BDC3C7" d="M212.398,403.763c0,2.688-4.902,4.864-10.95,4.864c-6.048,0-10.94-2.178-10.94-4.865
	c0-2.687,4.895-4.867,10.94-4.867c6.047,0,10.95,2.185,10.95,4.864V403.763z"/>
<path fill="#7F8C8D" d="M190.578,408.02c-0.057,0.2-0.07,0.4-0.07,0.607c0,2.688,4.895,4.865,10.94,4.865
	c6.047,0,10.95-2.188,10.95-4.868c0-0.207-0.02-0.408-0.076-0.607c-0.674,2.398-5.29,4.268-10.873,4.268
	c-5.586,0-10.2-1.86-10.87-4.268l-0.005,0.003H190.578z"/>
<path fill="#95A5A6" d="M190.504,397.68v4.188c-0.01,0.02,0,0.05,0,0.065c0,3.022,4.896,5.48,10.943,5.48
	c6.047,0,10.947-2.453,10.947-5.48v-4.257L190.504,397.68z"/>
<path fill="#BDC3C7" d="M212.398,397.68c0,2.688-4.902,4.865-10.95,4.865c-6.048,0-10.94-2.178-10.94-4.865
	c0-2.687,4.895-4.861,10.94-4.861C207.495,392.817,212.398,394.992,212.398,397.68z"/>
<path fill="#7F8C8D" d="M190.578,401.936c-0.057,0.2-0.07,0.402-0.07,0.61c0,2.688,4.895,4.864,10.94,4.864
	c6.047,0,10.95-2.188,10.95-4.865c0-0.207-0.02-0.408-0.076-0.61c-0.674,2.4-5.29,4.268-10.873,4.268
	c-5.586-0.002-10.2-1.86-10.875-4.26L190.578,401.936z"/>
<path fill="#95A5A6" d="M190.504,391.598v4.188c-0.01,0.02,0,0.05,0,0.072c0,3.02,4.896,5.479,10.943,5.479
	c6.047,0,10.947-2.45,10.947-5.479v-4.262L190.504,391.598z"/>
<path fill="#7F8C8D" d="M190.578,395.854c-0.057,0.2-0.07,0.402-0.07,0.61c0,2.688,4.895,4.864,10.94,4.864
	c6.047,0,10.95-2.188,10.95-4.865c0-0.207-0.02-0.41-0.076-0.609c-0.674,2.399-5.29,4.267-10.873,4.267
	c-5.586-0.01-10.2-1.867-10.875-4.271L190.578,395.854z"/>
<path fill="#BDC3C7" d="M201.45,403.763v9.73c6.046,0,10.95-2.45,10.95-5.48v-4.257L201.45,403.763z"/>
<path fill="#ECF0F1" d="M201.45,398.896v9.729c6.046,0,10.95-2.18,10.95-4.866c0-2.686-4.904-4.868-10.95-4.868V398.896z"/>
<path fill="#BDC3C7" d="M201.45,397.68v9.732c6.046,0,10.95-2.454,10.95-5.48v-4.26l-10.95,0.004V397.68L201.45,397.68z"/>
<path fill="#95A5A6" d="M212.322,401.936c-0.674,2.4-5.29,4.268-10.873,4.268v1.218c6.043,0,10.95-2.18,10.95-4.866
	c0-0.207-0.02-0.41-0.08-0.604v-0.013h0.003V401.936z"/>
<path fill="#ECF0F1" d="M201.45,392.814v9.729c6.046,0,10.95-2.18,10.95-4.87C212.4,394.992,207.496,392.814,201.45,392.814z"/>
<path fill="#BDC3C7" d="M201.45,391.598v9.732c6.046,0,10.95-2.45,10.95-5.48v-4.257L201.45,391.598z"/>
<path fill="#95A5A6" d="M212.322,395.854c-0.674,2.4-5.29,4.267-10.873,4.267v1.22c6.043,0,10.95-2.18,10.95-4.87
	c0-0.21-0.02-0.416-0.08-0.62L212.322,395.854z M212.322,408.02c-0.674,2.398-5.29,4.268-10.873,4.268v1.216
	c6.043,0,10.95-2.182,10.95-4.865c0-0.216-0.02-0.416-0.08-0.616h0.003V408.02z"/>
<path fill="#BDC3C7" d="M212.398,391.598c0,2.688-4.902,4.865-10.95,4.865c-6.048,0-10.94-2.178-10.94-4.865
	c0-2.687,4.895-4.861,10.94-4.861C207.495,386.735,212.398,388.911,212.398,391.598z"/>
<text transform="matrix(1 0 0 1 190.5 431.5)" font-family="'Helvetica'" font-size="12">MySQL</text>
<text transform="matrix(1 0 0 1 190.5 445.8994)" font-family="'Helvetica'" font-size="12">database</text>
<text transform="matrix(1 0 0 1 352.5 431.5)" font-family="'Helvetica'" font-size="12">Static</text>
<text transform="matrix(1 0 0 1 352.5 445.9004)" font-family="'Helvetica'" font-size="12">files</text>
<path fill="#8E44AD" d="M354.5,391.5c-1.104,0-2,0.896-2,2v18c0,1.104,0.896,2,2,2h14c1.104,0,2-0.896,2-2v-14l-6-6H354.5z"/>
<path fill="#9B59B6" d="M354.5,390.5c-1.104,0-2,0.896-2,2v18c0,1.104,0.896,2,2,2h14c1.104,0,2-0.896,2-2v-14l-6-6H354.5z"/>
<path fill="#8E44AD" d="M370.5,396.5l-6-6v4c0,1.104,0.896,2,2,2H370.5z"/>
<path fill="#E67E22" d="M109.5,153.168v9.332l12,8v-9.334L109.5,153.168L109.5,153.168z"/>
<path fill="#F39C12" d="M133.5,153.168v9.332l-12,8v-9.334L133.5,153.168L133.5,153.168z"/>
<path fill="#F1C40F" d="M117.5,147.832l-8,5.34l12,7.993l12-7.992l-8-5.335h-8V147.832z"/>
<path fill="#F39C12" d="M114.832,150.5v2.673c0,2.21,2.984,4,6.668,4c3.682,0,6.666-1.79,6.666-4V150.5H114.832L114.832,150.5z"/>
<path fill="#E67E22" d="M114.832,150.5v2.673c0,2.21,2.984,4,6.668,4V150.5H114.832z"/>
<path fill="#F1C40F" d="M128.166,150.5c0,2.215-2.984,4-6.666,4c-3.684,0-6.666-1.785-6.666-4c0-2.21,2.986-4,6.67-4
	c3.682,0,6.664,1.79,6.664,4H128.166L128.166,150.5z"/>
<text transform="matrix(1 0 0 1 271.5 188.5)" font-family="'Helvetica'" font-size="12">Events</text>
<text transform="matrix(1 0 0 1 271.5 202.9004)" font-family="'Helvetica'" font-size="12">web service</text>
<path fill="#E67E22" d="M271.5,153.168v9.332l12,8v-9.334L271.5,153.168L271.5,153.168z"/>
<path fill="#F39C12" d="M295.5,153.168v9.332l-12,8v-9.334L295.5,153.168L295.5,153.168z"/>
<path fill="#F1C40F" d="M279.5,147.832l-8,5.34l12,7.993l12-7.992l-8-5.335h-8V147.832z"/>
<path fill="#F39C12" d="M276.832,150.5v2.673c0,2.21,2.984,4,6.668,4c3.682,0,6.666-1.79,6.666-4V150.5H276.832L276.832,150.5z"/>
<path fill="#E67E22" d="M276.832,150.5v2.673c0,2.21,2.984,4,6.668,4V150.5H276.832z"/>
<path fill="#F1C40F" d="M290.166,150.5c0,2.215-2.984,4-6.666,4c-3.684,0-6.666-1.785-6.666-4c0-2.21,2.986-4,6.67-4
	c3.682,0,6.664,1.79,6.664,4H290.166L290.166,150.5z"/>
<path fill="#95A5A6" d="M352.504,43.526v4.18c-0.01,0.023,0,0.052,0,0.075c0,3.022,4.896,5.476,10.943,5.476
	c6.047,0,10.947-2.45,10.947-5.472v-4.259H352.504L352.504,43.526z"/>
<path fill="#BDC3C7" d="M374.4,43.526c0,2.687-4.903,4.864-10.95,4.864c-6.05,0-10.943-2.18-10.943-4.865
	c0-2.69,4.896-4.87,10.943-4.87c6.047,0,10.95,2.18,10.95,4.866V43.526z"/>
<path fill="#7F8C8D" d="M352.581,47.783c-0.058,0.2-0.073,0.4-0.073,0.607c0,2.688,4.896,4.865,10.943,4.865
	c6.047,0,10.95-2.185,10.95-4.87c0-0.206-0.022-0.407-0.077-0.606c-0.674,2.4-5.29,4.26-10.873,4.26
	c-5.582,0-10.198-1.86-10.87-4.26V47.783L352.581,47.783z"/>
<path fill="#95A5A6" d="M352.504,37.443v4.182c-0.01,0.02,0,0.05,0,0.07c0,3.022,4.896,5.476,10.943,5.476
	c6.047,0,10.947-2.45,10.947-5.477v-4.258l-21.89,0.002V37.443L352.504,37.443z"/>
<path fill="#BDC3C7" d="M374.4,37.443c0,2.688-4.903,4.866-10.95,4.866c-6.05,0-10.943-2.18-10.943-4.866
	c0-2.688,4.896-4.865,10.943-4.865C369.498,32.578,374.4,34.758,374.4,37.443z"/>
<path fill="#7F8C8D" d="M352.581,41.701c-0.058,0.2-0.073,0.4-0.073,0.607c0,2.688,4.896,4.865,10.943,4.865
	c6.047,0,10.95-2.18,10.95-4.865c0-0.206-0.022-0.408-0.077-0.607c-0.674,2.398-5.29,4.254-10.873,4.254
	c-5.582,0-10.197-1.858-10.87-4.26v0.002V41.701L352.581,41.701z"/>
<path fill="#95A5A6" d="M352.504,31.361v4.18c-0.01,0.025,0,0.05,0,0.076c0,3.025,4.896,5.48,10.943,5.48
	c6.047,0,10.947-2.45,10.947-5.474v-4.258h-21.89V31.361L352.504,31.361z"/>
<path fill="#7F8C8D" d="M352.581,35.619c-0.058,0.2-0.073,0.4-0.073,0.607c0,2.688,4.896,4.865,10.943,4.865
	c6.047,0,10.95-2.18,10.95-4.862c0-0.206-0.022-0.41-0.077-0.608c-0.674,2.4-5.29,4.258-10.873,4.258
	c-5.582,0-10.197-1.854-10.87-4.258V35.619L352.581,35.619z"/>
<path fill="#BDC3C7" d="M363.451,43.526v9.728c6.047,0,10.95-2.45,10.95-5.475v-4.258l-10.95,0.004V43.526z"/>
<path fill="#ECF0F1" d="M363.451,38.662v9.73c6.047,0,10.95-2.18,10.95-4.864C374.4,40.84,369.498,38.662,363.451,38.662z"/>
<path fill="#BDC3C7" d="M363.451,37.443v9.729c6.047,0,10.95-2.45,10.95-5.476v-4.254l-10.95,0.004V37.443z"/>
<path fill="#95A5A6" d="M374.324,41.701c-0.674,2.4-5.29,4.258-10.873,4.258v1.218c6.047,0,10.95-2.18,10.95-4.86
	c0-0.213-0.02-0.413-0.077-0.61V41.701L374.324,41.701z"/>
<path fill="#ECF0F1" d="M363.451,32.578v9.73c6.047,0,10.95-2.18,10.95-4.864c0-2.684-4.903-4.863-10.95-4.863V32.578z"/>
<path fill="#BDC3C7" d="M363.451,31.361v9.729c6.047,0,10.95-2.45,10.95-5.476v-4.26h-10.95v0.002V31.361z"/>
<path fill="#95A5A6" d="M374.324,35.619c-0.674,2.398-5.29,4.258-10.873,4.258v1.22c6.047,0,10.95-2.18,10.95-4.863
	c0-0.21-0.02-0.412-0.077-0.61V35.619L374.324,35.619z M374.324,47.783c-0.674,2.4-5.29,4.26-10.873,4.26v1.215
	c6.047,0,10.95-2.178,10.95-4.863c0-0.21-0.02-0.415-0.077-0.616V47.783L374.324,47.783z"/>
<path fill="#BDC3C7" d="M374.4,31.361c0,2.688-4.903,4.866-10.95,4.866c-6.05,0-10.943-2.18-10.943-4.862
	c0-2.687,4.896-4.865,10.943-4.865c6.047,0,10.95,2.18,10.95,4.866V31.361z"/>
<path fill="#95A5A6" d="M271.504,43.768v4.18c-0.01,0.023,0,0.052,0,0.075c0,3.022,4.896,5.476,10.943,5.476
	c6.047,0,10.947-2.45,10.947-5.472v-4.259H271.504L271.504,43.768z"/>
<path fill="#BDC3C7" d="M293.4,43.768c0,2.687-4.903,4.864-10.95,4.864c-6.05,0-10.943-2.18-10.943-4.865
	c0-2.69,4.896-4.87,10.943-4.87c6.047,0,10.95,2.18,10.95,4.866V43.768z"/>
<path fill="#7F8C8D" d="M271.581,48.025c-0.058,0.2-0.073,0.4-0.073,0.607c0,2.688,4.896,4.865,10.943,4.865
	c6.047,0,10.95-2.185,10.95-4.87c0-0.206-0.022-0.407-0.077-0.606c-0.674,2.4-5.29,4.26-10.873,4.26
	c-5.582,0-10.198-1.86-10.87-4.26V48.025L271.581,48.025z"/>
<path fill="#95A5A6" d="M271.504,37.685v4.182c-0.01,0.02,0,0.05,0,0.07c0,3.022,4.896,5.476,10.943,5.476
	c6.047,0,10.947-2.45,10.947-5.477v-4.258l-21.89,0.002V37.685L271.504,37.685z"/>
<path fill="#BDC3C7" d="M293.4,37.685c0,2.688-4.903,4.866-10.95,4.866c-6.05,0-10.943-2.18-10.943-4.866
	c0-2.688,4.896-4.865,10.943-4.865C288.498,32.82,293.4,35,293.4,37.685z"/>
<path fill="#7F8C8D" d="M271.581,41.943c-0.058,0.2-0.073,0.4-0.073,0.607c0,2.688,4.896,4.865,10.943,4.865
	c6.047,0,10.95-2.18,10.95-4.865c0-0.206-0.022-0.408-0.077-0.607c-0.674,2.398-5.29,4.254-10.873,4.254
	c-5.582,0-10.197-1.858-10.87-4.26v0.002V41.943L271.581,41.943z"/>
<path fill="#95A5A6" d="M271.504,31.603v4.18c-0.01,0.025,0,0.05,0,0.076c0,3.025,4.896,5.48,10.943,5.48
	c6.047,0,10.947-2.45,10.947-5.474v-4.258h-21.89V31.603L271.504,31.603z"/>
<path fill="#7F8C8D" d="M271.581,35.861c-0.058,0.2-0.073,0.4-0.073,0.607c0,2.688,4.896,4.865,10.943,4.865
	c6.047,0,10.95-2.18,10.95-4.862c0-0.206-0.022-0.41-0.077-0.608c-0.674,2.4-5.29,4.258-10.873,4.258
	c-5.582,0-10.197-1.854-10.87-4.258V35.861L271.581,35.861z"/>
<path fill="#BDC3C7" d="M282.451,43.768v9.728c6.047,0,10.95-2.45,10.95-5.475v-4.258l-10.95,0.004V43.768z"/>
<path fill="#ECF0F1" d="M282.451,38.904v9.73c6.047,0,10.95-2.18,10.95-4.864C293.4,41.082,288.498,38.904,282.451,38.904z"/>
<path fill="#BDC3C7" d="M282.451,37.685v9.729c6.047,0,10.95-2.45,10.95-5.476v-4.254l-10.95,0.004V37.685z"/>
<path fill="#95A5A6" d="M293.324,41.943c-0.674,2.4-5.29,4.258-10.873,4.258v1.218c6.047,0,10.95-2.18,10.95-4.86
	c0-0.213-0.02-0.413-0.077-0.61V41.943L293.324,41.943z"/>
<path fill="#ECF0F1" d="M282.451,32.82v9.73c6.047,0,10.95-2.18,10.95-4.864c0-2.684-4.903-4.863-10.95-4.863V32.82z"/>
<path fill="#BDC3C7" d="M282.451,31.603v9.729c6.047,0,10.95-2.45,10.95-5.476v-4.26h-10.95v0.002V31.603z"/>
<path fill="#95A5A6" d="M293.324,35.861c-0.674,2.398-5.29,4.258-10.873,4.258v1.22c6.047,0,10.95-2.18,10.95-4.863
	c0-0.21-0.02-0.412-0.077-0.61V35.861L293.324,35.861z M293.324,48.025c-0.674,2.4-5.29,4.26-10.873,4.26V53.5
	c6.047,0,10.95-2.178,10.95-4.863c0-0.21-0.02-0.415-0.077-0.616V48.025L293.324,48.025z"/>
<path fill="#BDC3C7" d="M293.4,31.603c0,2.688-4.903,4.866-10.95,4.866c-6.05,0-10.943-2.18-10.943-4.862
	c0-2.687,4.896-4.865,10.943-4.865c6.047,0,10.95,2.18,10.95,4.866V31.603z"/>
<text transform="matrix(1 0 0 1 271.5 71.5)" font-family="'Helvetica'" font-size="12">Events</text>
<text transform="matrix(1 0 0 1 271.5 85.8984)" font-family="'Helvetica'" font-size="12">databases</text>
<path fill="none" stroke="#BDC3C7" stroke-miterlimit="10" d="M10.5,125.5h441v108h-441V125.5z"/>
<path fill="none" stroke="#BDC3C7" stroke-miterlimit="10" d="M10.5,242.5h441v108h-441V242.5z"/>
<text transform="matrix(1 0 0 1 28.5 143.5)" enable-background="new    "><tspan x="0" y="0" fill="#96A5A6" font-family="'Helvetica'" font-size="12">Server</tspan><tspan x="0" y="14.4" fill="#96A5A6" font-family="'Helvetica'" font-size="12">api</tspan></text>
<text transform="matrix(1 0 0 1 28.5 260.5)" enable-background="new    "><tspan x="0" y="0" fill="#96A5A6" font-family="'Helvetica'" font-size="12">Server</tspan><tspan x="0" y="14.4" fill="#96A5A6" font-family="'Helvetica'" font-size="12">web</tspan></text>
<line fill="none" stroke="#CCCCCC" stroke-miterlimit="10" stroke-dasharray="4,4" x1="370.5" y1="98.5" x2="370.5" y2="260.5"/>
<line fill="none" stroke="#CCCCCC" stroke-miterlimit="10" stroke-dasharray="4,4" x1="118.5" y1="98.5" x2="118.5" y2="143.5"/>
<line fill="none" stroke="#CCCCCC" stroke-miterlimit="10" stroke-dasharray="4,4" x1="289.5" y1="98.5" x2="289.5" y2="143.5"/>
<line fill="none" stroke="#CCCCCC" stroke-miterlimit="10" stroke-dasharray="4,4" x1="127.5" y1="107.5" x2="127.5" y2="143.5"/>
<line fill="none" stroke="#CCCCCC" stroke-miterlimit="10" stroke-dasharray="4,4" x1="127.5" y1="107.5" x2="190.5" y2="107.5"/>
<line fill="none" stroke="#CCCCCC" stroke-miterlimit="10" stroke-dasharray="4,4" x1="208.5" y1="107.5" x2="280.5" y2="107.5"/>
<line fill="none" stroke="#CCCCCC" stroke-miterlimit="10" stroke-dasharray="4,4" x1="280.5" y1="107.5" x2="280.5" y2="143.5"/>
<line fill="none" stroke="#CCCCCC" stroke-miterlimit="10" stroke-dasharray="4,4" x1="118.5" y1="215.5" x2="118.5" y2="260.5"/>
<line fill="none" stroke="#CCCCCC" stroke-miterlimit="10" stroke-dasharray="4,4" x1="280.5" y1="215.5" x2="280.5" y2="260.5"/>
<line fill="none" stroke="#CCCCCC" stroke-miterlimit="10" stroke-dasharray="4,4" x1="289.5" y1="215.5" x2="289.5" y2="224.5"/>
<line fill="none" stroke="#CCCCCC" stroke-miterlimit="10" stroke-dasharray="4,4" x1="361.5" y1="224.5" x2="361.5" y2="260.5"/>
<line fill="none" stroke="#CCCCCC" stroke-miterlimit="10" stroke-dasharray="4,4" x1="289.5" y1="224.5" x2="361.5" y2="224.5"/>
<line fill="none" stroke="#CCCCCC" stroke-miterlimit="10" stroke-dasharray="4,4" x1="199.5" y1="98.5" x2="199.5" y2="341.5"/>
<line fill="none" stroke="#CCCCCC" stroke-miterlimit="10" stroke-dasharray="4,4" x1="190.5" y1="98.5" x2="190.5" y2="107.5"/>
<line fill="none" stroke="#CCCCCC" stroke-miterlimit="10" stroke-dasharray="4,4" x1="208.5" y1="98.5" x2="208.5" y2="107.5"/>
<line fill="none" stroke="#CCCCCC" stroke-miterlimit="10" stroke-dasharray="4,4" x1="361.5" y1="332.5" x2="361.5" y2="341.5"/>
<line fill="none" stroke="#CCCCCC" stroke-miterlimit="10" stroke-dasharray="4,4" x1="199.5" y1="341.5" x2="361.5" y2="341.5"/>
<text transform="matrix(1 0 0 1 271.5 431.5)" font-family="'Helvetica'" font-size="12">RabbitMQ</text>
<text transform="matrix(1 0 0 1 271.5 445.9004)" font-family="'Helvetica'" font-size="12">queue</text>
<path fill="#F39C12" d="M291.5,395.5l2,10h-2V395.5z M273.5,395.5l-2,10h2V395.5z"/>
<path fill="#E67E22" d="M273.5,398.5l-2,14h22l-2-14H273.5z"/>
<path fill="#F1C40F" d="M271.5,405.5v7h22v-7h-8.188c-0.416,1.158-1.513,2-2.812,2s-2.396-0.842-2.812-2H271.5z"/>
<path fill="#F39C12" d="M273.5,395.5h18v3h-18V395.5z M271.5,412.5h22v1h-22V412.5z"/>
</svg>
