<?xml version="1.0" encoding="utf-8"?>
<!-- Generator: Adobe Illustrator 16.0.4, SVG Export Plug-In . SVG Version: 6.00 Build 0)  -->
<!DOCTYPE svg PUBLIC "-//W3C//DTD SVG 1.1//EN" "http://www.w3.org/Graphics/SVG/1.1/DTD/svg11.dtd">
<svg version="1.1" id="Layer_1" xmlns="http://www.w3.org/2000/svg" xmlns:xlink="http://www.w3.org/1999/xlink" x="0px" y="0px"
	 width="330px" height="230px" viewBox="0 0 330 230" enable-background="new 0 0 330 230" xml:space="preserve">
<text transform="matrix(1 0 0 1 136.5 135.5)" font-family="'Helvetica'" font-size="12">WorldSkills</text>
<text transform="matrix(1 0 0 1 136.5 149.9004)" font-family="'Helvetica'" font-size="12">infrastructure</text>
<g>
	<path fill="none" stroke="#CCCCCC" stroke-miterlimit="10" stroke-dasharray="4,4" d="M154.5,84.916v0.094 M154.5,36.5v51.63
		 M154.5,90.406V90.5"/>
</g>
<g>
	<path fill="none" stroke="#CCCCCC" stroke-miterlimit="10" stroke-dasharray="4,4" d="M228.985,108.5h0.109 M172.5,108.5h60.235
		 M235.391,108.5h0.109"/>
</g>
<rect x="80.5" y="9.5" fill="none" stroke="#BDC3C7" stroke-miterlimit="10" width="236" height="206"/>
<g id="layer1" transform="translate(0,-1028.3622)">
	<path id="path4131" fill="#34495E" d="M256.513,1049.845c-0.405,0-0.805,0.061-1.188,0.156c-0.224,0.057-0.441,0.131-0.656,0.219
		c-0.083,0.034-0.168,0.055-0.25,0.094c-0.034,0.016-0.06,0.046-0.094,0.062c-0.203,0.101-0.402,0.217-0.594,0.344
		c-0.027,0.018-0.067,0.013-0.094,0.031c-0.056,0.039-0.101,0.084-0.156,0.125c-0.157,0.112-0.322,0.216-0.469,0.344
		c-0.134,0.121-0.25,0.272-0.375,0.406c-0.425,0.436-0.793,0.897-1.094,1.438c-0.516,0.903-0.9,1.92-1.062,2.969
		c-0.078-0.017-0.15-0.022-0.219,0c-0.525,0.171-0.654,1.168-0.312,2.219c0.201,0.616,0.535,1.102,0.875,1.375
		c0.457,1.778,1.426,3.26,2.688,4.188v1.031l-1,1l-2,1c-1.617,0.801-3.229,1.605-4.844,2.406c-0.895,0.54-1.242,1.6-1.156,2.594
		c0.042,0.626-0.185,1.428,0.438,1.844c0.591,0.304,1.296,0.105,1.938,0.156c1.876-0.001,3.749,0,5.625,0c2.669,0,5.331,0,8,0
		c2.367,0,4.727,0.004,7.094,0c0.769-0.055,0.98-0.865,0.906-1.5c0.014-0.932,0.068-1.977-0.656-2.688
		c-0.592-0.603-1.434-0.841-2.156-1.25c-1.061-0.525-2.127-1.037-3.188-1.562l-2-1l-1-1v-1.031c1.262-0.928,2.23-2.41,2.688-4.188
		c0.34-0.273,0.674-0.759,0.875-1.375c0.342-1.05,0.213-2.048-0.312-2.219c-0.068-0.022-0.141-0.017-0.219,0
		c-0.162-1.048-0.547-2.065-1.062-2.969c-0.301-0.541-0.668-1.002-1.094-1.438c-0.125-0.134-0.24-0.286-0.375-0.406
		c-0.006-0.005-0.025,0.005-0.031,0c-0.393-0.35-0.827-0.619-1.281-0.844c-0.115-0.056-0.227-0.108-0.344-0.156
		c-0.084-0.034-0.165-0.064-0.25-0.094c-0.256-0.088-0.516-0.174-0.781-0.219c-0.021-0.003-0.042,0.003-0.062,0
		C257.013,1049.868,256.768,1049.842,256.513,1049.845z"/>
	<path id="path4131-9" inkscape:connector-curvature="0" fill="#2C3E50" d="M244.513,1072.845c0.026,0.33,0.126,0.636,0.438,0.844
		c0.591,0.304,1.296,0.106,1.938,0.156c1.876-0.001,3.749,0,5.625,0c2.669,0,5.331,0,8,0c2.367,0,4.727,0.004,7.094,0
		c0.576-0.041,0.842-0.502,0.906-1H244.513z"/>
</g>
<g id="layer1_1_" transform="translate(0,-1028.3622)">
	<path id="path4131_1_" fill="#34495E" d="M256.513,1121.845c-0.405,0-0.805,0.061-1.188,0.156
		c-0.225,0.057-0.441,0.131-0.656,0.219c-0.084,0.034-0.168,0.055-0.25,0.094c-0.034,0.016-0.061,0.046-0.094,0.062
		c-0.203,0.101-0.402,0.217-0.594,0.344c-0.027,0.018-0.066,0.013-0.094,0.031c-0.057,0.039-0.102,0.084-0.156,0.125
		c-0.156,0.112-0.322,0.216-0.469,0.344c-0.135,0.121-0.25,0.272-0.375,0.406c-0.426,0.436-0.793,0.897-1.094,1.438
		c-0.516,0.903-0.9,1.92-1.062,2.969c-0.078-0.017-0.15-0.022-0.219,0c-0.525,0.171-0.654,1.168-0.312,2.219
		c0.201,0.616,0.535,1.102,0.875,1.375c0.457,1.778,1.426,3.26,2.688,4.188v1.031l-1,1l-2,1c-1.617,0.801-3.229,1.605-4.844,2.406
		c-0.895,0.54-1.242,1.6-1.156,2.594c0.041,0.626-0.185,1.428,0.438,1.844c0.591,0.304,1.296,0.105,1.938,0.156
		c1.877-0.001,3.748,0,5.625,0c2.669,0,5.331,0,8,0c2.367,0,4.727,0.004,7.094,0c0.769-0.055,0.98-0.865,0.906-1.5
		c0.014-0.932,0.068-1.977-0.656-2.688c-0.592-0.603-1.434-0.841-2.156-1.25c-1.061-0.525-2.127-1.037-3.188-1.562l-2-1l-1-1v-1.031
		c1.262-0.928,2.23-2.41,2.688-4.188c0.34-0.273,0.674-0.759,0.875-1.375c0.342-1.05,0.213-2.048-0.312-2.219
		c-0.068-0.022-0.141-0.017-0.219,0c-0.162-1.048-0.547-2.065-1.062-2.969c-0.301-0.541-0.668-1.002-1.094-1.438
		c-0.125-0.134-0.24-0.286-0.375-0.406c-0.006-0.005-0.025,0.005-0.031,0c-0.393-0.35-0.827-0.619-1.281-0.844
		c-0.115-0.056-0.227-0.108-0.344-0.156c-0.084-0.034-0.165-0.064-0.25-0.094c-0.256-0.088-0.516-0.174-0.781-0.219
		c-0.021-0.003-0.042,0.003-0.062,0C257.013,1121.868,256.769,1121.842,256.513,1121.845z"/>
	<path id="path4131-9_1_" inkscape:connector-curvature="0" fill="#2C3E50" d="M244.513,1144.845
		c0.026,0.33,0.127,0.636,0.438,0.844c0.591,0.304,1.296,0.106,1.938,0.156c1.877-0.001,3.748,0,5.625,0c2.669,0,5.331,0,8,0
		c2.367,0,4.727,0.004,7.094,0c0.576-0.041,0.842-0.502,0.906-1H244.513z"/>
</g>
<g id="layer1_2_" transform="translate(0,-1028.3622)">
	<path id="path4131_2_" fill="#34495E" d="M22.513,1121.845c-0.405,0-0.805,0.061-1.188,0.156c-0.224,0.057-0.441,0.131-0.656,0.219
		c-0.083,0.034-0.168,0.055-0.25,0.094c-0.034,0.016-0.06,0.046-0.094,0.062c-0.203,0.101-0.402,0.217-0.594,0.344
		c-0.027,0.018-0.067,0.013-0.094,0.031c-0.056,0.039-0.101,0.084-0.156,0.125c-0.157,0.112-0.322,0.216-0.469,0.344
		c-0.134,0.121-0.25,0.272-0.375,0.406c-0.425,0.436-0.793,0.897-1.094,1.438c-0.516,0.903-0.9,1.92-1.062,2.969
		c-0.078-0.017-0.15-0.022-0.219,0c-0.525,0.171-0.654,1.168-0.312,2.219c0.201,0.616,0.535,1.102,0.875,1.375
		c0.457,1.778,1.426,3.26,2.688,4.188v1.031l-1,1l-2,1c-1.617,0.801-3.229,1.605-4.844,2.406c-0.895,0.54-1.242,1.6-1.156,2.594
		c0.042,0.626-0.185,1.428,0.438,1.844c0.591,0.304,1.296,0.105,1.938,0.156c1.876-0.001,3.749,0,5.625,0c2.669,0,5.331,0,8,0
		c2.367,0,4.727,0.004,7.094,0c0.769-0.055,0.98-0.865,0.906-1.5c0.014-0.932,0.068-1.977-0.656-2.688
		c-0.592-0.603-1.434-0.841-2.156-1.25c-1.061-0.525-2.127-1.037-3.188-1.562l-2-1l-1-1v-1.031c1.262-0.928,2.23-2.41,2.688-4.188
		c0.34-0.273,0.674-0.759,0.875-1.375c0.342-1.05,0.213-2.048-0.312-2.219c-0.068-0.022-0.141-0.017-0.219,0
		c-0.162-1.048-0.547-2.065-1.062-2.969c-0.301-0.541-0.668-1.002-1.094-1.438c-0.125-0.134-0.24-0.286-0.375-0.406
		c-0.006-0.005-0.025,0.005-0.031,0c-0.393-0.35-0.827-0.619-1.281-0.844c-0.115-0.056-0.227-0.108-0.344-0.156
		c-0.084-0.034-0.165-0.064-0.25-0.094c-0.256-0.088-0.516-0.174-0.781-0.219c-0.021-0.003-0.042,0.003-0.062,0
		C23.013,1121.868,22.768,1121.842,22.513,1121.845z"/>
	<path id="path4131-9_2_" inkscape:connector-curvature="0" fill="#2C3E50" d="M10.513,1144.845c0.026,0.33,0.126,0.636,0.438,0.844
		c0.591,0.304,1.296,0.106,1.938,0.156c1.876-0.001,3.749,0,5.625,0c2.669,0,5.331,0,8,0c2.367,0,4.727,0.004,7.094,0
		c0.576-0.041,0.842-0.502,0.906-1H10.513z"/>
</g>
<text transform="matrix(1 0 0 1 10.5 135.5)" font-family="'Helvetica'" font-size="12">Hoster</text>
<text transform="matrix(1 0 0 1 244.5 135.5)" font-family="'Helvetica'" font-size="12">User</text>
<text transform="matrix(1 0 0 1 244.5 63.5)" font-family="'Helvetica'" font-size="12">Developer</text>
<g>
	<path fill="none" stroke="#CCCCCC" stroke-miterlimit="10" stroke-dasharray="4,4" d="M227.124,36.5h0.141 M154.5,36.5h77.445
		 M235.359,36.5h0.141"/>
</g>
<g>
	<path fill="none" stroke="#CCCCCC" stroke-miterlimit="10" stroke-dasharray="4,4" d="M119.124,108.5h0.141 M46.5,108.5h77.445
		 M127.359,108.5h0.141"/>
</g>
<g id="layer1_4_" transform="translate(0,-1028.3622)">
	<path id="path3144" sodipodi:nodetypes="ccccccc" inkscape:connector-curvature="0" fill="#ECF0F1" d="M12.5,1052.862l-2,5h20l-2-5
		h-4h-8H12.5z"/>
	<path id="path3926" sodipodi:nodetypes="ccccc" inkscape:connector-curvature="0" fill="#1ABC9C" d="M17.5,1057.862h6l-1-5h-4
		L17.5,1057.862z"/>
	<path id="path3971" inkscape:connector-curvature="0" fill="none" d="M10.5,1056.862h20l-2,13h-17L10.5,1056.862z"/>
	<rect id="rect3976" x="10.5" y="1057.862" fill="#BDC3C7" width="20" height="16"/>
	<path id="path2994" inkscape:connector-curvature="0" fill="#ECF0F1" d="M13.5,1067.862c-0.552,0-1,0.447-1,1v2
		c0,0.553,0.448,1,1,1h6c0.552,0,1-0.447,1-1v-2c0-0.553-0.448-1-1-1H13.5z"/>
	<path id="rect3978" fill="#16A085" d="M17.5,1057.862v6v1l1-1l1,1l1-1l1,1l1-1l1,1v-1v-6H17.5z"/>
	<rect id="rect2990" x="13.5" y="1068.862" fill="#95A5A6" width="1" height="2"/>
	<rect id="rect2990-5" x="15.5" y="1068.862" fill="#95A5A6" width="1" height="2"/>
	<rect id="rect2990-5-3" x="17.5" y="1068.862" fill="#95A5A6" width="1" height="2"/>
	<rect id="rect2990-5-3-9" x="18.5" y="1068.862" fill="#7F8C8D" width="1" height="2"/>
	<rect id="rect2990-8" x="16.5" y="1068.862" fill="#BDC3C7" width="1" height="2"/>
</g>
<text transform="matrix(1 0 0 1 10.5 63.5)" font-family="'Helvetica'" font-size="12">GitHub</text>
<g>
	<path fill="none" stroke="#CCCCCC" stroke-miterlimit="10" stroke-dasharray="4,4" d="M135.263,36.5h0.172 M46.5,36.5h94.655
		 M145.328,36.5h0.172"/>
</g>
<g>
	<path fill="none" stroke="#CCCCCC" stroke-miterlimit="10" stroke-dasharray="4,4" d="M145.5,84.916v0.094 M145.5,36.5v51.63
		 M145.5,90.406V90.5"/>
</g>
<g id="layer1_3_" transform="translate(0,-1028.3622)" inkscape:label="Layer 1" inkscape:groupmode="layer">
	<path id="path2987" inkscape:connector-curvature="0" fill="#E74C3C" d="M136.5,1139.862l12,6l12-6l-12-6L136.5,1139.862z"/>
	<path id="path2987-4-9-9" inkscape:connector-curvature="0" fill="#C0392B" d="M148.5,1133.862l-9,4.5l9,4.5l9-4.5L148.5,1133.862z
		"/>
	<path id="path2987-4" inkscape:connector-curvature="0" fill="#3498DB" d="M136.5,1135.862l12,6l12-6l-12-6L136.5,1135.862z"/>
	<path id="path2987-4-9" inkscape:connector-curvature="0" fill="#2980B9" d="M148.5,1129.862l-9,4.5l9,4.5l9-4.5L148.5,1129.862z"
		/>
	<path id="path2987-4-1" inkscape:connector-curvature="0" fill="#F1C40F" d="M136.5,1131.862l12,6l12-6l-12-6L136.5,1131.862z"/>
</g>
<g id="layer1_5_" transform="translate(0,-1028.3622)" inkscape:label="Layer 1" inkscape:groupmode="layer">
	<path id="rect3320-6" inkscape:connector-curvature="0" fill="#7F8C8D" d="M25.531,1190.862v1.062
		c-0.312,0.064-0.617,0.176-0.875,0.344l-0.75-0.75l-0.719,0.719l0.75,0.75c-0.168,0.258-0.279,0.563-0.344,0.875h-1.062v1h1.062
		c0.064,0.312,0.176,0.617,0.344,0.875l-0.75,0.75l0.719,0.719l0.75-0.75c0.258,0.168,0.563,0.28,0.875,0.344v1.062h1v-1.062
		c0.312-0.064,0.617-0.176,0.875-0.344l0.75,0.75l0.719-0.719l-0.75-0.75c0.168-0.258,0.279-0.563,0.344-0.875h1.062v-1h-1.062
		c-0.064-0.312-0.176-0.617-0.344-0.875l0.75-0.75l-0.719-0.719l-0.75,0.75c-0.258-0.168-0.563-0.28-0.875-0.344v-1.062H25.531z
		 M26.031,1192.862c0.828,0,1.5,0.672,1.5,1.5s-0.672,1.5-1.5,1.5s-1.5-0.672-1.5-1.5S25.203,1192.862,26.031,1192.862z"/>
	<path id="rect3460" inkscape:connector-curvature="0" fill="#95A5A6" d="M28.531,1195.831v1.031
		c-0.271,0.038-0.534,0.122-0.781,0.219l-0.531-0.906l-0.875,0.5l0.531,0.906c-0.223,0.175-0.419,0.37-0.594,0.594l-0.906-0.531
		l-0.5,0.875l0.906,0.531c-0.096,0.247-0.181,0.511-0.219,0.781h-1.031v1h1.031c0.038,0.271,0.123,0.534,0.219,0.781l-0.906,0.531
		l0.5,0.875l0.906-0.531c0.175,0.223,0.371,0.419,0.594,0.594l-0.531,0.906l0.875,0.5l0.531-0.906
		c0.247,0.096,0.511,0.181,0.781,0.219v1.031h1v-1.031c0.271-0.038,0.534-0.123,0.781-0.219l0.531,0.906l0.875-0.5l-0.531-0.906
		c0.223-0.175,0.419-0.371,0.594-0.594l0.906,0.531l0.5-0.875l-0.906-0.531c0.096-0.247,0.181-0.511,0.219-0.781h1.031v-1H32.5
		c-0.038-0.271-0.123-0.534-0.219-0.781l0.906-0.531l-0.5-0.875l-0.906,0.531c-0.175-0.224-0.371-0.419-0.594-0.594l0.531-0.906
		l-0.875-0.5l-0.531,0.906c-0.247-0.097-0.511-0.181-0.781-0.219v-1.031H28.531z M29.031,1197.831c1.381,0,2.5,1.119,2.5,2.5
		s-1.119,2.5-2.5,2.5s-2.5-1.119-2.5-2.5S27.65,1197.831,29.031,1197.831z"/>
	<path id="path2999" inkscape:connector-curvature="0" fill="#BDC3C7" d="M19.531,1193.831l-2.031,0.031v2.094
		c-0.36,0.062-0.712,0.15-1.062,0.281l-1.062-1.812l-1.719,1l1.031,1.812c-0.289,0.238-0.547,0.501-0.781,0.781l-1.812-1.031
		l-1,1.719l1.812,1.062c-0.134,0.36-0.249,0.715-0.312,1.094H10.5v2l2.125,0.031c0.063,0.36,0.15,0.712,0.281,1.062l-1.812,1.031
		l1,1.75l1.812-1.062c0.238,0.289,0.501,0.547,0.781,0.781l-1.062,1.812l1.75,1.031l1.031-1.812c0.36,0.135,0.746,0.218,1.125,0.281
		v2.094h2v-2.094c0.36-0.062,0.712-0.15,1.062-0.281l1.062,1.812l1.719-1l-1.031-1.812c0.289-0.238,0.547-0.501,0.781-0.781
		l1.812,1.031l1.031-1.75l-1.844-1.031c0.135-0.359,0.249-0.715,0.312-1.094h2.094v-2.031h-2.125
		c-0.062-0.36-0.15-0.712-0.281-1.062l1.812-1.031l-1-1.75l-1.812,1.062c-0.238-0.289-0.501-0.547-0.781-0.781l1.062-1.844l-1.75-1
		l-1.031,1.812c-0.36-0.134-0.746-0.218-1.125-0.281L19.531,1193.831z M18.531,1198.862c1.657,0,3,1.343,3,3c0,1.656-1.343,3-3,3
		s-3-1.344-3-3C15.531,1200.205,16.875,1198.862,18.531,1198.862z"/>
</g>
<text transform="matrix(1 0 0 1 10.5 199.5)" font-family="'Helvetica'" font-size="12">Codeship</text>
<g>
	<path fill="none" stroke="#CCCCCC" stroke-miterlimit="10" stroke-dasharray="4,4" d="M135.263,172.5h0.172 M46.5,172.5h94.655
		 M145.328,172.5h0.172"/>
</g>
<g>
	<path fill="none" stroke="#CCCCCC" stroke-miterlimit="10" stroke-dasharray="4,4" d="M145.5,170.569v0.016 M145.5,162.5v8.605
		 M145.5,171.484v0.016"/>
</g>
</svg>
