<?xml version="1.0" encoding="utf-8"?>
<!-- Generator: Adobe Illustrator 16.0.4, SVG Export Plug-In . SVG Version: 6.00 Build 0)  -->
<!DOCTYPE svg PUBLIC "-//W3C//DTD SVG 1.1//EN" "http://www.w3.org/Graphics/SVG/1.1/DTD/svg11.dtd">
<svg version="1.1" id="Layer_1" xmlns="http://www.w3.org/2000/svg" xmlns:xlink="http://www.w3.org/1999/xlink" x="0px" y="0px"
	 width="330px" height="230px" viewBox="0 0 330 230" enable-background="new 0 0 330 230" xml:space="preserve">
<text transform="matrix(1 0 0 1 136.5 135.5)" font-family="'Helvetica'" font-size="12">WorldSkills</text>
<text transform="matrix(1 0 0 1 136.5 149.9004)" font-family="'Helvetica'" font-size="12">infrastructure</text>
<path fill="none" stroke="#CCCCCC" stroke-miterlimit="10" stroke-dasharray="4,4" d="M154.5,84.916v0.094 M154.5,36.5v51.63
	 M154.5,90.406V90.5 M228.984,108.5h0.111 M172.5,108.5h60.234 M235.391,108.5h0.11"/>
<path fill="none" stroke="#BDC3C7" stroke-miterlimit="10" d="M80.5,9.5h236v206h-236V9.5z"/>
<g>
	<path fill="#34495E" d="M256.514,21.483c-0.406,0-0.806,0.06-1.188,0.156c-0.224,0.056-0.44,0.13-0.656,0.218
		c-0.084,0.034-0.17,0.055-0.25,0.094c-0.035,0.016-0.06,0.046-0.095,0.062c-0.203,0.1-0.402,0.217-0.594,0.344
		c-0.026,0.018-0.066,0.013-0.094,0.03c-0.056,0.04-0.1,0.085-0.156,0.126c-0.155,0.112-0.319,0.216-0.467,0.344
		c-0.135,0.12-0.25,0.272-0.375,0.406c-0.426,0.436-0.793,0.897-1.095,1.438c-0.517,0.903-0.899,1.92-1.062,2.97
		c-0.078-0.018-0.15-0.023-0.219,0c-0.525,0.17-0.654,1.167-0.312,2.218c0.2,0.616,0.534,1.102,0.875,1.375
		c0.457,1.778,1.426,3.26,2.688,4.188v1.03l-1,1l-2,1c-1.617,0.802-3.23,1.606-4.845,2.407c-0.896,0.54-1.243,1.6-1.157,2.594
		c0.043,0.626-0.185,1.428,0.438,1.844c0.592,0.304,1.297,0.105,1.94,0.156h13.621c2.366,0,4.727,0.004,7.094,0
		c0.77-0.055,0.979-0.865,0.906-1.5c0.014-0.932,0.067-1.977-0.656-2.688c-0.592-0.603-1.435-0.84-2.156-1.25
		c-1.061-0.525-2.127-1.037-3.188-1.562l-2-1l-1-1v-1.03c1.262-0.93,2.229-2.41,2.688-4.19c0.34-0.272,0.674-0.758,0.875-1.374
		c0.342-1.05,0.213-2.048-0.312-2.22c-0.068-0.02-0.14-0.016-0.22,0c-0.16-1.047-0.546-2.064-1.06-2.968
		c-0.303-0.54-0.67-1.002-1.096-1.438c-0.125-0.134-0.24-0.286-0.375-0.406c-0.006-0.005-0.025,0.005-0.029,0
		c-0.395-0.35-0.828-0.62-1.282-0.844c-0.115-0.056-0.228-0.108-0.345-0.156c-0.084-0.034-0.166-0.064-0.25-0.094
		c-0.256-0.088-0.517-0.174-0.781-0.22c-0.02-0.002-0.042,0.004-0.062,0c-0.253-0.038-0.498-0.064-0.753-0.06H256.514z"/>
	<path fill="#2C3E50" d="M244.514,44.483c0.025,0.33,0.125,0.636,0.438,0.844c0.592,0.304,1.297,0.106,1.939,0.156h13.623
		c2.366,0,4.727,0.004,7.094,0c0.576-0.04,0.842-0.502,0.906-1H244.514z"/>
</g>
<g>
	<path fill="#34495E" d="M256.514,93.483c-0.406,0-0.806,0.06-1.188,0.156c-0.226,0.056-0.44,0.13-0.656,0.218
		c-0.085,0.034-0.17,0.055-0.25,0.094c-0.035,0.016-0.062,0.046-0.095,0.062c-0.203,0.1-0.402,0.217-0.594,0.344
		c-0.026,0.018-0.065,0.013-0.094,0.03c-0.057,0.04-0.102,0.085-0.156,0.126c-0.154,0.112-0.319,0.216-0.467,0.344
		c-0.136,0.12-0.25,0.272-0.375,0.406c-0.427,0.436-0.793,0.897-1.095,1.438c-0.517,0.903-0.899,1.92-1.062,2.97
		c-0.078-0.018-0.15-0.023-0.219,0c-0.525,0.17-0.654,1.167-0.312,2.218c0.2,0.616,0.534,1.102,0.875,1.375
		c0.457,1.778,1.426,3.26,2.688,4.188v1.03l-1,1l-2,1c-1.617,0.802-3.23,1.606-4.845,2.407c-0.896,0.54-1.243,1.6-1.157,2.594
		c0.041,0.626-0.185,1.428,0.438,1.844c0.592,0.304,1.297,0.104,1.94,0.155h13.621c2.366,0,4.727,0.004,7.094,0
		c0.77-0.055,0.979-0.864,0.906-1.5c0.014-0.932,0.067-1.977-0.656-2.688c-0.592-0.603-1.435-0.84-2.156-1.25
		c-1.061-0.525-2.127-1.037-3.188-1.562l-2-1l-1-1v-1.03c1.262-0.93,2.229-2.41,2.688-4.19c0.34-0.272,0.674-0.758,0.875-1.374
		c0.342-1.05,0.213-2.048-0.312-2.22c-0.068-0.02-0.14-0.016-0.22,0c-0.16-1.047-0.546-2.064-1.06-2.968
		c-0.303-0.54-0.67-1.002-1.096-1.438c-0.125-0.134-0.24-0.286-0.375-0.406c-0.006-0.005-0.025,0.005-0.029,0
		c-0.395-0.35-0.828-0.62-1.282-0.844c-0.115-0.056-0.228-0.108-0.345-0.156c-0.084-0.034-0.166-0.064-0.25-0.094
		c-0.256-0.088-0.517-0.174-0.781-0.22c-0.02-0.002-0.042,0.004-0.062,0c-0.253-0.038-0.496-0.064-0.753-0.06H256.514z"/>
	<path fill="#2C3E50" d="M244.514,116.482c0.025,0.33,0.127,0.637,0.438,0.845c0.592,0.304,1.297,0.106,1.939,0.155h13.623
		c2.366,0,4.727,0.004,7.094,0c0.576-0.039,0.842-0.502,0.906-1H244.514z"/>
</g>
<g>
	<path fill="#34495E" d="M22.513,93.483c-0.405,0-0.805,0.06-1.188,0.156c-0.224,0.056-0.44,0.13-0.656,0.218
		c-0.084,0.034-0.17,0.055-0.25,0.094c-0.035,0.016-0.06,0.046-0.095,0.062c-0.203,0.1-0.402,0.217-0.594,0.344
		c-0.026,0.018-0.066,0.013-0.093,0.03c-0.056,0.04-0.1,0.085-0.156,0.126c-0.156,0.112-0.32,0.216-0.468,0.344
		c-0.134,0.12-0.25,0.272-0.375,0.406c-0.425,0.436-0.793,0.897-1.094,1.438c-0.516,0.903-0.9,1.92-1.062,2.97
		c-0.077-0.018-0.15-0.023-0.218,0c-0.525,0.17-0.654,1.167-0.312,2.218c0.2,0.616,0.535,1.102,0.875,1.375
		c0.457,1.778,1.426,3.26,2.688,4.188v1.03l-1,1l-2,1c-1.617,0.802-3.23,1.606-4.844,2.407c-0.896,0.54-1.243,1.6-1.157,2.594
		c0.042,0.626-0.185,1.428,0.438,1.844c0.592,0.304,1.297,0.104,1.94,0.155h13.621c2.367,0,4.727,0.004,7.094,0
		c0.77-0.055,0.98-0.864,0.906-1.5c0.014-0.932,0.068-1.977-0.656-2.688c-0.592-0.603-1.434-0.84-2.156-1.25
		c-1.06-0.525-2.127-1.037-3.188-1.562l-2-1l-1-1v-1.03c1.262-0.93,2.23-2.41,2.688-4.19c0.34-0.272,0.674-0.758,0.875-1.374
		c0.342-1.05,0.213-2.048-0.312-2.22c-0.068-0.02-0.14-0.016-0.22,0c-0.16-1.047-0.546-2.064-1.06-2.968
		c-0.302-0.54-0.67-1.002-1.095-1.438c-0.125-0.134-0.24-0.286-0.375-0.406c-0.006-0.005-0.025,0.005-0.03,0
		c-0.394-0.35-0.828-0.62-1.282-0.844c-0.115-0.056-0.227-0.108-0.344-0.156c-0.085-0.034-0.166-0.064-0.25-0.094
		c-0.257-0.088-0.517-0.174-0.782-0.22c-0.02-0.002-0.042,0.004-0.062,0c-0.253-0.038-0.498-0.064-0.753-0.06H22.513z"/>
	<path fill="#2C3E50" d="M10.513,116.482c0.026,0.33,0.126,0.637,0.438,0.845c0.592,0.304,1.297,0.106,1.94,0.155h13.622
		c2.367,0,4.727,0.004,7.094,0c0.576-0.039,0.842-0.502,0.906-1H10.513z"/>
</g>
<text transform="matrix(1 0 0 1 10.5 135.5)" font-family="'Helvetica'" font-size="12">Hoster</text>
<text transform="matrix(1 0 0 1 244.5 135.5)" font-family="'Helvetica'" font-size="12">User</text>
<text transform="matrix(1 0 0 1 244.5 63.5)" font-family="'Helvetica'" font-size="12">Developer</text>
<path fill="none" stroke="#CCCCCC" stroke-miterlimit="10" stroke-dasharray="4,4" d="M227.124,36.5h0.14 M154.5,36.5h77.445
	 M235.359,36.5h0.14 M119.124,108.5h0.14 M46.5,108.5h77.445 M127.359,108.5h0.14"/>
<g>
	<path fill="#ECF0F1" d="M12.5,24.5l-2,5h20l-2-5H12.5z"/>
	<path fill="#1ABC9C" d="M17.5,29.5h6l-1-5h-4L17.5,29.5z"/>
	<path fill="none" d="M10.5,28.5h20l-2,13h-17L10.5,28.5z"/>
	<path fill="#BDC3C7" d="M10.5,29.5h20v16h-20V29.5z"/>
	<path fill="#ECF0F1" d="M13.5,39.5c-0.552,0-1,0.447-1,1v2c0,0.553,0.448,1,1,1h6c0.552,0,1-0.447,1-1v-2c0-0.553-0.448-1-1-1H13.5
		z"/>
	<path fill="#16A085" d="M17.5,29.5v7l1-1l1,1l1-1l1,1l1-1l1,1v-7H17.5z"/>
	<path fill="#95A5A6" d="M13.5,40.5h1v2h-1V40.5z"/>
	<path fill="#95A5A6" d="M15.5,40.5h1v2h-1V40.5z"/>
	<path fill="#95A5A6" d="M17.5,40.5h1v2h-1V40.5z"/>
	<path fill="#7F8C8D" d="M18.5,40.5h1v2h-1V40.5z"/>
	<path fill="#BDC3C7" d="M16.5,40.5h1v2h-1V40.5z"/>
</g>
<text transform="matrix(1 0 0 1 10.5 63.5)" font-family="'Helvetica'" font-size="12">GitHub</text>
<path fill="none" stroke="#CCCCCC" stroke-miterlimit="10" stroke-dasharray="4,4" d="M135.263,36.5h0.172 M46.5,36.5h94.655
	 M145.328,36.5h0.172 M145.5,84.916v0.094 M145.5,36.5v51.63 M145.5,90.406V90.5"/>
<g>
	<path fill="#E74C3C" d="M136.5,111.5l12,6l12-6l-12-6L136.5,111.5z"/>
	<path fill="#C0392B" d="M148.5,105.5l-9,4.5l9,4.5l9-4.5L148.5,105.5z"/>
	<path fill="#3498DB" d="M136.5,107.5l12,6l12-6l-12-6L136.5,107.5z"/>
	<path fill="#2980B9" d="M148.5,101.5l-9,4.5l9,4.5l9-4.5L148.5,101.5z"/>
	<path fill="#F1C40F" d="M136.5,103.5l12,6l12-6l-12-6L136.5,103.5z"/>
</g>
<g>
	<path fill="#7F8C8D" d="M25.53,162.5v1.062c-0.31,0.063-0.616,0.176-0.874,0.344l-0.75-0.75l-0.72,0.72l0.75,0.75
		c-0.167,0.257-0.278,0.562-0.343,0.874H22.53v1h1.063c0.064,0.312,0.176,0.617,0.344,0.875l-0.75,0.75l0.72,0.72l0.75-0.75
		c0.257,0.167,0.562,0.28,0.874,0.343v1.062h1v-1.062c0.313-0.063,0.618-0.176,0.876-0.344l0.75,0.75l0.72-0.72l-0.75-0.75
		c0.167-0.257,0.278-0.562,0.343-0.874h1.06v-1h-1.06c-0.065-0.312-0.177-0.617-0.345-0.875l0.75-0.75l-0.72-0.721l-0.75,0.75
		c-0.257-0.166-0.562-0.279-0.874-0.342V162.5H25.53L25.53,162.5z M26.03,164.5c0.83,0,1.5,0.672,1.5,1.5s-0.67,1.5-1.5,1.5
		c-0.83,0-1.5-0.672-1.5-1.5S25.203,164.5,26.03,164.5z"/>
	<path fill="#95A5A6" d="M28.53,167.471v1.029c-0.27,0.038-0.533,0.122-0.78,0.221l-0.53-0.908l-0.876,0.5l0.53,0.906
		c-0.222,0.174-0.418,0.37-0.593,0.594l-0.905-0.53l-0.5,0.874l0.906,0.529c-0.095,0.248-0.18,0.513-0.218,0.782h-1.03v1h1.03
		c0.038,0.271,0.123,0.533,0.22,0.78l-0.907,0.529l0.5,0.877l0.906-0.53c0.176,0.222,0.372,0.418,0.595,0.593l-0.53,0.905l0.874,0.5
		l0.53-0.906c0.247,0.095,0.51,0.181,0.78,0.218v1.03h1v-1.03c0.272-0.037,0.535-0.123,0.782-0.22l0.53,0.907l0.876-0.5l-0.53-0.906
		c0.222-0.176,0.418-0.372,0.593-0.595l0.907,0.53l0.5-0.875l-0.906-0.529c0.097-0.247,0.182-0.51,0.22-0.78h1.03v-1H32.5
		c-0.038-0.272-0.123-0.534-0.22-0.782l0.907-0.529l-0.5-0.877l-0.906,0.531c-0.174-0.224-0.37-0.418-0.593-0.594l0.53-0.906
		l-0.874-0.5l-0.53,0.905c-0.248-0.098-0.512-0.182-0.782-0.22v-1.03h-1L28.53,167.471z M29.03,169.471c1.382,0,2.5,1.117,2.5,2.5
		c0,1.381-1.118,2.5-2.5,2.5c-1.382,0-2.5-1.121-2.5-2.5C26.53,170.59,27.65,169.471,29.03,169.471z"/>
	<path fill="#BDC3C7" d="M19.53,165.471L17.5,165.5v2.094c-0.36,0.062-0.712,0.15-1.062,0.28l-1.062-1.81l-1.72,1l1.032,1.81
		c-0.29,0.24-0.547,0.502-0.78,0.782l-1.813-1.03l-1,1.718l1.812,1.062c-0.134,0.359-0.25,0.715-0.312,1.094H10.5v2l2.125,0.029
		c0.063,0.361,0.15,0.714,0.28,1.063l-1.81,1.03l1,1.75l1.81-1.061c0.24,0.289,0.502,0.547,0.782,0.78l-1.062,1.812l1.75,1.031
		l1.03-1.811c0.36,0.134,0.747,0.217,1.126,0.279v2.095h2v-2.095c0.36-0.062,0.713-0.15,1.063-0.28l1.062,1.81l1.72-1l-1.032-1.81
		c0.29-0.24,0.547-0.502,0.78-0.782l1.813,1.03l1.03-1.75l-1.843-1.03c0.135-0.359,0.25-0.715,0.312-1.094h2.094v-2.032h-2.126
		c-0.062-0.36-0.15-0.712-0.28-1.062l1.81-1.03l-1-1.75l-1.81,1.06c-0.24-0.287-0.502-0.545-0.782-0.779l1.062-1.844l-1.75-1
		l-1.03,1.812c-0.36-0.134-0.747-0.218-1.126-0.28l0.033-2.125L19.53,165.471z M18.53,170.5c1.658,0,3,1.343,3,3
		c0,1.656-1.342,3-3,3c-1.658,0-3-1.344-3-3C15.53,171.843,16.875,170.5,18.53,170.5z"/>
</g>
<text transform="matrix(1 0 0 1 10.5 199.5)" font-family="'Helvetica'" font-size="12">Codeship</text>
<path fill="none" stroke="#CCCCCC" stroke-miterlimit="10" stroke-dasharray="4,4" d="M135.263,172.5h0.172 M46.5,172.5h94.655
	 M145.328,172.5h0.172 M145.5,170.57v0.015 M145.5,162.5v8.605 M145.5,171.484v0.016"/>
</svg>
