<?xml version="1.0" encoding="utf-8"?>
<!-- Generator: Adobe Illustrator 16.0.4, SVG Export Plug-In . SVG Version: 6.00 Build 0)  -->
<!DOCTYPE svg PUBLIC "-//W3C//DTD SVG 1.1//EN" "http://www.w3.org/Graphics/SVG/1.1/DTD/svg11.dtd">
<svg version="1.1" id="Layer_1" xmlns="http://www.w3.org/2000/svg" xmlns:xlink="http://www.w3.org/1999/xlink" x="0px" y="0px"
	 width="330px" height="230px" viewBox="0 0 330 230" enable-background="new 0 0 330 230" xml:space="preserve">
<text transform="matrix(1 0 0 1 134.5 136.5)" font-family="'Helvetica'" font-size="12">WorldSkills</text>
<text transform="matrix(1 0 0 1 134.5 150.9004)" font-family="'Helvetica'" font-size="12">infrastructure</text>
<path fill="none" stroke="#CCCCCC" stroke-miterlimit="10" stroke-dasharray="4,4" d="M154.5,84.916v0.094 M152.5,37.5v54
	 M154.5,90.406V90.5 M228.984,108.5h0.111 M170.5,109.5h63 M235.391,108.5h0.11"/>
<path fill="none" stroke="#BDC3C7" stroke-miterlimit="10" d="M80.5,9.5h236v206h-236V9.5z"/>
<g>
	<path fill="#34495E" d="M254.515,22.482c-0.406,0-0.806,0.06-1.188,0.156c-0.225,0.056-0.439,0.13-0.656,0.218
		c-0.084,0.034-0.17,0.055-0.25,0.094c-0.035,0.016-0.061,0.046-0.095,0.062c-0.203,0.1-0.402,0.217-0.595,0.344
		c-0.025,0.018-0.065,0.013-0.094,0.03c-0.056,0.04-0.1,0.085-0.156,0.126c-0.154,0.112-0.318,0.216-0.467,0.344
		c-0.135,0.12-0.25,0.272-0.375,0.406c-0.426,0.436-0.793,0.897-1.095,1.438c-0.517,0.903-0.899,1.92-1.062,2.97
		c-0.078-0.018-0.15-0.023-0.219,0c-0.525,0.17-0.654,1.167-0.312,2.218c0.199,0.616,0.533,1.102,0.875,1.375
		c0.457,1.778,1.426,3.26,2.688,4.188v1.03l-1,1l-2,1c-1.617,0.802-3.229,1.606-4.845,2.407c-0.896,0.54-1.243,1.6-1.157,2.594
		c0.043,0.626-0.185,1.428,0.438,1.844c0.592,0.304,1.297,0.105,1.94,0.156h13.621c2.365,0,4.727,0.004,7.094,0
		c0.77-0.055,0.979-0.865,0.906-1.5c0.014-0.932,0.066-1.977-0.656-2.688c-0.592-0.603-1.436-0.84-2.156-1.25
		c-1.061-0.525-2.127-1.037-3.188-1.562l-2-1l-1-1v-1.03c1.262-0.93,2.229-2.41,2.688-4.19c0.34-0.272,0.674-0.758,0.875-1.374
		c0.342-1.05,0.213-2.048-0.312-2.22c-0.068-0.02-0.14-0.016-0.22,0c-0.16-1.047-0.546-2.064-1.06-2.968
		c-0.303-0.54-0.67-1.002-1.097-1.438c-0.125-0.134-0.239-0.286-0.375-0.406c-0.006-0.005-0.024,0.005-0.028,0
		c-0.396-0.35-0.828-0.62-1.282-0.844c-0.115-0.056-0.228-0.108-0.345-0.156c-0.084-0.034-0.166-0.064-0.25-0.094
		c-0.256-0.088-0.518-0.174-0.781-0.22c-0.02-0.002-0.042,0.004-0.062,0c-0.253-0.038-0.498-0.064-0.753-0.06H254.515
		L254.515,22.482z"/>
	<path fill="#2C3E50" d="M242.515,45.482c0.025,0.33,0.125,0.636,0.438,0.844c0.592,0.304,1.297,0.106,1.938,0.156h13.623
		c2.366,0,4.728,0.004,7.094,0c0.576-0.04,0.843-0.502,0.906-1H242.515z"/>
</g>
<g>
	<path fill="#34495E" d="M254.515,94.482c-0.406,0-0.806,0.06-1.188,0.156c-0.227,0.056-0.439,0.13-0.656,0.218
		c-0.085,0.034-0.17,0.055-0.25,0.094c-0.035,0.016-0.062,0.046-0.095,0.062c-0.203,0.1-0.402,0.217-0.595,0.344
		c-0.025,0.018-0.064,0.013-0.094,0.03c-0.057,0.04-0.102,0.085-0.156,0.126c-0.153,0.112-0.318,0.216-0.467,0.344
		c-0.136,0.12-0.25,0.272-0.375,0.406c-0.427,0.436-0.793,0.897-1.095,1.438c-0.517,0.903-0.899,1.92-1.062,2.97
		c-0.078-0.018-0.15-0.023-0.219,0c-0.525,0.17-0.654,1.167-0.312,2.218c0.199,0.616,0.533,1.102,0.875,1.375
		c0.457,1.778,1.426,3.26,2.688,4.188v1.03l-1,1l-2,1c-1.617,0.802-3.229,1.606-4.845,2.407c-0.896,0.54-1.243,1.6-1.157,2.594
		c0.041,0.626-0.185,1.428,0.438,1.844c0.592,0.304,1.297,0.104,1.94,0.155h13.621c2.365,0,4.727,0.004,7.094,0
		c0.77-0.056,0.979-0.864,0.906-1.5c0.014-0.933,0.066-1.978-0.656-2.688c-0.592-0.603-1.436-0.84-2.156-1.25
		c-1.061-0.525-2.127-1.037-3.188-1.562l-2-1l-1-1v-1.03c1.262-0.93,2.229-2.41,2.688-4.19c0.34-0.272,0.674-0.758,0.875-1.374
		c0.342-1.05,0.213-2.048-0.312-2.22c-0.068-0.02-0.14-0.016-0.22,0c-0.16-1.047-0.546-2.064-1.06-2.968
		c-0.303-0.54-0.67-1.002-1.097-1.438c-0.125-0.134-0.239-0.286-0.375-0.406c-0.006-0.005-0.024,0.005-0.028,0
		c-0.396-0.35-0.828-0.62-1.282-0.844c-0.115-0.056-0.228-0.108-0.345-0.156c-0.084-0.034-0.166-0.064-0.25-0.094
		c-0.256-0.088-0.518-0.174-0.781-0.22c-0.02-0.002-0.042,0.004-0.062,0c-0.253-0.038-0.496-0.064-0.753-0.06L254.515,94.482
		L254.515,94.482z"/>
	<path fill="#2C3E50" d="M242.515,117.481c0.025,0.33,0.127,0.637,0.438,0.845c0.592,0.304,1.297,0.106,1.938,0.155h13.623
		c2.366,0,4.728,0.004,7.094,0c0.576-0.039,0.843-0.502,0.906-1H242.515z"/>
</g>
<g>
	<path fill="#34495E" d="M20.512,94.482c-0.405,0-0.805,0.06-1.188,0.156c-0.224,0.056-0.44,0.13-0.656,0.218
		c-0.084,0.034-0.17,0.055-0.25,0.094c-0.035,0.016-0.06,0.046-0.095,0.062c-0.203,0.1-0.402,0.217-0.594,0.344
		c-0.026,0.018-0.066,0.013-0.093,0.03c-0.056,0.04-0.1,0.085-0.156,0.126c-0.156,0.112-0.32,0.216-0.468,0.344
		c-0.134,0.12-0.25,0.272-0.375,0.406c-0.425,0.436-0.793,0.897-1.094,1.438c-0.516,0.903-0.9,1.92-1.062,2.97
		c-0.077-0.018-0.15-0.023-0.218,0c-0.525,0.17-0.654,1.167-0.312,2.218c0.2,0.616,0.535,1.102,0.875,1.375
		c0.457,1.778,1.426,3.26,2.688,4.188v1.03l-1,1l-2,1c-1.617,0.802-3.23,1.606-4.844,2.407c-0.896,0.54-1.243,1.6-1.157,2.594
		c0.042,0.626-0.185,1.428,0.438,1.844c0.592,0.304,1.297,0.104,1.94,0.155h13.621c2.367,0,4.727,0.004,7.094,0
		c0.77-0.056,0.98-0.864,0.906-1.5c0.014-0.933,0.068-1.978-0.656-2.688c-0.592-0.603-1.434-0.84-2.156-1.25
		c-1.06-0.525-2.127-1.037-3.188-1.562l-2-1l-1-1v-1.03c1.262-0.93,2.23-2.41,2.688-4.19c0.34-0.272,0.674-0.758,0.875-1.374
		c0.342-1.05,0.213-2.048-0.312-2.22c-0.068-0.02-0.14-0.016-0.22,0c-0.16-1.047-0.546-2.064-1.06-2.968
		c-0.302-0.54-0.67-1.002-1.095-1.438c-0.125-0.134-0.24-0.286-0.375-0.406c-0.006-0.005-0.025,0.005-0.03,0
		c-0.394-0.35-0.828-0.62-1.282-0.844c-0.115-0.056-0.227-0.108-0.344-0.156c-0.085-0.034-0.166-0.064-0.25-0.094
		c-0.257-0.088-0.517-0.174-0.782-0.22c-0.02-0.002-0.042,0.004-0.062,0c-0.253-0.038-0.498-0.064-0.753-0.06L20.512,94.482
		L20.512,94.482z"/>
	<path fill="#2C3E50" d="M8.512,117.481c0.026,0.33,0.126,0.637,0.438,0.845c0.592,0.304,1.297,0.106,1.94,0.155h13.622
		c2.367,0,4.727,0.004,7.094,0c0.576-0.039,0.842-0.502,0.906-1H8.512z"/>
</g>
<text transform="matrix(1 0 0 1 8.5 136.5)" font-family="'Helvetica'" font-size="12">Hoster</text>
<text transform="matrix(1 0 0 1 242.5 136.5)" font-family="'Helvetica'" font-size="12">User</text>
<text transform="matrix(1 0 0 1 242.5 64.5)" font-family="'Helvetica'" font-size="12">Developer</text>
<path fill="none" stroke="#CCCCCC" stroke-miterlimit="10" stroke-dasharray="4,4" d="M227.124,36.5h0.14 M152.5,37.5h81
	 M235.359,36.5h0.14 M119.124,108.5h0.14 M44.5,109.5h81 M127.359,108.5h0.14"/>
<text transform="matrix(1 0 0 1 8.5 64.5)" font-family="'Helvetica'" font-size="12">GitHub</text>
<path fill="none" stroke="#CCCCCC" stroke-miterlimit="10" stroke-dasharray="4,4" d="M135.263,36.5h0.172 M44.5,37.5h99
	 M145.328,36.5h0.172 M145.5,84.916v0.094 M143.5,37.5v54 M145.5,90.406V90.5"/>
<g>
	<path fill="#E74C3C" d="M134.5,112.5l12,6l12-6l-12-6L134.5,112.5z"/>
	<path fill="#C0392B" d="M146.5,106.5l-9,4.5l9,4.5l9-4.5L146.5,106.5z"/>
	<path fill="#3498DB" d="M134.5,108.5l12,6l12-6l-12-6L134.5,108.5z"/>
	<path fill="#2980B9" d="M146.5,102.5l-9,4.5l9,4.5l9-4.5L146.5,102.5z"/>
	<path fill="#F1C40F" d="M134.5,104.5l12,6l12-6l-12-6L134.5,104.5z"/>
</g>
<text transform="matrix(1 0 0 1 8.5 208.5)" font-family="'Helvetica'" font-size="12">Codeship</text>
<path fill="none" stroke="#CCCCCC" stroke-miterlimit="10" stroke-dasharray="4,4" d="M133.263,181.5h0.172 M44.5,181.5h94.655
	 M143.328,181.5h0.172 M143.5,179.57v0.015 M143.5,163.5v16.605 M143.5,180.484v0.016"/>
<g>
	<path fill="#34495E" d="M20.512,22.482c-0.405,0-0.805,0.06-1.188,0.156c-0.224,0.056-0.44,0.13-0.656,0.218
		c-0.084,0.034-0.17,0.055-0.25,0.094c-0.035,0.016-0.06,0.046-0.095,0.062c-0.203,0.1-0.402,0.217-0.594,0.344
		c-0.026,0.018-0.066,0.013-0.093,0.03c-0.056,0.04-0.1,0.085-0.156,0.126c-0.156,0.112-0.32,0.216-0.468,0.344
		c-0.134,0.12-0.25,0.272-0.375,0.406c-0.425,0.436-0.793,0.897-1.094,1.438c-0.516,0.903-0.9,1.92-1.062,2.97
		c-0.077-0.018-0.15-0.023-0.218,0c-0.525,0.17-0.654,1.167-0.312,2.218c0.2,0.616,0.535,1.102,0.875,1.375
		c0.457,1.778,1.426,3.259,2.688,4.188v1.03l-1,1l-2,1c-1.617,0.802-3.23,1.605-4.844,2.406c-0.896,0.541-1.243,1.601-1.157,2.594
		c0.042,0.627-0.185,1.429,0.438,1.845c0.592,0.304,1.297,0.104,1.94,0.155h13.622c2.366,0,4.727,0.004,7.094,0
		c0.77-0.056,0.979-0.864,0.906-1.5c0.014-0.933,0.067-1.978-0.656-2.688c-0.592-0.603-1.435-0.84-2.156-1.25
		c-1.061-0.524-2.127-1.037-3.188-1.562l-2-1l-1-1v-1.03c1.262-0.931,2.229-2.41,2.688-4.19c0.34-0.272,0.674-0.758,0.875-1.374
		c0.342-1.05,0.213-2.048-0.312-2.22c-0.068-0.02-0.14-0.016-0.22,0c-0.16-1.047-0.546-2.064-1.06-2.968
		c-0.303-0.54-0.67-1.002-1.096-1.438c-0.125-0.134-0.24-0.286-0.375-0.406c-0.006-0.005-0.025,0.005-0.029,0
		c-0.395-0.35-0.828-0.62-1.282-0.844c-0.115-0.056-0.228-0.108-0.345-0.156c-0.084-0.034-0.166-0.064-0.25-0.094
		c-0.256-0.088-0.517-0.174-0.781-0.22c-0.02-0.002-0.042,0.004-0.062,0c-0.253-0.038-0.498-0.064-0.753-0.06L20.512,22.482
		L20.512,22.482z"/>
	<path fill="#2C3E50" d="M8.512,45.481c0.026,0.33,0.126,0.637,0.438,0.845c0.592,0.304,1.297,0.106,1.94,0.155h13.623
		c2.366,0,4.727,0.004,7.094,0c0.576-0.039,0.842-0.502,0.906-1H8.512z"/>
</g>
<g>
	<path fill="#34495E" d="M20.512,166.482c-0.406,0-0.806,0.06-1.188,0.156c-0.224,0.055-0.44,0.129-0.656,0.217
		c-0.084,0.035-0.17,0.056-0.25,0.095c-0.035,0.016-0.06,0.046-0.095,0.062c-0.203,0.1-0.402,0.217-0.594,0.344
		c-0.026,0.019-0.066,0.014-0.093,0.031c-0.056,0.039-0.1,0.084-0.156,0.125c-0.156,0.112-0.32,0.217-0.468,0.344
		c-0.134,0.121-0.25,0.272-0.375,0.406c-0.425,0.437-0.793,0.897-1.094,1.438c-0.516,0.903-0.9,1.92-1.062,2.97
		c-0.077-0.018-0.15-0.023-0.218,0c-0.525,0.17-0.654,1.167-0.312,2.219c0.2,0.615,0.535,1.102,0.875,1.375
		c0.457,1.777,1.426,3.259,2.688,4.188v1.03l-1,1l-2,1c-1.617,0.802-3.23,1.605-4.844,2.406c-0.896,0.541-1.243,1.601-1.157,2.594
		c0.042,0.627-0.185,1.429,0.438,1.845c0.592,0.304,1.297,0.104,1.94,0.155h13.622c2.366,0,4.727,0.004,7.094,0
		c0.77-0.056,0.979-0.864,0.906-1.5c0.014-0.933,0.067-1.978-0.656-2.688c-0.592-0.603-1.435-0.84-2.156-1.25
		c-1.061-0.524-2.127-1.037-3.188-1.562l-2-1l-1-1v-1.03c1.262-0.931,2.229-2.41,2.688-4.189c0.34-0.272,0.674-0.759,0.875-1.375
		c0.342-1.05,0.213-2.048-0.312-2.22c-0.068-0.021-0.14-0.017-0.22,0c-0.16-1.047-0.546-2.063-1.06-2.968
		c-0.303-0.54-0.67-1.002-1.096-1.438c-0.125-0.135-0.24-0.287-0.375-0.406c-0.006-0.006-0.025,0.004-0.029,0
		c-0.395-0.351-0.828-0.621-1.282-0.844c-0.115-0.057-0.228-0.109-0.345-0.156c-0.084-0.034-0.166-0.064-0.25-0.094
		c-0.256-0.089-0.517-0.175-0.781-0.221c-0.02-0.002-0.042,0.004-0.062,0c-0.252-0.038-0.498-0.064-0.752-0.061h0.002V166.482z"/>
	<path fill="#2C3E50" d="M8.512,189.481c0.026,0.33,0.126,0.637,0.438,0.845c0.592,0.304,1.297,0.106,1.94,0.155h13.623
		c2.366,0,4.727,0.004,7.094,0c0.576-0.039,0.842-0.502,0.906-1H8.512z"/>
</g>
</svg>
