<svg xmlns="http://www.w3.org/2000/svg" width="330" height="230" viewBox="0 0 330 230">
    <text transform="translate(136.5 135.5)" font-family="'Helvetica'" font-size="12">
        WorldSkills
    </text>
    <text transform="translate(136.5 149.9)" font-family="'Helvetica'" font-size="12">
        infrastructure
    </text>
    <path fill="none" stroke="#ccc" stroke-miterlimit="10" stroke-dasharray="4,4" d="M154.5 84.916v.094m0-48.51v51.63m0 2.276v.094M228.985 108.5h.11m-56.595 0h60.235m2.656 0h.11"/>
    <path fill="none" stroke="#BDC3C7" stroke-miterlimit="10" d="M80.5 9.5h236v206h-236z"/>
    <g>
        <path fill="#34495E" d="M256.513 21.483c-.405 0-.805.06-1.188.156-.224.056-.44.13-.656.218-.084.034-.17.055-.25.094-.035.016-.06.046-.095.062-.203.1-.402.217-.594.344-.026.018-.066.013-.093.03-.056.04-.1.085-.156.126-.156.112-.32.216-.468.344-.134.12-.25.272-.375.406-.425.436-.793.897-1.094 1.438-.516.903-.9 1.92-1.062 2.97-.077-.018-.15-.023-.218 0-.525.17-.654 1.167-.312 2.218.2.616.535 1.102.875 1.375.457 1.778 1.426 3.26 2.688 4.188v1.03l-1 1-2 1c-1.617.802-3.23 1.606-4.844 2.407-.896.54-1.243 1.6-1.157 2.594.042.626-.185 1.428.438 1.844.592.304 1.297.105 1.94.156H260.513c2.367 0 4.727.004 7.094 0 .77-.055.98-.865.906-1.5.014-.932.068-1.977-.656-2.688-.592-.603-1.434-.84-2.156-1.25-1.06-.525-2.127-1.037-3.188-1.562l-2-1-1-1v-1.03c1.262-.93 2.23-2.41 2.688-4.19.34-.272.674-.758.875-1.374.342-1.05.213-2.048-.312-2.22-.068-.02-.14-.016-.22 0-.16-1.047-.546-2.064-1.06-2.968-.302-.54-.67-1.002-1.095-1.438-.125-.134-.24-.286-.375-.406-.006-.005-.025.005-.03 0-.394-.35-.828-.62-1.282-.844-.115-.056-.227-.108-.344-.156-.085-.034-.166-.064-.25-.094-.257-.088-.517-.174-.782-.22-.02-.002-.042.004-.062 0-.253-.038-.498-.064-.753-.06z"/>
        <path fill="#2C3E50" d="M244.513 44.483c.026.33.126.636.438.844.592.304 1.297.106 1.94.156H260.513c2.367 0 4.727.004 7.094 0 .576-.04.842-.502.906-1h-24z"/>
    </g>
    <g>
        <path fill="#34495E" d="M256.513 93.483c-.405 0-.805.06-1.188.156-.225.056-.44.13-.656.218-.085.034-.17.055-.25.094-.035.016-.062.046-.095.062-.203.1-.402.217-.594.344-.026.018-.065.013-.093.03-.057.04-.102.085-.156.126-.155.112-.32.216-.468.344-.135.12-.25.272-.375.406-.426.436-.793.897-1.094 1.438-.516.903-.9 1.92-1.062 2.97-.077-.018-.15-.023-.218 0-.525.17-.654 1.167-.312 2.218.2.616.535 1.102.875 1.375.457 1.778 1.426 3.26 2.688 4.188v1.03l-1 1-2 1c-1.617.802-3.23 1.606-4.844 2.407-.896.54-1.243 1.6-1.157 2.594.04.626-.185 1.428.438 1.844.592.304 1.297.105 1.94.156H260.513c2.367 0 4.727.004 7.094 0 .77-.055.98-.865.906-1.5.014-.932.068-1.977-.656-2.688-.592-.603-1.434-.84-2.156-1.25-1.06-.525-2.127-1.037-3.188-1.562l-2-1-1-1v-1.03c1.262-.93 2.23-2.41 2.688-4.19.34-.272.674-.758.875-1.374.342-1.05.213-2.048-.312-2.22-.068-.02-.14-.016-.22 0-.16-1.047-.546-2.064-1.06-2.968-.302-.54-.67-1.002-1.095-1.438-.125-.134-.24-.286-.375-.406-.006-.005-.025.005-.03 0-.394-.35-.828-.62-1.282-.844-.115-.056-.227-.108-.344-.156-.085-.034-.166-.064-.25-.094-.257-.088-.517-.174-.782-.22-.02-.002-.042.004-.062 0-.253-.038-.497-.064-.753-.06z"/>
        <path fill="#2C3E50" d="M244.513 116.483c.026.33.127.636.438.844.592.304 1.297.106 1.94.156H260.513c2.367 0 4.727.004 7.094 0 .576-.04.842-.502.906-1h-24z"/>
    </g>
    <g>
        <path fill="#34495E" d="M22.513 93.483c-.405 0-.805.06-1.188.156-.224.056-.44.13-.656.218-.084.034-.17.055-.25.094-.035.016-.06.046-.095.062-.203.1-.402.217-.594.344-.026.018-.066.013-.093.03-.056.04-.1.085-.156.126-.156.112-.32.216-.468.344-.134.12-.25.272-.375.406-.425.436-.793.897-1.094 1.438-.516.903-.9 1.92-1.062 2.97-.077-.018-.15-.023-.218 0-.525.17-.654 1.167-.312 2.218.2.616.535 1.102.875 1.375.457 1.778 1.426 3.26 2.688 4.188v1.03l-1 1-2 1c-1.617.802-3.23 1.606-4.844 2.407-.896.54-1.243 1.6-1.157 2.594.042.626-.185 1.428.438 1.844.592.304 1.297.105 1.94.156H26.513c2.367 0 4.727.004 7.094 0 .77-.055.98-.865.906-1.5.014-.932.068-1.977-.656-2.688-.592-.603-1.434-.84-2.156-1.25-1.06-.525-2.127-1.037-3.188-1.562l-2-1-1-1v-1.03c1.262-.93 2.23-2.41 2.688-4.19.34-.272.674-.758.875-1.374.342-1.05.213-2.048-.312-2.22-.068-.02-.14-.016-.22 0-.16-1.047-.546-2.064-1.06-2.968-.302-.54-.67-1.002-1.095-1.438-.125-.134-.24-.286-.375-.406-.006-.005-.025.005-.03 0-.394-.35-.828-.62-1.282-.844-.115-.056-.227-.108-.344-.156-.085-.034-.166-.064-.25-.094-.257-.088-.517-.174-.782-.22-.02-.002-.042.004-.062 0-.253-.038-.498-.064-.753-.06z"/>
        <path fill="#2C3E50" d="M10.513 116.483c.026.33.126.636.438.844.592.304 1.297.106 1.94.156H26.513c2.367 0 4.727.004 7.094 0 .576-.04.842-.502.906-1h-24z"/>
    </g>
    <text transform="translate(10.5 135.5)" font-family="'Helvetica'" font-size="12">
        Hoster
    </text>
    <text transform="translate(244.5 135.5)" font-family="'Helvetica'" font-size="12">
        User
    </text>
    <text transform="translate(244.5 63.5)" font-family="'Helvetica'" font-size="12">
        Developer
    </text>
    <path fill="none" stroke="#ccc" stroke-miterlimit="10" stroke-dasharray="4,4" d="M227.124 36.5h.14m-72.764 0h77.445m3.414 0h.14M119.124 108.5h.14m-72.764 0h77.445m3.414 0h.14"/>
    <g>
        <path fill="#ECF0F1" d="M12.5 24.5l-2 5h20l-2-5h-16z"/>
        <path fill="#1ABC9C" d="M17.5 29.5h6l-1-5h-4l-1 5z"/>
        <path fill="none" d="M10.5 28.5h20l-2 13h-17l-1-13z"/>
        <path fill="#BDC3C7" d="M10.5 29.5h20v16h-20z"/>
        <path fill="#ECF0F1" d="M13.5 39.5c-.552 0-1 .447-1 1v2c0 .553.448 1 1 1h6c.552 0 1-.447 1-1v-2c0-.553-.448-1-1-1h-6z"/>
        <path fill="#16A085" d="M17.5 29.5v7l1-1 1 1 1-1 1 1 1-1 1 1v-7h-6z"/>
        <path fill="#95A5A6" d="M13.5 40.5h1v2h-1z"/>
        <path fill="#95A5A6" d="M15.5 40.5h1v2h-1z"/>
        <path fill="#95A5A6" d="M17.5 40.5h1v2h-1z"/>
        <path fill="#7F8C8D" d="M18.5 40.5h1v2h-1z"/>
        <path fill="#BDC3C7" d="M16.5 40.5h1v2h-1z"/>
    </g>
    <text transform="translate(10.5 63.5)" font-family="'Helvetica'" font-size="12">
        GitHub
    </text>
    <path fill="none" stroke="#ccc" stroke-miterlimit="10" stroke-dasharray="4,4" d="M135.263 36.5h.172m-88.935 0h94.655m4.173 0h.172M145.5 84.916v.094m0-48.51v51.63m0 2.276v.094"/>
    <g>
        <path fill="#E74C3C" d="M136.5 111.5l12 6 12-6-12-6-12 6z"/>
        <path fill="#C0392B" d="M148.5 105.5l-9 4.5 9 4.5 9-4.5-9-4.5z"/>
        <path fill="#3498DB" d="M136.5 107.5l12 6 12-6-12-6-12 6z"/>
        <path fill="#2980B9" d="M148.5 101.5l-9 4.5 9 4.5 9-4.5-9-4.5z"/>
        <path fill="#F1C40F" d="M136.5 103.5l12 6 12-6-12-6-12 6z"/>
    </g>
    <g>
        <path fill="#7F8C8D" d="M25.53 162.5v1.062c-.31.064-.616.176-.874.344l-.75-.75-.72.72.75.75c-.167.257-.278.562-.343.874H22.53v1h1.063c.064.312.176.617.344.875l-.75.75.72.72.75-.75c.257.167.562.28.874.343v1.062h1v-1.062c.313-.064.618-.176.876-.344l.75.75.72-.72-.75-.75c.167-.257.278-.562.343-.874h1.06v-1h-1.06c-.065-.312-.177-.617-.345-.875l.75-.75-.72-.72-.75.75c-.257-.167-.562-.28-.874-.343V162.5h-1zm.5 2c.83 0 1.5.672 1.5 1.5s-.67 1.5-1.5 1.5-1.5-.672-1.5-1.5.673-1.5 1.5-1.5z"/>
        <path fill="#95A5A6" d="M28.53 167.47v1.03c-.27.038-.533.122-.78.22l-.53-.907-.876.5.53.906c-.222.174-.418.37-.593.593l-.905-.53-.5.874.906.53c-.095.248-.18.512-.218.782h-1.03v1h1.03c.038.27.123.533.22.78l-.907.53.5.876.906-.53c.176.222.372.418.595.593l-.53.905.874.5.53-.906c.247.095.51.18.78.218v1.03h1v-1.03c.272-.038.535-.123.782-.22l.53.907.876-.5-.53-.906c.222-.176.418-.372.593-.595l.907.53.5-.874-.906-.53c.097-.247.182-.51.22-.78h1.03v-1H32.5c-.038-.272-.123-.535-.22-.782l.907-.53-.5-.876-.906.53c-.174-.223-.37-.418-.593-.593l.53-.907-.874-.5-.53.906c-.248-.098-.512-.182-.782-.22v-1.03h-1zm.5 2c1.382 0 2.5 1.118 2.5 2.5s-1.118 2.5-2.5 2.5-2.5-1.12-2.5-2.5 1.12-2.5 2.5-2.5z"/>
        <path fill="#BDC3C7" d="M19.53 165.47l-2.03.03v2.094c-.36.062-.712.15-1.062.28l-1.062-1.81-1.72 1 1.032 1.81c-.29.24-.547.502-.78.782l-1.813-1.03-1 1.718 1.812 1.062c-.134.36-.25.715-.312 1.094H10.5v2l2.125.03c.063.36.15.713.28 1.063l-1.81 1.03 1 1.75 1.81-1.06c.24.288.502.546.782.78l-1.062 1.812 1.75 1.03 1.03-1.81c.36.134.747.217 1.126.28v2.094h2v-2.095c.36-.062.713-.15 1.063-.28l1.062 1.81 1.72-1-1.032-1.81c.29-.24.547-.502.78-.782l1.813 1.03 1.03-1.75-1.843-1.03c.135-.36.25-.715.312-1.094h2.094v-2.032h-2.126c-.062-.36-.15-.712-.28-1.062l1.81-1.03-1-1.75-1.81 1.06c-.24-.288-.502-.546-.782-.78l1.062-1.844-1.75-1-1.03 1.812c-.36-.134-.747-.218-1.126-.28l.033-2.125zm-1 5.03c1.658 0 3 1.343 3 3 0 1.656-1.342 3-3 3s-3-1.344-3-3c0-1.657 1.345-3 3-3z"/>
    </g>
    <text transform="translate(10.5 199.5)" font-family="'Helvetica'" font-size="12">
        Codeship
    </text>
    <path fill="none" stroke="#ccc" stroke-miterlimit="10" stroke-dasharray="4,4" d="M135.263 172.5h.172m-88.935 0h94.655m4.173 0h.172M145.5 170.57v.015m0-8.085v8.605m0 .38v.015"/>
</svg>
